# Blender v2.75 (sub 0) OBJ File: ''
# www.blender.org
mtllib aro.mtl
o Torus.001
v 1.250000 0.000000 0.000000
v 1.155872 0.195458 0.000000
v 0.944370 0.243732 0.000000
v 0.774758 0.108471 0.000000
v 0.774758 -0.108471 0.000000
v 0.944370 -0.243732 0.000000
v 1.155872 -0.195458 0.000000
v 1.011271 0.000000 -0.734732
v 0.935120 0.195458 -0.679405
v 0.764011 0.243732 -0.555087
v 0.626792 0.108471 -0.455391
v 0.626792 -0.108471 -0.455391
v 0.764011 -0.243732 -0.555087
v 0.935120 -0.195458 -0.679405
v 0.386272 0.000000 -1.188821
v 0.357184 0.195458 -1.099300
v 0.291826 0.243732 -0.898149
v 0.239413 0.108471 -0.736838
v 0.239413 -0.108471 -0.736838
v 0.291826 -0.243732 -0.898149
v 0.357184 -0.195458 -1.099300
v -0.386271 0.000000 -1.188821
v -0.357184 0.195458 -1.099300
v -0.291826 0.243732 -0.898149
v -0.239413 0.108471 -0.736838
v -0.239413 -0.108471 -0.736838
v -0.291826 -0.243732 -0.898149
v -0.357184 -0.195458 -1.099300
v -1.011271 0.000000 -0.734731
v -0.935121 0.195458 -0.679404
v -0.764011 0.243732 -0.555086
v -0.626792 0.108471 -0.455391
v -0.626792 -0.108471 -0.455391
v -0.764011 -0.243732 -0.555086
v -0.935121 -0.195458 -0.679404
v -1.250000 0.000000 -0.000000
v -1.155872 0.195458 -0.000000
v -0.944370 0.243732 -0.000000
v -0.774758 0.108471 -0.000000
v -0.774758 -0.108471 -0.000000
v -0.944370 -0.243732 -0.000000
v -1.155872 -0.195458 -0.000000
v -1.011271 0.000000 0.734731
v -0.935121 0.195458 0.679404
v -0.764011 0.243732 0.555086
v -0.626792 0.108471 0.455391
v -0.626792 -0.108471 0.455391
v -0.764011 -0.243732 0.555086
v -0.935121 -0.195458 0.679404
v -0.386271 0.000000 1.188821
v -0.357184 0.195458 1.099300
v -0.291826 0.243732 0.898149
v -0.239413 0.108471 0.736838
v -0.239413 -0.108471 0.736838
v -0.291826 -0.243732 0.898149
v -0.357184 -0.195458 1.099300
v 0.386272 0.000000 1.188821
v 0.357184 0.195458 1.099300
v 0.291826 0.243732 0.898149
v 0.239413 0.108471 0.736838
v 0.239413 -0.108471 0.736838
v 0.291826 -0.243732 0.898149
v 0.357184 -0.195458 1.099300
v 1.011271 0.000000 0.734732
v 0.935120 0.195458 0.679405
v 0.764011 0.243732 0.555087
v 0.626792 0.108471 0.455392
v 0.626792 -0.108471 0.455392
v 0.764011 -0.243732 0.555087
v 0.935120 -0.195458 0.679405
vt 0.597702 0.147776
vt 0.751996 0.032270
vt 0.768537 0.149682
vt 0.595318 0.138922
vt 0.691080 0.231937
vt 0.597999 0.127429
vt 0.579356 0.231937
vt 0.610942 0.121550
vt 0.506281 0.144293
vt 0.622853 0.132557
vt 0.540295 0.034683
vt 0.619152 0.146857
vt 0.642119 0.000252
vt 0.606490 0.151728
vt 0.493996 0.439010
vt 0.329313 0.361347
vt 0.331085 0.369901
vt 0.493996 0.321425
vt 0.340872 0.377552
vt 0.403042 0.247376
vt 0.354626 0.374140
vt 0.286331 0.276379
vt 0.356405 0.359141
vt 0.247376 0.385728
vt 0.346150 0.351476
vt 0.300603 0.479075
vt 0.335281 0.354784
vt 0.404810 0.505778
vt 0.988359 0.696289
vt 0.823731 0.618867
vt 0.826339 0.627610
vt 0.988359 0.578793
vt 0.835221 0.635811
vt 0.898625 0.505946
vt 0.848980 0.632425
vt 0.781388 0.534211
vt 0.850779 0.617364
vt 0.741681 0.643304
vt 0.840446 0.609630
vt 0.794274 0.736831
vt 0.828995 0.611953
vt 0.898036 0.764013
vt 0.659127 0.651093
vt 0.494500 0.573671
vt 0.584823 0.505946
vt 0.653863 0.658007
vt 0.688585 0.533129
vt 0.642413 0.660330
vt 0.741178 0.626656
vt 0.632080 0.652596
vt 0.701470 0.735749
vt 0.633878 0.637535
vt 0.584233 0.764014
vt 0.647638 0.634149
vt 0.494500 0.691167
vt 0.656519 0.642350
vt 0.932024 0.247376
vt 0.854602 0.412003
vt 0.863344 0.409395
vt 0.814527 0.247376
vt 0.871546 0.400514
vt 0.741681 0.337110
vt 0.868159 0.386754
vt 0.769946 0.454347
vt 0.853099 0.384956
vt 0.879039 0.494053
vt 0.845364 0.395289
vt 0.972566 0.441460
vt 0.847688 0.406739
vt 0.999748 0.337698
vt 0.164935 0.144682
vt 0.000252 0.067020
vt 0.089438 0.000252
vt 0.158967 0.151246
vt 0.193645 0.026955
vt 0.148098 0.154553
vt 0.246872 0.120302
vt 0.137843 0.146889
vt 0.207917 0.229650
vt 0.139622 0.131890
vt 0.091206 0.258654
vt 0.153376 0.128478
vt 0.000252 0.184605
vt 0.163163 0.136129
vt 0.000252 0.585788
vt 0.164880 0.663209
vt 0.162271 0.654467
vt 0.000252 0.703284
vt 0.153390 0.646265
vt 0.089986 0.776130
vt 0.139630 0.649652
vt 0.207223 0.747865
vt 0.137832 0.664713
vt 0.246930 0.638772
vt 0.148165 0.672447
vt 0.194337 0.545246
vt 0.159615 0.670124
vt 0.090575 0.518063
vt 0.576550 0.360297
vt 0.741178 0.437718
vt 0.650855 0.505443
vt 0.581814 0.353382
vt 0.547093 0.478260
vt 0.593264 0.351059
vt 0.494500 0.384733
vt 0.603597 0.358793
vt 0.534207 0.275640
vt 0.601799 0.373854
vt 0.651444 0.247376
vt 0.588040 0.377241
vt 0.741178 0.320222
vt 0.579158 0.369039
vt 0.439009 0.000252
vt 0.361347 0.164935
vt 0.369901 0.163163
vt 0.321425 0.000252
vt 0.377551 0.153376
vt 0.247376 0.091206
vt 0.374139 0.139622
vt 0.276379 0.207917
vt 0.359141 0.137843
vt 0.385728 0.246872
vt 0.351476 0.148098
vt 0.479075 0.193645
vt 0.354784 0.158967
vt 0.505778 0.089438
vt 0.000252 0.325926
vt 0.164935 0.403588
vt 0.163163 0.395035
vt 0.000252 0.443510
vt 0.153376 0.387384
vt 0.091206 0.517560
vt 0.139621 0.390796
vt 0.207916 0.488556
vt 0.137843 0.405795
vt 0.246872 0.379208
vt 0.148098 0.413459
vt 0.193645 0.285861
vt 0.158967 0.410152
vt 0.089438 0.259158
vn 0.864700 0.416400 -0.281000
vn 0.221900 0.972400 -0.072100
vn -0.611100 0.766300 0.198600
vn -0.951100 0.000000 0.309000
vn -0.611100 -0.766300 0.198600
vn 0.221900 -0.972400 -0.072100
vn 0.864700 -0.416400 -0.281000
vn 0.534400 0.416400 -0.735500
vn 0.137200 0.972400 -0.188800
vn -0.377700 0.766300 0.519800
vn -0.587800 0.000000 0.809000
vn -0.377700 -0.766300 0.519800
vn 0.137200 -0.972400 -0.188800
vn 0.534400 -0.416400 -0.735500
vn 0.000000 0.416400 -0.909200
vn 0.000000 0.972400 -0.233400
vn 0.000000 0.766300 0.642500
vn 0.000000 0.000000 1.000000
vn 0.000000 -0.766300 0.642500
vn 0.000000 -0.972400 -0.233400
vn 0.000000 -0.416400 -0.909200
vn -0.534400 0.416400 -0.735500
vn -0.137200 0.972400 -0.188800
vn 0.377700 0.766300 0.519800
vn 0.587800 0.000000 0.809000
vn 0.377700 -0.766300 0.519800
vn -0.137200 -0.972400 -0.188800
vn -0.534400 -0.416400 -0.735500
vn -0.864700 0.416400 -0.281000
vn -0.221900 0.972400 -0.072100
vn 0.611100 0.766300 0.198600
vn 0.951100 0.000000 0.309000
vn 0.611100 -0.766300 0.198600
vn -0.221900 -0.972400 -0.072100
vn -0.864700 -0.416400 -0.281000
vn -0.864700 0.416400 0.281000
vn -0.221900 0.972400 0.072100
vn 0.611100 0.766300 -0.198600
vn 0.951100 0.000000 -0.309000
vn 0.611100 -0.766300 -0.198600
vn -0.221900 -0.972400 0.072100
vn -0.864700 -0.416400 0.281000
vn -0.534400 0.416400 0.735500
vn -0.137200 0.972400 0.188800
vn 0.377700 0.766300 -0.519800
vn 0.587800 0.000000 -0.809000
vn 0.377700 -0.766300 -0.519800
vn -0.137200 -0.972400 0.188800
vn -0.534400 -0.416400 0.735500
vn 0.000000 0.416400 0.909200
vn 0.000000 0.972400 0.233400
vn 0.000000 0.766300 -0.642500
vn 0.000000 0.000000 -1.000000
vn 0.000000 -0.766300 -0.642500
vn 0.000000 -0.972400 0.233400
vn 0.000000 -0.416400 0.909200
vn 0.534400 0.416400 0.735500
vn 0.137200 0.972400 0.188800
vn -0.377700 0.766300 -0.519800
vn -0.587800 0.000000 -0.809000
vn -0.377700 -0.766300 -0.519800
vn 0.137200 -0.972400 0.188800
vn 0.534400 -0.416400 0.735500
vn 0.864700 0.416400 0.281000
vn 0.221900 0.972400 0.072100
vn -0.611100 0.766300 -0.198600
vn -0.951100 0.000000 -0.309000
vn -0.611100 -0.766300 -0.198600
vn 0.221900 -0.972400 0.072100
vn 0.864700 -0.416400 0.281000
usemtl Material.001
s off
f 1/1/1 8/2/1 9/3/1 2/4/1
f 2/4/2 9/3/2 10/5/2 3/6/2
f 3/6/3 10/5/3 11/7/3 4/8/3
f 4/8/4 11/7/4 12/9/4 5/10/4
f 5/10/5 12/9/5 13/11/5 6/12/5
f 6/12/6 13/11/6 14/13/6 7/14/6
f 1/1/7 7/14/7 14/13/7 8/2/7
f 8/15/8 15/16/8 16/17/8 9/18/8
f 9/18/9 16/17/9 17/19/9 10/20/9
f 10/20/10 17/19/10 18/21/10 11/22/10
f 11/22/11 18/21/11 19/23/11 12/24/11
f 12/24/12 19/23/12 20/25/12 13/26/12
f 13/26/13 20/25/13 21/27/13 14/28/13
f 14/28/14 21/27/14 15/16/14 8/15/14
f 15/29/15 22/30/15 23/31/15 16/32/15
f 16/32/16 23/31/16 24/33/16 17/34/16
f 17/34/17 24/33/17 25/35/17 18/36/17
f 18/36/18 25/35/18 26/37/18 19/38/18
f 19/38/19 26/37/19 27/39/19 20/40/19
f 20/40/20 27/39/20 28/41/20 21/42/20
f 21/42/21 28/41/21 22/30/21 15/29/21
f 22/43/22 29/44/22 30/45/22 23/46/22
f 23/46/23 30/45/23 31/47/23 24/48/23
f 24/48/24 31/47/24 32/49/24 25/50/24
f 25/50/25 32/49/25 33/51/25 26/52/25
f 26/52/26 33/51/26 34/53/26 27/54/26
f 27/54/27 34/53/27 35/55/27 28/56/27
f 28/56/28 35/55/28 29/44/28 22/43/28
f 29/57/29 36/58/29 37/59/29 30/60/29
f 30/60/30 37/59/30 38/61/30 31/62/30
f 31/62/31 38/61/31 39/63/31 32/64/31
f 32/64/32 39/63/32 40/65/32 33/66/32
f 33/66/33 40/65/33 41/67/33 34/68/33
f 34/68/34 41/67/34 42/69/34 35/70/34
f 35/70/35 42/69/35 36/58/35 29/57/35
f 36/71/36 43/72/36 44/73/36 37/74/36
f 37/74/37 44/73/37 45/75/37 38/76/37
f 38/76/38 45/75/38 46/77/38 39/78/38
f 39/78/39 46/77/39 47/79/39 40/80/39
f 40/80/40 47/79/40 48/81/40 41/82/40
f 41/82/41 48/81/41 49/83/41 42/84/41
f 42/84/42 49/83/42 43/72/42 36/71/42
f 43/85/43 50/86/43 51/87/43 44/88/43
f 44/88/44 51/87/44 52/89/44 45/90/44
f 45/90/45 52/89/45 53/91/45 46/92/45
f 46/92/46 53/91/46 54/93/46 47/94/46
f 47/94/47 54/93/47 55/95/47 48/96/47
f 48/96/48 55/95/48 56/97/48 49/98/48
f 49/98/49 56/97/49 50/86/49 43/85/49
f 50/99/50 57/100/50 58/101/50 51/102/50
f 51/102/51 58/101/51 59/103/51 52/104/51
f 52/104/52 59/103/52 60/105/52 53/106/52
f 53/106/53 60/105/53 61/107/53 54/108/53
f 54/108/54 61/107/54 62/109/54 55/110/54
f 55/110/55 62/109/55 63/111/55 56/112/55
f 56/112/56 63/111/56 57/100/56 50/99/56
f 57/113/57 64/114/57 65/115/57 58/116/57
f 58/116/58 65/115/58 66/117/58 59/118/58
f 59/118/59 66/117/59 67/119/59 60/120/59
f 60/120/60 67/119/60 68/121/60 61/122/60
f 61/122/61 68/121/61 69/123/61 62/124/61
f 62/124/62 69/123/62 70/125/62 63/126/62
f 63/126/63 70/125/63 64/114/63 57/113/63
f 64/127/64 1/128/64 2/129/64 65/130/64
f 65/130/65 2/129/65 3/131/65 66/132/65
f 66/132/66 3/131/66 4/133/66 67/134/66
f 67/134/67 4/133/67 5/135/67 68/136/67
f 68/136/68 5/135/68 6/137/68 69/138/68
f 69/138/69 6/137/69 7/139/69 70/140/69
f 70/140/70 7/139/70 1/128/70 64/127/70
