# Blender v2.75 (sub 0) OBJ File: 'plaza.blend'
# www.blender.org
mtllib base_plaza.mtl
o Cube.541_Cube.650
v 3.569567 -0.015859 -5.386434
v 3.569567 -0.015859 1.738055
v -3.737175 -0.015859 1.738055
v -3.737173 -0.015859 -5.386436
v 3.569569 0.050218 -5.386432
v 3.569565 0.050218 1.738057
v -3.737176 0.050218 1.738054
v -3.737174 0.050218 -5.386434
vt 0.017857 0.684524
vt 0.315476 0.684524
vt 0.315476 0.982143
vt 0.017857 0.982143
vt 0.648810 0.351191
vt 0.648810 0.648810
vt 0.351191 0.648810
vt 0.351191 0.351191
vt 0.315476 0.017857
vt 0.315476 0.315476
vt 0.017857 0.315476
vt 0.017857 0.017857
vt 0.017857 0.648810
vt 0.017857 0.351191
vt 0.315476 0.351191
vt 0.315476 0.648809
vt 0.648810 0.315476
vt 0.351191 0.315476
vt 0.351191 0.017857
vt 0.648810 0.017857
vt 0.684524 0.017857
vt 0.982143 0.017857
vt 0.982143 0.315476
vt 0.684524 0.315476
vn 0.000000 -1.000000 0.000000
vn 0.000000 1.000000 0.000000
vn 1.000000 0.000000 0.000000
vn -0.000000 -0.000000 1.000000
vn -1.000000 -0.000000 -0.000000
vn 0.000000 0.000000 -1.000000
usemtl Material.006
s off
f 1/1/1 2/2/1 3/3/1 4/4/1
f 5/5/2 8/6/2 7/7/2 6/8/2
f 1/9/3 5/10/3 6/11/3 2/12/3
f 2/13/4 6/14/4 7/15/4 3/16/4
f 3/17/5 7/18/5 8/19/5 4/20/5
f 5/21/6 1/22/6 4/23/6 8/24/6
