# Blender v2.75 (sub 0) OBJ File: 'calles.blend'
# www.blender.org
mtllib calle_recta.mtl
o Cube.001
v 1.000000 0.028262 -1.000000
v 0.999999 0.028262 1.000001
v -1.000000 0.028262 1.000000
v -1.000000 0.028262 -1.000000
v 1.000000 0.028262 -0.666545
v 1.000000 0.028262 0.666546
v 0.333334 0.028262 -1.000000
v -0.333333 0.028262 -1.000000
v 0.333333 0.028262 1.000000
v -0.333334 0.028262 1.000000
v -1.000000 0.028262 0.666545
v -1.000000 0.028262 -0.666546
v 0.333333 0.028262 -0.666545
v 0.333333 0.028262 0.666546
v -0.333333 0.028262 -0.666546
v -0.333334 0.028262 0.666545
v 1.000000 -0.034918 -0.666545
v 1.000000 -0.034918 0.666546
v -1.000000 -0.034918 0.666545
v -1.000000 -0.034918 -0.666546
v 0.333333 -0.034918 -0.666545
v 0.333333 -0.034918 0.666546
v -0.333333 -0.034918 -0.666546
v -0.333334 -0.034918 0.666545
vt 0.070363 0.792098
vt 0.003459 0.729203
vt 0.034918 0.695739
vt 0.101822 0.758634
vt 0.310665 0.262427
vt 0.203196 0.263275
vt 0.201500 0.048375
vt 0.308970 0.047527
vt 0.418135 0.261579
vt 0.416439 0.046680
vt 0.204171 0.917889
vt 0.137267 0.854994
vt 0.168726 0.821529
vt 0.235630 0.884425
vt 0.833687 0.582498
vt 0.768342 0.646871
vt 0.736144 0.614187
vt 0.801488 0.549814
vt 0.521491 0.960140
vt 0.637737 0.960139
vt 0.637737 0.971156
vt 0.521491 0.971156
vt 0.702998 0.711244
vt 0.670800 0.678559
vt 0.522295 0.950569
vt 0.406323 0.950569
vt 0.406323 0.939579
vt 0.522295 0.939579
vt 0.637654 0.775616
vt 0.605456 0.742932
vt 0.405247 0.960140
vt 0.405247 0.971156
vt 0.095726 0.264123
vt 0.094031 0.049223
vt 0.638265 0.950569
vt 0.638265 0.939578
vt 0.753983 0.960139
vt 0.753983 0.971156
vt 0.754235 0.950568
vt 0.754235 0.939578
vn 0.000000 1.000000 0.000000
vn 0.000000 0.000000 -1.000000
vn -0.000000 0.000000 1.000000
usemtl Material.001
s off
f 16/1/1 11/2/1 3/3/1 10/4/1
f 21/5/1 23/6/1 24/7/1 22/8/1
f 17/9/1 21/5/1 22/8/1 18/10/1
f 6/11/1 14/12/1 9/13/1 2/14/1
f 14/12/1 16/1/1 10/4/1 9/13/1
f 1/15/1 7/16/1 13/17/1 5/18/1
f 16/19/2 14/20/2 22/21/2 24/22/2
f 7/16/1 8/23/1 15/24/1 13/17/1
f 15/25/3 12/26/3 20/27/3 23/28/3
f 8/23/1 4/29/1 12/30/1 15/24/1
f 11/31/2 16/19/2 24/22/2 19/32/2
f 23/6/1 20/33/1 19/34/1 24/7/1
f 13/35/3 15/25/3 23/28/3 21/36/3
f 14/20/2 6/37/2 18/38/2 22/21/2
f 5/39/3 13/35/3 21/36/3 17/40/3
