# Blender v2.75 (sub 0) OBJ File: 'casa_03.blend'
# www.blender.org
mtllib casa_chica.mtl
o Cube
v 3.845066 0.091880 -3.845066
v 3.845066 0.091880 3.845066
v -3.845066 0.091880 3.845065
v -3.845064 0.091880 -3.845067
v 3.845068 -0.091880 -3.845064
v 3.845063 -0.091880 3.845068
v -3.845067 -0.091880 3.845064
v -3.845066 -0.091880 -3.845066
v 3.845066 0.091880 0.000000
v 0.000001 0.091880 -3.845066
v 3.845067 0.000000 -3.845065
v 0.000000 0.091880 3.845065
v 3.845064 0.000000 3.845067
v -3.845065 0.091880 -0.000001
v -3.845067 0.000000 3.845065
v -3.845065 0.000000 -3.845067
v 3.845065 -0.091880 0.000002
v 0.000001 -0.091880 -3.845065
v -0.000002 -0.091880 3.845066
v -3.845066 -0.091880 -0.000001
v 0.000001 0.000000 -3.845066
v -3.845066 0.000000 -0.000001
v -0.000001 0.000000 3.845066
v 3.845066 0.000000 0.000001
v -0.000001 -0.091880 0.000001
v 3.845066 0.091880 1.922533
v -1.922532 0.091880 -3.845067
v 3.845067 -0.045940 -3.845064
v -1.922533 0.091880 3.845065
v 3.845064 -0.045940 3.845068
v -3.845065 0.091880 -1.922534
v -3.845067 -0.045940 3.845065
v -3.845065 -0.045940 -3.845066
v 3.845064 -0.091880 1.922535
v -1.922532 -0.091880 -3.845065
v -1.922535 -0.091880 3.845065
v -3.845066 -0.091880 -1.922533
v 3.845066 0.091880 -1.922533
v 1.922533 0.091880 -3.845066
v 3.845066 0.045940 -3.845065
v 1.922533 0.091880 3.845066
v 3.845065 0.045940 3.845066
v -3.845066 0.091880 1.922532
v -3.845067 0.045940 3.845065
v -3.845065 0.045940 -3.845067
v 3.845067 -0.091880 -1.922531
v 1.922534 -0.091880 -3.845064
v 1.922531 -0.091880 3.845067
v -3.845067 -0.091880 1.922532
v -1.922532 0.000000 -3.845066
v 1.922534 0.000000 -3.845065
v 0.000001 -0.045940 -3.845065
v 0.000001 0.045940 -3.845066
v -3.845065 0.000000 -1.922534
v -3.845066 0.000000 1.922532
v -3.845066 0.045940 -0.000001
v -3.845066 -0.045940 -0.000001
v -1.922534 0.000000 3.845065
v 1.922532 0.000000 3.845066
v -0.000001 0.045940 3.845066
v -0.000002 -0.045940 3.845066
v 3.845065 0.000000 1.922534
v 3.845066 0.000000 -1.922532
v 3.845066 0.045940 0.000001
v 3.845065 -0.045940 0.000002
v -0.000001 -0.091880 1.922533
v 0.000000 -0.091880 -1.922532
v 1.922532 -0.091880 0.000001
v -1.922533 -0.091880 0.000000
v -1.922533 -0.091880 -1.922533
v 1.922533 -0.091880 -1.922531
v 1.922531 -0.091880 1.922534
v 3.845066 -0.045940 -1.922531
v 3.845066 0.045940 -1.922532
v 3.845065 0.045940 1.922533
v 1.922531 -0.045940 3.845067
v 1.922532 0.045940 3.845066
v -1.922534 0.045940 3.845065
v -3.845066 -0.045940 1.922532
v -3.845066 0.045940 1.922532
v -3.845065 0.045940 -1.922534
v 1.922534 0.045940 -3.845065
v 1.922534 -0.045940 -3.845065
v -1.922532 -0.045940 -3.845066
v -1.922532 0.045940 -3.845066
v -3.845066 -0.045940 -1.922533
v -1.922534 -0.045940 3.845065
v 3.845065 -0.045940 1.922534
v -1.922534 -0.091880 1.922533
v 2.883799 0.091880 -1.922533
v 3.845066 0.091880 2.883799
v -2.883798 0.091880 -3.845067
v 3.845068 -0.068910 -3.845064
v -2.883800 0.091880 3.845065
v 3.845063 -0.068910 3.845068
v -3.845065 0.091880 -2.883801
v -3.845067 -0.068910 3.845064
v -3.845065 -0.068910 -3.845066
v 3.845064 -0.091880 2.883802
v -2.883799 -0.091880 -3.845066
v -2.883801 -0.091880 3.845065
v -3.845066 -0.091880 -2.883800
v 3.845066 0.091880 -0.961266
v 0.961267 0.091880 -3.845066
v 3.845067 0.022970 -3.845065
v 0.961266 0.091880 3.845065
v 3.845065 0.022970 3.845067
v -3.845066 0.091880 0.961265
v -3.845067 0.022970 3.845065
v -3.845065 0.022970 -3.845067
v 3.845066 -0.091880 -0.961264
v 0.961268 -0.091880 -3.845065
v 0.961264 -0.091880 3.845067
v -3.845067 -0.091880 0.961266
v -2.883798 0.000000 -3.845067
v 0.961267 0.000000 -3.845066
v 0.000001 -0.068910 -3.845065
v 0.000001 0.022970 -3.845066
v -3.845065 0.000000 -2.883800
v -3.845066 0.000000 0.961266
v -3.845065 0.068910 -0.000001
v -3.845066 -0.022970 -0.000001
v -2.883800 0.000000 3.845065
v 0.961265 0.000000 3.845066
v -0.000000 0.068910 3.845065
v -0.000001 -0.022970 3.845066
v 3.845065 0.000000 2.883800
v 3.845066 0.000000 -0.961265
v 3.845066 0.068910 0.000000
v 3.845065 -0.022970 0.000001
v -0.000002 -0.091880 2.883800
v -0.000000 -0.091880 -0.961266
v 2.883799 -0.091880 0.000002
v -0.961267 -0.091880 0.000000
v -2.883799 0.091880 -0.000001
v 0.000001 0.091880 -2.883800
v 1.922533 0.091880 2.883799
v 3.845066 0.091880 0.961267
v -0.961266 0.091880 -3.845067
v 3.845067 -0.022970 -3.845064
v -0.961267 0.091880 3.845065
v 3.845064 -0.022970 3.845067
v -3.845065 0.091880 -0.961268
v -3.845067 -0.022970 3.845065
v -3.845065 -0.022970 -3.845067
v 3.845065 -0.091880 0.961269
v -0.961266 -0.091880 -3.845065
v -0.961268 -0.091880 3.845066
v -3.845066 -0.091880 -0.961267
v 3.845066 0.091880 -2.883799
v 2.883800 0.091880 -3.845066
v 3.845066 0.068910 -3.845065
v 2.883799 0.091880 3.845066
v 3.845065 0.068910 3.845066
v -3.845066 0.091880 2.883798
v -3.845067 0.068910 3.845065
v -3.845064 0.068910 -3.845067
v 3.845067 -0.091880 -2.883797
v 2.883801 -0.091880 -3.845064
v 2.883797 -0.091880 3.845068
v -3.845067 -0.091880 2.883798
v -0.961266 0.000000 -3.845066
v 2.883800 0.000000 -3.845065
v 0.000001 -0.022970 -3.845066
v 0.000001 0.068910 -3.845066
v -3.845066 0.000000 -0.961267
v -3.845067 0.000000 2.883798
v -3.845066 0.022970 -0.000001
v -3.845066 -0.068910 -0.000001
v -0.961267 0.000000 3.845066
v 2.883798 0.000000 3.845067
v -0.000001 0.022970 3.845066
v -0.000002 -0.068910 3.845066
v 3.845065 0.000000 0.961267
v 3.845067 0.000000 -2.883798
v 3.845066 0.022970 0.000001
v 3.845065 -0.068910 0.000002
v -0.000001 -0.091880 0.961267
v 0.000001 -0.091880 -2.883798
v 0.961266 -0.091880 0.000001
v -2.883800 -0.091880 -0.000000
v 2.883799 0.091880 0.000000
v 0.000000 0.091880 2.883799
v 2.883799 0.091880 1.922533
v 2.883799 0.091880 1.922533
v 0.000000 0.091880 2.883799
v 2.883799 0.091880 -1.922533
v 1.922533 0.091880 -2.883799
v -2.883798 0.091880 -1.922534
v -1.922532 0.091880 -2.883800
v -1.922533 -0.091880 -0.961266
v -1.922533 -0.091880 -2.883799
v -0.961266 -0.091880 -1.922532
v -2.883799 -0.091880 -1.922533
v 1.922533 -0.091880 -0.961265
v 1.922534 -0.091880 -2.883798
v 2.883800 -0.091880 -1.922531
v 0.961267 -0.091880 -1.922532
v 1.922531 -0.091880 2.883801
v 1.922532 -0.091880 0.961268
v 2.883798 -0.091880 1.922535
v 0.961265 -0.091880 1.922534
v 3.845066 -0.045940 -0.961265
v 3.845067 -0.045940 -2.883798
v 3.845066 -0.022970 -1.922531
v 3.845067 -0.068910 -1.922531
v 3.845066 0.045940 -0.961266
v 3.845066 0.045940 -2.883799
v 3.845066 0.068910 -1.922532
v 3.845066 0.022970 -1.922532
v 3.845065 0.045940 2.883800
v 3.845066 0.045940 0.961267
v 3.845066 0.068910 1.922533
v 3.845065 0.022970 1.922534
v 0.961265 -0.045940 3.845066
v 2.883798 -0.045940 3.845067
v 1.922531 -0.022970 3.845067
v 1.922531 -0.068910 3.845067
v 0.961266 0.045940 3.845066
v 2.883799 0.045940 3.845066
v 1.922533 0.068910 3.845066
v 1.922532 0.022970 3.845066
v -2.883800 0.045940 3.845065
v -0.961267 0.045940 3.845065
v -1.922533 0.068910 3.845065
v -1.922534 0.022970 3.845065
v -3.845066 -0.045940 0.961266
v -3.845067 -0.045940 2.883798
v -3.845066 -0.022970 1.922532
v -3.845067 -0.068910 1.922532
v -3.845066 0.045940 0.961266
v -3.845067 0.045940 2.883798
v -3.845066 0.068910 1.922532
v -3.845066 0.022970 1.922532
v -3.845065 0.045940 -2.883800
v -3.845065 0.045940 -0.961267
v -3.845065 0.068910 -1.922534
v -3.845065 0.022970 -1.922534
v 0.961267 0.045940 -3.845066
v 2.883800 0.045940 -3.845065
v 1.922534 0.022970 -3.845065
v 1.922533 0.068910 -3.845066
v 0.961267 -0.045940 -3.845065
v 2.883801 -0.045940 -3.845064
v 1.922534 -0.068910 -3.845065
v 1.922534 -0.022970 -3.845065
v -2.883799 -0.045940 -3.845066
v -0.961266 -0.045940 -3.845066
v -1.922532 -0.068910 -3.845066
v -1.922532 -0.022970 -3.845066
v -2.883798 0.045940 -3.845067
v -0.961266 0.045940 -3.845066
v -1.922532 0.022970 -3.845066
v -1.922532 0.068910 -3.845067
v -3.845065 -0.045940 -2.883800
v -3.845066 -0.045940 -0.961267
v -3.845065 -0.022970 -1.922534
v -3.845066 -0.068910 -1.922533
v -2.883801 -0.045940 3.845065
v -0.961268 -0.045940 3.845066
v -1.922534 -0.022970 3.845065
v -1.922534 -0.068910 3.845065
v 3.845064 -0.045940 2.883801
v 3.845065 -0.045940 0.961268
v 3.845065 -0.022970 1.922534
v 3.845064 -0.068910 1.922535
v -1.922534 -0.091880 2.883799
v -1.922534 -0.091880 0.961266
v -0.961268 -0.091880 1.922533
v -2.883800 -0.091880 1.922532
v -2.883799 0.091880 1.922532
v 2.883799 0.091880 0.000000
v -1.922533 0.091880 2.883799
v -0.961266 0.091880 2.883799
v -2.883799 0.091880 0.961266
v -2.883800 -0.091880 0.961266
v -0.961267 -0.091880 0.961267
v -0.961268 -0.091880 2.883799
v 3.845065 -0.068910 0.961268
v 3.845065 -0.022970 0.961268
v 3.845064 -0.022970 2.883801
v -0.961268 -0.068910 3.845066
v -0.961268 -0.022970 3.845066
v -2.883800 -0.022970 3.845065
v -3.845066 -0.068910 -0.961267
v -3.845066 -0.022970 -0.961267
v -3.845065 -0.022970 -2.883800
v -0.961266 0.068910 -3.845066
v -0.961266 0.022970 -3.845066
v -2.883798 0.022970 -3.845067
v -0.961266 -0.022970 -3.845066
v -0.961266 -0.068910 -3.845065
v -2.883799 -0.068910 -3.845066
v 2.883800 -0.022970 -3.845065
v 2.883801 -0.068910 -3.845064
v 0.961268 -0.068910 -3.845065
v 2.883800 0.068910 -3.845065
v 2.883800 0.022970 -3.845065
v 0.961267 0.022970 -3.845066
v -3.845066 0.022970 -0.961267
v -3.845065 0.068910 -0.961267
v -3.845065 0.068910 -2.883800
v -3.845067 0.022970 2.883798
v -3.845066 0.068910 2.883798
v -3.845066 0.068910 0.961265
v -3.845067 -0.068910 2.883798
v -3.845067 -0.022970 2.883798
v -3.845066 -0.022970 0.961266
v -0.961267 0.022970 3.845066
v -0.961267 0.068910 3.845065
v -2.883800 0.068910 3.845065
v 2.883798 0.022970 3.845066
v 2.883799 0.068910 3.845066
v 0.961266 0.068910 3.845066
v 2.883797 -0.068910 3.845067
v 2.883798 -0.022970 3.845067
v 0.961265 -0.022970 3.845066
v 3.845065 0.022970 0.961267
v 3.845066 0.068910 0.961267
v 3.845065 0.068910 2.883799
v 3.845066 0.022970 -2.883798
v 3.845066 0.068910 -2.883799
v 3.845066 0.068910 -0.961266
v 3.845067 -0.068910 -2.883798
v 3.845067 -0.022970 -2.883798
v 3.845066 -0.022970 -0.961265
v 0.961266 -0.091880 0.961267
v 2.883798 -0.091880 0.961268
v 2.883798 -0.091880 2.883801
v 0.961267 -0.091880 -2.883798
v 2.883801 -0.091880 -2.883798
v 2.883799 -0.091880 -0.961265
v -2.883799 -0.091880 -2.883799
v -0.961266 -0.091880 -2.883799
v -0.961267 -0.091880 -0.961266
v -0.961266 0.091880 -2.883800
v -2.883798 0.091880 -2.883801
v 2.883799 0.091880 -0.961266
v 2.883800 0.091880 -2.883799
v 0.961267 0.091880 -2.883800
v 2.883799 0.091880 2.883799
v 2.883799 0.091880 0.961266
v 0.961266 0.091880 2.883799
v -2.883799 0.091880 -0.961267
v -2.883800 -0.091880 -0.961267
v 0.961266 -0.091880 -0.961265
v 0.961265 -0.091880 2.883800
v 3.845066 -0.068910 -0.961265
v 3.845066 0.022970 -0.961266
v 3.845065 0.022970 2.883800
v 0.961264 -0.068910 3.845066
v 0.961266 0.022970 3.845066
v -2.883800 0.022970 3.845065
v -3.845066 -0.068910 0.961266
v -3.845066 0.022970 0.961266
v -3.845065 0.022970 -2.883800
v 0.961267 0.068910 -3.845066
v 0.961267 -0.022970 -3.845065
v -2.883798 -0.022970 -3.845066
v -2.883798 0.068910 -3.845067
v -3.845066 -0.068910 -2.883800
v -2.883801 -0.068910 3.845065
v 3.845064 -0.068910 2.883801
v -2.883801 -0.091880 2.883798
v -2.883799 0.091880 2.883799
v 3.845066 0.305384 2.883799
v 3.845066 0.305384 3.845066
v -2.883798 0.305384 -3.845067
v -3.845064 0.305384 -3.845067
v -2.883800 0.305384 3.845065
v -3.845066 0.305384 3.845065
v -3.845065 0.305384 -2.883801
v 3.845066 0.305384 -0.961266
v 3.845066 0.305384 0.000000
v 0.961267 0.305384 -3.845066
v 0.000001 0.305384 -3.845066
v 0.961266 0.305384 3.845065
v 0.000000 0.305384 3.845065
v -3.845066 0.305384 0.961265
v -3.845065 0.305384 -0.000001
v -2.883799 0.305384 -0.000001
v 0.000001 0.305384 -2.883800
v 3.845066 0.305384 0.961267
v 3.845066 0.305384 1.922533
v -0.961266 0.305384 -3.845067
v -1.922532 0.305384 -3.845067
v -0.961267 0.305384 3.845065
v -1.922533 0.305384 3.845065
v -3.845065 0.305384 -0.961268
v -3.845065 0.305384 -1.922534
v 3.845066 0.305384 -2.883799
v 3.845066 0.305384 -1.922533
v 2.883800 0.305384 -3.845066
v 1.922533 0.305384 -3.845066
v 2.883799 0.305384 3.845066
v 1.922533 0.305384 3.845066
v -3.845066 0.305384 2.883798
v -3.845066 0.305384 1.922532
v 1.922533 0.305384 -2.883799
v -2.883798 0.305384 -1.922534
v -1.922532 0.305384 -2.883800
v -2.883799 0.305384 1.922532
v 3.845066 0.305384 -3.845066
v 2.883799 0.305384 0.000000
v 0.000000 0.305384 2.883799
v 2.883799 0.305384 1.922533
v 1.922533 0.305384 2.883799
v 2.883799 0.305384 -1.922533
v -1.922533 0.305384 2.883799
v -0.961266 0.305384 2.883799
v -2.883799 0.305384 0.961266
v -0.961266 0.305384 -2.883800
v -2.883798 0.305384 -2.883801
v 2.883799 0.305384 -0.961266
v 2.883800 0.305384 -2.883799
v 0.961267 0.305384 -2.883800
v 2.883799 0.305384 2.883799
v 2.883799 0.305384 0.961266
v 0.961266 0.305384 2.883799
v -2.883799 0.305384 -0.961267
v -2.883799 0.305384 2.883799
v -0.961266 6.708694 -0.000001
v 0.000000 5.856057 -0.961267
v 0.000000 6.708694 -0.000000
v 0.961266 4.838159 1.922533
v 1.922533 5.856057 0.961266
v 2.883799 0.091880 0.000000
v 1.922533 4.838159 1.922533
v 0.961267 4.838159 -1.922533
v 1.922533 3.934052 -2.883799
v 0.000000 0.091880 2.883799
v 1.922533 4.838159 -1.922533
v 1.922533 5.856057 -0.961266
v 2.883799 0.091880 1.922533
v 1.922533 6.708694 -0.000000
v -2.883798 4.838159 -1.922534
v 1.922533 0.091880 2.883799
v -0.961266 4.838159 -1.922534
v 2.883799 0.091880 -1.922533
v 0.000000 4.838159 -1.922533
v -1.922532 3.934052 -2.883800
v -1.922532 4.838159 -1.922534
v -1.922532 5.856057 -0.961267
v -1.922533 6.708694 -0.000001
v -2.883799 4.838159 1.922532
v -0.961266 4.838159 1.922532
v 0.000000 4.838159 1.922532
v -1.922533 0.091880 2.883799
v -2.883799 0.091880 -0.000001
v 0.000001 0.091880 -2.883800
v 2.883799 0.091880 2.883799
v 2.883799 0.305384 2.883799
v 1.922533 0.305384 2.883799
v 1.922533 0.091880 -2.883799
v -2.883798 0.091880 -1.922534
v -1.922532 0.091880 -2.883800
v -2.883799 0.091880 1.922532
v -0.961266 0.091880 2.883799
v -1.922533 5.856057 0.961266
v -2.883799 0.091880 0.961266
v -1.922533 4.838159 1.922532
v -0.961266 0.091880 -2.883800
v -2.883798 0.091880 -2.883801
v 2.883799 0.091880 -0.961266
v 2.883800 0.091880 -2.883799
v 0.961267 0.091880 -2.883800
v 2.883799 0.091880 0.961266
v -1.922533 3.934052 2.883799
v 0.961266 0.091880 2.883799
v -0.961266 3.934052 2.883799
v -2.883799 0.091880 -0.961267
v -2.883799 0.091880 2.883799
v 0.961266 0.305384 2.883799
v -1.922533 0.091880 2.883799
v -2.883799 0.091880 -0.000001
v 0.000001 0.091880 -2.883800
v 1.922533 0.091880 -2.883799
v -2.883798 0.091880 -1.922534
v -1.922532 0.091880 -2.883800
v -2.883799 0.091880 1.922532
v -0.961266 0.091880 2.883799
v -2.883799 0.091880 0.961266
v -0.961266 0.091880 -2.883800
v -2.883798 0.091880 -2.883801
v 2.883799 0.091880 -0.961266
v 2.883800 0.091880 -2.883799
v 0.961267 0.091880 -2.883800
v 2.883799 0.091880 2.883799
v 2.883799 0.091880 0.961266
v 0.961266 0.091880 2.883799
v -2.883799 0.091880 -0.961267
v -2.883799 0.091880 2.883799
v 0.000000 5.856057 0.961266
v 0.000001 3.934052 -2.883800
v 0.961267 6.708694 -0.000000
v -2.883799 6.708694 -0.000001
v 2.883799 4.838159 -1.922533
v 1.922533 3.934052 2.883799
v 2.883799 4.838159 1.922533
v 0.000000 3.934052 2.883799
v 2.883799 6.708694 0.000000
v -0.961266 5.856057 0.961266
v -2.883799 5.856057 0.961266
v -0.961266 5.856057 -0.961267
v -0.961266 3.934052 -2.883800
v -2.883798 3.934052 -2.883801
v 2.883799 5.856057 -0.961266
v 2.883800 3.934052 -2.883799
v 0.961267 3.934052 -2.883800
v 2.883799 3.934052 2.883799
v 2.883799 5.856057 0.961266
v 0.961267 5.856057 0.961266
v 0.961266 3.934052 2.883799
v 0.961267 5.856057 -0.961267
v -2.883799 5.856057 -0.961267
v -2.883799 3.934052 2.883799
v 2.883799 3.934052 0.000000
v 2.883799 3.934052 1.922533
v 2.883799 3.934052 -0.961266
v 2.883799 3.934052 -1.922533
v 2.883799 3.934052 0.961266
v -0.961266 3.165618 2.883799
v -0.961266 2.397183 2.883799
v -0.961266 1.628749 2.883799
v -0.961266 0.860314 2.883799
v -2.883799 5.385331 -0.000001
v -2.883799 4.061968 -0.000001
v -2.883799 2.738605 -0.000001
v -2.883799 1.415242 -0.000001
v -0.961266 0.860314 -2.883800
v -0.961266 1.628749 -2.883800
v -0.961266 2.397183 -2.883800
v -0.961266 3.165618 -2.883800
v -1.922532 3.165618 -2.883800
v -1.922532 2.397183 -2.883800
v -1.922532 1.628749 -2.883800
v -1.922532 0.860314 -2.883800
v 0.000000 0.860314 2.883799
v 0.000000 1.628749 2.883799
v 0.000000 2.397183 2.883799
v 0.000000 3.165618 2.883799
v 0.961266 3.165618 2.883799
v 0.961266 2.397183 2.883799
v 0.961266 1.628749 2.883799
v 0.961266 0.860314 2.883799
v 1.922533 0.860314 2.883799
v 1.922533 1.628749 2.883799
v 1.922533 2.397183 2.883799
v 1.922533 3.165618 2.883799
v 2.883799 3.165618 2.883799
v 2.883799 2.397183 2.883799
v 2.883799 1.628749 2.883799
v 2.883799 0.860314 2.883799
v -2.883798 0.860314 -2.883801
v -2.883798 1.628749 -2.883801
v -2.883798 2.397183 -2.883801
v -2.883798 3.165618 -2.883801
v 2.883799 3.165618 -1.922533
v 2.883799 2.397183 -1.922533
v 2.883799 1.628749 -1.922533
v 2.883799 0.860314 -1.922533
v -2.883799 1.244715 0.961266
v -2.883799 2.397551 0.961266
v -2.883799 3.550386 0.961266
v -2.883799 4.703222 0.961266
v -2.883799 3.888903 1.922532
v -2.883799 2.939647 1.922532
v -2.883799 1.990391 1.922532
v -2.883799 1.041135 1.922532
v 2.883799 3.165617 0.961266
v 2.883799 2.397183 0.961266
v 2.883799 1.628749 0.961266
v 2.883799 0.860314 0.961266
v 2.883800 0.860314 -2.883799
v 2.883800 1.628749 -2.883799
v 2.883800 2.397183 -2.883799
v 2.883800 3.165618 -2.883799
v 1.922533 3.165618 -2.883799
v 1.922533 2.397183 -2.883799
v 1.922533 1.628749 -2.883799
v 1.922533 0.860314 -2.883799
v -2.883798 1.041136 -1.922534
v -2.883798 1.990391 -1.922534
v -2.883798 2.939647 -1.922534
v -2.883798 3.888903 -1.922534
v -2.883799 4.703222 -0.961267
v -2.883799 3.550386 -0.961267
v -2.883799 2.397551 -0.961267
v -2.883799 1.244715 -0.961267
v 0.961267 0.860314 -2.883800
v 0.961267 1.628749 -2.883800
v 0.961267 2.397183 -2.883800
v 0.961267 3.165618 -2.883800
v 0.000001 3.165618 -2.883800
v 0.000001 2.397183 -2.883800
v 0.000001 1.628749 -2.883800
v 0.000001 0.860314 -2.883800
v -2.883799 0.860314 2.883799
v -2.883799 1.628749 2.883799
v -2.883799 2.397183 2.883799
v -2.883799 3.165618 2.883799
v -1.922533 3.165618 2.883799
v -1.922533 2.397183 2.883799
v -1.922533 1.628749 2.883799
v -1.922533 0.860314 2.883799
v -0.961266 3.165618 -2.883800
v -0.961266 2.397183 -2.883800
v 2.883799 2.397183 0.000000
v 2.883799 3.165618 0.000000
v 2.883799 0.860314 1.922533
v 2.883799 1.628749 1.922533
v 2.883799 2.397183 1.922533
v 2.883799 3.165617 1.922533
v 2.883799 0.860314 -0.961266
v 2.883799 1.628749 -0.961266
v 2.883799 2.397183 -0.961266
v 2.883799 3.165617 -0.961266
v 2.495168 0.091880 0.000000
v 2.495168 0.091880 -0.961266
v 2.495168 0.091880 0.961266
v 2.495168 0.860314 0.961266
v 2.495168 2.397183 0.961266
v 2.495168 1.628749 0.961266
v -0.961266 2.397183 2.748889
v -0.961266 3.165618 2.748889
v 2.495168 2.397183 0.000000
v 2.495168 0.860314 -0.961266
v 2.495168 1.628749 -0.961266
v 2.495168 2.397183 -0.961266
v -1.922532 3.165618 -2.883800
v -1.922532 2.397183 -2.883800
v 1.922533 3.165618 -2.883799
v 1.922533 2.397183 -2.883799
v 0.961267 2.397183 -2.883800
v 0.961267 3.165618 -2.883800
v 2.495168 0.091880 0.000000
v 2.495168 0.091880 -0.961266
v 2.495168 0.091880 0.961266
v 2.495168 0.860314 0.961266
v 2.495168 2.397183 0.961266
v 2.495168 1.628749 0.961266
v 2.495168 0.860314 0.000000
v 2.495168 1.628749 0.000000
v 2.495168 2.397183 0.000000
v 2.495168 0.860314 -0.961266
v 2.495168 1.628749 -0.961266
v 2.495168 2.397183 -0.961266
v 0.961266 3.165618 2.748889
v 0.961266 2.397183 2.748889
v 1.922533 2.397183 2.748889
v 1.922533 3.165618 2.748889
v -1.922533 3.165618 2.748889
v -1.922533 2.397183 2.748889
v -0.961266 2.397183 -2.786131
v -0.961266 3.165618 -2.786131
v -1.922532 3.165618 -2.786131
v -1.922532 2.397183 -2.786131
v 1.922533 3.165618 -2.786130
v 1.922533 2.397183 -2.786130
v 0.961267 2.397183 -2.786130
v 0.961267 3.165618 -2.786130
vt 0.799607 0.064532
vt 0.799607 0.032266
vt 0.781011 0.032266
vt 0.781011 0.064532
vt 0.613652 0.144373
vt 0.613652 0.147844
vt 0.632247 0.147844
vt 0.632247 0.144373
vt 0.502079 0.116602
vt 0.483484 0.116602
vt 0.483484 0.120074
vt 0.502079 0.120074
vt 0.762416 0.003471
vt 0.781011 0.003471
vt 0.781011 0.000000
vt 0.762416 0.000000
vt 0.613652 0.003471
vt 0.632247 0.003471
vt 0.632247 0.000000
vt 0.613652 0.000000
vt 0.650843 0.084336
vt 0.632247 0.084336
vt 0.632247 0.087807
vt 0.650843 0.087807
vt 0.650843 0.070451
vt 0.632247 0.070451
vt 0.632247 0.073922
vt 0.650843 0.073922
vt 0.725225 0.070451
vt 0.706629 0.070451
vt 0.706629 0.073922
vt 0.725225 0.073922
vt 0.725225 0.084336
vt 0.706629 0.084336
vt 0.706629 0.087807
vt 0.725225 0.087807
vt 0.613652 0.017357
vt 0.632247 0.017357
vt 0.632247 0.013885
vt 0.613652 0.013885
vt 0.539270 0.017357
vt 0.557866 0.017357
vt 0.557866 0.013885
vt 0.539270 0.013885
vt 0.539270 0.003471
vt 0.557865 0.003471
vt 0.557865 0.000000
vt 0.539270 0.000000
vt 0.762416 0.017357
vt 0.781011 0.017357
vt 0.781011 0.013885
vt 0.762416 0.013885
vt 0.688034 0.017357
vt 0.706629 0.017357
vt 0.706629 0.013885
vt 0.688034 0.013885
vt 0.688034 0.003471
vt 0.706629 0.003471
vt 0.706629 0.000000
vt 0.688034 0.000000
vt 0.502079 0.102717
vt 0.483484 0.102717
vt 0.483484 0.106188
vt 0.502079 0.106188
vt 0.576461 0.102717
vt 0.557865 0.102717
vt 0.557865 0.106188
vt 0.576461 0.106188
vt 0.576461 0.116602
vt 0.557865 0.116602
vt 0.557865 0.120074
vt 0.576461 0.120074
vt 0.539270 0.144373
vt 0.539270 0.147844
vt 0.557866 0.147844
vt 0.557866 0.144373
vt 0.539270 0.130488
vt 0.539270 0.133959
vt 0.557866 0.133959
vt 0.557866 0.130488
vt 0.613652 0.130488
vt 0.613652 0.133959
vt 0.632247 0.133959
vt 0.632247 0.130488
vt 0.539270 0.092303
vt 0.539270 0.060037
vt 0.520675 0.060037
vt 0.520675 0.092303
vt 0.818202 0.096798
vt 0.818202 0.064532
vt 0.799607 0.096798
vt 0.799607 0.000000
vt 0.632247 0.027771
vt 0.632248 0.060036
vt 0.650843 0.060036
vt 0.650843 0.027771
vt 0.576461 0.130488
vt 0.576461 0.133959
vt 0.595056 0.133959
vt 0.595056 0.130488
vt 0.576461 0.123545
vt 0.576461 0.127016
vt 0.595056 0.127016
vt 0.595056 0.123545
vt 0.613652 0.123545
vt 0.613652 0.127016
vt 0.632247 0.127016
vt 0.632247 0.123545
vt 0.502079 0.130488
vt 0.502079 0.133959
vt 0.520675 0.133959
vt 0.520675 0.130488
vt 0.502079 0.123545
vt 0.502079 0.127016
vt 0.520675 0.127016
vt 0.520675 0.123545
vt 0.539270 0.123545
vt 0.539270 0.127016
vt 0.557865 0.127016
vt 0.557865 0.123545
vt 0.502079 0.144373
vt 0.502079 0.147844
vt 0.520675 0.147844
vt 0.520675 0.144373
vt 0.502079 0.137430
vt 0.502079 0.140902
vt 0.520675 0.140902
vt 0.520675 0.137430
vt 0.539270 0.137430
vt 0.539270 0.140902
vt 0.557866 0.140902
vt 0.557866 0.137430
vt 0.576461 0.109659
vt 0.557865 0.109659
vt 0.557865 0.113131
vt 0.576461 0.113131
vt 0.613652 0.109659
vt 0.595056 0.109659
vt 0.595056 0.113131
vt 0.613652 0.113131
vt 0.613652 0.116602
vt 0.595056 0.116602
vt 0.595056 0.120074
vt 0.613652 0.120074
vt 0.576461 0.095774
vt 0.557866 0.095774
vt 0.557866 0.099245
vt 0.576461 0.099245
vt 0.613652 0.095774
vt 0.595056 0.095774
vt 0.595056 0.099245
vt 0.613652 0.099245
vt 0.613652 0.102717
vt 0.595056 0.102717
vt 0.595056 0.106188
vt 0.613652 0.106188
vt 0.502079 0.095774
vt 0.483484 0.095774
vt 0.483484 0.099245
vt 0.502079 0.099245
vt 0.539270 0.095774
vt 0.520675 0.095774
vt 0.520675 0.099245
vt 0.539270 0.099245
vt 0.539270 0.102717
vt 0.520675 0.102717
vt 0.520675 0.106188
vt 0.539270 0.106188
vt 0.688034 0.010414
vt 0.706629 0.010414
vt 0.706629 0.006943
vt 0.688034 0.006943
vt 0.650843 0.010414
vt 0.669438 0.010414
vt 0.669438 0.006943
vt 0.650843 0.006943
vt 0.650843 0.003471
vt 0.669438 0.003471
vt 0.669438 0.000000
vt 0.650843 0.000000
vt 0.688034 0.024299
vt 0.706629 0.024299
vt 0.706629 0.020828
vt 0.688034 0.020828
vt 0.650843 0.024299
vt 0.669438 0.024299
vt 0.669438 0.020828
vt 0.650843 0.020828
vt 0.650843 0.017357
vt 0.669438 0.017357
vt 0.669438 0.013885
vt 0.650843 0.013885
vt 0.762416 0.024299
vt 0.781011 0.024299
vt 0.781011 0.020828
vt 0.762416 0.020828
vt 0.725225 0.024299
vt 0.743820 0.024299
vt 0.743820 0.020828
vt 0.725225 0.020828
vt 0.725225 0.017357
vt 0.743820 0.017357
vt 0.743820 0.013885
vt 0.725225 0.013885
vt 0.539270 0.010414
vt 0.557865 0.010414
vt 0.557865 0.006943
vt 0.539270 0.006943
vt 0.502079 0.010414
vt 0.520675 0.010414
vt 0.520675 0.006943
vt 0.502079 0.006943
vt 0.502079 0.003471
vt 0.520675 0.003471
vt 0.520675 0.000000
vt 0.502079 0.000000
vt 0.539270 0.024299
vt 0.557866 0.024299
vt 0.557866 0.020828
vt 0.539270 0.020828
vt 0.502079 0.024299
vt 0.520675 0.024299
vt 0.520675 0.020828
vt 0.502079 0.020828
vt 0.502079 0.017357
vt 0.520675 0.017357
vt 0.520675 0.013885
vt 0.502079 0.013885
vt 0.613652 0.024299
vt 0.632247 0.024299
vt 0.632247 0.020828
vt 0.613652 0.020828
vt 0.576461 0.024299
vt 0.595056 0.024299
vt 0.595056 0.020828
vt 0.576461 0.020828
vt 0.576461 0.017357
vt 0.595056 0.017357
vt 0.595056 0.013885
vt 0.576461 0.013885
vt 0.725225 0.077393
vt 0.706629 0.077393
vt 0.706629 0.080865
vt 0.725225 0.080865
vt 0.762416 0.077393
vt 0.743820 0.077393
vt 0.743820 0.080865
vt 0.762416 0.080865
vt 0.762416 0.084336
vt 0.743820 0.084336
vt 0.743820 0.087807
vt 0.762416 0.087807
vt 0.725225 0.063508
vt 0.706629 0.063508
vt 0.706629 0.066979
vt 0.725225 0.066979
vt 0.762416 0.063508
vt 0.743820 0.063508
vt 0.743820 0.066979
vt 0.762416 0.066979
vt 0.762416 0.070451
vt 0.743820 0.070451
vt 0.743820 0.073922
vt 0.762416 0.073922
vt 0.650843 0.063508
vt 0.632247 0.063508
vt 0.632247 0.066979
vt 0.650843 0.066979
vt 0.688034 0.063508
vt 0.669438 0.063508
vt 0.669438 0.066979
vt 0.688034 0.066979
vt 0.688034 0.070451
vt 0.669438 0.070451
vt 0.669438 0.073922
vt 0.688034 0.073922
vt 0.650843 0.077393
vt 0.632247 0.077393
vt 0.632247 0.080865
vt 0.650843 0.080865
vt 0.688034 0.077393
vt 0.669438 0.077393
vt 0.669438 0.080865
vt 0.688034 0.080865
vt 0.688034 0.084336
vt 0.669438 0.084336
vt 0.669438 0.087807
vt 0.688034 0.087807
vt 0.613652 0.010414
vt 0.632247 0.010414
vt 0.632247 0.006943
vt 0.613652 0.006943
vt 0.576461 0.010414
vt 0.595056 0.010414
vt 0.595056 0.006943
vt 0.576461 0.006943
vt 0.576461 0.003471
vt 0.595056 0.003471
vt 0.595056 0.000000
vt 0.576461 0.000000
vt 0.762416 0.010414
vt 0.781011 0.010414
vt 0.781011 0.006943
vt 0.762416 0.006943
vt 0.725225 0.010414
vt 0.743820 0.010414
vt 0.743820 0.006943
vt 0.725225 0.006943
vt 0.725225 0.003471
vt 0.743820 0.003471
vt 0.743820 0.000000
vt 0.725225 0.000000
vt 0.502079 0.109659
vt 0.483484 0.109659
vt 0.483484 0.113131
vt 0.502079 0.113131
vt 0.539270 0.109659
vt 0.520675 0.109659
vt 0.520675 0.113131
vt 0.539270 0.113131
vt 0.539270 0.116602
vt 0.520675 0.116602
vt 0.520675 0.120074
vt 0.539270 0.120074
vt 0.576461 0.144373
vt 0.576461 0.147844
vt 0.595056 0.147844
vt 0.595056 0.144373
vt 0.576461 0.137430
vt 0.576461 0.140902
vt 0.595056 0.140902
vt 0.595056 0.137430
vt 0.613652 0.137430
vt 0.613652 0.140902
vt 0.632247 0.140902
vt 0.632247 0.137430
vt 0.557866 0.092303
vt 0.557865 0.060037
vt 0.892584 0.064532
vt 0.892584 0.032266
vt 0.873989 0.032266
vt 0.873989 0.064532
vt 0.762416 0.027771
vt 0.762416 0.060036
vt 0.781011 0.060036
vt 0.781011 0.027771
vt 0.000000 0.000000
vt 0.818202 0.032266
vt 0.688034 0.060037
vt 0.669438 0.060037
vt 0.706629 0.060037
vt 0.781011 0.066979
vt 0.781011 0.070451
vt 0.781011 0.073922
vt 0.743820 0.060037
vt 0.781011 0.063508
vt 0.725225 0.060037
vt 0.781011 0.080865
vt 0.781011 0.084336
vt 0.781011 0.087807
vt 0.781011 0.077393
vt 0.576461 0.027771
vt 0.595056 0.027771
vt 0.557866 0.027771
vt 0.613652 0.027771
vt 0.483484 0.020828
vt 0.483484 0.017357
vt 0.483484 0.013885
vt 0.502079 0.027771
vt 0.520675 0.027771
vt 0.483484 0.027771
vt 0.483484 0.024299
vt 0.539270 0.027771
vt 0.483484 0.006943
vt 0.483484 0.003471
vt 0.483484 0.000000
vt 0.483484 0.010414
vt 0.725225 0.027771
vt 0.743820 0.027771
vt 0.706629 0.027771
vt 0.669438 0.027771
vt 0.688034 0.027771
vt 0.502079 0.092303
vt 0.483484 0.092303
vt 0.632247 0.099245
vt 0.632247 0.102717
vt 0.632247 0.106188
vt 0.613652 0.092303
vt 0.595056 0.092303
vt 0.632247 0.092303
vt 0.632247 0.095774
vt 0.576461 0.092303
vt 0.632247 0.113131
vt 0.632247 0.116602
vt 0.632247 0.120074
vt 0.632247 0.109659
vt 0.483484 0.137430
vt 0.483484 0.140902
vt 0.483484 0.133959
vt 0.483484 0.144373
vt 0.483484 0.147844
vt 0.483484 0.123545
vt 0.483484 0.127016
vt 0.483484 0.130488
vt 0.781011 0.096798
vt 0.781011 0.129063
vt 0.799607 0.129063
vt 0.855393 0.064532
vt 0.855393 0.032266
vt 0.836798 0.032266
vt 0.836798 0.064532
vt 0.743820 0.120073
vt 0.762416 0.120073
vt 0.781011 0.120073
vt 0.576461 0.060037
vt 0.595056 0.060037
vt 0.818202 0.000000
vt 0.650843 0.120073
vt 0.613652 0.060037
vt 0.892584 0.096798
vt 0.873988 0.096798
vt 0.669438 0.120073
vt 0.650843 0.123545
vt 0.725225 0.123545
vt 0.725225 0.120073
vt 0.706629 0.120073
vt 0.706629 0.123545
vt 0.650843 0.137430
vt 0.650843 0.133959
vt 0.650843 0.144373
vt 0.650843 0.140901
vt 0.762416 0.123545
vt 0.743820 0.123545
vt 0.688034 0.123545
vt 0.688034 0.120073
vt 0.669438 0.123545
vt 0.650843 0.130487
vt 0.650843 0.127016
vt 0.781011 0.130487
vt 0.781011 0.127016
vt 0.762416 0.127016
vt 0.762416 0.130487
vt 0.781011 0.133959
vt 0.762416 0.133959
vt 0.781011 0.123545
vt 0.743820 0.147844
vt 0.743820 0.144373
vt 0.725225 0.144373
vt 0.725225 0.147844
vt 0.706629 0.144373
vt 0.706629 0.147844
vt 0.781011 0.144373
vt 0.781011 0.140901
vt 0.762416 0.140901
vt 0.762416 0.144373
vt 0.781011 0.147844
vt 0.762416 0.147844
vt 0.781011 0.137430
vt 0.762416 0.137430
vt 0.669438 0.147844
vt 0.669438 0.144373
vt 0.650843 0.147844
vt 0.688034 0.144373
vt 0.688034 0.147844
vt 0.873989 0.000000
vt 0.892584 0.000000
vt 0.836798 0.096798
vt 0.855393 0.096798
vt 0.483484 0.060037
vt 0.502079 0.060037
vt 0.836798 0.129063
vt 0.855393 0.129063
vt 0.855393 0.000000
vt 0.818202 0.129063
vt 0.836798 0.000000
vt 0.148765 0.128867
vt 0.167360 0.128867
vt 0.167360 0.000000
vt 0.148764 0.000000
vt 0.037192 0.871133
vt 0.055787 0.871133
vt 0.055787 0.717292
vt 0.037192 0.717292
vt 0.000001 0.871133
vt 0.018596 0.871133
vt 0.018596 0.717292
vt 0.000001 0.717292
vt 0.148765 0.419353
vt 0.167360 0.419353
vt 0.167360 0.282708
vt 0.148765 0.282708
vt 0.111574 0.419353
vt 0.130169 0.419353
vt 0.130169 0.282708
vt 0.111574 0.282708
vt 0.111574 0.128867
vt 0.130169 0.128867
vt 0.130169 0.000000
vt 0.111574 0.000000
vt 0.185956 0.419353
vt 0.204551 0.419353
vt 0.204551 0.282708
vt 0.185956 0.282708
vt 0.185955 0.128867
vt 0.204551 0.128867
vt 0.204551 0.000000
vt 0.185955 0.000000
vt 0.074383 0.871133
vt 0.092978 0.871133
vt 0.092978 0.717292
vt 0.074382 0.717292
vt 0.092978 0.580647
vt 0.074382 0.580647
vt 0.055787 0.580647
vt 0.074383 1.000000
vt 0.092978 1.000000
vt 0.799607 0.161329
vt 0.818202 0.161329
vt 0.781011 0.161329
vt 0.185956 0.535482
vt 0.167360 0.535482
vt 0.018596 0.464518
vt 0.018596 0.580647
vt 0.037191 0.580647
vt 0.037191 0.464518
vt 0.427697 0.580650
vt 0.427697 0.717284
vt 0.446292 0.580650
vt 0.223147 0.535482
vt 0.223146 0.419353
vt 0.204551 0.535482
vt 0.260338 0.696892
vt 0.260338 0.871115
vt 0.278933 0.999970
vt 0.278933 0.799976
vt 0.390506 0.580650
vt 0.390506 0.999970
vt 0.409101 0.871115
vt 0.409101 0.580650
vt 0.371911 0.580650
vt 0.371910 0.871115
vt 0.334720 0.580650
vt 0.353315 0.717284
vt 0.353315 0.580651
vt 0.055787 0.464518
vt 0.074382 0.464518
vt 0.092978 0.464518
vt 0.297529 0.871115
vt 0.297529 0.696892
vt 0.148765 0.535482
vt 0.130169 0.535482
vt 0.223147 0.464520
vt 0.223147 0.580651
vt 0.241742 0.717284
vt 0.241742 0.573827
vt 0.000000 0.464518
vt 0.000000 0.580647
vt 0.316124 0.573827
vt 0.316124 0.717284
vt 0.334720 0.464520
vt 0.111574 0.535482
vt 0.111573 0.580647
vt 0.111573 0.464518
vt 0.055787 1.000000
vt 0.111574 1.000000
vt 0.111573 0.871133
vt 0.111573 0.717292
vt 0.223146 0.282708
vt 0.000001 1.000000
vt 0.018596 1.000000
vt 0.037192 1.000000
vt 0.223146 0.128867
vt 0.223146 0.000000
vt 0.353315 0.464520
vt 0.371911 0.464520
vt 0.427697 0.464520
vt 0.446292 0.464520
vt 0.390506 0.464520
vt 0.409101 0.464520
vt 0.900102 0.232259
vt 0.907620 0.232259
vt 0.907620 0.116129
vt 0.900102 0.116129
vt 0.892584 0.116129
vt 0.900102 0.000000
vt 0.892584 0.232259
vt 0.371911 0.348390
vt 0.390506 0.348390
vt 0.409102 0.000000
vt 0.409102 0.116130
vt 0.427697 0.116130
vt 0.427697 0.000000
vt 0.409102 0.232260
vt 0.427697 0.232260
vt 0.409101 0.348390
vt 0.427697 0.348390
vt 0.892584 0.348388
vt 0.900102 0.348388
vt 0.825720 0.139478
vt 0.818202 0.139478
vt 0.818202 0.142949
vt 0.825720 0.142949
vt 0.825720 0.136006
vt 0.818202 0.136006
vt 0.446292 0.116130
vt 0.446293 0.000000
vt 0.446292 0.232260
vt 0.446292 0.348390
vt 0.334720 0.000000
vt 0.334720 0.116130
vt 0.353315 0.116130
vt 0.353315 0.000000
vt 0.334720 0.232260
vt 0.353315 0.232260
vt 0.334720 0.348390
vt 0.353315 0.348390
vt 0.371911 0.116130
vt 0.371911 0.000000
vt 0.371911 0.232260
vt 0.092977 0.000000
vt 0.092977 0.116129
vt 0.111573 0.116129
vt 0.092977 0.232259
vt 0.111573 0.232259
vt 0.092978 0.348388
vt 0.111573 0.348388
vt 0.167360 1.000000
vt 0.167360 0.883871
vt 0.148765 0.883871
vt 0.148765 1.000000
vt 0.167360 0.767741
vt 0.148765 0.767741
vt 0.167360 0.651612
vt 0.148765 0.651612
vt 0.297529 0.000000
vt 0.297529 0.174223
vt 0.316124 0.143457
vt 0.316124 0.000000
vt 0.297529 0.348446
vt 0.316124 0.286914
vt 0.297529 0.522669
vt 0.316124 0.430370
vt 0.130169 1.000000
vt 0.130169 0.883871
vt 0.111574 0.883871
vt 0.130169 0.767741
vt 0.111574 0.767741
vt 0.130169 0.651612
vt 0.111574 0.651612
vt 0.241742 0.000000
vt 0.241742 0.143457
vt 0.260338 0.174223
vt 0.260338 0.000000
vt 0.241742 0.286914
vt 0.260338 0.348446
vt 0.241742 0.430370
vt 0.260338 0.522669
vt 0.000000 0.116129
vt 0.018596 0.116129
vt 0.018595 0.000000
vt 0.000000 0.232259
vt 0.018596 0.232259
vt 0.000000 0.348388
vt 0.018596 0.348388
vt 0.223147 0.116130
vt 0.223147 0.232260
vt 0.223147 0.348390
vt 0.037191 0.000000
vt 0.037191 0.116129
vt 0.055786 0.116129
vt 0.055786 0.000000
vt 0.037191 0.232259
vt 0.055787 0.232259
vt 0.037191 0.348388
vt 0.055787 0.348388
vt 0.204551 1.000000
vt 0.204551 0.883871
vt 0.185956 0.883871
vt 0.185956 1.000000
vt 0.204551 0.767741
vt 0.185956 0.767741
vt 0.204551 0.651612
vt 0.185956 0.651612
vt 0.278933 0.000000
vt 0.278933 0.199994
vt 0.278933 0.399988
vt 0.278933 0.599982
vt 0.074382 0.000000
vt 0.074382 0.116129
vt 0.074382 0.232259
vt 0.074382 0.348388
vt 0.640077 0.147844
vt 0.637467 0.147844
vt 0.637467 0.151315
vt 0.640077 0.151315
vt 0.223147 1.000000
vt 0.223147 0.883871
vt 0.223147 0.767741
vt 0.223147 0.651612
vt 0.642687 0.151315
vt 0.642687 0.147844
vt 0.907620 0.000000
vt 0.907620 0.348388
vt 0.818202 0.132535
vt 0.825720 0.132535
vt 0.825720 0.129063
vt 0.648355 0.151315
vt 0.650244 0.151315
vt 0.650244 0.147844
vt 0.648355 0.147844
vt 0.644576 0.147844
vt 0.644576 0.151315
vt 0.483484 0.348390
vt 0.483484 0.232260
vt 0.464888 0.232260
vt 0.464888 0.348390
vt 0.483483 0.116130
vt 0.464888 0.116130
vt 0.464888 0.000000
vt 0.944811 0.000000
vt 0.944812 0.116129
vt 0.963407 0.116129
vt 0.963407 0.000000
vt 0.982002 0.116129
vt 0.982002 0.000000
vt 0.634857 0.147844
vt 0.632247 0.151315
vt 0.634857 0.151315
vt 0.987222 0.116130
vt 0.989832 0.116130
vt 0.989832 0.000000
vt 0.987222 0.000000
vt 0.984613 0.116130
vt 0.984612 0.000000
vt 0.992442 0.116130
vt 0.992442 0.000000
vt 0.926216 0.000000
vt 0.926216 0.116129
vt 0.646465 0.147844
vt 0.646465 0.151315
vt 1.000000 0.000000
vt 0.998111 0.000000
vt 0.998111 0.116130
vt 1.000000 0.116130
vt 0.994331 0.000000
vt 0.994332 0.116130
vt 0.996221 0.000000
vt 0.996221 0.116130
vn 1.000000 0.000000 0.000000
vn 0.000000 -1.000000 -0.000000
vn -0.000000 0.000000 1.000000
vn -1.000000 0.000000 -0.000000
vn 0.000000 -0.000000 -1.000000
vn 0.000000 1.000000 0.000000
vn 0.000000 0.748100 -0.663600
vn -0.000000 0.686600 0.727000
vn 0.000000 0.728400 -0.685100
vn 0.000000 0.728400 0.685100
vn -0.000000 0.748100 0.663600
vn 0.000000 0.686600 -0.727000
usemtl Material
s off
f 271/1/1 402/2/1 421/3/1 365/4/1
f 364/5/2 101/6/2 7/7/2 161/8/2
f 363/9/1 95/10/1 6/11/1 99/12/1
f 362/13/3 97/14/3 7/15/3 101/16/3
f 361/17/4 98/18/4 8/19/4 102/20/4
f 360/21/5 157/22/5 4/23/5 92/24/5
f 359/25/5 145/26/5 16/27/5 115/28/5
f 358/29/5 164/30/5 21/31/5 116/32/5
f 357/33/5 165/34/5 10/35/5 104/36/5
f 356/37/4 110/38/4 16/39/4 119/40/4
f 355/41/4 168/42/4 22/43/4 120/44/4
f 354/45/4 169/46/4 20/47/4 114/48/4
f 353/49/3 109/50/3 15/51/3 123/52/3
f 352/53/3 172/54/3 23/55/3 124/56/3
f 351/57/3 173/58/3 19/59/3 113/60/3
f 350/61/1 107/62/1 13/63/1 127/64/1
f 349/65/1 176/66/1 24/67/1 128/68/1
f 348/69/1 177/70/1 17/71/1 111/72/1
f 347/73/2 113/74/2 19/75/2 131/76/2
f 346/77/2 180/78/2 25/79/2 132/80/2
f 345/81/2 181/82/2 20/83/2 149/84/2
f 138/85/1 383/86/1 384/87/1 26/88/1
f 336/89/3 412/90/3 401/1/3 190/91/3
f 341/15/4 417/3/4 406/2/4 185/92/4
f 2/93/3 367/94/3 395/95/3 153/96/3
f 335/97/2 134/98/2 69/99/2 191/100/2
f 334/101/2 193/102/2 70/103/2 192/104/2
f 333/105/2 194/106/2 37/107/2 102/108/2
f 332/109/2 133/110/2 68/111/2 195/112/2
f 331/113/2 197/114/2 71/115/2 196/116/2
f 330/117/2 198/118/2 67/119/2 179/120/2
f 329/121/2 160/122/2 48/123/2 199/124/2
f 328/125/2 201/126/2 72/127/2 200/128/2
f 327/129/2 202/130/2 66/131/2 178/132/2
f 326/133/1 130/134/1 65/135/1 203/136/1
f 325/137/1 205/138/1 73/139/1 204/140/1
f 324/141/1 206/142/1 46/143/1 158/144/1
f 323/145/1 129/146/1 64/147/1 207/148/1
f 322/149/1 209/150/1 74/151/1 208/152/1
f 321/153/1 210/154/1 63/155/1 175/156/1
f 320/157/1 154/158/1 42/159/1 211/160/1
f 319/161/1 213/162/1 75/163/1 212/164/1
f 318/165/1 214/166/1 62/167/1 174/168/1
f 317/169/3 126/170/3 61/171/3 215/172/3
f 316/173/3 217/174/3 76/175/3 216/176/3
f 315/177/3 218/178/3 48/179/3 160/180/3
f 314/181/3 125/182/3 60/183/3 219/184/3
f 313/185/3 221/186/3 77/187/3 220/188/3
f 312/189/3 222/190/3 59/191/3 171/192/3
f 311/193/3 156/194/3 44/195/3 223/196/3
f 310/197/3 225/198/3 78/199/3 224/200/3
f 309/201/3 226/202/3 58/203/3 170/204/3
f 308/205/4 122/206/4 57/207/4 227/208/4
f 307/209/4 229/210/4 79/211/4 228/212/4
f 306/213/4 230/214/4 49/215/4 161/216/4
f 305/217/4 121/218/4 56/219/4 231/220/4
f 304/221/4 233/222/4 80/223/4 232/224/4
f 303/225/4 234/226/4 55/227/4 167/228/4
f 302/229/4 157/230/4 45/231/4 235/232/4
f 301/233/4 237/234/4 81/235/4 236/236/4
f 300/237/4 238/238/4 54/239/4 166/240/4
f 299/241/5 118/242/5 53/243/5 239/244/5
f 298/245/5 241/246/5 82/247/5 240/248/5
f 297/249/5 242/250/5 39/251/5 151/252/5
f 296/253/5 117/254/5 52/255/5 243/256/5
f 295/257/5 245/258/5 83/259/5 244/260/5
f 294/261/5 246/262/5 51/263/5 163/264/5
f 293/265/5 98/266/5 33/267/5 247/268/5
f 292/269/5 249/270/5 84/271/5 248/272/5
f 291/273/5 250/274/5 50/275/5 162/276/5
f 290/277/5 110/278/5 45/279/5 251/280/5
f 289/281/5 253/282/5 85/283/5 252/284/5
f 288/285/5 254/286/5 27/287/5 139/288/5
f 287/289/4 145/290/4 33/291/4 255/292/4
f 286/293/4 257/294/4 86/295/4 256/296/4
f 285/297/4 258/298/4 37/299/4 149/300/4
f 284/301/3 144/302/3 32/303/3 259/304/3
f 283/305/3 261/306/3 87/307/3 260/308/3
f 282/309/3 262/310/3 36/311/3 148/312/3
f 281/313/1 142/314/1 30/315/1 263/316/1
f 280/317/1 265/318/1 88/319/1 264/320/1
f 279/321/1 266/322/1 34/323/1 146/324/1
f 278/325/2 148/326/2 36/327/2 267/328/2
f 277/329/2 269/330/2 89/331/2 268/332/2
f 276/333/2 270/334/2 49/335/2 114/336/2
f 9/337/1 374/338/1 383/86/1 138/85/1
f 337/339/1 413/340/1 400/341/1 189/342/1
f 94/343/3 370/344/3 371/345/3 3/346/3
f 339/347/3 465/347/3 439/347/3 187/347/3
f 182/347/3 427/347/3 467/347/3 342/347/3
f 275/90/1 411/348/1 402/2/1 271/1/1
f 273/347/3 448/347/3 472/347/3 365/347/3
f 340/347/3 466/347/3 454/347/3 188/347/3
f 268/332/2 89/331/2 270/334/2 276/333/2
f 69/99/2 268/332/2 276/333/2 181/82/2
f 181/82/2 276/333/2 114/336/2 20/83/2
f 178/132/2 66/131/2 269/330/2 277/329/2
f 25/79/2 178/132/2 277/329/2 134/98/2
f 134/98/2 277/329/2 268/332/2 69/99/2
f 131/76/2 19/75/2 148/326/2 278/325/2
f 66/131/2 131/76/2 278/325/2 269/330/2
f 269/330/2 278/325/2 267/328/2 89/331/2
f 264/320/1 88/319/1 266/322/1 279/321/1
f 65/135/1 264/320/1 279/321/1 177/70/1
f 177/70/1 279/321/1 146/324/1 17/71/1
f 174/168/1 62/167/1 265/318/1 280/317/1
f 24/67/1 174/168/1 280/317/1 130/134/1
f 130/134/1 280/317/1 264/320/1 65/135/1
f 127/64/1 13/63/1 142/314/1 281/313/1
f 62/167/1 127/64/1 281/313/1 265/318/1
f 265/318/1 281/313/1 263/316/1 88/319/1
f 260/308/3 87/307/3 262/310/3 282/309/3
f 61/171/3 260/308/3 282/309/3 173/58/3
f 173/58/3 282/309/3 148/312/3 19/59/3
f 170/204/3 58/203/3 261/306/3 283/305/3
f 23/55/3 170/204/3 283/305/3 126/170/3
f 126/170/3 283/305/3 260/308/3 61/171/3
f 123/52/3 15/51/3 144/302/3 284/301/3
f 58/203/3 123/52/3 284/301/3 261/306/3
f 261/306/3 284/301/3 259/304/3 87/307/3
f 256/296/4 86/295/4 258/298/4 285/297/4
f 57/207/4 256/296/4 285/297/4 169/46/4
f 169/46/4 285/297/4 149/300/4 20/47/4
f 166/240/4 54/239/4 257/294/4 286/293/4
f 22/43/4 166/240/4 286/293/4 122/206/4
f 122/206/4 286/293/4 256/296/4 57/207/4
f 119/40/4 16/39/4 145/290/4 287/289/4
f 54/239/4 119/40/4 287/289/4 257/294/4
f 257/294/4 287/289/4 255/292/4 86/295/4
f 252/284/5 85/283/5 254/286/5 288/285/5
f 53/243/5 252/284/5 288/285/5 165/34/5
f 165/34/5 288/285/5 139/288/5 10/35/5
f 162/276/5 50/275/5 253/282/5 289/281/5
f 21/31/5 162/276/5 289/281/5 118/242/5
f 118/242/5 289/281/5 252/284/5 53/243/5
f 115/28/5 16/27/5 110/278/5 290/277/5
f 50/275/5 115/28/5 290/277/5 253/282/5
f 253/282/5 290/277/5 251/280/5 85/283/5
f 248/272/5 84/271/5 250/274/5 291/273/5
f 52/255/5 248/272/5 291/273/5 164/30/5
f 164/30/5 291/273/5 162/276/5 21/31/5
f 147/349/5 35/350/5 249/270/5 292/269/5
f 18/351/5 147/349/5 292/269/5 117/254/5
f 117/254/5 292/269/5 248/272/5 52/255/5
f 100/95/5 8/94/5 98/266/5 293/265/5
f 35/350/5 100/95/5 293/265/5 249/270/5
f 249/270/5 293/265/5 247/268/5 84/271/5
f 244/260/5 83/259/5 246/262/5 294/261/5
f 28/352/5 244/260/5 294/261/5 140/353/5
f 140/353/5 294/261/5 163/264/5 11/354/5
f 159/344/5 47/355/5 245/258/5 295/257/5
f 5/345/5 159/344/5 295/257/5 93/356/5
f 93/356/5 295/257/5 244/260/5 28/352/5
f 112/357/5 18/351/5 117/254/5 296/253/5
f 47/355/5 112/357/5 296/253/5 245/258/5
f 245/258/5 296/253/5 243/256/5 83/259/5
f 240/248/5 82/247/5 242/250/5 297/249/5
f 40/358/5 240/248/5 297/249/5 152/359/5
f 152/359/5 297/249/5 151/252/5 1/360/5
f 163/264/5 51/263/5 241/246/5 298/245/5
f 11/354/5 163/264/5 298/245/5 105/361/5
f 105/361/5 298/245/5 240/248/5 40/358/5
f 116/32/5 21/31/5 118/242/5 299/241/5
f 51/263/5 116/32/5 299/241/5 241/246/5
f 241/246/5 299/241/5 239/244/5 82/247/5
f 236/236/4 81/235/4 238/238/4 300/237/4
f 56/219/4 236/236/4 300/237/4 168/42/4
f 168/42/4 300/237/4 166/240/4 22/43/4
f 143/362/4 31/363/4 237/234/4 301/233/4
f 14/364/4 143/362/4 301/233/4 121/218/4
f 121/218/4 301/233/4 236/236/4 56/219/4
f 96/365/4 4/93/4 157/230/4 302/229/4
f 31/363/4 96/365/4 302/229/4 237/234/4
f 237/234/4 302/229/4 235/232/4 81/235/4
f 232/224/4 80/223/4 234/226/4 303/225/4
f 44/366/4 232/224/4 303/225/4 109/367/4
f 109/367/4 303/225/4 167/228/4 15/368/4
f 155/369/4 43/370/4 233/222/4 304/221/4
f 3/371/4 155/369/4 304/221/4 156/372/4
f 156/372/4 304/221/4 232/224/4 44/366/4
f 108/373/4 14/364/4 121/218/4 305/217/4
f 43/370/4 108/373/4 305/217/4 233/222/4
f 233/222/4 305/217/4 231/220/4 80/223/4
f 228/212/4 79/211/4 230/214/4 306/213/4
f 32/374/4 228/212/4 306/213/4 97/375/4
f 97/375/4 306/213/4 161/216/4 7/376/4
f 167/228/4 55/227/4 229/210/4 307/209/4
f 15/368/4 167/228/4 307/209/4 144/377/4
f 144/377/4 307/209/4 228/212/4 32/374/4
f 120/44/4 22/43/4 122/206/4 308/205/4
f 55/227/4 120/44/4 308/205/4 229/210/4
f 229/210/4 308/205/4 227/208/4 79/211/4
f 224/200/3 78/199/3 226/202/3 309/201/3
f 60/183/3 224/200/3 309/201/3 172/54/3
f 172/54/3 309/201/3 170/204/3 23/55/3
f 141/378/3 29/379/3 225/198/3 310/197/3
f 12/380/3 141/378/3 310/197/3 125/182/3
f 125/182/3 310/197/3 224/200/3 60/183/3
f 94/343/3 3/346/3 156/194/3 311/193/3
f 29/379/3 94/343/3 311/193/3 225/198/3
f 225/198/3 311/193/3 223/196/3 78/199/3
f 220/188/3 77/187/3 222/190/3 312/189/3
f 42/231/3 220/188/3 312/189/3 107/38/3
f 107/38/3 312/189/3 171/192/3 13/39/3
f 153/96/3 41/381/3 221/186/3 313/185/3
f 2/93/3 153/96/3 313/185/3 154/230/3
f 154/230/3 313/185/3 220/188/3 42/231/3
f 106/382/3 12/380/3 125/182/3 314/181/3
f 41/381/3 106/382/3 314/181/3 221/186/3
f 221/186/3 314/181/3 219/184/3 77/187/3
f 216/176/3 76/175/3 218/178/3 315/177/3
f 30/291/3 216/176/3 315/177/3 95/18/3
f 95/18/3 315/177/3 160/180/3 6/19/3
f 171/192/3 59/191/3 217/174/3 316/173/3
f 13/39/3 171/192/3 316/173/3 142/290/3
f 142/290/3 316/173/3 216/176/3 30/291/3
f 124/56/3 23/55/3 126/170/3 317/169/3
f 59/191/3 124/56/3 317/169/3 217/174/3
f 217/174/3 317/169/3 215/172/3 76/175/3
f 212/164/1 75/163/1 214/166/1 318/165/1
f 64/147/1 212/164/1 318/165/1 176/66/1
f 176/66/1 318/165/1 174/168/1 24/67/1
f 138/85/1 26/88/1 213/162/1 319/161/1
f 9/337/1 138/85/1 319/161/1 129/146/1
f 129/146/1 319/161/1 212/164/1 64/147/1
f 91/383/1 2/384/1 154/158/1 320/157/1
f 26/88/1 91/383/1 320/157/1 213/162/1
f 213/162/1 320/157/1 211/160/1 75/163/1
f 208/152/1 74/151/1 210/154/1 321/153/1
f 40/385/1 208/152/1 321/153/1 105/386/1
f 105/386/1 321/153/1 175/156/1 11/387/1
f 150/388/1 38/389/1 209/150/1 322/149/1
f 1/390/1 150/388/1 322/149/1 152/391/1
f 152/391/1 322/149/1 208/152/1 40/385/1
f 103/392/1 9/337/1 129/146/1 323/145/1
f 38/389/1 103/392/1 323/145/1 209/150/1
f 209/150/1 323/145/1 207/148/1 74/151/1
f 204/140/1 73/139/1 206/142/1 324/141/1
f 28/393/1 204/140/1 324/141/1 93/394/1
f 93/394/1 324/141/1 158/144/1 5/395/1
f 175/156/1 63/155/1 205/138/1 325/137/1
f 11/387/1 175/156/1 325/137/1 140/396/1
f 140/396/1 325/137/1 204/140/1 28/393/1
f 128/68/1 24/67/1 130/134/1 326/133/1
f 63/155/1 128/68/1 326/133/1 205/138/1
f 205/138/1 326/133/1 203/136/1 73/139/1
f 200/128/2 72/127/2 202/130/2 327/129/2
f 68/111/2 200/128/2 327/129/2 180/78/2
f 180/78/2 327/129/2 178/132/2 25/79/2
f 146/397/2 34/398/2 201/126/2 328/125/2
f 17/399/2 146/397/2 328/125/2 133/110/2
f 133/110/2 328/125/2 200/128/2 68/111/2
f 99/400/2 6/401/2 160/122/2 329/121/2
f 34/398/2 99/400/2 329/121/2 201/126/2
f 201/126/2 329/121/2 199/124/2 72/127/2
f 196/116/2 71/115/2 198/118/2 330/117/2
f 47/323/2 196/116/2 330/117/2 112/324/2
f 112/324/2 330/117/2 179/120/2 18/71/2
f 158/402/2 46/403/2 197/114/2 331/113/2
f 5/11/2 158/402/2 331/113/2 159/12/2
f 159/12/2 331/113/2 196/116/2 47/323/2
f 111/404/2 17/399/2 133/110/2 332/109/2
f 46/403/2 111/404/2 332/109/2 197/114/2
f 197/114/2 332/109/2 195/112/2 71/115/2
f 192/104/2 70/103/2 194/106/2 333/105/2
f 35/143/2 192/104/2 333/105/2 100/144/2
f 100/144/2 333/105/2 102/108/2 8/395/2
f 179/120/2 67/119/2 193/102/2 334/101/2
f 18/71/2 179/120/2 334/101/2 147/72/2
f 147/72/2 334/101/2 192/104/2 35/143/2
f 132/80/2 25/79/2 134/98/2 335/97/2
f 67/119/2 132/80/2 335/97/2 193/102/2
f 193/102/2 335/97/2 191/100/2 70/103/2
f 271/347/3 457/347/3 460/347/3 275/347/3
f 274/347/3 458/347/3 448/347/3 273/347/3
f 417/347/3 452/347/3 453/347/3 407/347/3
f 365/405/5 421/406/5 409/407/5 273/91/5
f 29/379/3 388/355/3 370/344/3 94/343/3
f 187/347/3 439/347/3 464/347/3 338/347/3
f 108/373/4 379/86/4 380/338/4 14/364/4
f 344/408/1 420/409/1 381/410/1 135/411/1
f 343/347/3 469/347/3 431/347/3 183/347/3
f 135/347/3 449/347/3 471/347/3 344/347/3
f 135/411/1 381/410/1 411/348/1 275/90/1
f 39/251/5 394/412/5 393/413/5 151/252/5
f 43/370/4 398/87/4 379/86/4 108/373/4
f 188/347/3 454/347/3 465/347/3 339/347/3
f 151/252/5 393/413/5 403/414/5 1/360/5
f 143/362/4 389/415/4 390/416/4 31/363/4
f 190/91/3 401/1/3 413/4/3 337/405/3
f 336/347/3 462/347/3 450/347/3 136/347/3
f 341/347/3 451/347/3 452/347/3 417/347/3
f 189/342/1 400/341/1 420/409/1 344/408/1
f 185/92/4 406/2/4 418/348/4 342/417/4
f 419/347/3 473/347/3 469/347/3 343/347/3
f 4/23/5 369/395/5 368/418/5 92/24/5
f 150/388/1 391/419/1 392/416/1 38/389/1
f 136/347/3 450/347/3 466/347/3 340/347/3
f 337/347/3 463/347/3 456/347/3 190/347/3
f 342/347/3 467/347/3 434/347/3 185/347/3
f 365/347/3 472/347/3 457/347/3 271/347/3
f 407/347/3 453/347/3 473/347/3 419/347/3
f 339/420/3 415/339/3 399/342/3 188/421/3
f 189/347/3 455/347/3 463/347/3 337/347/3
f 275/347/3 460/347/3 449/347/3 135/347/3
f 183/347/3 431/347/3 458/347/3 274/347/3
f 14/364/4 380/338/4 389/415/4 143/362/4
f 344/347/3 471/347/3 455/347/3 189/347/3
f 185/347/3 434/347/3 451/347/3 341/347/3
f 191/100/2 69/99/2 181/82/2 345/81/2
f 70/103/2 191/100/2 345/81/2 194/106/2
f 194/106/2 345/81/2 149/84/2 37/107/2
f 195/112/2 68/111/2 180/78/2 346/77/2
f 71/115/2 195/112/2 346/77/2 198/118/2
f 198/118/2 346/77/2 132/80/2 67/119/2
f 199/124/2 48/123/2 113/74/2 347/73/2
f 72/127/2 199/124/2 347/73/2 202/130/2
f 202/130/2 347/73/2 131/76/2 66/131/2
f 203/136/1 65/135/1 177/70/1 348/69/1
f 73/139/1 203/136/1 348/69/1 206/142/1
f 206/142/1 348/69/1 111/72/1 46/143/1
f 207/148/1 64/147/1 176/66/1 349/65/1
f 74/151/1 207/148/1 349/65/1 210/154/1
f 210/154/1 349/65/1 128/68/1 63/155/1
f 211/160/1 42/159/1 107/62/1 350/61/1
f 75/163/1 211/160/1 350/61/1 214/166/1
f 214/166/1 350/61/1 127/64/1 62/167/1
f 215/172/3 61/171/3 173/58/3 351/57/3
f 76/175/3 215/172/3 351/57/3 218/178/3
f 218/178/3 351/57/3 113/60/3 48/179/3
f 219/184/3 60/183/3 172/54/3 352/53/3
f 77/187/3 219/184/3 352/53/3 222/190/3
f 222/190/3 352/53/3 124/56/3 59/191/3
f 223/196/3 44/195/3 109/50/3 353/49/3
f 78/199/3 223/196/3 353/49/3 226/202/3
f 226/202/3 353/49/3 123/52/3 58/203/3
f 227/208/4 57/207/4 169/46/4 354/45/4
f 79/211/4 227/208/4 354/45/4 230/214/4
f 230/214/4 354/45/4 114/48/4 49/215/4
f 231/220/4 56/219/4 168/42/4 355/41/4
f 80/223/4 231/220/4 355/41/4 234/226/4
f 234/226/4 355/41/4 120/44/4 55/227/4
f 235/232/4 45/231/4 110/38/4 356/37/4
f 81/235/4 235/232/4 356/37/4 238/238/4
f 238/238/4 356/37/4 119/40/4 54/239/4
f 239/244/5 53/243/5 165/34/5 357/33/5
f 82/247/5 239/244/5 357/33/5 242/250/5
f 242/250/5 357/33/5 104/36/5 39/251/5
f 243/256/5 52/255/5 164/30/5 358/29/5
f 83/259/5 243/256/5 358/29/5 246/262/5
f 246/262/5 358/29/5 116/32/5 51/263/5
f 247/268/5 33/267/5 145/26/5 359/25/5
f 84/271/5 247/268/5 359/25/5 250/274/5
f 250/274/5 359/25/5 115/28/5 50/275/5
f 251/280/5 45/279/5 157/22/5 360/21/5
f 85/283/5 251/280/5 360/21/5 254/286/5
f 254/286/5 360/21/5 92/24/5 27/287/5
f 255/292/4 33/291/4 98/18/4 361/17/4
f 86/295/4 255/292/4 361/17/4 258/298/4
f 258/298/4 361/17/4 102/20/4 37/299/4
f 259/304/3 32/303/3 97/14/3 362/13/3
f 87/307/3 259/304/3 362/13/3 262/310/3
f 262/310/3 362/13/3 101/16/3 36/311/3
f 263/316/1 30/315/1 95/10/1 363/9/1
f 88/319/1 263/316/1 363/9/1 266/322/1
f 266/322/1 363/9/1 99/12/1 34/323/1
f 267/328/2 36/327/2 101/6/2 364/5/2
f 89/331/2 267/328/2 364/5/2 270/334/2
f 270/334/2 364/5/2 161/8/2 49/335/2
f 92/24/5 368/418/5 386/422/5 27/287/5
f 338/347/3 464/347/3 427/347/3 182/347/3
f 1/390/1 403/94/1 391/419/1 150/388/1
f 421/423/6 397/418/6 371/395/6 370/108/6
f 420/424/6 389/425/6 380/426/6 381/427/6
f 419/428/6 405/429/6 378/83/6 377/336/6
f 417/430/6 407/431/6 396/335/6 395/8/6
f 413/432/6 372/413/6 390/412/6 400/433/6
f 411/434/6 379/435/6 398/422/6 402/436/6
f 410/437/6 409/438/6 388/107/6 387/84/6
f 405/429/6 410/437/6 387/84/6 378/83/6
f 381/427/6 380/426/6 379/435/6 411/434/6
f 385/439/6 386/440/6 401/441/6 412/442/6
f 376/443/6 385/439/6 412/442/6 382/444/6
f 368/445/6 369/414/6 372/413/6 413/432/6
f 386/440/6 368/445/6 413/432/6 401/441/6
f 392/446/6 408/447/6 414/448/6 373/449/6
f 373/449/6 414/448/6 404/450/6 374/451/6
f 393/452/6 394/453/6 399/454/6 415/455/6
f 403/456/6 393/452/6 415/455/6 391/457/6
f 391/457/6 415/455/6 408/447/6 392/446/6
f 375/458/6 376/443/6 382/444/6 416/459/6
f 394/453/6 375/458/6 416/459/6 399/454/6
f 384/460/6 406/461/6 417/430/6 366/462/6
f 366/462/6 417/430/6 395/8/6 367/7/6
f 374/451/6 404/450/6 418/463/6 383/464/6
f 383/464/6 418/463/6 406/461/6 384/460/6
f 407/431/6 419/428/6 377/336/6 396/335/6
f 400/433/6 390/412/6 389/425/6 420/424/6
f 402/436/6 398/422/6 397/418/6 421/423/6
f 409/438/6 421/423/6 370/108/6 388/107/6
f 153/96/3 395/95/3 396/350/3 41/381/3
f 187/465/4 408/341/4 415/340/4 339/466/4
f 38/389/1 392/416/1 373/415/1 103/392/1
f 139/288/5 385/435/5 376/426/5 10/35/5
f 103/392/1 373/415/1 374/338/1 9/337/1
f 136/467/3 382/411/3 412/90/3 336/89/3
f 27/287/5 386/422/5 385/435/5 139/288/5
f 31/363/4 390/416/4 372/419/4 96/365/4
f 340/468/3 416/408/3 382/411/3 136/467/3
f 96/365/4 372/419/4 369/94/4 4/93/4
f 104/36/5 375/425/5 394/412/5 39/251/5
f 3/371/4 371/469/4 397/470/4 155/369/4
f 10/35/5 376/426/5 375/425/5 104/36/5
f 188/421/3 399/342/3 416/408/3 340/468/3
f 155/369/4 397/470/4 398/87/4 43/370/4
f 183/467/5 405/471/5 419/472/5 343/468/5
f 12/380/3 378/351/3 387/357/3 141/378/3
f 338/473/4 414/409/4 408/341/4 187/465/4
f 141/378/3 387/357/3 388/355/3 29/379/3
f 273/91/5 409/407/5 410/474/5 274/89/5
f 26/88/1 384/87/1 366/470/1 91/383/1
f 190/347/3 456/347/3 462/347/3 336/347/3
f 182/475/4 404/410/4 414/409/4 338/473/4
f 41/381/3 396/350/3 377/349/3 106/382/3
f 91/383/1 366/470/1 367/469/1 2/384/1
f 342/417/4 418/348/4 404/410/4 182/475/4
f 106/382/3 377/349/3 378/351/3 12/380/3
f 274/89/5 410/474/5 405/471/5 183/467/5
f 514/476/7 423/477/7 424/478/7 495/479/7
f 512/480/8 493/481/8 447/482/8 425/483/8
f 511/484/8 426/485/8 428/486/8 499/487/8
f 509/488/9 494/489/9 440/490/9 429/491/9
f 508/492/9 430/493/9 432/494/9 497/495/9
f 507/496/7 433/497/7 435/498/7 501/499/7
f 505/500/9 441/501/9 442/502/9 438/503/9
f 504/504/7 443/505/7 444/506/7 422/507/7
f 502/508/8 459/509/8 461/510/8 446/511/8
f 446/511/10 461/510/10 468/512/10 470/513/10
f 447/482/10 446/511/10 470/513/10 500/514/10
f 422/515/11 444/516/11 459/509/11 502/508/11
f 464/347/3 485/347/3 272/347/3 427/347/3
f 465/347/3 486/347/3 90/347/3 439/347/3
f 431/347/3 186/347/3 481/347/3 458/347/3
f 449/347/3 475/347/3 491/347/3 471/347/3
f 466/347/3 487/347/3 477/347/3 454/347/3
f 456/347/3 479/347/3 483/347/3 462/347/3
f 469/347/3 490/347/3 186/347/3 431/347/3
f 472/347/3 492/347/3 480/347/3 457/347/3
f 451/347/3 488/347/3 137/347/3 437/347/3
f 455/347/3 478/347/3 484/347/3 463/347/3
f 437/407/5 453/517/5 452/518/5 451/474/5
f 439/347/3 90/347/3 485/347/3 464/347/3
f 457/347/3 480/347/3 482/347/3 460/347/3
f 467/347/3 489/347/3 184/347/3 434/347/3
f 454/347/3 477/347/3 486/347/3 465/347/3
f 458/347/3 481/347/3 474/347/3 448/347/3
f 471/347/3 491/347/3 478/347/3 455/347/3
f 450/347/3 476/347/3 487/347/3 466/347/3
f 448/347/3 474/347/3 492/347/3 472/347/3
f 462/347/3 483/347/3 476/347/3 450/347/3
f 437/347/3 137/347/3 490/347/3 469/347/3
f 434/347/3 184/347/3 488/347/3 451/347/3
f 463/347/3 484/347/3 479/347/3 456/347/3
f 460/347/3 482/347/3 475/347/3 449/347/3
f 427/347/3 272/347/3 489/347/3 467/347/3
f 469/406/5 473/519/5 453/517/5 437/407/5
f 533/520/5 505/500/5 494/489/5 594/521/5
f 549/522/3 498/523/3 513/524/3 542/525/3
f 518/526/1 499/527/1 510/528/1
f 557/529/5 506/530/5 441/501/5 534/531/5
f 565/532/4 503/533/4 496/534/4 526/535/4
f 517/536/1 501/537/1 511/538/1 521/539/1
f 519/540/1 507/541/1 501/537/1 517/536/1
f 508/542/1 497/543/1 520/544/1
f 541/545/3 500/514/3 470/513/3 522/546/3
f 522/546/3 470/513/3 468/512/3 602/547/3
f 526/535/4 496/534/4 515/548/4 586/549/4
f 593/550/5 509/488/5 430/493/5 578/551/5
f 534/531/5 441/501/5 505/500/5 533/520/5
f 542/525/3 513/524/3 500/514/3 541/545/3
f 601/552/4 516/553/4 445/554/4 566/555/4
f 550/556/3 510/557/3 498/523/3 549/522/3
f 585/558/4 436/559/4 506/542/4 557/560/4
f 520/544/1 497/543/1 507/541/1 519/540/1
f 566/555/4 445/554/4 503/533/4 565/532/4
f 521/539/1 511/538/1 499/527/1 518/526/1
f 578/551/5 430/493/5 508/492/5 577/561/5
f 586/549/4 515/548/4 436/559/4 585/558/4
f 594/521/5 494/489/5 509/488/5 593/550/5
f 602/547/3 468/512/3 516/562/3 601/563/3
f 424/564/11 422/515/11 502/508/11 493/481/11
f 493/481/8 502/508/8 446/511/8 447/482/8
f 444/516/11 496/565/11 503/566/11 459/509/11
f 459/509/8 503/566/8 445/567/8 461/510/8
f 438/503/12 442/502/12 443/505/12 504/504/12
f 440/490/12 438/503/12 504/504/12 423/477/12
f 423/477/7 504/504/7 422/507/7 424/478/7
f 494/489/9 505/500/9 438/503/9 440/490/9
f 441/501/9 506/530/9 436/568/9 442/502/9
f 497/495/12 432/494/12 433/497/12 507/496/12
f 430/493/9 509/488/9 429/491/9 432/494/9
f 499/487/10 428/486/10 498/523/10 510/557/10
f 501/569/11 435/570/11 426/485/11 511/484/11
f 495/571/11 424/564/11 493/481/11 512/480/11
f 435/570/11 495/571/11 512/480/11 426/485/11
f 426/485/8 512/480/8 425/483/8 428/486/8
f 425/483/10 447/482/10 500/514/10 513/524/10
f 428/486/10 425/483/10 513/524/10 498/523/10
f 429/491/12 440/490/12 423/477/12 514/476/12
f 432/494/12 429/491/12 514/476/12 433/497/12
f 433/497/7 514/476/7 495/479/7 435/498/7
f 442/502/12 436/568/12 515/572/12 443/505/12
f 443/505/7 515/572/7 496/573/7 444/506/7
f 461/510/10 445/567/10 516/562/10 468/512/10
f 558/574/1 520/544/1 519/540/1 617/575/1
f 577/560/1 508/542/1 520/544/1 558/574/1
f 613/576/1 518/526/1 510/528/1 550/577/1
f 609/578/1 517/536/1 521/539/1 570/579/1
f 570/579/1 521/539/1 518/526/1 613/576/1
f 617/575/1 519/540/1 517/536/1 609/578/1
f 573/580/5 621/581/5 623/582/5 572/583/5
f 614/584/3 627/583/3 619/585/3 485/466/3
f 615/586/3 628/580/3 627/583/3 614/584/3
f 616/587/1 617/575/1 609/578/1 608/588/1
f 489/589/1 573/590/1 610/591/1 184/592/1
f 573/590/1 572/593/1 611/594/1 610/591/1
f 572/593/1 571/595/1 612/596/1 611/594/1
f 571/595/1 570/579/1 613/576/1 612/596/1
f 616/597/3 629/598/3 628/580/3 615/586/3
f 608/599/2 626/600/2 629/601/2 616/602/2
f 571/603/2 622/604/2 626/600/2 608/599/2
f 608/588/1 609/578/1 570/579/1 571/595/1
f 184/592/1 610/591/1 553/605/1 488/606/1
f 610/591/1 611/594/1 552/607/1 553/605/1
f 611/594/1 612/596/1 551/608/1 552/607/1
f 612/596/1 613/576/1 550/577/1 551/608/1
f 486/609/1 574/610/1 561/611/1 90/612/1
f 574/610/1 575/613/1 560/614/1 561/611/1
f 575/613/1 576/615/1 559/616/1 560/614/1
f 576/615/1 577/560/1 558/574/1 559/616/1
f 90/612/1 561/611/1 614/617/1 485/618/1
f 561/611/1 560/614/1 615/619/1 614/617/1
f 560/614/1 559/616/1 616/587/1 615/619/1
f 559/616/1 558/574/1 617/575/1 616/587/1
f 474/620/3 605/621/3 598/622/3 492/499/3
f 605/621/3 604/623/3 599/624/3 598/622/3
f 604/623/3 603/625/3 600/626/3 599/624/3
f 603/625/3 602/547/3 601/563/3 600/626/3
f 476/627/5 597/628/5 590/629/5 487/630/5
f 597/628/5 596/631/5 591/632/5 590/629/5
f 596/631/5 595/633/5 592/634/5 591/632/5
f 595/633/5 594/521/5 593/550/5 592/634/5
f 491/635/4 589/636/4 582/637/4 478/638/4
f 589/636/4 588/639/4 583/640/4 582/637/4
f 588/639/4 587/641/4 584/642/4 583/640/4
f 587/641/4 586/549/4 585/558/4 584/642/4
f 477/643/5 581/644/5 574/645/5 486/565/5
f 581/644/5 580/646/5 575/647/5 574/645/5
f 580/646/5 579/648/5 576/649/5 575/647/5
f 579/648/5 578/551/5 577/561/5 576/649/5
f 480/650/4 569/651/4 562/652/4 482/653/4
f 569/651/4 568/654/4 563/655/4 562/652/4
f 568/654/4 567/656/4 564/657/4 563/655/4
f 567/656/4 566/555/4 565/532/4 564/657/4
f 478/638/4 582/637/4 554/610/4 484/609/4
f 582/637/4 583/640/4 555/613/4 554/610/4
f 583/640/4 584/642/4 556/615/4 555/613/4
f 584/642/4 585/558/4 557/560/4 556/615/4
f 488/347/3 553/658/3 546/659/3 137/660/3
f 553/658/3 552/661/3 547/662/3 546/659/3
f 552/661/3 551/663/3 548/664/3 547/662/3
f 551/663/3 550/556/3 549/522/3 548/664/3
f 492/573/4 598/665/4 569/651/4 480/650/4
f 598/665/4 599/666/4 568/654/4 569/651/4
f 599/666/4 600/667/4 567/656/4 568/654/4
f 600/667/4 601/552/4 566/555/4 567/656/4
f 490/668/3 545/669/3 538/670/3 186/671/3
f 545/669/3 544/672/3 539/673/3 538/670/3
f 544/672/3 543/674/3 540/675/3 539/673/3
f 543/674/3 542/525/3 541/545/3 540/675/3
f 479/676/5 537/677/5 530/678/5 483/679/5
f 537/677/5 536/680/5 531/681/5 530/678/5
f 536/680/5 535/682/5 532/683/5 531/681/5
f 627/347/3 645/347/3 637/347/3 619/347/3
f 487/630/5 590/629/5 581/644/5 477/643/5
f 590/629/5 591/632/5 580/646/5 581/644/5
f 591/632/5 592/634/5 579/648/5 580/646/5
f 579/347/3 633/347/3 632/347/3 578/347/3
f 475/684/4 529/685/4 589/636/4 491/635/4
f 529/685/4 528/686/4 588/639/4 589/636/4
f 528/686/4 527/687/4 587/641/4 588/639/4
f 527/687/4 526/535/4 586/549/4 587/641/4
f 481/688/3 525/689/3 605/621/3 474/620/3
f 525/689/3 524/690/3 604/623/3 605/621/3
f 524/690/3 523/691/3 603/625/3 604/623/3
f 548/692/6 650/693/6 649/694/6 543/695/6
f 186/671/3 538/670/3 525/689/3 481/688/3
f 538/670/3 539/673/3 524/690/3 525/689/3
f 539/673/3 540/675/3 523/691/3 524/690/3
f 540/675/3 541/545/3 522/546/3 523/691/3
f 482/653/4 562/652/4 529/685/4 475/684/4
f 562/652/4 563/655/4 528/686/4 529/685/4
f 563/655/4 564/657/4 527/687/4 528/686/4
f 564/657/4 565/532/4 526/535/4 527/687/4
f 484/696/5 554/697/5 537/677/5 479/676/5
f 554/697/5 555/698/5 536/680/5 537/677/5
f 555/698/5 556/699/5 535/682/5 536/680/5
f 556/699/5 557/529/5 534/531/5 535/682/5
f 137/660/3 546/659/3 545/669/3 490/668/3
f 546/659/3 547/662/3 544/672/3 545/669/3
f 547/662/3 548/664/3 543/674/3 544/672/3
f 542/695/2 648/700/2 651/701/2 549/692/2
f 483/679/5 530/678/5 597/628/5 476/627/5
f 530/678/5 531/681/5 596/631/5 597/628/5
f 531/681/5 532/683/5 595/633/5 596/631/5
f 532/683/5 533/520/5 594/521/5 595/633/5
f 534/347/3 630/347/3 631/347/3 535/347/3
f 629/347/3 647/347/3 646/347/3 628/347/3
f 535/347/3 631/347/3 607/347/3 532/347/3
f 618/347/3 636/347/3 638/347/3 620/347/3
f 623/347/3 641/347/3 640/347/3 622/347/3
f 592/347/3 634/347/3 633/347/3 579/347/3
f 572/583/5 623/582/5 622/702/5 571/585/5
f 489/598/5 620/703/5 621/581/5 573/580/5
f 272/704/6 618/705/6 620/706/6 489/474/6
f 485/604/6 619/603/6 618/705/6 272/704/6
f 634/707/6 660/708/6 659/709/6 633/710/6
f 632/711/2 658/701/2 661/700/2 635/712/2
f 637/713/1 645/714/1 642/715/1 636/716/1
f 645/714/1 646/717/1 643/718/1 642/715/1
f 646/717/1 647/376/1 644/719/1 643/718/1
f 636/716/1 642/715/1 639/607/1 638/608/1
f 642/715/1 643/718/1 641/605/1 639/607/1
f 643/718/1 644/719/1 640/606/1 641/605/1
f 532/347/3 607/347/3 606/347/3 533/347/3
f 578/347/3 632/347/3 635/347/3 593/347/3
f 621/347/3 639/347/3 641/347/3 623/347/3
f 626/347/3 644/347/3 647/347/3 629/347/3
f 620/347/3 638/347/3 639/347/3 621/347/3
f 593/347/3 635/347/3 634/347/3 592/347/3
f 533/347/3 606/347/3 630/347/3 534/347/3
f 619/347/3 637/347/3 636/347/3 618/347/3
f 628/347/3 646/347/3 645/347/3 627/347/3
f 622/347/3 640/347/3 644/347/3 626/347/3
f 624/720/3 625/721/3 652/722/3 653/723/3
f 650/723/3 651/722/3 648/724/3 649/725/3
f 602/726/2 652/7/2 625/727/2 522/728/2
f 523/728/6 624/694/6 653/693/6 603/726/6
f 603/729/1 653/730/1 652/731/1 602/732/1
f 549/733/4 651/729/4 650/732/4 548/734/4
f 543/730/1 649/735/1 648/736/1 542/731/1
f 522/724/4 625/733/4 624/734/4 523/725/4
f 657/737/5 656/738/5 655/721/5 654/720/5
f 660/702/5 661/582/5 658/738/5 659/737/5
f 606/739/2 655/711/2 656/712/2 630/740/2
f 631/740/6 657/707/6 654/710/6 607/739/6
f 635/741/1 661/742/1 660/743/1 634/744/1
f 633/745/4 659/736/4 658/735/4 632/746/4
f 630/742/1 656/747/1 657/748/1 631/743/1
f 607/747/4 654/745/4 655/746/4 606/748/4
