# Blender v2.75 (sub 0) OBJ File: 'colina_cristo.blend'
# www.blender.org
mtllib colina_cristo.mtl
o Plane.001
v -1.000000 0.000000 1.000000
v 1.000000 0.000000 1.000000
v -1.000000 0.000000 -1.000000
v 1.000000 0.000000 -1.000000
v -1.000000 0.000003 -0.818182
v -1.000330 0.001683 -0.636485
v -1.010556 0.029553 -0.458161
v -1.017487 0.041216 -0.278326
v -1.004470 0.009660 -0.092215
v -1.000449 0.001573 0.090960
v -1.000636 0.003268 0.272824
v -1.000265 0.003275 0.454616
v -1.000000 0.005710 0.636364
v -1.000000 0.000000 0.818182
v -0.818182 0.000000 1.000000
v -0.636364 0.000000 1.000000
v -0.454547 0.023852 1.000010
v -0.272720 0.002421 1.000034
v -0.090902 0.002914 1.000043
v 0.090902 0.002914 1.000043
v 0.272720 0.002421 1.000034
v 0.454547 0.023852 1.000010
v 0.636364 0.000000 1.000000
v 0.818182 0.000000 1.000000
v 1.000000 0.000000 0.818182
v 1.000000 0.005710 0.636364
v 1.000265 0.003275 0.454615
v 1.000636 0.003268 0.272824
v 1.000449 0.001573 0.090960
v 1.004470 0.009660 -0.092215
v 1.017487 0.041216 -0.278326
v 1.010556 0.029553 -0.458161
v 1.000330 0.001683 -0.636485
v 1.000000 0.000003 -0.818182
v 0.818182 0.000000 -1.000000
v 0.636402 0.000883 -1.000113
v 0.454856 0.009571 -1.001054
v 0.273660 0.034432 -1.002793
v 0.090935 0.000950 -1.000088
v -0.090935 0.000950 -1.000088
v -0.273660 0.034432 -1.002793
v -0.454856 0.009571 -1.001054
v -0.636402 0.000883 -1.000113
v -0.818182 0.000000 -1.000000
v -0.818182 0.002548 0.818182
v -0.819416 0.111614 0.638370
v -0.832621 0.115386 0.462072
v -0.850865 0.116343 0.283874
v -0.855742 0.105698 0.096809
v -0.852947 0.100163 -0.092199
v -0.855128 0.104880 -0.282170
v -0.840187 0.089784 -0.463181
v -0.834957 0.102008 -0.642826
v -0.831745 0.099387 -0.832572
v -0.636738 0.003731 0.818654
v -0.639564 0.041198 0.640368
v -0.649509 0.051520 0.460933
v -0.678054 0.166058 0.289882
v -0.698065 0.216798 0.102032
v -0.708633 0.210242 -0.094672
v -0.699776 0.177075 -0.290954
v -0.668974 0.141134 -0.473285
v -0.653376 0.137583 -0.653636
v -0.639317 0.066593 -0.825718
v -0.458516 0.057882 0.825807
v -0.460118 0.064705 0.645591
v -0.475555 0.140882 0.472119
v -0.507172 0.213414 0.304034
v -0.539348 0.279390 0.114164
v -0.534532 0.292604 -0.094899
v -0.524938 0.244535 -0.304117
v -0.497482 0.172375 -0.499243
v -0.471313 0.100342 -0.661316
v -0.457853 0.074931 -0.825855
v -0.271813 0.081248 0.829729
v -0.274118 0.095904 0.654589
v -0.297295 0.216046 0.505520
v -0.323228 0.291623 0.322678
v -0.346698 0.363692 0.117615
v -0.361843 0.368836 -0.101885
v -0.344003 0.324559 -0.332778
v -0.323718 0.253540 -0.551108
v -0.291650 0.128170 -0.688345
v -0.278848 0.087631 -0.833647
v -0.090680 0.065530 0.819305
v -0.091096 0.071885 0.659244
v -0.101144 0.225842 0.520135
v -0.120478 0.376017 0.366961
v -0.147329 0.500960 0.133017
v -0.153733 0.521581 -0.153335
v -0.127790 0.409527 -0.389221
v -0.114301 0.297305 -0.587064
v -0.100211 0.176613 -0.720139
v -0.093075 0.047938 -0.835832
v 0.090680 0.065530 0.819305
v 0.091097 0.071888 0.659246
v 0.101193 0.225941 0.520337
v 0.120478 0.376017 0.366961
v 0.147333 0.501088 0.133024
v 0.153250 0.522446 -0.153664
v 0.127790 0.409527 -0.389220
v 0.114305 0.297318 -0.587080
v 0.100182 0.176360 -0.720151
v 0.093044 0.048639 -0.836125
v 0.271813 0.081248 0.829729
v 0.274118 0.095904 0.654589
v 0.297299 0.216040 0.505507
v 0.323280 0.291631 0.322764
v 0.346528 0.363324 0.117544
v 0.361825 0.368852 -0.101896
v 0.344003 0.324559 -0.332778
v 0.323715 0.253527 -0.551095
v 0.291632 0.127900 -0.688174
v 0.278847 0.087638 -0.833650
v 0.458516 0.057882 0.825807
v 0.460118 0.064705 0.645591
v 0.475555 0.140882 0.472118
v 0.507186 0.213874 0.304095
v 0.539232 0.279299 0.114174
v 0.534636 0.292723 -0.094905
v 0.524946 0.244539 -0.304118
v 0.497478 0.172362 -0.499233
v 0.471312 0.100360 -0.661315
v 0.457853 0.074931 -0.825855
v 0.636738 0.003731 0.818654
v 0.639564 0.041198 0.640368
v 0.649509 0.051520 0.460933
v 0.678054 0.166058 0.289882
v 0.698064 0.216797 0.102032
v 0.708551 0.210009 -0.094660
v 0.699750 0.176979 -0.290953
v 0.668974 0.141134 -0.473285
v 0.653379 0.137606 -0.653641
v 0.639317 0.066593 -0.825718
v 0.818182 0.002548 0.818182
v 0.819416 0.111614 0.638370
v 0.832621 0.115386 0.462072
v 0.850865 0.116343 0.283874
v 0.855741 0.105696 0.096809
v 0.852687 0.099851 -0.092185
v 0.855020 0.104807 -0.282153
v 0.840183 0.089781 -0.463180
v 0.834957 0.102008 -0.642826
v 0.831745 0.099387 -0.832572
vt 0.071213 0.764956
vt 0.077219 0.835198
vt 0.001315 0.835197
vt 0.001316 0.759293
vt 0.848679 0.533908
vt 0.918859 0.540609
vt 0.923830 0.610557
vt 0.847930 0.609808
vt 0.071226 0.070497
vt 0.074085 0.150830
vt 0.001281 0.152046
vt 0.001329 0.076158
vt 0.074027 0.226586
vt 0.000886 0.227836
vt 0.070827 0.301317
vt 0.000159 0.303480
vt 0.069874 0.378872
vt 0.001287 0.379762
vt 0.069750 0.456568
vt 0.001285 0.455688
vt 0.070822 0.534136
vt 0.000154 0.531971
vt 0.074020 0.608867
vt 0.000879 0.607615
vt 0.074076 0.684623
vt 0.001271 0.683405
vt 0.836273 0.000269
vt 0.836272 0.076173
vt 0.760368 0.076172
vt 0.760369 0.000268
vt 0.685302 0.075655
vt 0.684466 0.000266
vt 0.611702 0.070141
vt 0.608591 0.000154
vt 0.853816 0.002576
vt 0.923830 0.000154
vt 0.915480 0.074468
vt 0.852912 0.078463
vt 0.912648 0.152536
vt 0.852241 0.154383
vt 0.913915 0.231255
vt 0.851013 0.230463
vt 0.911394 0.310873
vt 0.836582 0.310566
vt 0.917042 0.386293
vt 0.845875 0.383635
vt 0.918300 0.461386
vt 0.849306 0.458052
vt 0.836271 0.152077
vt 0.760564 0.151919
vt 0.686134 0.150738
vt 0.611226 0.146585
vt 0.539817 0.134667
vt 0.537310 0.062523
vt 0.461405 0.126299
vt 0.459218 0.060461
vt 0.379120 0.118704
vt 0.380516 0.062504
vt 0.297000 0.124139
vt 0.300877 0.060768
vt 0.221217 0.138452
vt 0.225516 0.067159
vt 0.145925 0.144962
vt 0.150439 0.069157
vt 0.836273 0.227980
vt 0.763548 0.226322
vt 0.688313 0.225652
vt 0.615853 0.219224
vt 0.547031 0.205282
vt 0.466936 0.191699
vt 0.379230 0.194574
vt 0.291840 0.198566
vt 0.210378 0.210045
vt 0.142717 0.220968
vt 0.999807 0.001805
vt 0.999824 0.077712
vt 0.928727 0.078097
vt 0.927082 0.000154
vt 0.765184 0.304265
vt 0.692068 0.303301
vt 0.629904 0.293607
vt 0.552518 0.282573
vt 0.467209 0.261683
vt 0.377035 0.265736
vt 0.279872 0.274119
vt 0.188550 0.282500
vt 0.131900 0.296201
vt 0.999835 0.153616
vt 0.924382 0.153715
vt 0.760831 0.379883
vt 0.694010 0.379708
vt 0.635937 0.375512
vt 0.571991 0.367439
vt 0.475280 0.354583
vt 0.354782 0.353552
vt 0.256307 0.364381
vt 0.173459 0.369960
vt 0.893991 0.784983
vt 0.893991 0.695645
vt 0.844605 0.699919
vt 0.836582 0.782946
vt 0.117036 0.375847
vt 0.999842 0.229514
vt 0.924390 0.229428
vt 0.760830 0.455596
vt 0.694010 0.455769
vt 0.836618 0.691173
vt 0.836582 0.615113
vt 0.900893 0.610866
vt 0.900893 0.695337
vt 0.636019 0.459982
vt 0.571989 0.468032
vt 0.475278 0.480885
vt 0.354642 0.481710
vt 0.256305 0.471079
vt 0.173453 0.465498
vt 0.117069 0.459610
vt 0.891630 0.869056
vt 0.891630 0.785292
vt 0.836912 0.788308
vt 0.836582 0.866004
vt 0.999846 0.305418
vt 0.928748 0.305046
vt 0.765180 0.531214
vt 0.692064 0.532175
vt 0.629894 0.541869
vt 0.552513 0.552898
vt 0.467203 0.573785
vt 0.377030 0.569728
vt 0.279866 0.561342
vt 0.188549 0.552956
vt 0.000154 0.904147
vt 0.089436 0.907298
vt 0.089436 0.849814
vt 0.006183 0.854902
vt 0.131906 0.539249
vt 0.999843 0.381325
vt 0.927118 0.382989
vt 0.763541 0.609157
vt 0.688306 0.609824
vt 0.615846 0.616249
vt 0.547023 0.630188
vt 0.466928 0.643769
vt 0.379221 0.640901
vt 0.291831 0.636897
vt 0.210375 0.625412
vt 0.142710 0.614487
vt 0.999846 0.457229
vt 0.924139 0.457392
vt 0.760554 0.683559
vt 0.686124 0.684737
vt 0.611215 0.688888
vt 0.539807 0.700803
vt 0.461394 0.709168
vt 0.379108 0.716764
vt 0.296990 0.711322
vt 0.221206 0.697007
vt 0.145913 0.690495
vt 0.836261 0.683404
vt 0.836259 0.759308
vt 0.760355 0.759307
vt 0.685289 0.759821
vt 0.611690 0.765332
vt 0.537297 0.772947
vt 0.459205 0.775007
vt 0.380502 0.772961
vt 0.300864 0.774693
vt 0.225503 0.768299
vt 0.150426 0.766299
vt 0.836258 0.835212
vt 0.760354 0.835211
vt 0.684450 0.835209
vt 0.608575 0.835319
vt 0.532683 0.835472
vt 0.456760 0.835392
vt 0.380672 0.835867
vt 0.300430 0.849505
vt 0.227456 0.839489
vt 0.153077 0.835322
vn 0.184700 0.953800 -0.236800
vn 0.405700 0.903100 -0.140300
vn 0.273100 0.922400 -0.273100
vn 0.088200 0.928000 -0.362000
vn -0.405700 0.903100 -0.140300
vn -0.184700 0.953800 -0.236800
vn -0.088200 0.928000 -0.362000
vn -0.273100 0.922400 -0.273100
vn 0.026700 0.948100 -0.316700
vn 0.019400 0.919900 -0.391700
vn -0.055600 0.955100 -0.290900
vn -0.075600 0.937700 -0.338900
vn -0.033400 0.933800 -0.356100
vn 0.043900 0.951200 -0.305300
vn 0.035100 0.880300 -0.473100
vn 0.091300 0.955800 -0.279300
vn -0.035900 0.880300 -0.472900
vn -0.092300 0.955400 -0.280300
vn 0.034300 0.934100 -0.355400
vn -0.042800 0.950900 -0.306400
vn 0.055400 0.955200 -0.290700
vn 0.075600 0.937700 -0.338900
vn -0.026700 0.948100 -0.316700
vn -0.019400 0.919900 -0.391700
vn -0.007000 0.999900 0.007000
vn -0.005100 0.999900 0.012100
vn -0.029100 0.983800 0.176900
vn -0.144300 0.977700 0.152400
vn -0.065600 0.982100 0.176600
vn -0.411100 0.897400 0.159800
vn -0.200200 0.973700 0.108600
vn -0.556100 0.830600 0.027700
vn -0.421000 0.900000 0.112900
vn -0.586600 0.809800 0.005300
vn -0.547100 0.836700 0.022900
vn -0.570800 0.821100 -0.005600
vn -0.526600 0.850100 0.006900
vn -0.495400 0.866900 0.055400
vn -0.420400 0.905500 -0.057800
vn -0.396600 0.917900 0.008400
vn -0.349100 0.933500 -0.081300
vn -0.390500 0.917600 -0.074600
vn -0.307600 0.949300 -0.064300
vn -0.473500 0.880000 -0.036700
vn -0.108700 0.992100 0.062000
vn -0.065600 0.985400 0.157300
vn -0.005300 0.978900 0.204300
vn -0.066700 0.958600 0.276900
vn -0.275000 0.905900 0.322200
vn -0.442000 0.890000 0.111900
vn -0.480700 0.874300 -0.067100
vn -0.394900 0.899700 -0.185600
vn -0.234800 0.956300 -0.174200
vn -0.043900 0.983900 -0.173100
vn -0.110300 0.971000 0.212200
vn -0.146800 0.977600 0.150700
vn -0.245900 0.937300 0.246800
vn -0.344000 0.838200 0.423200
vn -0.368400 0.839200 0.400000
vn -0.381600 0.904500 0.190300
vn -0.404900 0.910500 -0.083900
vn -0.387400 0.883700 -0.262700
vn -0.277800 0.892700 -0.354700
vn -0.116500 0.932600 -0.341600
vn 0.021000 0.939100 0.343100
vn 0.001100 0.978500 0.206200
vn -0.087700 0.926400 0.366200
vn -0.250500 0.793600 0.554500
vn -0.395100 0.811000 0.431500
vn -0.473900 0.852200 0.221600
vn -0.487400 0.867900 -0.095600
vn -0.442000 0.838800 -0.317800
vn -0.358800 0.789200 -0.498300
vn -0.211200 0.836400 -0.505700
vn 0.024800 0.936200 0.350600
vn 0.040700 0.978700 0.201100
vn 0.028300 0.913800 0.405200
vn -0.065300 0.728800 0.681600
vn -0.189200 0.814700 0.548100
vn -0.278800 0.923700 0.262600
vn -0.289800 0.942400 -0.167200
vn -0.216300 0.879700 -0.423500
vn -0.155800 0.803700 -0.574200
vn -0.085000 0.741400 -0.665600
vn -0.024800 0.936200 0.350600
vn -0.040700 0.978700 0.201100
vn -0.028500 0.913700 0.405300
vn 0.065000 0.728800 0.681700
vn 0.189200 0.814800 0.547900
vn 0.278700 0.923700 0.262800
vn 0.288400 0.942700 -0.167500
vn 0.215900 0.879700 -0.423700
vn 0.156100 0.803500 -0.574500
vn 0.085100 0.741900 -0.665100
vn -0.021000 0.939100 0.343100
vn -0.001100 0.978500 0.206200
vn 0.087900 0.926300 0.366300
vn 0.250500 0.793400 0.554700
vn 0.394900 0.811300 0.431000
vn 0.473900 0.852200 0.221500
vn 0.487800 0.867700 -0.095200
vn 0.442200 0.838600 -0.318100
vn 0.358700 0.789000 -0.498700
vn 0.211400 0.836700 -0.505100
vn 0.110300 0.971000 0.212200
vn 0.146800 0.977600 0.150700
vn 0.245900 0.937300 0.246800
vn 0.344000 0.837900 0.423700
vn 0.368300 0.839400 0.399600
vn 0.381400 0.904700 0.189800
vn 0.405000 0.910500 -0.083500
vn 0.387600 0.883500 -0.262700
vn 0.277600 0.892800 -0.354800
vn 0.116000 0.932700 -0.341500
vn 0.108700 0.992100 0.062000
vn 0.065600 0.985400 0.157300
vn 0.005300 0.978900 0.204300
vn 0.066900 0.958500 0.277200
vn 0.275500 0.905700 0.322100
vn 0.442500 0.889800 0.111200
vn 0.481400 0.873900 -0.067200
vn 0.395400 0.899600 -0.185200
vn 0.234800 0.956300 -0.174000
vn 0.043900 0.983900 -0.173100
vn 0.005100 0.999900 0.012100
vn 0.029100 0.983800 0.176900
vn 0.065600 0.982100 0.176600
vn 0.200200 0.973700 0.108600
vn 0.421000 0.900000 0.112900
vn 0.547000 0.836800 0.022200
vn 0.526300 0.850300 0.006600
vn 0.420100 0.905600 -0.057100
vn 0.349100 0.933600 -0.081000
vn 0.307700 0.949300 -0.064300
vn 0.007000 0.999900 0.007000
vn 0.144300 0.977700 0.152400
vn 0.411100 0.897400 0.159800
vn 0.556100 0.830600 0.027700
vn 0.586600 0.809800 0.005300
vn 0.570300 0.821400 -0.006200
vn 0.494300 0.867500 0.055200
vn 0.395800 0.918300 0.008900
vn 0.390300 0.917700 -0.074500
vn 0.473500 0.880000 -0.036700
usemtl Material.001
s 1
f 144/1/1 34/2/2 4/3/3 35/4/4
f 5/5/5 54/6/6 44/7/7 3/8/8
f 54/9/6 64/10/9 43/11/10 44/12/7
f 64/10/9 74/13/11 42/14/12 43/11/10
f 74/13/11 84/15/13 41/16/14 42/14/12
f 84/15/13 94/17/15 40/18/16 41/16/14
f 94/17/15 104/19/17 39/20/18 40/18/16
f 104/19/17 114/21/19 38/22/20 39/20/18
f 114/21/19 124/23/21 37/24/22 38/22/20
f 124/23/21 134/25/23 36/26/24 37/24/22
f 134/25/23 144/1/1 35/4/4 36/26/24
f 1/27/25 15/28/26 45/29/27 14/30/28
f 14/30/28 45/29/27 46/31/29 13/32/30
f 13/32/30 46/31/29 47/33/31 12/34/32
f 12/35/32 47/36/31 48/37/33 11/38/34
f 11/38/34 48/37/33 49/39/35 10/40/36
f 10/40/36 49/39/35 50/41/37 9/42/38
f 9/42/38 50/41/37 51/43/39 8/44/40
f 8/44/40 51/43/39 52/45/41 7/46/42
f 7/46/42 52/45/41 53/47/43 6/48/44
f 6/48/44 53/47/43 54/6/6 5/5/5
f 15/28/26 16/49/45 55/50/46 45/29/27
f 45/29/27 55/50/46 56/51/47 46/31/29
f 46/31/29 56/51/47 57/52/48 47/33/31
f 47/33/31 57/52/48 58/53/49 48/54/33
f 48/54/33 58/53/49 59/55/50 49/56/35
f 49/56/35 59/55/50 60/57/51 50/58/37
f 50/58/37 60/57/51 61/59/52 51/60/39
f 51/60/39 61/59/52 62/61/53 52/62/41
f 52/62/41 62/61/53 63/63/54 53/64/43
f 53/64/43 63/63/54 64/10/9 54/9/6
f 16/49/45 17/65/55 65/66/56 55/50/46
f 55/50/46 65/66/56 66/67/57 56/51/47
f 56/51/47 66/67/57 67/68/58 57/52/48
f 57/52/48 67/68/58 68/69/59 58/53/49
f 58/53/49 68/69/59 69/70/60 59/55/50
f 59/55/50 69/70/60 70/71/61 60/57/51
f 60/57/51 70/71/61 71/72/62 61/59/52
f 61/59/52 71/72/62 72/73/63 62/61/53
f 62/61/53 72/73/63 73/74/64 63/63/54
f 63/63/54 73/74/64 74/13/11 64/10/9
f 17/75/55 18/76/65 75/77/66 65/78/56
f 65/66/56 75/79/66 76/80/67 66/67/57
f 66/67/57 76/80/67 77/81/68 67/68/58
f 67/68/58 77/81/68 78/82/69 68/69/59
f 68/69/59 78/82/69 79/83/70 69/70/60
f 69/70/60 79/83/70 80/84/71 70/71/61
f 70/71/61 80/84/71 81/85/72 71/72/62
f 71/72/62 81/85/72 82/86/73 72/73/63
f 72/73/63 82/86/73 83/87/74 73/74/64
f 73/74/64 83/87/74 84/15/13 74/13/11
f 18/76/65 19/88/75 85/89/76 75/77/66
f 75/79/66 85/90/76 86/91/77 76/80/67
f 76/80/67 86/91/77 87/92/78 77/81/68
f 77/81/68 87/92/78 88/93/79 78/82/69
f 78/82/69 88/93/79 89/94/80 79/83/70
f 79/83/70 89/94/80 90/95/81 80/84/71
f 80/84/71 90/95/81 91/96/82 81/85/72
f 81/85/72 91/96/82 92/97/83 82/86/73
f 82/98/73 92/99/83 93/100/84 83/101/74
f 83/87/74 93/102/84 94/17/15 84/15/13
f 19/88/75 20/103/85 95/104/86 85/89/76
f 85/90/76 95/105/86 96/106/87 86/91/77
f 86/107/77 96/108/87 97/109/88 87/110/78
f 87/92/78 97/111/88 98/112/89 88/93/79
f 88/93/79 98/112/89 99/113/90 89/94/80
f 89/94/80 99/113/90 100/114/91 90/95/81
f 90/95/81 100/114/91 101/115/92 91/96/82
f 91/96/82 101/115/92 102/116/93 92/97/83
f 92/97/83 102/116/93 103/117/94 93/102/84
f 93/118/84 103/119/94 104/120/17 94/121/15
f 20/103/85 21/122/95 105/123/96 95/104/86
f 95/105/86 105/124/96 106/125/97 96/106/87
f 96/106/87 106/125/97 107/126/98 97/111/88
f 97/111/88 107/126/98 108/127/99 98/112/89
f 98/112/89 108/127/99 109/128/100 99/113/90
f 99/113/90 109/128/100 110/129/101 100/114/91
f 100/114/91 110/129/101 111/130/102 101/115/92
f 101/115/92 111/130/102 112/131/103 102/116/93
f 102/132/93 112/133/103 113/134/104 103/135/94
f 103/117/94 113/136/104 114/21/19 104/19/17
f 21/122/95 22/137/105 115/138/106 105/123/96
f 105/124/96 115/139/106 116/140/107 106/125/97
f 106/125/97 116/140/107 117/141/108 107/126/98
f 107/126/98 117/141/108 118/142/109 108/127/99
f 108/127/99 118/142/109 119/143/110 109/128/100
f 109/128/100 119/143/110 120/144/111 110/129/101
f 110/129/101 120/144/111 121/145/112 111/130/102
f 111/130/102 121/145/112 122/146/113 112/131/103
f 112/131/103 122/146/113 123/147/114 113/136/104
f 113/136/104 123/147/114 124/23/21 114/21/19
f 22/137/105 23/148/115 125/149/116 115/138/106
f 115/139/106 125/150/116 126/151/117 116/140/107
f 116/140/107 126/151/117 127/152/118 117/141/108
f 117/141/108 127/152/118 128/153/119 118/142/109
f 118/142/109 128/153/119 129/154/120 119/143/110
f 119/143/110 129/154/120 130/155/121 120/144/111
f 120/144/111 130/155/121 131/156/122 121/145/112
f 121/145/112 131/156/122 132/157/123 122/146/113
f 122/146/113 132/157/123 133/158/124 123/147/114
f 123/147/114 133/158/124 134/25/23 124/23/21
f 23/159/115 24/160/125 135/161/126 125/150/116
f 125/150/116 135/161/126 136/162/127 126/151/117
f 126/151/117 136/162/127 137/163/128 127/152/118
f 127/152/118 137/163/128 138/164/129 128/153/119
f 128/153/119 138/164/129 139/165/130 129/154/120
f 129/154/120 139/165/130 140/166/131 130/155/121
f 130/155/121 140/166/131 141/167/132 131/156/122
f 131/156/122 141/167/132 142/168/133 132/157/123
f 132/157/123 142/168/133 143/169/134 133/158/124
f 133/158/124 143/169/134 144/1/1 134/25/23
f 24/160/125 2/170/135 25/171/136 135/161/126
f 135/161/126 25/171/136 26/172/137 136/162/127
f 136/162/127 26/172/137 27/173/138 137/163/128
f 137/163/128 27/173/138 28/174/139 138/164/129
f 138/164/129 28/174/139 29/175/140 139/165/130
f 139/165/130 29/175/140 30/176/141 140/166/131
f 140/166/131 30/176/141 31/177/142 141/167/132
f 141/167/132 31/177/142 32/178/143 142/168/133
f 142/168/133 32/178/143 33/179/144 143/169/134
f 143/169/134 33/179/144 34/2/2 144/1/1
