# Blender v2.75 (sub 0) OBJ File: 'calles.blend'
# www.blender.org
mtllib cruce_calle.mtl
o Cube.004
v 2.999999 0.028262 -1.000000
v 2.999998 0.028262 1.000001
v 0.999998 0.028262 1.000000
v 2.999999 0.028262 -0.666545
v 2.999999 0.028262 0.666546
v 2.333332 0.028262 -1.000000
v 1.666666 0.028262 -1.000000
v 2.333331 0.028262 1.000000
v 1.666665 0.028262 1.000000
v 0.999999 0.028262 0.666545
v 0.999999 0.028262 -0.666546
v 2.333332 0.028262 -0.666545
v 2.333332 0.028262 0.666546
v 1.666666 0.028262 -0.666546
v 1.666665 0.028262 0.666545
v 2.999999 -0.034918 -0.666545
v 2.999999 -0.034918 0.666546
v 0.999999 -0.034918 0.666545
v 0.999999 -0.034918 -0.666546
v 2.333332 -0.034918 -0.666545
v 2.333332 -0.034918 0.666546
v 1.666666 -0.034918 -0.666546
v 1.666665 -0.034918 0.666545
v 0.999998 0.028262 3.000000
v -1.000001 0.028262 3.000000
v -0.666546 0.028262 1.000000
v 0.666545 0.028262 1.000000
v -1.000001 0.028262 1.666666
v -1.000001 0.028262 2.333333
v 0.999999 0.028262 1.666667
v 0.999999 0.028262 2.333334
v 0.666543 0.028262 3.000000
v -0.666547 0.028262 3.000000
v -0.666546 0.028262 1.666667
v 0.666545 0.028262 1.666667
v -0.666547 0.028262 2.333333
v 0.666544 0.028262 2.333333
v -0.666546 -0.034918 1.000000
v 0.666545 -0.034918 1.000000
v 0.666543 -0.034918 3.000000
v -0.666547 -0.034918 3.000000
v -0.666546 -0.034918 1.666667
v 0.666545 -0.034918 1.666667
v -0.666547 -0.034918 2.333333
v 0.666544 -0.034918 2.333333
v -1.000001 0.028262 -3.000000
v 1.000000 0.028262 -2.999999
v 0.999998 0.028262 -1.000000
v -1.000001 0.028262 -1.000000
v -0.666546 0.028262 -3.000000
v 0.666545 0.028262 -3.000000
v -1.000001 0.028262 -2.333334
v -1.000001 0.028262 -1.666667
v 0.999999 0.028262 -2.333333
v 0.999999 0.028262 -1.666666
v 0.666543 0.028262 -1.000000
v -0.666547 0.028262 -1.000000
v -0.666546 0.028262 -2.333333
v 0.666545 0.028262 -2.333333
v -0.666547 0.028262 -1.666667
v 0.666544 0.028262 -1.666666
v -0.666546 -0.034918 -3.000000
v 0.666545 -0.034918 -3.000000
v 0.666543 -0.034918 -1.000000
v -0.666547 -0.034918 -1.000000
v -0.666546 -0.034918 -2.333333
v 0.666545 -0.034918 -2.333333
v -0.666547 -0.034918 -1.666667
v 0.666544 -0.034918 -1.666666
v -1.000002 0.028262 1.000001
v -3.000001 0.028262 1.000000
v -3.000001 0.028262 -1.000000
v -1.000001 0.028262 -0.666545
v -1.000001 0.028262 0.666546
v -1.666667 0.028262 -1.000000
v -2.333334 0.028262 -1.000000
v -1.666668 0.028262 1.000000
v -2.333335 0.028262 1.000000
v -3.000001 0.028262 0.666545
v -3.000001 0.028262 -0.666546
v -1.666668 0.028262 -0.666545
v -1.666668 0.028262 0.666546
v -2.333334 0.028262 -0.666546
v -2.333335 0.028262 0.666545
v -1.000001 -0.034918 -0.666545
v -1.000001 -0.034918 0.666546
v -3.000001 -0.034918 0.666545
v -3.000001 -0.034918 -0.666546
v -1.666668 -0.034918 -0.666545
v -1.666668 -0.034918 0.666546
v -2.333334 -0.034918 -0.666546
v -2.333335 -0.034918 0.666545
vt 0.219479 0.877627
vt 0.250812 0.908959
vt 0.188147 0.908959
vt 0.689984 0.966725
vt 0.627320 0.966725
vt 0.627320 0.958329
vt 0.689984 0.958329
vt 0.501821 0.783675
vt 0.439179 0.721034
vt 0.470512 0.689701
vt 0.533153 0.752343
vt 0.250766 0.563975
vt 0.188124 0.626617
vt 0.062863 0.501356
vt 0.125505 0.438714
vt 0.313408 0.501333
vt 0.188147 0.376072
vt 0.627105 0.908959
vt 0.564463 0.846317
vt 0.595795 0.814985
vt 0.658437 0.877627
vt 0.885268 0.293685
vt 0.929280 0.298813
vt 0.880139 0.337697
vt 0.450136 0.940652
vt 0.538724 0.940652
vt 0.538724 0.949047
vt 0.450136 0.949047
vt 0.735944 0.497155
vt 0.673446 0.434370
vt 0.704850 0.403110
vt 0.767348 0.465895
vt 0.450140 0.975563
vt 0.361549 0.975563
vt 0.361549 0.967167
vt 0.450140 0.967167
vt 0.610948 0.371585
vt 0.642352 0.340325
vt 0.361549 0.940652
vt 0.361549 0.949048
vt 0.125482 0.689259
vt 0.000221 0.563998
vt 0.538729 0.975563
vt 0.538729 0.967167
vt 0.627312 0.940652
vt 0.627312 0.949047
vt 0.627318 0.975563
vt 0.627318 0.967167
vt 0.798442 0.559940
vt 0.829847 0.528680
vt 0.689977 0.957886
vt 0.627313 0.957886
vt 0.627313 0.949490
vt 0.689977 0.949490
vt 0.829703 0.591344
vt 0.689770 0.908959
vt 0.689977 0.940652
vt 0.689977 0.949047
vt 0.689982 0.967167
vt 0.689982 0.975563
vt 0.376072 0.188147
vt 0.501333 0.313408
vt 0.501333 0.376073
vt 0.376072 0.501333
vt 0.188147 0.313408
vt 0.313408 0.188147
vt 0.313454 0.846317
vt 0.282121 0.814985
vt 0.626617 0.188124
vt 0.563975 0.250766
vt 0.438714 0.125505
vt 0.501356 0.062863
vt 0.689259 0.125482
vt 0.563998 0.000222
vt 0.438737 0.721033
vt 0.376095 0.783675
vt 0.344763 0.752343
vt 0.407404 0.689701
vt 0.621287 0.262925
vt 0.709280 0.273178
vt 0.704152 0.317191
vt 0.616158 0.306937
vt 0.778568 0.949490
vt 0.867157 0.949490
vt 0.867157 0.957886
vt 0.778568 0.957886
vt 0.797274 0.283431
vt 0.792145 0.327444
vt 0.778574 0.966725
vt 0.778574 0.958329
vt 0.867162 0.966724
vt 0.867162 0.958329
vt 0.955748 0.949491
vt 0.955748 0.957886
vt 0.955749 0.966724
vt 0.955749 0.958329
vt 0.062863 0.783676
vt 0.000221 0.721034
vt 0.031553 0.689702
vt 0.094195 0.752343
vt 0.125505 0.250766
vt 0.062863 0.188124
vt 0.188124 0.062863
vt 0.250766 0.125505
vt 0.125505 0.846318
vt 0.156837 0.814985
vt 0.450137 0.949491
vt 0.538725 0.949490
vt 0.538725 0.957886
vt 0.450137 0.957886
vt 0.721079 0.814985
vt 0.783721 0.752343
vt 0.815053 0.783675
vt 0.752411 0.846317
vt 0.867157 0.940652
vt 0.955749 0.940652
vt 0.955749 0.949048
vt 0.867157 0.949048
vt 0.846363 0.689701
vt 0.877695 0.721034
vt 0.361549 0.949491
vt 0.361549 0.957886
vt 0.000221 0.125482
vt 0.125482 0.000221
vt 0.778567 0.940652
vt 0.778567 0.949047
vt 0.939534 0.210820
vt 0.895521 0.205691
vt 0.501356 0.626617
vt 0.438714 0.563975
vt 0.563975 0.438714
vt 0.626617 0.501356
vt 0.563998 0.689259
vt 0.689259 0.563998
vt 0.960040 0.034832
vt 0.949787 0.122826
vt 0.905774 0.117697
vt 0.916027 0.029704
vt 0.610087 0.747435
vt 0.672872 0.684937
vt 0.704133 0.716341
vt 0.641348 0.778839
vt 0.538730 0.966725
vt 0.450140 0.966725
vt 0.450140 0.958329
vt 0.538730 0.958329
vt 0.735658 0.622439
vt 0.766918 0.653843
vt 0.778571 0.975563
vt 0.778571 0.967167
vt 0.867160 0.975563
vt 0.867160 0.967167
vt 0.361549 0.966725
vt 0.361549 0.958329
vt 0.955748 0.975563
vt 0.955748 0.967167
vn 0.000000 1.000000 0.000000
vn -0.707100 0.000000 0.707100
vn 0.000000 0.000000 -1.000000
vn -0.000000 0.000000 1.000000
vn -0.707100 0.000000 -0.707100
vn 0.707100 0.000000 -0.707100
vn 0.707100 0.000000 0.707100
vn -1.000000 0.000000 -0.000000
vn 1.000000 0.000000 0.000000
usemtl Material.004
s off
f 3/1/1 10/2/1 27/3/1
f 11/4/2 56/5/2 64/6/2 19/7/2
f 84/8/1 79/9/1 71/10/1 78/11/1
f 89/12/1 91/13/1 92/14/1 90/15/1
f 85/16/1 89/12/1 90/15/1 86/17/1
f 74/18/1 82/19/1 77/20/1 70/21/1
f 82/19/1 84/8/1 78/11/1 77/20/1
f 48/22/1 56/23/1 11/24/1
f 84/25/3 82/26/3 90/27/3 92/28/3
f 75/29/1 76/30/1 83/31/1 81/32/1
f 83/33/4 80/34/4 88/35/4 91/36/4
f 76/30/1 72/37/1 80/38/1 83/31/1
f 79/39/3 84/25/3 92/28/3 87/40/3
f 91/13/1 88/41/1 87/42/1 92/14/1
f 81/43/4 83/33/4 91/36/4 89/44/4
f 82/26/3 74/45/3 86/46/3 90/27/3
f 73/47/4 81/43/4 89/44/4 85/48/4
f 49/49/1 75/29/1 81/32/1 73/50/1
f 18/51/5 39/52/5 27/53/5 10/54/5
f 73/50/1 57/55/1 49/49/1
f 26/56/1 74/18/1 70/21/1
f 74/45/6 26/57/6 38/58/6 86/46/6
f 73/47/7 85/48/7 65/59/7 57/60/7
f 18/61/1 19/62/1 64/63/1 65/64/1 85/16/1 86/17/1 38/65/1 39/66/1
usemtl Material
f 15/67/1 10/2/1 3/1/1 9/68/1
f 20/69/1 22/70/1 23/71/1 21/72/1
f 16/73/1 20/69/1 21/72/1 17/74/1
f 5/75/1 13/76/1 8/77/1 2/78/1
f 13/76/1 15/67/1 9/68/1 8/77/1
f 1/79/1 6/80/1 12/81/1 4/82/1
f 15/83/3 13/84/3 21/85/3 23/86/3
f 6/80/1 7/87/1 14/88/1 12/81/1
f 14/89/4 11/4/4 19/7/4 22/90/4
f 10/54/3 15/83/3 23/86/3 18/51/3
f 22/70/1 19/62/1 18/61/1 23/71/1
f 12/91/4 14/89/4 22/90/4 20/92/4
f 13/84/3 5/93/3 17/94/3 21/85/3
f 4/95/4 12/91/4 20/92/4 16/96/4
f 7/87/1 48/22/1 11/24/1 14/88/1
usemtl Material.002
f 37/97/1 32/98/1 24/99/1 31/100/1
f 42/101/1 44/102/1 45/103/1 43/104/1
f 38/65/1 42/101/1 43/104/1 39/66/1
f 35/105/1 37/97/1 31/100/1 30/106/1
f 37/107/8 35/108/8 43/109/8 45/110/8
f 28/111/1 29/112/1 36/113/1 34/114/1
f 36/115/9 33/116/9 41/117/9 44/118/9
f 29/112/1 25/119/1 33/120/1 36/113/1
f 32/121/8 37/107/8 45/110/8 40/122/8
f 44/102/1 41/123/1 40/124/1 45/103/1
f 34/125/9 36/115/9 44/118/9 42/126/9
f 35/108/8 27/53/8 39/52/8 43/109/8
f 26/57/9 34/125/9 42/126/9 38/58/9
f 27/3/1 35/105/1 30/106/1 3/1/1
f 70/21/1 28/111/1 34/114/1 26/56/1
usemtl Material.003
f 61/127/1 56/23/1 48/22/1 55/128/1
f 66/129/1 68/130/1 69/131/1 67/132/1
f 62/133/1 66/129/1 67/132/1 63/134/1
f 51/135/1 59/136/1 54/137/1 47/138/1
f 59/136/1 61/127/1 55/128/1 54/137/1
f 46/139/1 52/140/1 58/141/1 50/142/1
f 61/143/8 59/144/8 67/145/8 69/146/8
f 52/140/1 53/147/1 60/148/1 58/141/1
f 60/149/9 57/60/9 65/59/9 68/150/9
f 53/147/1 49/49/1 57/55/1 60/148/1
f 56/5/8 61/143/8 69/146/8 64/6/8
f 68/130/1 65/64/1 64/63/1 69/131/1
f 58/151/9 60/149/9 68/150/9 66/152/9
f 59/144/8 51/153/8 63/154/8 67/145/8
f 50/155/9 58/151/9 66/152/9 62/156/9
