# Blender v2.75 (sub 0) OBJ File: 'cuadra1.blend'
# www.blender.org
mtllib cuadra1.mtl
o Cube.004
v -2.784248 2.356992 -0.261610
v -2.784248 2.520478 -0.261610
v -2.784248 2.356992 -0.407344
v -2.784248 2.520478 -0.407344
v -2.687249 2.356992 -0.261610
v -2.687249 2.520478 -0.261610
v -2.687249 2.356992 -0.407344
v -2.687249 2.520478 -0.407344
v -2.784248 2.356992 -0.466420
v -2.784248 2.520478 -0.466420
v -2.784248 2.356992 -0.612154
v -2.784248 2.520478 -0.612154
v -2.687249 2.356992 -0.466420
v -2.687249 2.520478 -0.466420
v -2.687249 2.356992 -0.612154
v -2.687249 2.520478 -0.612154
v -2.784248 2.356992 -0.685543
v -2.784248 2.520478 -0.685543
v -2.784248 2.356992 -0.831277
v -2.784248 2.520478 -0.831277
v -2.687249 2.356992 -0.685543
v -2.687249 2.520478 -0.685543
v -2.687249 2.356992 -0.831277
v -2.687249 2.520478 -0.831277
v -2.784248 2.356992 -0.909470
v -2.784248 2.520478 -0.909470
v -2.784248 2.356992 -1.055204
v -2.784248 2.520478 -1.055204
v -2.687249 2.356992 -0.909470
v -2.687249 2.520478 -0.909470
v -2.687249 2.356992 -1.055204
v -2.687249 2.520478 -1.055204
v -2.784248 2.356992 -1.121418
v -2.784248 2.520478 -1.121418
v -2.784248 2.356992 -1.267152
v -2.784248 2.520478 -1.267152
v -2.687249 2.356992 -1.121418
v -2.687249 2.520478 -1.121418
v -2.687249 2.356992 -1.267152
v -2.687249 2.520478 -1.267152
vn -1.000000 0.000000 0.000000
vn 0.000000 0.000000 -1.000000
vn 1.000000 0.000000 0.000000
vn 0.000000 0.000000 1.000000
vn 0.000000 -1.000000 0.000000
vn 0.000000 1.000000 0.000000
usemtl None
s off
f 2//1 4//1 3//1 1//1
f 4//2 8//2 7//2 3//2
f 8//3 6//3 5//3 7//3
f 6//4 2//4 1//4 5//4
f 1//5 3//5 7//5 5//5
f 6//6 8//6 4//6 2//6
f 10//1 12//1 11//1 9//1
f 12//2 16//2 15//2 11//2
f 16//3 14//3 13//3 15//3
f 14//4 10//4 9//4 13//4
f 9//5 11//5 15//5 13//5
f 14//6 16//6 12//6 10//6
f 18//1 20//1 19//1 17//1
f 20//2 24//2 23//2 19//2
f 24//3 22//3 21//3 23//3
f 22//4 18//4 17//4 21//4
f 17//5 19//5 23//5 21//5
f 22//6 24//6 20//6 18//6
f 26//1 28//1 27//1 25//1
f 28//2 32//2 31//2 27//2
f 32//3 30//3 29//3 31//3
f 30//4 26//4 25//4 29//4
f 25//5 27//5 31//5 29//5
f 30//6 32//6 28//6 26//6
f 34//1 36//1 35//1 33//1
f 36//2 40//2 39//2 35//2
f 40//3 38//3 37//3 39//3
f 38//4 34//4 33//4 37//4
f 33//5 35//5 39//5 37//5
f 38//6 40//6 36//6 34//6
o Cube.010
v 1.994651 0.008766 -1.955663
v 1.994651 0.008766 -0.249425
v 0.184492 0.008766 -0.249426
v 0.184493 0.008766 -1.955663
v 1.994651 2.805483 -1.955662
v 1.994650 2.805483 -0.249425
v 0.184492 2.805483 -0.249426
v 0.184493 2.805483 -1.955663
v 0.191183 0.026931 -1.955663
v 0.191183 0.026931 -0.249425
v -0.880016 0.026931 -0.249426
v -0.880015 0.026931 -1.955663
v 0.191183 1.585133 -1.955662
v 0.191183 1.585133 -0.249425
v -0.880016 1.585133 -0.249426
v -0.880016 1.585133 -1.955663
v 2.718931 0.025923 -1.946482
v 2.718931 0.025923 -0.966805
v 2.001136 0.025923 -0.966805
v 2.001136 0.025923 -1.946482
v 2.718932 2.115860 -1.946482
v 2.718931 2.115860 -0.966805
v 2.001136 2.115860 -0.966805
v 2.001136 2.115860 -1.946482
v 2.730942 0.031475 -0.990401
v 2.730942 0.031475 0.463743
v 1.897506 0.031475 0.463743
v 1.897506 0.031475 -0.990401
v 2.730942 1.114469 -0.990400
v 2.730942 1.114469 0.463744
v 1.897506 1.114469 0.463743
v 1.897506 1.114469 -0.990401
v -0.887368 0.022704 -1.950788
v -0.887368 0.022704 -1.330277
v -2.689321 0.022704 -1.330277
v -2.689321 0.022704 -1.950788
v -0.887368 1.987730 -1.950788
v -0.887369 1.987730 -1.330277
v -2.689321 1.987730 -1.330277
v -2.689321 1.987730 -1.950788
v -1.811904 0.028877 -1.301366
v -1.811904 0.028877 -0.249758
v -2.706805 0.028877 -0.249758
v -2.706805 0.028877 -1.301366
v -1.811903 2.562453 -1.301366
v -1.811904 2.562453 -0.249758
v -2.706806 2.562453 -0.249758
v -2.706805 2.562453 -1.301366
v -0.997275 0.041763 -0.232638
v -0.997275 0.041763 1.964263
v -2.720897 0.041763 1.964263
v -2.720896 0.041763 -0.232639
v -0.997274 1.132598 -0.232638
v -0.997275 1.132599 1.964264
v -2.720897 1.132599 1.964263
v -2.720896 1.132598 -0.232639
v 0.435014 0.035897 0.107902
v 0.435014 0.035898 1.950182
v -0.989393 0.035898 1.950182
v -0.989392 0.035897 0.107901
v 0.435015 2.431984 0.107902
v 0.435014 2.431984 1.950182
v -0.989393 2.431984 1.950182
v -0.989392 2.431984 0.107901
v 1.475635 0.036196 0.896478
v 1.475635 0.036196 1.958233
v 0.453717 0.036196 1.958233
v 0.453717 0.036196 0.896478
v 1.475636 1.021460 0.896479
v 1.475635 1.021460 1.958233
v 0.453717 1.021460 1.958233
v 0.453717 1.021460 0.896478
v 2.729104 0.023465 0.506068
v 2.729104 0.023465 1.960212
v 1.492487 0.023465 1.960212
v 1.492487 0.023465 0.506068
v 2.729104 1.683680 0.506068
v 2.729103 1.683681 1.960212
v 1.492487 1.683681 1.960211
v 1.492487 1.683680 0.506068
v 2.750038 -0.035697 -1.969928
v 2.750038 -0.035697 1.969929
v -2.750038 -0.035697 1.969928
v -2.750036 -0.035697 -1.969929
v 2.750039 0.035697 -1.969928
v 2.750036 0.035697 1.969930
v -2.750038 0.035697 1.969928
v -2.750037 0.035697 -1.969929
vt 0.538937 0.440947
vt 0.668042 0.440947
vt 0.668042 0.570029
vt 0.538937 0.570029
vt 0.531190 0.440947
vt 0.531190 0.570029
vt 0.402085 0.570029
vt 0.402085 0.440947
vt 0.394339 0.570029
vt 0.265233 0.570029
vt 0.265233 0.440947
vt 0.394338 0.440947
vt 0.003873 0.706856
vt 0.003873 0.577774
vt 0.132979 0.577774
vt 0.132979 0.706856
vt 0.406683 0.706856
vt 0.277577 0.706856
vt 0.277577 0.577774
vt 0.406683 0.577774
vt 0.140725 0.577774
vt 0.269831 0.577774
vt 0.269831 0.706856
vt 0.140725 0.706856
vt 0.801339 0.003873
vt 0.801339 0.132955
vt 0.724938 0.132955
vt 0.724938 0.003872
vt 0.801339 0.269782
vt 0.724938 0.269782
vt 0.724938 0.140700
vt 0.801339 0.140700
vt 0.821534 0.706856
vt 0.749602 0.706856
vt 0.749602 0.577774
vt 0.821534 0.577774
vt 0.237237 0.839283
vt 0.309169 0.839283
vt 0.309169 0.915670
vt 0.237237 0.915670
vt 0.171750 0.843683
vt 0.099818 0.843683
vt 0.099818 0.714601
vt 0.171750 0.714601
vt 0.414429 0.842649
vt 0.486360 0.842649
vt 0.486360 0.919036
vt 0.414429 0.919036
vt 0.969572 0.714601
vt 0.969572 0.788717
vt 0.918377 0.788717
vt 0.918377 0.714601
vt 0.985572 0.077988
vt 0.934377 0.077988
vt 0.934377 0.003872
vt 0.985572 0.003872
vt 0.809085 0.274281
vt 0.809085 0.177820
vt 0.883214 0.177820
vt 0.883214 0.274281
vt 0.621585 0.849575
vt 0.621585 0.946036
vt 0.570389 0.946036
vt 0.570389 0.849575
vt 0.897525 0.472058
vt 0.897525 0.568519
vt 0.823396 0.568519
vt 0.823396 0.472058
vt 0.099818 0.947889
vt 0.099818 0.851428
vt 0.151014 0.851428
vt 0.151014 0.947889
vt 0.833989 0.920540
vt 0.833989 0.810529
vt 0.893432 0.810529
vt 0.893432 0.920540
vt 0.926631 0.113883
vt 0.867188 0.113883
vt 0.867188 0.003873
vt 0.926631 0.003872
vt 0.799597 0.942367
vt 0.749602 0.942367
vt 0.749602 0.832357
vt 0.799597 0.832357
vt 0.287232 0.982847
vt 0.237237 0.982847
vt 0.237237 0.923415
vt 0.287232 0.923415
vt 0.229491 0.949294
vt 0.179496 0.949294
vt 0.179496 0.839283
vt 0.229491 0.839283
vt 0.464423 0.986213
vt 0.414429 0.986213
vt 0.414429 0.926781
vt 0.464423 0.926781
vt 0.901179 0.810529
vt 0.948131 0.810529
vt 0.948131 0.939026
vt 0.901179 0.939026
vt 0.937912 0.145784
vt 0.937913 0.274281
vt 0.890960 0.274281
vt 0.890960 0.145784
vt 0.952224 0.472058
vt 0.952224 0.562753
vt 0.905271 0.562753
vt 0.905271 0.472058
vt 0.651144 0.577774
vt 0.741856 0.577774
vt 0.741856 0.706271
vt 0.651144 0.706271
vt 0.913667 0.668470
vt 0.913667 0.577774
vt 0.960619 0.577774
vt 0.960619 0.668470
vt 0.706311 0.426608
vt 0.615599 0.426608
vt 0.615599 0.298111
vt 0.706311 0.298111
vt 0.562643 0.849575
vt 0.562643 0.929133
vt 0.498816 0.929133
vt 0.498816 0.849575
vt 0.404489 0.924815
vt 0.340662 0.924815
vt 0.340662 0.845258
vt 0.404489 0.845258
vt 0.259068 0.714601
vt 0.259068 0.831538
vt 0.179496 0.831538
vt 0.179496 0.714601
vt 0.498816 0.841830
vt 0.498816 0.724893
vt 0.562643 0.724893
vt 0.562643 0.841830
vt 0.346386 0.714601
vt 0.346386 0.831538
vt 0.266815 0.831538
vt 0.266815 0.714601
vt 0.570389 0.841830
vt 0.570389 0.724893
vt 0.634216 0.724893
vt 0.634216 0.841830
vt 0.126807 0.403827
vt 0.126807 0.570029
vt 0.003873 0.570029
vt 0.003873 0.403827
vt 0.257487 0.570029
vt 0.134553 0.570029
vt 0.134553 0.403827
vt 0.257487 0.403827
vt 0.859441 0.170075
vt 0.809085 0.170075
vt 0.809085 0.003872
vt 0.859441 0.003872
vt 0.354133 0.714601
vt 0.404489 0.714601
vt 0.404489 0.837512
vt 0.354133 0.837513
vt 0.873753 0.464313
vt 0.823396 0.464313
vt 0.823396 0.298111
vt 0.873753 0.298111
vt 0.931855 0.421022
vt 0.881499 0.421022
vt 0.881499 0.298111
vt 0.931855 0.298111
vt 0.615599 0.143247
vt 0.615599 0.003872
vt 0.717191 0.003872
vt 0.717191 0.143247
vt 0.615599 0.150992
vt 0.717191 0.150992
vt 0.717191 0.290366
vt 0.615599 0.290366
vt 0.525040 0.717148
vt 0.414429 0.717148
vt 0.414429 0.577774
vt 0.525040 0.577774
vt 0.675789 0.551538
vt 0.675789 0.440947
vt 0.777381 0.440947
vt 0.777381 0.551538
vt 0.643397 0.717148
vt 0.532786 0.717148
vt 0.532786 0.577774
vt 0.643397 0.577774
vt 0.815650 0.298111
vt 0.815650 0.408702
vt 0.714057 0.408702
vt 0.714057 0.298111
vt 0.724030 0.831772
vt 0.724030 0.912097
vt 0.651144 0.912097
vt 0.651144 0.831772
vt 0.076759 0.912682
vt 0.003873 0.912682
vt 0.003873 0.832357
vt 0.076759 0.832357
vt 0.985085 0.378436
vt 0.939602 0.378436
vt 0.939602 0.298111
vt 0.985085 0.298111
vt 0.003873 0.920427
vt 0.049356 0.920427
vt 0.049356 0.993299
vt 0.003873 0.993299
vt 0.945659 0.145784
vt 0.991142 0.145784
vt 0.991142 0.226109
vt 0.945659 0.226109
vt 0.651144 0.919841
vt 0.696627 0.919842
vt 0.696627 0.992714
vt 0.651144 0.992714
vt 0.739343 0.714016
vt 0.739343 0.824027
vt 0.651144 0.824027
vt 0.651144 0.714016
vt 0.092072 0.824612
vt 0.003873 0.824612
vt 0.003873 0.714601
vt 0.092072 0.714601
vt 0.826243 0.824612
vt 0.749602 0.824612
vt 0.749602 0.714601
vt 0.826243 0.714601
vt 0.829280 0.577774
vt 0.905921 0.577774
vt 0.905921 0.665957
vt 0.829280 0.665957
vt 0.491070 0.834904
vt 0.414429 0.834904
vt 0.414429 0.724893
vt 0.491070 0.724893
vt 0.910630 0.802784
vt 0.833989 0.802784
vt 0.833989 0.714601
vt 0.910630 0.714601
vt 0.003873 0.003873
vt 0.301990 0.003872
vt 0.301990 0.396082
vt 0.003873 0.396082
vt 0.309736 0.396082
vt 0.309736 0.003872
vt 0.607852 0.003872
vt 0.607852 0.396082
vt 0.974043 0.684243
vt 0.970747 0.684243
vt 0.970747 0.386181
vt 0.974042 0.386181
vt 0.996127 0.690320
vt 0.992831 0.690320
vt 0.992831 0.298111
vt 0.996127 0.298111
vt 0.996127 0.996127
vt 0.992831 0.996127
vt 0.992831 0.698065
vt 0.996127 0.698065
vt 0.981789 0.386181
vt 0.985085 0.386181
vt 0.985085 0.778390
vt 0.981789 0.778390
vn 0.000000 -1.000000 0.000000
vn 0.000000 1.000000 -0.000000
vn 1.000000 -0.000000 0.000000
vn -0.000000 -0.000000 1.000000
vn -1.000000 -0.000000 -0.000000
vn 0.000000 0.000000 -1.000000
usemtl Material
s off
f 41/1/7 42/2/7 43/3/7 44/4/7
f 45/5/8 48/6/8 47/7/8 46/8/8
f 41/9/9 45/10/9 46/11/9 42/12/9
f 42/13/10 46/14/10 47/15/10 43/16/10
f 43/17/11 47/18/11 48/19/11 44/20/11
f 45/21/12 41/22/12 44/23/12 48/24/12
f 49/25/7 50/26/7 51/27/7 52/28/7
f 53/29/8 56/30/8 55/31/8 54/32/8
f 49/33/9 53/34/9 54/35/9 50/36/9
f 50/37/10 54/38/10 55/39/10 51/40/10
f 51/41/11 55/42/11 56/43/11 52/44/11
f 53/45/12 49/46/12 52/47/12 56/48/12
f 57/49/7 58/50/7 59/51/7 60/52/7
f 61/53/8 64/54/8 63/55/8 62/56/8
f 57/57/9 61/58/9 62/59/9 58/60/9
f 58/61/10 62/62/10 63/63/10 59/64/10
f 59/65/11 63/66/11 64/67/11 60/68/11
f 61/69/12 57/70/12 60/71/12 64/72/12
f 65/73/7 66/74/7 67/75/7 68/76/7
f 69/77/8 72/78/8 71/79/8 70/80/8
f 65/81/9 69/82/9 70/83/9 66/84/9
f 66/85/10 70/86/10 71/87/10 67/88/10
f 67/89/11 71/90/11 72/91/11 68/92/11
f 69/93/12 65/94/12 68/95/12 72/96/12
f 73/97/7 74/98/7 75/99/7 76/100/7
f 77/101/8 80/102/8 79/103/8 78/104/8
f 73/105/9 77/106/9 78/107/9 74/108/9
f 74/109/10 78/110/10 79/111/10 75/112/10
f 75/113/11 79/114/11 80/115/11 76/116/11
f 77/117/12 73/118/12 76/119/12 80/120/12
f 81/121/7 82/122/7 83/123/7 84/124/7
f 85/125/8 88/126/8 87/127/8 86/128/8
f 81/129/9 85/130/9 86/131/9 82/132/9
f 82/133/10 86/134/10 87/135/10 83/136/10
f 83/137/11 87/138/11 88/139/11 84/140/11
f 85/141/12 81/142/12 84/143/12 88/144/12
f 89/145/7 90/146/7 91/147/7 92/148/7
f 93/149/8 96/150/8 95/151/8 94/152/8
f 89/153/9 93/154/9 94/155/9 90/156/9
f 90/157/10 94/158/10 95/159/10 91/160/10
f 91/161/11 95/162/11 96/163/11 92/164/11
f 93/165/12 89/166/12 92/167/12 96/168/12
f 97/169/7 98/170/7 99/171/7 100/172/7
f 101/173/8 104/174/8 103/175/8 102/176/8
f 97/177/9 101/178/9 102/179/9 98/180/9
f 98/181/10 102/182/10 103/183/10 99/184/10
f 99/185/11 103/186/11 104/187/11 100/188/11
f 101/189/12 97/190/12 100/191/12 104/192/12
f 105/193/7 106/194/7 107/195/7 108/196/7
f 109/197/8 112/198/8 111/199/8 110/200/8
f 105/201/9 109/202/9 110/203/9 106/204/9
f 106/205/10 110/206/10 111/207/10 107/208/10
f 107/209/11 111/210/11 112/211/11 108/212/11
f 109/213/12 105/214/12 108/215/12 112/216/12
f 113/217/7 114/218/7 115/219/7 116/220/7
f 117/221/8 120/222/8 119/223/8 118/224/8
f 113/225/9 117/226/9 118/227/9 114/228/9
f 114/229/10 118/230/10 119/231/10 115/232/10
f 115/233/11 119/234/11 120/235/11 116/236/11
f 117/237/12 113/238/12 116/239/12 120/240/12
f 121/241/7 122/242/7 123/243/7 124/244/7
f 125/245/8 128/246/8 127/247/8 126/248/8
f 121/249/9 125/250/9 126/251/9 122/252/9
f 122/253/10 126/254/10 127/255/10 123/256/10
f 123/257/11 127/258/11 128/259/11 124/260/11
f 125/261/12 121/262/12 124/263/12 128/264/12
