# Blender v2.75 (sub 0) OBJ File: 'cuadra2.blend'
# www.blender.org
mtllib cuadra2.mtl
o Cube.003
v 4.450423 0.560111 -1.323099
v 4.450423 0.560111 -2.699302
v 3.940730 0.694502 -2.699302
v 3.940730 0.694502 -1.323098
v 4.461270 0.601248 -1.323099
v 4.461270 0.601248 -2.699302
v 3.951576 0.735639 -2.699302
v 3.951576 0.735639 -1.323098
v 0.488314 1.025691 -2.837531
v 0.488314 0.778810 -3.448900
v -2.060187 0.778810 -3.448900
v -2.060186 1.025691 -2.837531
v 0.488314 0.988273 -2.822421
v 0.488313 0.741392 -3.433790
v -2.060187 0.741392 -3.433790
v -2.060187 0.988273 -2.822421
v -1.623072 2.279021 2.876722
v -1.623072 2.279021 0.819347
v -3.955147 2.279021 0.819348
v -3.955147 2.279021 2.876723
v -1.623072 -0.013377 2.876722
v -1.623073 -0.013377 0.819347
v -3.955147 -0.013377 0.819348
v -3.955147 -0.013377 2.876722
v -2.368664 3.945714 0.752258
v -2.368664 3.945714 -2.851619
v -3.951708 3.945714 -2.851619
v -3.951707 3.945714 0.752259
v -2.368663 0.048731 0.752257
v -3.951708 0.048732 0.752258
v -2.368664 0.048731 -2.851620
v -3.018345 3.556313 -2.851619
v -3.076797 3.467778 -2.851619
v -3.951708 2.427055 0.524440
v -3.951708 1.824024 0.524440
v -3.951708 3.477325 -2.656752
v -3.951708 3.477325 -2.548555
v -3.951708 3.542415 -2.548555
v -3.951708 3.542415 -2.159385
v -3.951708 3.477325 -2.159385
v -3.951708 3.477325 -2.099077
v -3.951708 3.477325 -1.772321
v -3.951708 3.477325 -1.688928
v -3.951708 3.542415 -1.688928
v -3.951708 3.542415 -1.299757
v -3.951708 3.477325 -1.299757
v -3.951708 3.477325 -1.214646
v -3.951708 3.477325 -0.924741
v -3.951708 3.477325 -0.818871
v -3.951708 3.542415 -0.818871
v -3.951708 3.542415 -0.429700
v -3.951708 3.477325 -0.429700
v -3.951708 3.477325 -0.367066
v -3.951708 3.477325 -0.033235
v -3.951708 3.477325 0.065065
v -3.951708 3.542415 0.065066
v -3.951707 3.542415 0.454237
v -3.951707 3.477325 0.454237
v -3.951707 3.477325 0.524440
v -3.951707 2.874294 0.524440
v -3.951708 0.048732 -2.851618
v -3.076797 1.869383 -2.851619
v -2.564930 1.869382 -2.851620
v -2.564930 2.447926 -2.851620
v -2.564930 2.889235 -2.851620
v -3.809407 1.869382 -2.851619
v -3.297540 1.869382 -2.851619
v -3.357123 3.467778 -2.851619
v -3.357123 3.556313 -2.851619
v -3.746295 3.556313 -2.851619
v -3.746295 3.467778 -2.851618
v -3.809407 3.467778 -2.851618
v -2.564930 3.467778 -2.851620
v -2.629174 3.467778 -2.851620
v -2.629174 3.556313 -2.851619
v -3.018345 3.467778 -2.851619
v -3.951708 2.874294 -0.033235
v -3.951708 2.874294 -0.367066
v -3.951708 2.874294 -0.924741
v -3.951708 2.874294 -1.214646
v -3.951708 2.874294 -1.772321
v -3.951708 2.874294 -2.099077
v -3.951708 2.874294 -2.656752
v -3.951708 2.427055 -2.656752
v -3.951708 2.427055 -2.548556
v -3.951708 2.529881 -2.548555
v -3.951708 2.529881 -2.159385
v -3.951708 2.427055 -2.159385
v -3.951708 2.427055 -2.099077
v -3.951708 2.427055 -1.772321
v -3.951708 2.427055 -1.688928
v -3.951708 2.529881 -1.688928
v -3.951708 2.529881 -1.299757
v -3.951708 2.427055 -1.299757
v -3.951708 2.427055 -1.214646
v -3.951708 2.427055 -0.924741
v -3.951708 2.427055 -0.818871
v -3.951708 2.529881 -0.818871
v -3.951708 2.529881 -0.429700
v -3.951708 2.427055 -0.429700
v -3.951708 2.427055 -0.367066
v -3.951708 2.427055 -0.033235
v -3.951708 2.427055 0.065065
v -3.951708 2.529881 0.065066
v -3.951708 2.529881 0.454237
v -3.951708 2.427055 0.454237
v -3.960850 2.427055 0.524440
v -3.960850 2.093652 0.524440
v -4.270857 2.093652 0.524440
v -4.270857 1.824024 0.524440
v -3.951708 1.824024 -0.033235
v -3.951708 1.824024 -0.367066
v -3.951708 1.824024 -0.924741
v -3.951708 1.824024 -1.214646
v -3.951708 1.824024 -1.772321
v -3.951708 1.824024 -2.099077
v -3.951708 1.824024 -2.656752
v -3.960850 3.477325 -2.656752
v -3.960850 3.477325 -2.548555
v -3.960850 3.477325 -2.099077
v -3.960850 3.477325 -2.159385
v -3.960850 3.477325 -1.772321
v -3.960850 3.477325 -1.688928
v -3.960850 3.477325 -1.214646
v -3.960850 3.477325 -1.299757
v -3.960850 3.477325 -0.924741
v -3.960850 3.477325 -0.818871
v -3.960850 3.477325 -0.367066
v -3.960850 3.477325 -0.429700
v -3.960850 3.477325 -0.033235
v -3.960850 3.477325 0.065065
v -3.960850 3.477325 0.524440
v -3.960850 3.477325 0.454237
v -3.960850 3.106186 0.524440
v -4.270857 3.106187 0.524440
v -4.270857 2.874294 0.524440
v -3.297540 2.447926 -2.851619
v -3.357124 2.447926 -2.851619
v -3.357124 2.524570 -2.851619
v -3.746295 2.524570 -2.851618
v -3.746295 2.447926 -2.851619
v -3.809407 2.447926 -2.851619
v -3.809407 2.889235 -2.851619
v -3.297540 2.889235 -2.851619
v -3.076797 2.889235 -2.851619
v -2.629174 2.447926 -2.851620
v -2.629174 2.524570 -2.851620
v -3.018345 2.524570 -2.851619
v -3.018345 2.447926 -2.851619
v -3.076797 2.447926 -2.851619
v -3.076797 1.869383 -3.198118
v -2.564930 1.869382 -3.198119
v -2.564930 2.088341 -3.198119
v -2.564930 2.088341 -2.862885
v -2.564930 2.447926 -2.862885
v -3.809407 1.869382 -3.198118
v -3.297540 1.869382 -3.198119
v -3.297539 3.467778 -2.851619
v -3.357123 3.467778 -2.851619
v -3.746295 3.467778 -2.851618
v -2.564930 3.467778 -2.862885
v -2.629174 3.467778 -2.862885
v -3.076797 3.467778 -2.862885
v -3.018345 3.467778 -2.862885
v -3.960850 2.427055 0.454237
v -4.270857 2.874294 -0.033235
v -4.270857 3.106186 -0.033235
v -3.960850 3.106186 -0.033235
v -3.960850 3.106186 -0.367066
v -4.270857 3.106186 -0.367066
v -4.270857 2.874294 -0.367066
v -4.270857 2.874294 -0.924741
v -4.270857 3.106186 -0.924741
v -3.960850 3.106186 -0.924741
v -3.960850 3.106186 -1.214646
v -4.270857 3.106186 -1.214646
v -4.270857 2.874294 -1.214646
v -4.270857 2.874294 -1.772321
v -4.270857 3.106186 -1.772321
v -3.960850 3.106186 -1.772321
v -3.960850 3.106186 -2.099077
v -4.270857 3.106186 -2.099077
v -4.270857 2.874294 -2.099077
v -4.270857 2.874294 -2.656751
v -3.960850 2.427055 -2.656752
v -3.960850 2.427055 -2.548555
v -3.960850 2.427055 -2.099077
v -3.960850 2.427055 -2.159385
v -3.960850 2.427055 -1.772321
v -3.960850 2.427055 -1.688928
v -3.960850 2.427055 -1.214646
v -3.960850 2.427055 -1.299757
v -3.960850 2.427055 -0.924741
v -3.960850 2.427055 -0.818871
v -3.960850 2.427055 -0.367066
v -3.960850 2.427055 -0.429700
v -3.960850 2.427055 -0.033235
v -3.960850 2.427055 0.065065
v -4.270857 2.093652 -0.033235
v -4.270857 1.824024 -0.033235
v -3.960850 2.093652 -0.033235
v -3.960850 2.093652 -0.367066
v -4.270857 2.093652 -0.367066
v -4.270857 1.824024 -0.367066
v -4.270857 1.824024 -0.924741
v -4.270857 2.093652 -0.924741
v -3.960850 2.093652 -0.924741
v -3.960850 2.093652 -1.214646
v -4.270857 2.093652 -1.214646
v -4.270857 1.824024 -1.214646
v -4.270857 1.824024 -1.772321
v -4.270857 2.093652 -1.772321
v -3.960850 2.093652 -1.772321
v -3.960850 2.093652 -2.099077
v -4.270857 2.093652 -2.099077
v -4.270857 1.824024 -2.099077
v -4.270857 1.824024 -2.656751
v -4.270857 2.093652 -2.656751
v -3.960850 2.093652 -2.656752
v -4.270857 3.106186 -2.656751
v -3.960850 3.106186 -2.656752
v -3.076797 2.447926 -2.862885
v -3.076797 2.088341 -2.862885
v -3.076797 2.088341 -3.198118
v -3.297540 2.088341 -3.198119
v -3.297540 2.088341 -2.862885
v -3.297540 2.447926 -2.862885
v -3.357124 2.447926 -2.862885
v -3.809407 2.447926 -2.862885
v -3.746295 2.447926 -2.862885
v -3.809407 2.889235 -3.198118
v -3.297540 2.889235 -3.198118
v -3.076797 2.889235 -3.198118
v -2.564930 2.889235 -3.198119
v -2.629174 2.447926 -2.862885
v -3.018345 2.447926 -2.862885
v -2.564930 3.120084 -3.198119
v -2.564930 3.120084 -2.862885
v -3.809407 2.088341 -2.862885
v -3.809407 2.088341 -3.198118
v -3.297539 3.467778 -2.862885
v -3.357123 3.467778 -2.862885
v -3.809407 3.467778 -2.862885
v -3.746295 3.467778 -2.862885
v -3.076797 3.120084 -2.862885
v -3.076797 3.120084 -3.198118
v -3.809407 3.120084 -2.862885
v -3.809407 3.120084 -3.198118
v -3.297540 3.120084 -3.198118
v -3.297540 3.120084 -2.862885
v -3.746295 2.088341 -2.862885
v -3.746295 2.088341 -3.107320
v -3.357124 2.088341 -3.107320
v -3.357123 2.088341 -2.862885
v -3.746295 1.926184 -2.835402
v -3.746295 1.926184 -3.107320
v -3.746295 2.524570 -2.835402
v -3.357124 2.524570 -2.835402
v -3.357124 1.926184 -3.107320
v -3.357123 1.926184 -2.835402
v -3.018345 2.088341 -2.862885
v -3.018345 2.088341 -3.107320
v -2.629174 2.088341 -3.107320
v -2.629174 2.088341 -2.862885
v -3.018345 1.926184 -2.835402
v -3.018345 1.926184 -3.107320
v -3.018345 2.524570 -2.835402
v -2.629174 2.524570 -2.835402
v -2.629174 1.926184 -3.107320
v -2.629174 1.926184 -2.835402
v -3.746295 3.120084 -2.862885
v -3.746295 3.120084 -3.107320
v -3.357123 3.120084 -3.107320
v -3.357123 3.120084 -2.862885
v -3.746295 2.957927 -2.835402
v -3.746295 2.957927 -3.107320
v -3.746295 3.556313 -2.835402
v -3.357123 3.556313 -2.835402
v -3.357123 2.957927 -3.107320
v -3.357123 2.957927 -2.835402
v -3.018344 3.120084 -2.862885
v -3.018345 3.120084 -3.107320
v -2.629174 3.120084 -3.107320
v -2.629174 3.120084 -2.862885
v -3.018344 2.957927 -2.835402
v -3.018345 2.957927 -3.107320
v -3.018345 3.556313 -2.835402
v -2.629174 3.556313 -2.835402
v -2.629174 2.957927 -3.107320
v -2.629174 2.957927 -2.835402
v -3.960850 2.093652 0.454237
v -4.205285 2.093652 0.454237
v -4.205285 2.093652 0.065066
v -3.960850 2.093652 0.065065
v -3.933367 1.931496 0.454237
v -4.205285 1.931496 0.454237
v -3.933367 2.529881 0.454237
v -3.933367 2.529881 0.065066
v -4.205285 1.931496 0.065066
v -3.933367 1.931496 0.065065
v -3.960850 2.093652 -0.429700
v -4.205285 2.093652 -0.429700
v -4.205285 2.093652 -0.818871
v -3.960850 2.093652 -0.818871
v -3.933367 1.931496 -0.429700
v -4.205285 1.931496 -0.429700
v -3.933367 2.529881 -0.429700
v -3.933367 2.529881 -0.818871
v -4.205285 1.931496 -0.818871
v -3.933367 1.931496 -0.818872
v -3.960850 2.093652 -1.299757
v -4.205285 2.093652 -1.299757
v -4.205285 2.093652 -1.688928
v -3.960850 2.093652 -1.688928
v -3.933367 1.931495 -1.299757
v -4.205285 1.931496 -1.299757
v -3.933367 2.529881 -1.299757
v -3.933367 2.529881 -1.688928
v -4.205285 1.931496 -1.688928
v -3.933367 1.931495 -1.688928
v -3.960850 2.093652 -2.159385
v -4.205285 2.093652 -2.159384
v -4.205285 2.093652 -2.548555
v -3.960850 2.093652 -2.548556
v -3.933367 1.931495 -2.159385
v -4.205285 1.931495 -2.159384
v -3.933367 2.529881 -2.159385
v -3.933367 2.529881 -2.548555
v -4.205285 1.931495 -2.548555
v -3.933367 1.931495 -2.548556
v -3.960850 3.106186 0.454237
v -4.205285 3.106186 0.454237
v -4.205285 3.106186 0.065066
v -3.960850 3.106186 0.065065
v -3.933367 2.944030 0.454237
v -4.205285 2.944030 0.454237
v -3.933367 3.542415 0.454237
v -3.933367 3.542415 0.065066
v -4.205285 2.944030 0.065066
v -3.933367 2.944030 0.065065
v -3.960850 3.106186 -0.429700
v -4.205285 3.106186 -0.429700
v -4.205285 3.106186 -0.818871
v -3.960850 3.106186 -0.818871
v -3.933367 2.944030 -0.429700
v -4.205285 2.944030 -0.429700
v -3.933367 3.542415 -0.429700
v -3.933367 3.542415 -0.818871
v -4.205285 2.944030 -0.818871
v -3.933367 2.944030 -0.818872
v -3.960850 3.106186 -1.299757
v -4.205285 3.106186 -1.299757
v -4.205285 3.106186 -1.688928
v -3.960850 3.106186 -1.688928
v -3.933367 2.944030 -1.299757
v -4.205285 2.944030 -1.299757
v -3.933367 3.542415 -1.299757
v -3.933367 3.542415 -1.688928
v -4.205285 2.944030 -1.688928
v -3.933367 2.944030 -1.688928
v -3.960850 3.106186 -2.159385
v -4.205285 3.106186 -2.159384
v -4.205285 3.106186 -2.548555
v -3.960850 3.106186 -2.548556
v -3.933367 2.944030 -2.159385
v -4.205285 2.944030 -2.159384
v -3.933367 3.542415 -2.159385
v -3.933367 3.542415 -2.548555
v -4.205285 2.944030 -2.548555
v -3.933367 2.944030 -2.548556
v 0.763483 2.402727 0.162342
v 0.763483 2.402727 -2.875016
v -2.335356 2.402727 -2.875016
v -2.335355 2.402727 0.162343
v 0.763483 0.036828 0.162341
v 0.763481 0.036828 -2.875018
v -2.335356 0.036828 -2.875016
v -2.335355 0.036828 0.162342
v 2.427613 1.580770 -1.293929
v 2.427613 1.580770 -2.899133
v 0.803338 1.580770 -2.899133
v 0.803339 1.580770 -1.293928
v 2.427613 0.048268 -1.293929
v 2.427612 0.048268 -2.899134
v 0.803338 0.048268 -2.899133
v 0.803339 0.048268 -1.293929
v 3.978492 2.258044 -1.189746
v 3.978492 2.258044 -2.922312
v 2.466686 2.258044 -2.922312
v 2.466686 2.258044 -1.189746
v 3.978493 0.039752 -1.189747
v 3.978492 0.039752 -2.922313
v 2.466686 0.039752 -2.922312
v 2.466686 0.039752 -1.189746
v 4.262496 2.203516 -0.203139
v 4.262496 2.203516 0.285746
v 3.902560 2.203516 0.285746
v 3.902560 2.203516 0.214250
v 4.155094 2.203516 0.214250
v 4.155094 2.203516 -0.147507
v 3.902560 2.203516 -0.147507
v 3.902560 2.203516 -0.203140
v 4.262497 1.936058 -0.203139
v 3.902560 1.936058 -0.203139
v 4.262496 1.936058 0.285746
v 3.902560 1.936058 0.285746
v 3.902560 1.960220 -0.147507
v 3.902560 1.960220 0.214250
v 4.267298 2.203516 -0.890507
v 4.267298 2.203516 -0.401622
v 3.907361 2.203516 -0.401622
v 3.907361 2.203516 -0.463833
v 4.155094 2.203516 -0.463833
v 4.155094 2.203516 -0.825591
v 3.907361 2.203516 -0.825591
v 3.907361 2.203516 -0.890507
v 4.267298 1.936058 -0.890507
v 3.907361 1.936058 -0.890507
v 4.267298 1.936058 -0.401622
v 3.907361 1.936058 -0.401622
v 3.907361 1.960220 -0.825590
v 3.907361 1.960220 -0.463833
v 4.267298 3.101196 -0.890507
v 4.267298 3.101196 -0.401622
v 3.907361 3.101196 -0.401622
v 3.907361 3.101196 -0.463833
v 4.155094 3.101196 -0.463833
v 4.155094 3.101196 -0.825591
v 3.907361 3.101196 -0.825591
v 3.907361 3.101196 -0.890508
v 4.267298 2.833738 -0.890507
v 3.907361 2.833738 -0.890507
v 4.267298 2.833738 -0.401622
v 3.907361 2.833738 -0.401622
v 3.907361 2.896620 -0.825590
v 3.907361 2.896620 -0.463833
v 4.262496 3.101196 -0.203139
v 4.262496 3.101196 0.285746
v 3.902560 3.101196 0.285746
v 3.902560 3.101196 0.214250
v 4.155094 3.101196 0.214250
v 4.155094 3.101196 -0.147507
v 3.902560 3.101196 -0.147507
v 3.902560 3.101196 -0.203140
v 4.262497 2.833738 -0.203139
v 3.902560 2.833738 -0.203139
v 4.262496 2.833738 0.285746
v 3.902560 2.833738 0.285746
v 3.902560 2.896619 -0.147507
v 3.902560 2.896619 0.214250
v 3.901080 3.741834 -1.129413
v 3.901080 3.741834 0.556555
v 0.965640 3.741834 0.556554
v 0.965641 3.741834 -1.129413
v 3.901081 0.011361 -1.129412
v 0.965640 0.011361 -1.129413
v 3.901079 0.011361 0.556555
v 0.965640 0.011361 0.556554
v 4.155093 1.960220 -0.825591
v 4.155094 1.960220 -0.463833
v 4.155093 1.960220 -0.147507
v 4.155094 1.960220 0.214250
v 4.155093 2.896619 -0.147507
v 4.155094 2.896619 0.214250
v 4.155093 2.896620 -0.825591
v 4.155094 2.896620 -0.463833
v 0.022427 3.174016 0.341665
v 0.022427 3.174016 2.884349
v -1.595568 3.174016 2.884349
v -1.595568 3.174016 0.341664
v 0.022428 -0.017687 0.341665
v 0.022427 -0.017687 2.884350
v -1.595568 -0.017687 2.884349
v -1.595568 -0.017687 0.341665
v 1.628014 1.620429 1.739098
v 1.628014 1.620429 2.875797
v 0.066935 1.620429 2.875797
v 0.066935 1.620429 1.739097
v 1.628015 0.005493 1.739098
v 1.628014 0.005493 2.875798
v 0.066935 0.005493 2.875797
v 0.066935 0.005493 1.739097
v 3.960683 2.392678 0.639455
v 3.960683 2.392678 2.913909
v 1.658022 2.392678 2.913909
v 1.658022 2.392678 0.639455
v 3.960683 0.010575 0.639456
v 3.960682 0.010575 2.913910
v 1.658021 0.010575 2.913909
v 1.658022 0.010575 0.639455
vt 0.273299 0.578540
vt 0.234604 0.578499
vt 0.234604 0.641770
vt 0.273299 0.641811
vt 0.420120 0.685631
vt 0.420120 0.622358
vt 0.381431 0.622382
vt 0.381431 0.685655
vt 0.429744 0.606693
vt 0.429744 0.669966
vt 0.431338 0.669966
vt 0.431338 0.606693
vt 0.128513 0.633031
vt 0.128513 0.671905
vt 0.130190 0.671301
vt 0.130190 0.632427
vt 0.424471 0.606693
vt 0.424471 0.669966
vt 0.426060 0.669966
vt 0.426060 0.606693
vt 0.284852 0.683102
vt 0.284852 0.644228
vt 0.283175 0.643624
vt 0.283175 0.682499
vt 0.958027 0.213287
vt 0.986288 0.213306
vt 0.986288 0.020646
vt 0.958027 0.020628
vt 0.124829 0.432427
vt 0.124829 0.239769
vt 0.096536 0.239800
vt 0.096536 0.432458
vt 0.130099 0.675775
vt 0.128513 0.675574
vt 0.128513 0.705232
vt 0.130099 0.705433
vt 0.129958 0.436098
vt 0.128513 0.436098
vt 0.128513 0.628757
vt 0.129958 0.628757
vt 0.123238 0.465987
vt 0.124825 0.465786
vt 0.124825 0.436128
vt 0.123238 0.436329
vt 0.128513 0.432428
vt 0.129960 0.432428
vt 0.129960 0.239769
vt 0.128513 0.239769
vt 0.735044 0.225192
vt 0.640093 0.225193
vt 0.640093 0.401491
vt 0.735044 0.401490
vt 0.135971 0.578499
vt 0.135971 0.754796
vt 0.230920 0.754799
vt 0.230920 0.578502
vt 0.090019 0.882677
vt 0.001842 0.882677
vt 0.001842 0.977269
vt 0.090019 0.977269
vt 0.377748 0.622358
vt 0.289564 0.622358
vt 0.289564 0.798656
vt 0.377748 0.798656
vt 0.619624 0.878608
vt 0.531440 0.878608
vt 0.531440 0.973200
vt 0.619624 0.973200
vt 0.721583 0.581459
vt 0.809764 0.581459
vt 0.809764 0.405160
vt 0.721583 0.405160
vt 0.556881 0.167529
vt 0.556881 0.001836
vt 0.436751 0.001835
vt 0.436751 0.167528
vt 0.560565 0.001835
vt 0.560565 0.151170
vt 0.680695 0.151170
vt 0.680695 0.001835
vt 0.285868 0.409135
vt 0.135971 0.409135
vt 0.135971 0.574829
vt 0.285868 0.574829
vt 0.289564 0.618689
vt 0.409694 0.618685
vt 0.409694 0.452996
vt 0.289564 0.452999
vt 0.285880 0.239770
vt 0.135971 0.239771
vt 0.135971 0.405465
vt 0.285881 0.405465
vt 0.515716 0.930542
vt 0.515716 0.929851
vt 0.502891 0.929851
vt 0.502891 0.906415
vt 0.492519 0.906415
vt 0.492519 0.930542
vt 0.520384 0.222180
vt 0.521077 0.222180
vt 0.521077 0.217206
vt 0.520384 0.217206
vt 0.583144 0.220396
vt 0.582451 0.220396
vt 0.582451 0.223169
vt 0.583144 0.223169
vt 0.550503 0.221040
vt 0.551197 0.221040
vt 0.551197 0.217206
vt 0.550503 0.217206
vt 0.546126 0.221119
vt 0.546819 0.221119
vt 0.546819 0.217206
vt 0.546126 0.217206
vt 0.529832 0.217206
vt 0.529138 0.217206
vt 0.529138 0.222073
vt 0.529832 0.222073
vt 0.573696 0.223276
vt 0.574390 0.223276
vt 0.574390 0.220396
vt 0.573696 0.220396
vt 0.100914 0.473737
vt 0.101607 0.473737
vt 0.101607 0.469218
vt 0.100914 0.469218
vt 0.561258 0.220396
vt 0.560565 0.220396
vt 0.560565 0.223624
vt 0.561258 0.223624
vt 0.370205 0.910568
vt 0.370205 0.911259
vt 0.384481 0.911259
vt 0.384481 0.934694
vt 0.393401 0.934694
vt 0.393401 0.910568
vt 0.536532 0.209894
vt 0.552523 0.209894
vt 0.552523 0.171199
vt 0.536532 0.171198
vt 0.348589 0.960533
vt 0.364581 0.960533
vt 0.364581 0.952143
vt 0.349109 0.952143
vt 0.349109 0.938364
vt 0.348589 0.938364
vt 0.413377 0.491692
vt 0.429368 0.491692
vt 0.429368 0.452996
vt 0.413377 0.452996
vt 0.000000 0.000000
vt 0.533515 0.222062
vt 0.534035 0.222062
vt 0.534035 0.217206
vt 0.533515 0.217206
vt 0.432532 0.542146
vt 0.433052 0.542146
vt 0.433052 0.537727
vt 0.432532 0.537727
vt 0.565636 0.220396
vt 0.564942 0.220396
vt 0.564942 0.223624
vt 0.565636 0.223624
vt 0.258822 0.645481
vt 0.234604 0.645482
vt 0.234604 0.671121
vt 0.258822 0.671120
vt 0.285703 0.754338
vt 0.285703 0.730211
vt 0.276783 0.730211
vt 0.276783 0.753647
vt 0.262506 0.753647
vt 0.262506 0.754338
vt 0.212929 0.929212
vt 0.212929 0.928521
vt 0.198653 0.928521
vt 0.198653 0.905085
vt 0.189732 0.905085
vt 0.189732 0.929212
vt 0.258822 0.704100
vt 0.234604 0.704100
vt 0.234604 0.729740
vt 0.258822 0.729739
vt 0.922021 0.375307
vt 0.922021 0.351180
vt 0.913100 0.351180
vt 0.913100 0.374615
vt 0.898823 0.374615
vt 0.898823 0.375307
vt 0.366521 0.934694
vt 0.366521 0.934003
vt 0.352245 0.934003
vt 0.352245 0.910568
vt 0.343324 0.910568
vt 0.343324 0.934694
vt 0.728658 0.216722
vt 0.752877 0.216721
vt 0.752877 0.191082
vt 0.728658 0.191083
vt 0.903287 0.579585
vt 0.903287 0.603712
vt 0.912208 0.603712
vt 0.912208 0.580276
vt 0.926484 0.580276
vt 0.926484 0.579585
vt 0.116899 0.936113
vt 0.116899 0.935422
vt 0.102623 0.935422
vt 0.102623 0.911987
vt 0.093702 0.911987
vt 0.093702 0.936113
vt 0.762946 0.351180
vt 0.738728 0.351181
vt 0.738728 0.376820
vt 0.762946 0.376819
vt 0.516006 0.222180
vt 0.516700 0.222180
vt 0.516700 0.217206
vt 0.516006 0.217206
vt 0.578767 0.220396
vt 0.578074 0.220396
vt 0.578074 0.223169
vt 0.578767 0.223169
vt 0.554880 0.221040
vt 0.555574 0.221040
vt 0.555574 0.217206
vt 0.554880 0.217206
vt 0.123932 0.469657
vt 0.123238 0.469657
vt 0.123239 0.473570
vt 0.123932 0.473570
vt 0.525455 0.217206
vt 0.524761 0.217206
vt 0.524761 0.222073
vt 0.525455 0.222073
vt 0.569319 0.223276
vt 0.570013 0.223276
vt 0.570013 0.220396
vt 0.569319 0.220396
vt 0.096536 0.473737
vt 0.097230 0.473737
vt 0.097230 0.469218
vt 0.096536 0.469218
vt 0.971119 0.405160
vt 0.960747 0.405160
vt 0.960747 0.430800
vt 0.971119 0.430800
vt 0.697073 0.191082
vt 0.672854 0.191083
vt 0.672854 0.216722
vt 0.697073 0.216721
vt 0.816955 0.916144
vt 0.816955 0.892017
vt 0.806583 0.892017
vt 0.806583 0.915453
vt 0.793757 0.915453
vt 0.793757 0.916144
vt 0.316444 0.910568
vt 0.316444 0.911259
vt 0.329269 0.911259
vt 0.329269 0.934694
vt 0.339641 0.934694
vt 0.339641 0.910568
vt 0.234604 0.700430
vt 0.258822 0.700429
vt 0.258822 0.674790
vt 0.234604 0.674791
vt 0.843836 0.916144
vt 0.843836 0.892017
vt 0.833464 0.892017
vt 0.833464 0.915453
vt 0.820638 0.915453
vt 0.820638 0.916144
vt 0.289564 0.910568
vt 0.289564 0.911259
vt 0.302389 0.911259
vt 0.302389 0.934694
vt 0.312761 0.934694
vt 0.312761 0.910568
vt 0.700756 0.216722
vt 0.724975 0.216721
vt 0.724975 0.191082
vt 0.700756 0.191083
vt 0.903287 0.551789
vt 0.903287 0.575915
vt 0.913659 0.575915
vt 0.913659 0.552480
vt 0.926484 0.552480
vt 0.926484 0.551789
vt 0.746933 0.936135
vt 0.746933 0.935444
vt 0.734108 0.935444
vt 0.734108 0.912008
vt 0.723736 0.912008
vt 0.723736 0.936135
vt 0.721583 0.610768
vt 0.745801 0.610767
vt 0.745801 0.585128
vt 0.721583 0.585129
vt 0.159168 0.929212
vt 0.159168 0.905085
vt 0.148796 0.905085
vt 0.148796 0.928521
vt 0.135971 0.928521
vt 0.135971 0.929212
vt 0.186049 0.929212
vt 0.186049 0.905085
vt 0.177129 0.905085
vt 0.177129 0.928521
vt 0.162852 0.928521
vt 0.162852 0.929212
vt 0.527161 0.592444
vt 0.518241 0.592444
vt 0.518241 0.618084
vt 0.527161 0.618084
vt 0.309239 0.960535
vt 0.309759 0.960535
vt 0.309759 0.946755
vt 0.325231 0.946755
vt 0.325231 0.938364
vt 0.309239 0.938364
vt 0.093702 0.961952
vt 0.109694 0.961952
vt 0.109694 0.953562
vt 0.094222 0.953562
vt 0.094222 0.939783
vt 0.093702 0.939783
vt 0.117901 0.473722
vt 0.118421 0.473722
vt 0.118421 0.469218
vt 0.117901 0.469218
vt 0.109494 0.473989
vt 0.110014 0.473989
vt 0.110014 0.469218
vt 0.109494 0.469218
vt 0.413377 0.534057
vt 0.429368 0.534057
vt 0.429368 0.495362
vt 0.413377 0.495362
vt 0.516857 0.209894
vt 0.532848 0.209894
vt 0.532848 0.171199
vt 0.516857 0.171198
vt 0.538239 0.217206
vt 0.537719 0.217206
vt 0.537719 0.222062
vt 0.538239 0.222062
vt 0.541922 0.221625
vt 0.542442 0.221625
vt 0.542442 0.217206
vt 0.541922 0.217206
vt 0.276983 0.617195
vt 0.285406 0.617195
vt 0.285406 0.578499
vt 0.276983 0.578499
vt 0.370205 0.960533
vt 0.386196 0.960533
vt 0.386196 0.951687
vt 0.370725 0.951687
vt 0.370725 0.938364
vt 0.370205 0.938364
vt 0.289564 0.960535
vt 0.290084 0.960535
vt 0.290084 0.946755
vt 0.305556 0.946755
vt 0.305556 0.938364
vt 0.289564 0.938364
vt 0.526664 0.550079
vt 0.518241 0.550079
vt 0.518241 0.588775
vt 0.526664 0.588775
vt 0.113698 0.473722
vt 0.114218 0.473722
vt 0.114218 0.469218
vt 0.113698 0.469218
vt 0.105811 0.469218
vt 0.105291 0.469218
vt 0.105291 0.473989
vt 0.105811 0.473989
vt 0.344906 0.938364
vt 0.344386 0.938364
vt 0.344386 0.951688
vt 0.328914 0.951688
vt 0.328914 0.960535
vt 0.344906 0.960535
vt 0.635678 0.582906
vt 0.626758 0.582906
vt 0.626758 0.608546
vt 0.635678 0.608546
vt 0.635678 0.612216
vt 0.626758 0.612216
vt 0.626758 0.637856
vt 0.635678 0.637856
vt 0.527161 0.621754
vt 0.518241 0.621754
vt 0.518241 0.647394
vt 0.527161 0.647394
vt 0.191285 0.932882
vt 0.180913 0.932882
vt 0.180913 0.958522
vt 0.191285 0.958522
vt 0.964858 0.551789
vt 0.954486 0.551789
vt 0.954486 0.577429
vt 0.964858 0.577429
vt 0.964858 0.581098
vt 0.954486 0.581098
vt 0.954486 0.606738
vt 0.964858 0.606738
vt 0.944792 0.941984
vt 0.945312 0.941984
vt 0.945312 0.928660
vt 0.960784 0.928660
vt 0.960784 0.919813
vt 0.944792 0.919813
vt 0.518241 0.546409
vt 0.527121 0.546409
vt 0.527121 0.507714
vt 0.518241 0.507714
vt 0.113378 0.961952
vt 0.129369 0.961952
vt 0.129369 0.953106
vt 0.113897 0.953106
vt 0.113897 0.939783
vt 0.113378 0.939783
vt 0.518241 0.504044
vt 0.527121 0.504044
vt 0.527121 0.465349
vt 0.518241 0.465349
vt 0.385482 0.825088
vt 0.385482 0.838868
vt 0.390272 0.838868
vt 0.390272 0.825088
vt 0.262506 0.684177
vt 0.277977 0.684176
vt 0.277977 0.645481
vt 0.262506 0.645481
vt 0.262506 0.650252
vt 0.273787 0.650252
vt 0.273787 0.679672
vt 0.262506 0.679672
vt 0.950022 0.400710
vt 0.962572 0.400710
vt 0.962572 0.394496
vt 0.951291 0.394496
vt 0.951291 0.380717
vt 0.950771 0.380717
vt 0.950771 0.377780
vt 0.950022 0.377780
vt 0.519957 0.832130
vt 0.519957 0.845910
vt 0.524478 0.845910
vt 0.524478 0.832130
vt 0.635857 0.905209
vt 0.635108 0.905209
vt 0.635108 0.908146
vt 0.634588 0.908146
vt 0.634588 0.921926
vt 0.623307 0.921926
vt 0.623307 0.928141
vt 0.635857 0.928140
vt 0.632995 0.704035
vt 0.632995 0.674615
vt 0.626758 0.674615
vt 0.626758 0.704035
vt 0.807436 0.614548
vt 0.807436 0.585128
vt 0.794886 0.585128
vt 0.794886 0.614548
vt 0.463453 0.171198
vt 0.463453 0.200618
vt 0.486472 0.200618
vt 0.486472 0.171198
vt 0.761125 0.756727
vt 0.761125 0.786147
vt 0.761873 0.786147
vt 0.761873 0.756727
vt 0.850803 0.206913
vt 0.850803 0.220693
vt 0.855238 0.220693
vt 0.855238 0.206913
vt 0.413377 0.576423
vt 0.428849 0.576423
vt 0.428849 0.537727
vt 0.413377 0.537727
vt 0.413377 0.542146
vt 0.424658 0.542146
vt 0.424658 0.571566
vt 0.413377 0.571566
vt 0.514164 0.957141
vt 0.526714 0.957141
vt 0.526714 0.950927
vt 0.515432 0.950927
vt 0.515432 0.937148
vt 0.514912 0.937148
vt 0.514912 0.934211
vt 0.514164 0.934211
vt 0.122876 0.820957
vt 0.122876 0.834737
vt 0.127751 0.834737
vt 0.127751 0.820957
vt 0.933023 0.893213
vt 0.932275 0.893213
vt 0.932275 0.896150
vt 0.931755 0.896150
vt 0.931755 0.909930
vt 0.920474 0.909930
vt 0.920474 0.916144
vt 0.933023 0.916144
vt 0.518241 0.651063
vt 0.518241 0.680483
vt 0.524479 0.680483
vt 0.524479 0.651063
vt 0.620456 0.793741
vt 0.620456 0.823161
vt 0.633005 0.823161
vt 0.633005 0.793740
vt 0.490155 0.171198
vt 0.490155 0.200618
vt 0.513174 0.200618
vt 0.513174 0.171198
vt 0.283923 0.716192
vt 0.283923 0.686772
vt 0.283175 0.686772
vt 0.283175 0.716192
vt 0.842330 0.206913
vt 0.842330 0.220237
vt 0.847119 0.220237
vt 0.847119 0.206913
vt 0.764956 0.585128
vt 0.749485 0.585128
vt 0.749485 0.623824
vt 0.764956 0.623824
vt 0.764956 0.619053
vt 0.753675 0.619053
vt 0.753675 0.589633
vt 0.764956 0.589633
vt 0.736285 0.939805
vt 0.723736 0.939805
vt 0.723736 0.946018
vt 0.735017 0.946018
vt 0.735017 0.959342
vt 0.735537 0.959342
vt 0.735537 0.962734
vt 0.736285 0.962734
vt 0.385482 0.842538
vt 0.385482 0.855862
vt 0.390004 0.855862
vt 0.390004 0.842538
vt 0.623307 0.954741
vt 0.624056 0.954741
vt 0.624056 0.951348
vt 0.624576 0.951348
vt 0.624576 0.938024
vt 0.635857 0.938024
vt 0.635857 0.931810
vt 0.623307 0.931810
vt 0.672854 0.154839
vt 0.672854 0.184260
vt 0.679092 0.184260
vt 0.679092 0.154839
vt 0.633005 0.790071
vt 0.633005 0.760651
vt 0.620456 0.760651
vt 0.620456 0.790071
vt 0.436751 0.171198
vt 0.436751 0.200618
vt 0.459770 0.200618
vt 0.459770 0.171198
vt 0.285703 0.787428
vt 0.285703 0.758008
vt 0.284955 0.758008
vt 0.284955 0.787428
vt 0.857454 0.382318
vt 0.857454 0.395642
vt 0.861890 0.395642
vt 0.861890 0.382318
vt 0.277977 0.687846
vt 0.262506 0.687846
vt 0.262506 0.726542
vt 0.277977 0.726542
vt 0.277977 0.722123
vt 0.266696 0.722123
vt 0.266696 0.692703
vt 0.277977 0.692703
vt 0.424471 0.673636
vt 0.424471 0.686960
vt 0.429347 0.686960
vt 0.429347 0.673636
vt 0.635857 0.878608
vt 0.635108 0.878608
vt 0.635108 0.882001
vt 0.634588 0.882001
vt 0.634588 0.895326
vt 0.623307 0.895326
vt 0.623307 0.901540
vt 0.635857 0.901540
vt 0.626758 0.641525
vt 0.626758 0.670946
vt 0.632995 0.670946
vt 0.632995 0.641525
vt 0.633005 0.856250
vt 0.633005 0.826830
vt 0.620456 0.826830
vt 0.620456 0.856251
vt 0.119555 0.465548
vt 0.119555 0.436128
vt 0.096536 0.436128
vt 0.096536 0.465548
vt 0.626923 0.859920
vt 0.626923 0.872697
vt 0.630163 0.872697
vt 0.630163 0.859920
vt 0.895140 0.351180
vt 0.871615 0.351180
vt 0.871615 0.376820
vt 0.895140 0.376820
vt 0.895140 0.373592
vt 0.876591 0.373592
vt 0.876591 0.355699
vt 0.895140 0.355700
vt 0.818076 0.942745
vt 0.838710 0.942745
vt 0.838710 0.936530
vt 0.820161 0.936530
vt 0.820161 0.923754
vt 0.819467 0.923754
vt 0.819467 0.919813
vt 0.818076 0.919813
vt 0.519957 0.849579
vt 0.519957 0.862356
vt 0.524494 0.862356
vt 0.524494 0.849579
vt 0.766549 0.944257
vt 0.767941 0.944257
vt 0.767941 0.940317
vt 0.768635 0.940317
vt 0.768635 0.927541
vt 0.787184 0.927541
vt 0.787184 0.921327
vt 0.766549 0.921327
vt 0.798541 0.400210
vt 0.798541 0.382318
vt 0.792304 0.382318
vt 0.792304 0.400210
vt 0.738728 0.401046
vt 0.756689 0.401046
vt 0.756689 0.380489
vt 0.738728 0.380489
vt 0.413377 0.603023
vt 0.431338 0.603023
vt 0.431338 0.580092
vt 0.413377 0.580092
vt 0.284311 0.834221
vt 0.284311 0.852113
vt 0.285703 0.852113
vt 0.285703 0.834221
vt 0.876079 0.610408
vt 0.876079 0.623184
vt 0.878969 0.623184
vt 0.878969 0.610408
vt 0.766549 0.917657
vt 0.790074 0.917657
vt 0.790074 0.892017
vt 0.766549 0.892017
vt 0.766549 0.894897
vt 0.785098 0.894897
vt 0.785098 0.912790
vt 0.766549 0.912790
vt 0.925704 0.400712
vt 0.946339 0.400712
vt 0.946339 0.394498
vt 0.927790 0.394498
vt 0.927790 0.381721
vt 0.927096 0.381721
vt 0.927096 0.377780
vt 0.925704 0.377780
vt 0.122876 0.838407
vt 0.122876 0.851183
vt 0.127762 0.851183
vt 0.127762 0.838407
vt 0.417843 0.925157
vt 0.416451 0.925157
vt 0.416451 0.929098
vt 0.415757 0.929098
vt 0.415757 0.941874
vt 0.397208 0.941874
vt 0.397208 0.948088
vt 0.417843 0.948088
vt 0.818383 0.400210
vt 0.818383 0.382318
vt 0.812146 0.382318
vt 0.812146 0.400210
vt 0.934547 0.526843
vt 0.916587 0.526843
vt 0.916587 0.547399
vt 0.934547 0.547399
vt 0.463806 0.925157
vt 0.445845 0.925157
vt 0.445845 0.948088
vt 0.463806 0.948088
vt 0.284311 0.812659
vt 0.284311 0.830551
vt 0.285703 0.830551
vt 0.285703 0.812659
vt 0.861244 0.757202
vt 0.861244 0.769979
vt 0.865172 0.769979
vt 0.865172 0.757202
vt 0.516044 0.877106
vt 0.492519 0.877105
vt 0.492519 0.902745
vt 0.516044 0.902745
vt 0.516044 0.898832
vt 0.497495 0.898832
vt 0.497495 0.880940
vt 0.516044 0.880940
vt 0.871837 0.916144
vt 0.892472 0.916144
vt 0.892472 0.909930
vt 0.873923 0.909930
vt 0.873923 0.897153
vt 0.873229 0.897153
vt 0.873229 0.893213
vt 0.871837 0.893213
vt 0.868856 0.757202
vt 0.868856 0.769979
vt 0.872705 0.769979
vt 0.872705 0.757202
vt 0.896156 0.942744
vt 0.897547 0.942744
vt 0.897547 0.938804
vt 0.898241 0.938804
vt 0.898241 0.926027
vt 0.916790 0.926027
vt 0.916790 0.919813
vt 0.896156 0.919813
vt 0.808462 0.400210
vt 0.808462 0.382318
vt 0.802225 0.382318
vt 0.802225 0.400210
vt 0.930168 0.625545
vt 0.948129 0.625545
vt 0.948129 0.604989
vt 0.930168 0.604989
vt 0.467489 0.948088
vt 0.485450 0.948088
vt 0.485450 0.925157
vt 0.467489 0.925157
vt 0.510931 0.204288
vt 0.510931 0.222180
vt 0.512323 0.222180
vt 0.512323 0.204288
vt 0.876388 0.757202
vt 0.876388 0.769979
vt 0.879171 0.769979
vt 0.879171 0.757202
vt 0.117227 0.882677
vt 0.093702 0.882677
vt 0.093702 0.908317
vt 0.117227 0.908317
vt 0.117227 0.905545
vt 0.098678 0.905544
vt 0.098678 0.887652
vt 0.117227 0.887652
vt 0.793757 0.942745
vt 0.814392 0.942745
vt 0.814392 0.936530
vt 0.795843 0.936530
vt 0.795843 0.923754
vt 0.795149 0.923754
vt 0.795149 0.919813
vt 0.793758 0.919813
vt 0.853771 0.395094
vt 0.853771 0.382318
vt 0.848777 0.382318
vt 0.848777 0.395094
vt 0.950803 0.578389
vt 0.949411 0.578389
vt 0.949411 0.582329
vt 0.948717 0.582329
vt 0.948717 0.595105
vt 0.930168 0.595105
vt 0.930168 0.601319
vt 0.950803 0.601319
vt 0.391720 0.821419
vt 0.391720 0.803526
vt 0.385482 0.803526
vt 0.385482 0.821419
vt 0.956192 0.526843
vt 0.938231 0.526843
vt 0.938231 0.547399
vt 0.956192 0.547399
vt 0.157615 0.955813
vt 0.175577 0.955813
vt 0.175577 0.932882
vt 0.157615 0.932882
vt 0.285703 0.808989
vt 0.285703 0.791097
vt 0.284311 0.791097
vt 0.284311 0.808989
vt 0.122876 0.854853
vt 0.122876 0.869075
vt 0.126116 0.869075
vt 0.126116 0.854853
vt 0.492519 0.873436
vt 0.516044 0.873436
vt 0.516044 0.847796
vt 0.492519 0.847796
vt 0.492519 0.851024
vt 0.511069 0.851024
vt 0.511069 0.868916
vt 0.492519 0.868916
vt 0.842394 0.942745
vt 0.863029 0.942745
vt 0.863029 0.936530
vt 0.844479 0.936530
vt 0.844479 0.922308
vt 0.843786 0.922308
vt 0.843786 0.919813
vt 0.842394 0.919813
vt 0.840557 0.382318
vt 0.840557 0.396540
vt 0.845094 0.396540
vt 0.845094 0.382318
vt 0.920474 0.942744
vt 0.921866 0.942744
vt 0.921866 0.940250
vt 0.922559 0.940250
vt 0.922559 0.926027
vt 0.941108 0.926027
vt 0.941108 0.919813
vt 0.920474 0.919813
vt 0.129113 0.817288
vt 0.129113 0.799395
vt 0.122876 0.799395
vt 0.122876 0.817288
vt 0.894942 0.547399
vt 0.912903 0.547399
vt 0.912903 0.526843
vt 0.894942 0.526843
vt 0.774522 0.191082
vt 0.756561 0.191082
vt 0.756561 0.214013
vt 0.774522 0.214013
vt 0.762516 0.829271
vt 0.762516 0.811379
vt 0.761125 0.811379
vt 0.761125 0.829271
vt 0.385482 0.859531
vt 0.385482 0.873754
vt 0.388373 0.873754
vt 0.388373 0.859531
vt 0.876079 0.606738
vt 0.899604 0.606738
vt 0.899604 0.581098
vt 0.876079 0.581098
vt 0.876079 0.583978
vt 0.894628 0.583978
vt 0.894628 0.601871
vt 0.876079 0.601870
vt 0.925704 0.374111
vt 0.946339 0.374111
vt 0.946339 0.367897
vt 0.927790 0.367897
vt 0.927790 0.353674
vt 0.927096 0.353674
vt 0.927096 0.351180
vt 0.925704 0.351180
vt 0.831987 0.382318
vt 0.831987 0.396540
vt 0.836874 0.396540
vt 0.836874 0.382318
vt 0.950803 0.551789
vt 0.949411 0.551789
vt 0.949411 0.554283
vt 0.948717 0.554283
vt 0.948717 0.568505
vt 0.930168 0.568505
vt 0.930168 0.574719
vt 0.950803 0.574719
vt 0.828304 0.400210
vt 0.828304 0.382318
vt 0.822067 0.382318
vt 0.822067 0.400210
vt 0.889576 0.380489
vt 0.871615 0.380489
vt 0.871615 0.401046
vt 0.889576 0.401046
vt 0.153932 0.932882
vt 0.135971 0.932882
vt 0.135971 0.955813
vt 0.153932 0.955813
vt 0.761125 0.832940
vt 0.761125 0.850833
vt 0.762516 0.850833
vt 0.762516 0.832940
vt 0.862850 0.221135
vt 0.862850 0.206913
vt 0.858922 0.206913
vt 0.858922 0.221135
vt 0.899604 0.551789
vt 0.876079 0.551789
vt 0.876079 0.577428
vt 0.899604 0.577429
vt 0.899604 0.573516
vt 0.881055 0.573515
vt 0.881055 0.555623
vt 0.899604 0.555623
vt 0.868154 0.893213
vt 0.847519 0.893213
vt 0.847519 0.899427
vt 0.866068 0.899427
vt 0.866068 0.913650
vt 0.866762 0.913650
vt 0.866762 0.916144
vt 0.868154 0.916144
vt 0.870382 0.221135
vt 0.870382 0.206913
vt 0.866533 0.206913
vt 0.866533 0.221135
vt 0.871837 0.942744
vt 0.873229 0.942744
vt 0.873229 0.940250
vt 0.873923 0.940250
vt 0.873923 0.926027
vt 0.892472 0.926027
vt 0.892472 0.919813
vt 0.871837 0.919813
vt 0.524478 0.810568
vt 0.524478 0.792675
vt 0.518241 0.792675
vt 0.518241 0.810568
vt 0.234604 0.753965
vt 0.252564 0.753965
vt 0.252564 0.733409
vt 0.234604 0.733409
vt 0.194968 0.955813
vt 0.212929 0.955813
vt 0.212929 0.932882
vt 0.194968 0.932882
vt 0.761125 0.789817
vt 0.761125 0.807709
vt 0.762516 0.807709
vt 0.762516 0.789817
vt 0.623239 0.874143
vt 0.623239 0.859920
vt 0.620456 0.859920
vt 0.620456 0.874143
vt 0.723736 0.908339
vt 0.747261 0.908339
vt 0.747261 0.882699
vt 0.723736 0.882699
vt 0.723736 0.885472
vt 0.742285 0.885472
vt 0.742285 0.903364
vt 0.723736 0.903364
vt 0.896155 0.916144
vt 0.916790 0.916144
vt 0.916790 0.909930
vt 0.898241 0.909930
vt 0.898241 0.895707
vt 0.897547 0.895707
vt 0.897547 0.893213
vt 0.896155 0.893213
vt 0.524478 0.828460
vt 0.524478 0.814237
vt 0.519485 0.814237
vt 0.519485 0.828460
vt 0.442161 0.925157
vt 0.440769 0.925157
vt 0.440769 0.927651
vt 0.440076 0.927651
vt 0.440076 0.941874
vt 0.421527 0.941874
vt 0.421527 0.948088
vt 0.442161 0.948088
vt 0.391720 0.799857
vt 0.391720 0.781964
vt 0.385482 0.781964
vt 0.385482 0.799857
vt 0.911220 0.380489
vt 0.893259 0.380490
vt 0.893259 0.401046
vt 0.911220 0.401046
vt 0.492519 0.957142
vt 0.510480 0.957142
vt 0.510480 0.934211
vt 0.492519 0.934211
vt 0.256248 0.733409
vt 0.256248 0.751301
vt 0.257640 0.751301
vt 0.257640 0.733409
vt 0.128513 0.709103
vt 0.128513 0.738523
vt 0.129261 0.738523
vt 0.129261 0.709103
vt 0.951291 0.354572
vt 0.950771 0.354572
vt 0.950771 0.351180
vt 0.950022 0.351180
vt 0.950022 0.374109
vt 0.962572 0.374109
vt 0.962572 0.367896
vt 0.951291 0.367896
vt 0.001842 0.477702
vt 0.001842 0.627041
vt 0.121972 0.627041
vt 0.121972 0.477702
vt 0.142021 0.001835
vt 0.001842 0.001836
vt 0.001842 0.236099
vt 0.142021 0.236098
vt 0.145704 0.001835
vt 0.145704 0.236097
vt 0.285881 0.236101
vt 0.285881 0.001839
vt 0.779694 0.141483
vt 0.870698 0.141483
vt 0.870698 0.001835
vt 0.779694 0.001835
vt 0.092853 0.239769
vt 0.001842 0.239769
vt 0.001842 0.474032
vt 0.092853 0.474032
vt 0.857561 0.630742
vt 0.766549 0.630742
vt 0.766549 0.770390
vt 0.857561 0.770390
vt 0.436747 0.461679
vt 0.527756 0.461679
vt 0.527756 0.227415
vt 0.436747 0.227415
vt 0.935327 0.630742
vt 0.861244 0.630742
vt 0.861244 0.753533
vt 0.935327 0.753532
vt 0.948463 0.124627
vt 0.948463 0.001837
vt 0.874382 0.001835
vt 0.874382 0.124625
vt 0.872395 0.551789
vt 0.813447 0.551789
vt 0.813447 0.625591
vt 0.872395 0.625591
vt 0.997963 0.630742
vt 0.939011 0.630742
vt 0.939011 0.753532
vt 0.997963 0.753532
vt 0.838646 0.145152
vt 0.779694 0.145152
vt 0.779694 0.218954
vt 0.838646 0.218954
vt 0.939208 0.896850
vt 0.998158 0.896850
vt 0.998158 0.774059
vt 0.939208 0.774059
vt 0.935524 0.774059
vt 0.855563 0.774060
vt 0.855563 0.888348
vt 0.935524 0.888347
vt 0.859758 0.225192
vt 0.859758 0.339480
vt 0.939717 0.339482
vt 0.939717 0.225194
vt 0.720052 0.967701
vt 0.720052 0.882699
vt 0.640091 0.882699
vt 0.640091 0.967701
vt 0.616773 0.760651
vt 0.531440 0.760651
vt 0.531440 0.874939
vt 0.616773 0.874939
vt 0.954344 0.213306
vt 0.954343 0.128296
vt 0.874382 0.128296
vt 0.874382 0.213306
vt 0.766549 0.888348
vt 0.851880 0.888348
vt 0.851880 0.774059
vt 0.766549 0.774059
vt 0.766630 0.351180
vt 0.766630 0.378390
vt 0.769197 0.378390
vt 0.769197 0.359299
vt 0.785893 0.359299
vt 0.785893 0.378390
vt 0.789193 0.378390
vt 0.789193 0.351180
vt 0.381431 0.720204
vt 0.381431 0.747415
vt 0.391720 0.747415
vt 0.391720 0.720204
vt 0.955080 0.968131
vt 0.955080 0.945654
vt 0.944792 0.945654
vt 0.944792 0.968131
vt 0.761233 0.940789
vt 0.761233 0.913579
vt 0.750944 0.913579
vt 0.750944 0.940789
vt 0.761233 0.966936
vt 0.761233 0.963649
vt 0.751874 0.963649
vt 0.751874 0.947016
vt 0.761233 0.947016
vt 0.761233 0.944459
vt 0.750944 0.944459
vt 0.750944 0.966936
vt 0.864892 0.145153
vt 0.842330 0.145152
vt 0.842330 0.172362
vt 0.864892 0.172363
vt 0.436751 0.223379
vt 0.453447 0.223379
vt 0.453447 0.204288
vt 0.436751 0.204288
vt 0.527600 0.703244
vt 0.527600 0.684153
vt 0.518241 0.684153
vt 0.518241 0.703244
vt 0.527600 0.745943
vt 0.527600 0.729311
vt 0.518241 0.729311
vt 0.518241 0.745943
vt 0.507248 0.223379
vt 0.507248 0.204288
vt 0.497888 0.204288
vt 0.497888 0.223379
vt 0.815439 0.378390
vt 0.815439 0.351180
vt 0.812443 0.351180
vt 0.812443 0.369908
vt 0.795747 0.369908
vt 0.795747 0.351180
vt 0.792876 0.351180
vt 0.792876 0.378390
vt 0.273608 0.880151
vt 0.273608 0.907361
vt 0.283897 0.907361
vt 0.283897 0.880151
vt 0.971035 0.483094
vt 0.971035 0.460617
vt 0.960747 0.460617
vt 0.960747 0.483094
vt 0.273608 0.911031
vt 0.273608 0.938241
vt 0.283897 0.938241
vt 0.283897 0.911031
vt 0.971036 0.456947
vt 0.971036 0.454087
vt 0.961677 0.454087
vt 0.961677 0.437454
vt 0.971036 0.437454
vt 0.971036 0.434470
vt 0.960747 0.434470
vt 0.960747 0.456947
vt 0.842330 0.203243
vt 0.864892 0.203243
vt 0.864892 0.176033
vt 0.842330 0.176032
vt 0.777068 0.382318
vt 0.760372 0.382318
vt 0.760372 0.401046
vt 0.777068 0.401045
vt 0.636116 0.726433
vt 0.636116 0.707705
vt 0.626758 0.707705
vt 0.626758 0.726433
vt 0.636117 0.746735
vt 0.636117 0.730102
vt 0.626758 0.730102
vt 0.626758 0.746735
vt 0.518241 0.706913
vt 0.518241 0.725641
vt 0.527600 0.725641
vt 0.527600 0.706913
vt 0.768640 0.585128
vt 0.768640 0.612339
vt 0.771636 0.612339
vt 0.771636 0.593611
vt 0.788332 0.593611
vt 0.788332 0.612338
vt 0.791203 0.612338
vt 0.791203 0.585128
vt 0.381431 0.751084
vt 0.381431 0.778294
vt 0.391720 0.778294
vt 0.391720 0.751084
vt 0.971035 0.535388
vt 0.971035 0.512910
vt 0.960747 0.512910
vt 0.960747 0.535388
vt 0.750944 0.882699
vt 0.750944 0.909909
vt 0.761233 0.909909
vt 0.761233 0.882699
vt 0.283897 0.964388
vt 0.283897 0.961528
vt 0.276027 0.961528
vt 0.276027 0.944895
vt 0.283897 0.944895
vt 0.283897 0.941911
vt 0.273608 0.941911
vt 0.273608 0.964388
vt 0.845369 0.378390
vt 0.867931 0.378391
vt 0.867931 0.351180
vt 0.845369 0.351180
vt 0.494205 0.204288
vt 0.477509 0.204288
vt 0.477509 0.223016
vt 0.494205 0.223016
vt 0.788621 0.401046
vt 0.788621 0.382318
vt 0.780751 0.382318
vt 0.780751 0.401046
vt 0.130745 0.795725
vt 0.130745 0.779093
vt 0.122876 0.779093
vt 0.122876 0.795725
vt 0.130745 0.775424
vt 0.130745 0.756696
vt 0.122876 0.756696
vt 0.122876 0.775424
vt 0.819122 0.351180
vt 0.819122 0.378390
vt 0.821690 0.378390
vt 0.821690 0.359299
vt 0.838386 0.359299
vt 0.838386 0.378390
vt 0.841685 0.378390
vt 0.841685 0.351180
vt 0.381431 0.689324
vt 0.381431 0.716535
vt 0.391720 0.716535
vt 0.391720 0.689324
vt 0.971035 0.509241
vt 0.971035 0.486764
vt 0.960747 0.486764
vt 0.960747 0.509241
vt 0.120911 0.882677
vt 0.120911 0.909888
vt 0.131199 0.909888
vt 0.131199 0.882677
vt 0.120911 0.913557
vt 0.120911 0.916844
vt 0.128781 0.916844
vt 0.128781 0.933477
vt 0.120911 0.933477
vt 0.120911 0.936034
vt 0.131199 0.936034
vt 0.131199 0.913557
vt 0.492519 0.844126
vt 0.515082 0.844126
vt 0.515082 0.816916
vt 0.492519 0.816916
vt 0.457130 0.223379
vt 0.473826 0.223379
vt 0.473826 0.204288
vt 0.457130 0.204288
vt 0.518241 0.749613
vt 0.518241 0.768704
vt 0.526110 0.768704
vt 0.526110 0.749613
vt 0.526111 0.789006
vt 0.526111 0.772373
vt 0.518241 0.772373
vt 0.518241 0.789006
vt 0.276983 0.620864
vt 0.276983 0.639955
vt 0.284852 0.639955
vt 0.284852 0.620864
vt 0.514557 0.687259
vt 0.514557 0.465349
vt 0.436747 0.465349
vt 0.436747 0.687260
vt 0.433067 0.223746
vt 0.433067 0.001835
vt 0.289564 0.001835
vt 0.289564 0.223746
vt 0.213782 0.758469
vt 0.135971 0.758469
vt 0.135971 0.901416
vt 0.213782 0.901416
vt 0.433064 0.449327
vt 0.433064 0.227415
vt 0.289564 0.227415
vt 0.289564 0.449327
vt 0.813448 0.548119
vt 0.891259 0.548119
vt 0.891259 0.405160
vt 0.813447 0.405160
vt 0.640091 0.627070
vt 0.717899 0.627072
vt 0.717899 0.405162
vt 0.640091 0.405160
vt 0.397208 0.690930
vt 0.397208 0.813246
vt 0.514557 0.813245
vt 0.514557 0.690929
vt 0.856074 0.225195
vt 0.738728 0.225192
vt 0.738728 0.347507
vt 0.856074 0.347510
vt 0.640091 0.879030
vt 0.757441 0.879029
vt 0.757441 0.756727
vt 0.640091 0.756727
vt 0.640091 0.630742
vt 0.640091 0.753058
vt 0.762866 0.753058
vt 0.762866 0.630742
vt 0.001842 0.879008
vt 0.119192 0.879008
vt 0.119192 0.756696
vt 0.001842 0.756696
vt 0.001842 0.630710
vt 0.001842 0.753026
vt 0.124620 0.753026
vt 0.124620 0.630710
vt 0.995861 0.343205
vt 0.995861 0.225192
vt 0.943400 0.225192
vt 0.943400 0.343205
vt 0.217465 0.998164
vt 0.269925 0.998165
vt 0.269925 0.880153
vt 0.217465 0.880151
vt 0.669170 0.154839
vt 0.616709 0.154839
vt 0.616709 0.216722
vt 0.669170 0.216722
vt 0.957064 0.523174
vt 0.957064 0.405160
vt 0.894942 0.405160
vt 0.894942 0.523174
vt 0.613026 0.154839
vt 0.560565 0.154839
vt 0.560565 0.216727
vt 0.613026 0.216727
vt 0.217465 0.758469
vt 0.217465 0.876482
vt 0.279589 0.876482
vt 0.279589 0.758469
vt 0.636409 0.401490
vt 0.636409 0.227415
vt 0.531440 0.227416
vt 0.531440 0.401491
vt 0.636407 0.405163
vt 0.531440 0.405160
vt 0.531440 0.579234
vt 0.636407 0.579237
vt 0.397208 0.816916
vt 0.397208 0.921488
vt 0.488836 0.921488
vt 0.488836 0.816916
vt 0.776011 0.175910
vt 0.776011 0.001835
vt 0.684378 0.001835
vt 0.684378 0.175910
vt 0.381199 0.906898
vt 0.381199 0.802326
vt 0.289564 0.802326
vt 0.289564 0.906898
vt 0.531440 0.582906
vt 0.531440 0.756981
vt 0.623074 0.756981
vt 0.623074 0.582906
vn -0.255000 -0.967000 0.000000
vn 0.255000 0.967000 0.000000
vn 0.967000 -0.255000 -0.000000
vn -0.000000 0.000000 -1.000000
vn -0.967000 0.255000 0.000000
vn 0.000000 0.000000 1.000000
vn -0.000000 0.927300 -0.374400
vn 0.000000 -0.927300 0.374400
vn 1.000000 -0.000000 0.000000
vn 0.000000 -0.374400 -0.927300
vn -1.000000 0.000000 -0.000000
vn 0.000000 0.374400 0.927300
vn 0.000000 1.000000 -0.000000
vn 0.000000 -1.000000 0.000000
usemtl Material
s off
f 1/1/1 4/2/1 3/3/1 2/4/1
f 5/5/2 6/6/2 7/7/2 8/8/2
f 1/9/3 2/10/3 6/11/3 5/12/3
f 2/13/4 3/14/4 7/15/4 6/16/4
f 3/17/5 4/18/5 8/19/5 7/20/5
f 5/21/6 8/22/6 4/23/6 1/24/6
f 9/25/7 10/26/7 11/27/7 12/28/7
f 13/29/8 16/30/8 15/31/8 14/32/8
f 9/33/9 13/34/9 14/35/9 10/36/9
f 10/37/10 14/38/10 15/39/10 11/40/10
f 11/41/11 15/42/11 16/43/11 12/44/11
f 13/45/12 9/46/12 12/47/12 16/48/12
f 17/49/13 18/50/13 19/51/13 20/52/13
f 21/53/14 24/54/14 23/55/14 22/56/14
f 17/57/9 21/58/9 22/59/9 18/60/9
f 18/61/4 22/62/4 23/63/4 19/64/4
f 19/65/11 23/66/11 24/67/11 20/68/11
f 21/69/6 17/70/6 20/71/6 24/72/6
f 25/73/13 26/74/13 27/75/13 28/76/13
f 29/77/6 25/78/6 28/79/6 30/80/6
f 25/81/9 29/82/9 31/83/9 26/84/9
f 29/85/14 30/86/14 61/87/14 31/88/14
f 27/89/11 61/90/11 30/91/11 28/92/11
f 34/93/6 107/94/6 108/95/6 109/96/6 110/97/6 35/98/6
f 36/99/13 118/100/13 119/101/13 37/102/13
f 120/103/13 41/104/13 40/105/13 121/106/13
f 42/107/13 122/108/13 123/109/13 43/110/13
f 124/111/13 47/112/13 46/113/13 125/114/13
f 48/115/13 126/116/13 127/117/13 49/118/13
f 128/119/13 53/120/13 52/121/13 129/122/13
f 54/123/13 130/124/13 131/125/13 55/126/13
f 132/127/13 59/128/13 58/129/13 133/130/13
f 59/131/6 132/132/6 134/133/6 135/134/6 136/135/6 60/136/6
f 62/137/14 151/138/14 152/139/14 63/140/14
f 63/141/9 152/142/9 153/143/9 154/144/9 155/145/9 64/146/9
f 66/147/14 156/148/14 157/149/14 67/150/14
f 160/151/6 72/151/6 71/151/6
f 73/152/13 161/153/13 162/154/13 74/155/13
f 163/156/13 33/157/13 76/158/13 164/159/13
f 107/160/13 34/161/13 106/162/13 165/163/13
f 60/164/14 136/165/14 166/166/14 77/167/14
f 77/168/4 166/169/4 167/170/4 168/171/4 130/172/4 54/173/4
f 53/174/6 128/175/6 169/176/6 170/177/6 171/178/6 78/179/6
f 78/180/14 171/181/14 172/182/14 79/183/14
f 79/184/4 172/185/4 173/186/4 174/187/4 126/188/4 48/189/4
f 47/190/6 124/191/6 175/192/6 176/193/6 177/194/6 80/195/6
f 80/196/14 177/197/14 178/198/14 81/199/14
f 81/200/4 178/201/4 179/202/4 180/203/4 122/204/4 42/205/4
f 41/206/6 120/207/6 181/208/6 182/209/6 183/210/6 82/211/6
f 82/212/14 183/213/14 184/214/14 83/215/14
f 84/216/13 185/217/13 186/218/13 85/219/13
f 187/220/13 89/221/13 88/222/13 188/223/13
f 90/224/13 189/225/13 190/226/13 91/227/13
f 191/228/13 95/229/13 94/230/13 192/231/13
f 96/232/13 193/233/13 194/234/13 97/235/13
f 195/236/13 101/237/13 100/238/13 196/239/13
f 102/240/13 197/241/13 198/242/13 103/243/13
f 199/244/11 200/245/11 110/246/11 109/247/11
f 35/248/14 110/249/14 200/250/14 111/251/14
f 111/252/4 200/253/4 199/254/4 201/255/4 197/256/4 102/257/4
f 101/258/6 195/259/6 202/260/6 203/261/6 204/262/6 112/263/6
f 112/264/14 204/265/14 205/266/14 113/267/14
f 113/268/4 205/269/4 206/270/4 207/271/4 193/272/4 96/273/4
f 95/274/6 191/275/6 208/276/6 209/277/6 210/278/6 114/279/6
f 114/280/14 210/281/14 211/282/14 115/283/14
f 115/284/4 211/285/4 212/286/4 213/287/4 189/288/4 90/289/4
f 89/290/6 187/291/6 214/292/6 215/293/6 216/294/6 116/295/6
f 116/296/14 216/297/14 217/298/14 117/299/14
f 117/300/4 217/301/4 218/302/4 219/303/4 185/304/4 84/305/4
f 83/306/4 184/307/4 220/308/4 221/309/4 118/310/4 36/311/4
f 167/312/11 166/313/11 136/314/11 135/315/11
f 150/316/11 222/317/11 223/318/11 224/319/11 151/320/11 62/321/11
f 67/322/9 157/323/9 225/324/9 226/325/9 227/326/9 137/327/9
f 137/328/13 227/329/13 228/330/13 138/331/13
f 229/332/13 142/333/13 141/334/13 230/335/13
f 143/336/14 231/337/14 232/338/14 144/339/14
f 145/340/14 233/341/14 234/342/14 65/343/14
f 64/344/13 155/345/13 235/346/13 146/347/13
f 222/348/13 150/349/13 149/350/13 236/351/13
f 153/352/4 152/353/4 151/354/4 224/355/4
f 65/356/9 234/357/9 237/358/9 238/359/9 161/360/9 73/361/9
f 142/362/11 229/363/11 239/364/11 240/365/11 156/366/11 66/367/11
f 225/368/4 157/369/4 156/370/4 240/371/4
f 158/372/13 241/373/13 242/374/13 159/375/13
f 243/376/13 72/377/13 160/378/13 244/379/13
f 33/380/11 163/381/11 245/382/11 246/383/11 233/384/11 145/385/11
f 173/386/11 172/387/11 171/388/11 170/389/11
f 179/390/11 178/391/11 177/392/11 176/393/11
f 220/394/11 184/395/11 183/396/11 182/397/11
f 206/398/11 205/399/11 204/400/11 203/401/11
f 212/402/11 211/403/11 210/404/11 209/405/11
f 218/406/11 217/407/11 216/408/11 215/409/11
f 72/410/11 243/411/11 247/412/11 248/413/11 231/414/11 143/415/11
f 249/416/4 232/417/4 231/418/4 248/419/4
f 144/420/9 232/421/9 249/422/9 250/423/9 241/424/9 158/425/9
f 237/426/4 234/427/4 233/428/4 246/429/4
f 239/430/4 229/431/4 230/432/4 251/433/4
f 226/434/13 225/435/13 240/436/13 239/437/13 251/438/13 252/439/13 253/440/13 254/441/13
f 255/442/9 256/443/9 252/444/9 251/445/9 230/446/9 141/447/9 140/448/9 257/449/9
f 254/450/4 228/451/4 227/452/4 226/453/4
f 258/454/11 139/455/11 138/456/11 228/457/11 254/458/11 253/459/11 259/460/11 260/461/11
f 253/462/6 252/463/6 256/464/6 259/465/6
f 255/466/13 260/467/13 259/468/13 256/469/13
f 257/470/4 258/471/4 260/472/4 255/473/4
f 140/474/14 139/475/14 258/476/14 257/477/14
f 223/478/4 222/479/4 236/480/4 261/481/4
f 154/482/13 153/483/13 224/484/13 223/485/13 261/486/13 262/487/13 263/488/13 264/489/13
f 265/490/9 266/491/9 262/492/9 261/493/9 236/494/9 149/495/9 148/496/9 267/497/9
f 264/498/4 235/499/4 155/500/4 154/501/4
f 268/502/11 147/503/11 146/504/11 235/505/11 264/506/11 263/507/11 269/508/11 270/509/11
f 263/510/6 262/511/6 266/512/6 269/513/6
f 265/514/13 270/515/13 269/516/13 266/517/13
f 267/518/4 268/519/4 270/520/4 265/521/4
f 148/522/14 147/523/14 268/524/14 267/525/14
f 247/526/4 243/527/4 244/528/4 271/529/4
f 250/530/13 249/531/13 248/532/13 247/533/13 271/534/13 272/535/13 273/536/13 274/537/13
f 275/538/9 276/539/9 272/540/9 271/541/9 244/542/9 160/543/9 71/543/9 70/544/9 277/545/9
f 274/546/4 242/547/4 241/548/4 250/549/4
f 278/550/11 69/551/11 68/552/11 159/552/11 242/553/11 274/554/11 273/555/11 279/556/11 280/557/11
f 273/558/6 272/559/6 276/560/6 279/561/6
f 275/562/13 280/563/13 279/564/13 276/565/13
f 277/566/4 278/567/4 280/568/4 275/569/4
f 70/570/14 69/571/14 278/572/14 277/573/14
f 245/574/4 163/575/4 164/576/4 281/577/4
f 238/578/13 237/579/13 246/580/13 245/581/13 281/582/13 282/583/13 283/584/13 284/585/13
f 284/586/4 162/587/4 161/588/4 238/589/4
f 288/590/11 75/591/11 74/592/11 162/593/11 284/594/11 283/595/11 289/596/11 290/597/11
f 283/598/6 282/599/6 286/600/6 289/601/6
f 285/602/13 290/603/13 289/604/13 286/605/13
f 287/606/4 288/607/4 290/608/4 285/609/4
f 108/610/11 107/611/11 165/612/11 291/613/11
f 201/614/13 199/615/13 109/616/13 108/617/13 291/618/13 292/619/13 293/620/13 294/621/13
f 295/622/4 296/623/4 292/624/4 291/625/4 165/626/4 106/627/4 105/628/4 297/629/4
f 294/630/11 198/631/11 197/632/11 201/633/11
f 298/634/6 104/635/6 103/636/6 198/637/6 294/638/6 293/639/6 299/640/6 300/641/6
f 293/642/9 292/643/9 296/644/9 299/645/9
f 295/646/13 300/647/13 299/648/13 296/649/13
f 297/650/11 298/651/11 300/652/11 295/653/11
f 105/654/14 104/655/14 298/656/14 297/657/14
f 202/658/11 195/659/11 196/660/11 301/661/11
f 207/662/13 206/663/13 203/664/13 202/665/13 301/666/13 302/667/13 303/668/13 304/669/13
f 305/670/4 306/671/4 302/672/4 301/673/4 196/674/4 100/675/4 99/676/4 307/677/4
f 304/678/11 194/679/11 193/680/11 207/681/11
f 308/682/6 98/683/6 97/684/6 194/685/6 304/686/6 303/687/6 309/688/6 310/689/6
f 303/690/9 302/691/9 306/692/9 309/693/9
f 305/694/13 310/695/13 309/696/13 306/697/13
f 307/698/11 308/699/11 310/700/11 305/701/11
f 99/702/14 98/703/14 308/704/14 307/705/14
f 208/706/11 191/707/11 192/708/11 311/709/11
f 213/710/13 212/711/13 209/712/13 208/713/13 311/714/13 312/715/13 313/716/13 314/717/13
f 315/718/4 316/719/4 312/720/4 311/721/4 192/722/4 94/723/4 93/724/4 317/725/4
f 314/726/11 190/727/11 189/728/11 213/729/11
f 318/730/6 92/731/6 91/732/6 190/733/6 314/734/6 313/735/6 319/736/6 320/737/6
f 313/738/9 312/739/9 316/740/9 319/741/9
f 315/742/13 320/743/13 319/744/13 316/745/13
f 317/746/11 318/747/11 320/748/11 315/749/11
f 93/750/14 92/751/14 318/752/14 317/753/14
f 214/754/11 187/755/11 188/756/11 321/757/11
f 219/758/13 218/759/13 215/760/13 214/761/13 321/762/13 322/763/13 323/764/13 324/765/13
f 325/766/4 326/767/4 322/768/4 321/769/4 188/770/4 88/771/4 87/772/4 327/773/4
f 324/774/11 186/775/11 185/776/11 219/777/11
f 328/778/6 86/779/6 85/780/6 186/781/6 324/782/6 323/783/6 329/784/6 330/785/6
f 323/786/9 322/787/9 326/788/9 329/789/9
f 325/790/13 330/791/13 329/792/13 326/793/13
f 327/794/11 328/795/11 330/796/11 325/797/11
f 87/798/14 86/799/14 328/800/14 327/801/14
f 134/802/11 132/803/11 133/804/11 331/805/11
f 168/806/13 167/807/13 135/808/13 134/809/13 331/810/13 332/811/13 333/812/13 334/813/13
f 335/814/4 336/815/4 332/816/4 331/817/4 133/818/4 58/819/4 57/820/4 337/821/4
f 334/822/11 131/823/11 130/824/11 168/825/11
f 338/826/6 56/827/6 55/828/6 131/829/6 334/830/6 333/831/6 339/832/6 340/833/6
f 333/834/9 332/835/9 336/836/9 339/837/9
f 335/838/13 340/839/13 339/840/13 336/841/13
f 337/842/11 338/843/11 340/844/11 335/845/11
f 57/846/14 56/847/14 338/848/14 337/849/14
f 169/850/11 128/851/11 129/852/11 341/853/11
f 174/854/13 173/855/13 170/856/13 169/857/13 341/858/13 342/859/13 343/860/13 344/861/13
f 345/862/4 346/863/4 342/864/4 341/865/4 129/866/4 52/867/4 51/868/4 347/869/4
f 344/870/11 127/871/11 126/872/11 174/873/11
f 348/874/6 50/875/6 49/876/6 127/877/6 344/878/6 343/879/6 349/880/6 350/881/6
f 343/882/9 342/883/9 346/884/9 349/885/9
f 345/886/13 350/887/13 349/888/13 346/889/13
f 347/890/11 348/891/11 350/892/11 345/893/11
f 51/894/14 50/895/14 348/896/14 347/897/14
f 175/898/11 124/899/11 125/900/11 351/901/11
f 180/902/13 179/903/13 176/904/13 175/905/13 351/906/13 352/907/13 353/908/13 354/909/13
f 355/910/4 356/911/4 352/912/4 351/913/4 125/914/4 46/915/4 45/916/4 357/917/4
f 354/918/11 123/919/11 122/920/11 180/921/11
f 358/922/6 44/923/6 43/924/6 123/925/6 354/926/6 353/927/6 359/928/6 360/929/6
f 353/930/9 352/931/9 356/932/9 359/933/9
f 355/934/13 360/935/13 359/936/13 356/937/13
f 357/938/11 358/939/11 360/940/11 355/941/11
f 45/942/14 44/943/14 358/944/14 357/945/14
f 181/946/11 120/947/11 121/948/11 361/949/11
f 221/950/13 220/951/13 182/952/13 181/953/13 361/954/13 362/955/13 363/956/13 364/957/13
f 365/958/4 366/959/4 362/960/4 361/961/4 121/962/4 40/963/4 39/964/4 367/965/4
f 364/966/11 119/967/11 118/968/11 221/969/11
f 368/970/6 38/971/6 37/972/6 119/973/6 364/974/6 363/975/6 369/976/6 370/977/6
f 363/978/9 362/979/9 366/980/9 369/981/9
f 365/982/13 370/983/13 369/984/13 366/985/13
f 367/986/11 368/987/11 370/988/11 365/989/11
f 39/990/14 38/991/14 368/992/14 367/993/14
f 32/994/14 75/995/14 288/996/14 287/997/14
f 164/998/9 76/999/9 32/1000/9 287/1001/9 285/1002/9 286/1003/9 282/1004/9 281/1005/9
f 26/1006/4 31/1007/4 61/1008/4 27/1009/4
f 371/1010/13 372/1011/13 373/1012/13 374/1013/13
f 375/1014/14 378/1015/14 377/1016/14 376/1017/14
f 371/1018/9 375/1019/9 376/1020/9 372/1021/9
f 372/1022/4 376/1023/4 377/1024/4 373/1025/4
f 373/1026/11 377/1027/11 378/1028/11 374/1029/11
f 375/1030/6 371/1031/6 374/1032/6 378/1033/6
f 379/1034/13 380/1035/13 381/1036/13 382/1037/13
f 383/1038/14 386/1039/14 385/1040/14 384/1041/14
f 379/1042/9 383/1043/9 384/1044/9 380/1045/9
f 380/1046/4 384/1047/4 385/1048/4 381/1049/4
f 381/1050/11 385/1051/11 386/1052/11 382/1053/11
f 383/1054/6 379/1055/6 382/1056/6 386/1057/6
f 387/1058/13 388/1059/13 389/1060/13 390/1061/13
f 391/1062/14 394/1063/14 393/1064/14 392/1065/14
f 387/1066/9 391/1067/9 392/1068/9 388/1069/9
f 388/1070/4 392/1071/4 393/1072/4 389/1073/4
f 389/1074/11 393/1075/11 394/1076/11 390/1077/11
f 391/1078/6 387/1079/6 390/1080/6 394/1081/6
f 395/1082/13 402/1083/13 401/1084/13 400/1085/13 399/1086/13 398/1087/13 397/1088/13 396/1089/13
f 403/1090/4 404/1091/4 402/1092/4 395/1093/4
f 395/1094/9 396/1095/9 405/1096/9 403/1097/9
f 396/1098/6 397/1099/6 406/1100/6 405/1101/6
f 397/1102/11 398/1103/11 408/1104/11 407/1105/11 401/1106/11 402/1107/11 404/1108/11 406/1109/11
f 403/1110/14 405/1111/14 406/1112/14 404/1113/14
f 407/1114/13 408/1115/13 462/1116/13 461/1117/13
f 400/1118/6 401/1119/6 407/1120/6 461/1121/6
f 399/1122/11 400/1123/11 461/1124/11 462/1125/11
f 462/1126/4 408/1127/4 398/1128/4 399/1129/4
f 409/1130/13 416/1131/13 415/1132/13 414/1133/13 413/1134/13 412/1135/13 411/1136/13 410/1137/13
f 417/1138/4 418/1139/4 416/1140/4 409/1141/4
f 409/1142/9 410/1143/9 419/1144/9 417/1145/9
f 410/1146/6 411/1147/6 420/1148/6 419/1149/6
f 411/1150/11 412/1151/11 422/1152/11 421/1153/11 415/1154/11 416/1155/11 418/1156/11 420/1157/11
f 417/1158/14 419/1159/14 420/1160/14 418/1161/14
f 421/1162/13 422/1163/13 460/1164/13 459/1165/13
f 414/1166/6 415/1167/6 421/1168/6 459/1169/6
f 413/1170/11 414/1171/11 459/1172/11 460/1173/11
f 460/1174/4 422/1175/4 412/1176/4 413/1177/4
f 423/1178/13 430/1179/13 429/1180/13 428/1181/13 427/1182/13 426/1183/13 425/1184/13 424/1185/13
f 431/1186/4 432/1187/4 430/1188/4 423/1189/4
f 423/1190/9 424/1191/9 433/1192/9 431/1193/9
f 424/1194/6 425/1195/6 434/1196/6 433/1197/6
f 425/1198/11 426/1199/11 436/1200/11 435/1201/11 429/1202/11 430/1203/11 432/1204/11 434/1205/11
f 431/1206/14 433/1207/14 434/1208/14 432/1209/14
f 435/1210/13 436/1211/13 466/1212/13 465/1213/13
f 428/1214/6 429/1215/6 435/1216/6 465/1217/6
f 427/1218/11 428/1219/11 465/1220/11 466/1221/11
f 466/1222/4 436/1223/4 426/1224/4 427/1225/4
f 437/1226/13 444/1227/13 443/1228/13 442/1229/13 441/1230/13 440/1231/13 439/1232/13 438/1233/13
f 445/1234/4 446/1235/4 444/1236/4 437/1237/4
f 437/1238/9 438/1239/9 447/1240/9 445/1241/9
f 438/1242/6 439/1243/6 448/1244/6 447/1245/6
f 439/1246/11 440/1247/11 450/1248/11 449/1249/11 443/1250/11 444/1251/11 446/1252/11 448/1253/11
f 445/1254/14 447/1255/14 448/1256/14 446/1257/14
f 449/1258/13 450/1259/13 464/1260/13 463/1261/13
f 442/1262/6 443/1263/6 449/1264/6 463/1265/6
f 441/1266/11 442/1267/11 463/1268/11 464/1269/11
f 464/1270/4 450/1271/4 440/1272/4 441/1273/4
f 451/1274/13 454/1275/13 453/1276/13 452/1277/13
f 455/1278/4 456/1279/4 454/1280/4 451/1281/4
f 451/1282/9 452/1283/9 457/1284/9 455/1285/9
f 452/1286/6 453/1287/6 458/1288/6 457/1289/6
f 453/1290/11 454/1291/11 456/1292/11 458/1293/11
f 455/1294/14 457/1295/14 458/1296/14 456/1297/14
f 467/1298/13 470/1299/13 469/1300/13 468/1301/13
f 471/1302/14 472/1303/14 473/1304/14 474/1305/14
f 467/1306/9 468/1307/9 472/1308/9 471/1309/9
f 468/1310/6 469/1311/6 473/1312/6 472/1313/6
f 469/1314/11 470/1315/11 474/1316/11 473/1317/11
f 471/1318/4 474/1319/4 470/1320/4 467/1321/4
f 475/1322/13 478/1323/13 477/1324/13 476/1325/13
f 479/1326/14 480/1327/14 481/1328/14 482/1329/14
f 475/1330/9 476/1331/9 480/1332/9 479/1333/9
f 476/1334/6 477/1335/6 481/1336/6 480/1337/6
f 477/1338/11 478/1339/11 482/1340/11 481/1341/11
f 479/1342/4 482/1343/4 478/1344/4 475/1345/4
f 483/1346/13 486/1347/13 485/1348/13 484/1349/13
f 487/1350/14 488/1351/14 489/1352/14 490/1353/14
f 483/1354/9 484/1355/9 488/1356/9 487/1357/9
f 484/1358/6 485/1359/6 489/1360/6 488/1361/6
f 485/1362/11 486/1363/11 490/1364/11 489/1365/11
f 487/1366/4 490/1367/4 486/1368/4 483/1369/4
l 67 62
