# Blender v2.75 (sub 0) OBJ File: 'plaza.blend'
# www.blender.org
mtllib farol_base.mtl
o Circle.012_Circle.014
v 0.220788 0.404880 -4.574553
v 0.226124 0.404880 -4.573851
v 0.231097 0.404880 -4.571791
v 0.235367 0.404880 -4.568514
v 0.238644 0.404880 -4.564244
v 0.240703 0.404880 -4.559271
v 0.241406 0.404880 -4.553935
v 0.240703 0.404880 -4.548599
v 0.238644 0.404880 -4.543626
v 0.235367 0.404880 -4.539356
v 0.231097 0.404880 -4.536079
v 0.226124 0.404880 -4.534019
v 0.220788 0.404880 -4.533317
v 0.215452 0.404880 -4.534019
v 0.210479 0.404880 -4.536079
v 0.206209 0.404880 -4.539356
v 0.202932 0.404880 -4.543626
v 0.200873 0.404880 -4.548599
v 0.200170 0.404880 -4.553935
v 0.200873 0.404880 -4.559271
v 0.202932 0.404880 -4.564244
v 0.206209 0.404880 -4.568514
v 0.210479 0.404880 -4.571791
v 0.215452 0.404880 -4.573851
v 0.215246 1.085956 -4.574616
v 0.210083 1.085956 -4.572477
v 0.205648 1.085956 -4.569075
v 0.202246 1.085956 -4.564641
v 0.200107 1.085956 -4.559477
v 0.199377 1.085956 -4.553935
v 0.200107 1.085956 -4.548393
v 0.202246 1.085956 -4.543230
v 0.205648 1.085956 -4.538795
v 0.210083 1.085956 -4.535393
v 0.215246 1.085956 -4.533254
v 0.220788 1.085956 -4.532524
v 0.226330 1.085956 -4.533254
v 0.231494 1.085956 -4.535393
v 0.235928 1.085956 -4.538795
v 0.239331 1.085956 -4.543230
v 0.241470 1.085956 -4.548393
v 0.242199 1.085956 -4.553935
v 0.241470 1.085956 -4.559477
v 0.239331 1.085956 -4.564641
v 0.235928 1.085956 -4.569075
v 0.231494 1.085956 -4.572477
v 0.226330 1.085956 -4.574616
v 0.220788 1.085956 -4.575346
v 0.220788 1.085956 -4.576018
v 0.226504 1.085956 -4.575266
v 0.231830 1.085956 -4.573060
v 0.236403 1.085956 -4.569551
v 0.239913 1.085956 -4.564977
v 0.242119 1.085956 -4.559651
v 0.242871 1.085956 -4.553935
v 0.242119 1.085956 -4.548220
v 0.239913 1.085956 -4.542893
v 0.236403 1.085956 -4.538320
v 0.231830 1.085956 -4.534810
v 0.226504 1.085956 -4.532604
v 0.220788 1.085956 -4.531852
v 0.215072 1.085956 -4.532604
v 0.209746 1.085956 -4.534810
v 0.205173 1.085956 -4.538320
v 0.201663 1.085956 -4.542893
v 0.199457 1.085956 -4.548219
v 0.198705 1.085956 -4.553935
v 0.199457 1.085956 -4.559650
v 0.201663 1.085956 -4.564977
v 0.205173 1.085956 -4.569551
v 0.209746 1.085956 -4.573060
v 0.215072 1.085956 -4.575266
v 0.215072 1.090907 -4.575266
v 0.209746 1.090907 -4.573060
v 0.205173 1.090907 -4.569551
v 0.201663 1.090907 -4.564977
v 0.199457 1.090907 -4.559650
v 0.198705 1.090907 -4.553935
v 0.199457 1.090907 -4.548219
v 0.201663 1.090907 -4.542893
v 0.205173 1.090907 -4.538320
v 0.209746 1.090907 -4.534810
v 0.215072 1.090907 -4.532604
v 0.220788 1.090907 -4.531852
v 0.226504 1.090907 -4.532604
v 0.231830 1.090907 -4.534810
v 0.236403 1.090907 -4.538320
v 0.239913 1.090907 -4.542893
v 0.242119 1.090907 -4.548220
v 0.242871 1.090907 -4.553935
v 0.242119 1.090907 -4.559651
v 0.239913 1.090907 -4.564977
v 0.236403 1.090907 -4.569551
v 0.231830 1.090907 -4.573060
v 0.226504 1.090907 -4.575266
v 0.220788 1.090907 -4.576018
v 0.220788 1.090907 -4.574414
v 0.226088 1.090907 -4.573716
v 0.231027 1.090907 -4.571670
v 0.235269 1.090907 -4.568416
v 0.238523 1.090907 -4.564175
v 0.240569 1.090907 -4.559236
v 0.241267 1.090907 -4.553935
v 0.240569 1.090907 -4.548635
v 0.238523 1.090907 -4.543695
v 0.235269 1.090907 -4.539454
v 0.231027 1.090907 -4.536200
v 0.226088 1.090907 -4.534154
v 0.220788 1.090907 -4.533456
v 0.215488 1.090907 -4.534154
v 0.210549 1.090907 -4.536200
v 0.206307 1.090907 -4.539454
v 0.203053 1.090907 -4.543695
v 0.201007 1.090907 -4.548635
v 0.200309 1.090907 -4.553935
v 0.201007 1.090907 -4.559236
v 0.203053 1.090907 -4.564175
v 0.206307 1.090907 -4.568416
v 0.210549 1.090907 -4.571670
v 0.215488 1.090907 -4.573716
v 0.215488 1.110961 -4.573716
v 0.210549 1.110961 -4.571670
v 0.206307 1.110961 -4.568416
v 0.203053 1.110961 -4.564175
v 0.201007 1.110961 -4.559236
v 0.200309 1.110961 -4.553935
v 0.201007 1.110961 -4.548635
v 0.203053 1.110961 -4.543695
v 0.206307 1.110961 -4.539454
v 0.210549 1.110961 -4.536200
v 0.215488 1.110961 -4.534154
v 0.220788 1.110961 -4.533456
v 0.226088 1.110961 -4.534154
v 0.231027 1.110961 -4.536200
v 0.235269 1.110961 -4.539454
v 0.238523 1.110961 -4.543695
v 0.240569 1.110961 -4.548635
v 0.241267 1.110961 -4.553935
v 0.240569 1.110961 -4.559236
v 0.238523 1.110961 -4.564175
v 0.235269 1.110961 -4.568416
v 0.231027 1.110961 -4.571670
v 0.226088 1.110961 -4.573716
v 0.220788 1.110961 -4.574414
v 0.220788 1.110961 -4.575369
v 0.226336 1.110961 -4.574638
v 0.231505 1.110961 -4.572497
v 0.235944 1.110961 -4.569091
v 0.239350 1.110961 -4.564652
v 0.241492 1.110961 -4.559483
v 0.242222 1.110961 -4.553935
v 0.241492 1.110961 -4.548388
v 0.239350 1.110961 -4.543218
v 0.235944 1.110961 -4.538779
v 0.231505 1.110961 -4.535373
v 0.226336 1.110961 -4.533232
v 0.220788 1.110961 -4.532501
v 0.215241 1.110961 -4.533232
v 0.210071 1.110961 -4.535373
v 0.205632 1.110961 -4.538779
v 0.202226 1.110961 -4.543218
v 0.200085 1.110961 -4.548388
v 0.199354 1.110961 -4.553935
v 0.200085 1.110961 -4.559483
v 0.202226 1.110961 -4.564652
v 0.205632 1.110961 -4.569091
v 0.210071 1.110961 -4.572497
v 0.215241 1.110961 -4.574638
v 0.215241 1.116691 -4.574638
v 0.210071 1.116691 -4.572497
v 0.205632 1.116691 -4.569091
v 0.202226 1.116691 -4.564652
v 0.200085 1.116691 -4.559483
v 0.199354 1.116691 -4.553935
v 0.200085 1.116691 -4.548388
v 0.202226 1.116691 -4.543218
v 0.205632 1.116691 -4.538779
v 0.210071 1.116691 -4.535373
v 0.215241 1.116691 -4.533232
v 0.220788 1.116691 -4.532501
v 0.226336 1.116691 -4.533232
v 0.231505 1.116691 -4.535373
v 0.235944 1.116691 -4.538779
v 0.239350 1.116691 -4.543218
v 0.241492 1.116691 -4.548388
v 0.242222 1.116691 -4.553935
v 0.241492 1.116691 -4.559483
v 0.239350 1.116691 -4.564652
v 0.235944 1.116691 -4.569091
v 0.231505 1.116691 -4.572497
v 0.226336 1.116691 -4.574638
v 0.220788 1.116691 -4.575369
v 0.220788 1.116691 -4.572903
v 0.225697 1.116691 -4.572257
v 0.230272 1.116691 -4.570362
v 0.234201 1.116691 -4.567348
v 0.237215 1.116691 -4.563419
v 0.239110 1.116691 -4.558845
v 0.239756 1.116691 -4.553935
v 0.239110 1.116691 -4.549026
v 0.237215 1.116691 -4.544451
v 0.234201 1.116691 -4.540523
v 0.230272 1.116691 -4.537508
v 0.225697 1.116691 -4.535613
v 0.220788 1.116691 -4.534967
v 0.215879 1.116691 -4.535613
v 0.211304 1.116691 -4.537508
v 0.207376 1.116691 -4.540523
v 0.204361 1.116691 -4.544451
v 0.202466 1.116691 -4.549026
v 0.201820 1.116691 -4.553935
v 0.202466 1.116691 -4.558845
v 0.204361 1.116691 -4.563419
v 0.207376 1.116691 -4.567348
v 0.211304 1.116691 -4.570362
v 0.215879 1.116691 -4.572257
v 0.215879 1.177809 -4.572257
v 0.211304 1.177809 -4.570362
v 0.207376 1.177809 -4.567348
v 0.204361 1.177809 -4.563419
v 0.202466 1.177809 -4.558845
v 0.201820 1.177809 -4.553935
v 0.202466 1.177809 -4.549026
v 0.204361 1.177809 -4.544451
v 0.207376 1.177809 -4.540523
v 0.211304 1.177809 -4.537508
v 0.215879 1.177809 -4.535613
v 0.220788 1.177809 -4.534967
v 0.225697 1.177809 -4.535613
v 0.230272 1.177809 -4.537508
v 0.234201 1.177809 -4.540523
v 0.237215 1.177809 -4.544451
v 0.239110 1.177809 -4.549026
v 0.239756 1.177809 -4.553935
v 0.239110 1.177809 -4.558845
v 0.237215 1.177809 -4.563419
v 0.234201 1.177809 -4.567348
v 0.230272 1.177809 -4.570362
v 0.225697 1.177809 -4.572257
v 0.220788 1.177809 -4.572903
v 0.214426 1.072392 -4.577680
v 0.220788 1.072392 -4.578517
v 0.208497 1.072392 -4.575224
v 0.203406 1.072392 -4.571318
v 0.199499 1.072392 -4.566226
v 0.197043 1.072392 -4.560297
v 0.196206 1.072392 -4.553935
v 0.197043 1.072392 -4.547573
v 0.199499 1.072392 -4.541644
v 0.203406 1.072392 -4.536552
v 0.208497 1.072392 -4.532646
v 0.214426 1.072392 -4.530190
v 0.220788 1.072392 -4.529353
v 0.227150 1.072392 -4.530190
v 0.233079 1.072392 -4.532646
v 0.238171 1.072392 -4.536552
v 0.242077 1.072392 -4.541644
v 0.244533 1.072392 -4.547573
v 0.245371 1.072392 -4.553935
v 0.244533 1.072392 -4.560297
v 0.242077 1.072392 -4.566226
v 0.238171 1.072392 -4.571318
v 0.233079 1.072392 -4.575224
v 0.227150 1.072392 -4.577680
v 0.215309 1.072828 -4.574385
v 0.220788 1.072828 -4.575106
v 0.210203 1.072828 -4.572269
v 0.205818 1.072828 -4.568905
v 0.202454 1.072828 -4.564520
v 0.200339 1.072828 -4.559414
v 0.199617 1.072828 -4.553935
v 0.200339 1.072828 -4.548456
v 0.202454 1.072828 -4.543350
v 0.205818 1.072828 -4.538965
v 0.210203 1.072828 -4.535601
v 0.215309 1.072828 -4.533485
v 0.220788 1.072828 -4.532764
v 0.226267 1.072828 -4.533485
v 0.231373 1.072828 -4.535601
v 0.235758 1.072828 -4.538965
v 0.239123 1.072828 -4.543350
v 0.241237 1.072828 -4.548456
v 0.241959 1.072828 -4.553935
v 0.241237 1.072828 -4.559414
v 0.239123 1.072828 -4.564520
v 0.235758 1.072828 -4.568905
v 0.231373 1.072828 -4.572269
v 0.226267 1.072828 -4.574385
v 0.214426 1.062807 -4.577680
v 0.220788 1.062807 -4.578517
v 0.208497 1.062807 -4.575224
v 0.203406 1.062807 -4.571318
v 0.199499 1.062807 -4.566226
v 0.197043 1.062807 -4.560297
v 0.196206 1.062807 -4.553935
v 0.197043 1.062807 -4.547573
v 0.199499 1.062807 -4.541644
v 0.203406 1.062807 -4.536552
v 0.208497 1.062807 -4.532646
v 0.214426 1.062807 -4.530190
v 0.220788 1.062807 -4.529353
v 0.227150 1.062807 -4.530190
v 0.233079 1.062807 -4.532646
v 0.238171 1.062807 -4.536552
v 0.242077 1.062807 -4.541644
v 0.244533 1.062807 -4.547573
v 0.245371 1.062807 -4.553935
v 0.244533 1.062807 -4.560297
v 0.242077 1.062807 -4.566226
v 0.238171 1.062807 -4.571318
v 0.233079 1.062807 -4.575224
v 0.227150 1.062807 -4.577680
v 0.215452 1.063241 -4.573851
v 0.220788 1.063241 -4.574553
v 0.210479 1.063241 -4.571791
v 0.206209 1.063241 -4.568514
v 0.202932 1.063241 -4.564244
v 0.200873 1.063241 -4.559271
v 0.200170 1.063241 -4.553935
v 0.200873 1.063241 -4.548599
v 0.202932 1.063241 -4.543626
v 0.206209 1.063241 -4.539356
v 0.210479 1.063241 -4.536079
v 0.215452 1.063241 -4.534019
v 0.220788 1.063241 -4.533317
v 0.226124 1.063241 -4.534019
v 0.231097 1.063241 -4.536079
v 0.235367 1.063241 -4.539356
v 0.238644 1.063241 -4.543626
v 0.240703 1.063241 -4.548599
v 0.241406 1.063241 -4.553935
v 0.240703 1.063241 -4.559271
v 0.238644 1.063241 -4.564244
v 0.235367 1.063241 -4.568514
v 0.231097 1.063241 -4.571791
v 0.226124 1.063241 -4.573851
v 0.209771 0.388970 -4.595051
v 0.199505 0.388970 -4.590799
v 0.190689 0.388970 -4.584034
v 0.183924 0.388970 -4.575218
v 0.179672 0.388970 -4.564952
v 0.178222 0.388970 -4.553935
v 0.179672 0.388970 -4.542918
v 0.183924 0.388970 -4.532652
v 0.190689 0.388970 -4.523836
v 0.199505 0.388970 -4.517071
v 0.209771 0.388970 -4.512819
v 0.220788 0.388970 -4.511368
v 0.231805 0.388970 -4.512819
v 0.242071 0.388970 -4.517071
v 0.250887 0.388970 -4.523836
v 0.257652 0.388970 -4.532652
v 0.261904 0.388970 -4.542918
v 0.263355 0.388970 -4.553935
v 0.261904 0.388970 -4.564952
v 0.257652 0.388970 -4.575218
v 0.250887 0.388970 -4.584034
v 0.242071 0.388970 -4.590799
v 0.231805 0.388970 -4.595051
v 0.220788 0.388970 -4.596502
v 0.220788 0.374502 -4.596502
v 0.231805 0.374502 -4.595051
v 0.242071 0.374502 -4.590799
v 0.250887 0.374502 -4.584034
v 0.257652 0.374502 -4.575218
v 0.261904 0.374502 -4.564952
v 0.263355 0.374502 -4.553935
v 0.261904 0.374502 -4.542918
v 0.257652 0.374502 -4.532652
v 0.250887 0.374502 -4.523836
v 0.242071 0.374502 -4.517071
v 0.231805 0.374502 -4.512819
v 0.220788 0.374502 -4.511368
v 0.209771 0.374502 -4.512819
v 0.199505 0.374502 -4.517071
v 0.190689 0.374502 -4.523836
v 0.183924 0.374502 -4.532652
v 0.179672 0.374502 -4.542918
v 0.178222 0.374502 -4.553935
v 0.179672 0.374502 -4.564952
v 0.183924 0.374502 -4.575218
v 0.190689 0.374502 -4.584034
v 0.199505 0.374502 -4.590799
v 0.209771 0.374502 -4.595051
v 0.208590 0.374502 -4.599457
v 0.197224 0.374502 -4.594749
v 0.187463 0.374502 -4.587260
v 0.179974 0.374502 -4.577499
v 0.175266 0.374502 -4.566133
v 0.173660 0.374502 -4.553935
v 0.175266 0.374502 -4.541738
v 0.179974 0.374502 -4.530371
v 0.187463 0.374502 -4.520610
v 0.197224 0.374502 -4.513121
v 0.208590 0.374502 -4.508413
v 0.220788 0.374502 -4.506807
v 0.232986 0.374502 -4.508413
v 0.244352 0.374502 -4.513121
v 0.254113 0.374502 -4.520610
v 0.261602 0.374502 -4.530371
v 0.266310 0.374502 -4.541738
v 0.267916 0.374502 -4.553935
v 0.266310 0.374502 -4.566133
v 0.261602 0.374502 -4.577499
v 0.254113 0.374502 -4.587260
v 0.244352 0.374502 -4.594749
v 0.232986 0.374502 -4.599457
v 0.220788 0.374502 -4.601063
v 0.220788 0.362665 -4.601063
v 0.232986 0.362665 -4.599457
v 0.244352 0.362665 -4.594749
v 0.254113 0.362665 -4.587260
v 0.261602 0.362665 -4.577499
v 0.266310 0.362665 -4.566133
v 0.267916 0.362665 -4.553935
v 0.266310 0.362665 -4.541738
v 0.261602 0.362665 -4.530371
v 0.254113 0.362665 -4.520610
v 0.244352 0.362665 -4.513121
v 0.232986 0.362665 -4.508413
v 0.220788 0.362665 -4.506807
v 0.208590 0.362665 -4.508413
v 0.197224 0.362665 -4.513121
v 0.187463 0.362665 -4.520610
v 0.179974 0.362665 -4.530371
v 0.175266 0.362665 -4.541738
v 0.173660 0.362665 -4.553935
v 0.175266 0.362665 -4.566133
v 0.179974 0.362665 -4.577499
v 0.187463 0.362665 -4.587260
v 0.197224 0.362665 -4.594749
v 0.208590 0.362665 -4.599457
v 0.209955 0.362665 -4.594365
v 0.199860 0.362665 -4.590183
v 0.191192 0.362665 -4.583531
v 0.184540 0.362665 -4.574863
v 0.180359 0.362665 -4.564768
v 0.178932 0.362665 -4.553935
v 0.180359 0.362665 -4.543102
v 0.184540 0.362665 -4.533007
v 0.191192 0.362665 -4.524339
v 0.199860 0.362665 -4.517687
v 0.209955 0.362665 -4.513505
v 0.220788 0.362665 -4.512079
v 0.231621 0.362665 -4.513505
v 0.241716 0.362665 -4.517687
v 0.250385 0.362665 -4.524339
v 0.257036 0.362665 -4.533007
v 0.261218 0.362665 -4.543102
v 0.262644 0.362665 -4.553935
v 0.261218 0.362665 -4.564768
v 0.257036 0.362665 -4.574863
v 0.250385 0.362665 -4.583531
v 0.241716 0.362665 -4.590183
v 0.231621 0.362665 -4.594365
v 0.220788 0.362665 -4.595791
v 0.220788 0.316630 -4.595791
v 0.231621 0.316630 -4.594365
v 0.241716 0.316630 -4.590183
v 0.250385 0.316630 -4.583531
v 0.257036 0.316630 -4.574863
v 0.261218 0.316630 -4.564768
v 0.262644 0.316630 -4.553935
v 0.261218 0.316630 -4.543102
v 0.257036 0.316630 -4.533007
v 0.250385 0.316630 -4.524339
v 0.241716 0.316630 -4.517687
v 0.231621 0.316630 -4.513505
v 0.220788 0.316630 -4.512079
v 0.209955 0.316630 -4.513505
v 0.199860 0.316630 -4.517687
v 0.191192 0.316630 -4.524339
v 0.184540 0.316630 -4.533007
v 0.180359 0.316630 -4.543102
v 0.178932 0.316630 -4.553935
v 0.180359 0.316630 -4.564768
v 0.184540 0.316630 -4.574863
v 0.191192 0.316630 -4.583531
v 0.199860 0.316630 -4.590183
v 0.209955 0.316630 -4.594365
v 0.208770 0.316630 -4.598787
v 0.197571 0.316630 -4.594148
v 0.187954 0.316630 -4.586769
v 0.180575 0.316630 -4.577152
v 0.175936 0.316630 -4.565953
v 0.174354 0.316630 -4.553935
v 0.175936 0.316630 -4.541917
v 0.180575 0.316630 -4.530718
v 0.187954 0.316630 -4.521101
v 0.197571 0.316630 -4.513722
v 0.208770 0.316630 -4.509083
v 0.220788 0.316630 -4.507501
v 0.232806 0.316630 -4.509083
v 0.244005 0.316630 -4.513722
v 0.253622 0.316630 -4.521101
v 0.261001 0.316630 -4.530718
v 0.265640 0.316630 -4.541917
v 0.267222 0.316630 -4.553935
v 0.265640 0.316630 -4.565953
v 0.261001 0.316630 -4.577152
v 0.253622 0.316630 -4.586769
v 0.244005 0.316630 -4.594148
v 0.232806 0.316630 -4.598787
v 0.220788 0.316630 -4.600369
v 0.220788 0.306108 -4.600369
v 0.232806 0.306108 -4.598787
v 0.244005 0.306108 -4.594148
v 0.253622 0.306108 -4.586769
v 0.261001 0.306108 -4.577152
v 0.265640 0.306108 -4.565953
v 0.267222 0.306108 -4.553935
v 0.265640 0.306108 -4.541917
v 0.261001 0.306108 -4.530718
v 0.253622 0.306108 -4.521101
v 0.244005 0.306108 -4.513722
v 0.232806 0.306108 -4.509083
v 0.220788 0.306108 -4.507501
v 0.208770 0.306108 -4.509083
v 0.197571 0.306108 -4.513722
v 0.187954 0.306108 -4.521101
v 0.180575 0.306108 -4.530718
v 0.175936 0.306108 -4.541917
v 0.174354 0.306108 -4.553935
v 0.175936 0.306108 -4.565953
v 0.180575 0.306108 -4.577152
v 0.187954 0.306108 -4.586769
v 0.197571 0.306108 -4.594148
v 0.208770 0.306108 -4.598787
v 0.210103 0.306108 -4.593812
v 0.200146 0.306108 -4.589687
v 0.191596 0.306108 -4.583127
v 0.185036 0.306108 -4.574577
v 0.180911 0.306108 -4.564620
v 0.179505 0.306108 -4.553935
v 0.180911 0.306108 -4.543250
v 0.185036 0.306108 -4.533293
v 0.191596 0.306108 -4.524743
v 0.200146 0.306108 -4.518183
v 0.210103 0.306108 -4.514059
v 0.220788 0.306108 -4.512652
v 0.231473 0.306108 -4.514059
v 0.241430 0.306108 -4.518183
v 0.249980 0.306108 -4.524743
v 0.256541 0.306108 -4.533293
v 0.260665 0.306108 -4.543250
v 0.262071 0.306108 -4.553935
v 0.260665 0.306108 -4.564620
v 0.256541 0.306108 -4.574577
v 0.249980 0.306108 -4.583127
v 0.241430 0.306108 -4.589687
v 0.231473 0.306108 -4.593812
v 0.220788 0.306108 -4.595218
v 0.220788 0.098296 -4.595218
v 0.231473 0.098296 -4.593812
v 0.241430 0.098296 -4.589687
v 0.249980 0.098296 -4.583127
v 0.256541 0.098296 -4.574577
v 0.260665 0.098296 -4.564620
v 0.262071 0.098296 -4.553935
v 0.260665 0.098296 -4.543250
v 0.256541 0.098296 -4.533293
v 0.249980 0.098296 -4.524743
v 0.241430 0.098296 -4.518183
v 0.231473 0.098296 -4.514059
v 0.220788 0.098296 -4.512652
v 0.210103 0.098296 -4.514059
v 0.200146 0.098296 -4.518183
v 0.191596 0.098296 -4.524743
v 0.185036 0.098296 -4.533293
v 0.180911 0.098296 -4.543250
v 0.179505 0.098296 -4.553935
v 0.180911 0.098296 -4.564620
v 0.185036 0.098296 -4.574577
v 0.191596 0.098296 -4.583127
v 0.200146 0.098296 -4.589687
v 0.210103 0.098296 -4.593812
v 0.207301 0.090405 -4.604268
v 0.194734 0.090405 -4.599062
v 0.183942 0.090405 -4.590781
v 0.175661 0.090405 -4.579989
v 0.170455 0.090405 -4.567421
v 0.168680 0.090405 -4.553935
v 0.170455 0.090405 -4.540448
v 0.175661 0.090405 -4.527881
v 0.183942 0.090405 -4.517089
v 0.194734 0.090405 -4.508808
v 0.207301 0.090405 -4.503603
v 0.220788 0.090405 -4.501827
v 0.234275 0.090405 -4.503603
v 0.246842 0.090405 -4.508808
v 0.257634 0.090405 -4.517089
v 0.265915 0.090405 -4.527881
v 0.271121 0.090405 -4.540449
v 0.272896 0.090405 -4.553935
v 0.271121 0.090405 -4.567421
v 0.265915 0.090405 -4.579989
v 0.257634 0.090405 -4.590781
v 0.246842 0.090405 -4.599062
v 0.234275 0.090405 -4.604268
v 0.220788 0.090405 -4.606043
v 0.220788 0.039109 -4.606043
v 0.234275 0.039109 -4.604268
v 0.246842 0.039109 -4.599062
v 0.257634 0.039109 -4.590781
v 0.265915 0.039109 -4.579989
v 0.271121 0.039109 -4.567421
v 0.272896 0.039109 -4.553935
v 0.271121 0.039109 -4.540449
v 0.265915 0.039109 -4.527881
v 0.257634 0.039109 -4.517089
v 0.246842 0.039109 -4.508808
v 0.234275 0.039109 -4.503603
v 0.220788 0.039109 -4.501827
v 0.207301 0.039109 -4.503603
v 0.194734 0.039109 -4.508808
v 0.183942 0.039109 -4.517089
v 0.175661 0.039109 -4.527881
v 0.170455 0.039109 -4.540448
v 0.168680 0.039109 -4.553935
v 0.170455 0.039109 -4.567421
v 0.175661 0.039109 -4.579989
v 0.183942 0.039109 -4.590781
v 0.194734 0.039109 -4.599062
v 0.207301 0.039109 -4.604268
v 0.210969 0.039109 -4.590580
v 0.201819 0.039109 -4.586790
v 0.193962 0.039109 -4.580760
v 0.187934 0.039109 -4.572904
v 0.184144 0.039109 -4.563754
v 0.182851 0.039109 -4.553935
v 0.184144 0.039109 -4.544116
v 0.187934 0.039109 -4.534966
v 0.193962 0.039109 -4.527110
v 0.201820 0.039109 -4.521080
v 0.210969 0.039109 -4.517291
v 0.220788 0.039109 -4.515998
v 0.230607 0.039109 -4.517291
v 0.239757 0.039109 -4.521080
v 0.247614 0.039109 -4.527110
v 0.253643 0.039109 -4.534966
v 0.257432 0.039109 -4.544116
v 0.258725 0.039109 -4.553935
v 0.257432 0.039109 -4.563754
v 0.253643 0.039109 -4.572904
v 0.247614 0.039109 -4.580760
v 0.239757 0.039109 -4.586790
v 0.230607 0.039109 -4.590580
v 0.220788 0.039109 -4.591872
v 0.220788 0.039109 -4.553935
v 0.220788 0.404880 -4.574553
v 0.226124 0.404880 -4.573851
v 0.231097 0.404880 -4.571791
v 0.235367 0.404880 -4.568514
v 0.238644 0.404880 -4.564244
v 0.240703 0.404880 -4.559271
v 0.241406 0.404880 -4.553935
v 0.240703 0.404880 -4.548599
v 0.238644 0.404880 -4.543626
v 0.235367 0.404880 -4.539356
v 0.231097 0.404880 -4.536079
v 0.226124 0.404880 -4.534019
v 0.220788 0.404880 -4.533317
v 0.215452 0.404880 -4.534019
v 0.210479 0.404880 -4.536079
v 0.206209 0.404880 -4.539356
v 0.202932 0.404880 -4.543626
v 0.200873 0.404880 -4.548599
v 0.200170 0.404880 -4.553935
v 0.200873 0.404880 -4.559271
v 0.202932 0.404880 -4.564244
v 0.206209 0.404880 -4.568514
v 0.210479 0.404880 -4.571791
v 0.215452 0.404880 -4.573851
v 0.215246 1.085956 -4.574616
v 0.220788 1.085956 -4.575346
v 0.210083 1.085956 -4.572477
v 0.205648 1.085956 -4.569075
v 0.202246 1.085956 -4.564641
v 0.200107 1.085956 -4.559477
v 0.199377 1.085956 -4.553935
v 0.200107 1.085956 -4.548393
v 0.202246 1.085956 -4.543230
v 0.205648 1.085956 -4.538795
v 0.210083 1.085956 -4.535393
v 0.215246 1.085956 -4.533254
v 0.220788 1.085956 -4.532524
v 0.226330 1.085956 -4.533254
v 0.231494 1.085956 -4.535393
v 0.235928 1.085956 -4.538795
v 0.239331 1.085956 -4.543230
v 0.241470 1.085956 -4.548393
v 0.242199 1.085956 -4.553935
v 0.241470 1.085956 -4.559477
v 0.239331 1.085956 -4.564641
v 0.235928 1.085956 -4.569075
v 0.231494 1.085956 -4.572477
v 0.226330 1.085956 -4.574616
v 0.220788 1.085956 -4.576018
v 0.226504 1.085956 -4.575266
v 0.231830 1.085956 -4.573060
v 0.236403 1.085956 -4.569551
v 0.239913 1.085956 -4.564977
v 0.242119 1.085956 -4.559651
v 0.242871 1.085956 -4.553935
v 0.242119 1.085956 -4.548220
v 0.239913 1.085956 -4.542893
v 0.236403 1.085956 -4.538320
v 0.231830 1.085956 -4.534810
v 0.226504 1.085956 -4.532604
v 0.220788 1.085956 -4.531852
v 0.215072 1.085956 -4.532604
v 0.209746 1.085956 -4.534810
v 0.205173 1.085956 -4.538320
v 0.201663 1.085956 -4.542893
v 0.199457 1.085956 -4.548219
v 0.198705 1.085956 -4.553935
v 0.199457 1.085956 -4.559650
v 0.201663 1.085956 -4.564977
v 0.205173 1.085956 -4.569551
v 0.209746 1.085956 -4.573060
v 0.215072 1.085956 -4.575266
v 0.215072 1.090907 -4.575266
v 0.220788 1.090907 -4.576018
v 0.209746 1.090907 -4.573060
v 0.205173 1.090907 -4.569551
v 0.201663 1.090907 -4.564977
v 0.199457 1.090907 -4.559650
v 0.198705 1.090907 -4.553935
v 0.199457 1.090907 -4.548219
v 0.201663 1.090907 -4.542893
v 0.205173 1.090907 -4.538320
v 0.209746 1.090907 -4.534810
v 0.215072 1.090907 -4.532604
v 0.220788 1.090907 -4.531852
v 0.226504 1.090907 -4.532604
v 0.231830 1.090907 -4.534810
v 0.236403 1.090907 -4.538320
v 0.239913 1.090907 -4.542893
v 0.242119 1.090907 -4.548220
v 0.242871 1.090907 -4.553935
v 0.242119 1.090907 -4.559651
v 0.239913 1.090907 -4.564977
v 0.236403 1.090907 -4.569551
v 0.231830 1.090907 -4.573060
v 0.226504 1.090907 -4.575266
v 0.220788 1.090907 -4.574414
v 0.226088 1.090907 -4.573716
v 0.231027 1.090907 -4.571670
v 0.235269 1.090907 -4.568416
v 0.238523 1.090907 -4.564175
v 0.240569 1.090907 -4.559236
v 0.241267 1.090907 -4.553935
v 0.240569 1.090907 -4.548635
v 0.238523 1.090907 -4.543695
v 0.235269 1.090907 -4.539454
v 0.231027 1.090907 -4.536200
v 0.226088 1.090907 -4.534154
v 0.220788 1.090907 -4.533456
v 0.215488 1.090907 -4.534154
v 0.210549 1.090907 -4.536200
v 0.206307 1.090907 -4.539454
v 0.203053 1.090907 -4.543695
v 0.201007 1.090907 -4.548635
v 0.200309 1.090907 -4.553935
v 0.201007 1.090907 -4.559236
v 0.203053 1.090907 -4.564175
v 0.206307 1.090907 -4.568416
v 0.210549 1.090907 -4.571670
v 0.215488 1.090907 -4.573716
v 0.215488 1.110961 -4.573716
v 0.220788 1.110961 -4.574414
v 0.210549 1.110961 -4.571670
v 0.206307 1.110961 -4.568416
v 0.203053 1.110961 -4.564175
v 0.201007 1.110961 -4.559236
v 0.200309 1.110961 -4.553935
v 0.201007 1.110961 -4.548635
v 0.203053 1.110961 -4.543695
v 0.206307 1.110961 -4.539454
v 0.210549 1.110961 -4.536200
v 0.215488 1.110961 -4.534154
v 0.220788 1.110961 -4.533456
v 0.226088 1.110961 -4.534154
v 0.231027 1.110961 -4.536200
v 0.235269 1.110961 -4.539454
v 0.238523 1.110961 -4.543695
v 0.240569 1.110961 -4.548635
v 0.241267 1.110961 -4.553935
v 0.240569 1.110961 -4.559236
v 0.238523 1.110961 -4.564175
v 0.235269 1.110961 -4.568416
v 0.231027 1.110961 -4.571670
v 0.226088 1.110961 -4.573716
v 0.220788 1.110961 -4.575369
v 0.226336 1.110961 -4.574638
v 0.231505 1.110961 -4.572497
v 0.235944 1.110961 -4.569091
v 0.239350 1.110961 -4.564652
v 0.241492 1.110961 -4.559483
v 0.242222 1.110961 -4.553935
v 0.241492 1.110961 -4.548388
v 0.239350 1.110961 -4.543218
v 0.235944 1.110961 -4.538779
v 0.231505 1.110961 -4.535373
v 0.226336 1.110961 -4.533232
v 0.220788 1.110961 -4.532501
v 0.215241 1.110961 -4.533232
v 0.210071 1.110961 -4.535373
v 0.205632 1.110961 -4.538779
v 0.202226 1.110961 -4.543218
v 0.200085 1.110961 -4.548388
v 0.199354 1.110961 -4.553935
v 0.200085 1.110961 -4.559483
v 0.202226 1.110961 -4.564652
v 0.205632 1.110961 -4.569091
v 0.210071 1.110961 -4.572497
v 0.215241 1.110961 -4.574638
v 0.215241 1.116691 -4.574638
v 0.220788 1.116691 -4.575369
v 0.210071 1.116691 -4.572497
v 0.205632 1.116691 -4.569091
v 0.202226 1.116691 -4.564652
v 0.200085 1.116691 -4.559483
v 0.199354 1.116691 -4.553935
v 0.200085 1.116691 -4.548388
v 0.202226 1.116691 -4.543218
v 0.205632 1.116691 -4.538779
v 0.210071 1.116691 -4.535373
v 0.215241 1.116691 -4.533232
v 0.220788 1.116691 -4.532501
v 0.226336 1.116691 -4.533232
v 0.231505 1.116691 -4.535373
v 0.235944 1.116691 -4.538779
v 0.239350 1.116691 -4.543218
v 0.241492 1.116691 -4.548388
v 0.242222 1.116691 -4.553935
v 0.241492 1.116691 -4.559483
v 0.239350 1.116691 -4.564652
v 0.235944 1.116691 -4.569091
v 0.231505 1.116691 -4.572497
v 0.226336 1.116691 -4.574638
v 0.220788 1.116691 -4.572903
v 0.225697 1.116691 -4.572257
v 0.230272 1.116691 -4.570362
v 0.234201 1.116691 -4.567348
v 0.237215 1.116691 -4.563419
v 0.239110 1.116691 -4.558845
v 0.239756 1.116691 -4.553935
v 0.239110 1.116691 -4.549026
v 0.237215 1.116691 -4.544451
v 0.234201 1.116691 -4.540523
v 0.230272 1.116691 -4.537508
v 0.225697 1.116691 -4.535613
v 0.220788 1.116691 -4.534967
v 0.215879 1.116691 -4.535613
v 0.211304 1.116691 -4.537508
v 0.207376 1.116691 -4.540523
v 0.204361 1.116691 -4.544451
v 0.202466 1.116691 -4.549026
v 0.201820 1.116691 -4.553935
v 0.202466 1.116691 -4.558845
v 0.204361 1.116691 -4.563419
v 0.207376 1.116691 -4.567348
v 0.211304 1.116691 -4.570362
v 0.215879 1.116691 -4.572257
v 0.214426 1.072392 -4.577680
v 0.220788 1.072392 -4.578517
v 0.208497 1.072392 -4.575224
v 0.203406 1.072392 -4.571318
v 0.199499 1.072392 -4.566226
v 0.197043 1.072392 -4.560297
v 0.196206 1.072392 -4.553935
v 0.197043 1.072392 -4.547573
v 0.199499 1.072392 -4.541644
v 0.203406 1.072392 -4.536552
v 0.208497 1.072392 -4.532646
v 0.214426 1.072392 -4.530190
v 0.220788 1.072392 -4.529353
v 0.227150 1.072392 -4.530190
v 0.233079 1.072392 -4.532646
v 0.238171 1.072392 -4.536552
v 0.242077 1.072392 -4.541644
v 0.244533 1.072392 -4.547573
v 0.245371 1.072392 -4.553935
v 0.244533 1.072392 -4.560297
v 0.242077 1.072392 -4.566226
v 0.238171 1.072392 -4.571318
v 0.233079 1.072392 -4.575224
v 0.227150 1.072392 -4.577680
v 0.215309 1.072828 -4.574385
v 0.220788 1.072828 -4.575106
v 0.210203 1.072828 -4.572269
v 0.205818 1.072828 -4.568905
v 0.202454 1.072828 -4.564520
v 0.200339 1.072828 -4.559414
v 0.199617 1.072828 -4.553935
v 0.200339 1.072828 -4.548456
v 0.202454 1.072828 -4.543350
v 0.205818 1.072828 -4.538965
v 0.210203 1.072828 -4.535601
v 0.215309 1.072828 -4.533485
v 0.220788 1.072828 -4.532764
v 0.226267 1.072828 -4.533485
v 0.231373 1.072828 -4.535601
v 0.235758 1.072828 -4.538965
v 0.239123 1.072828 -4.543350
v 0.241237 1.072828 -4.548456
v 0.241959 1.072828 -4.553935
v 0.241237 1.072828 -4.559414
v 0.239123 1.072828 -4.564520
v 0.235758 1.072828 -4.568905
v 0.231373 1.072828 -4.572269
v 0.226267 1.072828 -4.574385
v 0.214426 1.062807 -4.577680
v 0.220788 1.062807 -4.578517
v 0.208497 1.062807 -4.575224
v 0.203406 1.062807 -4.571318
v 0.199499 1.062807 -4.566226
v 0.197043 1.062807 -4.560297
v 0.196206 1.062807 -4.553935
v 0.197043 1.062807 -4.547573
v 0.199499 1.062807 -4.541644
v 0.203406 1.062807 -4.536552
v 0.208497 1.062807 -4.532646
v 0.214426 1.062807 -4.530190
v 0.220788 1.062807 -4.529353
v 0.227150 1.062807 -4.530190
v 0.233079 1.062807 -4.532646
v 0.238171 1.062807 -4.536552
v 0.242077 1.062807 -4.541644
v 0.244533 1.062807 -4.547573
v 0.245371 1.062807 -4.553935
v 0.244533 1.062807 -4.560297
v 0.242077 1.062807 -4.566226
v 0.238171 1.062807 -4.571318
v 0.233079 1.062807 -4.575224
v 0.227150 1.062807 -4.577680
v 0.215452 1.063241 -4.573851
v 0.220788 1.063241 -4.574553
v 0.210479 1.063241 -4.571791
v 0.206209 1.063241 -4.568514
v 0.202932 1.063241 -4.564244
v 0.200873 1.063241 -4.559271
v 0.200170 1.063241 -4.553935
v 0.200873 1.063241 -4.548599
v 0.202932 1.063241 -4.543626
v 0.206209 1.063241 -4.539356
v 0.210479 1.063241 -4.536079
v 0.215452 1.063241 -4.534019
v 0.220788 1.063241 -4.533317
v 0.226124 1.063241 -4.534019
v 0.231097 1.063241 -4.536079
v 0.235367 1.063241 -4.539356
v 0.238644 1.063241 -4.543626
v 0.240703 1.063241 -4.548599
v 0.241406 1.063241 -4.553935
v 0.240703 1.063241 -4.559271
v 0.238644 1.063241 -4.564244
v 0.235367 1.063241 -4.568514
v 0.231097 1.063241 -4.571791
v 0.226124 1.063241 -4.573851
v 0.220788 0.388970 -4.596502
v 0.209771 0.388970 -4.595051
v 0.199505 0.388970 -4.590799
v 0.190689 0.388970 -4.584034
v 0.183924 0.388970 -4.575218
v 0.179672 0.388970 -4.564952
v 0.178222 0.388970 -4.553935
v 0.179672 0.388970 -4.542918
v 0.183924 0.388970 -4.532652
v 0.190689 0.388970 -4.523836
v 0.199505 0.388970 -4.517071
v 0.209771 0.388970 -4.512819
v 0.220788 0.388970 -4.511368
v 0.231805 0.388970 -4.512819
v 0.242071 0.388970 -4.517071
v 0.250887 0.388970 -4.523836
v 0.257652 0.388970 -4.532652
v 0.261904 0.388970 -4.542918
v 0.263355 0.388970 -4.553935
v 0.261904 0.388970 -4.564952
v 0.257652 0.388970 -4.575218
v 0.250887 0.388970 -4.584034
v 0.242071 0.388970 -4.590799
v 0.231805 0.388970 -4.595051
v 0.220788 0.374502 -4.596502
v 0.231805 0.374502 -4.595051
v 0.242071 0.374502 -4.590799
v 0.250887 0.374502 -4.584034
v 0.257652 0.374502 -4.575218
v 0.261904 0.374502 -4.564952
v 0.263355 0.374502 -4.553935
v 0.261904 0.374502 -4.542918
v 0.257652 0.374502 -4.532652
v 0.250887 0.374502 -4.523836
v 0.242071 0.374502 -4.517071
v 0.231805 0.374502 -4.512819
v 0.220788 0.374502 -4.511368
v 0.209771 0.374502 -4.512819
v 0.199505 0.374502 -4.517071
v 0.190689 0.374502 -4.523836
v 0.183924 0.374502 -4.532652
v 0.179672 0.374502 -4.542918
v 0.178222 0.374502 -4.553935
v 0.179672 0.374502 -4.564952
v 0.183924 0.374502 -4.575218
v 0.190689 0.374502 -4.584034
v 0.199505 0.374502 -4.590799
v 0.209771 0.374502 -4.595051
v 0.208590 0.374502 -4.599457
v 0.220788 0.374502 -4.601063
v 0.197224 0.374502 -4.594749
v 0.187463 0.374502 -4.587260
v 0.179974 0.374502 -4.577499
v 0.175266 0.374502 -4.566133
v 0.173660 0.374502 -4.553935
v 0.175266 0.374502 -4.541738
v 0.179974 0.374502 -4.530371
v 0.187463 0.374502 -4.520610
v 0.197224 0.374502 -4.513121
v 0.208590 0.374502 -4.508413
v 0.220788 0.374502 -4.506807
v 0.232986 0.374502 -4.508413
v 0.244352 0.374502 -4.513121
v 0.254113 0.374502 -4.520610
v 0.261602 0.374502 -4.530371
v 0.266310 0.374502 -4.541738
v 0.267916 0.374502 -4.553935
v 0.266310 0.374502 -4.566133
v 0.261602 0.374502 -4.577499
v 0.254113 0.374502 -4.587260
v 0.244352 0.374502 -4.594749
v 0.232986 0.374502 -4.599457
v 0.220788 0.362665 -4.601063
v 0.232986 0.362665 -4.599457
v 0.244352 0.362665 -4.594749
v 0.254113 0.362665 -4.587260
v 0.261602 0.362665 -4.577499
v 0.266310 0.362665 -4.566133
v 0.267916 0.362665 -4.553935
v 0.266310 0.362665 -4.541738
v 0.261602 0.362665 -4.530371
v 0.254113 0.362665 -4.520610
v 0.244352 0.362665 -4.513121
v 0.232986 0.362665 -4.508413
v 0.220788 0.362665 -4.506807
v 0.208590 0.362665 -4.508413
v 0.197224 0.362665 -4.513121
v 0.187463 0.362665 -4.520610
v 0.179974 0.362665 -4.530371
v 0.175266 0.362665 -4.541738
v 0.173660 0.362665 -4.553935
v 0.175266 0.362665 -4.566133
v 0.179974 0.362665 -4.577499
v 0.187463 0.362665 -4.587260
v 0.197224 0.362665 -4.594749
v 0.208590 0.362665 -4.599457
v 0.209955 0.362665 -4.594365
v 0.220788 0.362665 -4.595791
v 0.199860 0.362665 -4.590183
v 0.191192 0.362665 -4.583531
v 0.184540 0.362665 -4.574863
v 0.180359 0.362665 -4.564768
v 0.178932 0.362665 -4.553935
v 0.180359 0.362665 -4.543102
v 0.184540 0.362665 -4.533007
v 0.191192 0.362665 -4.524339
v 0.199860 0.362665 -4.517687
v 0.209955 0.362665 -4.513505
v 0.220788 0.362665 -4.512079
v 0.231621 0.362665 -4.513505
v 0.241716 0.362665 -4.517687
v 0.250385 0.362665 -4.524339
v 0.257036 0.362665 -4.533007
v 0.261218 0.362665 -4.543102
v 0.262644 0.362665 -4.553935
v 0.261218 0.362665 -4.564768
v 0.257036 0.362665 -4.574863
v 0.250385 0.362665 -4.583531
v 0.241716 0.362665 -4.590183
v 0.231621 0.362665 -4.594365
v 0.220788 0.316630 -4.595791
v 0.231621 0.316630 -4.594365
v 0.241716 0.316630 -4.590183
v 0.250385 0.316630 -4.583531
v 0.257036 0.316630 -4.574863
v 0.261218 0.316630 -4.564768
v 0.262644 0.316630 -4.553935
v 0.261218 0.316630 -4.543102
v 0.257036 0.316630 -4.533007
v 0.250385 0.316630 -4.524339
v 0.241716 0.316630 -4.517687
v 0.231621 0.316630 -4.513505
v 0.220788 0.316630 -4.512079
v 0.209955 0.316630 -4.513505
v 0.199860 0.316630 -4.517687
v 0.191192 0.316630 -4.524339
v 0.184540 0.316630 -4.533007
v 0.180359 0.316630 -4.543102
v 0.178932 0.316630 -4.553935
v 0.180359 0.316630 -4.564768
v 0.184540 0.316630 -4.574863
v 0.191192 0.316630 -4.583531
v 0.199860 0.316630 -4.590183
v 0.209955 0.316630 -4.594365
v 0.220788 0.316630 -4.600369
v 0.208770 0.316630 -4.598787
v 0.197571 0.316630 -4.594148
v 0.187954 0.316630 -4.586769
v 0.180575 0.316630 -4.577152
v 0.175936 0.316630 -4.565953
v 0.174354 0.316630 -4.553935
v 0.175936 0.316630 -4.541917
v 0.180575 0.316630 -4.530718
v 0.187954 0.316630 -4.521101
v 0.197571 0.316630 -4.513722
v 0.208770 0.316630 -4.509083
v 0.220788 0.316630 -4.507501
v 0.232806 0.316630 -4.509083
v 0.244005 0.316630 -4.513722
v 0.253622 0.316630 -4.521101
v 0.261001 0.316630 -4.530718
v 0.265640 0.316630 -4.541917
v 0.267222 0.316630 -4.553935
v 0.265640 0.316630 -4.565953
v 0.261001 0.316630 -4.577152
v 0.253622 0.316630 -4.586769
v 0.244005 0.316630 -4.594148
v 0.232806 0.316630 -4.598787
v 0.232806 0.306108 -4.598787
v 0.220788 0.306108 -4.600369
v 0.244005 0.306108 -4.594148
v 0.253622 0.306108 -4.586769
v 0.261001 0.306108 -4.577152
v 0.265640 0.306108 -4.565953
v 0.267222 0.306108 -4.553935
v 0.265640 0.306108 -4.541917
v 0.261001 0.306108 -4.530718
v 0.253622 0.306108 -4.521101
v 0.244005 0.306108 -4.513722
v 0.232806 0.306108 -4.509083
v 0.220788 0.306108 -4.507501
v 0.208770 0.306108 -4.509083
v 0.197571 0.306108 -4.513722
v 0.187954 0.306108 -4.521101
v 0.180575 0.306108 -4.530718
v 0.175936 0.306108 -4.541917
v 0.174354 0.306108 -4.553935
v 0.175936 0.306108 -4.565953
v 0.180575 0.306108 -4.577152
v 0.187954 0.306108 -4.586769
v 0.197571 0.306108 -4.594148
v 0.208770 0.306108 -4.598787
v 0.220788 0.306108 -4.595218
v 0.210103 0.306108 -4.593812
v 0.200146 0.306108 -4.589687
v 0.191596 0.306108 -4.583127
v 0.185036 0.306108 -4.574577
v 0.180911 0.306108 -4.564620
v 0.179505 0.306108 -4.553935
v 0.180911 0.306108 -4.543250
v 0.185036 0.306108 -4.533293
v 0.191596 0.306108 -4.524743
v 0.200146 0.306108 -4.518183
v 0.210103 0.306108 -4.514059
v 0.220788 0.306108 -4.512652
v 0.231473 0.306108 -4.514059
v 0.241430 0.306108 -4.518183
v 0.249980 0.306108 -4.524743
v 0.256541 0.306108 -4.533293
v 0.260665 0.306108 -4.543250
v 0.262071 0.306108 -4.553935
v 0.260665 0.306108 -4.564620
v 0.256541 0.306108 -4.574577
v 0.249980 0.306108 -4.583127
v 0.241430 0.306108 -4.589687
v 0.231473 0.306108 -4.593812
v 0.220788 0.098296 -4.595218
v 0.231473 0.098296 -4.593812
v 0.241430 0.098296 -4.589687
v 0.249980 0.098296 -4.583127
v 0.256541 0.098296 -4.574577
v 0.260665 0.098296 -4.564620
v 0.262071 0.098296 -4.553935
v 0.260665 0.098296 -4.543250
v 0.256541 0.098296 -4.533293
v 0.249980 0.098296 -4.524743
v 0.241430 0.098296 -4.518183
v 0.231473 0.098296 -4.514059
v 0.220788 0.098296 -4.512652
v 0.210103 0.098296 -4.514059
v 0.200146 0.098296 -4.518183
v 0.191596 0.098296 -4.524743
v 0.185036 0.098296 -4.533293
v 0.180911 0.098296 -4.543250
v 0.179505 0.098296 -4.553935
v 0.180911 0.098296 -4.564620
v 0.185036 0.098296 -4.574577
v 0.191596 0.098296 -4.583127
v 0.200146 0.098296 -4.589687
v 0.210103 0.098296 -4.593812
v 0.207301 0.090405 -4.604268
v 0.220788 0.090405 -4.606043
v 0.194734 0.090405 -4.599062
v 0.183942 0.090405 -4.590781
v 0.175661 0.090405 -4.579989
v 0.170455 0.090405 -4.567421
v 0.168680 0.090405 -4.553935
v 0.170455 0.090405 -4.540448
v 0.175661 0.090405 -4.527881
v 0.183942 0.090405 -4.517089
v 0.194734 0.090405 -4.508808
v 0.207301 0.090405 -4.503603
v 0.220788 0.090405 -4.501827
v 0.234275 0.090405 -4.503603
v 0.246842 0.090405 -4.508808
v 0.257634 0.090405 -4.517089
v 0.265915 0.090405 -4.527881
v 0.271121 0.090405 -4.540449
v 0.272896 0.090405 -4.553935
v 0.271121 0.090405 -4.567421
v 0.265915 0.090405 -4.579989
v 0.257634 0.090405 -4.590781
v 0.246842 0.090405 -4.599062
v 0.234275 0.090405 -4.604268
v 0.220788 0.039109 -4.606043
v 0.234275 0.039109 -4.604268
v 0.246842 0.039109 -4.599062
v 0.257634 0.039109 -4.590781
v 0.265915 0.039109 -4.579989
v 0.271121 0.039109 -4.567421
v 0.272896 0.039109 -4.553935
v 0.271121 0.039109 -4.540449
v 0.265915 0.039109 -4.527881
v 0.257634 0.039109 -4.517089
v 0.246842 0.039109 -4.508808
v 0.234275 0.039109 -4.503603
v 0.220788 0.039109 -4.501827
v 0.207301 0.039109 -4.503603
v 0.194734 0.039109 -4.508808
v 0.183942 0.039109 -4.517089
v 0.175661 0.039109 -4.527881
v 0.170455 0.039109 -4.540448
v 0.168680 0.039109 -4.553935
v 0.170455 0.039109 -4.567421
v 0.175661 0.039109 -4.579989
v 0.183942 0.039109 -4.590781
v 0.194734 0.039109 -4.599062
v 0.207301 0.039109 -4.604268
vt 0.506694 0.500737
vt 0.506685 0.501027
vt 0.504227 0.500761
vt 0.504312 0.500454
vt 0.502094 0.499516
vt 0.501940 0.499780
vt 0.500200 0.498039
vt 0.499987 0.498254
vt 0.498752 0.496119
vt 0.498493 0.496271
vt 0.497859 0.493898
vt 0.497585 0.493978
vt 0.497222 0.491531
vt 0.497530 0.491521
vt 0.497876 0.489149
vt 0.497603 0.489086
vt 0.498516 0.486794
vt 0.498783 0.486935
vt 0.500271 0.485057
vt 0.500070 0.484870
vt 0.502000 0.483365
vt 0.502155 0.483604
vt 0.504280 0.482401
vt 0.504367 0.482681
vt 0.506750 0.482401
vt 0.506746 0.482126
vt 0.509118 0.482746
vt 0.509190 0.482483
vt 0.511305 0.483688
vt 0.511438 0.483466
vt 0.513386 0.484941
vt 0.513190 0.485131
vt 0.514879 0.486884
vt 0.514637 0.487017
vt 0.515818 0.489145
vt 0.515547 0.489210
vt 0.516143 0.491574
vt 0.515862 0.491566
vt 0.515834 0.494009
vt 0.515562 0.493928
vt 0.514914 0.496308
vt 0.514661 0.496149
vt 0.513184 0.498046
vt 0.513377 0.498262
vt 0.511281 0.499489
vt 0.511410 0.499739
vt 0.509142 0.500742
vt 0.509074 0.500439
vt 0.509459 0.501980
vt 0.506673 0.502321
vt 0.512038 0.500863
vt 0.514283 0.499145
vt 0.515993 0.496942
vt 0.517033 0.494369
vt 0.517394 0.491610
vt 0.517032 0.488858
vt 0.515977 0.486295
vt 0.514298 0.484088
vt 0.512082 0.482378
vt 0.509493 0.481269
vt 0.506717 0.480879
vt 0.503951 0.481200
vt 0.501391 0.482264
vt 0.499162 0.483971
vt 0.497415 0.486168
vt 0.496363 0.488759
vt 0.495946 0.491536
vt 0.496332 0.494312
vt 0.497390 0.496939
vt 0.499093 0.499183
vt 0.501318 0.500905
vt 0.503888 0.501997
vt 0.506662 0.503228
vt 0.503669 0.502791
vt 0.500885 0.501653
vt 0.498480 0.499797
vt 0.496637 0.497375
vt 0.495454 0.494547
vt 0.495128 0.491543
vt 0.495497 0.488531
vt 0.496709 0.485773
vt 0.498526 0.483343
vt 0.500963 0.481537
vt 0.503737 0.480441
vt 0.506714 0.480049
vt 0.509713 0.480461
vt 0.512534 0.481620
vt 0.514896 0.483506
vt 0.516701 0.485888
vt 0.517839 0.488651
vt 0.518230 0.491619
vt 0.517837 0.494594
vt 0.516676 0.497346
vt 0.514875 0.499753
vt 0.512475 0.501652
vt 0.509659 0.502776
vt 0.511831 0.511271
vt 0.506567 0.512010
vt 0.516723 0.509263
vt 0.520908 0.506010
vt 0.524131 0.501710
vt 0.526149 0.496821
vt 0.526821 0.491653
vt 0.526164 0.486495
vt 0.524224 0.481668
vt 0.521120 0.477476
vt 0.517052 0.474215
vt 0.512187 0.472105
vt 0.506874 0.471335
vt 0.501529 0.472012
vt 0.496592 0.473976
vt 0.492407 0.477106
vt 0.489139 0.481309
vt 0.487021 0.486163
vt 0.486279 0.491449
vt 0.486866 0.496727
vt 0.488851 0.501672
vt 0.492096 0.505975
vt 0.496352 0.509263
vt 0.501336 0.511300
vt 0.506542 0.512924
vt 0.501083 0.512302
vt 0.495866 0.510119
vt 0.491404 0.506664
vt 0.488009 0.502142
vt 0.485982 0.496938
vt 0.485269 0.491457
vt 0.486152 0.485917
vt 0.488269 0.480819
vt 0.491792 0.476465
vt 0.496113 0.473160
vt 0.501237 0.471046
vt 0.506869 0.470385
vt 0.512449 0.471210
vt 0.517527 0.473483
vt 0.521790 0.476845
vt 0.525032 0.481221
vt 0.527057 0.486266
vt 0.527746 0.491658
vt 0.527058 0.497059
vt 0.525008 0.502194
vt 0.521565 0.506688
vt 0.517138 0.510056
vt 0.512079 0.512246
vt 0.512971 0.515588
vt 0.506496 0.516346
vt 0.518790 0.513049
vt 0.524054 0.509062
vt 0.528025 0.503860
vt 0.530287 0.497987
vt 0.531088 0.491747
vt 0.530310 0.485509
vt 0.527996 0.479670
vt 0.524289 0.474594
vt 0.519345 0.470607
vt 0.513331 0.467873
vt 0.506799 0.466928
vt 0.500301 0.467710
vt 0.494508 0.470174
vt 0.489438 0.474008
vt 0.485272 0.479084
vt 0.482863 0.484966
vt 0.481790 0.491442
vt 0.482625 0.497741
vt 0.484998 0.503918
vt 0.488973 0.509190
vt 0.494202 0.513192
vt 0.500218 0.515684
vt 0.506391 0.519744
vt 0.499479 0.518768
vt 0.492535 0.516089
vt 0.486562 0.511555
vt 0.482025 0.505553
vt 0.479250 0.498478
vt 0.478600 0.491479
vt 0.479610 0.483963
vt 0.482498 0.477539
vt 0.487130 0.471503
vt 0.492908 0.467374
vt 0.499396 0.464714
vt 0.506826 0.463616
vt 0.514286 0.464655
vt 0.521242 0.467737
vt 0.526636 0.472372
vt 0.530778 0.478108
vt 0.533388 0.484695
vt 0.534271 0.491736
vt 0.533365 0.498769
vt 0.530780 0.505310
vt 0.526389 0.511418
vt 0.520389 0.516079
vt 0.513827 0.518638
vt 0.473730 0.967165
vt 0.349493 0.949825
vt 0.597993 0.967165
vt 0.714478 0.920548
vt 0.813021 0.847335
vt 0.899904 0.762072
vt 0.963467 0.655070
vt 0.998084 0.532727
vt 0.999902 0.402907
vt 0.967213 0.274462
vt 0.900699 0.156650
vt 0.793918 0.072093
vt 0.671629 0.019489
vt 0.542790 0.000731
vt 0.413744 0.000098
vt 0.286142 0.033716
vt 0.179587 0.113433
vt 0.086180 0.206512
vt 0.034083 0.328975
vt 0.000098 0.456394
vt 0.016664 0.588557
vt 0.065903 0.709304
vt 0.143037 0.811142
vt 0.241730 0.888207
vt 0.508146 0.496913
vt 0.508382 0.497826
vt 0.506696 0.498044
vt 0.506701 0.497097
vt 0.509494 0.496361
vt 0.509954 0.497177
vt 0.510654 0.495480
vt 0.511306 0.496146
vt 0.511547 0.494330
vt 0.512345 0.494802
vt 0.512110 0.492989
vt 0.512999 0.493237
vt 0.512307 0.491552
vt 0.513224 0.491560
vt 0.512126 0.490114
vt 0.513009 0.489884
vt 0.511579 0.488773
vt 0.512368 0.488322
vt 0.510705 0.487619
vt 0.511346 0.486978
vt 0.509561 0.486728
vt 0.510012 0.485941
vt 0.508226 0.486159
vt 0.508454 0.485280
vt 0.506787 0.485954
vt 0.506775 0.485041
vt 0.505344 0.486128
vt 0.505091 0.485245
vt 0.503996 0.486671
vt 0.503519 0.485882
vt 0.502836 0.487545
vt 0.502167 0.486904
vt 0.501940 0.488690
vt 0.501124 0.488241
vt 0.501372 0.490029
vt 0.500463 0.489805
vt 0.501168 0.491470
vt 0.500228 0.491487
vt 0.501346 0.492916
vt 0.500440 0.493175
vt 0.501891 0.494268
vt 0.501077 0.494751
vt 0.502768 0.495433
vt 0.502102 0.496110
vt 0.503916 0.496331
vt 0.503443 0.497157
vt 0.505257 0.496899
vt 0.505011 0.497817
vt 0.507909 0.495840
vt 0.506746 0.495994
vt 0.508993 0.495389
vt 0.509924 0.494674
vt 0.510638 0.493743
vt 0.511086 0.492661
vt 0.511239 0.491502
vt 0.511087 0.490343
vt 0.510641 0.489265
vt 0.509930 0.488338
vt 0.509003 0.487625
vt 0.507923 0.487174
vt 0.506763 0.487016
vt 0.505601 0.487164
vt 0.504517 0.487608
vt 0.503586 0.488318
vt 0.502870 0.489245
vt 0.502419 0.490327
vt 0.502263 0.491490
vt 0.502413 0.492654
vt 0.502859 0.493740
vt 0.503571 0.494674
vt 0.504500 0.495391
vt 0.505583 0.495841
vt 0.506757 0.495252
vt 0.506893 0.487948
vt 0.506158 0.488125
vt 0.507732 0.495123
vt 0.505493 0.488487
vt 0.508641 0.494745
vt 0.504945 0.489009
vt 0.509422 0.494146
vt 0.504551 0.489655
vt 0.510021 0.493366
vt 0.504338 0.490380
vt 0.510398 0.492458
vt 0.504319 0.491137
vt 0.510527 0.491486
vt 0.504496 0.491872
vt 0.510400 0.490514
vt 0.504856 0.492536
vt 0.510025 0.489609
vt 0.505376 0.493085
vt 0.509429 0.488831
vt 0.506020 0.493480
vt 0.508651 0.488233
vt 0.506745 0.493695
vt 0.507745 0.487855
vt 0.507500 0.493715
vt 0.506771 0.487724
vt 0.508235 0.493539
vt 0.505796 0.487848
vt 0.508900 0.493178
vt 0.504888 0.488220
vt 0.509449 0.492658
vt 0.504107 0.488816
vt 0.509845 0.492013
vt 0.503507 0.489594
vt 0.510060 0.491287
vt 0.503129 0.490501
vt 0.510081 0.490530
vt 0.502999 0.491476
vt 0.509904 0.489794
vt 0.503125 0.492452
vt 0.509543 0.489128
vt 0.503499 0.493363
vt 0.509022 0.488578
vt 0.504096 0.494145
vt 0.508376 0.488183
vt 0.504875 0.494746
vt 0.507650 0.487968
vt 0.505782 0.495124
vt 0.507248 0.490081
vt 0.507116 0.490124
vt 0.506999 0.490201
vt 0.506906 0.490305
vt 0.506843 0.490430
vt 0.506813 0.490568
vt 0.506821 0.490709
vt 0.506863 0.490843
vt 0.506939 0.490961
vt 0.507042 0.491056
vt 0.507166 0.491121
vt 0.507302 0.491150
vt 0.507442 0.491143
vt 0.507574 0.491100
vt 0.507691 0.491024
vt 0.507784 0.490920
vt 0.507848 0.490794
vt 0.507877 0.490657
vt 0.507870 0.490516
vt 0.507827 0.490382
vt 0.507751 0.490263
vt 0.507648 0.490169
vt 0.507524 0.490104
vt 0.507388 0.490075
vt 0.507276 0.490154
vt 0.507504 0.490173
vt 0.507692 0.490306
vt 0.507791 0.490516
vt 0.507797 0.490633
vt 0.507773 0.490747
vt 0.507720 0.490852
vt 0.507643 0.490938
vt 0.507546 0.491002
vt 0.507436 0.491038
vt 0.507321 0.491043
vt 0.507209 0.491018
vt 0.507106 0.490965
vt 0.507020 0.490886
vt 0.506958 0.490787
vt 0.506922 0.490676
vt 0.506917 0.490559
vt 0.506941 0.490444
vt 0.506993 0.490340
vt 0.507070 0.490253
vt 0.507167 0.490189
vt 0.507038 0.490351
vt 0.506969 0.490549
vt 0.506975 0.490655
vt 0.507063 0.490845
vt 0.507140 0.490916
vt 0.507536 0.490949
vt 0.507693 0.490814
vt 0.507740 0.490720
vt 0.507724 0.490409
vt 0.507396 0.490178
vt 0.507569 0.490278
vt 0.507713 0.490507
vt 0.507717 0.490599
vt 0.507597 0.490839
vt 0.507436 0.490917
vt 0.507347 0.490921
vt 0.507179 0.490859
vt 0.507064 0.490719
vt 0.507037 0.490631
vt 0.507051 0.490448
vt 0.507152 0.490297
vt 0.507253 0.490269
vt 0.507081 0.490528
vt 0.507085 0.490610
vt 0.507152 0.490758
vt 0.507514 0.490841
vt 0.507634 0.490736
vt 0.507615 0.490352
vt 0.507485 0.490258
vt 0.507437 0.490314
vt 0.507544 0.490377
vt 0.507580 0.490459
vt 0.507557 0.490587
vt 0.507530 0.490620
vt 0.507458 0.490657
vt 0.507418 0.490659
vt 0.507378 0.490649
vt 0.507343 0.490629
vt 0.507279 0.490518
vt 0.507284 0.490428
vt 0.507545 0.490544
vt 0.507350 0.490378
vt 0.507360 0.490469
vt 0.507749 0.490105
vt 0.507763 0.490073
vt 0.507713 0.490157
vt 0.507608 0.490147
vt 0.507654 0.490048
vt 0.507764 0.489993
vt 0.507782 0.489925
vt 0.507929 0.489738
vt 0.507861 0.489873
vn 0.000000 -1.000000 0.000000
vn 0.000000 -1.000000 0.000100
vn 0.000000 0.000000 -1.000000
vn -0.258800 0.000000 -0.965900
vn -0.500000 0.000000 -0.866000
vn -0.707100 0.000000 -0.707100
vn -0.866000 0.000000 -0.500000
vn -0.965900 0.000000 -0.258800
vn -1.000000 0.000000 0.000000
vn -0.965900 0.000000 0.258800
vn -0.866000 0.000000 0.500000
vn -0.707100 0.000000 0.707100
vn -0.500000 0.000000 0.866000
vn -0.258800 0.000000 0.965900
vn 0.000000 0.000000 1.000000
vn 0.258800 0.000000 0.965900
vn 0.500000 0.000000 0.866000
vn 0.707100 0.000000 0.707100
vn 0.866000 0.000000 0.500000
vn 0.965900 0.000000 0.258800
vn 1.000000 0.000000 0.000000
vn 0.965900 0.000000 -0.258800
vn 0.866000 0.000000 -0.500000
vn 0.707100 0.000000 -0.707100
vn 0.500000 0.000000 -0.866000
vn 0.258800 0.000000 -0.965900
vn 0.000000 1.000000 0.000000
vn -0.032900 0.991900 -0.122700
vn 0.000000 0.991900 -0.127000
vn -0.258700 -0.018300 -0.965800
vn 0.000000 -0.018300 -0.999800
vn -0.063500 0.991900 -0.110000
vn -0.499900 -0.018300 -0.865900
vn -0.089800 0.991900 -0.089800
vn -0.707000 -0.018300 -0.707000
vn -0.110000 0.991900 -0.063500
vn -0.865900 -0.018300 -0.499900
vn -0.122700 0.991900 -0.032800
vn -0.965800 -0.018300 -0.258800
vn -0.127000 0.991900 0.000000
vn -0.999800 -0.018300 0.000000
vn -0.122700 0.991900 0.032800
vn -0.965800 -0.018300 0.258800
vn -0.110000 0.991900 0.063500
vn -0.865900 -0.018300 0.499900
vn -0.089800 0.991900 0.089800
vn -0.707000 -0.018300 0.707000
vn -0.063500 0.991900 0.110000
vn -0.499900 -0.018300 0.865900
vn -0.032800 0.991900 0.122700
vn -0.258800 -0.018300 0.965800
vn 0.000000 0.991900 0.127000
vn 0.000000 -0.018300 0.999800
vn 0.032900 0.991900 0.122700
vn 0.258800 -0.018300 0.965800
vn 0.063500 0.991900 0.110000
vn 0.499900 -0.018300 0.865900
vn 0.499900 -0.018300 0.865800
vn 0.089800 0.991900 0.089800
vn 0.707000 -0.018300 0.707000
vn 0.110000 0.991900 0.063500
vn 0.865900 -0.018300 0.499900
vn 0.122700 0.991900 0.032800
vn 0.965800 -0.018300 0.258800
vn 0.127000 0.991900 0.000000
vn 0.999800 -0.018300 0.000000
vn 0.122700 0.991900 -0.032800
vn 0.965800 -0.018300 -0.258800
vn 0.110000 0.991900 -0.063500
vn 0.865900 -0.018300 -0.499900
vn 0.089800 0.991900 -0.089800
vn 0.707000 -0.018300 -0.707000
vn 0.063500 0.991900 -0.110000
vn 0.499900 -0.018300 -0.865900
vn 0.032800 0.991900 -0.122700
vn 0.258700 -0.018300 -0.965800
vn 0.028200 -0.994000 0.105200
vn 0.000000 -0.994000 0.108900
vn 0.054400 -0.994000 0.094300
vn 0.077000 -0.994000 0.077000
vn 0.094300 -0.994000 0.054400
vn 0.105200 -0.994000 0.028200
vn 0.108900 -0.994000 0.000000
vn 0.105200 -0.994000 -0.028200
vn 0.094300 -0.994000 -0.054400
vn 0.077000 -0.994000 -0.077000
vn 0.054400 -0.994000 -0.094300
vn 0.028200 -0.994000 -0.105200
vn 0.000000 -0.994000 -0.108900
vn -0.028200 -0.994000 -0.105200
vn -0.054400 -0.994000 -0.094300
vn -0.077000 -0.994000 -0.077000
vn -0.094300 -0.994000 -0.054400
vn -0.105200 -0.994000 -0.028200
vn -0.108900 -0.994000 0.000000
vn -0.105200 -0.994000 0.028200
vn -0.094300 -0.994000 0.054400
vn -0.077000 -0.994000 0.077000
vn -0.054400 -0.994000 0.094300
vn -0.028200 -0.994000 0.105200
vn -0.151900 0.809700 -0.566900
vn 0.000000 0.809700 -0.586900
vn -0.293400 0.809700 -0.508300
vn -0.415000 0.809700 -0.415000
vn -0.508300 0.809700 -0.293400
vn -0.508200 0.809700 -0.293400
vn -0.566900 0.809700 -0.151900
vn -0.586900 0.809700 0.000000
vn -0.566900 0.809700 0.151900
vn -0.508200 0.809700 0.293400
vn -0.415000 0.809700 0.415000
vn -0.293400 0.809700 0.508300
vn -0.151900 0.809700 0.566900
vn 0.000000 0.809700 0.586900
vn 0.151900 0.809700 0.566900
vn 0.293400 0.809700 0.508300
vn 0.415000 0.809700 0.415000
vn 0.508200 0.809700 0.293400
vn 0.566900 0.809700 0.151900
vn 0.586900 0.809700 0.000000
vn 0.566900 0.809700 -0.151900
vn 0.508200 0.809700 -0.293400
vn 0.415000 0.809700 -0.415000
vn 0.293400 0.809700 -0.508300
vn 0.151900 0.809700 -0.566900
vn -0.152500 0.808000 -0.569000
vn 0.000000 0.808000 -0.589100
vn -0.294500 0.808000 -0.510100
vn -0.416500 0.808000 -0.416500
vn -0.510100 0.808000 -0.294500
vn -0.569000 0.808000 -0.152500
vn -0.569000 0.808000 -0.152400
vn -0.589100 0.808000 0.000000
vn -0.569000 0.808000 0.152400
vn -0.510100 0.808000 0.294500
vn -0.416500 0.808000 0.416500
vn -0.294500 0.808000 0.510200
vn -0.152500 0.808000 0.569000
vn 0.000000 0.808000 0.589100
vn 0.152500 0.808000 0.569000
vn 0.294500 0.808000 0.510200
vn 0.416500 0.808000 0.416500
vn 0.510200 0.808000 0.294500
vn 0.569000 0.808000 0.152500
vn 0.589100 0.808000 0.000000
vn 0.569000 0.808000 -0.152500
vn 0.510100 0.808000 -0.294500
vn 0.416500 0.808000 -0.416500
vn 0.294500 0.808000 -0.510200
vn 0.152500 0.808000 -0.569000
usemtl Material.004
s 1
f 675/1/1 698/2/1 699/3/1 697/4/1
f 696/5/1 697/4/1 699/3/1 700/6/1
f 695/7/1 696/5/1 700/6/1 701/8/1
f 694/9/1 695/7/1 701/8/1 702/10/1
f 693/11/1 694/9/1 702/10/1 703/12/1
f 693/11/1 703/12/1 704/13/1 692/14/1
f 691/15/1 692/14/1 704/13/1 705/16/1
f 691/15/1 705/16/1 706/17/1 690/18/1
f 689/19/1 690/18/1 706/17/1 707/20/1
f 689/19/1 707/20/1 708/21/1 688/22/1
f 688/22/1 708/21/1 709/23/1 687/24/1
f 686/25/1 687/24/1 709/23/1 710/26/1
f 685/27/1 686/25/1 710/26/1 711/28/1
f 684/29/2 685/27/1 711/28/1 712/30/2
f 684/29/2 712/30/2 713/31/1 683/32/1
f 683/32/1 713/31/1 714/33/1 682/34/1
f 682/34/1 714/33/1 715/35/1 681/36/1
f 681/36/1 715/35/1 716/37/1 680/38/1
f 680/38/1 716/37/1 717/39/1 679/40/1
f 679/40/1 717/39/1 718/41/1 678/42/1
f 677/43/1 678/42/1 718/41/1 719/44/1
f 676/45/1 677/43/1 719/44/1 720/46/1
f 676/45/1 720/46/1 721/47/1 674/48/1
f 675/1/1 674/48/1 721/47/1 698/2/1
f 49/2/3 72/47/4 722/49/4 723/50/3
f 71/46/5 724/51/5 722/49/4 72/47/4
f 71/46/5 70/44/6 725/52/6 724/51/5
f 70/44/6 69/41/7 726/53/7 725/52/6
f 68/39/8 727/54/8 726/53/7 69/41/7
f 67/37/9 728/55/9 727/54/8 68/39/8
f 66/35/10 729/56/10 728/55/9 67/37/9
f 65/33/11 730/57/11 729/56/10 66/35/10
f 64/31/12 731/58/12 730/57/11 65/33/11
f 63/30/13 732/59/13 731/58/12 64/31/12
f 63/30/13 62/28/14 733/60/14 732/59/13
f 62/28/14 61/26/15 734/61/15 733/60/14
f 61/26/15 60/23/16 735/62/16 734/61/15
f 59/21/17 736/63/17 735/62/16 60/23/16
f 58/20/18 737/64/18 736/63/17 59/21/17
f 58/20/18 57/17/19 738/65/19 737/64/18
f 56/16/20 739/66/20 738/65/19 57/17/19
f 56/16/20 55/13/21 740/67/21 739/66/20
f 54/12/22 741/68/22 740/67/21 55/13/21
f 54/12/22 53/10/23 742/69/23 741/68/22
f 53/10/23 52/8/24 743/70/24 742/69/23
f 52/8/24 51/6/25 744/71/25 743/70/24
f 51/6/25 50/3/26 745/72/26 744/71/25
f 49/2/3 723/50/3 745/72/26 50/3/26
f 96/50/27 746/73/27 747/74/27 95/72/27
f 94/71/27 95/72/27 747/74/27 748/75/27
f 93/70/27 94/71/27 748/75/27 749/76/27
f 92/69/27 93/70/27 749/76/27 750/77/27
f 91/68/27 92/69/27 750/77/27 751/78/27
f 91/68/27 751/78/27 752/79/27 90/67/27
f 89/66/27 90/67/27 752/79/27 753/80/27
f 89/66/27 753/80/27 754/81/27 88/65/27
f 87/64/27 88/65/27 754/81/27 755/82/27
f 87/64/27 755/82/27 756/83/27 86/63/27
f 86/63/27 756/83/27 757/84/27 85/62/27
f 84/61/27 85/62/27 757/84/27 758/85/27
f 83/60/27 84/61/27 758/85/27 759/86/27
f 82/59/27 83/60/27 759/86/27 760/87/27
f 82/59/27 760/87/27 761/88/27 81/58/27
f 81/58/27 761/88/27 762/89/27 80/57/27
f 80/57/27 762/89/27 763/90/27 79/56/27
f 79/56/27 763/90/27 764/91/27 78/55/27
f 78/55/27 764/91/27 765/92/27 77/54/27
f 77/54/27 765/92/27 766/93/27 76/53/27
f 75/52/27 76/53/27 766/93/27 767/94/27
f 74/51/27 75/52/27 767/94/27 768/95/27
f 74/51/27 768/95/27 769/96/27 73/49/27
f 96/50/27 73/49/27 769/96/27 746/73/27
f 97/73/3 120/96/4 770/97/4 771/98/3
f 119/95/5 772/99/5 770/97/4 120/96/4
f 119/95/5 118/94/6 773/100/6 772/99/5
f 118/94/6 117/93/7 774/101/7 773/100/6
f 116/92/8 775/102/8 774/101/7 117/93/7
f 115/91/9 776/103/9 775/102/8 116/92/8
f 114/90/10 777/104/10 776/103/9 115/91/9
f 113/89/11 778/105/11 777/104/10 114/90/10
f 112/88/12 779/106/12 778/105/11 113/89/11
f 111/87/13 780/107/13 779/106/12 112/88/12
f 111/87/13 110/86/14 781/108/14 780/107/13
f 110/86/14 109/85/15 782/109/15 781/108/14
f 109/85/15 108/84/16 783/110/16 782/109/15
f 107/83/17 784/111/17 783/110/16 108/84/16
f 106/82/18 785/112/18 784/111/17 107/83/17
f 106/82/18 105/81/19 786/113/19 785/112/18
f 104/80/20 787/114/20 786/113/19 105/81/19
f 104/80/20 103/79/21 788/115/21 787/114/20
f 102/78/22 789/116/22 788/115/21 103/79/21
f 102/78/22 101/77/23 790/117/23 789/116/22
f 101/77/23 100/76/24 791/118/24 790/117/23
f 100/76/24 99/75/25 792/119/25 791/118/24
f 99/75/25 98/74/26 793/120/26 792/119/25
f 97/73/3 771/98/3 793/120/26 98/74/26
f 144/98/1 794/121/1 795/122/1 143/120/1
f 142/119/1 143/120/1 795/122/1 796/123/1
f 141/118/1 142/119/1 796/123/1 797/124/1
f 140/117/1 141/118/1 797/124/1 798/125/1
f 139/116/1 140/117/1 798/125/1 799/126/1
f 139/116/1 799/126/1 800/127/1 138/115/1
f 137/114/1 138/115/1 800/127/1 801/128/1
f 137/114/1 801/128/1 802/129/1 136/113/1
f 135/112/1 136/113/1 802/129/1 803/130/1
f 135/112/1 803/130/1 804/131/1 134/111/1
f 134/111/1 804/131/1 805/132/1 133/110/1
f 132/109/1 133/110/1 805/132/1 806/133/1
f 131/108/1 132/109/1 806/133/1 807/134/1
f 130/107/1 131/108/1 807/134/1 808/135/1
f 130/107/1 808/135/1 809/136/1 129/106/1
f 129/106/1 809/136/1 810/137/1 128/105/1
f 128/105/1 810/137/1 811/138/1 127/104/1
f 127/104/1 811/138/1 812/139/1 126/103/1
f 126/103/1 812/139/1 813/140/1 125/102/1
f 125/102/1 813/140/1 814/141/1 124/101/1
f 123/100/1 124/101/1 814/141/1 815/142/1
f 122/99/1 123/100/1 815/142/1 816/143/1
f 122/99/1 816/143/1 817/144/1 121/97/1
f 144/98/1 121/97/1 817/144/1 794/121/1
f 145/121/3 168/144/4 818/145/4 819/146/3
f 167/143/5 820/147/5 818/145/4 168/144/4
f 167/143/5 166/142/6 821/148/6 820/147/5
f 166/142/6 165/141/7 822/149/7 821/148/6
f 164/140/8 823/150/8 822/149/7 165/141/7
f 163/139/9 824/151/9 823/150/8 164/140/8
f 162/138/10 825/152/10 824/151/9 163/139/9
f 161/137/11 826/153/11 825/152/10 162/138/10
f 160/136/12 827/154/12 826/153/11 161/137/11
f 159/135/13 828/155/13 827/154/12 160/136/12
f 159/135/13 158/134/14 829/156/14 828/155/13
f 158/134/14 157/133/15 830/157/15 829/156/14
f 157/133/15 156/132/16 831/158/16 830/157/15
f 155/131/17 832/159/17 831/158/16 156/132/16
f 154/130/18 833/160/18 832/159/17 155/131/17
f 154/130/18 153/129/19 834/161/19 833/160/18
f 152/128/20 835/162/20 834/161/19 153/129/19
f 152/128/20 151/127/21 836/163/21 835/162/20
f 150/126/22 837/164/22 836/163/21 151/127/21
f 150/126/22 149/125/23 838/165/23 837/164/22
f 149/125/23 148/124/24 839/166/24 838/165/23
f 148/124/24 147/123/25 840/167/25 839/166/24
f 147/123/25 146/122/26 841/168/26 840/167/25
f 145/121/3 819/146/3 841/168/26 146/122/26
f 192/146/27 842/169/27 843/170/27 191/168/27
f 190/167/27 191/168/27 843/170/27 844/171/27
f 189/166/27 190/167/27 844/171/27 845/172/27
f 188/165/27 189/166/27 845/172/27 846/173/27
f 187/164/27 188/165/27 846/173/27 847/174/27
f 187/164/27 847/174/27 848/175/27 186/163/27
f 185/162/27 186/163/27 848/175/27 849/176/27
f 185/162/27 849/176/27 850/177/27 184/161/27
f 183/160/27 184/161/27 850/177/27 851/178/27
f 183/160/27 851/178/27 852/179/27 182/159/27
f 182/159/27 852/179/27 853/180/27 181/158/27
f 180/157/27 181/158/27 853/180/27 854/181/27
f 179/156/27 180/157/27 854/181/27 855/182/27
f 178/155/27 179/156/27 855/182/27 856/183/27
f 178/155/27 856/183/27 857/184/27 177/154/27
f 177/154/27 857/184/27 858/185/27 176/153/27
f 176/153/27 858/185/27 859/186/27 175/152/27
f 175/152/27 859/186/27 860/187/27 174/151/27
f 174/151/27 860/187/27 861/188/27 173/150/27
f 173/150/27 861/188/27 862/189/27 172/149/27
f 171/148/27 172/149/27 862/189/27 863/190/27
f 170/147/27 171/148/27 863/190/27 864/191/27
f 170/147/27 864/191/27 865/192/27 169/145/27
f 192/146/27 169/145/27 865/192/27 842/169/27
f 193/169/3 216/192/4 217/193/4 240/194/3
f 215/191/5 218/195/5 217/193/4 216/192/4
f 215/191/5 214/190/6 219/196/6 218/195/5
f 214/190/6 213/189/7 220/197/7 219/196/6
f 212/188/8 221/198/8 220/197/7 213/189/7
f 211/187/9 222/199/9 221/198/8 212/188/8
f 210/186/10 223/200/10 222/199/9 211/187/9
f 209/185/11 224/201/11 223/200/10 210/186/10
f 208/184/12 225/202/12 224/201/11 209/185/11
f 207/183/13 226/203/13 225/202/12 208/184/12
f 207/183/13 206/182/14 227/204/14 226/203/13
f 206/182/14 205/181/15 228/205/15 227/204/14
f 205/181/15 204/180/16 229/206/16 228/205/15
f 203/179/17 230/207/17 229/206/16 204/180/16
f 202/178/18 231/208/18 230/207/17 203/179/17
f 202/178/18 201/177/19 232/209/19 231/208/18
f 200/176/20 233/210/20 232/209/19 201/177/19
f 200/176/20 199/175/21 234/211/21 233/210/20
f 198/174/22 235/212/22 234/211/21 199/175/21
f 198/174/22 197/173/23 236/213/23 235/212/22
f 197/173/23 196/172/24 237/214/24 236/213/23
f 196/172/24 195/171/25 238/215/25 237/214/24
f 195/171/25 194/170/26 239/216/26 238/215/25
f 193/169/3 240/194/3 239/216/26 194/170/26
f 866/217/28 890/218/28 891/219/29 867/220/29
f 265/218/30 25/48/30 48/1/31 266/219/31
f 868/221/32 892/222/32 890/218/28 866/217/28
f 267/222/33 26/45/33 25/48/30 265/218/30
f 869/223/34 893/224/34 892/222/32 868/221/32
f 268/224/35 27/43/35 26/45/33 267/222/33
f 870/225/36 894/226/36 893/224/34 869/223/34
f 269/226/37 28/42/37 27/43/35 268/224/35
f 871/227/38 895/228/38 894/226/36 870/225/36
f 270/228/39 29/40/39 28/42/37 269/226/37
f 872/229/40 896/230/40 895/228/38 871/227/38
f 271/230/41 30/38/41 29/40/39 270/228/39
f 873/231/42 897/232/42 896/230/40 872/229/40
f 272/232/43 31/36/43 30/38/41 271/230/41
f 874/233/44 898/234/44 897/232/42 873/231/42
f 273/234/45 32/34/45 31/36/43 272/232/43
f 875/235/46 899/236/46 898/234/44 874/233/44
f 274/236/47 33/32/47 32/34/45 273/234/45
f 876/237/48 900/238/48 899/236/46 875/235/46
f 275/238/49 34/29/49 33/32/47 274/236/47
f 877/239/50 901/240/50 900/238/48 876/237/48
f 276/240/51 35/27/51 34/29/49 275/238/49
f 878/241/52 902/242/52 901/240/50 877/239/50
f 277/242/53 36/25/53 35/27/51 276/240/51
f 879/243/54 903/244/54 902/242/52 878/241/52
f 278/244/55 37/24/55 36/25/53 277/242/53
f 880/245/56 904/246/56 903/244/54 879/243/54
f 279/246/57 38/22/58 37/24/55 278/244/55
f 881/247/59 905/248/59 904/246/56 880/245/56
f 280/248/60 39/19/60 38/22/58 279/246/57
f 882/249/61 906/250/61 905/248/59 881/247/59
f 281/250/62 40/18/62 39/19/60 280/248/60
f 883/251/63 907/252/63 906/250/61 882/249/61
f 282/252/64 41/15/64 40/18/62 281/250/62
f 884/253/65 908/254/65 907/252/63 883/251/63
f 283/254/66 42/14/66 41/15/64 282/252/64
f 885/255/67 909/256/67 908/254/65 884/253/65
f 284/256/68 43/11/68 42/14/66 283/254/66
f 886/257/69 910/258/69 909/256/67 885/255/67
f 285/258/70 44/9/70 43/11/68 284/256/68
f 887/259/71 911/260/71 910/258/69 886/257/69
f 286/260/72 45/7/72 44/9/70 285/258/70
f 888/261/73 912/262/73 911/260/71 887/259/71
f 287/262/74 46/5/74 45/7/72 286/260/72
f 889/263/75 913/264/75 912/262/73 888/261/73
f 288/264/76 47/4/76 46/5/74 287/262/74
f 867/220/29 891/219/29 913/264/75 889/263/75
f 266/219/31 48/1/31 47/4/76 288/264/76
f 914/265/4 241/217/4 242/220/3 915/266/3
f 916/267/5 243/221/5 241/217/4 914/265/4
f 917/268/6 244/223/6 243/221/5 916/267/5
f 918/269/7 245/225/7 244/223/6 917/268/6
f 919/270/8 246/227/8 245/225/7 918/269/7
f 920/271/9 247/229/9 246/227/8 919/270/8
f 921/272/10 248/231/10 247/229/9 920/271/9
f 922/273/11 249/233/11 248/231/10 921/272/10
f 923/274/12 250/235/12 249/233/11 922/273/11
f 924/275/13 251/237/13 250/235/12 923/274/12
f 925/276/14 252/239/14 251/237/13 924/275/13
f 926/277/15 253/241/15 252/239/14 925/276/14
f 927/278/16 254/243/16 253/241/15 926/277/15
f 928/279/17 255/245/17 254/243/16 927/278/16
f 929/280/18 256/247/18 255/245/17 928/279/17
f 930/281/19 257/249/19 256/247/18 929/280/18
f 931/282/20 258/251/20 257/249/19 930/281/19
f 932/283/21 259/253/21 258/251/20 931/282/20
f 933/284/22 260/255/22 259/253/21 932/283/21
f 934/285/23 261/257/23 260/255/22 933/284/22
f 935/286/24 262/259/24 261/257/23 934/285/23
f 936/287/25 263/261/25 262/259/24 935/286/24
f 937/288/26 264/263/26 263/261/25 936/287/25
f 915/266/3 242/220/3 264/263/26 937/288/26
f 314/289/3 650/290/3 673/291/4 313/292/4
f 938/292/77 289/265/77 290/266/78 939/289/78
f 672/293/5 315/294/5 313/292/4 673/291/4
f 940/294/79 291/267/79 289/265/77 938/292/77
f 671/295/6 316/296/6 315/294/5 672/293/5
f 941/296/80 292/268/80 291/267/79 940/294/79
f 670/297/7 317/298/7 316/296/6 671/295/6
f 942/298/81 293/269/81 292/268/80 941/296/80
f 669/299/8 318/300/8 317/298/7 670/297/7
f 943/300/82 294/270/82 293/269/81 942/298/81
f 668/301/9 319/302/9 318/300/8 669/299/8
f 944/302/83 295/271/83 294/270/82 943/300/82
f 667/303/10 320/304/10 319/302/9 668/301/9
f 945/304/84 296/272/84 295/271/83 944/302/83
f 666/305/11 321/306/11 320/304/10 667/303/10
f 946/306/85 297/273/85 296/272/84 945/304/84
f 665/307/12 322/308/12 321/306/11 666/305/11
f 947/308/86 298/274/86 297/273/85 946/306/85
f 664/309/13 323/310/13 322/308/12 665/307/12
f 948/310/87 299/275/87 298/274/86 947/308/86
f 663/311/14 324/312/14 323/310/13 664/309/13
f 949/312/88 300/276/88 299/275/87 948/310/87
f 662/313/15 325/314/15 324/312/14 663/311/14
f 950/314/89 301/277/89 300/276/88 949/312/88
f 661/315/16 326/316/16 325/314/15 662/313/15
f 951/316/90 302/278/90 301/277/89 950/314/89
f 660/317/17 327/318/17 326/316/16 661/315/16
f 952/318/91 303/279/91 302/278/90 951/316/90
f 659/319/18 328/320/18 327/318/17 660/317/17
f 953/320/92 304/280/92 303/279/91 952/318/91
f 658/321/19 329/322/19 328/320/18 659/319/18
f 954/322/93 305/281/93 304/280/92 953/320/92
f 657/323/20 330/324/20 329/322/19 658/321/19
f 955/324/94 306/282/94 305/281/93 954/322/93
f 656/325/21 331/326/21 330/324/20 657/323/20
f 956/326/95 307/283/95 306/282/94 955/324/94
f 655/327/22 332/328/22 331/326/21 656/325/21
f 957/328/96 308/284/96 307/283/95 956/326/95
f 654/329/23 333/330/23 332/328/22 655/327/22
f 958/330/97 309/285/97 308/284/96 957/328/96
f 653/331/24 334/332/24 333/330/23 654/329/23
f 959/332/98 310/286/98 309/285/97 958/330/97
f 652/333/25 335/334/25 334/332/24 653/331/24
f 960/334/99 311/287/99 310/286/98 959/332/98
f 651/335/26 336/336/26 335/334/25 652/333/25
f 961/336/100 312/288/100 311/287/99 960/334/99
f 650/290/3 314/289/3 336/336/26 651/335/26
f 939/289/78 290/266/78 312/288/100 961/336/100
f 24/291/101 1/290/102 962/337/102 963/338/101
f 23/293/103 24/291/101 963/338/101 964/339/103
f 22/295/104 23/293/103 964/339/103 965/340/104
f 21/297/105 22/295/104 965/340/104 966/341/106
f 20/299/107 21/297/105 966/341/106 967/342/107
f 19/301/108 20/299/107 967/342/107 968/343/108
f 18/303/109 19/301/108 968/343/108 969/344/109
f 17/305/110 18/303/109 969/344/109 970/345/110
f 16/307/111 17/305/110 970/345/110 971/346/111
f 15/309/112 16/307/111 971/346/111 972/347/112
f 14/311/113 15/309/112 972/347/112 973/348/113
f 13/313/114 14/311/113 973/348/113 974/349/114
f 12/315/115 13/313/114 974/349/114 975/350/115
f 11/317/116 12/315/115 975/350/115 976/351/116
f 10/319/117 11/317/116 976/351/116 977/352/117
f 9/321/118 10/319/117 977/352/117 978/353/118
f 8/323/119 9/321/118 978/353/118 979/354/119
f 7/325/120 8/323/119 979/354/119 980/355/120
f 6/327/121 7/325/120 980/355/120 981/356/121
f 5/329/122 6/327/121 981/356/121 982/357/122
f 4/331/123 5/329/122 982/357/122 983/358/123
f 3/333/124 4/331/123 983/358/123 984/359/124
f 2/335/125 3/333/124 984/359/124 985/360/125
f 1/290/102 2/335/125 985/360/125 962/337/102
f 360/337/3 359/360/26 987/360/26 986/361/3
f 359/360/26 358/359/25 988/362/25 987/360/26
f 358/359/25 357/358/24 989/358/24 988/362/25
f 357/358/24 356/357/23 990/363/23 989/358/24
f 356/357/23 355/356/22 991/356/22 990/363/23
f 355/356/22 354/355/21 992/364/21 991/356/22
f 354/355/21 353/354/20 993/365/20 992/364/21
f 353/354/20 352/353/19 994/366/19 993/365/20
f 352/353/19 351/352/18 995/367/18 994/366/19
f 351/352/18 350/351/17 996/368/17 995/367/18
f 350/351/17 349/350/16 997/369/16 996/368/17
f 349/350/16 348/349/15 998/370/15 997/369/16
f 348/349/15 347/348/14 999/371/14 998/370/15
f 347/348/14 346/347/13 1000/372/13 999/371/14
f 346/347/13 345/346/12 1001/373/12 1000/372/13
f 345/346/12 344/345/11 1002/374/11 1001/373/12
f 344/345/11 343/344/10 1003/375/10 1002/374/11
f 343/344/10 342/343/9 1004/376/9 1003/375/10
f 342/343/9 341/342/8 1005/377/8 1004/376/9
f 341/342/8 340/341/7 1006/378/7 1005/377/8
f 340/341/7 339/340/6 1007/379/6 1006/378/7
f 339/340/6 338/339/5 1008/380/5 1007/379/6
f 338/339/5 337/338/4 1009/381/4 1008/380/5
f 337/338/4 360/337/3 986/361/3 1009/381/4
f 384/381/27 361/361/27 1011/361/27 1010/381/27
f 383/380/27 384/381/27 1010/381/27 1012/380/27
f 382/379/27 383/380/27 1012/380/27 1013/382/27
f 381/378/27 382/379/27 1013/382/27 1014/382/27
f 380/377/27 381/378/27 1014/382/27 1015/383/27
f 379/376/27 380/377/27 1015/383/27 1016/384/27
f 378/375/27 379/376/27 1016/384/27 1017/375/27
f 377/374/27 378/375/27 1017/375/27 1018/385/27
f 376/373/27 377/374/27 1018/385/27 1019/386/27
f 375/372/27 376/373/27 1019/386/27 1020/372/27
f 374/371/27 375/372/27 1020/372/27 1021/371/27
f 373/370/27 374/371/27 1021/371/27 1022/370/27
f 372/369/27 373/370/27 1022/370/27 1023/387/27
f 371/368/27 372/369/27 1023/387/27 1024/368/27
f 370/367/27 371/368/27 1024/368/27 1025/388/27
f 369/366/27 370/367/27 1025/388/27 1026/389/27
f 368/365/27 369/366/27 1026/389/27 1027/365/27
f 367/364/27 368/365/27 1027/365/27 1028/364/27
f 366/356/27 367/364/27 1028/364/27 1029/390/27
f 365/363/27 366/356/27 1029/390/27 1030/363/27
f 364/358/27 365/363/27 1030/363/27 1031/358/27
f 363/362/27 364/358/27 1031/358/27 1032/362/27
f 362/360/27 363/362/27 1032/362/27 1033/391/27
f 361/361/27 362/360/27 1033/391/27 1011/361/27
f 408/361/3 407/391/26 1035/391/26 1034/361/3
f 407/391/26 406/362/25 1036/362/25 1035/391/26
f 406/362/25 405/358/24 1037/392/24 1036/362/25
f 405/358/24 404/363/23 1038/392/23 1037/392/24
f 404/363/23 403/390/22 1039/390/22 1038/392/23
f 403/390/22 402/364/21 1040/393/21 1039/390/22
f 402/364/21 401/365/20 1041/394/20 1040/393/21
f 401/365/20 400/389/19 1042/389/19 1041/394/20
f 400/389/19 399/388/18 1043/388/18 1042/389/19
f 399/388/18 398/368/17 1044/395/17 1043/388/18
f 398/368/17 397/387/16 1045/387/16 1044/395/17
f 397/387/16 396/370/15 1046/396/15 1045/387/16
f 396/370/15 395/371/14 1047/397/14 1046/396/15
f 395/371/14 394/372/13 1048/397/13 1047/397/14
f 394/372/13 393/386/12 1049/398/12 1048/397/13
f 393/386/12 392/385/11 1050/385/11 1049/398/12
f 392/385/11 391/375/10 1051/399/10 1050/385/11
f 391/375/10 390/384/9 1052/400/9 1051/399/10
f 390/384/9 389/383/8 1053/383/8 1052/400/9
f 389/383/8 388/382/7 1054/401/7 1053/383/8
f 388/382/7 387/382/6 1055/401/6 1054/401/7
f 387/382/6 386/380/5 1056/402/5 1055/401/6
f 386/380/5 385/381/4 1057/381/4 1056/402/5
f 385/381/4 408/361/3 1034/361/3 1057/381/4
f 432/381/1 409/361/1 1059/361/1 1058/403/1
f 431/402/1 432/381/1 1058/403/1 1060/402/1
f 430/401/1 431/402/1 1060/402/1 1061/401/1
f 429/401/1 430/401/1 1061/401/1 1062/401/1
f 428/383/1 429/401/1 1062/401/1 1063/404/1
f 427/400/1 428/383/1 1063/404/1 1064/405/1
f 426/399/1 427/400/1 1064/405/1 1065/399/1
f 425/385/1 426/399/1 1065/399/1 1066/406/1
f 424/398/1 425/385/1 1066/406/1 1067/406/1
f 423/397/1 424/398/1 1067/406/1 1068/397/1
f 422/397/1 423/397/1 1068/397/1 1069/396/1
f 421/396/1 422/397/1 1069/396/1 1070/396/1
f 420/387/1 421/396/1 1070/396/1 1071/407/1
f 419/395/1 420/387/1 1071/407/1 1072/395/1
f 418/388/1 419/395/1 1072/395/1 1073/408/1
f 417/389/1 418/388/1 1073/408/1 1074/389/1
f 416/394/1 417/389/1 1074/389/1 1075/394/1
f 415/393/1 416/394/1 1075/394/1 1076/393/1
f 414/390/1 415/393/1 1076/393/1 1077/390/1
f 413/392/1 414/390/1 1077/390/1 1078/409/1
f 412/392/1 413/392/1 1078/409/1 1079/392/1
f 411/362/1 412/392/1 1079/392/1 1080/410/1
f 410/391/1 411/362/1 1080/410/1 1081/391/1
f 409/361/1 410/391/1 1081/391/1 1059/361/1
f 456/361/3 455/391/26 1083/411/26 1082/411/3
f 455/391/26 454/410/25 1084/410/25 1083/411/26
f 454/410/25 453/392/24 1085/410/24 1084/410/25
f 453/392/24 452/409/23 1086/412/23 1085/410/24
f 452/409/23 451/390/22 1087/409/22 1086/412/23
f 451/390/22 450/393/21 1088/413/21 1087/409/22
f 450/393/21 449/394/20 1089/413/20 1088/413/21
f 449/394/20 448/389/19 1090/413/19 1089/413/20
f 448/389/19 447/408/18 1091/414/18 1090/413/19
f 447/408/18 446/395/17 1092/415/17 1091/414/18
f 446/395/17 445/407/16 1093/415/16 1092/415/17
f 445/407/16 444/396/15 1094/416/15 1093/415/16
f 444/396/15 443/396/14 1095/417/14 1094/416/15
f 443/396/14 442/397/13 1096/418/13 1095/417/14
f 442/397/13 441/406/12 1097/419/12 1096/418/13
f 441/406/12 440/406/11 1098/419/11 1097/419/12
f 440/406/11 439/399/10 1099/419/10 1098/419/11
f 439/399/10 438/405/9 1100/420/9 1099/419/10
f 438/405/9 437/404/8 1101/420/8 1100/420/9
f 437/404/8 436/401/7 1102/421/7 1101/420/8
f 436/401/7 435/401/6 1103/421/6 1102/421/7
f 435/401/6 434/402/5 1104/421/5 1103/421/6
f 434/402/5 433/403/4 1105/411/4 1104/421/5
f 433/403/4 456/361/3 1082/411/3 1105/411/4
f 480/411/27 457/411/27 1106/411/27 1107/411/27
f 479/421/27 480/411/27 1107/411/27 1108/421/27
f 478/421/27 479/421/27 1108/421/27 1109/421/27
f 477/421/27 478/421/27 1109/421/27 1110/421/27
f 476/420/27 477/421/27 1110/421/27 1111/420/27
f 475/420/27 476/420/27 1111/420/27 1112/420/27
f 474/419/27 475/420/27 1112/420/27 1113/420/27
f 473/419/27 474/419/27 1113/420/27 1114/419/27
f 472/419/27 473/419/27 1114/419/27 1115/418/27
f 471/418/27 472/419/27 1115/418/27 1116/418/27
f 470/417/27 471/418/27 1116/418/27 1117/418/27
f 469/416/27 470/417/27 1117/418/27 1118/415/27
f 468/415/27 469/416/27 1118/415/27 1119/415/27
f 467/415/27 468/415/27 1119/415/27 1120/415/27
f 466/414/27 467/415/27 1120/415/27 1121/414/27
f 465/413/27 466/414/27 1121/414/27 1122/413/27
f 464/413/27 465/413/27 1122/413/27 1123/413/27
f 463/413/27 464/413/27 1123/413/27 1124/409/27
f 462/409/27 463/413/27 1124/409/27 1125/409/27
f 461/412/27 462/409/27 1125/409/27 1126/412/27
f 460/410/27 461/412/27 1126/412/27 1127/410/27
f 459/410/27 460/410/27 1127/410/27 1128/410/27
f 458/411/27 459/410/27 1128/410/27 1129/411/27
f 457/411/27 458/411/27 1129/411/27 1106/411/27
f 504/411/3 503/411/26 1130/410/26 1131/411/3
f 503/411/26 502/410/25 1132/410/25 1130/410/26
f 502/410/25 501/410/24 1133/410/24 1132/410/25
f 501/410/24 500/412/23 1134/412/23 1133/410/24
f 500/412/23 499/409/22 1135/409/22 1134/412/23
f 499/409/22 498/409/21 1136/409/21 1135/409/22
f 498/409/21 497/413/20 1137/413/20 1136/409/21
f 497/413/20 496/413/19 1138/413/19 1137/413/20
f 496/413/19 495/414/18 1139/422/18 1138/413/19
f 495/414/18 494/415/17 1140/415/17 1139/422/18
f 494/415/17 493/415/16 1141/415/16 1140/415/17
f 493/415/16 492/415/15 1142/415/15 1141/415/16
f 492/415/15 491/418/14 1143/418/14 1142/415/15
f 491/418/14 490/418/13 1144/418/13 1143/418/14
f 490/418/13 489/418/12 1145/418/12 1144/418/13
f 489/418/12 488/419/11 1146/418/11 1145/418/12
f 488/419/11 487/420/10 1147/420/10 1146/418/11
f 487/420/10 486/420/9 1148/420/9 1147/420/10
f 486/420/9 485/420/8 1149/421/8 1148/420/9
f 485/420/8 484/421/7 1150/421/7 1149/421/8
f 484/421/7 483/421/6 1151/423/6 1150/421/7
f 483/421/6 482/421/5 1152/411/5 1151/423/6
f 482/421/5 481/411/4 1153/411/4 1152/411/5
f 481/411/4 504/411/3 1131/411/3 1153/411/4
f 528/411/1 505/411/1 1154/411/1 1155/411/1
f 527/411/1 528/411/1 1155/411/1 1156/411/1
f 526/423/1 527/411/1 1156/411/1 1157/423/1
f 525/421/1 526/423/1 1157/423/1 1158/423/1
f 524/421/1 525/421/1 1158/423/1 1159/423/1
f 523/420/1 524/421/1 1159/423/1 1160/424/1
f 522/420/1 523/420/1 1160/424/1 1161/424/1
f 521/418/1 522/420/1 1161/424/1 1162/424/1
f 520/418/1 521/418/1 1162/424/1 1163/418/1
f 519/418/1 520/418/1 1163/418/1 1164/418/1
f 518/418/1 519/418/1 1164/418/1 1165/418/1
f 517/415/1 518/418/1 1165/418/1 1166/415/1
f 516/415/1 517/415/1 1166/415/1 1167/415/1
f 515/415/1 516/415/1 1167/415/1 1168/422/1
f 514/422/1 515/415/1 1168/422/1 1169/422/1
f 513/413/1 514/422/1 1169/422/1 1170/413/1
f 512/413/1 513/413/1 1170/413/1 1171/413/1
f 511/409/1 512/413/1 1171/413/1 1172/409/1
f 510/409/1 511/409/1 1172/409/1 1173/412/1
f 509/412/1 510/409/1 1173/412/1 1174/412/1
f 508/410/1 509/412/1 1174/412/1 1175/410/1
f 507/410/1 508/410/1 1175/410/1 1176/410/1
f 506/410/1 507/410/1 1176/410/1 1177/410/1
f 505/411/1 506/410/1 1177/410/1 1154/411/1
f 552/411/3 551/410/26 1179/425/26 1178/426/3
f 551/410/26 550/410/25 1180/425/25 1179/425/26
f 550/410/25 549/410/24 1181/427/24 1180/425/25
f 549/410/24 548/412/23 1182/427/23 1181/427/24
f 548/412/23 547/412/22 1183/427/22 1182/427/23
f 547/412/22 546/409/21 1184/427/21 1183/427/22
f 546/409/21 545/413/20 1185/358/20 1184/427/21
f 545/413/20 544/413/19 1186/358/19 1185/358/20
f 544/413/19 543/422/18 1187/358/18 1186/358/19
f 543/422/18 542/422/17 1188/358/17 1187/358/18
f 542/422/17 541/415/16 1189/358/16 1188/358/17
f 541/415/16 540/415/15 1190/358/15 1189/358/16
f 540/415/15 539/418/14 1191/428/14 1190/358/15
f 539/418/14 538/418/13 1192/428/13 1191/428/14
f 538/418/13 537/418/12 1193/428/12 1192/428/13
f 537/418/12 536/424/11 1194/428/11 1193/428/12
f 536/424/11 535/424/10 1195/429/10 1194/428/11
f 535/424/10 534/424/9 1196/429/9 1195/429/10
f 534/424/9 533/423/8 1197/429/8 1196/429/9
f 533/423/8 532/423/7 1198/429/7 1197/429/8
f 532/423/7 531/423/6 1199/430/6 1198/429/7
f 531/423/6 530/411/5 1200/430/5 1199/430/6
f 530/411/5 529/411/4 1201/430/4 1200/430/5
f 529/411/4 552/411/3 1178/426/3 1201/430/4
f 576/430/126 553/426/127 1203/430/127 1202/430/126
f 575/430/128 576/430/126 1202/430/126 1204/430/128
f 574/430/129 575/430/128 1204/430/128 1205/430/129
f 573/429/130 574/430/129 1205/430/129 1206/430/130
f 572/429/131 573/429/130 1206/430/130 1207/429/132
f 571/429/133 572/429/131 1207/429/132 1208/429/133
f 570/429/134 571/429/133 1208/429/133 1209/429/134
f 569/428/135 570/429/134 1209/429/134 1210/425/135
f 568/428/136 569/428/135 1210/425/135 1211/428/136
f 567/428/137 568/428/136 1211/428/136 1212/428/137
f 566/428/138 567/428/137 1212/428/137 1213/428/138
f 565/358/139 566/428/138 1213/428/138 1214/428/139
f 564/358/140 565/358/139 1214/428/139 1215/358/140
f 563/358/141 564/358/140 1215/358/140 1216/358/141
f 562/358/142 563/358/141 1216/358/141 1217/358/142
f 561/358/143 562/358/142 1217/358/142 1218/358/143
f 560/358/144 561/358/143 1218/358/143 1219/427/144
f 559/427/145 560/358/144 1219/427/144 1220/427/145
f 558/427/146 559/427/145 1220/427/145 1221/427/146
f 557/427/147 558/427/146 1221/427/146 1222/425/147
f 556/427/148 557/427/147 1222/425/147 1223/425/148
f 555/425/149 556/427/148 1223/425/148 1224/425/149
f 554/425/150 555/425/149 1224/425/149 1225/425/150
f 553/426/127 554/425/150 1225/425/150 1203/430/127
f 600/430/3 599/425/26 1227/430/26 1226/430/3
f 599/425/26 598/425/25 1228/425/25 1227/430/26
f 598/425/25 597/425/24 1229/425/24 1228/425/25
f 597/425/24 596/425/23 1230/425/23 1229/425/24
f 596/425/23 595/427/22 1231/425/22 1230/425/23
f 595/427/22 594/427/21 1232/425/21 1231/425/22
f 594/427/21 593/427/20 1233/425/20 1232/425/21
f 593/427/20 592/358/19 1234/425/19 1233/425/20
f 592/358/19 591/358/18 1235/425/18 1234/425/19
f 591/358/18 590/358/17 1236/425/17 1235/425/18
f 590/358/17 589/358/16 1237/425/16 1236/425/17
f 589/358/16 588/428/15 1238/425/15 1237/425/16
f 588/428/15 587/428/14 1239/425/14 1238/425/15
f 587/428/14 586/428/13 1240/425/13 1239/425/14
f 586/428/13 585/428/12 1241/425/12 1240/425/13
f 585/428/12 584/425/11 1242/429/11 1241/425/12
f 584/425/11 583/429/10 1243/429/10 1242/429/11
f 583/429/10 582/429/9 1244/430/9 1243/429/10
f 582/429/9 581/429/8 1245/431/8 1244/430/9
f 581/429/8 580/430/7 1246/431/7 1245/431/8
f 580/430/7 579/430/6 1247/432/6 1246/431/7
f 579/430/6 578/430/5 1248/433/5 1247/432/6
f 578/430/5 577/430/4 1249/431/4 1248/433/5
f 577/430/4 600/430/3 1226/430/3 1249/431/4
f 624/431/1 601/430/1 648/430/1 625/431/1
f 623/433/1 624/431/1 625/431/1 626/431/1
f 622/432/1 623/433/1 626/431/1 627/431/1
f 621/431/1 622/432/1 627/431/1 628/431/1
f 620/431/1 621/431/1 628/431/1 629/431/1
f 619/430/1 620/431/1 629/431/1 630/430/1
f 618/429/1 619/430/1 630/430/1 631/430/1
f 617/429/1 618/429/1 631/430/1 632/429/1
f 616/425/1 617/429/1 632/429/1 633/425/1
f 615/425/1 616/425/1 633/425/1 634/425/1
f 614/425/1 615/425/1 634/425/1 635/425/1
f 613/425/1 614/425/1 635/425/1 636/425/1
f 612/425/1 613/425/1 636/425/1 637/425/1
f 611/425/1 612/425/1 637/425/1 638/425/1
f 610/425/1 611/425/1 638/425/1 639/425/1
f 609/425/1 610/425/1 639/425/1 640/425/1
f 608/425/1 609/425/1 640/425/1 641/425/1
f 607/425/1 608/425/1 641/425/1 642/425/1
f 606/425/1 607/425/1 642/425/1 643/425/1
f 605/425/1 606/425/1 643/425/1 644/425/1
f 604/425/1 605/425/1 644/425/1 645/425/1
f 603/425/1 604/425/1 645/425/1 646/429/1
f 602/430/1 603/425/1 646/429/1 647/429/1
f 601/430/1 602/430/1 647/429/1 648/430/1
f 648/430/1 647/429/1 649/429/1
f 647/429/1 646/429/1 649/429/1
f 646/429/1 645/425/1 649/429/1
f 645/425/1 644/425/1 649/429/1
f 644/425/1 643/425/1 649/429/1
f 643/425/1 642/425/1 649/429/1
f 642/425/1 641/425/1 649/429/1
f 641/425/1 640/425/1 649/429/1
f 640/425/1 639/425/1 649/429/1
f 639/425/1 638/425/1 649/429/1
f 638/425/1 637/425/1 649/429/1
f 637/425/1 636/425/1 649/429/1
f 636/425/1 635/425/1 649/429/1
f 635/425/1 634/425/1 649/429/1
f 634/425/1 633/425/1 649/429/1
f 633/425/1 632/429/1 649/429/1
f 632/429/1 631/430/1 649/429/1
f 631/430/1 630/430/1 649/429/1
f 630/430/1 629/431/1 649/429/1
f 629/431/1 628/431/1 649/429/1
f 628/431/1 627/431/1 649/429/1
f 627/431/1 626/431/1 649/429/1
f 626/431/1 625/431/1 649/429/1
f 625/431/1 648/430/1 649/429/1
