# Blender v2.75 (sub 0) OBJ File: 'plaza.blend'
# www.blender.org
mtllib farol_cabeza.mtl
o Cube.011_Cube.027
v 0.269935 1.159981 -4.605044
v 0.269935 1.159981 -4.502828
v 0.167718 1.159981 -4.502828
v 0.167718 1.159981 -4.605044
v 0.301786 1.335521 -4.636896
v 0.301786 1.335521 -4.470976
v 0.135866 1.335521 -4.470976
v 0.135866 1.335521 -4.636896
v 0.130058 1.335521 -4.642704
v 0.130058 1.335521 -4.465168
v 0.307595 1.335521 -4.465168
v 0.307595 1.335521 -4.642704
v 0.307595 1.341898 -4.642704
v 0.307595 1.341898 -4.465168
v 0.130058 1.341898 -4.465168
v 0.130058 1.341898 -4.642704
v 0.125235 1.341898 -4.647528
v 0.125234 1.341898 -4.460344
v 0.312418 1.341898 -4.460344
v 0.312418 1.341898 -4.647528
v 0.312418 1.353587 -4.647528
v 0.312418 1.353587 -4.460344
v 0.125234 1.353587 -4.460344
v 0.125235 1.353587 -4.647528
v 0.129351 1.353587 -4.643411
v 0.129351 1.353587 -4.464461
v 0.308301 1.353587 -4.464461
v 0.308301 1.353587 -4.643411
v 0.308301 1.359964 -4.643411
v 0.308301 1.359964 -4.464461
v 0.129351 1.359964 -4.464461
v 0.129351 1.359964 -4.643411
v 0.153129 1.385468 -4.619633
v 0.153129 1.385468 -4.488239
v 0.284523 1.385468 -4.488239
v 0.284523 1.385468 -4.619633
v 0.275855 1.385468 -4.610965
v 0.275855 1.385468 -4.496907
v 0.161798 1.385468 -4.496907
v 0.161798 1.385468 -4.610965
v 0.187192 1.436475 -4.585570
v 0.187192 1.436475 -4.522302
v 0.250460 1.436475 -4.522302
v 0.250460 1.436475 -4.585570
v 0.247233 1.436475 -4.582343
v 0.247233 1.436475 -4.525529
v 0.190420 1.436475 -4.525529
v 0.190420 1.436475 -4.582343
v 0.211261 1.476857 -4.561502
v 0.211261 1.476857 -4.546371
v 0.226392 1.476857 -4.546371
v 0.226392 1.476857 -4.561502
v 0.228150 1.483234 -4.563260
v 0.228150 1.483234 -4.544612
v 0.209503 1.483234 -4.544612
v 0.209503 1.483234 -4.563260
v 0.209000 1.486422 -4.563763
v 0.209000 1.486422 -4.544109
v 0.228653 1.486422 -4.544109
v 0.228653 1.486422 -4.563763
v 0.226754 1.492799 -4.561863
v 0.226754 1.492799 -4.546009
v 0.210899 1.492799 -4.546009
v 0.210899 1.492799 -4.561863
v 0.214027 1.498114 -4.558735
v 0.214027 1.498114 -4.549137
v 0.223626 1.498114 -4.549137
v 0.223626 1.498114 -4.558735
v 0.221468 1.503428 -4.556577
v 0.221468 1.503428 -4.551295
v 0.216185 1.503428 -4.551295
v 0.216185 1.503428 -4.556577
v 0.177939 1.177535 -4.499642
v 0.152458 1.317967 -4.474161
v 0.259713 1.177535 -4.499642
v 0.285194 1.317967 -4.474161
v 0.273120 1.177535 -4.594823
v 0.298601 1.317967 -4.620304
v 0.273120 1.177535 -4.513049
v 0.298601 1.317967 -4.487568
v 0.177939 1.177535 -4.608230
v 0.152458 1.317967 -4.633711
v 0.259713 1.177535 -4.608230
v 0.285194 1.317967 -4.633711
v 0.164533 1.177535 -4.594823
v 0.139051 1.317967 -4.620304
v 0.164533 1.177535 -4.513049
v 0.139051 1.317967 -4.487568
v 0.177939 1.177535 -4.521624
v 0.259713 1.177535 -4.521624
v 0.152458 1.317967 -4.496142
v 0.285194 1.317967 -4.496142
v 0.255532 1.180726 -4.594823
v 0.255532 1.180726 -4.513049
v 0.281013 1.321158 -4.620304
v 0.281013 1.321158 -4.487568
v 0.177939 1.181630 -4.585660
v 0.259713 1.181630 -4.585660
v 0.152458 1.322062 -4.611140
v 0.285194 1.322062 -4.611140
v 0.187159 1.181639 -4.594823
v 0.187159 1.181639 -4.513049
v 0.161678 1.322071 -4.620304
v 0.161678 1.322071 -4.487568
v 0.269935 1.159981 -4.502828
v 0.269935 1.159981 -4.502828
v 0.167718 1.159981 -4.502828
v 0.167718 1.159981 -4.502828
v 0.269935 1.159981 -4.605044
v 0.269935 1.159981 -4.605044
v 0.167718 1.159981 -4.605044
v 0.167718 1.159981 -4.605044
v 0.301786 1.335521 -4.636896
v 0.301786 1.335521 -4.636896
v 0.301786 1.335521 -4.470976
v 0.301786 1.335521 -4.470976
v 0.135866 1.335521 -4.470976
v 0.135866 1.335521 -4.470976
v 0.135866 1.335521 -4.636896
v 0.135866 1.335521 -4.636896
v 0.130058 1.335521 -4.642704
v 0.130058 1.335521 -4.642704
v 0.307595 1.335521 -4.642704
v 0.307595 1.335521 -4.642704
v 0.130058 1.335521 -4.465168
v 0.130058 1.335521 -4.465168
v 0.307595 1.335521 -4.465168
v 0.307595 1.335521 -4.465168
v 0.307595 1.341898 -4.642704
v 0.307595 1.341898 -4.642704
v 0.307595 1.341898 -4.465168
v 0.307595 1.341898 -4.465168
v 0.130058 1.341898 -4.465168
v 0.130058 1.341898 -4.465168
v 0.130058 1.341898 -4.642704
v 0.130058 1.341898 -4.642704
v 0.125235 1.341898 -4.647528
v 0.125235 1.341898 -4.647528
v 0.312418 1.341898 -4.647528
v 0.312418 1.341898 -4.647528
v 0.125234 1.341898 -4.460344
v 0.125234 1.341898 -4.460344
v 0.312418 1.341898 -4.460344
v 0.312418 1.341898 -4.460344
v 0.312418 1.353587 -4.647528
v 0.312418 1.353587 -4.647528
v 0.312418 1.353587 -4.460344
v 0.312418 1.353587 -4.460344
v 0.125234 1.353587 -4.460344
v 0.125234 1.353587 -4.460344
v 0.125235 1.353587 -4.647528
v 0.125235 1.353587 -4.647528
v 0.129351 1.353587 -4.643411
v 0.129351 1.353587 -4.643411
v 0.308301 1.353587 -4.643411
v 0.308301 1.353587 -4.643411
v 0.129351 1.353587 -4.464461
v 0.129351 1.353587 -4.464461
v 0.308301 1.353587 -4.464461
v 0.308301 1.353587 -4.464461
v 0.308301 1.359964 -4.643411
v 0.308301 1.359964 -4.643411
v 0.308301 1.359964 -4.643411
v 0.308301 1.359964 -4.464461
v 0.308301 1.359964 -4.464461
v 0.308301 1.359964 -4.464461
v 0.129351 1.359964 -4.464461
v 0.129351 1.359964 -4.464461
v 0.129351 1.359964 -4.464461
v 0.129351 1.359964 -4.643411
v 0.129351 1.359964 -4.643411
v 0.129351 1.359964 -4.643411
v 0.153129 1.385468 -4.619633
v 0.153129 1.385468 -4.619633
v 0.284523 1.385468 -4.619633
v 0.284523 1.385468 -4.619633
v 0.153129 1.385468 -4.488239
v 0.153129 1.385468 -4.488239
v 0.284523 1.385468 -4.488239
v 0.284523 1.385468 -4.488239
v 0.275855 1.385468 -4.610965
v 0.275855 1.385468 -4.610965
v 0.275855 1.385468 -4.496907
v 0.275855 1.385468 -4.496907
v 0.161798 1.385468 -4.496907
v 0.161798 1.385468 -4.496907
v 0.161798 1.385468 -4.610965
v 0.161798 1.385468 -4.610965
v 0.187192 1.436475 -4.585570
v 0.187192 1.436475 -4.585570
v 0.250460 1.436475 -4.585570
v 0.250460 1.436475 -4.585570
v 0.187192 1.436475 -4.522302
v 0.187192 1.436475 -4.522302
v 0.250460 1.436475 -4.522302
v 0.250460 1.436475 -4.522302
v 0.247233 1.436475 -4.582343
v 0.247233 1.436475 -4.582343
v 0.247233 1.436475 -4.525529
v 0.247233 1.436475 -4.525529
v 0.190420 1.436475 -4.525529
v 0.190420 1.436475 -4.525529
v 0.190420 1.436475 -4.582343
v 0.190420 1.436475 -4.582343
v 0.211261 1.476857 -4.561502
v 0.211261 1.476857 -4.561502
v 0.211261 1.476857 -4.561502
v 0.226392 1.476857 -4.561502
v 0.226392 1.476857 -4.561502
v 0.226392 1.476857 -4.561502
v 0.211261 1.476857 -4.546371
v 0.211261 1.476857 -4.546371
v 0.211261 1.476857 -4.546371
v 0.226392 1.476857 -4.546371
v 0.226392 1.476857 -4.546371
v 0.226392 1.476857 -4.546371
v 0.228150 1.483234 -4.563260
v 0.228150 1.483234 -4.544612
v 0.209503 1.483234 -4.544612
v 0.209503 1.483234 -4.563260
v 0.209000 1.486422 -4.563763
v 0.228653 1.486422 -4.563763
v 0.209000 1.486422 -4.544109
v 0.228653 1.486422 -4.544109
v 0.226754 1.492799 -4.561863
v 0.226754 1.492799 -4.546009
v 0.210899 1.492799 -4.546009
v 0.210899 1.492799 -4.561863
v 0.214027 1.498114 -4.558735
v 0.223626 1.498114 -4.558735
v 0.214027 1.498114 -4.549137
v 0.223626 1.498114 -4.549137
v 0.221468 1.503428 -4.556577
v 0.221468 1.503428 -4.556577
v 0.221468 1.503428 -4.551295
v 0.221468 1.503428 -4.551295
v 0.216185 1.503428 -4.551295
v 0.216185 1.503428 -4.551295
v 0.216185 1.503428 -4.556577
v 0.216185 1.503428 -4.556577
v 0.177939 1.177535 -4.499642
v 0.177939 1.177535 -4.499642
v 0.152458 1.317967 -4.474161
v 0.152458 1.317967 -4.474161
v 0.259713 1.177535 -4.499642
v 0.259713 1.177535 -4.499642
v 0.285194 1.317967 -4.474161
v 0.285194 1.317967 -4.474161
v 0.273120 1.177535 -4.594823
v 0.273120 1.177535 -4.594823
v 0.298601 1.317967 -4.620304
v 0.298601 1.317967 -4.620304
v 0.273120 1.177535 -4.513049
v 0.273120 1.177535 -4.513049
v 0.298601 1.317967 -4.487568
v 0.298601 1.317967 -4.487568
v 0.177939 1.177535 -4.608230
v 0.177939 1.177535 -4.608230
v 0.152458 1.317967 -4.633711
v 0.152458 1.317967 -4.633711
v 0.259713 1.177535 -4.608230
v 0.259713 1.177535 -4.608230
v 0.285194 1.317967 -4.633711
v 0.285194 1.317967 -4.633711
v 0.164533 1.177535 -4.594823
v 0.164533 1.177535 -4.594823
v 0.139051 1.317967 -4.620304
v 0.139051 1.317967 -4.620304
v 0.164533 1.177535 -4.513049
v 0.164533 1.177535 -4.513049
v 0.139051 1.317967 -4.487568
v 0.139051 1.317967 -4.487568
v 0.259713 1.177535 -4.521624
v 0.259713 1.177535 -4.521624
v 0.177939 1.177535 -4.521624
v 0.177939 1.177535 -4.521624
v 0.152458 1.317967 -4.496142
v 0.152458 1.317967 -4.496142
v 0.285194 1.317967 -4.496142
v 0.285194 1.317967 -4.496142
v 0.255532 1.180726 -4.594823
v 0.255532 1.180726 -4.594823
v 0.255532 1.180726 -4.513049
v 0.255532 1.180726 -4.513049
v 0.281013 1.321158 -4.487568
v 0.281013 1.321158 -4.487568
v 0.281013 1.321158 -4.620304
v 0.281013 1.321158 -4.620304
v 0.177939 1.181630 -4.585660
v 0.177939 1.181630 -4.585660
v 0.259713 1.181630 -4.585660
v 0.259713 1.181630 -4.585660
v 0.285194 1.322062 -4.611140
v 0.285194 1.322062 -4.611140
v 0.152458 1.322062 -4.611140
v 0.152458 1.322062 -4.611140
v 0.187159 1.181639 -4.513049
v 0.187159 1.181639 -4.513049
v 0.187159 1.181639 -4.594823
v 0.187159 1.181639 -4.594823
v 0.161678 1.322071 -4.620304
v 0.161678 1.322071 -4.620304
v 0.161678 1.322071 -4.487568
v 0.161678 1.322071 -4.487568
vt 0.629312 0.646670
vt 0.753540 0.646670
vt 0.753540 0.775263
vt 0.629312 0.775263
vt 0.216163 0.474669
vt 0.216163 0.265937
vt 0.223223 0.258629
vt 0.223223 0.481976
vt 0.014514 0.265937
vt 0.007454 0.258629
vt 0.014514 0.474669
vt 0.007454 0.481976
vt 0.982407 0.402252
vt 0.982407 0.625599
vt 0.974674 0.625598
vt 0.974674 0.402251
vt 0.974536 0.870017
vt 0.974536 0.646670
vt 0.982270 0.646670
vt 0.982270 0.870017
vt 0.992546 0.007716
vt 0.992546 0.231062
vt 0.984812 0.231063
vt 0.984812 0.007717
vt 0.969903 0.007716
vt 0.969903 0.231063
vt 0.962154 0.231063
vt 0.962154 0.007716
vt 0.255726 0.013783
vt 0.255726 0.237131
vt 0.249864 0.243198
vt 0.249864 0.007716
vt 0.471494 0.237131
vt 0.477356 0.243198
vt 0.471494 0.013783
vt 0.477356 0.007716
vt 0.438702 0.730457
vt 0.438702 0.965940
vt 0.424527 0.965938
vt 0.424527 0.730455
vt 0.923341 0.646670
vt 0.923341 0.882153
vt 0.909166 0.882153
vt 0.909165 0.646670
vt 0.933070 0.243200
vt 0.933070 0.007717
vt 0.947245 0.007716
vt 0.947245 0.243198
vt 0.918162 0.007716
vt 0.918162 0.243198
vt 0.903958 0.243198
vt 0.903958 0.007716
vt 0.234955 0.007716
vt 0.234955 0.243198
vt 0.229952 0.238019
vt 0.229952 0.012895
vt 0.007454 0.243198
vt 0.012458 0.238019
vt 0.007454 0.007716
vt 0.012458 0.012895
vt 0.708842 0.232840
vt 0.708842 0.007716
vt 0.716576 0.007717
vt 0.716576 0.232841
vt 0.809057 0.646670
vt 0.809057 0.871795
vt 0.801324 0.871795
vt 0.801324 0.646670
vt 0.804985 0.007716
vt 0.804985 0.232840
vt 0.797252 0.232841
vt 0.797252 0.007717
vt 0.845290 0.264360
vt 0.845290 0.489484
vt 0.837541 0.489484
vt 0.837541 0.264360
vt 0.807195 0.459571
vt 0.807195 0.294273
vt 0.764368 0.202874
vt 0.764368 0.037577
vt 0.768449 0.841881
vt 0.768449 0.676584
vt 0.749459 0.037577
vt 0.749459 0.202874
vt 0.614403 0.811968
vt 0.454708 0.811968
vt 0.465243 0.801063
vt 0.603868 0.801063
vt 0.614403 0.646670
vt 0.603868 0.657575
vt 0.454708 0.646670
vt 0.465243 0.657575
vt 0.147591 0.730474
vt 0.147591 0.873962
vt 0.086298 0.842015
vt 0.086299 0.762422
vt 0.366829 0.730455
vt 0.366829 0.873943
vt 0.302885 0.841943
vt 0.302885 0.762350
vt 0.071390 0.730474
vt 0.071390 0.873962
vt 0.007454 0.842015
vt 0.007454 0.762422
vt 0.287976 0.730455
vt 0.287976 0.873943
vt 0.224032 0.842048
vt 0.224032 0.762456
vt 0.706207 0.870286
vt 0.629312 0.870287
vt 0.633234 0.866227
vt 0.702284 0.866226
vt 0.706207 0.790694
vt 0.702284 0.794754
vt 0.629312 0.790694
vt 0.633234 0.794754
vt 0.823966 0.843430
vt 0.893020 0.843430
vt 0.867688 0.893632
vt 0.849298 0.893632
vt 0.523762 0.913628
vt 0.454708 0.913628
vt 0.480082 0.861169
vt 0.498473 0.861169
vt 0.607725 0.913618
vt 0.538671 0.913618
vt 0.564003 0.861167
vt 0.582393 0.861167
vt 0.876249 0.591144
vt 0.807195 0.591144
vt 0.832485 0.538685
vt 0.850876 0.538685
vt 0.830353 0.530831
vt 0.853018 0.530831
vt 0.561866 0.853312
vt 0.584530 0.853312
vt 0.477940 0.853314
vt 0.500604 0.853314
vt 0.869825 0.901702
vt 0.847161 0.901702
vt 0.870437 0.905726
vt 0.846549 0.905726
vt 0.477327 0.849355
vt 0.501214 0.849355
vt 0.561254 0.849352
vt 0.585142 0.849352
vt 0.829743 0.526872
vt 0.853631 0.526872
vt 0.832048 0.518706
vt 0.851319 0.518706
vt 0.563563 0.841187
vt 0.582833 0.841187
vt 0.479638 0.841189
vt 0.498909 0.841189
vt 0.868128 0.913694
vt 0.848858 0.913694
vt 0.864326 0.920289
vt 0.852660 0.920289
vt 0.483447 0.834253
vt 0.495113 0.834253
vt 0.567365 0.834252
vt 0.579031 0.834252
vt 0.835844 0.511769
vt 0.847510 0.511769
vt 0.838463 0.504915
vt 0.844883 0.504915
vt 0.569988 0.827399
vt 0.576408 0.827399
vt 0.486074 0.827399
vt 0.492495 0.827399
vt 0.861703 0.926912
vt 0.855283 0.926912
vt 0.807195 0.613221
vt 0.807195 0.606575
vt 0.813616 0.606575
vt 0.813616 0.613221
vt 0.209123 0.497408
vt 0.170409 0.715043
vt 0.157985 0.693280
vt 0.188956 0.519171
vt 0.046168 0.715043
vt 0.007454 0.497408
vt 0.027621 0.519171
vt 0.058592 0.693280
vt 0.387087 0.497408
vt 0.425700 0.715024
vt 0.405543 0.693263
vt 0.374653 0.519169
vt 0.224032 0.715024
vt 0.262847 0.497408
vt 0.275261 0.519169
vt 0.244209 0.693263
vt 0.530979 0.229391
vt 0.492265 0.007716
vt 0.512432 0.029883
vt 0.543403 0.207223
vt 0.693933 0.007716
vt 0.655219 0.229391
vt 0.642796 0.207223
vt 0.673767 0.029883
vt 0.238131 0.481976
vt 0.276744 0.264360
vt 0.289178 0.286121
vt 0.258288 0.460215
vt 0.400984 0.264360
vt 0.439799 0.481976
vt 0.419623 0.460215
vt 0.388570 0.286121
vt 0.795165 0.887226
vt 0.795165 0.990100
vt 0.768449 0.990100
vt 0.768449 0.887226
vt 0.901405 0.431346
vt 0.901405 0.264360
vt 0.928119 0.264360
vt 0.928119 0.431346
vt 0.886496 0.269244
vt 0.886496 0.450526
vt 0.860198 0.445642
vt 0.860198 0.264360
vt 0.862751 0.193882
vt 0.862751 0.012600
vt 0.889049 0.007716
vt 0.889049 0.188998
vt 0.485679 0.631239
vt 0.454708 0.457131
vt 0.616043 0.457131
vt 0.585072 0.631239
vt 0.224032 0.992242
vt 0.224032 0.889374
vt 0.245409 0.889416
vt 0.245409 0.992284
vt 0.959627 0.646670
vt 0.959627 0.813640
vt 0.938250 0.813696
vt 0.938250 0.646726
vt 0.938039 0.625599
vt 0.938039 0.446795
vt 0.959765 0.446777
vt 0.959765 0.625581
vt 0.923130 0.446777
vt 0.923130 0.628059
vt 0.901405 0.628089
vt 0.901405 0.446807
vt 0.661842 0.438453
vt 0.630952 0.264360
vt 0.792286 0.264360
vt 0.761234 0.438453
vt 0.671722 0.988591
vt 0.671722 0.885718
vt 0.699207 0.885718
vt 0.699207 0.988591
vt 0.721115 0.957680
vt 0.721115 0.790694
vt 0.748615 0.790694
vt 0.748615 0.957680
vt 0.409618 0.730488
vt 0.409618 0.911784
vt 0.381738 0.911751
vt 0.381738 0.730455
vt 0.851846 0.646670
vt 0.851846 0.827966
vt 0.823966 0.827999
vt 0.823966 0.646703
vt 0.454708 0.441700
vt 0.485680 0.264360
vt 0.585072 0.264360
vt 0.616043 0.441700
vt 0.656814 0.885718
vt 0.656814 0.988586
vt 0.629312 0.988640
vt 0.629312 0.885772
vt 0.894257 0.646742
vt 0.894257 0.813712
vt 0.866755 0.813640
vt 0.866755 0.646670
vt 0.162500 0.909279
vt 0.162500 0.730474
vt 0.190450 0.730498
vt 0.190450 0.909303
vt 0.847843 0.007753
vt 0.847843 0.189035
vt 0.819894 0.188998
vt 0.819894 0.007716
vt 0.761234 0.453884
vt 0.792286 0.627978
vt 0.630952 0.627978
vt 0.661842 0.453884
vn 0.000000 -1.000000 0.000000
vn 1.000000 0.000000 0.000000
vn 0.000000 0.000000 1.000000
vn -1.000000 0.000000 0.000000
vn 0.000000 0.000000 -1.000000
vn 0.000000 1.000000 0.000000
vn 0.000000 0.681900 -0.731400
vn -0.731400 0.681900 0.000000
vn 0.000000 0.681900 0.731400
vn 0.731400 0.681900 0.000000
vn 0.000000 0.445700 -0.895200
vn -0.895200 0.445700 0.000000
vn 0.000000 0.445700 0.895200
vn 0.895200 0.445700 0.000000
vn 0.000000 0.458600 -0.888600
vn -0.888600 0.458600 0.000000
vn 0.000000 0.458600 0.888600
vn 0.888600 0.458600 0.000000
vn 0.964000 -0.265800 0.000000
vn 0.979000 -0.203600 0.000000
vn 0.000000 -0.265800 0.964000
vn 0.000000 -0.203600 0.979000
vn -0.964000 -0.265800 0.000000
vn -0.979000 -0.203600 0.000000
vn 0.000000 -0.265800 -0.964000
vn 0.000000 -0.203600 -0.979000
vn 0.000000 0.056100 -0.998400
vn -0.998400 0.056100 0.000000
vn 0.000000 0.056100 0.998400
vn 0.998400 0.056100 0.000000
vn 0.928700 0.370800 0.000000
vn 0.000000 0.370800 0.928700
vn -0.928700 0.370800 0.000000
vn 0.000000 0.370800 -0.928700
vn 0.000000 0.459600 -0.888100
vn -0.888100 0.459600 0.000000
vn 0.000000 0.459600 0.888100
vn 0.888100 0.459600 0.000000
vn 0.926500 0.376200 0.000000
vn 0.000000 0.376200 0.926500
vn -0.926500 0.376200 0.000000
vn 0.000000 0.376200 -0.926500
vn 0.000000 -0.178500 0.983900
vn 0.983900 -0.178500 0.000000
vn 0.000000 -0.178500 -0.983900
vn -0.983900 -0.178500 0.000000
vn -0.983900 0.178500 0.000000
vn 0.983900 0.178500 0.000000
vn 0.178500 0.983900 0.000000
vn -0.178500 -0.983900 0.000000
vn 0.031400 0.172900 -0.984400
vn 0.031400 0.172900 0.984400
vn 0.000000 0.983900 -0.178500
vn 0.000000 -0.983900 0.178500
vn -0.984400 0.172900 -0.031400
vn 0.984400 0.172900 -0.031400
vn -0.178500 0.983900 0.000000
vn 0.178500 -0.983900 0.000000
vn -0.031400 0.172900 -0.984400
vn -0.031400 0.172900 0.984400
usemtl Material.005
s 1
f 109/1/1 105/2/1 107/3/1 111/4/1
f 113/5/1 119/6/1 121/7/1 123/8/1
f 119/6/1 117/9/1 125/10/1 121/7/1
f 117/9/1 115/11/1 127/12/1 125/10/1
f 115/11/1 113/5/1 123/8/1 127/12/1
f 128/13/2 124/14/2 129/15/2 131/16/2
f 126/17/3 11/18/3 132/19/3 133/20/3
f 122/21/4 10/22/4 134/23/4 135/24/4
f 12/25/5 9/26/5 136/27/5 130/28/5
f 13/29/1 16/30/1 137/31/1 139/32/1
f 16/30/1 15/33/1 141/34/1 137/31/1
f 15/33/1 14/35/1 143/36/1 141/34/1
f 14/35/1 13/29/1 139/32/1 143/36/1
f 144/37/2 140/38/2 145/39/2 147/40/2
f 142/41/3 19/42/3 148/43/3 149/44/3
f 138/45/4 18/46/4 150/47/4 151/48/4
f 20/49/5 17/50/5 152/51/5 146/52/5
f 21/53/6 24/54/6 153/55/6 155/56/6
f 24/54/6 23/57/6 157/58/6 153/55/6
f 23/57/6 22/59/6 159/60/6 157/58/6
f 22/59/6 21/53/6 155/56/6 159/60/6
f 160/61/2 156/62/2 161/63/2 164/64/2
f 158/65/3 27/66/3 165/67/3 167/68/3
f 154/69/4 26/70/4 168/71/4 170/72/4
f 28/73/5 25/74/5 171/75/5 162/76/5
f 163/76/7 172/75/7 173/77/7 175/78/7
f 32/72/8 169/71/8 177/79/8 174/80/8
f 31/68/9 166/67/9 179/81/9 178/82/9
f 30/64/10 29/63/10 176/83/10 180/84/10
f 35/85/6 36/86/6 181/87/6 183/88/6
f 34/89/6 35/85/6 183/88/6 185/90/6
f 33/91/6 34/89/6 185/90/6 187/92/6
f 36/86/6 33/91/6 187/92/6 181/87/6
f 182/93/11 188/94/11 189/95/11 191/96/11
f 40/97/12 186/98/12 193/99/12 190/100/12
f 39/101/13 184/102/13 195/103/13 194/104/13
f 38/105/14 37/106/14 192/107/14 196/108/14
f 43/109/6 44/110/6 197/111/6 199/112/6
f 42/113/6 43/109/6 199/112/6 201/114/6
f 41/115/6 42/113/6 201/114/6 203/116/6
f 44/110/6 41/115/6 203/116/6 197/111/6
f 198/117/15 204/118/15 205/119/15 208/120/15
f 48/121/16 202/122/16 211/123/16 206/124/16
f 47/125/17 200/126/17 214/127/17 212/128/17
f 46/129/18 45/130/18 209/131/18 215/132/18
f 216/132/19 210/131/19 217/133/20 218/134/20
f 213/128/21 51/127/21 54/135/22 219/136/22
f 207/124/23 50/123/23 55/137/24 220/138/24
f 52/120/25 49/119/25 56/139/26 53/140/26
f 53/140/26 56/139/26 221/141/27 222/142/27
f 220/138/24 55/137/24 223/143/28 57/144/28
f 219/136/22 54/135/22 224/145/29 58/146/29
f 218/134/20 217/133/20 60/147/30 59/148/30
f 59/148/30 60/147/30 225/149/31 226/150/31
f 58/146/29 224/145/29 62/151/32 227/152/32
f 57/144/28 223/143/28 63/153/33 228/154/33
f 222/142/27 221/141/27 64/155/34 61/156/34
f 61/156/34 64/155/34 229/157/35 230/158/35
f 228/154/33 63/153/33 231/159/36 65/160/36
f 227/152/32 62/151/32 232/161/37 66/162/37
f 226/150/31 225/149/31 68/163/38 67/164/38
f 67/164/38 68/163/38 233/165/39 235/166/39
f 66/162/37 232/161/37 236/167/40 237/168/40
f 65/160/36 231/159/36 238/169/41 239/170/41
f 230/158/35 229/157/35 240/171/42 234/172/42
f 69/173/6 72/174/6 71/175/6 70/176/6
f 118/177/43 108/178/43 241/179/43 243/180/43
f 106/181/43 116/182/43 247/183/43 245/184/43
f 116/182/43 118/177/43 243/180/43 247/183/43
f 108/178/43 106/181/43 245/184/43 241/179/43
f 110/185/44 114/186/44 251/187/44 249/188/44
f 6/189/44 2/190/44 253/191/44 255/192/44
f 114/186/44 6/189/44 255/192/44 251/187/44
f 2/190/44 110/185/44 249/188/44 253/191/44
f 112/193/45 120/194/45 259/195/45 257/196/45
f 5/197/45 1/198/45 261/199/45 263/200/45
f 120/194/45 5/197/45 263/200/45 259/195/45
f 1/198/45 112/193/45 257/196/45 261/199/45
f 8/201/46 4/202/46 265/203/46 267/204/46
f 3/205/46 7/206/46 271/207/46 269/208/46
f 7/206/46 8/201/46 267/204/46 271/207/46
f 4/202/46 3/205/46 269/208/46 265/203/46
f 242/209/6 246/210/6 273/211/6 275/212/6
f 248/213/1 244/214/1 277/215/1 279/216/1
f 75/217/47 76/218/47 280/219/47 274/220/47
f 74/221/48 73/222/48 276/223/48 278/224/48
f 90/225/43 92/226/43 91/227/43 89/228/43
f 254/229/49 250/230/49 281/231/49 283/232/49
f 252/233/50 256/234/50 285/235/50 287/236/50
f 80/237/51 79/238/51 284/239/51 286/240/51
f 77/241/52 78/242/52 288/243/52 282/244/52
f 93/245/44 95/246/44 96/247/44 94/248/44
f 262/249/53 258/250/53 289/251/53 291/252/53
f 260/253/54 264/254/54 293/255/54 295/256/54
f 84/257/55 83/258/55 292/259/55 294/260/55
f 81/261/56 82/262/56 296/263/56 290/264/56
f 100/265/45 98/266/45 97/267/45 99/268/45
f 266/269/57 270/270/57 297/271/57 299/272/57
f 272/273/58 268/274/58 301/275/58 303/276/58
f 87/277/59 88/278/59 304/279/59 298/280/59
f 86/281/60 85/282/60 300/283/60 302/284/60
f 102/285/46 104/286/46 103/287/46 101/288/46
