# Blender v2.75 (sub 0) OBJ File: 'letras.blend'
# www.blender.org
mtllib letras_isla_pescado.mtl
o Text_Textdafd
v 2.584737 -0.685391 0.156000
v 2.177685 -1.071484 0.156000
v 1.776083 -0.685328 0.156000
v 2.179825 -0.299236 0.156000
v 2.433590 -0.685360 0.156000
v 2.179861 -0.437354 0.156000
v 1.927086 -0.685360 0.156000
v 2.179861 -0.933366 0.156000
v 1.229377 -0.314720 0.156000
v 1.623912 -0.685344 0.156000
v 1.230429 -1.056000 0.156000
v 0.931440 -1.056000 0.156000
v 0.931440 -0.314720 0.156000
v 1.205326 -0.932480 0.156000
v 1.471866 -0.685467 0.156000
v 1.200210 -0.438240 0.156000
v 1.065360 -0.438240 0.156000
v 1.065360 -0.932480 0.156000
v 0.650081 -1.056000 0.156000
v 0.555440 -0.846960 0.156000
v 0.274717 -0.846960 0.156000
v 0.185277 -1.056000 0.156000
v 0.046488 -1.056000 0.156000
v 0.364876 -0.310560 0.156000
v 0.457597 -0.310560 0.156000
v 0.789024 -1.056000 0.156000
v 0.499520 -0.723440 0.156000
v 0.410315 -0.523135 0.156000
v 0.327598 -0.723440 0.156000
v -0.327432 -0.432982 0.156000
v -0.591396 -0.686271 0.156000
v -0.323539 -0.937629 0.156000
v -0.064080 -0.853687 0.156000
v -0.064080 -0.999539 0.156000
v -0.341518 -1.066932 0.156000
v -0.742999 -0.695998 0.156000
v -0.335509 -0.303762 0.156000
v -0.071360 -0.366977 0.156000
v -0.071360 -0.510348 0.156000
v -1.099270 -0.431312 0.156000
v -1.190454 -0.499700 0.156000
v -0.884962 -0.858006 0.156000
v -1.101340 -1.067586 0.156000
v -1.320160 -0.995410 0.156000
v -1.320160 -0.827820 0.156000
v -1.118455 -0.938758 0.156000
v -1.024612 -0.866051 0.156000
v -1.330753 -0.509059 0.156000
v -1.096828 -0.303385 0.156000
v -0.918960 -0.359554 0.156000
v -0.918960 -0.511325 0.156000
v -1.778000 -0.438240 0.156000
v -1.778000 -0.620480 0.156000
v -1.487840 -0.620480 0.156000
v -1.487840 -0.744000 0.156000
v -1.778000 -0.744000 0.156000
v -1.778000 -0.932480 0.156000
v -1.468080 -0.932480 0.156000
v -1.468080 -1.056000 0.156000
v -1.911920 -1.056000 0.156000
v -1.911920 -0.314720 0.156000
v -1.477440 -0.314720 0.156000
v -1.477440 -0.438240 0.156000
v -2.063887 -0.535068 0.156000
v -2.321743 -0.749200 0.156000
v -2.417600 -0.749200 0.156000
v -2.417600 -1.056000 0.156000
v -2.551520 -1.056000 0.156000
v -2.551520 -0.314720 0.156000
v -2.307844 -0.314720 0.156000
v -2.324257 -0.625680 0.156000
v -2.217365 -0.530367 0.156000
v -2.320122 -0.438240 0.156000
v -2.417600 -0.438240 0.156000
v -2.417600 -0.625680 0.156000
v 2.388760 0.107520 0.156000
v 2.388760 -0.016000 0.156000
v 1.934520 -0.016000 0.156000
v 1.934520 0.725280 0.156000
v 2.068440 0.725280 0.156000
v 2.068440 0.107520 0.156000
v 1.445480 0.601760 0.156000
v 1.445480 0.419520 0.156000
v 1.735640 0.419520 0.156000
v 1.735640 0.296000 0.156000
v 1.445480 0.296000 0.156000
v 1.445480 0.107520 0.156000
v 1.755400 0.107520 0.156000
v 1.755400 -0.016000 0.156000
v 1.311560 -0.016000 0.156000
v 1.311560 0.725280 0.156000
v 1.746040 0.725280 0.156000
v 1.746040 0.601760 0.156000
v 0.726537 0.725280 0.156000
v 1.121072 0.354656 0.156000
v 0.727589 -0.016000 0.156000
v 0.428600 -0.016000 0.156000
v 0.428600 0.725280 0.156000
v 0.702486 0.107520 0.156000
v 0.969026 0.354533 0.156000
v 0.697369 0.601760 0.156000
v 0.562520 0.601760 0.156000
v 0.562520 0.107520 0.156000
v -0.245880 -0.016000 0.156000
v -0.340520 0.193040 0.156000
v -0.621243 0.193040 0.156000
v -0.710683 -0.016000 0.156000
v -0.849472 -0.016000 0.156000
v -0.531085 0.729440 0.156000
v -0.438364 0.729440 0.156000
v -0.106936 -0.016000 0.156000
v -0.396441 0.316560 0.156000
v -0.485645 0.516865 0.156000
v -0.568362 0.316560 0.156000
v -0.923640 0.107520 0.156000
v -0.923640 -0.016000 0.156000
v -1.377880 -0.016000 0.156000
v -1.377880 0.725280 0.156000
v -1.243960 0.725280 0.156000
v -1.243960 0.107520 0.156000
v -1.768510 0.608688 0.156000
v -1.859694 0.540300 0.156000
v -1.554203 0.181994 0.156000
v -1.770581 -0.027587 0.156000
v -1.989400 0.044590 0.156000
v -1.989400 0.212180 0.156000
v -1.787695 0.101242 0.156000
v -1.693852 0.173949 0.156000
v -1.999994 0.530941 0.156000
v -1.766068 0.736615 0.156000
v -1.588200 0.680446 0.156000
v -1.588200 0.528675 0.156000
v -2.320120 -0.016000 0.156000
v -2.320120 0.725280 0.156000
v -2.186200 0.725280 0.156000
v -2.186200 -0.016000 0.156000
v 2.584737 -0.685391 -0.156000
v 2.177685 -1.071484 -0.156000
v 1.776083 -0.685328 -0.156000
v 2.179825 -0.299236 -0.156000
v 2.433590 -0.685360 -0.156000
v 2.179861 -0.437354 -0.156000
v 1.927086 -0.685360 -0.156000
v 2.179861 -0.933366 -0.156000
v 1.229377 -0.314720 -0.156000
v 1.623912 -0.685344 -0.156000
v 1.230429 -1.056000 -0.156000
v 0.931440 -1.056000 -0.156000
v 0.931440 -0.314720 -0.156000
v 1.205326 -0.932480 -0.156000
v 1.471866 -0.685467 -0.156000
v 1.200210 -0.438240 -0.156000
v 1.065360 -0.438240 -0.156000
v 1.065360 -0.932480 -0.156000
v 0.650081 -1.056000 -0.156000
v 0.555440 -0.846960 -0.156000
v 0.274717 -0.846960 -0.156000
v 0.185277 -1.056000 -0.156000
v 0.046488 -1.056000 -0.156000
v 0.364876 -0.310560 -0.156000
v 0.457597 -0.310560 -0.156000
v 0.789024 -1.056000 -0.156000
v 0.499520 -0.723440 -0.156000
v 0.410315 -0.523135 -0.156000
v 0.327598 -0.723440 -0.156000
v -0.327432 -0.432982 -0.156000
v -0.591396 -0.686271 -0.156000
v -0.323539 -0.937629 -0.156000
v -0.064080 -0.853687 -0.156000
v -0.064080 -0.999539 -0.156000
v -0.341518 -1.066932 -0.156000
v -0.742999 -0.695998 -0.156000
v -0.335509 -0.303762 -0.156000
v -0.071360 -0.366977 -0.156000
v -0.071360 -0.510348 -0.156000
v -1.099270 -0.431312 -0.156000
v -1.190454 -0.499700 -0.156000
v -0.884962 -0.858006 -0.156000
v -1.101340 -1.067586 -0.156000
v -1.320160 -0.995410 -0.156000
v -1.320160 -0.827820 -0.156000
v -1.118455 -0.938758 -0.156000
v -1.024612 -0.866051 -0.156000
v -1.330753 -0.509059 -0.156000
v -1.096828 -0.303385 -0.156000
v -0.918960 -0.359554 -0.156000
v -0.918960 -0.511325 -0.156000
v -1.778000 -0.438240 -0.156000
v -1.778000 -0.620480 -0.156000
v -1.487840 -0.620480 -0.156000
v -1.487840 -0.744000 -0.156000
v -1.778000 -0.744000 -0.156000
v -1.778000 -0.932480 -0.156000
v -1.468080 -0.932480 -0.156000
v -1.468080 -1.056000 -0.156000
v -1.911920 -1.056000 -0.156000
v -1.911920 -0.314720 -0.156000
v -1.477440 -0.314720 -0.156000
v -1.477440 -0.438240 -0.156000
v -2.063887 -0.535068 -0.156000
v -2.321743 -0.749200 -0.156000
v -2.417600 -0.749200 -0.156000
v -2.417600 -1.056000 -0.156000
v -2.551520 -1.056000 -0.156000
v -2.551520 -0.314720 -0.156000
v -2.307844 -0.314720 -0.156000
v -2.324257 -0.625680 -0.156000
v -2.217365 -0.530367 -0.156000
v -2.320122 -0.438240 -0.156000
v -2.417600 -0.438240 -0.156000
v -2.417600 -0.625680 -0.156000
v 2.388760 0.107520 -0.156000
v 2.388760 -0.016000 -0.156000
v 1.934520 -0.016000 -0.156000
v 1.934520 0.725280 -0.156000
v 2.068440 0.725280 -0.156000
v 2.068440 0.107520 -0.156000
v 1.445480 0.601760 -0.156000
v 1.445480 0.419520 -0.156000
v 1.735640 0.419520 -0.156000
v 1.735640 0.296000 -0.156000
v 1.445480 0.296000 -0.156000
v 1.445480 0.107520 -0.156000
v 1.755400 0.107520 -0.156000
v 1.755400 -0.016000 -0.156000
v 1.311560 -0.016000 -0.156000
v 1.311560 0.725280 -0.156000
v 1.746040 0.725280 -0.156000
v 1.746040 0.601760 -0.156000
v 0.726537 0.725280 -0.156000
v 1.121072 0.354656 -0.156000
v 0.727589 -0.016000 -0.156000
v 0.428600 -0.016000 -0.156000
v 0.428600 0.725280 -0.156000
v 0.702486 0.107520 -0.156000
v 0.969026 0.354533 -0.156000
v 0.697369 0.601760 -0.156000
v 0.562520 0.601760 -0.156000
v 0.562520 0.107520 -0.156000
v -0.245880 -0.016000 -0.156000
v -0.340520 0.193040 -0.156000
v -0.621243 0.193040 -0.156000
v -0.710683 -0.016000 -0.156000
v -0.849472 -0.016000 -0.156000
v -0.531085 0.729440 -0.156000
v -0.438364 0.729440 -0.156000
v -0.106936 -0.016000 -0.156000
v -0.396441 0.316560 -0.156000
v -0.485645 0.516865 -0.156000
v -0.568362 0.316560 -0.156000
v -0.923640 0.107520 -0.156000
v -0.923640 -0.016000 -0.156000
v -1.377880 -0.016000 -0.156000
v -1.377880 0.725280 -0.156000
v -1.243960 0.725280 -0.156000
v -1.243960 0.107520 -0.156000
v -1.768510 0.608688 -0.156000
v -1.859694 0.540300 -0.156000
v -1.554203 0.181994 -0.156000
v -1.770581 -0.027587 -0.156000
v -1.989400 0.044590 -0.156000
v -1.989400 0.212180 -0.156000
v -1.787695 0.101242 -0.156000
v -1.693852 0.173949 -0.156000
v -1.999994 0.530941 -0.156000
v -1.766068 0.736615 -0.156000
v -1.588200 0.680446 -0.156000
v -1.588200 0.528675 -0.156000
v -2.320120 -0.016000 -0.156000
v -2.320120 0.725280 -0.156000
v -2.186200 0.725280 -0.156000
v -2.186200 -0.016000 -0.156000
v -2.320120 -0.016000 -0.156000
v -2.346120 -0.042000 -0.130000
v -2.320120 0.725280 -0.156000
v -2.346120 0.751280 -0.130000
v -2.186200 0.725280 -0.156000
v -2.160200 0.751280 -0.130000
v -2.186200 -0.016000 -0.156000
v -2.160200 -0.042000 -0.130000
v -2.346120 -0.042000 -0.130000
v -2.346120 -0.042000 0.130000
v -2.346120 0.751280 -0.130000
v -2.346120 0.751280 0.130000
v -2.160200 0.751280 -0.130000
v -2.160200 0.751280 0.130000
v -2.160200 -0.042000 -0.130000
v -2.160200 -0.042000 0.130000
v -2.346120 -0.042000 0.130000
v -2.320120 -0.016000 0.156000
v -2.346120 0.751280 0.130000
v -2.320120 0.725280 0.156000
v -2.160200 0.751280 0.130000
v -2.186200 0.725280 0.156000
v -2.160200 -0.042000 0.130000
v -2.186200 -0.016000 0.156000
v -1.768510 0.608688 -0.156000
v -1.765113 0.578735 -0.130000
v -1.859694 0.540300 -0.156000
v -1.821952 0.536106 -0.130000
v -1.554203 0.181994 -0.156000
v -1.518586 0.180295 -0.130000
v -1.770581 -0.027587 -0.156000
v -1.763789 -0.057205 -0.130000
v -1.989400 0.044590 -0.156000
v -2.015400 0.025788 -0.130000
v -1.989400 0.212180 -0.156000
v -2.015400 0.256153 -0.130000
v -1.787695 0.101242 -0.156000
v -1.790124 0.132251 -0.130000
v -1.693852 0.173949 -0.156000
v -1.731377 0.177767 -0.130000
v -1.999994 0.530941 -0.156000
v -2.036448 0.533510 -0.130000
v -1.766068 0.736615 -0.156000
v -1.772222 0.765824 -0.130000
v -1.588200 0.680446 -0.156000
v -1.562200 0.699501 -0.130000
v -1.588200 0.528675 -0.156000
v -1.562200 0.488693 -0.130000
v -1.765113 0.578735 -0.130000
v -1.765113 0.578735 0.130000
v -1.821952 0.536106 -0.130000
v -1.821952 0.536106 0.130000
v -1.518586 0.180295 -0.130000
v -1.518586 0.180295 0.130000
v -1.763789 -0.057205 -0.130000
v -1.763789 -0.057205 0.130000
v -2.015400 0.025788 -0.130000
v -2.015400 0.025788 0.130000
v -2.015400 0.256153 -0.130000
v -2.015400 0.256153 0.130000
v -1.790124 0.132251 -0.130000
v -1.790124 0.132251 0.130000
v -1.731377 0.177767 -0.130000
v -1.731377 0.177767 0.130000
v -2.036448 0.533510 -0.130000
v -2.036448 0.533510 0.130000
v -1.772222 0.765824 -0.130000
v -1.772222 0.765824 0.130000
v -1.562200 0.699501 -0.130000
v -1.562200 0.699501 0.130000
v -1.562200 0.488693 -0.130000
v -1.562200 0.488693 0.130000
v -1.765113 0.578735 0.130000
v -1.768510 0.608688 0.156000
v -1.821952 0.536106 0.130000
v -1.859694 0.540300 0.156000
v -1.518586 0.180295 0.130000
v -1.554203 0.181994 0.156000
v -1.763789 -0.057205 0.130000
v -1.770581 -0.027587 0.156000
v -2.015400 0.025788 0.130000
v -1.989400 0.044590 0.156000
v -2.015400 0.256153 0.130000
v -1.989400 0.212180 0.156000
v -1.790124 0.132251 0.130000
v -1.787695 0.101242 0.156000
v -1.731377 0.177767 0.130000
v -1.693852 0.173949 0.156000
v -2.036448 0.533510 0.130000
v -1.999994 0.530941 0.156000
v -1.772222 0.765824 0.130000
v -1.766068 0.736615 0.156000
v -1.562200 0.699501 0.130000
v -1.588200 0.680446 0.156000
v -1.562200 0.488693 0.130000
v -1.588200 0.528675 0.156000
v -0.923640 0.107520 -0.156000
v -0.897640 0.133520 -0.130000
v -0.923640 -0.016000 -0.156000
v -0.897640 -0.042000 -0.130000
v -1.377880 -0.016000 -0.156000
v -1.403880 -0.042000 -0.130000
v -1.377880 0.725280 -0.156000
v -1.403880 0.751280 -0.130000
v -1.243960 0.725280 -0.156000
v -1.217960 0.751280 -0.130000
v -1.243960 0.107520 -0.156000
v -1.217960 0.133520 -0.130000
v -0.897640 0.133520 -0.130000
v -0.897640 0.133520 0.130000
v -0.897640 -0.042000 -0.130000
v -0.897640 -0.042000 0.130000
v -1.403880 -0.042000 -0.130000
v -1.403880 -0.042000 0.130000
v -1.403880 0.751280 -0.130000
v -1.403880 0.751280 0.130000
v -1.217960 0.751280 -0.130000
v -1.217960 0.751280 0.130000
v -1.217960 0.133520 -0.130000
v -1.217960 0.133520 0.130000
v -0.897640 0.133520 0.130000
v -0.923640 0.107520 0.156000
v -0.897640 -0.042000 0.130000
v -0.923640 -0.016000 0.156000
v -1.403880 -0.042000 0.130000
v -1.377880 -0.016000 0.156000
v -1.403880 0.751280 0.130000
v -1.377880 0.725280 0.156000
v -1.217960 0.751280 0.130000
v -1.243960 0.725280 0.156000
v -1.217960 0.133520 0.130000
v -1.243960 0.107520 0.156000
v -0.245880 -0.016000 -0.156000
v -0.262649 -0.042000 -0.130000
v -0.340520 0.193040 -0.156000
v -0.357289 0.167040 -0.130000
v -0.621243 0.193040 -0.156000
v -0.604087 0.167040 -0.130000
v -0.710683 -0.016000 -0.156000
v -0.693527 -0.042000 -0.130000
v -0.849472 -0.016000 -0.156000
v -0.888849 -0.042000 -0.130000
v -0.531085 0.729440 -0.156000
v -0.548252 0.755440 -0.130000
v -0.438364 0.729440 -0.156000
v -0.421470 0.755440 -0.130000
v -0.106936 -0.016000 -0.156000
v -0.066923 -0.042000 -0.130000
v -0.262649 -0.042000 -0.130000
v -0.262649 -0.042000 0.130000
v -0.357289 0.167040 -0.130000
v -0.357289 0.167040 0.130000
v -0.604087 0.167040 -0.130000
v -0.604087 0.167040 0.130000
v -0.693527 -0.042000 -0.130000
v -0.693527 -0.042000 0.130000
v -0.888849 -0.042000 -0.130000
v -0.888849 -0.042000 0.130000
v -0.548252 0.755440 -0.130000
v -0.548252 0.755440 0.130000
v -0.421470 0.755440 -0.130000
v -0.421470 0.755440 0.130000
v -0.066923 -0.042000 -0.130000
v -0.066923 -0.042000 0.130000
v -0.262649 -0.042000 0.130000
v -0.245880 -0.016000 0.156000
v -0.357289 0.167040 0.130000
v -0.340520 0.193040 0.156000
v -0.604087 0.167040 0.130000
v -0.621243 0.193040 0.156000
v -0.693527 -0.042000 0.130000
v -0.710683 -0.016000 0.156000
v -0.888849 -0.042000 0.130000
v -0.849472 -0.016000 0.156000
v -0.548252 0.755440 0.130000
v -0.531085 0.729440 0.156000
v -0.421470 0.755440 0.130000
v -0.438364 0.729440 0.156000
v -0.066923 -0.042000 0.130000
v -0.106936 -0.016000 0.156000
v -0.396441 0.316560 -0.156000
v -0.436481 0.342560 -0.130000
v -0.485645 0.516865 -0.156000
v -0.484744 0.450931 -0.130000
v -0.568362 0.316560 -0.156000
v -0.529496 0.342560 -0.130000
v -0.436481 0.342560 -0.130000
v -0.436481 0.342560 0.130000
v -0.484744 0.450931 -0.130000
v -0.484744 0.450931 0.130000
v -0.529496 0.342560 -0.130000
v -0.529496 0.342560 0.130000
v -0.436481 0.342560 0.130000
v -0.396441 0.316560 0.156000
v -0.484744 0.450931 0.130000
v -0.485645 0.516865 0.156000
v -0.529496 0.342560 0.130000
v -0.568362 0.316560 0.156000
v 0.726537 0.725280 -0.156000
v 0.736833 0.751280 -0.130000
v 1.121072 0.354656 -0.156000
v 1.159018 0.354682 -0.130000
v 0.727589 -0.016000 -0.156000
v 0.737907 -0.042000 -0.130000
v 0.428600 -0.016000 -0.156000
v 0.402600 -0.042000 -0.130000
v 0.428600 0.725280 -0.156000
v 0.402600 0.751280 -0.130000
v 0.736833 0.751280 -0.130000
v 0.736833 0.751280 0.130000
v 1.159018 0.354682 -0.130000
v 1.159018 0.354682 0.130000
v 0.737907 -0.042000 -0.130000
v 0.737907 -0.042000 0.130000
v 0.402600 -0.042000 -0.130000
v 0.402600 -0.042000 0.130000
v 0.402600 0.751280 -0.130000
v 0.402600 0.751280 0.130000
v 0.736833 0.751280 0.130000
v 0.726537 0.725280 0.156000
v 1.159018 0.354682 0.130000
v 1.121072 0.354656 0.156000
v 0.737907 -0.042000 0.130000
v 0.727589 -0.016000 0.156000
v 0.402600 -0.042000 0.130000
v 0.428600 -0.016000 0.156000
v 0.402600 0.751280 0.130000
v 0.428600 0.725280 0.156000
v 0.702486 0.107520 -0.156000
v 0.692291 0.133520 -0.130000
v 0.969026 0.354533 -0.156000
v 0.930588 0.354359 -0.130000
v 0.697369 0.601760 -0.156000
v 0.687310 0.575760 -0.130000
v 0.562520 0.601760 -0.156000
v 0.588520 0.575760 -0.130000
v 0.562520 0.107520 -0.156000
v 0.588520 0.133520 -0.130000
v 0.692291 0.133520 -0.130000
v 0.692291 0.133520 0.130000
v 0.930588 0.354359 -0.130000
v 0.930588 0.354359 0.130000
v 0.687310 0.575760 -0.130000
v 0.687310 0.575760 0.130000
v 0.588520 0.575760 -0.130000
v 0.588520 0.575760 0.130000
v 0.588520 0.133520 -0.130000
v 0.588520 0.133520 0.130000
v 0.692291 0.133520 0.130000
v 0.702486 0.107520 0.156000
v 0.930588 0.354359 0.130000
v 0.969026 0.354533 0.156000
v 0.687310 0.575760 0.130000
v 0.697369 0.601760 0.156000
v 0.588520 0.575760 0.130000
v 0.562520 0.601760 0.156000
v 0.588520 0.133520 0.130000
v 0.562520 0.107520 0.156000
v 1.445480 0.601760 -0.156000
v 1.471480 0.575760 -0.130000
v 1.445480 0.419520 -0.156000
v 1.471480 0.445520 -0.130000
v 1.735640 0.419520 -0.156000
v 1.761640 0.445520 -0.130000
v 1.735640 0.296000 -0.156000
v 1.761640 0.270000 -0.130000
v 1.445480 0.296000 -0.156000
v 1.471480 0.270000 -0.130000
v 1.445480 0.107520 -0.156000
v 1.471480 0.133520 -0.130000
v 1.755400 0.107520 -0.156000
v 1.781400 0.133520 -0.130000
v 1.755400 -0.016000 -0.156000
v 1.781400 -0.042000 -0.130000
v 1.311560 -0.016000 -0.156000
v 1.285560 -0.042000 -0.130000
v 1.311560 0.725280 -0.156000
v 1.285560 0.751280 -0.130000
v 1.746040 0.725280 -0.156000
v 1.772040 0.751280 -0.130000
v 1.746040 0.601760 -0.156000
v 1.772040 0.575760 -0.130000
v 1.471480 0.575760 -0.130000
v 1.471480 0.575760 0.130000
v 1.471480 0.445520 -0.130000
v 1.471480 0.445520 0.130000
v 1.761640 0.445520 -0.130000
v 1.761640 0.445520 0.130000
v 1.761640 0.270000 -0.130000
v 1.761640 0.270000 0.130000
v 1.471480 0.270000 -0.130000
v 1.471480 0.270000 0.130000
v 1.471480 0.133520 -0.130000
v 1.471480 0.133520 0.130000
v 1.781400 0.133520 -0.130000
v 1.781400 0.133520 0.130000
v 1.781400 -0.042000 -0.130000
v 1.781400 -0.042000 0.130000
v 1.285560 -0.042000 -0.130000
v 1.285560 -0.042000 0.130000
v 1.285560 0.751280 -0.130000
v 1.285560 0.751280 0.130000
v 1.772040 0.751280 -0.130000
v 1.772040 0.751280 0.130000
v 1.772040 0.575760 -0.130000
v 1.772040 0.575760 0.130000
v 1.471480 0.575760 0.130000
v 1.445480 0.601760 0.156000
v 1.471480 0.445520 0.130000
v 1.445480 0.419520 0.156000
v 1.761640 0.445520 0.130000
v 1.735640 0.419520 0.156000
v 1.761640 0.270000 0.130000
v 1.735640 0.296000 0.156000
v 1.471480 0.270000 0.130000
v 1.445480 0.296000 0.156000
v 1.471480 0.133520 0.130000
v 1.445480 0.107520 0.156000
v 1.781400 0.133520 0.130000
v 1.755400 0.107520 0.156000
v 1.781400 -0.042000 0.130000
v 1.755400 -0.016000 0.156000
v 1.285560 -0.042000 0.130000
v 1.311560 -0.016000 0.156000
v 1.285560 0.751280 0.130000
v 1.311560 0.725280 0.156000
v 1.772040 0.751280 0.130000
v 1.746040 0.725280 0.156000
v 1.772040 0.575760 0.130000
v 1.746040 0.601760 0.156000
v 2.388760 0.107520 -0.156000
v 2.414760 0.133520 -0.130000
v 2.388760 -0.016000 -0.156000
v 2.414760 -0.042000 -0.130000
v 1.934520 -0.016000 -0.156000
v 1.908520 -0.042000 -0.130000
v 1.934520 0.725280 -0.156000
v 1.908520 0.751280 -0.130000
v 2.068440 0.725280 -0.156000
v 2.094440 0.751280 -0.130000
v 2.068440 0.107520 -0.156000
v 2.094440 0.133520 -0.130000
v 2.414760 0.133520 -0.130000
v 2.414760 0.133520 0.130000
v 2.414760 -0.042000 -0.130000
v 2.414760 -0.042000 0.130000
v 1.908520 -0.042000 -0.130000
v 1.908520 -0.042000 0.130000
v 1.908520 0.751280 -0.130000
v 1.908520 0.751280 0.130000
v 2.094440 0.751280 -0.130000
v 2.094440 0.751280 0.130000
v 2.094440 0.133520 -0.130000
v 2.094440 0.133520 0.130000
v 2.414760 0.133520 0.130000
v 2.388760 0.107520 0.156000
v 2.414760 -0.042000 0.130000
v 2.388760 -0.016000 0.156000
v 1.908520 -0.042000 0.130000
v 1.934520 -0.016000 0.156000
v 1.908520 0.751280 0.130000
v 1.934520 0.725280 0.156000
v 2.094440 0.751280 0.130000
v 2.068440 0.725280 0.156000
v 2.094440 0.133520 0.130000
v 2.068440 0.107520 0.156000
v -2.063887 -0.535068 -0.156000
v -2.024184 -0.535893 -0.130000
v -2.321743 -0.749200 -0.156000
v -2.312355 -0.775200 -0.130000
v -2.417600 -0.749200 -0.156000
v -2.391600 -0.775200 -0.130000
v -2.417600 -1.056000 -0.156000
v -2.391600 -1.082000 -0.130000
v -2.551520 -1.056000 -0.156000
v -2.577520 -1.082000 -0.130000
v -2.551520 -0.314720 -0.156000
v -2.577520 -0.288720 -0.130000
v -2.307844 -0.314720 -0.156000
v -2.297840 -0.288720 -0.130000
v -2.024184 -0.535893 -0.130000
v -2.024184 -0.535893 0.130000
v -2.312355 -0.775200 -0.130000
v -2.312355 -0.775200 0.130000
v -2.391600 -0.775200 -0.130000
v -2.391600 -0.775200 0.130000
v -2.391600 -1.082000 -0.130000
v -2.391600 -1.082000 0.130000
v -2.577520 -1.082000 -0.130000
v -2.577520 -1.082000 0.130000
v -2.577520 -0.288720 -0.130000
v -2.577520 -0.288720 0.130000
v -2.297840 -0.288720 -0.130000
v -2.297840 -0.288720 0.130000
v -2.024184 -0.535893 0.130000
v -2.063887 -0.535068 0.156000
v -2.312355 -0.775200 0.130000
v -2.321743 -0.749200 0.156000
v -2.391600 -0.775200 0.130000
v -2.417600 -0.749200 0.156000
v -2.391600 -1.082000 0.130000
v -2.417600 -1.056000 0.156000
v -2.577520 -1.082000 0.130000
v -2.551520 -1.056000 0.156000
v -2.577520 -0.288720 0.130000
v -2.551520 -0.314720 0.156000
v -2.297840 -0.288720 0.130000
v -2.307844 -0.314720 0.156000
v -2.324257 -0.625680 -0.156000
v -2.334166 -0.599680 -0.130000
v -2.217365 -0.530367 -0.156000
v -2.256373 -0.530314 -0.130000
v -2.320122 -0.438240 -0.156000
v -2.330071 -0.464240 -0.130000
v -2.417600 -0.438240 -0.156000
v -2.391600 -0.464240 -0.130000
v -2.417600 -0.625680 -0.156000
v -2.391600 -0.599680 -0.130000
v -2.334166 -0.599680 -0.130000
v -2.334166 -0.599680 0.130000
v -2.256373 -0.530314 -0.130000
v -2.256373 -0.530314 0.130000
v -2.330071 -0.464240 -0.130000
v -2.330071 -0.464240 0.130000
v -2.391600 -0.464240 -0.130000
v -2.391600 -0.464240 0.130000
v -2.391600 -0.599680 -0.130000
v -2.391600 -0.599680 0.130000
v -2.334166 -0.599680 0.130000
v -2.324257 -0.625680 0.156000
v -2.256373 -0.530314 0.130000
v -2.217365 -0.530367 0.156000
v -2.330071 -0.464240 0.130000
v -2.320122 -0.438240 0.156000
v -2.391600 -0.464240 0.130000
v -2.417600 -0.438240 0.156000
v -2.391600 -0.599680 0.130000
v -2.417600 -0.625680 0.156000
v -1.778000 -0.438240 -0.156000
v -1.752000 -0.464240 -0.130000
v -1.778000 -0.620480 -0.156000
v -1.752000 -0.594480 -0.130000
v -1.487840 -0.620480 -0.156000
v -1.461840 -0.594480 -0.130000
v -1.487840 -0.744000 -0.156000
v -1.461840 -0.770000 -0.130000
v -1.778000 -0.744000 -0.156000
v -1.752000 -0.770000 -0.130000
v -1.778000 -0.932480 -0.156000
v -1.752000 -0.906480 -0.130000
v -1.468080 -0.932480 -0.156000
v -1.442080 -0.906480 -0.130000
v -1.468080 -1.056000 -0.156000
v -1.442080 -1.082000 -0.130000
v -1.911920 -1.056000 -0.156000
v -1.937920 -1.082000 -0.130000
v -1.911920 -0.314720 -0.156000
v -1.937920 -0.288720 -0.130000
v -1.477440 -0.314720 -0.156000
v -1.451440 -0.288720 -0.130000
v -1.477440 -0.438240 -0.156000
v -1.451440 -0.464240 -0.130000
v -1.752000 -0.464240 -0.130000
v -1.752000 -0.464240 0.130000
v -1.752000 -0.594480 -0.130000
v -1.752000 -0.594480 0.130000
v -1.461840 -0.594480 -0.130000
v -1.461840 -0.594480 0.130000
v -1.461840 -0.770000 -0.130000
v -1.461840 -0.770000 0.130000
v -1.752000 -0.770000 -0.130000
v -1.752000 -0.770000 0.130000
v -1.752000 -0.906480 -0.130000
v -1.752000 -0.906480 0.130000
v -1.442080 -0.906480 -0.130000
v -1.442080 -0.906480 0.130000
v -1.442080 -1.082000 -0.130000
v -1.442080 -1.082000 0.130000
v -1.937920 -1.082000 -0.130000
v -1.937920 -1.082000 0.130000
v -1.937920 -0.288720 -0.130000
v -1.937920 -0.288720 0.130000
v -1.451440 -0.288720 -0.130000
v -1.451440 -0.288720 0.130000
v -1.451440 -0.464240 -0.130000
v -1.451440 -0.464240 0.130000
v -1.752000 -0.464240 0.130000
v -1.778000 -0.438240 0.156000
v -1.752000 -0.594480 0.130000
v -1.778000 -0.620480 0.156000
v -1.461840 -0.594480 0.130000
v -1.487840 -0.620480 0.156000
v -1.461840 -0.770000 0.130000
v -1.487840 -0.744000 0.156000
v -1.752000 -0.770000 0.130000
v -1.778000 -0.744000 0.156000
v -1.752000 -0.906480 0.130000
v -1.778000 -0.932480 0.156000
v -1.442080 -0.906480 0.130000
v -1.468080 -0.932480 0.156000
v -1.442080 -1.082000 0.130000
v -1.468080 -1.056000 0.156000
v -1.937920 -1.082000 0.130000
v -1.911920 -1.056000 0.156000
v -1.937920 -0.288720 0.130000
v -1.911920 -0.314720 0.156000
v -1.451440 -0.288720 0.130000
v -1.477440 -0.314720 0.156000
v -1.451440 -0.464240 0.130000
v -1.477440 -0.438240 0.156000
v -1.099270 -0.431312 -0.156000
v -1.095873 -0.461264 -0.130000
v -1.190454 -0.499700 -0.156000
v -1.152712 -0.503894 -0.130000
v -0.884962 -0.858006 -0.156000
v -0.849346 -0.859705 -0.130000
v -1.101340 -1.067586 -0.156000
v -1.094548 -1.097205 -0.130000
v -1.320160 -0.995410 -0.156000
v -1.346160 -1.014212 -0.130000
v -1.320160 -0.827820 -0.156000
v -1.346160 -0.783846 -0.130000
v -1.118455 -0.938758 -0.156000
v -1.120883 -0.907749 -0.130000
v -1.024612 -0.866051 -0.156000
v -1.062137 -0.862233 -0.130000
v -1.330753 -0.509059 -0.156000
v -1.367208 -0.506490 -0.130000
v -1.096828 -0.303385 -0.156000
v -1.102982 -0.274176 -0.130000
v -0.918960 -0.359554 -0.156000
v -0.892960 -0.340499 -0.130000
v -0.918960 -0.511325 -0.156000
v -0.892960 -0.551307 -0.130000
v -1.095873 -0.461264 -0.130000
v -1.095873 -0.461264 0.130000
v -1.152712 -0.503894 -0.130000
v -1.152712 -0.503894 0.130000
v -0.849346 -0.859705 -0.130000
v -0.849346 -0.859705 0.130000
v -1.094548 -1.097205 -0.130000
v -1.094548 -1.097205 0.130000
v -1.346160 -1.014212 -0.130000
v -1.346160 -1.014212 0.130000
v -1.346160 -0.783846 -0.130000
v -1.346160 -0.783846 0.130000
v -1.120883 -0.907749 -0.130000
v -1.120883 -0.907749 0.130000
v -1.062137 -0.862233 -0.130000
v -1.062137 -0.862233 0.130000
v -1.367208 -0.506490 -0.130000
v -1.367208 -0.506490 0.130000
v -1.102982 -0.274176 -0.130000
v -1.102982 -0.274176 0.130000
v -0.892960 -0.340499 -0.130000
v -0.892960 -0.340499 0.130000
v -0.892960 -0.551307 -0.130000
v -0.892960 -0.551307 0.130000
v -1.095873 -0.461264 0.130000
v -1.099270 -0.431312 0.156000
v -1.152712 -0.503894 0.130000
v -1.190454 -0.499700 0.156000
v -0.849346 -0.859705 0.130000
v -0.884962 -0.858006 0.156000
v -1.094548 -1.097205 0.130000
v -1.101340 -1.067586 0.156000
v -1.346160 -1.014212 0.130000
v -1.320160 -0.995410 0.156000
v -1.346160 -0.783846 0.130000
v -1.320160 -0.827820 0.156000
v -1.120883 -0.907749 0.130000
v -1.118455 -0.938758 0.156000
v -1.062137 -0.862233 0.130000
v -1.024612 -0.866051 0.156000
v -1.367208 -0.506490 0.130000
v -1.330753 -0.509059 0.156000
v -1.102982 -0.274176 0.130000
v -1.096828 -0.303385 0.156000
v -0.892960 -0.340499 0.130000
v -0.918960 -0.359554 0.156000
v -0.892960 -0.551307 0.130000
v -0.918960 -0.511325 0.156000
v -0.327432 -0.432982 -0.156000
v -0.320400 -0.462267 -0.130000
v -0.591396 -0.686271 -0.156000
v -0.553625 -0.686060 -0.130000
v -0.323539 -0.937629 -0.156000
v -0.316939 -0.908167 -0.130000
v -0.064080 -0.853687 -0.156000
v -0.038080 -0.817948 -0.130000
v -0.064080 -0.999539 -0.156000
v -0.038080 -1.019979 -0.130000
v -0.341518 -1.066932 -0.156000
v -0.348925 -1.095488 -0.130000
v -0.742999 -0.695998 -0.156000
v -0.780893 -0.696386 -0.130000
v -0.335509 -0.303762 -0.156000
v -0.343292 -0.275165 -0.130000
v -0.071360 -0.366977 -0.156000
v -0.045360 -0.346465 -0.130000
v -0.071360 -0.510348 -0.156000
v -0.045360 -0.545364 -0.130000
v -0.320400 -0.462267 -0.130000
v -0.320400 -0.462267 0.130000
v -0.553625 -0.686060 -0.130000
v -0.553625 -0.686060 0.130000
v -0.316939 -0.908167 -0.130000
v -0.316939 -0.908167 0.130000
v -0.038080 -0.817948 -0.130000
v -0.038080 -0.817948 0.130000
v -0.038080 -1.019979 -0.130000
v -0.038080 -1.019979 0.130000
v -0.348925 -1.095488 -0.130000
v -0.348925 -1.095488 0.130000
v -0.780893 -0.696386 -0.130000
v -0.780893 -0.696386 0.130000
v -0.343292 -0.275165 -0.130000
v -0.343292 -0.275165 0.130000
v -0.045360 -0.346465 -0.130000
v -0.045360 -0.346465 0.130000
v -0.045360 -0.545364 -0.130000
v -0.045360 -0.545364 0.130000
v -0.320400 -0.462267 0.130000
v -0.327432 -0.432982 0.156000
v -0.553625 -0.686060 0.130000
v -0.591396 -0.686271 0.156000
v -0.316939 -0.908167 0.130000
v -0.323539 -0.937629 0.156000
v -0.038080 -0.817948 0.130000
v -0.064080 -0.853687 0.156000
v -0.038080 -1.019979 0.130000
v -0.064080 -0.999539 0.156000
v -0.348925 -1.095488 0.130000
v -0.341518 -1.066932 0.156000
v -0.780893 -0.696386 0.130000
v -0.742999 -0.695998 0.156000
v -0.343292 -0.275165 0.130000
v -0.335509 -0.303762 0.156000
v -0.045360 -0.346465 0.130000
v -0.071360 -0.366977 0.156000
v -0.045360 -0.545364 0.130000
v -0.071360 -0.510348 0.156000
v 0.650081 -1.056000 -0.156000
v 0.633311 -1.082000 -0.130000
v 0.555440 -0.846960 -0.156000
v 0.538671 -0.872960 -0.130000
v 0.274717 -0.846960 -0.156000
v 0.291873 -0.872960 -0.130000
v 0.185277 -1.056000 -0.156000
v 0.202433 -1.082000 -0.130000
v 0.046488 -1.056000 -0.156000
v 0.007111 -1.082000 -0.130000
v 0.364876 -0.310560 -0.156000
v 0.347708 -0.284560 -0.130000
v 0.457597 -0.310560 -0.156000
v 0.474491 -0.284560 -0.130000
v 0.789024 -1.056000 -0.156000
v 0.829038 -1.082000 -0.130000
v 0.633311 -1.082000 -0.130000
v 0.633311 -1.082000 0.130000
v 0.538671 -0.872960 -0.130000
v 0.538671 -0.872960 0.130000
v 0.291873 -0.872960 -0.130000
v 0.291873 -0.872960 0.130000
v 0.202433 -1.082000 -0.130000
v 0.202433 -1.082000 0.130000
v 0.007111 -1.082000 -0.130000
v 0.007111 -1.082000 0.130000
v 0.347708 -0.284560 -0.130000
v 0.347708 -0.284560 0.130000
v 0.474491 -0.284560 -0.130000
v 0.474491 -0.284560 0.130000
v 0.829038 -1.082000 -0.130000
v 0.829038 -1.082000 0.130000
v 0.633311 -1.082000 0.130000
v 0.650081 -1.056000 0.156000
v 0.538671 -0.872960 0.130000
v 0.555440 -0.846960 0.156000
v 0.291873 -0.872960 0.130000
v 0.274717 -0.846960 0.156000
v 0.202433 -1.082000 0.130000
v 0.185277 -1.056000 0.156000
v 0.007111 -1.082000 0.130000
v 0.046488 -1.056000 0.156000
v 0.347708 -0.284560 0.130000
v 0.364876 -0.310560 0.156000
v 0.474491 -0.284560 0.130000
v 0.457597 -0.310560 0.156000
v 0.829038 -1.082000 0.130000
v 0.789024 -1.056000 0.156000
v 0.499520 -0.723440 -0.156000
v 0.459479 -0.697440 -0.130000
v 0.410315 -0.523135 -0.156000
v 0.411217 -0.589069 -0.130000
v 0.327598 -0.723440 -0.156000
v 0.366465 -0.697440 -0.130000
v 0.459479 -0.697440 -0.130000
v 0.459479 -0.697440 0.130000
v 0.411217 -0.589069 -0.130000
v 0.411217 -0.589069 0.130000
v 0.366465 -0.697440 -0.130000
v 0.366465 -0.697440 0.130000
v 0.459479 -0.697440 0.130000
v 0.499520 -0.723440 0.156000
v 0.411217 -0.589069 0.130000
v 0.410315 -0.523135 0.156000
v 0.366465 -0.697440 0.130000
v 0.327598 -0.723440 0.156000
v 1.229377 -0.314720 -0.156000
v 1.239674 -0.288720 -0.130000
v 1.623912 -0.685344 -0.156000
v 1.661858 -0.685318 -0.130000
v 1.230429 -1.056000 -0.156000
v 1.240747 -1.082000 -0.130000
v 0.931440 -1.056000 -0.156000
v 0.905440 -1.082000 -0.130000
v 0.931440 -0.314720 -0.156000
v 0.905440 -0.288720 -0.130000
v 1.239674 -0.288720 -0.130000
v 1.239674 -0.288720 0.130000
v 1.661858 -0.685318 -0.130000
v 1.661858 -0.685318 0.130000
v 1.240747 -1.082000 -0.130000
v 1.240747 -1.082000 0.130000
v 0.905440 -1.082000 -0.130000
v 0.905440 -1.082000 0.130000
v 0.905440 -0.288720 -0.130000
v 0.905440 -0.288720 0.130000
v 1.239674 -0.288720 0.130000
v 1.229377 -0.314720 0.156000
v 1.661858 -0.685318 0.130000
v 1.623912 -0.685344 0.156000
v 1.240747 -1.082000 0.130000
v 1.230429 -1.056000 0.156000
v 0.905440 -1.082000 0.130000
v 0.931440 -1.056000 0.156000
v 0.905440 -0.288720 0.130000
v 0.931440 -0.314720 0.156000
v 1.205326 -0.932480 -0.156000
v 1.195131 -0.906480 -0.130000
v 1.471866 -0.685467 -0.156000
v 1.433428 -0.685641 -0.130000
v 1.200210 -0.438240 -0.156000
v 1.190150 -0.464240 -0.130000
v 1.065360 -0.438240 -0.156000
v 1.091360 -0.464240 -0.130000
v 1.065360 -0.932480 -0.156000
v 1.091360 -0.906480 -0.130000
v 1.195131 -0.906480 -0.130000
v 1.195131 -0.906480 0.130000
v 1.433428 -0.685641 -0.130000
v 1.433428 -0.685641 0.130000
v 1.190150 -0.464240 -0.130000
v 1.190150 -0.464240 0.130000
v 1.091360 -0.464240 -0.130000
v 1.091360 -0.464240 0.130000
v 1.091360 -0.906480 -0.130000
v 1.091360 -0.906480 0.130000
v 1.195131 -0.906480 0.130000
v 1.205326 -0.932480 0.156000
v 1.433428 -0.685641 0.130000
v 1.471866 -0.685467 0.156000
v 1.190150 -0.464240 0.130000
v 1.200210 -0.438240 0.156000
v 1.091360 -0.464240 0.130000
v 1.065360 -0.438240 0.156000
v 1.091360 -0.906480 0.130000
v 1.065360 -0.932480 0.156000
v 2.584737 -0.685391 -0.156000
v 2.622463 -0.685443 -0.130000
v 2.177685 -1.071484 -0.156000
v 2.177562 -1.107436 -0.130000
v 1.776083 -0.685328 -0.156000
v 1.738517 -0.685277 -0.130000
v 2.179825 -0.299236 -0.156000
v 2.179801 -0.263285 -0.130000
v 2.622463 -0.685443 -0.130000
v 2.622463 -0.685443 0.130000
v 2.177562 -1.107436 -0.130000
v 2.177562 -1.107436 0.130000
v 1.738517 -0.685277 -0.130000
v 1.738517 -0.685277 0.130000
v 2.179801 -0.263285 -0.130000
v 2.179801 -0.263285 0.130000
v 2.622463 -0.685443 0.130000
v 2.584737 -0.685391 0.156000
v 2.177562 -1.107436 0.130000
v 2.177685 -1.071484 0.156000
v 1.738517 -0.685277 0.130000
v 1.776083 -0.685328 0.156000
v 2.179801 -0.263285 0.130000
v 2.179825 -0.299236 0.156000
v 2.433590 -0.685360 -0.156000
v 2.396394 -0.685360 -0.130000
v 2.179861 -0.437354 -0.156000
v 2.179895 -0.473745 -0.130000
v 1.927086 -0.685360 -0.156000
v 1.964211 -0.685360 -0.130000
v 2.179861 -0.933366 -0.156000
v 2.179895 -0.896975 -0.130000
v 2.396394 -0.685360 -0.130000
v 2.396394 -0.685360 0.130000
v 2.179895 -0.473745 -0.130000
v 2.179895 -0.473745 0.130000
v 1.964211 -0.685360 -0.130000
v 1.964211 -0.685360 0.130000
v 2.179895 -0.896975 -0.130000
v 2.179895 -0.896975 0.130000
v 2.396394 -0.685360 0.130000
v 2.433590 -0.685360 0.156000
v 2.179895 -0.473745 0.130000
v 2.179861 -0.437354 0.156000
v 1.964211 -0.685360 0.130000
v 1.927086 -0.685360 0.156000
v 2.179895 -0.896975 0.130000
v 2.179861 -0.933366 0.156000
vn -0.000000 0.000000 1.000000
vn 0.000000 -0.000000 -1.000000
vn -0.408200 -0.408200 -0.816500
vn -0.408200 0.408200 -0.816500
vn 0.408200 0.408200 -0.816500
vn 0.408200 -0.408200 -0.816500
vn -0.707100 -0.707100 0.000000
vn -0.707100 0.707100 0.000000
vn 0.707100 0.707100 0.000000
vn 0.707100 -0.707100 0.000000
vn -0.408200 -0.408200 0.816500
vn -0.408200 0.408200 0.816500
vn 0.408200 0.408200 0.816500
vn 0.408200 -0.408200 0.816500
vn 0.073600 -0.648900 -0.757200
vn 0.561500 -0.062400 -0.825100
vn 0.588500 -0.028100 -0.808000
vn 0.145300 -0.633700 -0.759800
vn -0.510100 -0.368900 -0.776900
vn -0.230800 0.390400 -0.891200
vn -0.050100 0.639400 -0.767200
vn -0.564600 0.057400 -0.823300
vn -0.578300 0.040700 -0.814800
vn -0.135400 0.642700 -0.754100
vn 0.506400 0.371100 -0.778300
vn 0.260900 -0.401300 -0.878000
vn 0.112700 -0.993600 0.000000
vn 0.993900 -0.110400 0.000000
vn 0.998800 -0.047600 0.000000
vn 0.223500 -0.974700 0.000000
vn -0.810300 -0.586000 0.000000
vn -0.509000 0.860800 0.000000
vn -0.078100 0.996900 0.000000
vn -0.994800 0.101200 0.000000
vn -0.997500 0.070300 0.000000
vn -0.206200 0.978500 0.000000
vn 0.806600 0.591100 0.000000
vn 0.545200 -0.838300 0.000000
vn 0.073600 -0.648900 0.757200
vn 0.561500 -0.062400 0.825100
vn 0.588500 -0.028100 0.808000
vn 0.145300 -0.633700 0.759800
vn -0.510100 -0.368900 0.776900
vn -0.230800 0.390400 0.891200
vn -0.050100 0.639400 0.767200
vn -0.564600 0.057400 0.823300
vn -0.578300 0.040700 0.814800
vn -0.135400 0.642700 0.754100
vn 0.506400 0.371100 0.778300
vn 0.260900 -0.401300 0.878000
vn -0.348700 -0.540600 -0.765600
vn 0.352900 -0.534800 -0.767700
vn -0.402700 -0.265900 -0.875800
vn -0.353000 0.534700 -0.767800
vn 0.350100 0.538800 -0.766300
vn 0.401200 -0.260700 -0.878100
vn -0.542000 -0.840400 0.000000
vn 0.550700 -0.834700 0.000000
vn -0.834500 -0.551000 0.000000
vn -0.551000 0.834500 0.000000
vn 0.544800 0.838500 0.000000
vn 0.838500 -0.544800 0.000000
vn -0.348700 -0.540600 0.765600
vn 0.352900 -0.534800 0.767700
vn -0.402700 -0.265900 0.875800
vn -0.353000 0.534700 0.767800
vn 0.350100 0.538800 0.766300
vn 0.401200 -0.260700 0.878100
vn -0.401100 0.260400 -0.878200
vn 0.005000 -0.366800 -0.930300
vn 0.403900 0.270200 -0.874000
vn -0.838700 0.544600 0.000000
vn 0.013700 -0.999900 0.000000
vn 0.831100 0.556000 0.000000
vn -0.401100 0.260400 0.878200
vn 0.005000 -0.366800 0.930300
vn 0.403900 0.270200 0.874000
vn 0.250700 0.633000 -0.732400
vn 0.565200 0.000400 -0.824900
vn 0.251100 -0.632800 -0.732400
vn 0.368200 0.929700 0.000000
vn 1.000000 0.000700 0.000000
vn 0.368800 -0.929500 0.000000
vn 0.250700 0.633000 0.732400
vn 0.565200 0.000400 0.824900
vn 0.251100 -0.632800 0.732400
vn -0.248700 0.634400 -0.731900
vn -0.560300 -0.002500 -0.828300
vn -0.246100 -0.636100 -0.731300
vn -0.365000 0.931000 0.000000
vn -1.000000 -0.004500 0.000000
vn -0.360800 -0.932600 0.000000
vn -0.248700 0.634400 0.731900
vn -0.560300 -0.002500 0.828300
vn -0.246100 -0.636100 0.731300
vn 0.547600 -0.011400 -0.836600
vn 0.232700 -0.644400 -0.728400
vn 0.245000 0.636800 -0.731000
vn 0.999800 -0.020800 0.000000
vn 0.339600 -0.940500 0.000000
vn 0.359100 0.933300 0.000000
vn 0.547600 -0.011400 0.836600
vn 0.232700 -0.644400 0.728400
vn 0.245000 0.636800 0.731000
vn -0.243100 0.638000 -0.730600
vn -0.554600 0.000700 -0.832100
vn -0.243900 -0.637500 -0.730800
vn -0.356100 0.934400 0.000000
vn -1.000000 0.001300 0.000000
vn -0.357400 -0.934000 0.000000
vn -0.243100 0.638000 0.730600
vn -0.554600 0.000700 0.832100
vn -0.243900 -0.637500 0.730800
vn 0.152600 -0.635400 -0.757000
vn 0.567000 0.003100 -0.823700
vn 0.142600 0.636700 -0.757700
vn 0.298300 0.410000 -0.861900
vn 0.485900 -0.381900 -0.786100
vn -0.166000 -0.640000 -0.750200
vn -0.565700 -0.005800 -0.824600
vn -0.173200 0.636300 -0.751700
vn 0.484800 0.382500 -0.786600
vn 0.305200 -0.411100 -0.858900
vn 0.233500 -0.972400 0.000000
vn 1.000000 0.005600 0.000000
vn 0.218600 0.975800 0.000000
vn 0.588300 0.808600 0.000000
vn 0.786100 -0.618000 0.000000
vn -0.251000 -0.968000 0.000000
vn -0.999900 -0.010200 0.000000
vn -0.262600 0.964900 0.000000
vn 0.785100 0.619400 0.000000
vn 0.596100 -0.802900 0.000000
vn 0.152600 -0.635400 0.757000
vn 0.567000 0.003100 0.823700
vn 0.142600 0.636700 0.757700
vn 0.298300 0.410000 0.861900
vn 0.485900 -0.381900 0.786100
vn -0.166000 -0.640000 0.750200
vn -0.565700 -0.005800 0.824600
vn -0.173200 0.636300 0.751700
vn 0.484800 0.382500 0.786600
vn 0.305200 -0.411100 0.858900
vn 0.567400 -0.000800 -0.823400
vn -0.002000 -0.586000 -0.810300
vn -0.569100 0.000800 -0.822300
vn -0.000400 0.586000 -0.810300
vn 1.000000 -0.001300 0.000000
vn -0.003400 -1.000000 0.000000
vn -0.000700 1.000000 0.000000
vn 0.567400 -0.000800 0.823400
vn -0.002000 -0.586000 0.810300
vn -0.569100 0.000800 0.822300
vn -0.000400 0.586000 0.810300
vn -0.572900 0.000000 -0.819600
vn 0.000500 -0.581300 -0.813700
vn 0.573600 0.000000 -0.819100
vn 0.000500 0.581300 -0.813700
vn -1.000000 0.000000 0.000000
vn 0.000900 -1.000000 0.000000
vn 1.000000 0.000000 0.000000
vn 0.000900 1.000000 0.000000
vn -0.572900 0.000000 0.819600
vn 0.000500 -0.581300 0.813700
vn 0.573600 0.000000 0.819100
vn 0.000500 0.581300 0.813700
usemtl None
s off
f 3//1 6//1 4//1
f 6//1 1//1 4//1
f 3//1 7//1 6//1
f 5//1 1//1 6//1
f 2//1 7//1 3//1
f 2//1 8//1 7//1
f 8//1 1//1 5//1
f 8//1 2//1 1//1
f 12//1 17//1 13//1
f 17//1 9//1 13//1
f 17//1 16//1 9//1
f 16//1 10//1 9//1
f 12//1 18//1 17//1
f 15//1 10//1 16//1
f 15//1 11//1 10//1
f 14//1 11//1 15//1
f 12//1 14//1 18//1
f 12//1 11//1 14//1
f 23//1 25//1 24//1
f 23//1 28//1 25//1
f 28//1 26//1 25//1
f 23//1 29//1 28//1
f 27//1 26//1 28//1
f 23//1 21//1 29//1
f 21//1 27//1 29//1
f 21//1 20//1 27//1
f 20//1 26//1 27//1
f 23//1 22//1 21//1
f 19//1 26//1 20//1
f 36//1 30//1 37//1
f 30//1 38//1 37//1
f 30//1 39//1 38//1
f 36//1 31//1 30//1
f 36//1 32//1 31//1
f 35//1 32//1 36//1
f 32//1 34//1 33//1
f 35//1 34//1 32//1
f 48//1 50//1 49//1
f 48//1 40//1 50//1
f 40//1 51//1 50//1
f 48//1 41//1 40//1
f 48//1 42//1 41//1
f 47//1 42//1 48//1
f 44//1 46//1 45//1
f 47//1 43//1 42//1
f 46//1 43//1 47//1
f 44//1 43//1 46//1
f 60//1 52//1 61//1
f 52//1 62//1 61//1
f 52//1 63//1 62//1
f 60//1 53//1 52//1
f 60//1 56//1 53//1
f 56//1 54//1 53//1
f 56//1 55//1 54//1
f 60//1 57//1 56//1
f 60//1 58//1 57//1
f 60//1 59//1 58//1
f 68//1 74//1 69//1
f 74//1 70//1 69//1
f 74//1 73//1 70//1
f 73//1 64//1 70//1
f 68//1 75//1 74//1
f 72//1 64//1 73//1
f 71//1 64//1 72//1
f 71//1 65//1 64//1
f 68//1 66//1 75//1
f 66//1 71//1 75//1
f 66//1 65//1 71//1
f 68//1 67//1 66//1
f 78//1 80//1 79//1
f 78//1 81//1 80//1
f 78//1 76//1 81//1
f 78//1 77//1 76//1
f 90//1 82//1 91//1
f 82//1 92//1 91//1
f 82//1 93//1 92//1
f 90//1 83//1 82//1
f 90//1 86//1 83//1
f 86//1 84//1 83//1
f 86//1 85//1 84//1
f 90//1 87//1 86//1
f 90//1 88//1 87//1
f 90//1 89//1 88//1
f 97//1 102//1 98//1
f 102//1 94//1 98//1
f 102//1 101//1 94//1
f 101//1 95//1 94//1
f 97//1 103//1 102//1
f 100//1 95//1 101//1
f 100//1 96//1 95//1
f 99//1 96//1 100//1
f 97//1 99//1 103//1
f 97//1 96//1 99//1
f 108//1 110//1 109//1
f 108//1 113//1 110//1
f 113//1 111//1 110//1
f 108//1 114//1 113//1
f 112//1 111//1 113//1
f 108//1 106//1 114//1
f 106//1 112//1 114//1
f 106//1 105//1 112//1
f 105//1 111//1 112//1
f 108//1 107//1 106//1
f 104//1 111//1 105//1
f 117//1 119//1 118//1
f 117//1 120//1 119//1
f 117//1 115//1 120//1
f 117//1 116//1 115//1
f 129//1 131//1 130//1
f 129//1 121//1 131//1
f 121//1 132//1 131//1
f 129//1 122//1 121//1
f 129//1 123//1 122//1
f 128//1 123//1 129//1
f 125//1 127//1 126//1
f 128//1 124//1 123//1
f 127//1 124//1 128//1
f 125//1 124//1 127//1
f 133//1 135//1 134//1
f 133//1 136//1 135//1
f 142//2 139//2 140//2
f 137//2 142//2 140//2
f 143//2 139//2 142//2
f 137//2 141//2 142//2
f 143//2 138//2 139//2
f 144//2 138//2 143//2
f 137//2 144//2 141//2
f 138//2 144//2 137//2
f 153//2 148//2 149//2
f 145//2 153//2 149//2
f 152//2 153//2 145//2
f 146//2 152//2 145//2
f 154//2 148//2 153//2
f 146//2 151//2 152//2
f 147//2 151//2 146//2
f 147//2 150//2 151//2
f 150//2 148//2 154//2
f 147//2 148//2 150//2
f 161//2 159//2 160//2
f 164//2 159//2 161//2
f 162//2 164//2 161//2
f 165//2 159//2 164//2
f 162//2 163//2 164//2
f 157//2 159//2 165//2
f 163//2 157//2 165//2
f 156//2 157//2 163//2
f 162//2 156//2 163//2
f 158//2 159//2 157//2
f 162//2 155//2 156//2
f 166//2 172//2 173//2
f 174//2 166//2 173//2
f 175//2 166//2 174//2
f 167//2 172//2 166//2
f 168//2 172//2 167//2
f 168//2 171//2 172//2
f 170//2 168//2 169//2
f 170//2 171//2 168//2
f 186//2 184//2 185//2
f 176//2 184//2 186//2
f 187//2 176//2 186//2
f 177//2 184//2 176//2
f 178//2 184//2 177//2
f 178//2 183//2 184//2
f 182//2 180//2 181//2
f 179//2 183//2 178//2
f 179//2 182//2 183//2
f 179//2 180//2 182//2
f 188//2 196//2 197//2
f 198//2 188//2 197//2
f 199//2 188//2 198//2
f 189//2 196//2 188//2
f 192//2 196//2 189//2
f 190//2 192//2 189//2
f 191//2 192//2 190//2
f 193//2 196//2 192//2
f 194//2 196//2 193//2
f 195//2 196//2 194//2
f 210//2 204//2 205//2
f 206//2 210//2 205//2
f 209//2 210//2 206//2
f 200//2 209//2 206//2
f 211//2 204//2 210//2
f 200//2 208//2 209//2
f 200//2 207//2 208//2
f 201//2 207//2 200//2
f 202//2 204//2 211//2
f 207//2 202//2 211//2
f 201//2 202//2 207//2
f 203//2 204//2 202//2
f 216//2 214//2 215//2
f 217//2 214//2 216//2
f 212//2 214//2 217//2
f 213//2 214//2 212//2
f 218//2 226//2 227//2
f 228//2 218//2 227//2
f 229//2 218//2 228//2
f 219//2 226//2 218//2
f 222//2 226//2 219//2
f 220//2 222//2 219//2
f 221//2 222//2 220//2
f 223//2 226//2 222//2
f 224//2 226//2 223//2
f 225//2 226//2 224//2
f 238//2 233//2 234//2
f 230//2 238//2 234//2
f 237//2 238//2 230//2
f 231//2 237//2 230//2
f 239//2 233//2 238//2
f 231//2 236//2 237//2
f 232//2 236//2 231//2
f 232//2 235//2 236//2
f 235//2 233//2 239//2
f 232//2 233//2 235//2
f 246//2 244//2 245//2
f 249//2 244//2 246//2
f 247//2 249//2 246//2
f 250//2 244//2 249//2
f 247//2 248//2 249//2
f 242//2 244//2 250//2
f 248//2 242//2 250//2
f 241//2 242//2 248//2
f 247//2 241//2 248//2
f 243//2 244//2 242//2
f 247//2 240//2 241//2
f 255//2 253//2 254//2
f 256//2 253//2 255//2
f 251//2 253//2 256//2
f 252//2 253//2 251//2
f 267//2 265//2 266//2
f 257//2 265//2 267//2
f 268//2 257//2 267//2
f 258//2 265//2 257//2
f 259//2 265//2 258//2
f 259//2 264//2 265//2
f 263//2 261//2 262//2
f 260//2 264//2 259//2
f 260//2 263//2 264//2
f 260//2 261//2 263//2
f 271//2 269//2 270//2
f 272//2 269//2 271//2
s 1
f 274//3 276//4 275//4 273//3
f 276//4 278//5 277//5 275//4
f 278//5 280//6 279//6 277//5
f 280//6 274//3 273//3 279//6
f 282//7 284//8 283//8 281//7
f 284//8 286//9 285//9 283//8
f 286//9 288//10 287//10 285//9
f 288//10 282//7 281//7 287//10
f 290//11 292//12 291//12 289//11
f 292//12 294//13 293//13 291//12
f 294//13 296//14 295//14 293//13
f 296//14 290//11 289//11 295//14
f 298//15 300//16 299//16 297//15
f 300//16 302//17 301//17 299//16
f 302//17 304//18 303//18 301//17
f 304//18 306//19 305//19 303//18
f 306//19 308//20 307//20 305//19
f 308//20 310//21 309//21 307//20
f 310//21 312//22 311//22 309//21
f 312//22 314//23 313//23 311//22
f 314//23 316//24 315//24 313//23
f 316//24 318//25 317//25 315//24
f 318//25 320//26 319//26 317//25
f 320//26 298//15 297//15 319//26
f 322//27 324//28 323//28 321//27
f 324//28 326//29 325//29 323//28
f 326//29 328//30 327//30 325//29
f 328//30 330//31 329//31 327//30
f 330//31 332//32 331//32 329//31
f 332//32 334//33 333//33 331//32
f 334//33 336//34 335//34 333//33
f 336//34 338//35 337//35 335//34
f 338//35 340//36 339//36 337//35
f 340//36 342//37 341//37 339//36
f 342//37 344//38 343//38 341//37
f 344//38 322//27 321//27 343//38
f 346//39 348//40 347//40 345//39
f 348//40 350//41 349//41 347//40
f 350//41 352//42 351//42 349//41
f 352//42 354//43 353//43 351//42
f 354//43 356//44 355//44 353//43
f 356//44 358//45 357//45 355//44
f 358//45 360//46 359//46 357//45
f 360//46 362//47 361//47 359//46
f 362//47 364//48 363//48 361//47
f 364//48 366//49 365//49 363//48
f 366//49 368//50 367//50 365//49
f 368//50 346//39 345//39 367//50
f 370//5 372//6 371//6 369//5
f 372//6 374//3 373//3 371//6
f 374//3 376//4 375//4 373//3
f 376//4 378//5 377//5 375//4
f 378//5 380//5 379//5 377//5
f 380//5 370//5 369//5 379//5
f 382//9 384//10 383//10 381//9
f 384//10 386//7 385//7 383//10
f 386//7 388//8 387//8 385//7
f 388//8 390//9 389//9 387//8
f 390//9 392//9 391//9 389//9
f 392//9 382//9 381//9 391//9
f 394//13 396//14 395//14 393//13
f 396//14 398//11 397//11 395//14
f 398//11 400//12 399//12 397//11
f 400//12 402//13 401//13 399//12
f 402//13 404//13 403//13 401//13
f 404//13 394//13 393//13 403//13
f 406//51 408//51 407//51 405//51
f 408//51 410//52 409//52 407//51
f 410//52 412//52 411//52 409//52
f 412//52 414//53 413//53 411//52
f 414//53 416//54 415//54 413//53
f 416//54 418//55 417//55 415//54
f 418//55 420//56 419//56 417//55
f 420//56 406//51 405//51 419//56
f 422//57 424//57 423//57 421//57
f 424//57 426//58 425//58 423//57
f 426//58 428//58 427//58 425//58
f 428//58 430//59 429//59 427//58
f 430//59 432//60 431//60 429//59
f 432//60 434//61 433//61 431//60
f 434//61 436//62 435//62 433//61
f 436//62 422//57 421//57 435//62
f 438//63 440//63 439//63 437//63
f 440//63 442//64 441//64 439//63
f 442//64 444//64 443//64 441//64
f 444//64 446//65 445//65 443//64
f 446//65 448//66 447//66 445//65
f 448//66 450//67 449//67 447//66
f 450//67 452//68 451//68 449//67
f 452//68 438//63 437//63 451//68
f 454//69 456//70 455//70 453//69
f 456//70 458//71 457//71 455//70
f 458//71 454//69 453//69 457//71
f 460//72 462//73 461//73 459//72
f 462//73 464//74 463//74 461//73
f 464//74 460//72 459//72 463//74
f 466//75 468//76 467//76 465//75
f 468//76 470//77 469//77 467//76
f 470//77 466//75 465//75 469//77
f 472//78 474//79 473//79 471//78
f 474//79 476//80 475//80 473//79
f 476//80 478//3 477//3 475//80
f 478//3 480//4 479//4 477//3
f 480//4 472//78 471//78 479//4
f 482//81 484//82 483//82 481//81
f 484//82 486//83 485//83 483//82
f 486//83 488//7 487//7 485//83
f 488//7 490//8 489//8 487//7
f 490//8 482//81 481//81 489//8
f 492//84 494//85 493//85 491//84
f 494//85 496//86 495//86 493//85
f 496//86 498//11 497//11 495//86
f 498//11 500//12 499//12 497//11
f 500//12 492//84 491//84 499//12
f 502//87 504//88 503//88 501//87
f 504//88 506//89 505//89 503//88
f 506//89 508//6 507//6 505//89
f 508//6 510//5 509//5 507//6
f 510//5 502//87 501//87 509//5
f 512//90 514//91 513//91 511//90
f 514//91 516//92 515//92 513//91
f 516//92 518//10 517//10 515//92
f 518//10 520//9 519//9 517//10
f 520//9 512//90 511//90 519//9
f 522//93 524//94 523//94 521//93
f 524//94 526//95 525//95 523//94
f 526//95 528//14 527//14 525//95
f 528//14 530//13 529//13 527//14
f 530//13 522//93 521//93 529//13
f 532//6 534//5 533//5 531//6
f 534//5 536//5 535//5 533//5
f 536//5 538//6 537//6 535//5
f 538//6 540//6 539//6 537//6
f 540//6 542//5 541//5 539//6
f 542//5 544//5 543//5 541//5
f 544//5 546//6 545//6 543//5
f 546//6 548//3 547//3 545//6
f 548//3 550//4 549//4 547//3
f 550//4 552//5 551//5 549//4
f 552//5 554//6 553//6 551//5
f 554//6 532//6 531//6 553//6
f 556//10 558//9 557//9 555//10
f 558//9 560//9 559//9 557//9
f 560//9 562//10 561//10 559//9
f 562//10 564//10 563//10 561//10
f 564//10 566//9 565//9 563//10
f 566//9 568//9 567//9 565//9
f 568//9 570//10 569//10 567//9
f 570//10 572//7 571//7 569//10
f 572//7 574//8 573//8 571//7
f 574//8 576//9 575//9 573//8
f 576//9 578//10 577//10 575//9
f 578//10 556//10 555//10 577//10
f 580//14 582//13 581//13 579//14
f 582//13 584//13 583//13 581//13
f 584//13 586//14 585//14 583//13
f 586//14 588//14 587//14 585//14
f 588//14 590//13 589//13 587//14
f 590//13 592//13 591//13 589//13
f 592//13 594//14 593//14 591//13
f 594//14 596//11 595//11 593//14
f 596//11 598//12 597//12 595//11
f 598//12 600//13 599//13 597//12
f 600//13 602//14 601//14 599//13
f 602//14 580//14 579//14 601//14
f 604//5 606//6 605//6 603//5
f 606//6 608//3 607//3 605//6
f 608//3 610//4 609//4 607//3
f 610//4 612//5 611//5 609//4
f 612//5 614//5 613//5 611//5
f 614//5 604//5 603//5 613//5
f 616//9 618//10 617//10 615//9
f 618//10 620//7 619//7 617//10
f 620//7 622//8 621//8 619//7
f 622//8 624//9 623//9 621//8
f 624//9 626//9 625//9 623//9
f 626//9 616//9 615//9 625//9
f 628//13 630//14 629//14 627//13
f 630//14 632//11 631//11 629//14
f 632//11 634//12 633//12 631//11
f 634//12 636//13 635//13 633//12
f 636//13 638//13 637//13 635//13
f 638//13 628//13 627//13 637//13
f 640//96 642//97 641//97 639//96
f 642//97 644//6 643//6 641//97
f 644//6 646//6 645//6 643//6
f 646//6 648//3 647//3 645//6
f 648//3 650//4 649//4 647//3
f 650//4 652//98 651//98 649//4
f 652//98 640//96 639//96 651//98
f 654//99 656//100 655//100 653//99
f 656//100 658//10 657//10 655//100
f 658//10 660//10 659//10 657//10
f 660//10 662//7 661//7 659//10
f 662//7 664//8 663//8 661//7
f 664//8 666//101 665//101 663//8
f 666//101 654//99 653//99 665//101
f 668//102 670//103 669//103 667//102
f 670//103 672//14 671//14 669//103
f 672//14 674//14 673//14 671//14
f 674//14 676//11 675//11 673//14
f 676//11 678//12 677//12 675//11
f 678//12 680//104 679//104 677//12
f 680//104 668//102 667//102 679//104
f 682//105 684//106 683//106 681//105
f 684//106 686//107 685//107 683//106
f 686//107 688//6 687//6 685//107
f 688//6 690//5 689//5 687//6
f 690//5 682//105 681//105 689//5
f 692//108 694//109 693//109 691//108
f 694//109 696//110 695//110 693//109
f 696//110 698//10 697//10 695//110
f 698//10 700//9 699//9 697//10
f 700//9 692//108 691//108 699//9
f 702//111 704//112 703//112 701//111
f 704//112 706//113 705//113 703//112
f 706//113 708//14 707//14 705//113
f 708//14 710//13 709//13 707//14
f 710//13 702//111 701//111 709//13
f 712//6 714//5 713//5 711//6
f 714//5 716//5 715//5 713//5
f 716//5 718//6 717//6 715//5
f 718//6 720//6 719//6 717//6
f 720//6 722//5 721//5 719//6
f 722//5 724//5 723//5 721//5
f 724//5 726//6 725//6 723//5
f 726//6 728//3 727//3 725//6
f 728//3 730//4 729//4 727//3
f 730//4 732//5 731//5 729//4
f 732//5 734//6 733//6 731//5
f 734//6 712//6 711//6 733//6
f 736//10 738//9 737//9 735//10
f 738//9 740//9 739//9 737//9
f 740//9 742//10 741//10 739//9
f 742//10 744//10 743//10 741//10
f 744//10 746//9 745//9 743//10
f 746//9 748//9 747//9 745//9
f 748//9 750//10 749//10 747//9
f 750//10 752//7 751//7 749//10
f 752//7 754//8 753//8 751//7
f 754//8 756//9 755//9 753//8
f 756//9 758//10 757//10 755//9
f 758//10 736//10 735//10 757//10
f 760//14 762//13 761//13 759//14
f 762//13 764//13 763//13 761//13
f 764//13 766//14 765//14 763//13
f 766//14 768//14 767//14 765//14
f 768//14 770//13 769//13 767//14
f 770//13 772//13 771//13 769//13
f 772//13 774//14 773//14 771//13
f 774//14 776//11 775//11 773//14
f 776//11 778//12 777//12 775//11
f 778//12 780//13 779//13 777//12
f 780//13 782//14 781//14 779//13
f 782//14 760//14 759//14 781//14
f 784//15 786//16 785//16 783//15
f 786//16 788//17 787//17 785//16
f 788//17 790//18 789//18 787//17
f 790//18 792//19 791//19 789//18
f 792//19 794//20 793//20 791//19
f 794//20 796//21 795//21 793//20
f 796//21 798//22 797//22 795//21
f 798//22 800//23 799//23 797//22
f 800//23 802//24 801//24 799//23
f 802//24 804//25 803//25 801//24
f 804//25 806//26 805//26 803//25
f 806//26 784//15 783//15 805//26
f 808//27 810//28 809//28 807//27
f 810//28 812//29 811//29 809//28
f 812//29 814//30 813//30 811//29
f 814//30 816//31 815//31 813//30
f 816//31 818//32 817//32 815//31
f 818//32 820//33 819//33 817//32
f 820//33 822//34 821//34 819//33
f 822//34 824//35 823//35 821//34
f 824//35 826//36 825//36 823//35
f 826//36 828//37 827//37 825//36
f 828//37 830//38 829//38 827//37
f 830//38 808//27 807//27 829//38
f 832//39 834//40 833//40 831//39
f 834//40 836//41 835//41 833//40
f 836//41 838//42 837//42 835//41
f 838//42 840//43 839//43 837//42
f 840//43 842//44 841//44 839//43
f 842//44 844//45 843//45 841//44
f 844//45 846//46 845//46 843//45
f 846//46 848//47 847//47 845//46
f 848//47 850//48 849//48 847//47
f 850//48 852//49 851//49 849//48
f 852//49 854//50 853//50 851//49
f 854//50 832//39 831//39 853//50
f 856//114 858//115 857//115 855//114
f 858//115 860//116 859//116 857//115
f 860//116 862//117 861//117 859//116
f 862//117 864//118 863//118 861//117
f 864//118 866//119 865//119 863//118
f 866//119 868//120 867//120 865//119
f 868//120 870//121 869//121 867//120
f 870//121 872//122 871//122 869//121
f 872//122 874//123 873//123 871//122
f 874//123 856//114 855//114 873//123
f 876//124 878//125 877//125 875//124
f 878//125 880//126 879//126 877//125
f 880//126 882//127 881//127 879//126
f 882//127 884//128 883//128 881//127
f 884//128 886//129 885//129 883//128
f 886//129 888//130 887//130 885//129
f 888//130 890//131 889//131 887//130
f 890//131 892//132 891//132 889//131
f 892//132 894//133 893//133 891//132
f 894//133 876//124 875//124 893//133
f 896//134 898//135 897//135 895//134
f 898//135 900//136 899//136 897//135
f 900//136 902//137 901//137 899//136
f 902//137 904//138 903//138 901//137
f 904//138 906//139 905//139 903//138
f 906//139 908//140 907//140 905//139
f 908//140 910//141 909//141 907//140
f 910//141 912//142 911//142 909//141
f 912//142 914//143 913//143 911//142
f 914//143 896//134 895//134 913//143
f 916//51 918//51 917//51 915//51
f 918//51 920//52 919//52 917//51
f 920//52 922//52 921//52 919//52
f 922//52 924//53 923//53 921//52
f 924//53 926//54 925//54 923//53
f 926//54 928//55 927//55 925//54
f 928//55 930//56 929//56 927//55
f 930//56 916//51 915//51 929//56
f 932//57 934//57 933//57 931//57
f 934//57 936//58 935//58 933//57
f 936//58 938//58 937//58 935//58
f 938//58 940//59 939//59 937//58
f 940//59 942//60 941//60 939//59
f 942//60 944//61 943//61 941//60
f 944//61 946//62 945//62 943//61
f 946//62 932//57 931//57 945//62
f 948//63 950//63 949//63 947//63
f 950//63 952//64 951//64 949//63
f 952//64 954//64 953//64 951//64
f 954//64 956//65 955//65 953//64
f 956//65 958//66 957//66 955//65
f 958//66 960//67 959//67 957//66
f 960//67 962//68 961//68 959//67
f 962//68 948//63 947//63 961//68
f 964//69 966//70 965//70 963//69
f 966//70 968//71 967//71 965//70
f 968//71 964//69 963//69 967//71
f 970//72 972//73 971//73 969//72
f 972//73 974//74 973//74 971//73
f 974//74 970//72 969//72 973//74
f 976//75 978//76 977//76 975//75
f 978//76 980//77 979//77 977//76
f 980//77 976//75 975//75 979//77
f 982//78 984//79 983//79 981//78
f 984//79 986//80 985//80 983//79
f 986//80 988//3 987//3 985//80
f 988//3 990//4 989//4 987//3
f 990//4 982//78 981//78 989//4
f 992//81 994//82 993//82 991//81
f 994//82 996//83 995//83 993//82
f 996//83 998//7 997//7 995//83
f 998//7 1000//8 999//8 997//7
f 1000//8 992//81 991//81 999//8
f 1002//84 1004//85 1003//85 1001//84
f 1004//85 1006//86 1005//86 1003//85
f 1006//86 1008//11 1007//11 1005//86
f 1008//11 1010//12 1009//12 1007//11
f 1010//12 1002//84 1001//84 1009//12
f 1012//87 1014//88 1013//88 1011//87
f 1014//88 1016//89 1015//89 1013//88
f 1016//89 1018//6 1017//6 1015//89
f 1018//6 1020//5 1019//5 1017//6
f 1020//5 1012//87 1011//87 1019//5
f 1022//90 1024//91 1023//91 1021//90
f 1024//91 1026//92 1025//92 1023//91
f 1026//92 1028//10 1027//10 1025//92
f 1028//10 1030//9 1029//9 1027//10
f 1030//9 1022//90 1021//90 1029//9
f 1032//93 1034//94 1033//94 1031//93
f 1034//94 1036//95 1035//95 1033//94
f 1036//95 1038//14 1037//14 1035//95
f 1038//14 1040//13 1039//13 1037//14
f 1040//13 1032//93 1031//93 1039//13
f 1042//144 1044//145 1043//145 1041//144
f 1044//145 1046//146 1045//146 1043//145
f 1046//146 1048//147 1047//147 1045//146
f 1048//147 1042//144 1041//144 1047//147
f 1050//148 1052//149 1051//149 1049//148
f 1052//149 1054//109 1053//109 1051//149
f 1054//109 1056//150 1055//150 1053//109
f 1056//150 1050//148 1049//148 1055//150
f 1058//151 1060//152 1059//152 1057//151
f 1060//152 1062//153 1061//153 1059//152
f 1062//153 1064//154 1063//154 1061//153
f 1064//154 1058//151 1057//151 1063//154
f 1066//155 1068//156 1067//156 1065//155
f 1068//156 1070//157 1069//157 1067//156
f 1070//157 1072//158 1071//158 1069//157
f 1072//158 1066//155 1065//155 1071//158
f 1074//159 1076//160 1075//160 1073//159
f 1076//160 1078//161 1077//161 1075//160
f 1078//161 1080//162 1079//162 1077//161
f 1080//162 1074//159 1073//159 1079//162
f 1082//163 1084//164 1083//164 1081//163
f 1084//164 1086//165 1085//165 1083//164
f 1086//165 1088//166 1087//166 1085//165
f 1088//166 1082//163 1081//163 1087//166
