# Blender v2.75 (sub 0) OBJ File: 'letras.blend'
# www.blender.org
mtllib letras_jirira.mtl
o Text_Textdafd
v 1.510680 -0.016000 0.156000
v 1.416040 0.193040 0.156000
v 1.135317 0.193040 0.156000
v 1.045877 -0.016000 0.156000
v 0.907088 -0.016000 0.156000
v 1.225475 0.729440 0.156000
v 1.318196 0.729440 0.156000
v 1.649624 -0.016000 0.156000
v 1.360119 0.316560 0.156000
v 1.270915 0.516865 0.156000
v 1.188198 0.316560 0.156000
v 0.712398 0.513490 0.156000
v 0.592425 0.337740 0.156000
v 0.743440 0.149965 0.156000
v 0.857771 -0.016000 0.156000
v 0.696905 -0.016000 0.156000
v 0.599836 0.134996 0.156000
v 0.417856 0.291840 0.156000
v 0.397160 0.291840 0.156000
v 0.397160 -0.016000 0.156000
v 0.263240 -0.016000 0.156000
v 0.263240 0.725280 0.156000
v 0.464015 0.725280 0.156000
v 0.440914 0.415360 0.156000
v 0.560394 0.514332 0.156000
v 0.441241 0.605920 0.156000
v 0.397160 0.605920 0.156000
v 0.397160 0.415360 0.156000
v -0.101800 -0.016000 0.156000
v -0.101800 0.725280 0.156000
v 0.032120 0.725280 0.156000
v 0.032120 -0.016000 0.156000
v -0.383762 0.513490 0.156000
v -0.503735 0.337740 0.156000
v -0.352720 0.149965 0.156000
v -0.238389 -0.016000 0.156000
v -0.399255 -0.016000 0.156000
v -0.496324 0.134996 0.156000
v -0.678304 0.291840 0.156000
v -0.699000 0.291840 0.156000
v -0.699000 -0.016000 0.156000
v -0.832920 -0.016000 0.156000
v -0.832920 0.725280 0.156000
v -0.632145 0.725280 0.156000
v -0.655246 0.415360 0.156000
v -0.535766 0.514332 0.156000
v -0.654919 0.605920 0.156000
v -0.699000 0.605920 0.156000
v -0.699000 0.415360 0.156000
v -1.197960 -0.016000 0.156000
v -1.197960 0.725280 0.156000
v -1.064040 0.725280 0.156000
v -1.064040 -0.016000 0.156000
v -1.632568 -0.255702 0.156000
v -1.684074 -0.252268 0.156000
v -1.708955 -0.126480 0.156000
v -1.671708 -0.126480 0.156000
v -1.561960 0.026973 0.156000
v -1.561960 0.725280 0.156000
v -1.428040 0.725280 0.156000
v -1.428040 -0.014185 0.156000
v 1.510680 -0.016000 -0.156000
v 1.416040 0.193040 -0.156000
v 1.135317 0.193040 -0.156000
v 1.045877 -0.016000 -0.156000
v 0.907088 -0.016000 -0.156000
v 1.225475 0.729440 -0.156000
v 1.318196 0.729440 -0.156000
v 1.649624 -0.016000 -0.156000
v 1.360119 0.316560 -0.156000
v 1.270915 0.516865 -0.156000
v 1.188198 0.316560 -0.156000
v 0.712398 0.513490 -0.156000
v 0.592425 0.337740 -0.156000
v 0.743440 0.149965 -0.156000
v 0.857771 -0.016000 -0.156000
v 0.696905 -0.016000 -0.156000
v 0.599836 0.134996 -0.156000
v 0.417856 0.291840 -0.156000
v 0.397160 0.291840 -0.156000
v 0.397160 -0.016000 -0.156000
v 0.263240 -0.016000 -0.156000
v 0.263240 0.725280 -0.156000
v 0.464015 0.725280 -0.156000
v 0.440914 0.415360 -0.156000
v 0.560394 0.514332 -0.156000
v 0.441241 0.605920 -0.156000
v 0.397160 0.605920 -0.156000
v 0.397160 0.415360 -0.156000
v -0.101800 -0.016000 -0.156000
v -0.101800 0.725280 -0.156000
v 0.032120 0.725280 -0.156000
v 0.032120 -0.016000 -0.156000
v -0.383762 0.513490 -0.156000
v -0.503735 0.337740 -0.156000
v -0.352720 0.149965 -0.156000
v -0.238389 -0.016000 -0.156000
v -0.399255 -0.016000 -0.156000
v -0.496324 0.134996 -0.156000
v -0.678304 0.291840 -0.156000
v -0.699000 0.291840 -0.156000
v -0.699000 -0.016000 -0.156000
v -0.832920 -0.016000 -0.156000
v -0.832920 0.725280 -0.156000
v -0.632145 0.725280 -0.156000
v -0.655246 0.415360 -0.156000
v -0.535766 0.514332 -0.156000
v -0.654919 0.605920 -0.156000
v -0.699000 0.605920 -0.156000
v -0.699000 0.415360 -0.156000
v -1.197960 -0.016000 -0.156000
v -1.197960 0.725280 -0.156000
v -1.064040 0.725280 -0.156000
v -1.064040 -0.016000 -0.156000
v -1.632568 -0.255702 -0.156000
v -1.684074 -0.252268 -0.156000
v -1.708955 -0.126480 -0.156000
v -1.671708 -0.126480 -0.156000
v -1.561960 0.026973 -0.156000
v -1.561960 0.725280 -0.156000
v -1.428040 0.725280 -0.156000
v -1.428040 -0.014185 -0.156000
v -1.632568 -0.255702 -0.156000
v -1.621206 -0.282517 -0.130000
v -1.684074 -0.252268 -0.156000
v -1.705709 -0.276883 -0.130000
v -1.708955 -0.126480 -0.156000
v -1.740602 -0.100480 -0.130000
v -1.671708 -0.126480 -0.156000
v -1.685078 -0.100480 -0.130000
v -1.561960 0.026973 -0.156000
v -1.587960 0.035313 -0.130000
v -1.561960 0.725280 -0.156000
v -1.587960 0.751280 -0.130000
v -1.428040 0.725280 -0.156000
v -1.402040 0.751280 -0.130000
v -1.428040 -0.014185 -0.156000
v -1.402040 -0.023715 -0.130000
v -1.621206 -0.282517 -0.130000
v -1.621206 -0.282517 0.130000
v -1.705709 -0.276883 -0.130000
v -1.705709 -0.276883 0.130000
v -1.740602 -0.100480 -0.130000
v -1.740602 -0.100480 0.130000
v -1.685078 -0.100480 -0.130000
v -1.685078 -0.100480 0.130000
v -1.587960 0.035313 -0.130000
v -1.587960 0.035313 0.130000
v -1.587960 0.751280 -0.130000
v -1.587960 0.751280 0.130000
v -1.402040 0.751280 -0.130000
v -1.402040 0.751280 0.130000
v -1.402040 -0.023715 -0.130000
v -1.402040 -0.023715 0.130000
v -1.621206 -0.282517 0.130000
v -1.632568 -0.255702 0.156000
v -1.705709 -0.276883 0.130000
v -1.684074 -0.252268 0.156000
v -1.740602 -0.100480 0.130000
v -1.708955 -0.126480 0.156000
v -1.685078 -0.100480 0.130000
v -1.671708 -0.126480 0.156000
v -1.587960 0.035313 0.130000
v -1.561960 0.026973 0.156000
v -1.587960 0.751280 0.130000
v -1.561960 0.725280 0.156000
v -1.402040 0.751280 0.130000
v -1.428040 0.725280 0.156000
v -1.402040 -0.023715 0.130000
v -1.428040 -0.014185 0.156000
v -1.197960 -0.016000 -0.156000
v -1.223960 -0.042000 -0.130000
v -1.197960 0.725280 -0.156000
v -1.223960 0.751280 -0.130000
v -1.064040 0.725280 -0.156000
v -1.038040 0.751280 -0.130000
v -1.064040 -0.016000 -0.156000
v -1.038040 -0.042000 -0.130000
v -1.223960 -0.042000 -0.130000
v -1.223960 -0.042000 0.130000
v -1.223960 0.751280 -0.130000
v -1.223960 0.751280 0.130000
v -1.038040 0.751280 -0.130000
v -1.038040 0.751280 0.130000
v -1.038040 -0.042000 -0.130000
v -1.038040 -0.042000 0.130000
v -1.223960 -0.042000 0.130000
v -1.197960 -0.016000 0.156000
v -1.223960 0.751280 0.130000
v -1.197960 0.725280 0.156000
v -1.038040 0.751280 0.130000
v -1.064040 0.725280 0.156000
v -1.038040 -0.042000 0.130000
v -1.064040 -0.016000 0.156000
v -0.383762 0.513490 -0.156000
v -0.349121 0.518120 -0.130000
v -0.503735 0.337740 -0.156000
v -0.471389 0.339008 -0.130000
v -0.352720 0.149965 -0.156000
v -0.331856 0.165509 -0.130000
v -0.238389 -0.016000 -0.156000
v -0.188905 -0.042000 -0.130000
v -0.399255 -0.016000 -0.156000
v -0.413450 -0.042000 -0.130000
v -0.496324 0.134996 -0.156000
v -0.516155 0.117763 -0.130000
v -0.678304 0.291840 -0.156000
v -0.687962 0.265840 -0.130000
v -0.699000 0.291840 -0.156000
v -0.673000 0.265840 -0.130000
v -0.699000 -0.016000 -0.156000
v -0.673000 -0.042000 -0.130000
v -0.832920 -0.016000 -0.156000
v -0.858920 -0.042000 -0.130000
v -0.832920 0.725280 -0.156000
v -0.858920 0.751280 -0.130000
v -0.632145 0.725280 -0.156000
v -0.622565 0.751280 -0.130000
v -0.349121 0.518120 -0.130000
v -0.349121 0.518120 0.130000
v -0.471389 0.339008 -0.130000
v -0.471389 0.339008 0.130000
v -0.331856 0.165509 -0.130000
v -0.331856 0.165509 0.130000
v -0.188905 -0.042000 -0.130000
v -0.188905 -0.042000 0.130000
v -0.413450 -0.042000 -0.130000
v -0.413450 -0.042000 0.130000
v -0.516155 0.117763 -0.130000
v -0.516155 0.117763 0.130000
v -0.687962 0.265840 -0.130000
v -0.687962 0.265840 0.130000
v -0.673000 0.265840 -0.130000
v -0.673000 0.265840 0.130000
v -0.673000 -0.042000 -0.130000
v -0.673000 -0.042000 0.130000
v -0.858920 -0.042000 -0.130000
v -0.858920 -0.042000 0.130000
v -0.858920 0.751280 -0.130000
v -0.858920 0.751280 0.130000
v -0.622565 0.751280 -0.130000
v -0.622565 0.751280 0.130000
v -0.349121 0.518120 0.130000
v -0.383762 0.513490 0.156000
v -0.471389 0.339008 0.130000
v -0.503735 0.337740 0.156000
v -0.331856 0.165509 0.130000
v -0.352720 0.149965 0.156000
v -0.188905 -0.042000 0.130000
v -0.238389 -0.016000 0.156000
v -0.413450 -0.042000 0.130000
v -0.399255 -0.016000 0.156000
v -0.516155 0.117763 0.130000
v -0.496324 0.134996 0.156000
v -0.687962 0.265840 0.130000
v -0.678304 0.291840 0.156000
v -0.673000 0.265840 0.130000
v -0.699000 0.291840 0.156000
v -0.673000 -0.042000 0.130000
v -0.699000 -0.016000 0.156000
v -0.858920 -0.042000 0.130000
v -0.832920 -0.016000 0.156000
v -0.858920 0.751280 0.130000
v -0.832920 0.725280 0.156000
v -0.622565 0.751280 0.130000
v -0.632145 0.725280 0.156000
v -0.655246 0.415360 -0.156000
v -0.664616 0.441360 -0.130000
v -0.535766 0.514332 -0.156000
v -0.577441 0.513573 -0.130000
v -0.654919 0.605920 -0.156000
v -0.663757 0.579920 -0.130000
v -0.699000 0.605920 -0.156000
v -0.673000 0.579920 -0.130000
v -0.699000 0.415360 -0.156000
v -0.673000 0.441360 -0.130000
v -0.664616 0.441360 -0.130000
v -0.664616 0.441360 0.130000
v -0.577441 0.513573 -0.130000
v -0.577441 0.513573 0.130000
v -0.663757 0.579920 -0.130000
v -0.663757 0.579920 0.130000
v -0.673000 0.579920 -0.130000
v -0.673000 0.579920 0.130000
v -0.673000 0.441360 -0.130000
v -0.673000 0.441360 0.130000
v -0.664616 0.441360 0.130000
v -0.655246 0.415360 0.156000
v -0.577441 0.513573 0.130000
v -0.535766 0.514332 0.156000
v -0.663757 0.579920 0.130000
v -0.654919 0.605920 0.156000
v -0.673000 0.579920 0.130000
v -0.699000 0.605920 0.156000
v -0.673000 0.441360 0.130000
v -0.699000 0.415360 0.156000
v -0.101800 -0.016000 -0.156000
v -0.127800 -0.042000 -0.130000
v -0.101800 0.725280 -0.156000
v -0.127800 0.751280 -0.130000
v 0.032120 0.725280 -0.156000
v 0.058120 0.751280 -0.130000
v 0.032120 -0.016000 -0.156000
v 0.058120 -0.042000 -0.130000
v -0.127800 -0.042000 -0.130000
v -0.127800 -0.042000 0.130000
v -0.127800 0.751280 -0.130000
v -0.127800 0.751280 0.130000
v 0.058120 0.751280 -0.130000
v 0.058120 0.751280 0.130000
v 0.058120 -0.042000 -0.130000
v 0.058120 -0.042000 0.130000
v -0.127800 -0.042000 0.130000
v -0.101800 -0.016000 0.156000
v -0.127800 0.751280 0.130000
v -0.101800 0.725280 0.156000
v 0.058120 0.751280 0.130000
v 0.032120 0.725280 0.156000
v 0.058120 -0.042000 0.130000
v 0.032120 -0.016000 0.156000
v 0.712398 0.513490 -0.156000
v 0.747039 0.518120 -0.130000
v 0.592425 0.337740 -0.156000
v 0.624771 0.339008 -0.130000
v 0.743440 0.149965 -0.156000
v 0.764304 0.165509 -0.130000
v 0.857771 -0.016000 -0.156000
v 0.907255 -0.042000 -0.130000
v 0.696905 -0.016000 -0.156000
v 0.682710 -0.042000 -0.130000
v 0.599836 0.134996 -0.156000
v 0.580005 0.117763 -0.130000
v 0.417856 0.291840 -0.156000
v 0.408198 0.265840 -0.130000
v 0.397160 0.291840 -0.156000
v 0.423160 0.265840 -0.130000
v 0.397160 -0.016000 -0.156000
v 0.423160 -0.042000 -0.130000
v 0.263240 -0.016000 -0.156000
v 0.237240 -0.042000 -0.130000
v 0.263240 0.725280 -0.156000
v 0.237240 0.751280 -0.130000
v 0.464015 0.725280 -0.156000
v 0.473595 0.751280 -0.130000
v 0.747039 0.518120 -0.130000
v 0.747039 0.518120 0.130000
v 0.624771 0.339008 -0.130000
v 0.624771 0.339008 0.130000
v 0.764304 0.165509 -0.130000
v 0.764304 0.165509 0.130000
v 0.907255 -0.042000 -0.130000
v 0.907255 -0.042000 0.130000
v 0.682710 -0.042000 -0.130000
v 0.682710 -0.042000 0.130000
v 0.580005 0.117763 -0.130000
v 0.580005 0.117763 0.130000
v 0.408198 0.265840 -0.130000
v 0.408198 0.265840 0.130000
v 0.423160 0.265840 -0.130000
v 0.423160 0.265840 0.130000
v 0.423160 -0.042000 -0.130000
v 0.423160 -0.042000 0.130000
v 0.237240 -0.042000 -0.130000
v 0.237240 -0.042000 0.130000
v 0.237240 0.751280 -0.130000
v 0.237240 0.751280 0.130000
v 0.473595 0.751280 -0.130000
v 0.473595 0.751280 0.130000
v 0.747039 0.518120 0.130000
v 0.712398 0.513490 0.156000
v 0.624771 0.339008 0.130000
v 0.592425 0.337740 0.156000
v 0.764304 0.165509 0.130000
v 0.743440 0.149965 0.156000
v 0.907255 -0.042000 0.130000
v 0.857771 -0.016000 0.156000
v 0.682710 -0.042000 0.130000
v 0.696905 -0.016000 0.156000
v 0.580005 0.117763 0.130000
v 0.599836 0.134996 0.156000
v 0.408198 0.265840 0.130000
v 0.417856 0.291840 0.156000
v 0.423160 0.265840 0.130000
v 0.397160 0.291840 0.156000
v 0.423160 -0.042000 0.130000
v 0.397160 -0.016000 0.156000
v 0.237240 -0.042000 0.130000
v 0.263240 -0.016000 0.156000
v 0.237240 0.751280 0.130000
v 0.263240 0.725280 0.156000
v 0.473595 0.751280 0.130000
v 0.464015 0.725280 0.156000
v 0.440914 0.415360 -0.156000
v 0.431544 0.441360 -0.130000
v 0.560394 0.514332 -0.156000
v 0.518719 0.513573 -0.130000
v 0.441241 0.605920 -0.156000
v 0.432403 0.579920 -0.130000
v 0.397160 0.605920 -0.156000
v 0.423160 0.579920 -0.130000
v 0.397160 0.415360 -0.156000
v 0.423160 0.441360 -0.130000
v 0.431544 0.441360 -0.130000
v 0.431544 0.441360 0.130000
v 0.518719 0.513573 -0.130000
v 0.518719 0.513573 0.130000
v 0.432403 0.579920 -0.130000
v 0.432403 0.579920 0.130000
v 0.423160 0.579920 -0.130000
v 0.423160 0.579920 0.130000
v 0.423160 0.441360 -0.130000
v 0.423160 0.441360 0.130000
v 0.431544 0.441360 0.130000
v 0.440914 0.415360 0.156000
v 0.518719 0.513573 0.130000
v 0.560394 0.514332 0.156000
v 0.432403 0.579920 0.130000
v 0.441241 0.605920 0.156000
v 0.423160 0.579920 0.130000
v 0.397160 0.605920 0.156000
v 0.423160 0.441360 0.130000
v 0.397160 0.415360 0.156000
v 1.510680 -0.016000 -0.156000
v 1.493911 -0.042000 -0.130000
v 1.416040 0.193040 -0.156000
v 1.399271 0.167040 -0.130000
v 1.135317 0.193040 -0.156000
v 1.152473 0.167040 -0.130000
v 1.045877 -0.016000 -0.156000
v 1.063033 -0.042000 -0.130000
v 0.907088 -0.016000 -0.156000
v 0.867711 -0.042000 -0.130000
v 1.225475 0.729440 -0.156000
v 1.208308 0.755440 -0.130000
v 1.318196 0.729440 -0.156000
v 1.335091 0.755440 -0.130000
v 1.649624 -0.016000 -0.156000
v 1.689638 -0.042000 -0.130000
v 1.493911 -0.042000 -0.130000
v 1.493911 -0.042000 0.130000
v 1.399271 0.167040 -0.130000
v 1.399271 0.167040 0.130000
v 1.152473 0.167040 -0.130000
v 1.152473 0.167040 0.130000
v 1.063033 -0.042000 -0.130000
v 1.063033 -0.042000 0.130000
v 0.867711 -0.042000 -0.130000
v 0.867711 -0.042000 0.130000
v 1.208308 0.755440 -0.130000
v 1.208308 0.755440 0.130000
v 1.335091 0.755440 -0.130000
v 1.335091 0.755440 0.130000
v 1.689638 -0.042000 -0.130000
v 1.689638 -0.042000 0.130000
v 1.493911 -0.042000 0.130000
v 1.510680 -0.016000 0.156000
v 1.399271 0.167040 0.130000
v 1.416040 0.193040 0.156000
v 1.152473 0.167040 0.130000
v 1.135317 0.193040 0.156000
v 1.063033 -0.042000 0.130000
v 1.045877 -0.016000 0.156000
v 0.867711 -0.042000 0.130000
v 0.907088 -0.016000 0.156000
v 1.208308 0.755440 0.130000
v 1.225475 0.729440 0.156000
v 1.335091 0.755440 0.130000
v 1.318196 0.729440 0.156000
v 1.689638 -0.042000 0.130000
v 1.649624 -0.016000 0.156000
v 1.360119 0.316560 -0.156000
v 1.320079 0.342560 -0.130000
v 1.270915 0.516865 -0.156000
v 1.271816 0.450931 -0.130000
v 1.188198 0.316560 -0.156000
v 1.227064 0.342560 -0.130000
v 1.320079 0.342560 -0.130000
v 1.320079 0.342560 0.130000
v 1.271816 0.450931 -0.130000
v 1.271816 0.450931 0.130000
v 1.227064 0.342560 -0.130000
v 1.227064 0.342560 0.130000
v 1.320079 0.342560 0.130000
v 1.360119 0.316560 0.156000
v 1.271816 0.450931 0.130000
v 1.270915 0.516865 0.156000
v 1.227064 0.342560 0.130000
v 1.188198 0.316560 0.156000
vn 0.000000 0.000000 1.000000
vn 0.000000 -0.000000 -1.000000
vn 0.259800 -0.613200 -0.746000
vn -0.410300 -0.466800 -0.783400
vn -0.414100 0.340200 -0.844200
vn -0.303900 0.591000 -0.747200
vn -0.656600 0.210600 -0.724200
vn -0.408200 0.408200 -0.816500
vn 0.408200 0.408200 -0.816500
vn 0.642700 -0.235500 -0.729000
vn 0.390100 -0.920700 0.000000
vn -0.660100 -0.751100 0.000000
vn -0.772700 0.634800 0.000000
vn -0.457300 0.889300 0.000000
vn -0.952200 0.305500 0.000000
vn -0.707100 0.707100 0.000000
vn 0.707100 0.707100 0.000000
vn 0.938900 -0.344100 0.000000
vn 0.259800 -0.613200 0.746000
vn -0.410300 -0.466800 0.783400
vn -0.414100 0.340200 0.844200
vn -0.303900 0.591000 0.747200
vn -0.656600 0.210600 0.724200
vn -0.408200 0.408200 0.816500
vn 0.408200 0.408200 0.816500
vn 0.642700 -0.235500 0.729000
vn -0.408200 -0.408200 -0.816500
vn 0.408200 -0.408200 -0.816500
vn -0.707100 -0.707100 0.000000
vn 0.707100 -0.707100 0.000000
vn -0.408200 -0.408200 0.816500
vn 0.408200 -0.408200 0.816500
vn 0.591600 0.079100 -0.802300
vn 0.625700 0.024500 -0.779600
vn 0.566900 0.422300 -0.707300
vn 0.373300 -0.196100 -0.906700
vn -0.316100 -0.579000 -0.751500
vn -0.531000 -0.461400 -0.710800
vn -0.276800 -0.626100 -0.728900
vn -0.238100 -0.641100 -0.729500
vn 0.554200 -0.242200 -0.796400
vn 0.236500 0.642000 -0.729200
vn 0.991200 0.132500 0.000000
vn 0.999200 0.039200 0.000000
vn 0.801900 0.597400 0.000000
vn 0.885200 -0.465100 0.000000
vn -0.479200 -0.877700 0.000000
vn -0.754800 -0.655900 0.000000
vn -0.937400 0.348200 0.000000
vn 0.345700 0.938300 0.000000
vn 0.591600 0.079100 0.802300
vn 0.625700 0.024500 0.779600
vn 0.566900 0.422300 0.707300
vn 0.373300 -0.196100 0.906700
vn -0.316100 -0.579000 0.751500
vn -0.531000 -0.461400 0.710800
vn -0.238100 -0.641100 0.729500
vn -0.276800 -0.626100 0.728900
vn 0.554200 -0.242200 0.796400
vn 0.236500 0.642000 0.729200
vn -0.232300 0.644600 -0.728300
vn -0.529200 -0.009600 -0.848400
vn -0.221300 -0.650900 -0.726200
vn -0.339000 0.940800 0.000000
vn -0.999800 -0.018200 0.000000
vn -0.321800 -0.946800 0.000000
vn -0.232300 0.644600 0.728300
vn -0.529200 -0.009600 0.848400
vn -0.221300 -0.650900 0.726200
vn -0.348700 -0.540600 -0.765600
vn 0.352900 -0.534800 -0.767700
vn -0.402700 -0.265900 -0.875800
vn -0.353000 0.534700 -0.767800
vn 0.350100 0.538800 -0.766300
vn 0.401200 -0.260700 -0.878100
vn -0.542000 -0.840400 0.000000
vn 0.550700 -0.834700 0.000000
vn -0.834500 -0.551000 0.000000
vn -0.551000 0.834500 0.000000
vn 0.544800 0.838500 0.000000
vn 0.838500 -0.544800 0.000000
vn -0.348700 -0.540600 0.765600
vn 0.352900 -0.534800 0.767700
vn -0.402700 -0.265900 0.875800
vn -0.353000 0.534700 0.767800
vn 0.350100 0.538800 0.766300
vn 0.401200 -0.260700 0.878100
vn -0.401100 0.260400 -0.878200
vn 0.005000 -0.366800 -0.930300
vn 0.403900 0.270200 -0.874000
vn -0.838700 0.544600 0.000000
vn 0.013700 -0.999900 0.000000
vn 0.831100 0.556000 0.000000
vn -0.401100 0.260400 0.878200
vn 0.005000 -0.366800 0.930300
vn 0.403900 0.270200 0.874000
usemtl None
s off
f 5//1 7//1 6//1
f 5//1 10//1 7//1
f 10//1 8//1 7//1
f 5//1 11//1 10//1
f 9//1 8//1 10//1
f 5//1 3//1 11//1
f 3//1 9//1 11//1
f 3//1 2//1 9//1
f 2//1 8//1 9//1
f 5//1 4//1 3//1
f 1//1 8//1 2//1
f 21//1 27//1 22//1
f 27//1 23//1 22//1
f 27//1 26//1 23//1
f 26//1 12//1 23//1
f 21//1 28//1 27//1
f 25//1 12//1 26//1
f 24//1 12//1 25//1
f 24//1 13//1 12//1
f 21//1 24//1 28//1
f 21//1 19//1 24//1
f 19//1 13//1 24//1
f 19//1 18//1 13//1
f 18//1 14//1 13//1
f 21//1 20//1 19//1
f 17//1 14//1 18//1
f 17//1 15//1 14//1
f 16//1 15//1 17//1
f 29//1 31//1 30//1
f 29//1 32//1 31//1
f 42//1 48//1 43//1
f 48//1 44//1 43//1
f 48//1 47//1 44//1
f 47//1 33//1 44//1
f 42//1 49//1 48//1
f 46//1 33//1 47//1
f 45//1 33//1 46//1
f 45//1 34//1 33//1
f 42//1 45//1 49//1
f 42//1 40//1 45//1
f 40//1 34//1 45//1
f 40//1 39//1 34//1
f 39//1 35//1 34//1
f 42//1 41//1 40//1
f 38//1 35//1 39//1
f 38//1 36//1 35//1
f 37//1 36//1 38//1
f 50//1 52//1 51//1
f 50//1 53//1 52//1
f 58//1 60//1 59//1
f 58//1 61//1 60//1
f 57//1 61//1 58//1
f 57//1 54//1 61//1
f 55//1 57//1 56//1
f 55//1 54//1 57//1
f 68//2 66//2 67//2
f 71//2 66//2 68//2
f 69//2 71//2 68//2
f 72//2 66//2 71//2
f 69//2 70//2 71//2
f 64//2 66//2 72//2
f 70//2 64//2 72//2
f 63//2 64//2 70//2
f 69//2 63//2 70//2
f 65//2 66//2 64//2
f 69//2 62//2 63//2
f 88//2 82//2 83//2
f 84//2 88//2 83//2
f 87//2 88//2 84//2
f 73//2 87//2 84//2
f 89//2 82//2 88//2
f 73//2 86//2 87//2
f 73//2 85//2 86//2
f 74//2 85//2 73//2
f 85//2 82//2 89//2
f 80//2 82//2 85//2
f 74//2 80//2 85//2
f 79//2 80//2 74//2
f 75//2 79//2 74//2
f 81//2 82//2 80//2
f 75//2 78//2 79//2
f 76//2 78//2 75//2
f 76//2 77//2 78//2
f 92//2 90//2 91//2
f 93//2 90//2 92//2
f 109//2 103//2 104//2
f 105//2 109//2 104//2
f 108//2 109//2 105//2
f 94//2 108//2 105//2
f 110//2 103//2 109//2
f 94//2 107//2 108//2
f 94//2 106//2 107//2
f 95//2 106//2 94//2
f 106//2 103//2 110//2
f 101//2 103//2 106//2
f 95//2 101//2 106//2
f 100//2 101//2 95//2
f 96//2 100//2 95//2
f 102//2 103//2 101//2
f 96//2 99//2 100//2
f 97//2 99//2 96//2
f 97//2 98//2 99//2
f 113//2 111//2 112//2
f 114//2 111//2 113//2
f 121//2 119//2 120//2
f 122//2 119//2 121//2
f 122//2 118//2 119//2
f 115//2 118//2 122//2
f 118//2 116//2 117//2
f 115//2 116//2 118//2
s 1
f 124//3 126//4 125//4 123//3
f 126//4 128//5 127//5 125//4
f 128//5 130//6 129//6 127//5
f 130//6 132//7 131//7 129//6
f 132//7 134//8 133//8 131//7
f 134//8 136//9 135//9 133//8
f 136//9 138//10 137//10 135//9
f 138//10 124//3 123//3 137//10
f 140//11 142//12 141//12 139//11
f 142//12 144//13 143//13 141//12
f 144//13 146//14 145//14 143//13
f 146//14 148//15 147//15 145//14
f 148//15 150//16 149//16 147//15
f 150//16 152//17 151//17 149//16
f 152//17 154//18 153//18 151//17
f 154//18 140//11 139//11 153//18
f 156//19 158//20 157//20 155//19
f 158//20 160//21 159//21 157//20
f 160//21 162//22 161//22 159//21
f 162//22 164//23 163//23 161//22
f 164//23 166//24 165//24 163//23
f 166//24 168//25 167//25 165//24
f 168//25 170//26 169//26 167//25
f 170//26 156//19 155//19 169//26
f 172//27 174//8 173//8 171//27
f 174//8 176//9 175//9 173//8
f 176//9 178//28 177//28 175//9
f 178//28 172//27 171//27 177//28
f 180//29 182//16 181//16 179//29
f 182//16 184//17 183//17 181//16
f 184//17 186//30 185//30 183//17
f 186//30 180//29 179//29 185//30
f 188//31 190//24 189//24 187//31
f 190//24 192//25 191//25 189//24
f 192//25 194//32 193//32 191//25
f 194//32 188//31 187//31 193//32
f 196//33 198//34 197//34 195//33
f 198//34 200//35 199//35 197//34
f 200//35 202//36 201//36 199//35
f 202//36 204//37 203//37 201//36
f 204//37 206//38 205//38 203//37
f 206//38 208//39 207//40 205//38
f 208//39 210//41 209//28 207//40
f 210//41 212//28 211//28 209//28
f 212//28 214//27 213//27 211//28
f 214//27 216//8 215//8 213//27
f 216//8 218//42 217//42 215//8
f 218//42 196//33 195//33 217//42
f 220//43 222//44 221//44 219//43
f 222//44 224//45 223//45 221//44
f 224//45 226//46 225//46 223//45
f 226//46 228//47 227//47 225//46
f 228//47 230//48 229//48 227//47
f 230//48 232//49 231//49 229//48
f 232//49 234//17 233//17 231//49
f 234//17 236//30 235//30 233//17
f 236//30 238//29 237//29 235//30
f 238//29 240//16 239//16 237//29
f 240//16 242//50 241//50 239//16
f 242//50 220//43 219//43 241//50
f 244//51 246//52 245//52 243//51
f 246//52 248//53 247//53 245//52
f 248//53 250//54 249//54 247//53
f 250//54 252//55 251//55 249//54
f 252//55 254//56 253//56 251//55
f 254//56 256//57 255//58 253//56
f 256//57 258//32 257//59 255//58
f 258//32 260//32 259//32 257//59
f 260//32 262//31 261//31 259//32
f 262//31 264//24 263//24 261//31
f 264//24 266//60 265//60 263//24
f 266//60 244//51 243//51 265//60
f 268//61 270//62 269//62 267//61
f 270//62 272//63 271//63 269//62
f 272//63 274//28 273//28 271//63
f 274//28 276//9 275//9 273//28
f 276//9 268//61 267//61 275//9
f 278//64 280//65 279//65 277//64
f 280//65 282//66 281//66 279//65
f 282//66 284//30 283//30 281//66
f 284//30 286//17 285//17 283//30
f 286//17 278//64 277//64 285//17
f 288//67 290//68 289//68 287//67
f 290//68 292//69 291//69 289//68
f 292//69 294//32 293//32 291//69
f 294//32 296//25 295//25 293//32
f 296//25 288//67 287//67 295//25
f 298//27 300//8 299//8 297//27
f 300//8 302//9 301//9 299//8
f 302//9 304//28 303//28 301//9
f 304//28 298//27 297//27 303//28
f 306//29 308//16 307//16 305//29
f 308//16 310//17 309//17 307//16
f 310//17 312//30 311//30 309//17
f 312//30 306//29 305//29 311//30
f 314//31 316//24 315//24 313//31
f 316//24 318//25 317//25 315//24
f 318//25 320//32 319//32 317//25
f 320//32 314//31 313//31 319//32
f 322//33 324//34 323//34 321//33
f 324//34 326//35 325//35 323//34
f 326//35 328//36 327//36 325//35
f 328//36 330//37 329//37 327//36
f 330//37 332//38 331//38 329//37
f 332//38 334//39 333//40 331//38
f 334//39 336//41 335//28 333//40
f 336//41 338//28 337//28 335//28
f 338//28 340//27 339//27 337//28
f 340//27 342//8 341//8 339//27
f 342//8 344//42 343//42 341//8
f 344//42 322//33 321//33 343//42
f 346//43 348//44 347//44 345//43
f 348//44 350//45 349//45 347//44
f 350//45 352//46 351//46 349//45
f 352//46 354//47 353//47 351//46
f 354//47 356//48 355//48 353//47
f 356//48 358//49 357//49 355//48
f 358//49 360//17 359//17 357//49
f 360//17 362//30 361//30 359//17
f 362//30 364//29 363//29 361//30
f 364//29 366//16 365//16 363//29
f 366//16 368//50 367//50 365//16
f 368//50 346//43 345//43 367//50
f 370//51 372//52 371//52 369//51
f 372//52 374//53 373//53 371//52
f 374//53 376//54 375//54 373//53
f 376//54 378//55 377//55 375//54
f 378//55 380//56 379//56 377//55
f 380//56 382//57 381//58 379//56
f 382//57 384//32 383//59 381//58
f 384//32 386//32 385//32 383//59
f 386//32 388//31 387//31 385//32
f 388//31 390//24 389//24 387//31
f 390//24 392//60 391//60 389//24
f 392//60 370//51 369//51 391//60
f 394//61 396//62 395//62 393//61
f 396//62 398//63 397//63 395//62
f 398//63 400//28 399//28 397//63
f 400//28 402//9 401//9 399//28
f 402//9 394//61 393//61 401//9
f 404//64 406//65 405//65 403//64
f 406//65 408//66 407//66 405//65
f 408//66 410//30 409//30 407//66
f 410//30 412//17 411//17 409//30
f 412//17 404//64 403//64 411//17
f 414//67 416//68 415//68 413//67
f 416//68 418//69 417//69 415//68
f 418//69 420//32 419//32 417//69
f 420//32 422//25 421//25 419//32
f 422//25 414//67 413//67 421//25
f 424//70 426//70 425//70 423//70
f 426//70 428//71 427//71 425//70
f 428//71 430//71 429//71 427//71
f 430//71 432//72 431//72 429//71
f 432//72 434//73 433//73 431//72
f 434//73 436//74 435//74 433//73
f 436//74 438//75 437//75 435//74
f 438//75 424//70 423//70 437//75
f 440//76 442//76 441//76 439//76
f 442//76 444//77 443//77 441//76
f 444//77 446//77 445//77 443//77
f 446//77 448//78 447//78 445//77
f 448//78 450//79 449//79 447//78
f 450//79 452//80 451//80 449//79
f 452//80 454//81 453//81 451//80
f 454//81 440//76 439//76 453//81
f 456//82 458//82 457//82 455//82
f 458//82 460//83 459//83 457//82
f 460//83 462//83 461//83 459//83
f 462//83 464//84 463//84 461//83
f 464//84 466//85 465//85 463//84
f 466//85 468//86 467//86 465//85
f 468//86 470//87 469//87 467//86
f 470//87 456//82 455//82 469//87
f 472//88 474//89 473//89 471//88
f 474//89 476//90 475//90 473//89
f 476//90 472//88 471//88 475//90
f 478//91 480//92 479//92 477//91
f 480//92 482//93 481//93 479//92
f 482//93 478//91 477//91 481//93
f 484//94 486//95 485//95 483//94
f 486//95 488//96 487//96 485//95
f 488//96 484//94 483//94 487//96
