# Blender v2.75 (sub 0) OBJ File: 'letras.blend'
# www.blender.org
mtllib letras_hotel.mtl
o Text_Textdafd
v 1.899960 -0.932480 0.156000
v 1.899960 -1.056000 0.156000
v 1.445720 -1.056000 0.156000
v 1.445720 -0.314720 0.156000
v 1.579640 -0.314720 0.156000
v 1.579640 -0.932480 0.156000
v 1.166440 -1.056000 0.156000
v 1.071800 -0.846960 0.156000
v 0.791077 -0.846960 0.156000
v 0.701637 -1.056000 0.156000
v 0.562848 -1.056000 0.156000
v 0.881235 -0.310560 0.156000
v 0.973956 -0.310560 0.156000
v 1.305384 -1.056000 0.156000
v 1.015879 -0.723440 0.156000
v 0.926675 -0.523135 0.156000
v 0.843958 -0.723440 0.156000
v 0.257410 -0.431312 0.156000
v 0.166226 -0.499700 0.156000
v 0.471717 -0.858006 0.156000
v 0.255339 -1.067586 0.156000
v 0.036520 -0.995410 0.156000
v 0.036520 -0.827820 0.156000
v 0.238225 -0.938758 0.156000
v 0.332068 -0.866051 0.156000
v 0.025926 -0.509059 0.156000
v 0.259852 -0.303385 0.156000
v 0.437720 -0.359554 0.156000
v 0.437720 -0.511325 0.156000
v -0.814440 -0.438240 0.156000
v -0.814440 -0.620480 0.156000
v -0.524280 -0.620480 0.156000
v -0.524280 -0.744000 0.156000
v -0.814440 -0.744000 0.156000
v -0.814440 -0.932480 0.156000
v -0.504520 -0.932480 0.156000
v -0.504520 -1.056000 0.156000
v -0.948360 -1.056000 0.156000
v -0.948360 -0.314720 0.156000
v -0.513880 -0.314720 0.156000
v -0.513880 -0.438240 0.156000
v -1.533384 -0.314720 0.156000
v -1.138849 -0.685344 0.156000
v -1.532331 -1.056000 0.156000
v -1.831320 -1.056000 0.156000
v -1.831320 -0.314720 0.156000
v -1.557434 -0.932480 0.156000
v -1.290894 -0.685467 0.156000
v -1.562551 -0.438240 0.156000
v -1.697400 -0.438240 0.156000
v -1.697400 -0.932480 0.156000
v 1.849520 0.107520 0.156000
v 1.849520 -0.016000 0.156000
v 1.395280 -0.016000 0.156000
v 1.395280 0.725280 0.156000
v 1.529200 0.725280 0.156000
v 1.529200 0.107520 0.156000
v 0.906240 0.601760 0.156000
v 0.906240 0.419520 0.156000
v 1.196400 0.419520 0.156000
v 1.196400 0.296000 0.156000
v 0.906240 0.296000 0.156000
v 0.906240 0.107520 0.156000
v 1.216160 0.107520 0.156000
v 1.216160 -0.016000 0.156000
v 0.772320 -0.016000 0.156000
v 0.772320 0.725280 0.156000
v 1.206800 0.725280 0.156000
v 1.206800 0.601760 0.156000
v 0.359200 0.601760 0.156000
v 0.359200 -0.016000 0.156000
v 0.225280 -0.016000 0.156000
v 0.225280 0.601760 0.156000
v -0.020160 0.601760 0.156000
v -0.020160 0.725280 0.156000
v 0.604640 0.725280 0.156000
v 0.604640 0.601760 0.156000
v -0.149424 0.354609 0.156000
v -0.556476 -0.031484 0.156000
v -0.958077 0.354672 0.156000
v -0.554335 0.740764 0.156000
v -0.300570 0.354640 0.156000
v -0.554299 0.602646 0.156000
v -0.807074 0.354640 0.156000
v -0.554299 0.106634 0.156000
v -1.282720 -0.016000 0.156000
v -1.282720 0.292880 0.156000
v -1.648000 0.292880 0.156000
v -1.648000 -0.016000 0.156000
v -1.781920 -0.016000 0.156000
v -1.781920 0.725280 0.156000
v -1.648000 0.725280 0.156000
v -1.648000 0.416400 0.156000
v -1.282720 0.416400 0.156000
v -1.282720 0.725280 0.156000
v -1.148800 0.725280 0.156000
v -1.148800 -0.016000 0.156000
v 1.899960 -0.932480 -0.156000
v 1.899960 -1.056000 -0.156000
v 1.445720 -1.056000 -0.156000
v 1.445720 -0.314720 -0.156000
v 1.579640 -0.314720 -0.156000
v 1.579640 -0.932480 -0.156000
v 1.166440 -1.056000 -0.156000
v 1.071800 -0.846960 -0.156000
v 0.791077 -0.846960 -0.156000
v 0.701637 -1.056000 -0.156000
v 0.562848 -1.056000 -0.156000
v 0.881235 -0.310560 -0.156000
v 0.973956 -0.310560 -0.156000
v 1.305384 -1.056000 -0.156000
v 1.015879 -0.723440 -0.156000
v 0.926675 -0.523135 -0.156000
v 0.843958 -0.723440 -0.156000
v 0.257410 -0.431312 -0.156000
v 0.166226 -0.499700 -0.156000
v 0.471717 -0.858006 -0.156000
v 0.255339 -1.067586 -0.156000
v 0.036520 -0.995410 -0.156000
v 0.036520 -0.827820 -0.156000
v 0.238225 -0.938758 -0.156000
v 0.332068 -0.866051 -0.156000
v 0.025926 -0.509059 -0.156000
v 0.259852 -0.303385 -0.156000
v 0.437720 -0.359554 -0.156000
v 0.437720 -0.511325 -0.156000
v -0.814440 -0.438240 -0.156000
v -0.814440 -0.620480 -0.156000
v -0.524280 -0.620480 -0.156000
v -0.524280 -0.744000 -0.156000
v -0.814440 -0.744000 -0.156000
v -0.814440 -0.932480 -0.156000
v -0.504520 -0.932480 -0.156000
v -0.504520 -1.056000 -0.156000
v -0.948360 -1.056000 -0.156000
v -0.948360 -0.314720 -0.156000
v -0.513880 -0.314720 -0.156000
v -0.513880 -0.438240 -0.156000
v -1.533384 -0.314720 -0.156000
v -1.138849 -0.685344 -0.156000
v -1.532331 -1.056000 -0.156000
v -1.831320 -1.056000 -0.156000
v -1.831320 -0.314720 -0.156000
v -1.557434 -0.932480 -0.156000
v -1.290894 -0.685467 -0.156000
v -1.562551 -0.438240 -0.156000
v -1.697400 -0.438240 -0.156000
v -1.697400 -0.932480 -0.156000
v 1.849520 0.107520 -0.156000
v 1.849520 -0.016000 -0.156000
v 1.395280 -0.016000 -0.156000
v 1.395280 0.725280 -0.156000
v 1.529200 0.725280 -0.156000
v 1.529200 0.107520 -0.156000
v 0.906240 0.601760 -0.156000
v 0.906240 0.419520 -0.156000
v 1.196400 0.419520 -0.156000
v 1.196400 0.296000 -0.156000
v 0.906240 0.296000 -0.156000
v 0.906240 0.107520 -0.156000
v 1.216160 0.107520 -0.156000
v 1.216160 -0.016000 -0.156000
v 0.772320 -0.016000 -0.156000
v 0.772320 0.725280 -0.156000
v 1.206800 0.725280 -0.156000
v 1.206800 0.601760 -0.156000
v 0.359200 0.601760 -0.156000
v 0.359200 -0.016000 -0.156000
v 0.225280 -0.016000 -0.156000
v 0.225280 0.601760 -0.156000
v -0.020160 0.601760 -0.156000
v -0.020160 0.725280 -0.156000
v 0.604640 0.725280 -0.156000
v 0.604640 0.601760 -0.156000
v -0.149424 0.354609 -0.156000
v -0.556476 -0.031484 -0.156000
v -0.958077 0.354672 -0.156000
v -0.554335 0.740764 -0.156000
v -0.300570 0.354640 -0.156000
v -0.554299 0.602646 -0.156000
v -0.807074 0.354640 -0.156000
v -0.554299 0.106634 -0.156000
v -1.282720 -0.016000 -0.156000
v -1.282720 0.292880 -0.156000
v -1.648000 0.292880 -0.156000
v -1.648000 -0.016000 -0.156000
v -1.781920 -0.016000 -0.156000
v -1.781920 0.725280 -0.156000
v -1.648000 0.725280 -0.156000
v -1.648000 0.416400 -0.156000
v -1.282720 0.416400 -0.156000
v -1.282720 0.725280 -0.156000
v -1.148800 0.725280 -0.156000
v -1.148800 -0.016000 -0.156000
v -1.282720 -0.016000 -0.156000
v -1.308720 -0.042000 -0.130000
v -1.282720 0.292880 -0.156000
v -1.308720 0.266880 -0.130000
v -1.648000 0.292880 -0.156000
v -1.622000 0.266880 -0.130000
v -1.648000 -0.016000 -0.156000
v -1.622000 -0.042000 -0.130000
v -1.781920 -0.016000 -0.156000
v -1.807920 -0.042000 -0.130000
v -1.781920 0.725280 -0.156000
v -1.807920 0.751280 -0.130000
v -1.648000 0.725280 -0.156000
v -1.622000 0.751280 -0.130000
v -1.648000 0.416400 -0.156000
v -1.622000 0.442400 -0.130000
v -1.282720 0.416400 -0.156000
v -1.308720 0.442400 -0.130000
v -1.282720 0.725280 -0.156000
v -1.308720 0.751280 -0.130000
v -1.148800 0.725280 -0.156000
v -1.122800 0.751280 -0.130000
v -1.148800 -0.016000 -0.156000
v -1.122800 -0.042000 -0.130000
v -1.308720 -0.042000 -0.130000
v -1.308720 -0.042000 0.130000
v -1.308720 0.266880 -0.130000
v -1.308720 0.266880 0.130000
v -1.622000 0.266880 -0.130000
v -1.622000 0.266880 0.130000
v -1.622000 -0.042000 -0.130000
v -1.622000 -0.042000 0.130000
v -1.807920 -0.042000 -0.130000
v -1.807920 -0.042000 0.130000
v -1.807920 0.751280 -0.130000
v -1.807920 0.751280 0.130000
v -1.622000 0.751280 -0.130000
v -1.622000 0.751280 0.130000
v -1.622000 0.442400 -0.130000
v -1.622000 0.442400 0.130000
v -1.308720 0.442400 -0.130000
v -1.308720 0.442400 0.130000
v -1.308720 0.751280 -0.130000
v -1.308720 0.751280 0.130000
v -1.122800 0.751280 -0.130000
v -1.122800 0.751280 0.130000
v -1.122800 -0.042000 -0.130000
v -1.122800 -0.042000 0.130000
v -1.308720 -0.042000 0.130000
v -1.282720 -0.016000 0.156000
v -1.308720 0.266880 0.130000
v -1.282720 0.292880 0.156000
v -1.622000 0.266880 0.130000
v -1.648000 0.292880 0.156000
v -1.622000 -0.042000 0.130000
v -1.648000 -0.016000 0.156000
v -1.807920 -0.042000 0.130000
v -1.781920 -0.016000 0.156000
v -1.807920 0.751280 0.130000
v -1.781920 0.725280 0.156000
v -1.622000 0.751280 0.130000
v -1.648000 0.725280 0.156000
v -1.622000 0.442400 0.130000
v -1.648000 0.416400 0.156000
v -1.308720 0.442400 0.130000
v -1.282720 0.416400 0.156000
v -1.308720 0.751280 0.130000
v -1.282720 0.725280 0.156000
v -1.122800 0.751280 0.130000
v -1.148800 0.725280 0.156000
v -1.122800 -0.042000 0.130000
v -1.148800 -0.016000 0.156000
v -0.149424 0.354609 -0.156000
v -0.111697 0.354557 -0.130000
v -0.556476 -0.031484 -0.156000
v -0.556598 -0.067436 -0.130000
v -0.958077 0.354672 -0.156000
v -0.995643 0.354723 -0.130000
v -0.554335 0.740764 -0.156000
v -0.554360 0.776715 -0.130000
v -0.111697 0.354557 -0.130000
v -0.111697 0.354557 0.130000
v -0.556598 -0.067436 -0.130000
v -0.556598 -0.067436 0.130000
v -0.995643 0.354723 -0.130000
v -0.995643 0.354723 0.130000
v -0.554360 0.776715 -0.130000
v -0.554360 0.776715 0.130000
v -0.111697 0.354557 0.130000
v -0.149424 0.354609 0.156000
v -0.556598 -0.067436 0.130000
v -0.556476 -0.031484 0.156000
v -0.995643 0.354723 0.130000
v -0.958077 0.354672 0.156000
v -0.554360 0.776715 0.130000
v -0.554335 0.740764 0.156000
v -0.300570 0.354640 -0.156000
v -0.337766 0.354640 -0.130000
v -0.554299 0.602646 -0.156000
v -0.554265 0.566255 -0.130000
v -0.807074 0.354640 -0.156000
v -0.769949 0.354640 -0.130000
v -0.554299 0.106634 -0.156000
v -0.554265 0.143025 -0.130000
v -0.337766 0.354640 -0.130000
v -0.337766 0.354640 0.130000
v -0.554265 0.566255 -0.130000
v -0.554265 0.566255 0.130000
v -0.769949 0.354640 -0.130000
v -0.769949 0.354640 0.130000
v -0.554265 0.143025 -0.130000
v -0.554265 0.143025 0.130000
v -0.337766 0.354640 0.130000
v -0.300570 0.354640 0.156000
v -0.554265 0.566255 0.130000
v -0.554299 0.602646 0.156000
v -0.769949 0.354640 0.130000
v -0.807074 0.354640 0.156000
v -0.554265 0.143025 0.130000
v -0.554299 0.106634 0.156000
v 0.359200 0.601760 -0.156000
v 0.385200 0.575760 -0.130000
v 0.359200 -0.016000 -0.156000
v 0.385200 -0.042000 -0.130000
v 0.225280 -0.016000 -0.156000
v 0.199280 -0.042000 -0.130000
v 0.225280 0.601760 -0.156000
v 0.199280 0.575760 -0.130000
v -0.020160 0.601760 -0.156000
v -0.046160 0.575760 -0.130000
v -0.020160 0.725280 -0.156000
v -0.046160 0.751280 -0.130000
v 0.604640 0.725280 -0.156000
v 0.630640 0.751280 -0.130000
v 0.604640 0.601760 -0.156000
v 0.630640 0.575760 -0.130000
v 0.385200 0.575760 -0.130000
v 0.385200 0.575760 0.130000
v 0.385200 -0.042000 -0.130000
v 0.385200 -0.042000 0.130000
v 0.199280 -0.042000 -0.130000
v 0.199280 -0.042000 0.130000
v 0.199280 0.575760 -0.130000
v 0.199280 0.575760 0.130000
v -0.046160 0.575760 -0.130000
v -0.046160 0.575760 0.130000
v -0.046160 0.751280 -0.130000
v -0.046160 0.751280 0.130000
v 0.630640 0.751280 -0.130000
v 0.630640 0.751280 0.130000
v 0.630640 0.575760 -0.130000
v 0.630640 0.575760 0.130000
v 0.385200 0.575760 0.130000
v 0.359200 0.601760 0.156000
v 0.385200 -0.042000 0.130000
v 0.359200 -0.016000 0.156000
v 0.199280 -0.042000 0.130000
v 0.225280 -0.016000 0.156000
v 0.199280 0.575760 0.130000
v 0.225280 0.601760 0.156000
v -0.046160 0.575760 0.130000
v -0.020160 0.601760 0.156000
v -0.046160 0.751280 0.130000
v -0.020160 0.725280 0.156000
v 0.630640 0.751280 0.130000
v 0.604640 0.725280 0.156000
v 0.630640 0.575760 0.130000
v 0.604640 0.601760 0.156000
v 0.906240 0.601760 -0.156000
v 0.932240 0.575760 -0.130000
v 0.906240 0.419520 -0.156000
v 0.932240 0.445520 -0.130000
v 1.196400 0.419520 -0.156000
v 1.222400 0.445520 -0.130000
v 1.196400 0.296000 -0.156000
v 1.222400 0.270000 -0.130000
v 0.906240 0.296000 -0.156000
v 0.932240 0.270000 -0.130000
v 0.906240 0.107520 -0.156000
v 0.932240 0.133520 -0.130000
v 1.216160 0.107520 -0.156000
v 1.242160 0.133520 -0.130000
v 1.216160 -0.016000 -0.156000
v 1.242160 -0.042000 -0.130000
v 0.772320 -0.016000 -0.156000
v 0.746320 -0.042000 -0.130000
v 0.772320 0.725280 -0.156000
v 0.746320 0.751280 -0.130000
v 1.206800 0.725280 -0.156000
v 1.232800 0.751280 -0.130000
v 1.206800 0.601760 -0.156000
v 1.232800 0.575760 -0.130000
v 0.932240 0.575760 -0.130000
v 0.932240 0.575760 0.130000
v 0.932240 0.445520 -0.130000
v 0.932240 0.445520 0.130000
v 1.222400 0.445520 -0.130000
v 1.222400 0.445520 0.130000
v 1.222400 0.270000 -0.130000
v 1.222400 0.270000 0.130000
v 0.932240 0.270000 -0.130000
v 0.932240 0.270000 0.130000
v 0.932240 0.133520 -0.130000
v 0.932240 0.133520 0.130000
v 1.242160 0.133520 -0.130000
v 1.242160 0.133520 0.130000
v 1.242160 -0.042000 -0.130000
v 1.242160 -0.042000 0.130000
v 0.746320 -0.042000 -0.130000
v 0.746320 -0.042000 0.130000
v 0.746320 0.751280 -0.130000
v 0.746320 0.751280 0.130000
v 1.232800 0.751280 -0.130000
v 1.232800 0.751280 0.130000
v 1.232800 0.575760 -0.130000
v 1.232800 0.575760 0.130000
v 0.932240 0.575760 0.130000
v 0.906240 0.601760 0.156000
v 0.932240 0.445520 0.130000
v 0.906240 0.419520 0.156000
v 1.222400 0.445520 0.130000
v 1.196400 0.419520 0.156000
v 1.222400 0.270000 0.130000
v 1.196400 0.296000 0.156000
v 0.932240 0.270000 0.130000
v 0.906240 0.296000 0.156000
v 0.932240 0.133520 0.130000
v 0.906240 0.107520 0.156000
v 1.242160 0.133520 0.130000
v 1.216160 0.107520 0.156000
v 1.242160 -0.042000 0.130000
v 1.216160 -0.016000 0.156000
v 0.746320 -0.042000 0.130000
v 0.772320 -0.016000 0.156000
v 0.746320 0.751280 0.130000
v 0.772320 0.725280 0.156000
v 1.232800 0.751280 0.130000
v 1.206800 0.725280 0.156000
v 1.232800 0.575760 0.130000
v 1.206800 0.601760 0.156000
v 1.849520 0.107520 -0.156000
v 1.875520 0.133520 -0.130000
v 1.849520 -0.016000 -0.156000
v 1.875520 -0.042000 -0.130000
v 1.395280 -0.016000 -0.156000
v 1.369280 -0.042000 -0.130000
v 1.395280 0.725280 -0.156000
v 1.369280 0.751280 -0.130000
v 1.529200 0.725280 -0.156000
v 1.555200 0.751280 -0.130000
v 1.529200 0.107520 -0.156000
v 1.555200 0.133520 -0.130000
v 1.875520 0.133520 -0.130000
v 1.875520 0.133520 0.130000
v 1.875520 -0.042000 -0.130000
v 1.875520 -0.042000 0.130000
v 1.369280 -0.042000 -0.130000
v 1.369280 -0.042000 0.130000
v 1.369280 0.751280 -0.130000
v 1.369280 0.751280 0.130000
v 1.555200 0.751280 -0.130000
v 1.555200 0.751280 0.130000
v 1.555200 0.133520 -0.130000
v 1.555200 0.133520 0.130000
v 1.875520 0.133520 0.130000
v 1.849520 0.107520 0.156000
v 1.875520 -0.042000 0.130000
v 1.849520 -0.016000 0.156000
v 1.369280 -0.042000 0.130000
v 1.395280 -0.016000 0.156000
v 1.369280 0.751280 0.130000
v 1.395280 0.725280 0.156000
v 1.555200 0.751280 0.130000
v 1.529200 0.725280 0.156000
v 1.555200 0.133520 0.130000
v 1.529200 0.107520 0.156000
v -1.533384 -0.314720 -0.156000
v -1.523087 -0.288720 -0.130000
v -1.138849 -0.685344 -0.156000
v -1.100902 -0.685318 -0.130000
v -1.532331 -1.056000 -0.156000
v -1.522013 -1.082000 -0.130000
v -1.831320 -1.056000 -0.156000
v -1.857320 -1.082000 -0.130000
v -1.831320 -0.314720 -0.156000
v -1.857320 -0.288720 -0.130000
v -1.523087 -0.288720 -0.130000
v -1.523087 -0.288720 0.130000
v -1.100902 -0.685318 -0.130000
v -1.100902 -0.685318 0.130000
v -1.522013 -1.082000 -0.130000
v -1.522013 -1.082000 0.130000
v -1.857320 -1.082000 -0.130000
v -1.857320 -1.082000 0.130000
v -1.857320 -0.288720 -0.130000
v -1.857320 -0.288720 0.130000
v -1.523087 -0.288720 0.130000
v -1.533384 -0.314720 0.156000
v -1.100902 -0.685318 0.130000
v -1.138849 -0.685344 0.156000
v -1.522013 -1.082000 0.130000
v -1.532331 -1.056000 0.156000
v -1.857320 -1.082000 0.130000
v -1.831320 -1.056000 0.156000
v -1.857320 -0.288720 0.130000
v -1.831320 -0.314720 0.156000
v -1.557434 -0.932480 -0.156000
v -1.567629 -0.906480 -0.130000
v -1.290894 -0.685467 -0.156000
v -1.329332 -0.685641 -0.130000
v -1.562551 -0.438240 -0.156000
v -1.572611 -0.464240 -0.130000
v -1.697400 -0.438240 -0.156000
v -1.671400 -0.464240 -0.130000
v -1.697400 -0.932480 -0.156000
v -1.671400 -0.906480 -0.130000
v -1.567629 -0.906480 -0.130000
v -1.567629 -0.906480 0.130000
v -1.329332 -0.685641 -0.130000
v -1.329332 -0.685641 0.130000
v -1.572611 -0.464240 -0.130000
v -1.572611 -0.464240 0.130000
v -1.671400 -0.464240 -0.130000
v -1.671400 -0.464240 0.130000
v -1.671400 -0.906480 -0.130000
v -1.671400 -0.906480 0.130000
v -1.567629 -0.906480 0.130000
v -1.557434 -0.932480 0.156000
v -1.329332 -0.685641 0.130000
v -1.290894 -0.685467 0.156000
v -1.572611 -0.464240 0.130000
v -1.562551 -0.438240 0.156000
v -1.671400 -0.464240 0.130000
v -1.697400 -0.438240 0.156000
v -1.671400 -0.906480 0.130000
v -1.697400 -0.932480 0.156000
v -0.814440 -0.438240 -0.156000
v -0.788440 -0.464240 -0.130000
v -0.814440 -0.620480 -0.156000
v -0.788440 -0.594480 -0.130000
v -0.524280 -0.620480 -0.156000
v -0.498280 -0.594480 -0.130000
v -0.524280 -0.744000 -0.156000
v -0.498280 -0.770000 -0.130000
v -0.814440 -0.744000 -0.156000
v -0.788440 -0.770000 -0.130000
v -0.814440 -0.932480 -0.156000
v -0.788440 -0.906480 -0.130000
v -0.504520 -0.932480 -0.156000
v -0.478520 -0.906480 -0.130000
v -0.504520 -1.056000 -0.156000
v -0.478520 -1.082000 -0.130000
v -0.948360 -1.056000 -0.156000
v -0.974360 -1.082000 -0.130000
v -0.948360 -0.314720 -0.156000
v -0.974360 -0.288720 -0.130000
v -0.513880 -0.314720 -0.156000
v -0.487880 -0.288720 -0.130000
v -0.513880 -0.438240 -0.156000
v -0.487880 -0.464240 -0.130000
v -0.788440 -0.464240 -0.130000
v -0.788440 -0.464240 0.130000
v -0.788440 -0.594480 -0.130000
v -0.788440 -0.594480 0.130000
v -0.498280 -0.594480 -0.130000
v -0.498280 -0.594480 0.130000
v -0.498280 -0.770000 -0.130000
v -0.498280 -0.770000 0.130000
v -0.788440 -0.770000 -0.130000
v -0.788440 -0.770000 0.130000
v -0.788440 -0.906480 -0.130000
v -0.788440 -0.906480 0.130000
v -0.478520 -0.906480 -0.130000
v -0.478520 -0.906480 0.130000
v -0.478520 -1.082000 -0.130000
v -0.478520 -1.082000 0.130000
v -0.974360 -1.082000 -0.130000
v -0.974360 -1.082000 0.130000
v -0.974360 -0.288720 -0.130000
v -0.974360 -0.288720 0.130000
v -0.487880 -0.288720 -0.130000
v -0.487880 -0.288720 0.130000
v -0.487880 -0.464240 -0.130000
v -0.487880 -0.464240 0.130000
v -0.788440 -0.464240 0.130000
v -0.814440 -0.438240 0.156000
v -0.788440 -0.594480 0.130000
v -0.814440 -0.620480 0.156000
v -0.498280 -0.594480 0.130000
v -0.524280 -0.620480 0.156000
v -0.498280 -0.770000 0.130000
v -0.524280 -0.744000 0.156000
v -0.788440 -0.770000 0.130000
v -0.814440 -0.744000 0.156000
v -0.788440 -0.906480 0.130000
v -0.814440 -0.932480 0.156000
v -0.478520 -0.906480 0.130000
v -0.504520 -0.932480 0.156000
v -0.478520 -1.082000 0.130000
v -0.504520 -1.056000 0.156000
v -0.974360 -1.082000 0.130000
v -0.948360 -1.056000 0.156000
v -0.974360 -0.288720 0.130000
v -0.948360 -0.314720 0.156000
v -0.487880 -0.288720 0.130000
v -0.513880 -0.314720 0.156000
v -0.487880 -0.464240 0.130000
v -0.513880 -0.438240 0.156000
v 0.257410 -0.431312 -0.156000
v 0.260807 -0.461264 -0.130000
v 0.166226 -0.499700 -0.156000
v 0.203968 -0.503894 -0.130000
v 0.471717 -0.858006 -0.156000
v 0.507334 -0.859705 -0.130000
v 0.255339 -1.067586 -0.156000
v 0.262131 -1.097205 -0.130000
v 0.036520 -0.995410 -0.156000
v 0.010520 -1.014212 -0.130000
v 0.036520 -0.827820 -0.156000
v 0.010520 -0.783847 -0.130000
v 0.238225 -0.938758 -0.156000
v 0.235796 -0.907749 -0.130000
v 0.332068 -0.866051 -0.156000
v 0.294543 -0.862233 -0.130000
v 0.025926 -0.509059 -0.156000
v -0.010528 -0.506490 -0.130000
v 0.259852 -0.303385 -0.156000
v 0.253698 -0.274176 -0.130000
v 0.437720 -0.359554 -0.156000
v 0.463720 -0.340499 -0.130000
v 0.437720 -0.511325 -0.156000
v 0.463720 -0.551307 -0.130000
v 0.260807 -0.461264 -0.130000
v 0.260807 -0.461264 0.130000
v 0.203968 -0.503894 -0.130000
v 0.203968 -0.503894 0.130000
v 0.507334 -0.859705 -0.130000
v 0.507334 -0.859705 0.130000
v 0.262131 -1.097205 -0.130000
v 0.262131 -1.097205 0.130000
v 0.010520 -1.014212 -0.130000
v 0.010520 -1.014212 0.130000
v 0.010520 -0.783847 -0.130000
v 0.010520 -0.783847 0.130000
v 0.235796 -0.907749 -0.130000
v 0.235796 -0.907749 0.130000
v 0.294543 -0.862233 -0.130000
v 0.294543 -0.862233 0.130000
v -0.010528 -0.506490 -0.130000
v -0.010528 -0.506490 0.130000
v 0.253698 -0.274176 -0.130000
v 0.253698 -0.274176 0.130000
v 0.463720 -0.340499 -0.130000
v 0.463720 -0.340499 0.130000
v 0.463720 -0.551307 -0.130000
v 0.463720 -0.551307 0.130000
v 0.260807 -0.461264 0.130000
v 0.257410 -0.431312 0.156000
v 0.203968 -0.503894 0.130000
v 0.166226 -0.499700 0.156000
v 0.507334 -0.859705 0.130000
v 0.471717 -0.858006 0.156000
v 0.262131 -1.097205 0.130000
v 0.255339 -1.067586 0.156000
v 0.010520 -1.014212 0.130000
v 0.036520 -0.995410 0.156000
v 0.010520 -0.783847 0.130000
v 0.036520 -0.827820 0.156000
v 0.235796 -0.907749 0.130000
v 0.238225 -0.938758 0.156000
v 0.294543 -0.862233 0.130000
v 0.332068 -0.866051 0.156000
v -0.010528 -0.506490 0.130000
v 0.025926 -0.509059 0.156000
v 0.253698 -0.274176 0.130000
v 0.259852 -0.303385 0.156000
v 0.463720 -0.340499 0.130000
v 0.437720 -0.359554 0.156000
v 0.463720 -0.551307 0.130000
v 0.437720 -0.511325 0.156000
v 1.166440 -1.056000 -0.156000
v 1.149671 -1.082000 -0.130000
v 1.071800 -0.846960 -0.156000
v 1.055031 -0.872960 -0.130000
v 0.791077 -0.846960 -0.156000
v 0.808233 -0.872960 -0.130000
v 0.701637 -1.056000 -0.156000
v 0.718793 -1.082000 -0.130000
v 0.562848 -1.056000 -0.156000
v 0.523470 -1.082000 -0.130000
v 0.881235 -0.310560 -0.156000
v 0.864068 -0.284560 -0.130000
v 0.973956 -0.310560 -0.156000
v 0.990850 -0.284560 -0.130000
v 1.305384 -1.056000 -0.156000
v 1.345397 -1.082000 -0.130000
v 1.149671 -1.082000 -0.130000
v 1.149671 -1.082000 0.130000
v 1.055031 -0.872960 -0.130000
v 1.055031 -0.872960 0.130000
v 0.808233 -0.872960 -0.130000
v 0.808233 -0.872960 0.130000
v 0.718793 -1.082000 -0.130000
v 0.718793 -1.082000 0.130000
v 0.523470 -1.082000 -0.130000
v 0.523470 -1.082000 0.130000
v 0.864068 -0.284560 -0.130000
v 0.864068 -0.284560 0.130000
v 0.990850 -0.284560 -0.130000
v 0.990850 -0.284560 0.130000
v 1.345397 -1.082000 -0.130000
v 1.345397 -1.082000 0.130000
v 1.149671 -1.082000 0.130000
v 1.166440 -1.056000 0.156000
v 1.055031 -0.872960 0.130000
v 1.071800 -0.846960 0.156000
v 0.808233 -0.872960 0.130000
v 0.791077 -0.846960 0.156000
v 0.718793 -1.082000 0.130000
v 0.701637 -1.056000 0.156000
v 0.523470 -1.082000 0.130000
v 0.562848 -1.056000 0.156000
v 0.864068 -0.284560 0.130000
v 0.881235 -0.310560 0.156000
v 0.990850 -0.284560 0.130000
v 0.973956 -0.310560 0.156000
v 1.345397 -1.082000 0.130000
v 1.305384 -1.056000 0.156000
v 1.015879 -0.723440 -0.156000
v 0.975839 -0.697440 -0.130000
v 0.926675 -0.523135 -0.156000
v 0.927576 -0.589069 -0.130000
v 0.843958 -0.723440 -0.156000
v 0.882824 -0.697440 -0.130000
v 0.975839 -0.697440 -0.130000
v 0.975839 -0.697440 0.130000
v 0.927576 -0.589069 -0.130000
v 0.927576 -0.589069 0.130000
v 0.882824 -0.697440 -0.130000
v 0.882824 -0.697440 0.130000
v 0.975839 -0.697440 0.130000
v 1.015879 -0.723440 0.156000
v 0.927576 -0.589069 0.130000
v 0.926675 -0.523135 0.156000
v 0.882824 -0.697440 0.130000
v 0.843958 -0.723440 0.156000
v 1.899960 -0.932480 -0.156000
v 1.925960 -0.906480 -0.130000
v 1.899960 -1.056000 -0.156000
v 1.925960 -1.082000 -0.130000
v 1.445720 -1.056000 -0.156000
v 1.419720 -1.082000 -0.130000
v 1.445720 -0.314720 -0.156000
v 1.419720 -0.288720 -0.130000
v 1.579640 -0.314720 -0.156000
v 1.605640 -0.288720 -0.130000
v 1.579640 -0.932480 -0.156000
v 1.605640 -0.906480 -0.130000
v 1.925960 -0.906480 -0.130000
v 1.925960 -0.906480 0.130000
v 1.925960 -1.082000 -0.130000
v 1.925960 -1.082000 0.130000
v 1.419720 -1.082000 -0.130000
v 1.419720 -1.082000 0.130000
v 1.419720 -0.288720 -0.130000
v 1.419720 -0.288720 0.130000
v 1.605640 -0.288720 -0.130000
v 1.605640 -0.288720 0.130000
v 1.605640 -0.906480 -0.130000
v 1.605640 -0.906480 0.130000
v 1.925960 -0.906480 0.130000
v 1.899960 -0.932480 0.156000
v 1.925960 -1.082000 0.130000
v 1.899960 -1.056000 0.156000
v 1.419720 -1.082000 0.130000
v 1.445720 -1.056000 0.156000
v 1.419720 -0.288720 0.130000
v 1.445720 -0.314720 0.156000
v 1.605640 -0.288720 0.130000
v 1.579640 -0.314720 0.156000
v 1.605640 -0.906480 0.130000
v 1.579640 -0.932480 0.156000
vn 0.000000 0.000000 1.000000
vn 0.000000 -0.000000 -1.000000
vn -0.408200 -0.408200 -0.816500
vn 0.408200 -0.408200 -0.816500
vn -0.408200 0.408200 -0.816500
vn 0.408200 0.408200 -0.816500
vn -0.707100 -0.707100 0.000000
vn 0.707100 -0.707100 0.000000
vn -0.707100 0.707100 0.000000
vn 0.707100 0.707100 0.000000
vn -0.408200 -0.408200 0.816500
vn 0.408200 -0.408200 0.816500
vn -0.408200 0.408200 0.816500
vn 0.408200 0.408200 0.816500
vn 0.567400 -0.000800 -0.823400
vn -0.002000 -0.586000 -0.810300
vn -0.569100 0.000800 -0.822300
vn -0.000400 0.586000 -0.810300
vn 1.000000 -0.001300 0.000000
vn -0.003400 -1.000000 0.000000
vn -1.000000 0.001300 0.000000
vn -0.000700 1.000000 0.000000
vn 0.567400 -0.000800 0.823400
vn -0.002000 -0.586000 0.810300
vn -0.569100 0.000800 0.822300
vn -0.000400 0.586000 0.810300
vn -0.572900 0.000000 -0.819600
vn 0.000500 -0.581300 -0.813700
vn 0.573600 0.000000 -0.819100
vn 0.000500 0.581300 -0.813700
vn -1.000000 0.000000 0.000000
vn 0.000900 -1.000000 0.000000
vn 1.000000 0.000000 0.000000
vn 0.000900 1.000000 0.000000
vn -0.572900 0.000000 0.819600
vn 0.000500 -0.581300 0.813700
vn 0.573600 0.000000 0.819100
vn 0.000500 0.581300 0.813700
vn 0.250700 0.633000 -0.732400
vn 0.565200 0.000400 -0.824900
vn 0.251100 -0.632800 -0.732400
vn 0.368200 0.929700 0.000000
vn 1.000000 0.000700 0.000000
vn 0.368800 -0.929500 0.000000
vn 0.250700 0.633000 0.732400
vn 0.565200 0.000400 0.824900
vn 0.251100 -0.632800 0.732400
vn -0.248700 0.634400 -0.731900
vn -0.560300 -0.002500 -0.828300
vn -0.246100 -0.636100 -0.731300
vn -0.365000 0.931000 0.000000
vn -1.000000 -0.004500 0.000000
vn -0.360800 -0.932600 0.000000
vn -0.248700 0.634400 0.731900
vn -0.560300 -0.002500 0.828300
vn -0.246100 -0.636100 0.731300
vn 0.073600 -0.648900 -0.757200
vn 0.561500 -0.062400 -0.825100
vn 0.588500 -0.028100 -0.808000
vn 0.145300 -0.633700 -0.759800
vn -0.510100 -0.368900 -0.776900
vn -0.230800 0.390400 -0.891200
vn -0.050100 0.639400 -0.767200
vn -0.564600 0.057400 -0.823300
vn -0.578300 0.040700 -0.814800
vn -0.135400 0.642700 -0.754100
vn 0.506400 0.371100 -0.778300
vn 0.260900 -0.401300 -0.878000
vn 0.112700 -0.993600 0.000000
vn 0.993900 -0.110400 0.000000
vn 0.998800 -0.047600 0.000000
vn 0.223500 -0.974700 0.000000
vn -0.810300 -0.586000 0.000000
vn -0.509000 0.860800 0.000000
vn -0.078100 0.996900 0.000000
vn -0.994800 0.101200 0.000000
vn -0.997500 0.070300 0.000000
vn -0.206200 0.978500 0.000000
vn 0.806600 0.591100 0.000000
vn 0.545200 -0.838300 0.000000
vn 0.073600 -0.648900 0.757200
vn 0.561500 -0.062400 0.825100
vn 0.588500 -0.028100 0.808000
vn 0.145300 -0.633700 0.759800
vn -0.510100 -0.368900 0.776900
vn -0.230800 0.390400 0.891200
vn -0.050100 0.639400 0.767200
vn -0.564600 0.057400 0.823300
vn -0.578300 0.040700 0.814800
vn -0.135400 0.642700 0.754100
vn 0.506400 0.371100 0.778300
vn 0.260900 -0.401300 0.878000
vn -0.348700 -0.540600 -0.765600
vn 0.352900 -0.534800 -0.767700
vn -0.402700 -0.265900 -0.875800
vn -0.353000 0.534700 -0.767800
vn 0.350100 0.538800 -0.766300
vn 0.401200 -0.260700 -0.878100
vn -0.542000 -0.840400 0.000000
vn 0.550700 -0.834700 0.000000
vn -0.834500 -0.551000 0.000000
vn -0.551000 0.834500 0.000000
vn 0.544800 0.838500 0.000000
vn 0.838500 -0.544800 0.000000
vn -0.348700 -0.540600 0.765600
vn 0.352900 -0.534800 0.767700
vn -0.402700 -0.265900 0.875800
vn -0.353000 0.534700 0.767800
vn 0.350100 0.538800 0.766300
vn 0.401200 -0.260700 0.878100
vn -0.401100 0.260400 -0.878200
vn 0.005000 -0.366800 -0.930300
vn 0.403900 0.270200 -0.874000
vn -0.838700 0.544600 0.000000
vn 0.013700 -0.999900 0.000000
vn 0.831100 0.556000 0.000000
vn -0.401100 0.260400 0.878200
vn 0.005000 -0.366800 0.930300
vn 0.403900 0.270200 0.874000
usemtl None
s off
f 3//1 5//1 4//1
f 3//1 6//1 5//1
f 3//1 1//1 6//1
f 3//1 2//1 1//1
f 11//1 13//1 12//1
f 11//1 16//1 13//1
f 16//1 14//1 13//1
f 11//1 17//1 16//1
f 15//1 14//1 16//1
f 11//1 9//1 17//1
f 9//1 15//1 17//1
f 9//1 8//1 15//1
f 8//1 14//1 15//1
f 11//1 10//1 9//1
f 7//1 14//1 8//1
f 26//1 28//1 27//1
f 26//1 18//1 28//1
f 18//1 29//1 28//1
f 26//1 19//1 18//1
f 26//1 20//1 19//1
f 25//1 20//1 26//1
f 22//1 24//1 23//1
f 25//1 21//1 20//1
f 24//1 21//1 25//1
f 22//1 21//1 24//1
f 38//1 30//1 39//1
f 30//1 40//1 39//1
f 30//1 41//1 40//1
f 38//1 31//1 30//1
f 38//1 34//1 31//1
f 34//1 32//1 31//1
f 34//1 33//1 32//1
f 38//1 35//1 34//1
f 38//1 36//1 35//1
f 38//1 37//1 36//1
f 45//1 50//1 46//1
f 50//1 42//1 46//1
f 50//1 49//1 42//1
f 49//1 43//1 42//1
f 45//1 51//1 50//1
f 48//1 43//1 49//1
f 48//1 44//1 43//1
f 47//1 44//1 48//1
f 45//1 47//1 51//1
f 45//1 44//1 47//1
f 54//1 56//1 55//1
f 54//1 57//1 56//1
f 54//1 52//1 57//1
f 54//1 53//1 52//1
f 66//1 58//1 67//1
f 58//1 68//1 67//1
f 58//1 69//1 68//1
f 66//1 59//1 58//1
f 66//1 62//1 59//1
f 62//1 60//1 59//1
f 62//1 61//1 60//1
f 66//1 63//1 62//1
f 66//1 64//1 63//1
f 66//1 65//1 64//1
f 74//1 76//1 75//1
f 74//1 77//1 76//1
f 73//1 77//1 74//1
f 72//1 70//1 73//1
f 70//1 77//1 73//1
f 72//1 71//1 70//1
f 80//1 83//1 81//1
f 83//1 78//1 81//1
f 80//1 84//1 83//1
f 82//1 78//1 83//1
f 79//1 84//1 80//1
f 79//1 85//1 84//1
f 85//1 78//1 82//1
f 85//1 79//1 78//1
f 90//1 92//1 91//1
f 90//1 93//1 92//1
f 94//1 96//1 95//1
f 94//1 97//1 96//1
f 90//1 88//1 93//1
f 88//1 94//1 93//1
f 88//1 87//1 94//1
f 87//1 97//1 94//1
f 90//1 89//1 88//1
f 86//1 97//1 87//1
f 102//2 100//2 101//2
f 103//2 100//2 102//2
f 98//2 100//2 103//2
f 99//2 100//2 98//2
f 110//2 108//2 109//2
f 113//2 108//2 110//2
f 111//2 113//2 110//2
f 114//2 108//2 113//2
f 111//2 112//2 113//2
f 106//2 108//2 114//2
f 112//2 106//2 114//2
f 105//2 106//2 112//2
f 111//2 105//2 112//2
f 107//2 108//2 106//2
f 111//2 104//2 105//2
f 125//2 123//2 124//2
f 115//2 123//2 125//2
f 126//2 115//2 125//2
f 116//2 123//2 115//2
f 117//2 123//2 116//2
f 117//2 122//2 123//2
f 121//2 119//2 120//2
f 118//2 122//2 117//2
f 118//2 121//2 122//2
f 118//2 119//2 121//2
f 127//2 135//2 136//2
f 137//2 127//2 136//2
f 138//2 127//2 137//2
f 128//2 135//2 127//2
f 131//2 135//2 128//2
f 129//2 131//2 128//2
f 130//2 131//2 129//2
f 132//2 135//2 131//2
f 133//2 135//2 132//2
f 134//2 135//2 133//2
f 147//2 142//2 143//2
f 139//2 147//2 143//2
f 146//2 147//2 139//2
f 140//2 146//2 139//2
f 148//2 142//2 147//2
f 140//2 145//2 146//2
f 141//2 145//2 140//2
f 141//2 144//2 145//2
f 144//2 142//2 148//2
f 141//2 142//2 144//2
f 153//2 151//2 152//2
f 154//2 151//2 153//2
f 149//2 151//2 154//2
f 150//2 151//2 149//2
f 155//2 163//2 164//2
f 165//2 155//2 164//2
f 166//2 155//2 165//2
f 156//2 163//2 155//2
f 159//2 163//2 156//2
f 157//2 159//2 156//2
f 158//2 159//2 157//2
f 160//2 163//2 159//2
f 161//2 163//2 160//2
f 162//2 163//2 161//2
f 173//2 171//2 172//2
f 174//2 171//2 173//2
f 174//2 170//2 171//2
f 167//2 169//2 170//2
f 174//1 167//1 170//1
f 168//2 169//2 167//2
f 180//2 177//2 178//2
f 175//2 180//2 178//2
f 181//2 177//2 180//2
f 175//2 179//2 180//2
f 181//2 176//2 177//2
f 182//2 176//2 181//2
f 175//2 182//2 179//2
f 176//2 182//2 175//2
f 189//2 187//2 188//2
f 190//2 187//2 189//2
f 193//2 191//2 192//2
f 194//2 191//2 193//2
f 185//2 187//2 190//2
f 191//2 185//2 190//2
f 184//2 185//2 191//2
f 194//2 184//2 191//2
f 186//2 187//2 185//2
f 194//2 183//2 184//2
s 1
f 196//3 198//3 197//3 195//3
f 198//3 200//4 199//4 197//3
f 200//4 202//4 201//4 199//4
f 202//4 204//3 203//3 201//4
f 204//3 206//5 205//5 203//3
f 206//5 208//6 207//6 205//5
f 208//6 210//6 209//6 207//6
f 210//6 212//5 211//5 209//6
f 212//5 214//5 213//5 211//5
f 214//5 216//6 215//6 213//5
f 216//6 218//4 217//4 215//6
f 218//4 196//3 195//3 217//4
f 220//7 222//7 221//7 219//7
f 222//7 224//8 223//8 221//7
f 224//8 226//8 225//8 223//8
f 226//8 228//7 227//7 225//8
f 228//7 230//9 229//9 227//7
f 230//9 232//10 231//10 229//9
f 232//10 234//10 233//10 231//10
f 234//10 236//9 235//9 233//10
f 236//9 238//9 237//9 235//9
f 238//9 240//10 239//10 237//9
f 240//10 242//8 241//8 239//10
f 242//8 220//7 219//7 241//8
f 244//11 246//11 245//11 243//11
f 246//11 248//12 247//12 245//11
f 248//12 250//12 249//12 247//12
f 250//12 252//11 251//11 249//12
f 252//11 254//13 253//13 251//11
f 254//13 256//14 255//14 253//13
f 256//14 258//14 257//14 255//14
f 258//14 260//13 259//13 257//14
f 260//13 262//13 261//13 259//13
f 262//13 264//14 263//14 261//13
f 264//14 266//12 265//12 263//14
f 266//12 244//11 243//11 265//12
f 268//15 270//16 269//16 267//15
f 270//16 272//17 271//17 269//16
f 272//17 274//18 273//18 271//17
f 274//18 268//15 267//15 273//18
f 276//19 278//20 277//20 275//19
f 278//20 280//21 279//21 277//20
f 280//21 282//22 281//22 279//21
f 282//22 276//19 275//19 281//22
f 284//23 286//24 285//24 283//23
f 286//24 288//25 287//25 285//24
f 288//25 290//26 289//26 287//25
f 290//26 284//23 283//23 289//26
f 292//27 294//28 293//28 291//27
f 294//28 296//29 295//29 293//28
f 296//29 298//30 297//30 295//29
f 298//30 292//27 291//27 297//30
f 300//31 302//32 301//32 299//31
f 302//32 304//33 303//33 301//32
f 304//33 306//34 305//34 303//33
f 306//34 300//31 299//31 305//34
f 308//35 310//36 309//36 307//35
f 310//36 312//37 311//37 309//36
f 312//37 314//38 313//38 311//37
f 314//38 308//35 307//35 313//38
f 316//4 318//4 317//4 315//4
f 318//4 320//3 319//3 317//4
f 320//3 322//3 321//3 319//3
f 322//3 324//3 323//3 321//3
f 324//3 326//5 325//5 323//3
f 326//5 328//6 327//6 325//5
f 328//6 330//4 329//4 327//6
f 330//4 316//4 315//4 329//4
f 332//8 334//8 333//8 331//8
f 334//8 336//7 335//7 333//8
f 336//7 338//7 337//7 335//7
f 338//7 340//7 339//7 337//7
f 340//7 342//9 341//9 339//7
f 342//9 344//10 343//10 341//9
f 344//10 346//8 345//8 343//10
f 346//8 332//8 331//8 345//8
f 348//12 350//12 349//12 347//12
f 350//12 352//11 351//11 349//12
f 352//11 354//11 353//11 351//11
f 354//11 356//11 355//11 353//11
f 356//11 358//13 357//13 355//11
f 358//13 360//14 359//14 357//13
f 360//14 362//12 361//12 359//14
f 362//12 348//12 347//12 361//12
f 364//4 366//6 365//6 363//4
f 366//6 368//6 367//6 365//6
f 368//6 370//4 369//4 367//6
f 370//4 372//4 371//4 369//4
f 372//4 374//6 373//6 371//4
f 374//6 376//6 375//6 373//6
f 376//6 378//4 377//4 375//6
f 378//4 380//3 379//3 377//4
f 380//3 382//5 381//5 379//3
f 382//5 384//6 383//6 381//5
f 384//6 386//4 385//4 383//6
f 386//4 364//4 363//4 385//4
f 388//8 390//10 389//10 387//8
f 390//10 392//10 391//10 389//10
f 392//10 394//8 393//8 391//10
f 394//8 396//8 395//8 393//8
f 396//8 398//10 397//10 395//8
f 398//10 400//10 399//10 397//10
f 400//10 402//8 401//8 399//10
f 402//8 404//7 403//7 401//8
f 404//7 406//9 405//9 403//7
f 406//9 408//10 407//10 405//9
f 408//10 410//8 409//8 407//10
f 410//8 388//8 387//8 409//8
f 412//12 414//14 413//14 411//12
f 414//14 416//14 415//14 413//14
f 416//14 418//12 417//12 415//14
f 418//12 420//12 419//12 417//12
f 420//12 422//14 421//14 419//12
f 422//14 424//14 423//14 421//14
f 424//14 426//12 425//12 423//14
f 426//12 428//11 427//11 425//12
f 428//11 430//13 429//13 427//11
f 430//13 432//14 431//14 429//13
f 432//14 434//12 433//12 431//14
f 434//12 412//12 411//12 433//12
f 436//6 438//4 437//4 435//6
f 438//4 440//3 439//3 437//4
f 440//3 442//5 441//5 439//3
f 442//5 444//6 443//6 441//5
f 444//6 446//6 445//6 443//6
f 446//6 436//6 435//6 445//6
f 448//10 450//8 449//8 447//10
f 450//8 452//7 451//7 449//8
f 452//7 454//9 453//9 451//7
f 454//9 456//10 455//10 453//9
f 456//10 458//10 457//10 455//10
f 458//10 448//10 447//10 457//10
f 460//14 462//12 461//12 459//14
f 462//12 464//11 463//11 461//12
f 464//11 466//13 465//13 463//11
f 466//13 468//14 467//14 465//13
f 468//14 470//14 469//14 467//14
f 470//14 460//14 459//14 469//14
f 472//39 474//40 473//40 471//39
f 474//40 476//41 475//41 473//40
f 476//41 478//3 477//3 475//41
f 478//3 480//5 479//5 477//3
f 480//5 472//39 471//39 479//5
f 482//42 484//43 483//43 481//42
f 484//43 486//44 485//44 483//43
f 486//44 488//7 487//7 485//44
f 488//7 490//9 489//9 487//7
f 490//9 482//42 481//42 489//9
f 492//45 494//46 493//46 491//45
f 494//46 496//47 495//47 493//46
f 496//47 498//11 497//11 495//47
f 498//11 500//13 499//13 497//11
f 500//13 492//45 491//45 499//13
f 502//48 504//49 503//49 501//48
f 504//49 506//50 505//50 503//49
f 506//50 508//4 507//4 505//50
f 508//4 510//6 509//6 507//4
f 510//6 502//48 501//48 509//6
f 512//51 514//52 513//52 511//51
f 514//52 516//53 515//53 513//52
f 516//53 518//8 517//8 515//53
f 518//8 520//10 519//10 517//8
f 520//10 512//51 511//51 519//10
f 522//54 524//55 523//55 521//54
f 524//55 526//56 525//56 523//55
f 526//56 528//12 527//12 525//56
f 528//12 530//14 529//14 527//12
f 530//14 522//54 521//54 529//14
f 532//4 534//6 533//6 531//4
f 534//6 536//6 535//6 533//6
f 536//6 538//4 537//4 535//6
f 538//4 540//4 539//4 537//4
f 540//4 542//6 541//6 539//4
f 542//6 544//6 543//6 541//6
f 544//6 546//4 545//4 543//6
f 546//4 548//3 547//3 545//4
f 548//3 550//5 549//5 547//3
f 550//5 552//6 551//6 549//5
f 552//6 554//4 553//4 551//6
f 554//4 532//4 531//4 553//4
f 556//8 558//10 557//10 555//8
f 558//10 560//10 559//10 557//10
f 560//10 562//8 561//8 559//10
f 562//8 564//8 563//8 561//8
f 564//8 566//10 565//10 563//8
f 566//10 568//10 567//10 565//10
f 568//10 570//8 569//8 567//10
f 570//8 572//7 571//7 569//8
f 572//7 574//9 573//9 571//7
f 574//9 576//10 575//10 573//9
f 576//10 578//8 577//8 575//10
f 578//8 556//8 555//8 577//8
f 580//12 582//14 581//14 579//12
f 582//14 584//14 583//14 581//14
f 584//14 586//12 585//12 583//14
f 586//12 588//12 587//12 585//12
f 588//12 590//14 589//14 587//12
f 590//14 592//14 591//14 589//14
f 592//14 594//12 593//12 591//14
f 594//12 596//11 595//11 593//12
f 596//11 598//13 597//13 595//11
f 598//13 600//14 599//14 597//13
f 600//14 602//12 601//12 599//14
f 602//12 580//12 579//12 601//12
f 604//57 606//58 605//58 603//57
f 606//58 608//59 607//59 605//58
f 608//59 610//60 609//60 607//59
f 610//60 612//61 611//61 609//60
f 612//61 614//62 613//62 611//61
f 614//62 616//63 615//63 613//62
f 616//63 618//64 617//64 615//63
f 618//64 620//65 619//65 617//64
f 620//65 622//66 621//66 619//65
f 622//66 624//67 623//67 621//66
f 624//67 626//68 625//68 623//67
f 626//68 604//57 603//57 625//68
f 628//69 630//70 629//70 627//69
f 630//70 632//71 631//71 629//70
f 632//71 634//72 633//72 631//71
f 634//72 636//73 635//73 633//72
f 636//73 638//74 637//74 635//73
f 638//74 640//75 639//75 637//74
f 640//75 642//76 641//76 639//75
f 642//76 644//77 643//77 641//76
f 644//77 646//78 645//78 643//77
f 646//78 648//79 647//79 645//78
f 648//79 650//80 649//80 647//79
f 650//80 628//69 627//69 649//80
f 652//81 654//82 653//82 651//81
f 654//82 656//83 655//83 653//82
f 656//83 658//84 657//84 655//83
f 658//84 660//85 659//85 657//84
f 660//85 662//86 661//86 659//85
f 662//86 664//87 663//87 661//86
f 664//87 666//88 665//88 663//87
f 666//88 668//89 667//89 665//88
f 668//89 670//90 669//90 667//89
f 670//90 672//91 671//91 669//90
f 672//91 674//92 673//92 671//91
f 674//92 652//81 651//81 673//92
f 676//93 678//93 677//93 675//93
f 678//93 680//94 679//94 677//93
f 680//94 682//94 681//94 679//94
f 682//94 684//95 683//95 681//94
f 684//95 686//96 685//96 683//95
f 686//96 688//97 687//97 685//96
f 688//97 690//98 689//98 687//97
f 690//98 676//93 675//93 689//98
f 692//99 694//99 693//99 691//99
f 694//99 696//100 695//100 693//99
f 696//100 698//100 697//100 695//100
f 698//100 700//101 699//101 697//100
f 700//101 702//102 701//102 699//101
f 702//102 704//103 703//103 701//102
f 704//103 706//104 705//104 703//103
f 706//104 692//99 691//99 705//104
f 708//105 710//105 709//105 707//105
f 710//105 712//106 711//106 709//105
f 712//106 714//106 713//106 711//106
f 714//106 716//107 715//107 713//106
f 716//107 718//108 717//108 715//107
f 718//108 720//109 719//109 717//108
f 720//109 722//110 721//110 719//109
f 722//110 708//105 707//105 721//110
f 724//111 726//112 725//112 723//111
f 726//112 728//113 727//113 725//112
f 728//113 724//111 723//111 727//113
f 730//114 732//115 731//115 729//114
f 732//115 734//116 733//116 731//115
f 734//116 730//114 729//114 733//116
f 736//117 738//118 737//118 735//117
f 738//118 740//119 739//119 737//118
f 740//119 736//117 735//117 739//119
f 742//6 744//4 743//4 741//6
f 744//4 746//3 745//3 743//4
f 746//3 748//5 747//5 745//3
f 748//5 750//6 749//6 747//5
f 750//6 752//6 751//6 749//6
f 752//6 742//6 741//6 751//6
f 754//10 756//8 755//8 753//10
f 756//8 758//7 757//7 755//8
f 758//7 760//9 759//9 757//7
f 760//9 762//10 761//10 759//9
f 762//10 764//10 763//10 761//10
f 764//10 754//10 753//10 763//10
f 766//14 768//12 767//12 765//14
f 768//12 770//11 769//11 767//12
f 770//11 772//13 771//13 769//11
f 772//13 774//14 773//14 771//13
f 774//14 776//14 775//14 773//14
f 776//14 766//14 765//14 775//14
