# Blender v2.75 (sub 0) OBJ File: 'letras.blend'
# www.blender.org
mtllib letras_volcan_tunupa.mtl
o Text_Textdafd
v 2.214240 -1.056000 0.156000
v 2.119600 -0.846960 0.156000
v 1.838877 -0.846960 0.156000
v 1.749437 -1.056000 0.156000
v 1.610648 -1.056000 0.156000
v 1.929035 -0.310560 0.156000
v 2.021756 -0.310560 0.156000
v 2.353184 -1.056000 0.156000
v 2.063679 -0.723440 0.156000
v 1.974475 -0.523135 0.156000
v 1.891758 -0.723440 0.156000
v 1.544913 -0.535068 0.156000
v 1.287057 -0.749200 0.156000
v 1.191200 -0.749200 0.156000
v 1.191200 -1.056000 0.156000
v 1.057280 -1.056000 0.156000
v 1.057280 -0.314720 0.156000
v 1.300956 -0.314720 0.156000
v 1.284542 -0.625680 0.156000
v 1.391435 -0.530367 0.156000
v 1.288678 -0.438240 0.156000
v 1.191200 -0.438240 0.156000
v 1.191200 -0.625680 0.156000
v 0.518808 -1.071177 0.156000
v 0.207600 -0.778598 0.156000
v 0.207600 -0.314720 0.156000
v 0.341520 -0.314720 0.156000
v 0.341520 -0.747545 0.156000
v 0.381315 -0.883430 0.156000
v 0.521421 -0.938710 0.156000
v 0.674373 -0.886133 0.156000
v 0.716160 -0.741337 0.156000
v 0.716160 -0.314720 0.156000
v 0.850080 -0.314720 0.156000
v 0.850080 -0.768331 0.156000
v -0.116496 -1.056000 0.156000
v -0.567440 -0.536821 0.156000
v -0.567440 -1.056000 0.156000
v -0.695120 -1.056000 0.156000
v -0.695120 -0.314720 0.156000
v -0.590740 -0.314720 0.156000
v -0.133520 -0.837257 0.156000
v -0.133520 -0.314720 0.156000
v -0.005840 -0.314720 0.156000
v -0.005840 -1.056000 0.156000
v -1.237752 -1.071177 0.156000
v -1.548960 -0.778598 0.156000
v -1.548960 -0.314720 0.156000
v -1.415040 -0.314720 0.156000
v -1.415040 -0.747545 0.156000
v -1.375245 -0.883430 0.156000
v -1.235139 -0.938710 0.156000
v -1.082187 -0.886133 0.156000
v -1.040400 -0.741337 0.156000
v -1.040400 -0.314720 0.156000
v -0.906480 -0.314720 0.156000
v -0.906480 -0.768331 0.156000
v -1.947520 -0.438240 0.156000
v -1.947520 -1.056000 0.156000
v -2.081440 -1.056000 0.156000
v -2.081440 -0.438240 0.156000
v -2.326880 -0.438240 0.156000
v -2.326880 -0.314720 0.156000
v -1.702080 -0.314720 0.156000
v -1.702080 -0.438240 0.156000
v 2.205304 -0.016000 0.156000
v 1.754360 0.503179 0.156000
v 1.754360 -0.016000 0.156000
v 1.626680 -0.016000 0.156000
v 1.626680 0.725280 0.156000
v 1.731060 0.725280 0.156000
v 2.188280 0.202743 0.156000
v 2.188280 0.725280 0.156000
v 2.315960 0.725280 0.156000
v 2.315960 -0.016000 0.156000
v 1.122284 0.740080 0.156000
v 1.032284 0.740080 0.156000
v 1.116549 0.924960 0.156000
v 1.263145 0.924960 0.156000
v 1.347400 -0.016000 0.156000
v 1.252760 0.193040 0.156000
v 0.972037 0.193040 0.156000
v 0.882597 -0.016000 0.156000
v 0.743808 -0.016000 0.156000
v 1.062195 0.729440 0.156000
v 1.154916 0.729440 0.156000
v 1.486344 -0.016000 0.156000
v 1.196839 0.316560 0.156000
v 1.107635 0.516865 0.156000
v 1.024918 0.316560 0.156000
v 0.369888 0.607018 0.156000
v 0.105924 0.353729 0.156000
v 0.373781 0.102371 0.156000
v 0.633240 0.186313 0.156000
v 0.633240 0.040461 0.156000
v 0.355802 -0.026933 0.156000
v -0.045680 0.344002 0.156000
v 0.361811 0.736238 0.156000
v 0.625960 0.673023 0.156000
v 0.625960 0.529652 0.156000
v -0.170680 0.107520 0.156000
v -0.170680 -0.016000 0.156000
v -0.624920 -0.016000 0.156000
v -0.624920 0.725280 0.156000
v -0.491000 0.725280 0.156000
v -0.491000 0.107520 0.156000
v -0.813464 0.354609 0.156000
v -1.220515 -0.031484 0.156000
v -1.622118 0.354672 0.156000
v -1.218375 0.740764 0.156000
v -0.964610 0.354640 0.156000
v -1.218339 0.602646 0.156000
v -1.471114 0.354640 0.156000
v -1.218339 0.106634 0.156000
v -2.081708 -0.022240 0.156000
v -2.402230 0.725280 0.156000
v -2.265484 0.725280 0.156000
v -2.062876 0.251869 0.156000
v -1.861257 0.725280 0.156000
v -1.725725 0.725280 0.156000
v -2.039727 -0.022240 0.156000
v 2.214240 -1.056000 -0.156000
v 2.119600 -0.846960 -0.156000
v 1.838877 -0.846960 -0.156000
v 1.749437 -1.056000 -0.156000
v 1.610648 -1.056000 -0.156000
v 1.929035 -0.310560 -0.156000
v 2.021756 -0.310560 -0.156000
v 2.353184 -1.056000 -0.156000
v 2.063679 -0.723440 -0.156000
v 1.974475 -0.523135 -0.156000
v 1.891758 -0.723440 -0.156000
v 1.544913 -0.535068 -0.156000
v 1.287057 -0.749200 -0.156000
v 1.191200 -0.749200 -0.156000
v 1.191200 -1.056000 -0.156000
v 1.057280 -1.056000 -0.156000
v 1.057280 -0.314720 -0.156000
v 1.300956 -0.314720 -0.156000
v 1.284542 -0.625680 -0.156000
v 1.391435 -0.530367 -0.156000
v 1.288678 -0.438240 -0.156000
v 1.191200 -0.438240 -0.156000
v 1.191200 -0.625680 -0.156000
v 0.518808 -1.071177 -0.156000
v 0.207600 -0.778598 -0.156000
v 0.207600 -0.314720 -0.156000
v 0.341520 -0.314720 -0.156000
v 0.341520 -0.747545 -0.156000
v 0.381315 -0.883430 -0.156000
v 0.521421 -0.938710 -0.156000
v 0.674373 -0.886133 -0.156000
v 0.716160 -0.741337 -0.156000
v 0.716160 -0.314720 -0.156000
v 0.850080 -0.314720 -0.156000
v 0.850080 -0.768331 -0.156000
v -0.116496 -1.056000 -0.156000
v -0.567440 -0.536821 -0.156000
v -0.567440 -1.056000 -0.156000
v -0.695120 -1.056000 -0.156000
v -0.695120 -0.314720 -0.156000
v -0.590740 -0.314720 -0.156000
v -0.133520 -0.837257 -0.156000
v -0.133520 -0.314720 -0.156000
v -0.005840 -0.314720 -0.156000
v -0.005840 -1.056000 -0.156000
v -1.237752 -1.071177 -0.156000
v -1.548960 -0.778598 -0.156000
v -1.548960 -0.314720 -0.156000
v -1.415040 -0.314720 -0.156000
v -1.415040 -0.747545 -0.156000
v -1.375245 -0.883430 -0.156000
v -1.235139 -0.938710 -0.156000
v -1.082187 -0.886133 -0.156000
v -1.040400 -0.741337 -0.156000
v -1.040400 -0.314720 -0.156000
v -0.906480 -0.314720 -0.156000
v -0.906480 -0.768331 -0.156000
v -1.947520 -0.438240 -0.156000
v -1.947520 -1.056000 -0.156000
v -2.081440 -1.056000 -0.156000
v -2.081440 -0.438240 -0.156000
v -2.326880 -0.438240 -0.156000
v -2.326880 -0.314720 -0.156000
v -1.702080 -0.314720 -0.156000
v -1.702080 -0.438240 -0.156000
v 2.205304 -0.016000 -0.156000
v 1.754360 0.503179 -0.156000
v 1.754360 -0.016000 -0.156000
v 1.626680 -0.016000 -0.156000
v 1.626680 0.725280 -0.156000
v 1.731060 0.725280 -0.156000
v 2.188280 0.202743 -0.156000
v 2.188280 0.725280 -0.156000
v 2.315960 0.725280 -0.156000
v 2.315960 -0.016000 -0.156000
v 1.122284 0.740080 -0.156000
v 1.032284 0.740080 -0.156000
v 1.116549 0.924960 -0.156000
v 1.263145 0.924960 -0.156000
v 1.347400 -0.016000 -0.156000
v 1.252760 0.193040 -0.156000
v 0.972037 0.193040 -0.156000
v 0.882597 -0.016000 -0.156000
v 0.743808 -0.016000 -0.156000
v 1.062195 0.729440 -0.156000
v 1.154916 0.729440 -0.156000
v 1.486344 -0.016000 -0.156000
v 1.196839 0.316560 -0.156000
v 1.107635 0.516865 -0.156000
v 1.024918 0.316560 -0.156000
v 0.369888 0.607018 -0.156000
v 0.105924 0.353729 -0.156000
v 0.373781 0.102371 -0.156000
v 0.633240 0.186313 -0.156000
v 0.633240 0.040461 -0.156000
v 0.355802 -0.026933 -0.156000
v -0.045680 0.344002 -0.156000
v 0.361811 0.736238 -0.156000
v 0.625960 0.673023 -0.156000
v 0.625960 0.529652 -0.156000
v -0.170680 0.107520 -0.156000
v -0.170680 -0.016000 -0.156000
v -0.624920 -0.016000 -0.156000
v -0.624920 0.725280 -0.156000
v -0.491000 0.725280 -0.156000
v -0.491000 0.107520 -0.156000
v -0.813464 0.354609 -0.156000
v -1.220515 -0.031484 -0.156000
v -1.622118 0.354672 -0.156000
v -1.218375 0.740764 -0.156000
v -0.964610 0.354640 -0.156000
v -1.218339 0.602646 -0.156000
v -1.471114 0.354640 -0.156000
v -1.218339 0.106634 -0.156000
v -2.081708 -0.022240 -0.156000
v -2.402230 0.725280 -0.156000
v -2.265484 0.725280 -0.156000
v -2.062876 0.251869 -0.156000
v -1.861257 0.725280 -0.156000
v -1.725725 0.725280 -0.156000
v -2.039727 -0.022240 -0.156000
v -2.081708 -0.022240 -0.156000
v -2.098850 -0.048240 -0.130000
v -2.402230 0.725280 -0.156000
v -2.441667 0.751280 -0.130000
v -2.265484 0.725280 -0.156000
v -2.248330 0.751280 -0.130000
v -2.062876 0.251869 -0.156000
v -2.062935 0.318087 -0.130000
v -1.861257 0.725280 -0.156000
v -1.878443 0.751280 -0.130000
v -1.725725 0.725280 -0.156000
v -1.686603 0.751280 -0.130000
v -2.039727 -0.022240 -0.156000
v -2.022448 -0.048240 -0.130000
v -2.098850 -0.048240 -0.130000
v -2.098850 -0.048240 0.130000
v -2.441667 0.751280 -0.130000
v -2.441667 0.751280 0.130000
v -2.248330 0.751280 -0.130000
v -2.248330 0.751280 0.130000
v -2.062935 0.318087 -0.130000
v -2.062935 0.318087 0.130000
v -1.878443 0.751280 -0.130000
v -1.878443 0.751280 0.130000
v -1.686603 0.751280 -0.130000
v -1.686603 0.751280 0.130000
v -2.022448 -0.048240 -0.130000
v -2.022448 -0.048240 0.130000
v -2.098850 -0.048240 0.130000
v -2.081708 -0.022240 0.156000
v -2.441667 0.751280 0.130000
v -2.402230 0.725280 0.156000
v -2.248330 0.751280 0.130000
v -2.265484 0.725280 0.156000
v -2.062935 0.318087 0.130000
v -2.062876 0.251869 0.156000
v -1.878443 0.751280 0.130000
v -1.861257 0.725280 0.156000
v -1.686603 0.751280 0.130000
v -1.725725 0.725280 0.156000
v -2.022448 -0.048240 0.130000
v -2.039727 -0.022240 0.156000
v -0.813464 0.354609 -0.156000
v -0.775737 0.354557 -0.130000
v -1.220515 -0.031484 -0.156000
v -1.220638 -0.067436 -0.130000
v -1.622118 0.354672 -0.156000
v -1.659683 0.354723 -0.130000
v -1.218375 0.740764 -0.156000
v -1.218400 0.776715 -0.130000
v -0.775737 0.354557 -0.130000
v -0.775737 0.354557 0.130000
v -1.220638 -0.067436 -0.130000
v -1.220638 -0.067436 0.130000
v -1.659683 0.354723 -0.130000
v -1.659683 0.354723 0.130000
v -1.218400 0.776715 -0.130000
v -1.218400 0.776715 0.130000
v -0.775737 0.354557 0.130000
v -0.813464 0.354609 0.156000
v -1.220638 -0.067436 0.130000
v -1.220515 -0.031484 0.156000
v -1.659683 0.354723 0.130000
v -1.622118 0.354672 0.156000
v -1.218400 0.776715 0.130000
v -1.218375 0.740764 0.156000
v -0.964610 0.354640 -0.156000
v -1.001806 0.354640 -0.130000
v -1.218339 0.602646 -0.156000
v -1.218305 0.566255 -0.130000
v -1.471114 0.354640 -0.156000
v -1.433989 0.354640 -0.130000
v -1.218339 0.106634 -0.156000
v -1.218305 0.143025 -0.130000
v -1.001806 0.354640 -0.130000
v -1.001806 0.354640 0.130000
v -1.218305 0.566255 -0.130000
v -1.218305 0.566255 0.130000
v -1.433989 0.354640 -0.130000
v -1.433989 0.354640 0.130000
v -1.218305 0.143025 -0.130000
v -1.218305 0.143025 0.130000
v -1.001806 0.354640 0.130000
v -0.964610 0.354640 0.156000
v -1.218305 0.566255 0.130000
v -1.218339 0.602646 0.156000
v -1.433989 0.354640 0.130000
v -1.471114 0.354640 0.156000
v -1.218305 0.143025 0.130000
v -1.218339 0.106634 0.156000
v -0.170680 0.107520 -0.156000
v -0.144680 0.133520 -0.130000
v -0.170680 -0.016000 -0.156000
v -0.144680 -0.042000 -0.130000
v -0.624920 -0.016000 -0.156000
v -0.650920 -0.042000 -0.130000
v -0.624920 0.725280 -0.156000
v -0.650920 0.751280 -0.130000
v -0.491000 0.725280 -0.156000
v -0.465000 0.751280 -0.130000
v -0.491000 0.107520 -0.156000
v -0.465000 0.133520 -0.130000
v -0.144680 0.133520 -0.130000
v -0.144680 0.133520 0.130000
v -0.144680 -0.042000 -0.130000
v -0.144680 -0.042000 0.130000
v -0.650920 -0.042000 -0.130000
v -0.650920 -0.042000 0.130000
v -0.650920 0.751280 -0.130000
v -0.650920 0.751280 0.130000
v -0.465000 0.751280 -0.130000
v -0.465000 0.751280 0.130000
v -0.465000 0.133520 -0.130000
v -0.465000 0.133520 0.130000
v -0.144680 0.133520 0.130000
v -0.170680 0.107520 0.156000
v -0.144680 -0.042000 0.130000
v -0.170680 -0.016000 0.156000
v -0.650920 -0.042000 0.130000
v -0.624920 -0.016000 0.156000
v -0.650920 0.751280 0.130000
v -0.624920 0.725280 0.156000
v -0.465000 0.751280 0.130000
v -0.491000 0.725280 0.156000
v -0.465000 0.133520 0.130000
v -0.491000 0.107520 0.156000
v 0.369888 0.607018 -0.156000
v 0.376920 0.577733 -0.130000
v 0.105924 0.353729 -0.156000
v 0.143695 0.353940 -0.130000
v 0.373781 0.102371 -0.156000
v 0.380381 0.131833 -0.130000
v 0.633240 0.186313 -0.156000
v 0.659240 0.222052 -0.130000
v 0.633240 0.040461 -0.156000
v 0.659240 0.020021 -0.130000
v 0.355802 -0.026933 -0.156000
v 0.348395 -0.055488 -0.130000
v -0.045680 0.344002 -0.156000
v -0.083574 0.343614 -0.130000
v 0.361811 0.736238 -0.156000
v 0.354028 0.764835 -0.130000
v 0.625960 0.673023 -0.156000
v 0.651960 0.693535 -0.130000
v 0.625960 0.529652 -0.156000
v 0.651960 0.494636 -0.130000
v 0.376920 0.577733 -0.130000
v 0.376920 0.577733 0.130000
v 0.143695 0.353940 -0.130000
v 0.143695 0.353940 0.130000
v 0.380381 0.131833 -0.130000
v 0.380381 0.131833 0.130000
v 0.659240 0.222052 -0.130000
v 0.659240 0.222052 0.130000
v 0.659240 0.020021 -0.130000
v 0.659240 0.020021 0.130000
v 0.348395 -0.055488 -0.130000
v 0.348395 -0.055488 0.130000
v -0.083574 0.343614 -0.130000
v -0.083574 0.343614 0.130000
v 0.354028 0.764835 -0.130000
v 0.354028 0.764835 0.130000
v 0.651960 0.693535 -0.130000
v 0.651960 0.693535 0.130000
v 0.651960 0.494636 -0.130000
v 0.651960 0.494636 0.130000
v 0.376920 0.577733 0.130000
v 0.369888 0.607018 0.156000
v 0.143695 0.353940 0.130000
v 0.105924 0.353729 0.156000
v 0.380381 0.131833 0.130000
v 0.373781 0.102371 0.156000
v 0.659240 0.222052 0.130000
v 0.633240 0.186313 0.156000
v 0.659240 0.020021 0.130000
v 0.633240 0.040461 0.156000
v 0.348395 -0.055488 0.130000
v 0.355802 -0.026933 0.156000
v -0.083574 0.343614 0.130000
v -0.045680 0.344002 0.156000
v 0.354028 0.764835 0.130000
v 0.361811 0.736238 0.156000
v 0.651960 0.693535 0.130000
v 0.625960 0.673023 0.156000
v 0.651960 0.494636 0.130000
v 0.625960 0.529652 0.156000
v 1.347400 -0.016000 -0.156000
v 1.330631 -0.042000 -0.130000
v 1.252760 0.193040 -0.156000
v 1.235991 0.167040 -0.130000
v 0.972037 0.193040 -0.156000
v 0.989193 0.167040 -0.130000
v 0.882597 -0.016000 -0.156000
v 0.899753 -0.042000 -0.130000
v 0.743808 -0.016000 -0.156000
v 0.704430 -0.042000 -0.130000
v 1.062195 0.729440 -0.156000
v 1.045028 0.755440 -0.130000
v 1.154916 0.729440 -0.156000
v 1.171811 0.755440 -0.130000
v 1.486344 -0.016000 -0.156000
v 1.526358 -0.042000 -0.130000
v 1.330631 -0.042000 -0.130000
v 1.330631 -0.042000 0.130000
v 1.235991 0.167040 -0.130000
v 1.235991 0.167040 0.130000
v 0.989193 0.167040 -0.130000
v 0.989193 0.167040 0.130000
v 0.899753 -0.042000 -0.130000
v 0.899753 -0.042000 0.130000
v 0.704430 -0.042000 -0.130000
v 0.704430 -0.042000 0.130000
v 1.045028 0.755440 -0.130000
v 1.045028 0.755440 0.130000
v 1.171811 0.755440 -0.130000
v 1.171811 0.755440 0.130000
v 1.526358 -0.042000 -0.130000
v 1.526358 -0.042000 0.130000
v 1.330631 -0.042000 0.130000
v 1.347400 -0.016000 0.156000
v 1.235991 0.167040 0.130000
v 1.252760 0.193040 0.156000
v 0.989193 0.167040 0.130000
v 0.972037 0.193040 0.156000
v 0.899753 -0.042000 0.130000
v 0.882597 -0.016000 0.156000
v 0.704430 -0.042000 0.130000
v 0.743808 -0.016000 0.156000
v 1.045028 0.755440 0.130000
v 1.062195 0.729440 0.156000
v 1.171811 0.755440 0.130000
v 1.154916 0.729440 0.156000
v 1.526358 -0.042000 0.130000
v 1.486344 -0.016000 0.156000
v 1.196839 0.316560 -0.156000
v 1.156799 0.342560 -0.130000
v 1.107635 0.516865 -0.156000
v 1.108536 0.450931 -0.130000
v 1.024918 0.316560 -0.156000
v 1.063784 0.342560 -0.130000
v 1.156799 0.342560 -0.130000
v 1.156799 0.342560 0.130000
v 1.108536 0.450931 -0.130000
v 1.108536 0.450931 0.130000
v 1.063784 0.342560 -0.130000
v 1.063784 0.342560 0.130000
v 1.156799 0.342560 0.130000
v 1.196839 0.316560 0.156000
v 1.108536 0.450931 0.130000
v 1.107635 0.516865 0.156000
v 1.063784 0.342560 0.130000
v 1.024918 0.316560 0.156000
v 1.122284 0.740080 -0.156000
v 1.135161 0.714080 -0.130000
v 1.032284 0.740080 -0.156000
v 0.991860 0.714080 -0.130000
v 1.116549 0.924960 -0.156000
v 1.099826 0.950960 -0.130000
v 1.263145 0.924960 -0.156000
v 1.315642 0.950960 -0.130000
v 1.135161 0.714080 -0.130000
v 1.135161 0.714080 0.130000
v 0.991860 0.714080 -0.130000
v 0.991860 0.714080 0.130000
v 1.099826 0.950960 -0.130000
v 1.099826 0.950960 0.130000
v 1.315642 0.950960 -0.130000
v 1.315642 0.950960 0.130000
v 1.135161 0.714080 0.130000
v 1.122284 0.740080 0.156000
v 0.991860 0.714080 0.130000
v 1.032284 0.740080 0.156000
v 1.099826 0.950960 0.130000
v 1.116549 0.924960 0.156000
v 1.315642 0.950960 0.130000
v 1.263145 0.924960 0.156000
v 2.205304 -0.016000 -0.156000
v 2.193449 -0.042000 -0.130000
v 1.754360 0.503179 -0.156000
v 1.780360 0.433596 -0.130000
v 1.754360 -0.016000 -0.156000
v 1.780360 -0.042000 -0.130000
v 1.626680 -0.016000 -0.156000
v 1.600680 -0.042000 -0.130000
v 1.626680 0.725280 -0.156000
v 1.600680 0.751280 -0.130000
v 1.731060 0.725280 -0.156000
v 1.742858 0.751280 -0.130000
v 2.188280 0.202743 -0.156000
v 2.162280 0.271941 -0.130000
v 2.188280 0.725280 -0.156000
v 2.162280 0.751280 -0.130000
v 2.315960 0.725280 -0.156000
v 2.341960 0.751280 -0.130000
v 2.315960 -0.016000 -0.156000
v 2.341960 -0.042000 -0.130000
v 2.193449 -0.042000 -0.130000
v 2.193449 -0.042000 0.130000
v 1.780360 0.433596 -0.130000
v 1.780360 0.433596 0.130000
v 1.780360 -0.042000 -0.130000
v 1.780360 -0.042000 0.130000
v 1.600680 -0.042000 -0.130000
v 1.600680 -0.042000 0.130000
v 1.600680 0.751280 -0.130000
v 1.600680 0.751280 0.130000
v 1.742858 0.751280 -0.130000
v 1.742858 0.751280 0.130000
v 2.162280 0.271941 -0.130000
v 2.162280 0.271941 0.130000
v 2.162280 0.751280 -0.130000
v 2.162280 0.751280 0.130000
v 2.341960 0.751280 -0.130000
v 2.341960 0.751280 0.130000
v 2.341960 -0.042000 -0.130000
v 2.341960 -0.042000 0.130000
v 2.193449 -0.042000 0.130000
v 2.205304 -0.016000 0.156000
v 1.780360 0.433596 0.130000
v 1.754360 0.503179 0.156000
v 1.780360 -0.042000 0.130000
v 1.754360 -0.016000 0.156000
v 1.600680 -0.042000 0.130000
v 1.626680 -0.016000 0.156000
v 1.600680 0.751280 0.130000
v 1.626680 0.725280 0.156000
v 1.742858 0.751280 0.130000
v 1.731060 0.725280 0.156000
v 2.162280 0.271941 0.130000
v 2.188280 0.202743 0.156000
v 2.162280 0.751280 0.130000
v 2.188280 0.725280 0.156000
v 2.341960 0.751280 0.130000
v 2.315960 0.725280 0.156000
v 2.341960 -0.042000 0.130000
v 2.315960 -0.016000 0.156000
v -1.947520 -0.438240 -0.156000
v -1.921520 -0.464240 -0.130000
v -1.947520 -1.056000 -0.156000
v -1.921520 -1.082000 -0.130000
v -2.081440 -1.056000 -0.156000
v -2.107440 -1.082000 -0.130000
v -2.081440 -0.438240 -0.156000
v -2.107440 -0.464240 -0.130000
v -2.326880 -0.438240 -0.156000
v -2.352880 -0.464240 -0.130000
v -2.326880 -0.314720 -0.156000
v -2.352880 -0.288720 -0.130000
v -1.702080 -0.314720 -0.156000
v -1.676080 -0.288720 -0.130000
v -1.702080 -0.438240 -0.156000
v -1.676080 -0.464240 -0.130000
v -1.921520 -0.464240 -0.130000
v -1.921520 -0.464240 0.130000
v -1.921520 -1.082000 -0.130000
v -1.921520 -1.082000 0.130000
v -2.107440 -1.082000 -0.130000
v -2.107440 -1.082000 0.130000
v -2.107440 -0.464240 -0.130000
v -2.107440 -0.464240 0.130000
v -2.352880 -0.464240 -0.130000
v -2.352880 -0.464240 0.130000
v -2.352880 -0.288720 -0.130000
v -2.352880 -0.288720 0.130000
v -1.676080 -0.288720 -0.130000
v -1.676080 -0.288720 0.130000
v -1.676080 -0.464240 -0.130000
v -1.676080 -0.464240 0.130000
v -1.921520 -0.464240 0.130000
v -1.947520 -0.438240 0.156000
v -1.921520 -1.082000 0.130000
v -1.947520 -1.056000 0.156000
v -2.107440 -1.082000 0.130000
v -2.081440 -1.056000 0.156000
v -2.107440 -0.464240 0.130000
v -2.081440 -0.438240 0.156000
v -2.352880 -0.464240 0.130000
v -2.326880 -0.438240 0.156000
v -2.352880 -0.288720 0.130000
v -2.326880 -0.314720 0.156000
v -1.676080 -0.288720 0.130000
v -1.702080 -0.314720 0.156000
v -1.676080 -0.464240 0.130000
v -1.702080 -0.438240 0.156000
v -1.237752 -1.071177 -0.156000
v -1.238000 -1.106631 -0.130000
v -1.548960 -0.778598 -0.156000
v -1.574960 -0.789841 -0.130000
v -1.548960 -0.314720 -0.156000
v -1.574960 -0.288720 -0.130000
v -1.415040 -0.314720 -0.156000
v -1.389040 -0.288720 -0.130000
v -1.415040 -0.747545 -0.156000
v -1.389040 -0.743816 -0.130000
v -1.375245 -0.883430 -0.156000
v -1.353869 -0.863914 -0.130000
v -1.235139 -0.938710 -0.156000
v -1.234520 -0.911004 -0.130000
v -1.082187 -0.886133 -0.156000
v -1.103420 -0.865938 -0.130000
v -1.040400 -0.741337 -0.156000
v -1.066400 -0.737661 -0.130000
v -1.040400 -0.314720 -0.156000
v -1.066400 -0.288720 -0.130000
v -0.906480 -0.314720 -0.156000
v -0.880480 -0.288720 -0.130000
v -0.906480 -0.768331 -0.156000
v -0.880480 -0.779790 -0.130000
v -1.238000 -1.106631 -0.130000
v -1.238000 -1.106631 0.130000
v -1.574960 -0.789841 -0.130000
v -1.574960 -0.789841 0.130000
v -1.574960 -0.288720 -0.130000
v -1.574960 -0.288720 0.130000
v -1.389040 -0.288720 -0.130000
v -1.389040 -0.288720 0.130000
v -1.389040 -0.743816 -0.130000
v -1.389040 -0.743816 0.130000
v -1.353869 -0.863914 -0.130000
v -1.353869 -0.863914 0.130000
v -1.234520 -0.911004 -0.130000
v -1.234520 -0.911004 0.130000
v -1.103420 -0.865938 -0.130000
v -1.103420 -0.865938 0.130000
v -1.066400 -0.737661 -0.130000
v -1.066400 -0.737661 0.130000
v -1.066400 -0.288720 -0.130000
v -1.066400 -0.288720 0.130000
v -0.880480 -0.288720 -0.130000
v -0.880480 -0.288720 0.130000
v -0.880480 -0.779790 -0.130000
v -0.880480 -0.779790 0.130000
v -1.238000 -1.106631 0.130000
v -1.237752 -1.071177 0.156000
v -1.574960 -0.789841 0.130000
v -1.548960 -0.778598 0.156000
v -1.574960 -0.288720 0.130000
v -1.548960 -0.314720 0.156000
v -1.389040 -0.288720 0.130000
v -1.415040 -0.314720 0.156000
v -1.389040 -0.743816 0.130000
v -1.415040 -0.747545 0.156000
v -1.353869 -0.863914 0.130000
v -1.375245 -0.883430 0.156000
v -1.234520 -0.911004 0.130000
v -1.235139 -0.938710 0.156000
v -1.103420 -0.865938 0.130000
v -1.082187 -0.886133 0.156000
v -1.066400 -0.737661 0.130000
v -1.040400 -0.741337 0.156000
v -1.066400 -0.288720 0.130000
v -1.040400 -0.314720 0.156000
v -0.880480 -0.288720 0.130000
v -0.906480 -0.314720 0.156000
v -0.880480 -0.779790 0.130000
v -0.906480 -0.768331 0.156000
v -0.116496 -1.056000 -0.156000
v -0.128351 -1.082000 -0.130000
v -0.567440 -0.536821 -0.156000
v -0.541440 -0.606404 -0.130000
v -0.567440 -1.056000 -0.156000
v -0.541440 -1.082000 -0.130000
v -0.695120 -1.056000 -0.156000
v -0.721120 -1.082000 -0.130000
v -0.695120 -0.314720 -0.156000
v -0.721120 -0.288720 -0.130000
v -0.590740 -0.314720 -0.156000
v -0.578942 -0.288720 -0.130000
v -0.133520 -0.837257 -0.156000
v -0.159520 -0.768059 -0.130000
v -0.133520 -0.314720 -0.156000
v -0.159520 -0.288720 -0.130000
v -0.005840 -0.314720 -0.156000
v 0.020160 -0.288720 -0.130000
v -0.005840 -1.056000 -0.156000
v 0.020160 -1.082000 -0.130000
v -0.128351 -1.082000 -0.130000
v -0.128351 -1.082000 0.130000
v -0.541440 -0.606404 -0.130000
v -0.541440 -0.606404 0.130000
v -0.541440 -1.082000 -0.130000
v -0.541440 -1.082000 0.130000
v -0.721120 -1.082000 -0.130000
v -0.721120 -1.082000 0.130000
v -0.721120 -0.288720 -0.130000
v -0.721120 -0.288720 0.130000
v -0.578942 -0.288720 -0.130000
v -0.578942 -0.288720 0.130000
v -0.159520 -0.768059 -0.130000
v -0.159520 -0.768059 0.130000
v -0.159520 -0.288720 -0.130000
v -0.159520 -0.288720 0.130000
v 0.020160 -0.288720 -0.130000
v 0.020160 -0.288720 0.130000
v 0.020160 -1.082000 -0.130000
v 0.020160 -1.082000 0.130000
v -0.128351 -1.082000 0.130000
v -0.116496 -1.056000 0.156000
v -0.541440 -0.606404 0.130000
v -0.567440 -0.536821 0.156000
v -0.541440 -1.082000 0.130000
v -0.567440 -1.056000 0.156000
v -0.721120 -1.082000 0.130000
v -0.695120 -1.056000 0.156000
v -0.721120 -0.288720 0.130000
v -0.695120 -0.314720 0.156000
v -0.578942 -0.288720 0.130000
v -0.590740 -0.314720 0.156000
v -0.159520 -0.768059 0.130000
v -0.133520 -0.837257 0.156000
v -0.159520 -0.288720 0.130000
v -0.133520 -0.314720 0.156000
v 0.020160 -0.288720 0.130000
v -0.005840 -0.314720 0.156000
v 0.020160 -1.082000 0.130000
v -0.005840 -1.056000 0.156000
v 0.518808 -1.071177 -0.156000
v 0.518560 -1.106631 -0.130000
v 0.207600 -0.778598 -0.156000
v 0.181600 -0.789841 -0.130000
v 0.207600 -0.314720 -0.156000
v 0.181600 -0.288720 -0.130000
v 0.341520 -0.314720 -0.156000
v 0.367520 -0.288720 -0.130000
v 0.341520 -0.747545 -0.156000
v 0.367520 -0.743816 -0.130000
v 0.381315 -0.883430 -0.156000
v 0.402691 -0.863914 -0.130000
v 0.521421 -0.938710 -0.156000
v 0.522040 -0.911004 -0.130000
v 0.674373 -0.886133 -0.156000
v 0.653140 -0.865938 -0.130000
v 0.716160 -0.741337 -0.156000
v 0.690160 -0.737661 -0.130000
v 0.716160 -0.314720 -0.156000
v 0.690160 -0.288720 -0.130000
v 0.850080 -0.314720 -0.156000
v 0.876080 -0.288720 -0.130000
v 0.850080 -0.768331 -0.156000
v 0.876080 -0.779790 -0.130000
v 0.518560 -1.106631 -0.130000
v 0.518560 -1.106631 0.130000
v 0.181600 -0.789841 -0.130000
v 0.181600 -0.789841 0.130000
v 0.181600 -0.288720 -0.130000
v 0.181600 -0.288720 0.130000
v 0.367520 -0.288720 -0.130000
v 0.367520 -0.288720 0.130000
v 0.367520 -0.743816 -0.130000
v 0.367520 -0.743816 0.130000
v 0.402691 -0.863914 -0.130000
v 0.402691 -0.863914 0.130000
v 0.522040 -0.911004 -0.130000
v 0.522040 -0.911004 0.130000
v 0.653140 -0.865938 -0.130000
v 0.653140 -0.865938 0.130000
v 0.690160 -0.737661 -0.130000
v 0.690160 -0.737661 0.130000
v 0.690160 -0.288720 -0.130000
v 0.690160 -0.288720 0.130000
v 0.876080 -0.288720 -0.130000
v 0.876080 -0.288720 0.130000
v 0.876080 -0.779790 -0.130000
v 0.876080 -0.779790 0.130000
v 0.518560 -1.106631 0.130000
v 0.518808 -1.071177 0.156000
v 0.181600 -0.789841 0.130000
v 0.207600 -0.778598 0.156000
v 0.181600 -0.288720 0.130000
v 0.207600 -0.314720 0.156000
v 0.367520 -0.288720 0.130000
v 0.341520 -0.314720 0.156000
v 0.367520 -0.743816 0.130000
v 0.341520 -0.747545 0.156000
v 0.402691 -0.863914 0.130000
v 0.381315 -0.883430 0.156000
v 0.522040 -0.911004 0.130000
v 0.521421 -0.938710 0.156000
v 0.653140 -0.865938 0.130000
v 0.674373 -0.886133 0.156000
v 0.690160 -0.737661 0.130000
v 0.716160 -0.741337 0.156000
v 0.690160 -0.288720 0.130000
v 0.716160 -0.314720 0.156000
v 0.876080 -0.288720 0.130000
v 0.850080 -0.314720 0.156000
v 0.876080 -0.779790 0.130000
v 0.850080 -0.768331 0.156000
v 1.544913 -0.535068 -0.156000
v 1.584616 -0.535893 -0.130000
v 1.287057 -0.749200 -0.156000
v 1.296445 -0.775200 -0.130000
v 1.191200 -0.749200 -0.156000
v 1.217200 -0.775200 -0.130000
v 1.191200 -1.056000 -0.156000
v 1.217200 -1.082000 -0.130000
v 1.057280 -1.056000 -0.156000
v 1.031280 -1.082000 -0.130000
v 1.057280 -0.314720 -0.156000
v 1.031280 -0.288720 -0.130000
v 1.300956 -0.314720 -0.156000
v 1.310960 -0.288720 -0.130000
v 1.584616 -0.535893 -0.130000
v 1.584616 -0.535893 0.130000
v 1.296445 -0.775200 -0.130000
v 1.296445 -0.775200 0.130000
v 1.217200 -0.775200 -0.130000
v 1.217200 -0.775200 0.130000
v 1.217200 -1.082000 -0.130000
v 1.217200 -1.082000 0.130000
v 1.031280 -1.082000 -0.130000
v 1.031280 -1.082000 0.130000
v 1.031280 -0.288720 -0.130000
v 1.031280 -0.288720 0.130000
v 1.310960 -0.288720 -0.130000
v 1.310960 -0.288720 0.130000
v 1.584616 -0.535893 0.130000
v 1.544913 -0.535068 0.156000
v 1.296445 -0.775200 0.130000
v 1.287057 -0.749200 0.156000
v 1.217200 -0.775200 0.130000
v 1.191200 -0.749200 0.156000
v 1.217200 -1.082000 0.130000
v 1.191200 -1.056000 0.156000
v 1.031280 -1.082000 0.130000
v 1.057280 -1.056000 0.156000
v 1.031280 -0.288720 0.130000
v 1.057280 -0.314720 0.156000
v 1.310960 -0.288720 0.130000
v 1.300956 -0.314720 0.156000
v 1.284542 -0.625680 -0.156000
v 1.274634 -0.599680 -0.130000
v 1.391435 -0.530367 -0.156000
v 1.352427 -0.530314 -0.130000
v 1.288678 -0.438240 -0.156000
v 1.278729 -0.464240 -0.130000
v 1.191200 -0.438240 -0.156000
v 1.217200 -0.464240 -0.130000
v 1.191200 -0.625680 -0.156000
v 1.217200 -0.599680 -0.130000
v 1.274634 -0.599680 -0.130000
v 1.274634 -0.599680 0.130000
v 1.352427 -0.530314 -0.130000
v 1.352427 -0.530314 0.130000
v 1.278729 -0.464240 -0.130000
v 1.278729 -0.464240 0.130000
v 1.217200 -0.464240 -0.130000
v 1.217200 -0.464240 0.130000
v 1.217200 -0.599680 -0.130000
v 1.217200 -0.599680 0.130000
v 1.274634 -0.599680 0.130000
v 1.284542 -0.625680 0.156000
v 1.352427 -0.530314 0.130000
v 1.391435 -0.530367 0.156000
v 1.278729 -0.464240 0.130000
v 1.288678 -0.438240 0.156000
v 1.217200 -0.464240 0.130000
v 1.191200 -0.438240 0.156000
v 1.217200 -0.599680 0.130000
v 1.191200 -0.625680 0.156000
v 2.214240 -1.056000 -0.156000
v 2.197471 -1.082000 -0.130000
v 2.119600 -0.846960 -0.156000
v 2.102831 -0.872960 -0.130000
v 1.838877 -0.846960 -0.156000
v 1.856033 -0.872960 -0.130000
v 1.749437 -1.056000 -0.156000
v 1.766593 -1.082000 -0.130000
v 1.610648 -1.056000 -0.156000
v 1.571271 -1.082000 -0.130000
v 1.929035 -0.310560 -0.156000
v 1.911868 -0.284560 -0.130000
v 2.021756 -0.310560 -0.156000
v 2.038651 -0.284560 -0.130000
v 2.353184 -1.056000 -0.156000
v 2.393198 -1.082000 -0.130000
v 2.197471 -1.082000 -0.130000
v 2.197471 -1.082000 0.130000
v 2.102831 -0.872960 -0.130000
v 2.102831 -0.872960 0.130000
v 1.856033 -0.872960 -0.130000
v 1.856033 -0.872960 0.130000
v 1.766593 -1.082000 -0.130000
v 1.766593 -1.082000 0.130000
v 1.571271 -1.082000 -0.130000
v 1.571271 -1.082000 0.130000
v 1.911868 -0.284560 -0.130000
v 1.911868 -0.284560 0.130000
v 2.038651 -0.284560 -0.130000
v 2.038651 -0.284560 0.130000
v 2.393198 -1.082000 -0.130000
v 2.393198 -1.082000 0.130000
v 2.197471 -1.082000 0.130000
v 2.214240 -1.056000 0.156000
v 2.102831 -0.872960 0.130000
v 2.119600 -0.846960 0.156000
v 1.856033 -0.872960 0.130000
v 1.838877 -0.846960 0.156000
v 1.766593 -1.082000 0.130000
v 1.749437 -1.056000 0.156000
v 1.571271 -1.082000 0.130000
v 1.610648 -1.056000 0.156000
v 1.911868 -0.284560 0.130000
v 1.929035 -0.310560 0.156000
v 2.038651 -0.284560 0.130000
v 2.021756 -0.310560 0.156000
v 2.393198 -1.082000 0.130000
v 2.353184 -1.056000 0.156000
v 2.063679 -0.723440 -0.156000
v 2.023639 -0.697440 -0.130000
v 1.974475 -0.523135 -0.156000
v 1.975377 -0.589069 -0.130000
v 1.891758 -0.723440 -0.156000
v 1.930624 -0.697440 -0.130000
v 2.023639 -0.697440 -0.130000
v 2.023639 -0.697440 0.130000
v 1.975377 -0.589069 -0.130000
v 1.975377 -0.589069 0.130000
v 1.930624 -0.697440 -0.130000
v 1.930624 -0.697440 0.130000
v 2.023639 -0.697440 0.130000
v 2.063679 -0.723440 0.156000
v 1.975377 -0.589069 0.130000
v 1.974475 -0.523135 0.156000
v 1.930624 -0.697440 0.130000
v 1.891758 -0.723440 0.156000
vn 0.000000 0.000000 1.000000
vn 0.000000 0.000000 -1.000000
vn -0.352700 -0.535100 -0.767600
vn -0.402600 0.265400 -0.876000
vn 0.352900 0.534900 -0.767700
vn -0.000300 0.365500 -0.930800
vn -0.353200 0.534400 -0.767900
vn 0.403300 0.268000 -0.874900
vn 0.354200 -0.533000 -0.768400
vn -0.550400 -0.834900 0.000000
vn -0.834900 0.550400 0.000000
vn 0.550700 0.834700 0.000000
vn -0.000900 1.000000 0.000000
vn -0.551400 0.834200 0.000000
vn 0.832800 0.553500 0.000000
vn 0.553500 -0.832800 0.000000
vn -0.352700 -0.535100 0.767600
vn -0.402600 0.265400 0.876000
vn 0.352900 0.534900 0.767700
vn -0.000300 0.365500 0.930800
vn -0.353200 0.534400 0.767900
vn 0.403300 0.268000 0.874900
vn 0.354200 -0.533000 0.768400
vn 0.567400 -0.000800 -0.823400
vn -0.002000 -0.586000 -0.810300
vn -0.569100 0.000800 -0.822300
vn -0.000400 0.586000 -0.810300
vn 1.000000 -0.001300 0.000000
vn -0.003400 -1.000000 0.000000
vn -1.000000 0.001300 0.000000
vn -0.000700 1.000000 0.000000
vn 0.567400 -0.000800 0.823400
vn -0.002000 -0.586000 0.810300
vn -0.569100 0.000800 0.822300
vn -0.000400 0.586000 0.810300
vn -0.572900 0.000000 -0.819600
vn 0.000500 -0.581300 -0.813700
vn 0.573600 0.000000 -0.819100
vn 0.000500 0.581300 -0.813700
vn -1.000000 0.000000 0.000000
vn 0.000900 -1.000000 0.000000
vn 1.000000 0.000000 0.000000
vn 0.000900 1.000000 0.000000
vn -0.572900 0.000000 0.819600
vn 0.000500 -0.581300 0.813700
vn 0.573600 0.000000 0.819100
vn 0.000500 0.581300 0.813700
vn 0.408200 0.408200 -0.816500
vn 0.408200 -0.408200 -0.816500
vn -0.408200 -0.408200 -0.816500
vn -0.408200 0.408200 -0.816500
vn 0.707100 0.707100 0.000000
vn 0.707100 -0.707100 0.000000
vn -0.707100 -0.707100 0.000000
vn -0.707100 0.707100 0.000000
vn 0.408200 0.408200 0.816500
vn 0.408200 -0.408200 0.816500
vn -0.408200 -0.408200 0.816500
vn -0.408200 0.408200 0.816500
vn 0.152600 -0.635400 -0.757000
vn 0.567000 0.003100 -0.823700
vn 0.142600 0.636700 -0.757700
vn 0.298300 0.410000 -0.861900
vn 0.485900 -0.381900 -0.786100
vn -0.166000 -0.640000 -0.750200
vn -0.565700 -0.005800 -0.824600
vn -0.173200 0.636300 -0.751700
vn 0.484800 0.382500 -0.786600
vn 0.305200 -0.411100 -0.858900
vn 0.233500 -0.972400 0.000000
vn 1.000000 0.005600 0.000000
vn 0.218600 0.975800 0.000000
vn 0.588300 0.808600 0.000000
vn 0.786100 -0.618000 0.000000
vn -0.251000 -0.968000 0.000000
vn -0.999900 -0.010200 0.000000
vn -0.262600 0.964900 0.000000
vn 0.785100 0.619400 0.000000
vn 0.596100 -0.802900 0.000000
vn 0.152600 -0.635400 0.757000
vn 0.567000 0.003100 0.823700
vn 0.142600 0.636700 0.757700
vn 0.298300 0.410000 0.861900
vn 0.485900 -0.381900 0.786100
vn -0.166000 -0.640000 0.750200
vn -0.565700 -0.005800 0.824600
vn -0.173200 0.636300 0.751700
vn 0.484800 0.382500 0.786600
vn 0.305200 -0.411100 0.858900
vn -0.348700 -0.540600 -0.765600
vn 0.352900 -0.534800 -0.767700
vn -0.402700 -0.265900 -0.875800
vn -0.353000 0.534700 -0.767800
vn 0.350100 0.538800 -0.766300
vn 0.401200 -0.260700 -0.878100
vn -0.542000 -0.840400 0.000000
vn 0.550700 -0.834700 0.000000
vn -0.834500 -0.551000 0.000000
vn -0.551000 0.834500 0.000000
vn 0.544800 0.838500 0.000000
vn 0.838500 -0.544800 0.000000
vn -0.348700 -0.540600 0.765600
vn 0.352900 -0.534800 0.767700
vn -0.402700 -0.265900 0.875800
vn -0.353000 0.534700 0.767800
vn 0.350100 0.538800 0.766300
vn 0.401200 -0.260700 0.878100
vn -0.401100 0.260400 -0.878200
vn 0.005000 -0.366800 -0.930300
vn 0.403900 0.270200 -0.874000
vn -0.838700 0.544600 0.000000
vn 0.013700 -0.999900 0.000000
vn 0.831100 0.556000 0.000000
vn -0.401100 0.260400 0.878200
vn 0.005000 -0.366800 0.930300
vn 0.403900 0.270200 0.874000
vn 0.296200 -0.598000 -0.744700
vn -0.400200 -0.257400 -0.879500
vn -0.348200 0.541300 -0.765300
vn 0.363500 0.180000 -0.914000
vn 0.443800 -0.896100 0.000000
vn -0.841000 -0.540900 0.000000
vn -0.540900 0.841000 0.000000
vn 0.896100 0.443800 0.000000
vn 0.296200 -0.598000 0.744700
vn -0.400200 -0.257400 0.879500
vn -0.348200 0.541300 0.765300
vn 0.363500 0.180000 0.914000
vn -0.279200 -0.612300 -0.739600
vn 0.115600 -0.309500 -0.943800
vn 0.278200 0.613100 -0.739400
vn -0.116700 0.310600 -0.943300
vn -0.414900 -0.909800 0.000000
vn 0.350000 -0.936700 0.000000
vn 0.413200 0.910600 0.000000
vn -0.351700 0.936100 0.000000
vn -0.279200 -0.612300 0.739600
vn 0.115600 -0.309500 0.943800
vn 0.278200 0.613100 0.739400
vn -0.116700 0.310600 0.943300
vn -0.004100 -0.591300 -0.806400
vn -0.620700 -0.268300 -0.736700
vn 0.696400 0.099900 -0.710700
vn 0.493500 0.450500 -0.743900
vn 0.015300 0.684000 -0.729300
vn -0.480900 0.457400 -0.748000
vn -0.696600 0.098500 -0.710600
vn 0.617800 -0.272200 -0.737700
vn -0.007000 -1.000000 0.000000
vn -0.917800 -0.396900 0.000000
vn 0.989900 0.141900 0.000000
vn 0.738500 0.674200 0.000000
vn 0.022300 0.999700 0.000000
vn -0.724600 0.689100 0.000000
vn -0.990100 0.140000 0.000000
vn 0.915100 -0.403300 0.000000
vn -0.004100 -0.591300 0.806400
vn -0.620700 -0.268300 0.736700
vn 0.696400 0.099900 0.710700
vn 0.493500 0.450500 0.743900
vn 0.015300 0.684000 0.729300
vn -0.480900 0.457400 0.748000
vn -0.696600 0.098500 0.710600
vn 0.617800 -0.272200 0.737700
vn 0.547600 -0.011400 -0.836600
vn 0.232700 -0.644400 -0.728400
vn 0.245000 0.636800 -0.731000
vn 0.999800 -0.020800 0.000000
vn 0.339600 -0.940500 0.000000
vn 0.359100 0.933300 0.000000
vn 0.547600 -0.011400 0.836600
vn 0.232700 -0.644400 0.728400
vn 0.245000 0.636800 0.731000
vn -0.243100 0.638000 -0.730600
vn -0.554600 0.000700 -0.832100
vn -0.243900 -0.637500 -0.730800
vn -0.356100 0.934400 0.000000
vn -0.357400 -0.934000 0.000000
vn -0.243100 0.638000 0.730600
vn -0.554600 0.000700 0.832100
vn -0.243900 -0.637500 0.730800
usemtl None
s off
f 5//1 7//1 6//1
f 5//1 10//1 7//1
f 10//1 8//1 7//1
f 5//1 11//1 10//1
f 9//1 8//1 10//1
f 5//1 3//1 11//1
f 3//1 9//1 11//1
f 3//1 2//1 9//1
f 2//1 8//1 9//1
f 5//1 4//1 3//1
f 1//1 8//1 2//1
f 16//1 22//1 17//1
f 22//1 18//1 17//1
f 22//1 21//1 18//1
f 21//1 12//1 18//1
f 16//1 23//1 22//1
f 20//1 12//1 21//1
f 19//1 12//1 20//1
f 19//1 13//1 12//1
f 16//1 14//1 23//1
f 14//1 19//1 23//1
f 14//1 13//1 19//1
f 16//1 15//1 14//1
f 25//1 27//1 26//1
f 25//1 28//1 27//1
f 32//1 34//1 33//1
f 32//1 35//1 34//1
f 31//1 35//1 32//1
f 25//1 29//1 28//1
f 31//1 24//1 35//1
f 24//1 29//1 25//1
f 24//1 30//1 29//1
f 30//1 24//1 31//1
f 39//1 41//1 40//1
f 39//1 37//1 41//1
f 37//1 42//1 41//1
f 42//1 44//1 43//1
f 42//1 45//1 44//1
f 39//1 38//1 37//1
f 36//1 42//1 37//1
f 36//1 45//1 42//1
f 47//1 49//1 48//1
f 47//1 50//1 49//1
f 54//1 56//1 55//1
f 54//1 57//1 56//1
f 53//1 57//1 54//1
f 47//1 51//1 50//1
f 53//1 46//1 57//1
f 46//1 51//1 47//1
f 46//1 52//1 51//1
f 52//1 46//1 53//1
f 62//1 64//1 63//1
f 62//1 65//1 64//1
f 61//2 65//2 62//2
f 60//1 58//1 61//1
f 58//1 65//1 61//1
f 60//1 59//1 58//1
f 69//1 71//1 70//1
f 69//1 67//1 71//1
f 67//1 72//1 71//1
f 72//1 74//1 73//1
f 72//1 75//1 74//1
f 69//1 68//1 67//1
f 66//1 72//1 67//1
f 66//1 75//1 72//1
f 84//1 86//1 85//1
f 84//1 89//1 86//1
f 89//1 87//1 86//1
f 84//1 90//1 89//1
f 88//1 87//1 89//1
f 84//1 82//1 90//1
f 82//1 88//1 90//1
f 82//1 81//1 88//1
f 81//1 87//1 88//1
f 84//1 83//1 82//1
f 80//1 87//1 81//1
f 77//1 79//1 78//1
f 77//1 76//1 79//1
f 97//1 91//1 98//1
f 91//1 99//1 98//1
f 91//1 100//1 99//1
f 97//1 92//1 91//1
f 97//1 93//1 92//1
f 96//1 93//1 97//1
f 93//1 95//1 94//1
f 96//1 95//1 93//1
f 103//1 105//1 104//1
f 103//1 106//1 105//1
f 103//1 101//1 106//1
f 103//1 102//1 101//1
f 109//1 112//1 110//1
f 112//1 107//1 110//1
f 109//1 113//1 112//1
f 111//1 107//1 112//1
f 108//1 113//1 109//1
f 108//1 114//1 113//1
f 114//1 107//1 111//1
f 114//1 108//1 107//1
f 115//1 117//1 116//1
f 115//1 118//1 117//1
f 118//1 120//1 119//1
f 118//1 121//1 120//1
f 115//1 121//1 118//1
f 128//2 126//2 127//2
f 131//2 126//2 128//2
f 129//2 131//2 128//2
f 132//2 126//2 131//2
f 129//2 130//2 131//2
f 124//2 126//2 132//2
f 130//2 124//2 132//2
f 123//2 124//2 130//2
f 129//2 123//2 130//2
f 125//2 126//2 124//2
f 129//2 122//2 123//2
f 143//2 137//2 138//2
f 139//2 143//2 138//2
f 142//2 143//2 139//2
f 133//2 142//2 139//2
f 144//2 137//2 143//2
f 133//2 141//2 142//2
f 133//2 140//2 141//2
f 134//2 140//2 133//2
f 135//2 137//2 144//2
f 140//2 135//2 144//2
f 134//2 135//2 140//2
f 136//2 137//2 135//2
f 148//2 146//2 147//2
f 149//2 146//2 148//2
f 155//2 153//2 154//2
f 156//2 153//2 155//2
f 156//2 152//2 153//2
f 150//2 146//2 149//2
f 145//2 152//2 156//2
f 150//2 145//2 146//2
f 151//2 145//2 150//2
f 145//2 151//2 152//2
f 162//2 160//2 161//2
f 158//2 160//2 162//2
f 163//2 158//2 162//2
f 165//2 163//2 164//2
f 166//2 163//2 165//2
f 159//2 160//2 158//2
f 163//2 157//2 158//2
f 166//2 157//2 163//2
f 170//2 168//2 169//2
f 171//2 168//2 170//2
f 177//2 175//2 176//2
f 178//2 175//2 177//2
f 178//2 174//2 175//2
f 172//2 168//2 171//2
f 167//2 174//2 178//2
f 172//2 167//2 168//2
f 173//2 167//2 172//2
f 167//2 173//2 174//2
f 185//2 183//2 184//2
f 186//2 183//2 185//2
f 186//1 182//1 183//1
f 179//2 181//2 182//2
f 186//2 179//2 182//2
f 180//2 181//2 179//2
f 192//2 190//2 191//2
f 188//2 190//2 192//2
f 193//2 188//2 192//2
f 195//2 193//2 194//2
f 196//2 193//2 195//2
f 189//2 190//2 188//2
f 193//2 187//2 188//2
f 196//2 187//2 193//2
f 207//2 205//2 206//2
f 210//2 205//2 207//2
f 208//2 210//2 207//2
f 211//2 205//2 210//2
f 208//2 209//2 210//2
f 203//2 205//2 211//2
f 209//2 203//2 211//2
f 202//2 203//2 209//2
f 208//2 202//2 209//2
f 204//2 205//2 203//2
f 208//2 201//2 202//2
f 200//2 198//2 199//2
f 197//2 198//2 200//2
f 212//2 218//2 219//2
f 220//2 212//2 219//2
f 221//2 212//2 220//2
f 213//2 218//2 212//2
f 214//2 218//2 213//2
f 214//2 217//2 218//2
f 216//2 214//2 215//2
f 216//2 217//2 214//2
f 226//2 224//2 225//2
f 227//2 224//2 226//2
f 222//2 224//2 227//2
f 223//2 224//2 222//2
f 233//2 230//2 231//2
f 228//2 233//2 231//2
f 234//2 230//2 233//2
f 228//2 232//2 233//2
f 234//2 229//2 230//2
f 235//2 229//2 234//2
f 228//2 235//2 232//2
f 229//2 235//2 228//2
f 238//2 236//2 237//2
f 239//2 236//2 238//2
f 241//2 239//2 240//2
f 242//2 239//2 241//2
f 242//2 236//2 239//2
s 1
f 244//3 246//4 245//4 243//3
f 246//4 248//5 247//5 245//4
f 248//5 250//6 249//6 247//5
f 250//6 252//7 251//7 249//6
f 252//7 254//8 253//8 251//7
f 254//8 256//9 255//9 253//8
f 256//9 244//3 243//3 255//9
f 258//10 260//11 259//11 257//10
f 260//11 262//12 261//12 259//11
f 262//12 264//13 263//13 261//12
f 264//13 266//14 265//14 263//13
f 266//14 268//15 267//15 265//14
f 268//15 270//16 269//16 267//15
f 270//16 258//10 257//10 269//16
f 272//17 274//18 273//18 271//17
f 274//18 276//19 275//19 273//18
f 276//19 278//20 277//20 275//19
f 278//20 280//21 279//21 277//20
f 280//21 282//22 281//22 279//21
f 282//22 284//23 283//23 281//22
f 284//23 272//17 271//17 283//23
f 286//24 288//25 287//25 285//24
f 288//25 290//26 289//26 287//25
f 290//26 292//27 291//27 289//26
f 292//27 286//24 285//24 291//27
f 294//28 296//29 295//29 293//28
f 296//29 298//30 297//30 295//29
f 298//30 300//31 299//31 297//30
f 300//31 294//28 293//28 299//31
f 302//32 304//33 303//33 301//32
f 304//33 306//34 305//34 303//33
f 306//34 308//35 307//35 305//34
f 308//35 302//32 301//32 307//35
f 310//36 312//37 311//37 309//36
f 312//37 314//38 313//38 311//37
f 314//38 316//39 315//39 313//38
f 316//39 310//36 309//36 315//39
f 318//40 320//41 319//41 317//40
f 320//41 322//42 321//42 319//41
f 322//42 324//43 323//43 321//42
f 324//43 318//40 317//40 323//43
f 326//44 328//45 327//45 325//44
f 328//45 330//46 329//46 327//45
f 330//46 332//47 331//47 329//46
f 332//47 326//44 325//44 331//47
f 334//48 336//49 335//49 333//48
f 336//49 338//50 337//50 335//49
f 338//50 340//51 339//51 337//50
f 340//51 342//48 341//48 339//51
f 342//48 344//48 343//48 341//48
f 344//48 334//48 333//48 343//48
f 346//52 348//53 347//53 345//52
f 348//53 350//54 349//54 347//53
f 350//54 352//55 351//55 349//54
f 352//55 354//52 353//52 351//55
f 354//52 356//52 355//52 353//52
f 356//52 346//52 345//52 355//52
f 358//56 360//57 359//57 357//56
f 360//57 362//58 361//58 359//57
f 362//58 364//59 363//59 361//58
f 364//59 366//56 365//56 363//59
f 366//56 368//56 367//56 365//56
f 368//56 358//56 357//56 367//56
f 370//60 372//61 371//61 369//60
f 372//61 374//62 373//62 371//61
f 374//62 376//63 375//63 373//62
f 376//63 378//64 377//64 375//63
f 378//64 380//65 379//65 377//64
f 380//65 382//66 381//66 379//65
f 382//66 384//67 383//67 381//66
f 384//67 386//68 385//68 383//67
f 386//68 388//69 387//69 385//68
f 388//69 370//60 369//60 387//69
f 390//70 392//71 391//71 389//70
f 392//71 394//72 393//72 391//71
f 394//72 396//73 395//73 393//72
f 396//73 398//74 397//74 395//73
f 398//74 400//75 399//75 397//74
f 400//75 402//76 401//76 399//75
f 402//76 404//77 403//77 401//76
f 404//77 406//78 405//78 403//77
f 406//78 408//79 407//79 405//78
f 408//79 390//70 389//70 407//79
f 410//80 412//81 411//81 409//80
f 412//81 414//82 413//82 411//81
f 414//82 416//83 415//83 413//82
f 416//83 418//84 417//84 415//83
f 418//84 420//85 419//85 417//84
f 420//85 422//86 421//86 419//85
f 422//86 424//87 423//87 421//86
f 424//87 426//88 425//88 423//87
f 426//88 428//89 427//89 425//88
f 428//89 410//80 409//80 427//89
f 430//90 432//90 431//90 429//90
f 432//90 434//91 433//91 431//90
f 434//91 436//91 435//91 433//91
f 436//91 438//92 437//92 435//91
f 438//92 440//93 439//93 437//92
f 440//93 442//94 441//94 439//93
f 442//94 444//95 443//95 441//94
f 444//95 430//90 429//90 443//95
f 446//96 448//96 447//96 445//96
f 448//96 450//97 449//97 447//96
f 450//97 452//97 451//97 449//97
f 452//97 454//98 453//98 451//97
f 454//98 456//99 455//99 453//98
f 456//99 458//100 457//100 455//99
f 458//100 460//101 459//101 457//100
f 460//101 446//96 445//96 459//101
f 462//102 464//102 463//102 461//102
f 464//102 466//103 465//103 463//102
f 466//103 468//103 467//103 465//103
f 468//103 470//104 469//104 467//103
f 470//104 472//105 471//105 469//104
f 472//105 474//106 473//106 471//105
f 474//106 476//107 475//107 473//106
f 476//107 462//102 461//102 475//107
f 478//108 480//109 479//109 477//108
f 480//109 482//110 481//110 479//109
f 482//110 478//108 477//108 481//110
f 484//111 486//112 485//112 483//111
f 486//112 488//113 487//113 485//112
f 488//113 484//111 483//111 487//113
f 490//114 492//115 491//115 489//114
f 492//115 494//116 493//116 491//115
f 494//116 490//114 489//114 493//116
f 496//117 498//118 497//118 495//117
f 498//118 500//119 499//119 497//118
f 500//119 502//120 501//120 499//119
f 502//120 496//117 495//117 501//120
f 504//121 506//122 505//122 503//121
f 506//122 508//123 507//123 505//122
f 508//123 510//124 509//124 507//123
f 510//124 504//121 503//121 509//124
f 512//125 514//126 513//126 511//125
f 514//126 516//127 515//127 513//126
f 516//127 518//128 517//128 515//127
f 518//128 512//125 511//125 517//128
f 520//129 522//130 521//130 519//129
f 522//130 524//49 523//49 521//130
f 524//49 526//50 525//50 523//49
f 526//50 528//51 527//51 525//50
f 528//51 530//131 529//131 527//51
f 530//131 532//132 531//132 529//131
f 532//132 534//51 533//51 531//132
f 534//51 536//48 535//48 533//51
f 536//48 538//49 537//49 535//48
f 538//49 520//129 519//129 537//49
f 540//133 542//134 541//134 539//133
f 542//134 544//53 543//53 541//134
f 544//53 546//54 545//54 543//53
f 546//54 548//55 547//55 545//54
f 548//55 550//135 549//135 547//55
f 550//135 552//136 551//136 549//135
f 552//136 554//55 553//55 551//136
f 554//55 556//52 555//52 553//55
f 556//52 558//53 557//53 555//52
f 558//53 540//133 539//133 557//53
f 560//137 562//138 561//138 559//137
f 562//138 564//57 563//57 561//138
f 564//57 566//58 565//58 563//57
f 566//58 568//59 567//59 565//58
f 568//59 570//139 569//139 567//59
f 570//139 572//140 571//140 569//139
f 572//140 574//59 573//59 571//140
f 574//59 576//56 575//56 573//59
f 576//56 578//57 577//57 575//56
f 578//57 560//137 559//137 577//57
f 580//49 582//49 581//49 579//49
f 582//49 584//50 583//50 581//49
f 584//50 586//50 585//50 583//50
f 586//50 588//50 587//50 585//50
f 588//50 590//51 589//51 587//50
f 590//51 592//48 591//48 589//51
f 592//48 594//49 593//49 591//48
f 594//49 580//49 579//49 593//49
f 596//53 598//53 597//53 595//53
f 598//53 600//54 599//54 597//53
f 600//54 602//54 601//54 599//54
f 602//54 604//54 603//54 601//54
f 604//54 606//55 605//55 603//54
f 606//55 608//52 607//52 605//55
f 608//52 610//53 609//53 607//52
f 610//53 596//53 595//53 609//53
f 612//57 614//57 613//57 611//57
f 614//57 616//58 615//58 613//57
f 616//58 618//58 617//58 615//58
f 618//58 620//58 619//58 617//58
f 620//58 622//59 621//59 619//58
f 622//59 624//56 623//56 621//59
f 624//56 626//57 625//57 623//56
f 626//57 612//57 611//57 625//57
f 628//141 630//142 629//142 627//141
f 630//142 632//51 631//51 629//142
f 632//51 634//48 633//48 631//51
f 634//48 636//143 635//143 633//48
f 636//143 638//144 637//144 635//143
f 638//144 640//145 639//145 637//144
f 640//145 642//146 641//146 639//145
f 642//146 644//147 643//147 641//146
f 644//147 646//51 645//51 643//147
f 646//51 648//48 647//48 645//51
f 648//48 650//148 649//148 647//48
f 650//148 628//141 627//141 649//148
f 652//149 654//150 653//150 651//149
f 654//150 656//55 655//55 653//150
f 656//55 658//52 657//52 655//55
f 658//52 660//151 659//151 657//52
f 660//151 662//152 661//152 659//151
f 662//152 664//153 663//153 661//152
f 664//153 666//154 665//154 663//153
f 666//154 668//155 667//155 665//154
f 668//155 670//55 669//55 667//155
f 670//55 672//52 671//52 669//55
f 672//52 674//156 673//156 671//52
f 674//156 652//149 651//149 673//156
f 676//157 678//158 677//158 675//157
f 678//158 680//59 679//59 677//158
f 680//59 682//56 681//56 679//59
f 682//56 684//159 683//159 681//56
f 684//159 686//160 685//160 683//159
f 686//160 688//161 687//161 685//160
f 688//161 690//162 689//162 687//161
f 690//162 692//163 691//163 689//162
f 692//163 694//59 693//59 691//163
f 694//59 696//56 695//56 693//59
f 696//56 698//164 697//164 695//56
f 698//164 676//157 675//157 697//164
f 700//129 702//130 701//130 699//129
f 702//130 704//49 703//49 701//130
f 704//49 706//50 705//50 703//49
f 706//50 708//51 707//51 705//50
f 708//51 710//131 709//131 707//51
f 710//131 712//132 711//132 709//131
f 712//132 714//51 713//51 711//132
f 714//51 716//48 715//48 713//51
f 716//48 718//49 717//49 715//48
f 718//49 700//129 699//129 717//49
f 720//133 722//134 721//134 719//133
f 722//134 724//53 723//53 721//134
f 724//53 726//54 725//54 723//53
f 726//54 728//55 727//55 725//54
f 728//55 730//135 729//135 727//55
f 730//135 732//136 731//136 729//135
f 732//136 734//55 733//55 731//136
f 734//55 736//52 735//52 733//55
f 736//52 738//53 737//53 735//52
f 738//53 720//133 719//133 737//53
f 740//137 742//138 741//138 739//137
f 742//138 744//57 743//57 741//138
f 744//57 746//58 745//58 743//57
f 746//58 748//59 747//59 745//58
f 748//59 750//139 749//139 747//59
f 750//139 752//140 751//140 749//139
f 752//140 754//59 753//59 751//140
f 754//59 756//56 755//56 753//59
f 756//56 758//57 757//57 755//56
f 758//57 740//137 739//137 757//57
f 760//141 762//142 761//142 759//141
f 762//142 764//51 763//51 761//142
f 764//51 766//48 765//48 763//51
f 766//48 768//143 767//143 765//48
f 768//143 770//144 769//144 767//143
f 770//144 772//145 771//145 769//144
f 772//145 774//146 773//146 771//145
f 774//146 776//147 775//147 773//146
f 776//147 778//51 777//51 775//147
f 778//51 780//48 779//48 777//51
f 780//48 782//148 781//148 779//48
f 782//148 760//141 759//141 781//148
f 784//149 786//150 785//150 783//149
f 786//150 788//55 787//55 785//150
f 788//55 790//52 789//52 787//55
f 790//52 792//151 791//151 789//52
f 792//151 794//152 793//152 791//151
f 794//152 796//153 795//153 793//152
f 796//153 798//154 797//154 795//153
f 798//154 800//155 799//155 797//154
f 800//155 802//55 801//55 799//155
f 802//55 804//52 803//52 801//55
f 804//52 806//156 805//156 803//52
f 806//156 784//149 783//149 805//156
f 808//157 810//158 809//158 807//157
f 810//158 812//59 811//59 809//158
f 812//59 814//56 813//56 811//59
f 814//56 816//159 815//159 813//56
f 816//159 818//160 817//160 815//159
f 818//160 820//161 819//161 817//160
f 820//161 822//162 821//162 819//161
f 822//162 824//163 823//163 821//162
f 824//163 826//59 825//59 823//163
f 826//59 828//56 827//56 825//59
f 828//56 830//164 829//164 827//56
f 830//164 808//157 807//157 829//164
f 832//165 834//166 833//166 831//165
f 834//166 836//49 835//49 833//166
f 836//49 838//49 837//49 835//49
f 838//49 840//50 839//50 837//49
f 840//50 842//51 841//51 839//50
f 842//51 844//167 843//167 841//51
f 844//167 832//165 831//165 843//167
f 846//168 848//169 847//169 845//168
f 848//169 850//53 849//53 847//169
f 850//53 852//53 851//53 849//53
f 852//53 854//54 853//54 851//53
f 854//54 856//55 855//55 853//54
f 856//55 858//170 857//170 855//55
f 858//170 846//168 845//168 857//170
f 860//171 862//172 861//172 859//171
f 862//172 864//57 863//57 861//172
f 864//57 866//57 865//57 863//57
f 866//57 868//58 867//58 865//57
f 868//58 870//59 869//59 867//58
f 870//59 872//173 871//173 869//59
f 872//173 860//171 859//171 871//173
f 874//174 876//175 875//175 873//174
f 876//175 878//176 877//176 875//175
f 878//176 880//49 879//49 877//176
f 880//49 882//48 881//48 879//49
f 882//48 874//174 873//174 881//48
f 884//177 886//30 885//30 883//177
f 886//30 888//178 887//178 885//30
f 888//178 890//53 889//53 887//178
f 890//53 892//52 891//52 889//53
f 892//52 884//177 883//177 891//52
f 894//179 896//180 895//180 893//179
f 896//180 898//181 897//181 895//180
f 898//181 900//57 899//57 897//181
f 900//57 902//56 901//56 899//57
f 902//56 894//179 893//179 901//56
f 904//90 906//90 905//90 903//90
f 906//90 908//91 907//91 905//90
f 908//91 910//91 909//91 907//91
f 910//91 912//92 911//92 909//91
f 912//92 914//93 913//93 911//92
f 914//93 916//94 915//94 913//93
f 916//94 918//95 917//95 915//94
f 918//95 904//90 903//90 917//95
f 920//96 922//96 921//96 919//96
f 922//96 924//97 923//97 921//96
f 924//97 926//97 925//97 923//97
f 926//97 928//98 927//98 925//97
f 928//98 930//99 929//99 927//98
f 930//99 932//100 931//100 929//99
f 932//100 934//101 933//101 931//100
f 934//101 920//96 919//96 933//101
f 936//102 938//102 937//102 935//102
f 938//102 940//103 939//103 937//102
f 940//103 942//103 941//103 939//103
f 942//103 944//104 943//104 941//103
f 944//104 946//105 945//105 943//104
f 946//105 948//106 947//106 945//105
f 948//106 950//107 949//107 947//106
f 950//107 936//102 935//102 949//107
f 952//108 954//109 953//109 951//108
f 954//109 956//110 955//110 953//109
f 956//110 952//108 951//108 955//110
f 958//111 960//112 959//112 957//111
f 960//112 962//113 961//113 959//112
f 962//113 958//111 957//111 961//113
f 964//114 966//115 965//115 963//114
f 966//115 968//116 967//116 965//115
f 968//116 964//114 963//114 967//116
