# Blender v2.75 (sub 0) OBJ File: 'LOSTIEMPOS.blend'
# www.blender.org
mtllib LOSTIEMPOS.mtl
o Cube
v 0.997797 0.138021 -1.213824
v 0.997796 0.138021 1.260789
v -0.854262 0.138021 1.260788
v -0.854262 0.138021 -1.213825
v 0.997797 0.138021 0.023483
v 0.071768 0.138021 -1.213824
v 0.071767 0.138021 1.260789
v -0.854262 0.138021 0.023482
v 0.071767 3.861541 0.023482
v 0.997796 0.138021 0.642136
v -0.391247 0.138021 -1.213824
v -0.391248 0.138021 1.260788
v -0.854262 0.138021 -0.595171
v 0.997797 0.138021 -0.595170
v 0.534782 0.138021 -1.213824
v 0.534782 0.138021 1.260789
v -0.854262 0.138021 0.642135
v 0.071767 0.138021 0.642135
v 0.534782 0.138021 0.023482
v -0.391247 5.221194 -0.904498
v 0.419029 2.939826 -1.059161
v 0.534782 0.138021 0.642136
v -0.391247 0.138021 0.642135
v 0.997796 0.138021 0.951463
v -0.622754 0.138021 -1.213825
v -0.622755 0.138021 1.260788
v -0.854262 0.138021 -0.904498
v 0.997797 0.138021 -0.285844
v 0.303275 0.138021 -1.213824
v 0.303274 0.138021 1.260789
v -0.854262 0.138021 0.332808
v 0.071767 0.138021 0.951462
v 0.766289 0.138021 0.023483
v 0.997797 0.138021 0.332809
v -0.159740 0.138021 -1.213824
v -0.159740 0.138021 1.260789
v -0.854262 0.138021 -0.285845
v 0.997797 0.138021 -0.904497
v 0.766290 0.138021 -1.213824
v 0.766289 0.138021 1.260789
v -0.854262 0.138021 0.951461
v 0.071767 0.138021 0.332809
v 0.303275 2.939826 -1.059161
v 0.303275 0.138021 0.023482
v -0.854262 5.221194 -0.904498
v 0.650536 2.939826 -0.595171
v 0.766289 0.138021 -0.595171
v 0.650536 2.939826 -0.904498
v 0.534782 0.138021 0.951462
v 0.534782 0.138021 0.332809
v 0.766289 0.138021 0.642136
v 0.303274 0.138021 0.642135
v -0.391247 0.138021 0.951462
v -0.159740 0.138021 0.642135
v -0.622755 0.138021 0.642135
v -0.159740 0.138021 0.951462
v 0.303274 0.138021 0.332809
v 0.766289 0.138021 0.332809
v 0.766289 0.138021 0.951462
v 0.766290 2.939826 -0.749834
v 0.766290 0.138021 -0.904497
v 0.766289 0.138021 -0.285844
v -0.854262 5.221194 -0.749835
v 0.303274 0.138021 0.951462
v -0.622755 0.138021 0.951461
v 0.997795 0.000000 -1.213826
v 0.997794 0.000000 1.260787
v -0.854264 0.000000 1.260786
v -0.854264 0.000000 -1.213827
v 0.997796 0.138021 1.106126
v -0.738508 0.138021 -1.213825
v -0.738509 0.138021 1.260788
v -0.854262 0.138021 -1.059161
v 0.997797 0.138021 -0.131181
v 0.187521 0.138021 -1.213824
v 0.187521 0.138021 1.260789
v -0.854262 0.138021 0.178145
v 0.071765 0.000000 -1.213826
v 0.071767 0.138021 1.106125
v 0.071767 3.861541 -0.131181
v 0.882043 0.138021 0.023483
v 0.997797 0.138021 0.487473
v -0.275493 0.138021 -1.213824
v -0.275494 0.138021 1.260789
v -0.854262 0.138021 -0.440508
v 0.997797 0.138021 -0.749834
v 0.650536 0.138021 -1.213824
v 0.650535 0.138021 1.260789
v -0.854262 0.138021 0.796798
v 0.071767 0.138021 0.487472
v 0.419028 0.138021 0.023482
v -0.622754 5.221194 -1.213825
v -0.507001 5.221194 -1.213824
v 0.534782 0.138021 -0.131181
v 0.882043 0.138021 -0.595171
v 0.650536 2.321295 -1.059161
v 0.534782 0.138021 1.106125
v 0.534782 0.138021 0.487472
v 0.882043 0.138021 0.642136
v 0.419028 0.138021 0.642136
v 0.534780 0.000000 -1.213826
v -0.391249 0.000000 -1.213826
v -0.391247 0.138021 1.106125
v -0.043987 0.138021 0.642135
v -0.507001 0.138021 0.642135
v 0.997797 0.138021 0.796799
v -0.507001 0.138021 -1.213824
v -0.507001 0.138021 1.260788
v -0.854262 0.138021 -0.749835
v 0.997797 0.138021 -0.440507
v 0.419029 0.138021 -1.213824
v 0.419028 0.138021 1.260789
v -0.854262 0.138021 0.487472
v 0.071767 0.138021 0.796799
v 0.650536 0.138021 0.023482
v 0.997797 0.138021 0.178146
v -0.043986 0.138021 -1.213824
v -0.043987 0.138021 1.260789
v -0.854262 0.138021 -0.131182
v 0.997797 0.138021 -1.059160
v 0.882044 0.138021 -1.213824
v 0.882042 0.138021 1.260789
v -0.854262 0.138021 1.106125
v -0.854264 0.000000 0.023480
v 0.071765 0.000000 1.260786
v 0.997794 0.000000 0.023480
v 0.071767 0.138021 0.178145
v 0.187521 0.138021 0.023482
v -0.507001 5.221194 -0.595171
v -0.391247 5.221194 -0.595171
v 0.650536 2.939826 -0.749834
v 0.650536 0.138021 -0.595171
v 0.534782 0.138021 0.796799
v 0.534782 0.138021 0.178146
v 0.650535 0.138021 0.642136
v 0.187521 0.138021 0.642135
v 0.997794 0.000000 -0.595173
v 0.534779 0.000000 1.260787
v -0.854264 0.000000 0.642133
v -0.854264 0.000000 -0.595173
v -0.391250 0.000000 1.260786
v 0.997794 0.000000 0.642134
v -0.391247 0.138021 0.796798
v -0.275494 0.138021 0.642135
v -0.738508 0.138021 0.642135
v -0.043986 0.138021 0.332809
v -0.159740 0.138021 1.106125
v -0.159740 0.138021 0.796798
v -0.043987 0.138021 0.951462
v -0.275494 0.138021 0.951461
v 0.997794 0.000000 0.332807
v -0.159743 0.000000 1.260786
v -0.854264 0.000000 -0.285847
v -0.159742 0.000000 -1.213826
v -0.622757 0.000000 -1.213827
v 0.766287 0.000000 -1.213826
v 0.303273 0.000000 -1.213826
v -0.854264 0.000000 0.951459
v 0.766286 0.000000 1.260787
v 0.997795 0.000000 -0.904499
v 0.303274 0.138021 0.487472
v 0.303275 0.138021 0.178146
v 0.419028 0.138021 0.332809
v 0.187521 0.138021 0.332809
v 0.766289 0.138021 0.487473
v 0.766289 0.138021 0.178146
v 0.882043 0.138021 0.332809
v 0.650535 0.138021 0.332809
v 0.766289 0.138021 1.106126
v 0.766289 0.138021 0.796799
v 0.882043 0.138021 0.951462
v 0.650535 0.138021 0.951462
v 0.766290 2.321295 -0.904497
v 0.766290 2.321295 -1.059161
v 0.766290 0.138021 -0.749834
v 0.766290 0.138021 -1.059161
v 0.882043 0.138021 -0.904497
v 0.534782 2.939826 -0.749834
v 0.766289 0.138021 -0.131181
v 0.766289 0.138021 -0.440507
v 0.882043 0.138021 -0.285844
v 0.650536 0.138021 -0.285844
v -0.391247 5.221194 -0.749834
v -0.854262 5.221194 -0.595171
v -0.854262 5.221194 -0.440508
v -0.391247 5.221194 -1.213824
v 0.766290 2.321295 -0.749834
v 0.303275 0.138021 -0.131181
v 0.766289 2.321295 -0.595171
v 0.650536 2.321295 -0.595171
v 0.303274 0.138021 1.106125
v 0.303274 0.138021 0.796799
v 0.419028 0.138021 0.951462
v 0.187521 0.138021 0.951462
v 0.997794 0.000000 -0.285846
v 0.303272 0.000000 1.260787
v -0.854264 0.000000 0.332806
v -0.854264 0.000000 -0.904500
v -0.622757 0.000000 1.260786
v 0.997794 0.000000 0.951460
v -0.622755 0.138021 1.106125
v -0.622755 0.138021 0.796798
v -0.507001 0.138021 0.951461
v -0.738508 0.138021 0.951461
v -0.738508 0.138021 0.796798
v -0.507001 0.138021 0.796798
v -0.507001 0.138021 1.106125
v 0.997794 0.000000 0.796797
v -0.507004 0.000000 1.260786
v -0.854264 0.000000 -0.749837
v -0.854264 0.000000 0.487469
v 0.419026 0.000000 1.260787
v 0.997794 0.000000 -0.440509
v 0.187521 0.138021 0.796799
v 0.419028 0.138021 0.796799
v 0.419028 0.138021 1.106125
v 0.419028 0.138021 -0.131181
v -0.738508 0.138021 -0.440508
v 0.303275 2.321295 -1.213824
v -0.275493 5.221194 -1.213824
v -0.854262 5.221194 -1.059161
v -0.854262 5.221194 -1.213825
v 0.650536 0.138021 -0.440507
v 0.882043 0.138021 -0.440507
v 0.882043 0.138021 -0.131181
v 0.650536 0.138021 -1.059161
v 0.882044 0.138021 -1.059161
v 0.882043 0.138021 -0.749834
v 0.419029 2.321295 -1.213824
v 0.534782 2.321295 -1.213824
v 0.650535 0.138021 0.796799
v 0.882043 0.138021 0.796799
v 0.882043 0.138021 1.106126
v 0.650536 0.138021 0.178146
v 0.882043 0.138021 0.178146
v 0.882043 0.138021 0.487473
v 0.187521 0.138021 0.178145
v 0.419028 0.138021 0.178146
v 0.419028 0.138021 0.487472
v 0.997795 0.000000 -1.059163
v 0.882040 0.000000 1.260787
v -0.854264 0.000000 1.106122
v 0.419026 0.000000 -1.213826
v 0.187519 0.000000 -1.213826
v 0.882041 0.000000 -1.213826
v 0.650534 0.000000 -1.213826
v -0.507003 0.000000 -1.213827
v -0.738510 0.000000 -1.213827
v -0.043988 0.000000 -1.213826
v -0.275496 0.000000 -1.213826
v -0.854264 0.000000 -0.131184
v -0.043989 0.000000 1.260786
v 0.997794 0.000000 0.178144
v -0.275494 0.138021 0.796798
v -0.043987 0.138021 0.796799
v -0.043987 0.138021 1.106125
v -0.043986 0.138021 0.178145
v -0.043987 0.138021 0.487472
v -0.275494 0.138021 1.106125
v 0.997794 0.000000 0.487470
v -0.275496 0.000000 1.260786
v -0.854264 0.000000 -0.440510
v -0.854264 0.000000 0.796796
v 0.650533 0.000000 1.260787
v 0.997794 0.000000 -0.749836
v 0.187521 0.138021 0.487472
v 0.650535 0.138021 0.487473
v 0.650535 0.138021 1.106126
v 0.650536 2.321295 -1.213824
v 0.650536 0.138021 -0.131181
v -0.738508 5.221194 -1.213825
v 0.187521 0.138021 -0.131181
v 0.187521 0.138021 1.106125
v 0.997794 0.000000 -0.131183
v 0.187518 0.000000 1.260786
v -0.854264 0.000000 0.178143
v -0.854264 0.000000 -1.059163
v -0.738511 0.000000 1.260786
v 0.997794 0.000000 1.106124
v -0.738509 0.138021 1.106125
v -0.854262 9.396444 0.178145
v -0.854262 9.396444 0.023482
v -0.507001 9.396444 0.023482
v -0.391247 9.396444 0.023482
v -0.391247 9.401702 -0.090613
v -0.391247 9.396444 0.487472
v -0.391247 9.396444 0.642135
v -0.507001 9.396444 0.642135
v -0.854262 9.396444 0.487472
v -0.854262 9.396444 0.332808
v -0.275494 9.396444 0.023482
v -0.854262 9.396444 -0.131182
v -0.854262 9.396444 -0.285845
v -0.391247 9.396444 -0.440508
v -0.391247 9.396444 0.178145
v -0.391247 9.396444 0.332809
v -0.275494 9.396444 0.642135
v -0.738508 9.396444 0.642135
v -0.622755 9.396444 0.642135
v -0.507001 9.396444 0.332808
v -0.275494 9.396444 0.332809
v -0.622755 9.396444 -0.440508
v -0.506242 9.405374 -0.287861
v -0.854262 9.389697 -0.440508
v -0.854262 9.396444 0.642135
v -0.738508 9.396444 -0.440508
v -0.505863 9.400016 -0.440508
v -0.275494 9.396444 -0.440508
v -0.275494 9.396444 0.178145
v -0.507001 9.396444 0.178145
v -0.507001 9.396444 0.487472
v -0.275494 9.396444 0.487472
v -0.275494 9.401702 -0.090613
v -0.738508 0.138021 -1.213825
v -0.854262 0.138021 -1.213825
v -0.854262 0.138021 -1.059161
v -0.275493 0.138021 -1.213824
v -0.391247 0.138021 -1.213824
v -0.854262 0.138021 -0.440508
v -0.854262 0.138021 -0.595171
v -0.854262 5.531889 -1.162218
v -0.275493 5.531889 -1.162218
v -0.854262 5.949141 -0.806135
v -0.507001 0.138021 -1.213824
v -0.622754 0.138021 -1.213825
v -0.854262 0.138021 -0.749835
v -0.854262 0.138021 -0.904498
v -0.391247 5.670989 -1.043523
v -0.622754 5.670989 -1.043524
v -0.507001 5.810040 -0.924829
v -0.622755 5.810040 -0.924829
v -0.738508 5.810040 -0.924829
v -0.738508 5.531889 -1.162218
v -0.622754 5.531889 -1.162218
v -0.854262 5.670989 -1.043524
v -0.854262 5.810040 -0.924829
v -0.738508 0.138021 -0.440508
v -0.391247 5.949141 -0.806134
v -0.391247 5.810040 -0.924829
v -0.507001 5.531889 -1.162218
v -0.391247 5.531889 -1.162218
v -0.738508 5.221194 -0.595171
v -0.622755 5.221194 -0.595171
v -0.622755 5.221194 -0.749835
v -0.391247 5.221194 -0.440508
v -0.275494 5.221194 -0.595171
v -0.275494 5.221194 -0.904498
v -0.622755 5.221194 -0.440508
v -0.738508 5.221194 -0.440508
v -0.507001 5.221194 -0.440508
v -0.275494 5.221194 -0.440508
v -0.275493 5.221194 -1.059161
v -0.507001 5.221194 -0.749834
v -0.738508 5.221194 -0.749835
v -0.275494 5.221194 -0.749834
v -0.622755 5.949141 -0.806134
v -0.275494 5.810040 -0.924829
v -0.275494 5.670989 -1.043523
v -0.738508 5.670989 -1.043524
v -0.507001 5.670989 -1.043523
v -0.507001 5.949141 -0.806134
v -0.738508 5.949141 -0.806134
v 0.068819 3.967305 -0.729876
v 0.070998 4.061907 -0.590725
v -0.044647 4.071283 -0.590735
v 0.073177 4.156509 -0.451573
v 0.074722 4.244067 -0.272339
v -0.275938 4.090084 -0.590756
v -0.160293 4.080659 -0.590746
v -0.162472 3.986056 -0.729897
v -0.040923 4.253443 -0.272349
v -0.158114 4.175311 -0.451594
v -0.273759 4.184687 -0.451605
v -0.042469 4.165885 -0.451584
v -0.046826 3.976681 -0.729887
v -0.278117 3.995482 -0.729908
v 0.071767 3.617222 -0.131181
v 0.071767 3.617222 0.023482
v -0.043986 3.617222 0.023482
v -0.043986 3.617222 -0.285844
v 0.071767 3.617222 -0.285844
v 0.071767 3.617222 0.178145
v 0.187521 3.617222 0.023482
v 0.187521 3.617222 -0.285844
v -0.043986 3.617222 -0.131181
v 0.187521 3.617222 0.178145
v -0.043986 3.617222 0.178145
v 0.187521 3.617222 -0.131181
v 0.071767 3.861541 0.178145
v 0.187521 3.861541 0.023482
v 0.187521 3.861541 0.178145
v 0.187521 3.861541 -0.131181
v 0.187521 3.050898 -1.213824
v 0.071768 3.050898 -1.213824
v 0.071767 3.050898 -0.749834
v 0.071767 3.050898 -0.595171
v 0.534782 3.050898 -0.749834
v 0.534782 3.050898 -0.595171
v 0.419028 3.050898 -0.595171
v 0.071767 3.050898 -0.440508
v 0.071767 3.050898 -0.285844
v -0.043986 3.050898 -1.213824
v -0.159740 3.050898 -1.213824
v 0.071768 3.050898 -1.059161
v 0.071768 3.050898 -0.904498
v 0.534782 3.050898 -0.440507
v 0.534782 3.050898 -0.285844
v 0.187521 3.050898 -0.595171
v 0.303275 3.050898 -0.595171
v 0.303275 3.050898 -0.749834
v 0.303275 3.050898 -1.059161
v 0.303275 3.050898 -0.904498
v 0.419029 3.050898 -0.904498
v 0.534782 3.050898 -0.904498
v 0.187521 3.050898 -0.904498
v -0.159740 3.050898 -1.059161
v -0.159740 3.050898 -0.904498
v -0.043986 3.050898 -0.904498
v -0.275494 3.050898 -0.904498
v 0.303275 3.050898 -0.440508
v 0.303275 3.050898 -0.285844
v 0.419028 3.050898 -0.285844
v 0.187521 3.050898 -0.285844
v 0.303275 3.050898 -1.213824
v -0.275493 3.050898 -1.213824
v 0.534782 3.050898 -0.131181
v 0.650536 3.050898 -0.595171
v 0.650536 3.050898 -0.285844
v -0.159740 3.050898 -0.749834
v 0.303275 3.050898 -0.131181
v 0.187521 3.050898 -0.440508
v 0.419028 3.050898 -0.440507
v 0.419028 3.050898 -0.131181
v -0.275493 3.050898 -1.059161
v -0.043986 3.050898 -1.059161
v -0.043986 3.050898 -0.749834
v 0.650536 3.050898 -0.440507
v 0.187521 3.050898 -1.059161
v 0.419029 3.050898 -1.059161
v 0.419029 3.050898 -0.749834
v 0.187521 3.050898 -0.749834
v 0.650536 3.050898 -0.749834
v 0.650536 3.050898 -0.131181
v -0.275494 3.050898 -0.749834
v 0.187521 3.050898 -0.131181
v 0.534782 2.939826 -1.059161
v 0.419029 2.939826 -1.213824
v 0.419029 2.939826 -0.904498
v 0.650536 2.939826 -1.059161
v 0.766290 2.939826 -1.059161
v 0.650536 2.939826 -1.213824
v 0.534782 2.939826 -0.904498
v 0.766290 2.939826 -0.904497
v 0.303275 2.939826 -1.213824
v 0.534782 2.939826 -1.213824
v 0.766289 2.939826 -0.595171
v -0.854262 9.523837 0.178145
v -0.854262 9.523837 0.023482
v -0.854262 9.523837 0.487472
v -0.854262 9.523837 0.332808
v -0.854262 9.523837 -0.131182
v -0.854262 9.523837 -0.285845
v -0.854262 9.523837 -0.440508
v -0.854262 9.523837 0.642135
v -0.507001 9.424076 -0.090613
v -0.391247 9.541845 -0.440508
v -0.507001 9.541845 -0.285845
v -0.507001 9.541845 -0.440508
v -0.275494 9.541845 -0.440508
v -0.854262 9.142353 0.332808
v -0.854262 9.142353 0.178145
v -0.738508 9.142353 0.642135
v -0.854262 9.142353 0.023482
v -0.622755 9.142353 0.642135
v -0.854262 9.142353 -0.131182
v -0.738508 9.142353 -0.440508
v -0.507001 9.142353 0.642135
v -0.391247 9.142353 0.642135
v -0.854262 9.142353 -0.285845
v -0.854262 9.142353 -0.440508
v -0.391247 9.142353 -0.440508
v -0.275494 9.142353 -0.440508
v -0.854262 9.142353 0.642135
v -0.854262 9.142353 0.487472
v -0.275494 9.142353 0.642135
v -0.622755 9.142353 -0.440508
v -0.507001 9.142353 -0.440508
v -0.043987 8.161951 0.642135
v -0.043986 8.161951 -0.285844
v -0.738508 8.161951 0.642135
v -0.043986 8.161951 0.178145
v -0.622755 8.161951 0.642135
v -0.738508 8.161951 -0.440508
v -0.507001 8.161951 0.642135
v -0.043987 8.161951 0.487472
v -0.391247 8.161951 0.642135
v -0.854262 8.161951 -0.440508
v -0.275494 8.161951 -0.440508
v -0.854262 8.161951 0.487472
v -0.275494 8.161951 0.642135
v -0.507001 8.161951 -0.440508
v -0.854262 8.161951 0.332808
v -0.854262 8.161951 0.178145
v -0.854262 8.161951 0.023482
v -0.043986 8.161951 -0.131181
v -0.043986 8.161951 0.023482
v -0.854262 8.161951 -0.131182
v -0.043986 8.161951 0.332809
v -0.854262 8.161951 -0.285845
v -0.391247 8.161951 -0.440508
v -0.854262 8.161951 0.642135
v -0.159740 8.161951 0.642135
v -0.622755 8.161951 -0.440508
v -0.043987 7.894763 0.642135
v -0.043986 7.894763 -0.285844
v -0.738508 7.894763 0.642135
v -0.043986 7.894763 0.178145
v -0.622755 7.894763 0.642135
v -0.738508 7.894763 -0.440508
v -0.507001 7.894763 0.642135
v -0.391247 7.894763 0.642135
v -0.854262 7.894763 -0.440508
v -0.275494 7.894763 -0.440508
v -0.854262 7.894763 0.487472
v -0.275494 7.894763 0.642135
v -0.507001 7.894763 -0.440508
v -0.854262 7.894763 0.332808
v -0.854262 7.894763 0.178145
v -0.854262 7.894763 0.023482
v -0.043986 7.894763 -0.131181
v -0.043986 7.894763 0.023482
v -0.854262 7.894763 -0.131182
v -0.043986 7.894763 0.332809
v -0.854262 7.894763 -0.285845
v -0.391247 7.894763 -0.440508
v -0.854262 7.894763 0.642135
v -0.159740 7.894763 0.642135
v -0.622755 7.894763 -0.440508
v -0.043987 7.043888 0.642135
v -0.043986 7.043888 -0.285844
v -0.738508 7.043888 0.642135
v -0.043986 7.043888 0.178145
v -0.622755 7.043888 0.642135
v -0.738508 7.043888 -0.440508
v -0.507001 7.043888 0.642135
v -0.391247 7.043888 0.642135
v -0.854262 7.043888 -0.440508
v -0.275494 7.043888 -0.440508
v -0.854262 7.043888 0.487472
v -0.275494 7.043888 0.642135
v -0.507001 7.043888 -0.440508
v -0.854262 7.043888 0.332808
v -0.854262 7.043888 0.178145
v -0.854262 7.043888 0.023482
v -0.043986 7.043888 -0.131181
v -0.043986 7.043888 0.023482
v -0.854262 7.043888 -0.131182
v -0.043986 7.043888 0.332809
v -0.854262 7.043888 -0.285845
v -0.391247 7.043888 -0.440508
v -0.854262 7.043888 0.642135
v -0.159740 7.043888 0.642135
v -0.622755 7.043888 -0.440508
v -0.043987 6.204125 0.642135
v -0.043986 6.204125 -0.285844
v -0.738508 6.204125 0.642135
v -0.043986 6.204125 0.178145
v -0.622755 6.204125 0.642135
v -0.738508 6.204125 -0.440508
v -0.507001 6.204125 0.642135
v -0.043987 6.204125 0.487472
v -0.391247 6.204125 0.642135
v -0.854262 6.204125 -0.440508
v -0.275494 6.204125 -0.440508
v -0.854262 6.204125 0.487472
v -0.275494 6.204125 0.642135
v -0.507001 6.204125 -0.440508
v -0.854262 6.204125 0.332808
v -0.854262 6.204125 0.178145
v -0.854262 6.204125 0.023482
v -0.043986 6.204125 -0.131181
v -0.043986 6.204125 0.023482
v -0.854262 6.204125 -0.131182
v -0.043986 6.204125 0.332809
v -0.854262 6.204125 -0.285845
v -0.391247 6.204125 -0.440508
v -0.854262 6.204125 0.642135
v -0.159740 6.204125 0.642135
v -0.622755 6.204125 -0.440508
v -0.275494 8.161951 -0.438846
v -0.043986 7.894763 -0.438846
v -0.275494 7.894763 -0.438846
v -0.043986 7.043888 -0.438846
v -0.275494 7.043888 -0.438846
v -0.275494 6.204125 -0.438846
v -0.159740 6.204125 -0.438846
v -0.043986 6.204125 -0.438846
v -0.043986 8.161951 -0.438846
v -0.159740 8.161951 -0.438846
v -0.275494 8.161951 -0.438846
v -0.159740 7.894763 -0.438846
v -0.159740 7.043888 -0.438846
v -0.391247 10.152518 -0.440508
v -0.391247 9.530931 -0.084564
v -0.507001 9.530931 -0.084564
v -0.275494 9.530931 -0.084564
v -0.507001 10.152518 -0.440508
v -0.275494 10.152518 -0.440508
v 0.048580 7.894763 0.332809
v 0.048580 8.161951 0.332809
v 0.048580 8.161951 0.487472
v 0.018297 8.161951 0.557478
v 0.018297 7.894763 0.557478
v 0.048580 7.894763 0.487472
v 0.048580 7.043888 0.332809
v 0.018297 7.043888 0.557478
v 0.048580 7.043888 0.487472
v 0.048580 6.204125 0.332809
v 0.018297 6.204125 0.557478
v 0.048580 6.204125 0.487472
v -0.275494 9.142353 0.351255
v -0.275494 9.142353 -0.259971
v -0.275494 9.142353 0.214980
v 0.650536 2.321295 -0.131181
v 0.650536 2.321295 -0.285844
v 0.650536 2.321295 -0.440507
v 0.650536 2.951831 -0.131181
v 0.650536 2.940867 -0.440507
v 0.650536 2.945977 -0.285844
v 0.303275 2.321295 -0.131181
v 0.187521 2.321295 -0.131181
v 0.534782 2.321295 -0.131181
v 0.419028 2.321295 -0.131181
vt 0.227994 0.800832
vt 0.644918 0.360884
vt 0.644918 0.373452
vt 0.625410 0.373452
vt 0.514833 0.340187
vt 0.514833 0.320177
vt 0.527866 0.320177
vt 0.527866 0.340187
vt 0.994687 0.202065
vt 0.983059 0.202064
vt 0.983059 0.188696
vt 0.994687 0.188696
vt 0.955830 0.300166
vt 0.967459 0.300165
vt 0.967459 0.320176
vt 0.955830 0.320177
vt 0.626730 0.626767
vt 0.638361 0.626766
vt 0.638361 0.640135
vt 0.626730 0.640135
vt 0.626730 0.519816
vt 0.638361 0.519816
vt 0.638361 0.533185
vt 0.626730 0.533185
vt 0.955830 0.140078
vt 0.967459 0.140077
vt 0.967459 0.160088
vt 0.955830 0.160089
vt 0.994687 0.309015
vt 0.983059 0.309015
vt 0.983059 0.295646
vt 0.994687 0.295646
vt 0.514833 0.500272
vt 0.514833 0.480262
vt 0.527866 0.480262
vt 0.527866 0.500272
vt 0.735984 0.439379
vt 0.749017 0.439379
vt 0.747304 0.490278
vt 0.737302 0.478258
vt 0.784358 0.844098
vt 0.784358 0.864109
vt 0.722951 0.864109
vt 0.722951 0.844098
vt 0.410570 0.580314
vt 0.410570 0.560304
vt 0.423603 0.560304
vt 0.423603 0.580314
vt 0.254175 0.800279
vt 0.267208 0.800279
vt 0.267208 0.811291
vt 0.254175 0.811291
vt 0.247618 0.944797
vt 0.228109 0.944797
vt 0.228109 0.891335
vt 0.247618 0.891335
vt 0.514833 0.580315
vt 0.514833 0.560304
vt 0.527866 0.560304
vt 0.527866 0.580315
vt 0.462702 0.580315
vt 0.462702 0.560304
vt 0.475735 0.560304
vt 0.475735 0.580315
vt 0.462702 0.500272
vt 0.462702 0.480261
vt 0.475735 0.480262
vt 0.475735 0.500272
vt 0.994687 0.362490
vt 0.983059 0.362490
vt 0.983059 0.349121
vt 0.994687 0.349121
vt 0.955830 0.060034
vt 0.967459 0.060033
vt 0.967459 0.080044
vt 0.955830 0.080044
vt 0.626730 0.466341
vt 0.638361 0.466341
vt 0.638361 0.479710
vt 0.626730 0.479710
vt 0.626730 0.573291
vt 0.638361 0.573291
vt 0.638361 0.586660
vt 0.626730 0.586660
vt 0.955830 0.220122
vt 0.967459 0.220121
vt 0.967459 0.240132
vt 0.955830 0.240133
vt 0.994687 0.255540
vt 0.983059 0.255540
vt 0.983059 0.242171
vt 0.994687 0.242171
vt 0.514833 0.420230
vt 0.514833 0.400219
vt 0.527866 0.400219
vt 0.527866 0.420230
vt 0.514833 0.460251
vt 0.514833 0.440241
vt 0.527866 0.440241
vt 0.527866 0.460251
vt 0.488768 0.460251
vt 0.488768 0.440240
vt 0.501801 0.440240
vt 0.501801 0.460251
vt 0.488768 0.420230
vt 0.488768 0.400219
vt 0.501801 0.400219
vt 0.501800 0.420230
vt 0.994687 0.282277
vt 0.983059 0.282277
vt 0.983059 0.268908
vt 0.994687 0.268909
vt 0.955830 0.180100
vt 0.967459 0.180099
vt 0.967459 0.200110
vt 0.955830 0.200111
vt 0.626730 0.546554
vt 0.638361 0.546554
vt 0.638361 0.559923
vt 0.626730 0.559923
vt 0.626730 0.439604
vt 0.638361 0.439604
vt 0.638361 0.452972
vt 0.626730 0.452973
vt 0.955830 0.020011
vt 0.967459 0.020011
vt 0.967459 0.040022
vt 0.955830 0.040022
vt 0.994687 0.389228
vt 0.983059 0.389227
vt 0.983059 0.375858
vt 0.994687 0.375859
vt 0.462702 0.540293
vt 0.462702 0.520283
vt 0.475735 0.520283
vt 0.475735 0.540293
vt 0.436636 0.540293
vt 0.436636 0.520283
vt 0.449669 0.520283
vt 0.449669 0.540293
vt 0.436636 0.500272
vt 0.436636 0.480261
vt 0.449669 0.480261
vt 0.449669 0.500272
vt 0.462702 0.620336
vt 0.462702 0.600325
vt 0.475735 0.600325
vt 0.475735 0.620336
vt 0.436636 0.620336
vt 0.436636 0.600325
vt 0.449669 0.600325
vt 0.449669 0.620336
vt 0.436636 0.580314
vt 0.436636 0.560304
vt 0.449669 0.560304
vt 0.449669 0.580315
vt 0.514834 0.620336
vt 0.514833 0.600326
vt 0.527866 0.600326
vt 0.527866 0.620336
vt 0.488768 0.620336
vt 0.488768 0.600325
vt 0.501801 0.600325
vt 0.501801 0.620336
vt 0.488768 0.580315
vt 0.488768 0.560304
vt 0.501801 0.560304
vt 0.501801 0.580315
vt 0.827215 0.870506
vt 0.827215 0.850495
vt 0.879334 0.850495
vt 0.879334 0.870506
vt 0.358439 0.620335
vt 0.358439 0.600325
vt 0.371472 0.600325
vt 0.371471 0.620335
vt 0.332373 0.620335
vt 0.332373 0.600324
vt 0.345406 0.600325
vt 0.345406 0.620335
vt 0.986967 0.000000
vt 1.000000 0.000000
vt 1.000000 0.188678
vt 0.986967 0.188678
vt 0.410570 0.620336
vt 0.410570 0.600325
vt 0.423603 0.600325
vt 0.423603 0.620336
vt 0.384504 0.620335
vt 0.384504 0.600325
vt 0.397537 0.600325
vt 0.397537 0.620335
vt 0.853281 0.943971
vt 0.840248 0.943971
vt 0.840248 0.890518
vt 0.853281 0.890518
vt 0.814182 0.870506
vt 0.814182 0.890517
vt 0.801149 0.890516
vt 0.801149 0.870506
vt 0.814182 0.910527
vt 0.814182 0.930538
vt 0.801149 0.930538
vt 0.801149 0.910527
vt 0.814182 0.830485
vt 0.814182 0.850495
vt 0.801149 0.850495
vt 0.801149 0.830485
vt 0.547374 0.824380
vt 0.547420 0.904417
vt 0.527934 0.903495
vt 0.527867 0.824268
vt 0.000000 0.000000
vt 0.410570 0.540293
vt 0.410570 0.520282
vt 0.423603 0.520282
vt 0.423603 0.540293
vt 0.514833 0.540294
vt 0.514833 0.520283
vt 0.527866 0.520283
vt 0.527866 0.540294
vt 0.488768 0.540294
vt 0.488768 0.520283
vt 0.501801 0.520283
vt 0.501801 0.540294
vt 0.488768 0.500272
vt 0.488768 0.480262
vt 0.501801 0.480262
vt 0.501801 0.500272
vt 0.994687 0.335752
vt 0.983059 0.335752
vt 0.983059 0.322383
vt 0.994687 0.322384
vt 0.955830 0.100056
vt 0.967459 0.100055
vt 0.967459 0.120066
vt 0.955830 0.120067
vt 0.626730 0.493079
vt 0.638361 0.493079
vt 0.638361 0.506447
vt 0.626730 0.506448
vt 0.626730 0.600029
vt 0.638361 0.600029
vt 0.638361 0.613398
vt 0.626730 0.613398
vt 0.955830 0.260144
vt 0.967459 0.260143
vt 0.967459 0.280154
vt 0.955830 0.280155
vt 0.994687 0.228802
vt 0.983059 0.228802
vt 0.983059 0.215433
vt 0.994687 0.215434
vt 0.514833 0.380209
vt 0.514833 0.360198
vt 0.527866 0.360198
vt 0.527866 0.380209
vt 0.488768 0.380208
vt 0.488768 0.360198
vt 0.501800 0.360198
vt 0.501800 0.380209
vt 0.488768 0.340187
vt 0.488768 0.320177
vt 0.501801 0.320177
vt 0.501800 0.340187
vt 0.475735 0.360198
vt 0.475735 0.340187
vt 0.475735 0.320176
vt 0.475735 0.400219
vt 0.475735 0.380208
vt 0.358356 0.640347
vt 0.358357 0.892119
vt 0.338848 0.892119
vt 0.338848 0.640347
vt 0.289583 0.831302
vt 0.228109 0.831302
vt 0.228109 0.811291
vt 0.289583 0.811291
vt 0.636088 0.653504
vt 0.626730 0.653504
vt 0.636088 0.640135
vt 0.677459 0.875193
vt 0.664427 0.875193
vt 0.664427 0.865594
vt 0.677459 0.865594
vt 0.309092 0.871324
vt 0.309092 0.851313
vt 0.318451 0.851313
vt 0.318451 0.871324
vt 0.775083 0.756276
vt 0.788116 0.756276
vt 0.788116 0.778239
vt 0.775083 0.778239
vt 0.566882 0.824491
vt 0.566905 0.905338
vt 0.416881 0.932607
vt 0.417688 0.853386
vt 0.429323 0.845083
vt 0.429913 0.932455
vt 0.636692 0.890347
vt 0.656189 0.889729
vt 0.656189 0.944701
vt 0.636682 0.944508
vt 0.944200 0.321816
vt 0.924691 0.321816
vt 0.924691 0.021116
vt 0.944200 0.021116
vt 0.749017 0.824087
vt 0.735984 0.824087
vt 0.735984 0.523415
vt 0.749017 0.523415
vt 0.377865 0.640347
vt 0.397373 0.640347
vt 0.397373 0.892119
vt 0.377865 0.892119
vt 0.289583 0.851313
vt 0.228109 0.851313
vt 0.384504 0.580314
vt 0.397537 0.580314
vt 0.371471 0.580314
vt 0.384504 0.640346
vt 0.397537 0.640346
vt 0.371472 0.640346
vt 0.410570 0.640346
vt 0.423603 0.640346
vt 0.885658 0.430176
vt 0.905166 0.430176
vt 0.905166 0.618885
vt 0.885657 0.618886
vt 0.319340 0.600324
vt 0.319340 0.580314
vt 0.332373 0.580314
vt 0.332373 0.640346
vt 0.345406 0.640346
vt 0.319340 0.640346
vt 0.319340 0.620335
vt 0.416881 0.640347
vt 0.416881 0.892119
vt 0.944511 0.670399
vt 0.957544 0.670399
vt 0.957544 0.859077
vt 0.944511 0.859077
vt 0.931478 0.670399
vt 0.931478 0.859077
vt 0.289583 0.871324
vt 0.228109 0.871324
vt 0.488768 0.640347
vt 0.501801 0.640347
vt 0.475735 0.640347
vt 0.514834 0.640347
vt 0.527866 0.640347
vt 0.436636 0.640346
vt 0.449669 0.640346
vt 0.462702 0.640347
vt 0.423603 0.500272
vt 0.735984 0.572357
vt 0.722951 0.572357
vt 0.722951 0.523416
vt 0.994687 0.402596
vt 0.983059 0.402596
vt 0.955830 0.000000
vt 0.967459 0.000000
vt 0.626730 0.426235
vt 0.638361 0.426235
vt 0.944200 0.220121
vt 0.944200 0.200110
vt 0.944200 0.240132
vt 0.944200 0.180099
vt 0.944200 0.160088
vt 0.944200 0.300166
vt 0.944200 0.280154
vt 0.944200 0.320177
vt 0.944200 0.260143
vt 0.944200 0.060033
vt 0.944200 0.040022
vt 0.944200 0.080044
vt 0.944200 0.020011
vt 0.944200 0.000000
vt 0.944200 0.140077
vt 0.944200 0.120066
vt 0.944200 0.100055
vt 0.475735 0.440240
vt 0.475735 0.420230
vt 0.475735 0.460251
vt 0.436636 0.460251
vt 0.449669 0.460251
vt 0.683935 0.338922
vt 0.703443 0.338922
vt 0.703443 0.360884
vt 0.683935 0.360884
vt 0.462702 0.460251
vt 0.762050 0.756276
vt 0.762050 0.778239
vt 0.267208 0.778316
vt 0.280241 0.778316
vt 0.280241 0.800279
vt 0.136558 0.032971
vt 0.117050 0.032971
vt 0.117050 0.011010
vt 0.136558 0.011010
vt 0.644918 0.338922
vt 0.664427 0.338922
vt 0.664235 0.361193
vt 0.097541 0.032971
vt 0.097541 0.011010
vt 0.651394 0.680209
vt 0.664427 0.680209
vt 0.664427 0.702172
vt 0.651394 0.702172
vt 0.771408 0.804976
vt 0.771408 0.818345
vt 0.762050 0.818345
vt 0.762050 0.804976
vt 0.078033 0.032971
vt 0.078033 0.011010
vt 0.638361 0.680209
vt 0.638361 0.702172
vt 0.722951 0.338922
vt 0.722951 0.360301
vt 0.058525 0.032971
vt 0.058525 0.011010
vt 0.289583 0.891335
vt 0.309092 0.811291
vt 0.309092 1.000000
vt 0.289583 1.000000
vt 0.039017 0.032971
vt 0.039017 0.011010
vt 0.228110 0.778316
vt 0.241142 0.778316
vt 0.241142 0.800279
vt 0.228110 0.799696
vt 0.625410 0.338922
vt 0.625410 0.360884
vt 0.309092 0.831302
vt 0.318451 0.831302
vt 0.780765 0.804976
vt 0.780765 0.818345
vt 0.318451 0.811291
vt 0.306307 0.778316
vt 0.319340 0.778316
vt 0.319340 0.800279
vt 0.306307 0.800279
vt 0.410570 0.500272
vt 0.029489 0.911322
vt 0.029487 0.891312
vt 0.039101 0.891314
vt 0.039103 0.911324
vt 0.078202 0.911320
vt 0.078199 0.891309
vt 0.091232 0.891308
vt 0.091235 0.911318
vt 0.039098 0.871303
vt 0.039103 0.811202
vt 0.052136 0.811201
vt 0.052131 0.871302
vt 0.827215 0.943971
vt 0.827215 0.890518
vt 0.052136 0.911323
vt 0.052134 0.891312
vt 0.065166 0.891311
vt 0.065169 0.911321
vt 0.879334 0.890517
vt 0.065164 0.871300
vt 0.078197 0.871299
vt 0.091230 0.871297
vt 0.586392 0.478376
vt 0.605900 0.478376
vt 0.605901 0.490492
vt 0.586393 0.490492
vt 0.527867 0.466256
vt 0.547375 0.466256
vt 0.547376 0.478376
vt 0.527867 0.478376
vt 0.547376 0.490491
vt 0.527868 0.490491
vt 0.566884 0.478376
vt 0.566885 0.490491
vt 0.625409 0.478376
vt 0.625409 0.490492
vt 0.931245 0.321816
vt 0.931245 0.427746
vt 0.918214 0.427529
vt 0.919391 0.329787
vt 0.703443 0.426235
vt 0.722951 0.426235
vt 0.722951 0.865594
vt 0.703443 0.865594
vt 0.775083 0.000000
vt 0.788116 0.000000
vt 0.788116 0.439379
vt 0.775083 0.439379
vt 0.636682 0.783812
vt 0.651394 0.889729
vt 0.638361 0.889729
vt 0.520980 0.827903
vt 0.507947 0.827904
vt 0.507947 0.640347
vt 0.520980 0.640347
vt 0.664427 0.426235
vt 0.683935 0.426235
vt 0.683935 0.865594
vt 0.749017 0.000000
vt 0.762050 0.000000
vt 0.762050 0.439379
vt 0.605902 0.000000
vt 0.625410 0.000000
vt 0.625408 0.439360
vt 0.605900 0.439360
vt 0.527869 0.000000
vt 0.547377 0.000000
vt 0.547375 0.439360
vt 0.527867 0.439360
vt 0.905183 0.427312
vt 0.907538 0.337758
vt 0.735984 0.000000
vt 0.664427 0.889729
vt 0.722951 0.000000
vt 0.722951 0.439379
vt 0.757306 0.502301
vt 0.788116 0.910527
vt 0.788116 0.890516
vt 0.788116 0.930538
vt 0.788116 0.870506
vt 0.788116 0.850495
vt 0.788116 0.830484
vt 0.227148 0.929268
vt 0.214154 0.928237
vt 0.216272 0.877365
vt 0.227148 0.866172
vt 0.516632 0.854754
vt 0.506630 0.866775
vt 0.286634 0.942254
vt 0.267126 0.942254
vt 0.267126 0.891335
vt 0.286634 0.891335
vt 0.784358 0.884120
vt 0.722951 0.884120
vt 0.586391 0.439360
vt 0.605900 0.466257
vt 0.586392 0.466257
vt 0.784358 0.824087
vt 0.722951 0.824087
vt 0.727300 0.466235
vt 0.566883 0.439360
vt 0.566883 0.466256
vt 0.494915 0.827904
vt 0.496628 0.878792
vt 0.827215 0.830485
vt 0.625408 0.466257
vt 0.566885 0.502611
vt 0.547377 0.502611
vt 0.586393 0.502611
vt 0.605902 0.502611
vt 0.625410 0.502611
vt 0.784358 0.904131
vt 0.722952 0.904131
vt 0.214154 0.887039
vt 0.214154 0.907036
vt 0.202420 0.906711
vt 0.202420 0.886714
vt 0.202420 0.926708
vt 0.190686 0.926382
vt 0.190686 0.906385
vt 0.190686 0.866391
vt 0.190686 0.886388
vt 0.175575 0.886168
vt 0.175575 0.866172
vt 0.202420 0.866717
vt 0.214154 0.867042
vt 0.214154 0.927033
vt 0.586390 0.906264
vt 0.586390 0.824602
vt 0.735984 0.502301
vt 0.749017 0.502301
vt 0.885657 0.632254
vt 0.905165 0.632254
vt 0.905165 0.645623
vt 0.885657 0.645623
vt 0.389557 0.892119
vt 0.409065 0.892119
vt 0.409065 0.913236
vt 0.389557 0.913236
vt 0.905165 0.658992
vt 0.885657 0.658992
vt 0.866149 0.618886
vt 0.866149 0.632254
vt 0.905183 0.321816
vt 0.905183 0.021116
vt 0.762050 0.824087
vt 0.762050 0.523415
vt 0.358356 0.905488
vt 0.338848 0.905488
vt 0.358356 0.918856
vt 0.338848 0.918857
vt 0.905183 0.000000
vt 0.924691 0.000000
vt 0.762050 0.502301
vt 0.782638 0.791607
vt 0.782638 0.804976
vt 0.762050 0.791607
vt 0.782638 0.778239
vt 0.840248 0.670399
vt 0.840248 0.690410
vt 0.827215 0.690410
vt 0.827215 0.670399
vt 0.840248 0.750442
vt 0.840248 0.770452
vt 0.827215 0.770452
vt 0.827215 0.750442
vt 0.840248 0.710420
vt 0.840248 0.730431
vt 0.827215 0.730431
vt 0.827215 0.710420
vt 0.866314 0.710420
vt 0.866314 0.730431
vt 0.853281 0.730431
vt 0.853281 0.710420
vt 0.866314 0.750442
vt 0.866314 0.770452
vt 0.853281 0.770452
vt 0.853281 0.750442
vt 0.814182 0.670399
vt 0.814182 0.690410
vt 0.801149 0.690409
vt 0.801149 0.670399
vt 0.866314 0.790463
vt 0.866314 0.810474
vt 0.853281 0.810474
vt 0.853281 0.790463
vt 0.814182 0.710420
vt 0.814182 0.730431
vt 0.801149 0.730431
vt 0.801149 0.710420
vt 0.814182 0.750441
vt 0.814182 0.770452
vt 0.801149 0.770452
vt 0.801149 0.750441
vt 0.788116 0.710420
vt 0.788116 0.690409
vt 0.788116 0.730431
vt 0.866314 0.830484
vt 0.853281 0.830484
vt 0.879346 0.810474
vt 0.879346 0.830484
vt 0.879346 0.770452
vt 0.879346 0.790463
vt 0.840248 0.790463
vt 0.840248 0.810474
vt 0.879346 0.730431
vt 0.879346 0.750442
vt 0.853281 0.690410
vt 0.788116 0.670399
vt 0.840248 0.830484
vt 0.788116 0.750441
vt 0.293274 0.800279
vt 0.306307 0.811291
vt 0.293274 0.811291
vt 0.280241 0.811291
vt 0.866149 0.430176
vt 0.967459 0.188696
vt 0.924674 0.430176
vt 0.924674 0.618885
vt 0.918445 0.670399
vt 0.918445 0.859077
vt 0.608064 0.913104
vt 0.618901 0.896465
vt 0.629738 0.903892
vt 0.618901 0.920531
vt 0.608064 0.840907
vt 0.618901 0.824268
vt 0.629738 0.831695
vt 0.618901 0.848334
vt 0.597227 0.857546
vt 0.608064 0.864973
vt 0.629738 0.855761
vt 0.618901 0.872400
vt 0.586390 0.874185
vt 0.597227 0.881612
vt 0.586390 0.898251
vt 0.608064 0.889039
vt 0.597227 0.905678
vt 0.065169 0.811199
vt 0.629738 0.879826
vt 0.319340 0.811291
vt 0.267126 0.944793
vt 0.866314 0.943971
vt 0.866314 0.890517
vt 0.664427 0.373452
vt 0.241142 0.811291
vt 0.879346 0.943971
vt 0.012863 0.871432
vt 0.013037 0.811205
vt 0.026070 0.811203
vt 0.029486 0.871289
vt 0.524909 0.943836
vt 0.512046 0.943373
vt 0.511876 0.931577
vt 0.524909 0.931577
vt 0.664427 0.254182
vt 0.683935 0.254182
vt 0.306307 0.693572
vt 0.319340 0.693572
vt 0.625410 0.254182
vt 0.644918 0.254182
vt 0.228109 0.693572
vt 0.241142 0.693572
vt 0.058525 0.117705
vt 0.039017 0.117705
vt 0.078033 0.117705
vt 0.703443 0.254182
vt 0.722951 0.254182
vt 0.638361 0.595465
vt 0.651394 0.595465
vt 0.097541 0.117705
vt 0.664427 0.595465
vt 0.117050 0.117705
vt 0.136558 0.117705
vt 0.214714 0.670261
vt 0.227607 0.670237
vt 0.227648 0.693327
vt 0.214755 0.693352
vt 0.267208 0.693572
vt 0.280241 0.693572
vt 0.762050 0.671532
vt 0.775083 0.671532
vt 0.788116 0.671532
vt 0.775083 0.648436
vt 0.788116 0.648436
vt 0.162583 0.670359
vt 0.175616 0.670335
vt 0.175657 0.693425
vt 0.162624 0.693449
vt 0.019508 0.140797
vt 0.000000 0.140797
vt 0.000000 0.117705
vt 0.019508 0.117705
vt 0.117631 0.811543
vt 0.130659 0.811196
vt 0.131243 0.834279
vt 0.118215 0.834626
vt 0.683935 0.231088
vt 0.703443 0.231088
vt 0.762050 0.648436
vt 0.983059 0.261280
vt 0.983059 0.334825
vt 0.967459 0.334825
vt 0.967459 0.261280
vt 0.267208 0.670477
vt 0.280241 0.670477
vt 0.136558 0.140797
vt 0.117050 0.140797
vt 0.644918 0.231088
vt 0.664427 0.231088
vt 0.097541 0.140797
vt 0.651394 0.572370
vt 0.664427 0.572370
vt 0.104602 0.811890
vt 0.105186 0.834973
vt 0.091574 0.812238
vt 0.092158 0.835320
vt 0.078033 0.140797
vt 0.722951 0.231088
vt 0.058525 0.140797
vt 0.636037 0.678150
vt 0.636037 0.751689
vt 0.625541 0.751578
vt 0.625541 0.678038
vt 0.039017 0.140797
vt 0.228110 0.670477
vt 0.241142 0.670477
vt 0.625410 0.231088
vt 0.306307 0.670477
vt 0.319340 0.670477
vt 0.567129 0.576220
vt 0.547621 0.576188
vt 0.547736 0.502643
vt 0.567244 0.502676
vt 0.846641 0.596859
vt 0.866149 0.596860
vt 0.866149 0.670399
vt 0.846641 0.670399
vt 0.306307 0.596929
vt 0.319340 0.596929
vt 0.606146 0.576284
vt 0.586638 0.576252
vt 0.586752 0.502708
vt 0.606261 0.502740
vt 0.228109 0.596929
vt 0.241142 0.596929
vt 0.827133 0.596859
vt 0.827133 0.670399
vt 0.078033 0.214337
vt 0.058525 0.214337
vt 0.703443 0.157543
vt 0.722951 0.157543
vt 0.638361 0.498822
vt 0.651394 0.498822
vt 0.638361 0.572370
vt 0.807624 0.073539
vt 0.788116 0.073539
vt 0.807624 0.000000
vt 0.175485 0.596802
vt 0.188518 0.596778
vt 0.188649 0.670310
vt 0.201551 0.596753
vt 0.201681 0.670286
vt 0.664427 0.498822
vt 0.827133 0.073539
vt 0.827133 0.000000
vt 0.136558 0.214337
vt 0.117050 0.214337
vt 0.267208 0.596929
vt 0.280241 0.596929
vt 0.636037 0.824268
vt 0.625541 0.824157
vt 0.762050 0.574889
vt 0.775083 0.574889
vt 0.528113 0.576156
vt 0.528228 0.502611
vt 0.019508 0.214337
vt 0.000000 0.214337
vt 0.162453 0.596827
vt 0.788116 0.574889
vt 0.775083 0.502301
vt 0.788116 0.502301
vt 0.162324 0.524255
vt 0.175357 0.524230
vt 0.019508 0.286916
vt 0.000000 0.286916
vt 0.892379 0.742971
vt 0.879346 0.742971
vt 0.879346 0.670399
vt 0.892379 0.670399
vt 0.547508 0.648772
vt 0.527999 0.648740
vt 0.373957 0.905488
vt 0.373957 0.918857
vt 0.267208 0.524342
vt 0.280241 0.524342
vt 0.136558 0.286916
vt 0.117050 0.286916
vt 0.586524 0.648836
vt 0.567016 0.648804
vt 0.827133 0.146118
vt 0.807624 0.146118
vt 0.651394 0.426235
vt 0.905412 0.742971
vt 0.905412 0.670399
vt 0.918445 0.742971
vt 0.788116 0.146118
vt 0.703443 0.084959
vt 0.722951 0.084959
vt 0.078033 0.286916
vt 0.058525 0.286916
vt 0.373957 0.892119
vt 0.363460 0.899437
vt 0.827133 0.524281
vt 0.846641 0.524281
vt 0.228109 0.524342
vt 0.241142 0.524342
vt 0.606032 0.648868
vt 0.306307 0.524342
vt 0.319340 0.524342
vt 0.866149 0.524281
vt 0.846641 0.000000
vt 0.866149 0.000000
vt 0.306307 0.000000
vt 0.319340 0.000000
vt 0.228109 0.000000
vt 0.241142 0.000000
vt 0.078033 0.811196
vt 0.058525 0.811196
vt 0.254175 0.000000
vt 0.254175 0.524342
vt 0.807624 0.670399
vt 0.267208 0.000000
vt 0.136558 0.811196
vt 0.117050 0.811196
vt 0.905058 0.253992
vt 0.885693 0.429346
vt 0.885549 0.253977
vt 0.280241 0.000000
vt 0.293274 0.000000
vt 0.293274 0.524342
vt 0.019508 0.811196
vt 0.000000 0.811196
vt 0.606052 0.823426
vt 0.605900 0.733827
vt 0.625541 0.648899
vt 0.625541 0.824268
vt 0.214584 0.596729
vt 0.214455 0.524157
vt 0.227348 0.524133
vt 0.227477 0.596705
vt 0.905166 0.107863
vt 0.885658 0.107848
vt 0.885675 0.084754
vt 0.905183 0.084769
vt 0.866149 0.107833
vt 0.866166 0.084739
vt 0.474908 0.901627
vt 0.494416 0.901627
vt 0.494416 0.975172
vt 0.474908 0.975172
vt 0.905111 0.181408
vt 0.885603 0.181393
vt 0.474908 0.829043
vt 0.494416 0.829043
vt 0.722951 0.371895
vt 0.136558 0.866172
vt 0.156066 0.866172
vt 0.156066 0.920364
vt 0.136558 0.920364
vt 0.175575 0.920364
vt 0.644918 0.426235
vt 0.625410 0.426235
vt 0.494915 0.932520
vt 0.524909 0.878792
vt 0.156066 0.931525
vt 0.136558 0.931525
vt 0.455978 0.975255
vt 0.461875 0.975147
vt 0.461875 0.998238
vt 0.455978 0.998345
vt 0.474908 0.975147
vt 0.474908 0.998237
vt 0.461875 0.901615
vt 0.455978 0.901722
vt 0.455978 0.829150
vt 0.461875 0.829043
vt 0.636037 0.655058
vt 0.625541 0.654946
vt 0.389557 0.905488
vt 0.389557 0.918856
vt 0.379060 0.911539
vt 0.983059 0.357919
vt 0.967459 0.357919
vt 0.000000 0.871502
vt 0.175575 0.929591
vt 0.175862 0.800930
vt 0.162829 0.800954
vt 0.149796 0.800978
vt 0.136763 0.801003
vt 0.136724 0.779044
vt 0.161236 0.778998
vt 0.172719 0.778977
vt 0.212742 0.778902
vt 0.227955 0.778873
vt 0.198510 0.801341
vt 0.188895 0.800905
vt 0.495424 0.941757
vt 0.136558 0.000000
vt 0.078202 0.811198
vt 0.091234 0.811196
vt 0.703443 0.000000
vt 0.905412 0.966531
vt 0.892379 0.966531
vt 0.918445 0.966530
vt 0.174961 0.300671
vt 0.161395 0.000024
vt 0.174428 0.000000
vt 0.963773 0.430176
vt 0.976806 0.430176
vt 0.976806 0.954407
vt 0.963773 0.954407
vt 0.989839 0.430176
vt 0.989839 0.954407
vt 0.879346 0.966531
vt 0.880484 0.911559
vt 0.440958 0.836779
vt 0.455978 0.829043
vt 0.455437 0.883214
vt 0.455978 0.932152
vt 0.442946 0.932304
vt 0.319340 0.941069
vt 0.319340 0.892119
vt 0.338848 0.941069
vt 0.213019 0.355571
vt 0.228109 0.347982
vt 0.198020 0.812510
vt 0.228016 0.813397
vt 0.228109 0.866171
vt 0.866229 0.000000
vt 0.149591 0.693474
vt 0.136558 0.693498
vt 0.131243 0.919854
vt 0.091235 0.920920
vt 0.547375 0.733731
vt 0.527867 0.733699
vt 0.566883 0.733763
vt 0.586391 0.733795
vt 0.690492 0.865594
vt 0.690492 0.875103
vt 0.703525 0.865594
vt 0.703525 0.874662
vt 0.716558 0.874156
vt 0.716558 0.865594
vt 0.319340 0.882519
vt 0.677459 0.928647
vt 0.690492 0.928647
vt 0.703525 0.928647
vt 0.716558 0.928647
vt 0.963773 0.618854
vt 0.950740 0.618854
vt 0.950740 0.430176
vt 0.937707 0.430176
vt 0.937707 0.618854
vt 0.436390 0.829043
vt 0.416881 0.829043
vt 0.436390 0.640347
vt 0.455898 0.829043
vt 0.455898 0.640347
vt 0.475406 0.640347
vt 0.475406 0.829043
vt 0.494915 0.640347
vt 0.494915 0.829043
vt 0.735984 0.635409
vt 0.488768 0.000000
vt 0.501801 0.000000
vt 0.514834 0.000000
vt 0.527866 0.020011
vt 0.527866 0.040022
vt 0.527866 0.060033
vt 0.527866 0.080044
vt 0.527866 0.100055
vt 0.527867 0.120066
vt 0.527866 0.140077
vt 0.527866 0.160088
vt 0.527866 0.180099
vt 0.527866 0.200110
vt 0.527866 0.220121
vt 0.527866 0.240132
vt 0.527866 0.260143
vt 0.527866 0.280154
vt 0.527866 0.300165
vt 0.462702 0.320176
vt 0.449669 0.320176
vt 0.436636 0.320176
vt 0.423603 0.320176
vt 0.410570 0.320176
vt 0.397537 0.320176
vt 0.384504 0.320176
vt 0.371472 0.320176
vt 0.358439 0.320176
vt 0.345406 0.320176
vt 0.332373 0.320176
vt 0.319340 0.320176
vt 0.319340 0.300165
vt 0.319340 0.280154
vt 0.319340 0.260143
vt 0.319340 0.240132
vt 0.319340 0.220121
vt 0.319340 0.200110
vt 0.319340 0.180099
vt 0.319340 0.160088
vt 0.319340 0.140077
vt 0.319340 0.120066
vt 0.319340 0.100055
vt 0.319340 0.080044
vt 0.319340 0.060033
vt 0.319340 0.040022
vt 0.319340 0.020011
vt 0.332373 0.000000
vt 0.345406 0.000000
vt 0.358439 0.000000
vt 0.371472 0.000000
vt 0.384504 0.000000
vt 0.397537 0.000000
vt 0.410570 0.000000
vt 0.423603 0.000000
vt 0.436636 0.000000
vt 0.449669 0.000000
vt 0.462702 0.000000
vt 0.475735 0.000000
vt 0.527867 0.462589
vt 0.527867 0.502611
vt 0.527867 0.482600
vn 0.000000 0.000000 -1.000000
vn 0.000000 1.000000 0.000000
vn 1.000000 -0.000000 0.000000
vn 0.000000 -0.000000 1.000000
vn -1.000000 0.000000 0.000000
vn 0.000000 0.077100 0.997000
vn 0.000900 0.021700 -0.999800
vn 0.000900 0.021400 -0.999800
vn 1.000000 0.002000 -0.008100
vn -0.000900 -0.021400 0.999800
vn -0.000000 0.998900 0.046000
vn 0.344400 0.938800 0.000000
vn 0.000000 0.649200 -0.760600
vn 0.000000 0.649100 -0.760700
vn 1.000000 -0.001400 -0.007000
vn 1.000000 0.000000 0.008000
vn 1.000000 0.000600 -0.007600
vn 0.000000 0.034500 0.999400
vn 0.000000 0.163900 -0.986500
vn 0.066900 0.824600 -0.561700
vn 0.067100 0.824600 -0.561800
vn 0.072700 0.895900 -0.438300
vn 0.067300 0.824600 -0.561700
vn 0.000900 0.021200 -0.999800
vn 0.301600 0.952100 -0.050000
vn -1.000000 -0.006800 -0.001100
vn 0.805500 0.000000 0.592600
vn 0.000000 -1.000000 -0.000000
vn 0.000300 0.006300 -1.000000
vn -0.015800 0.005900 -0.999900
vn -0.000000 0.496900 0.867800
vn -0.000000 -0.046800 0.998900
vn 0.917800 0.000000 0.397000
vn 0.328500 0.944400 -0.016100
vn -0.004900 -0.051200 0.998700
vn -1.000000 -0.003100 -0.001800
vn 0.095200 0.985300 0.142000
vn 0.304200 0.947600 0.097400
vn 0.999900 0.000000 0.010400
vn 1.000000 -0.001900 0.000200
vn 1.000000 -0.000300 -0.007300
vn 1.000000 0.001100 -0.005000
vn 0.000000 -0.001700 -1.000000
vn 0.973200 0.229800 0.000000
vn 0.000000 -0.057800 0.998300
usemtl Material
s off
f 308/1/1 294/2/1 466/3/1 469/4/1
usemtl Material_Untitled
f 280/5/2 123/6/2 3/7/2 72/8/2
f 279/9/3 70/10/3 2/11/3 67/12/3
f 278/13/4 72/14/4 3/15/4 68/16/4
f 277/17/5 73/18/5 4/19/5 69/20/5
f 276/21/5 77/22/5 8/23/5 124/24/5
f 275/25/4 76/26/4 7/27/4 125/28/4
f 274/29/3 74/30/3 5/31/3 126/32/3
f 273/33/2 79/34/2 7/35/2 76/36/2
f 221/37/5 45/38/5 336/39/5 335/40/5
f 354/41/6 344/42/6 356/43/6 362/44/6
f 270/45/2 94/46/2 19/47/2 115/48/2
f 292/49/5 282/50/5 458/51/5 461/52/5
f 174/53/1 96/54/1 449/55/1 450/56/1
f 268/57/2 97/58/2 16/59/2 88/60/2
f 267/61/2 98/62/2 22/63/2 135/64/2
f 266/65/2 90/66/2 18/67/2 136/68/2
f 265/69/3 86/70/3 14/71/3 137/72/3
f 264/73/4 88/74/4 16/75/4 138/76/4
f 263/77/5 89/78/5 17/79/5 139/80/5
f 262/81/5 85/82/5 13/83/5 140/84/5
f 261/85/4 84/86/4 12/87/4 141/88/4
f 260/89/3 82/90/3 10/91/3 142/92/3
f 259/93/2 103/94/2 12/95/2 84/96/2
f 256/97/2 147/98/2 36/99/2 118/100/2
f 255/101/2 148/102/2 56/103/2 149/104/2
f 254/105/2 143/106/2 53/107/2 150/108/2
f 253/109/3 116/110/3 34/111/3 151/112/3
f 252/113/4 118/114/4 36/115/4 152/116/4
f 251/117/5 119/118/5 37/119/5 153/120/5
f 242/121/5 123/122/5 41/123/5 158/124/5
f 241/125/4 122/126/4 40/127/4 159/128/4
f 240/129/3 120/130/3 38/131/3 160/132/3
f 239/133/2 161/134/2 52/135/2 100/136/2
f 238/137/2 162/138/2 57/139/2 163/140/2
f 237/141/2 127/142/2 42/143/2 164/144/2
f 236/145/2 165/146/2 51/147/2 99/148/2
f 235/149/2 166/150/2 58/151/2 167/152/2
f 234/153/2 134/154/2 50/155/2 168/156/2
f 233/157/2 169/158/2 40/159/2 122/160/2
f 232/161/2 170/162/2 59/163/2 171/164/2
f 231/165/2 133/166/2 49/167/2 172/168/2
f 230/169/1 229/170/1 447/171/1 455/172/1
f 228/173/2 175/174/2 47/175/2 95/176/2
f 227/177/2 176/178/2 61/179/2 177/180/2
f 226/181/3 87/182/3 269/183/3 96/184/3
f 225/185/2 179/186/2 33/187/2 81/188/2
f 224/189/2 180/190/2 62/191/2 181/192/2
f 187/193/3 173/194/3 453/195/3 60/196/3
f 353/197/2 344/198/2 343/199/2 129/200/2
f 354/201/2 63/202/2 184/203/2 342/204/2
f 355/205/2 183/206/2 130/207/2 346/208/2
f 436/209/7 375/210/7 363/211/7 395/212/7
f 85/213/4 218/213/4 337/213/4 319/213/4
f 217/214/2 188/215/2 44/216/2 91/217/2
f 216/218/2 191/219/2 30/220/2 112/221/2
f 215/222/2 192/223/2 64/224/2 193/225/2
f 214/226/2 114/227/2 32/228/2 194/229/2
f 213/230/3 110/231/3 28/232/3 195/233/3
f 212/234/4 112/235/4 30/236/4 196/237/4
f 211/238/5 113/239/5 31/240/5 197/241/5
f 210/242/5 109/243/5 27/244/5 198/245/5
f 209/246/4 108/247/4 26/248/4 199/249/4
f 208/250/3 106/251/3 24/252/3 200/253/3
f 207/254/2 201/255/2 26/256/2 108/257/2
f 206/258/2 202/259/2 65/260/2 203/261/2
f 205/262/2 89/263/2 41/264/2 204/265/2
f 202/259/2 205/262/2 204/265/2 65/260/2
f 55/266/2 145/267/2 205/262/2 202/259/2
f 145/267/2 17/268/2 89/263/2 205/262/2
f 143/106/2 206/258/2 203/261/2 53/107/2
f 23/269/2 105/270/2 206/258/2 143/106/2
f 105/270/2 55/266/2 202/259/2 206/258/2
f 103/94/2 207/254/2 108/257/2 12/95/2
f 53/107/2 203/261/2 207/254/2 103/94/2
f 203/261/2 65/260/2 201/255/2 207/254/2
f 142/92/3 10/91/3 106/251/3 208/250/3
f 141/88/4 12/87/4 108/247/4 209/246/4
f 140/84/5 13/83/5 109/243/5 210/242/5
f 139/80/5 17/79/5 113/239/5 211/238/5
f 138/76/4 16/75/4 112/235/4 212/234/4
f 137/72/3 14/71/3 110/231/3 213/230/3
f 192/223/2 214/226/2 194/229/2 64/224/2
f 52/135/2 136/68/2 214/226/2 192/223/2
f 136/68/2 18/67/2 114/227/2 214/226/2
f 133/166/2 215/222/2 193/225/2 49/167/2
f 22/63/2 100/136/2 215/222/2 133/166/2
f 100/136/2 52/135/2 192/223/2 215/222/2
f 97/58/2 216/218/2 112/221/2 16/59/2
f 49/167/2 193/225/2 216/218/2 97/58/2
f 193/225/2 64/224/2 191/219/2 216/218/2
f 6/271/1 394/272/1 393/273/1 75/274/1
f 630/275/4 430/276/4 445/277/4 631/278/4
f 94/46/2 217/214/2 91/217/2 19/47/2
f 11/213/4 107/213/4 324/213/4 318/213/4
f 71/213/4 4/213/4 315/213/4 314/213/4
f 452/279/3 414/280/3 397/20/3 178/281/3
f 46/282/3 131/283/3 442/284/3 427/285/3
f 131/286/1 178/287/1 397/288/1 442/289/1
f 470/290/5 484/291/5 289/292/5 290/293/5
f 109/213/4 13/213/4 320/213/4 326/213/4
f 375/210/8 436/209/8 429/294/8 370/295/8
f 395/296/9 363/297/9 364/298/9 396/299/9
f 367/300/10 371/301/10 380/302/10 381/303/10
f 257/304/4 127/305/4 382/306/4 387/307/4
f 128/308/3 272/309/3 388/310/3 383/311/3
f 117/312/1 35/313/1 403/314/1 402/315/1
f 107/213/4 25/213/4 325/213/4 324/213/4
f 630/275/4 633/316/4 433/317/4 430/276/4
f 4/213/4 73/213/4 316/213/4 315/213/4
f 27/213/4 109/213/4 326/213/4 327/213/4
f 83/213/4 11/213/4 318/213/4 317/213/4
f 13/213/4 85/213/4 319/213/4 320/213/4
f 25/213/4 71/213/4 314/213/4 325/213/4
f 180/190/2 223/318/2 182/319/2 62/191/2
f 47/175/2 132/320/2 223/318/2 180/190/2
f 110/321/2 224/189/2 181/192/2 28/322/2
f 14/323/2 95/176/2 224/189/2 110/321/2
f 95/176/2 47/175/2 180/190/2 224/189/2
f 74/324/2 225/185/2 81/188/2 5/325/2
f 28/322/2 181/192/2 225/185/2 74/324/2
f 181/192/2 62/191/2 179/186/2 225/185/2
f 15/326/1 111/327/1 229/328/1 230/329/1
f 39/330/2 87/331/2 226/332/2 176/178/2
f 120/333/2 227/177/2 177/180/2 38/334/2
f 1/335/2 121/336/2 227/177/2 120/333/2
f 121/336/2 39/330/2 176/178/2 227/177/2
f 86/271/2 228/173/2 95/176/2 14/323/2
f 38/334/2 177/180/2 228/173/2 86/271/2
f 177/180/2 61/179/2 175/174/2 228/173/2
f 6/271/1 117/312/1 402/315/1 394/272/1
f 35/313/1 83/337/1 425/338/1 403/314/1
f 61/339/3 176/340/3 174/341/3 173/342/3
f 175/343/3 61/339/3 173/342/3 187/344/3
f 632/345/4 426/346/4 433/317/4 633/316/4
f 170/162/2 231/165/2 172/168/2 59/163/2
f 51/147/2 135/64/2 231/165/2 170/162/2
f 135/64/2 22/63/2 133/166/2 231/165/2
f 106/347/2 232/161/2 171/164/2 24/348/2
f 10/349/2 99/148/2 232/161/2 106/347/2
f 99/148/2 51/147/2 170/162/2 232/161/2
f 70/350/2 233/157/2 122/160/2 2/351/2
f 24/348/2 171/164/2 233/157/2 70/350/2
f 171/164/2 59/163/2 169/158/2 233/157/2
f 166/150/2 234/153/2 168/156/2 58/151/2
f 33/187/2 115/48/2 234/153/2 166/150/2
f 115/48/2 19/47/2 134/154/2 234/153/2
f 116/352/2 235/149/2 167/152/2 34/353/2
f 5/325/2 81/188/2 235/149/2 116/352/2
f 81/188/2 33/187/2 166/150/2 235/149/2
f 82/354/2 236/145/2 99/148/2 10/349/2
f 34/353/2 167/152/2 236/145/2 82/354/2
f 167/152/2 58/151/2 165/146/2 236/145/2
f 162/138/2 237/141/2 164/144/2 57/139/2
f 44/216/2 128/355/2 237/141/2 162/138/2
f 388/310/3 445/356/3 423/357/3 384/358/3
f 134/154/2 238/137/2 163/140/2 50/155/2
f 19/47/2 91/217/2 238/137/2 134/154/2
f 91/217/2 44/216/2 162/138/2 238/137/2
f 98/62/2 239/133/2 100/136/2 22/63/2
f 50/155/2 163/140/2 239/133/2 98/62/2
f 163/140/2 57/139/2 161/134/2 239/133/2
f 66/359/3 1/360/3 120/130/3 240/129/3
f 67/361/4 2/362/4 122/126/4 241/125/4
f 68/363/5 3/364/5 123/122/5 242/121/5
f 111/85/1 243/365/1 157/366/1 29/116/1
f 15/88/1 101/367/1 243/365/1 111/85/1
f 75/113/1 244/368/1 78/369/1 6/28/1
f 29/116/1 157/366/1 244/368/1 75/113/1
f 121/13/1 245/370/1 156/371/1 39/249/1
f 1/16/1 66/372/1 245/370/1 121/13/1
f 87/246/1 246/373/1 101/367/1 15/88/1
f 39/249/1 156/371/1 246/373/1 87/246/1
f 107/73/1 247/374/1 155/375/1 25/128/1
f 11/76/1 102/376/1 247/374/1 107/73/1
f 71/125/1 248/377/1 69/378/1 4/361/1
f 25/128/1 155/375/1 248/377/1 71/125/1
f 117/25/1 249/379/1 154/380/1 35/237/1
f 6/28/1 78/369/1 249/379/1 117/25/1
f 83/234/1 250/381/1 102/376/1 11/76/1
f 35/237/1 154/380/1 250/381/1 83/234/1
f 124/24/5 8/23/5 119/118/5 251/117/5
f 125/28/4 7/27/4 118/114/4 252/113/4
f 126/32/3 5/31/3 116/110/3 253/109/3
f 148/102/2 254/105/2 150/108/2 56/103/2
f 54/382/2 144/383/2 254/105/2 148/102/2
f 144/383/2 23/269/2 143/106/2 254/105/2
f 114/227/2 255/101/2 149/104/2 32/228/2
f 18/67/2 104/384/2 255/101/2 114/227/2
f 104/384/2 54/382/2 148/102/2 255/101/2
f 79/34/2 256/97/2 118/100/2 7/35/2
f 32/228/2 149/104/2 256/97/2 79/34/2
f 149/104/2 56/103/2 147/98/2 256/97/2
f 127/142/2 257/385/2 146/386/2 42/143/2
f 486/387/1 476/388/1 306/389/1 302/390/1
f 90/66/2 258/391/2 104/384/2 18/67/2
f 42/143/2 146/386/2 258/391/2 90/66/2
f 471/392/5 470/290/5 290/293/5 281/393/5
f 473/394/5 471/395/5 281/396/5 282/50/5
f 483/397/4 472/398/4 298/399/4 305/400/4
f 481/401/1 487/402/1 307/403/1 294/2/1
f 472/398/4 474/404/4 299/405/4 298/399/4
f 475/406/5 473/407/5 282/408/5 292/409/5
f 43/410/3 454/411/3 424/412/3 411/413/3
f 474/404/4 477/414/4 288/415/4 299/405/4
f 479/416/5 475/406/5 292/409/5 293/417/5
f 476/388/1 480/418/1 304/419/1 306/389/1
f 477/414/4 478/420/4 287/421/4 288/415/4
f 147/98/2 259/93/2 84/96/2 36/99/2
f 56/103/2 150/108/2 259/93/2 147/98/2
f 150/108/2 53/107/2 103/94/2 259/93/2
f 151/112/3 34/111/3 82/90/3 260/89/3
f 152/116/4 36/115/4 84/86/4 261/85/4
f 153/120/5 37/119/5 85/82/5 262/81/5
f 158/124/5 41/123/5 89/78/5 263/77/5
f 159/128/4 40/127/4 88/74/4 264/73/4
f 160/132/3 38/131/3 86/70/3 265/69/3
f 161/134/2 266/65/2 136/68/2 52/135/2
f 57/139/2 164/144/2 266/65/2 161/134/2
f 164/144/2 42/143/2 90/66/2 266/65/2
f 165/146/2 267/61/2 135/64/2 51/147/2
f 58/151/2 168/156/2 267/61/2 165/146/2
f 168/156/2 50/155/2 98/62/2 267/61/2
f 169/158/2 268/57/2 88/60/2 40/159/2
f 59/163/2 172/168/2 268/57/2 169/158/2
f 172/168/2 49/167/2 97/58/2 268/57/2
f 426/346/4 632/345/4 624/422/4 443/55/4
f 176/278/1 226/423/1 96/424/1 174/425/1
f 179/186/2 270/45/2 115/48/2 33/187/2
f 62/191/2 182/319/2 270/45/2 179/186/2
f 73/213/4 27/213/4 327/213/4 316/213/4
f 478/420/4 485/426/4 297/427/4 287/421/4
f 480/428/5 479/429/5 293/430/5 304/431/5
f 482/432/1 481/401/1 294/2/1 308/433/1
f 43/434/1 411/435/1 439/288/1 21/287/1
f 21/410/3 439/436/3 413/437/3 448/411/3
f 448/435/1 413/434/1 414/423/1 452/438/1
f 484/439/5 483/440/5 305/441/5 289/442/5
f 487/402/1 486/387/1 302/390/1 307/403/1
f 188/215/2 272/443/2 128/355/2 44/216/2
f 191/219/2 273/33/2 76/36/2 30/220/2
f 64/224/2 194/229/2 273/33/2 191/219/2
f 194/229/2 32/228/2 79/34/2 273/33/2
f 195/233/3 28/232/3 74/30/3 274/29/3
f 196/237/4 30/236/4 76/26/4 275/25/4
f 197/241/5 31/240/5 77/22/5 276/21/5
f 198/245/5 27/244/5 73/18/5 277/17/5
f 199/249/4 26/248/4 72/14/4 278/13/4
f 200/253/3 24/252/3 70/10/3 279/9/3
f 201/255/2 280/5/2 72/8/2 26/256/2
f 65/260/2 204/265/2 280/5/2 201/255/2
f 204/265/2 41/264/2 123/6/2 280/5/2
f 313/444/11 285/445/11 284/446/11 291/447/11
f 312/448/2 286/449/2 287/450/2 297/451/2
f 283/452/12 458/453/12 457/454/12 310/455/12
f 173/194/3 174/456/3 450/457/3 453/195/3
f 309/458/2 295/459/2 296/460/2 301/461/2
f 291/447/2 284/446/2 295/459/2 309/458/2
f 269/457/1 230/169/1 455/172/1 451/462/1
f 295/459/2 310/455/2 300/463/2 296/460/2
f 284/446/2 283/452/2 310/455/2 295/459/2
f 286/449/2 311/464/2 288/465/2 287/450/2
f 296/460/2 300/463/2 311/464/2 286/449/2
f 301/461/2 296/460/2 286/449/2 312/448/2
f 329/466/13 359/467/13 332/468/13 331/469/13
f 322/470/14 341/471/14 328/472/14 358/473/14
f 358/473/13 328/472/13 339/474/13 357/475/13
f 360/476/13 329/466/13 331/469/13 330/477/13
f 359/467/13 335/478/13 336/479/13 332/468/13
f 376/480/15 355/481/15 346/482/15 368/483/15
f 325/484/1 314/485/1 271/486/1 92/487/1
f 320/488/5 319/489/5 185/490/5 184/491/5
f 376/492/16 444/417/16 419/409/16 347/493/16 355/494/16
f 220/495/3 352/496/3 434/497/3 425/498/3
f 318/499/1 324/500/1 93/501/1 186/284/1
f 327/502/5 326/503/5 63/504/5 45/38/5
f 314/505/1 315/506/1 222/507/1 271/508/1
f 317/509/1 318/510/1 186/511/1 220/512/1
f 351/513/17 373/514/17 368/483/17 346/482/17
f 316/515/5 327/502/5 45/38/5 221/37/5
f 324/500/1 325/484/1 92/487/1 93/501/1
f 434/408/3 352/516/3 347/493/3 419/409/3
f 326/503/5 320/488/5 184/491/5 63/504/5
f 315/517/5 316/515/5 221/37/5 222/518/5
f 45/38/5 63/504/5 323/519/5 336/39/5
f 343/199/2 342/204/2 349/520/2 348/521/2
f 342/204/2 184/203/2 185/522/2 349/520/2
f 130/207/2 129/200/2 350/523/2 345/524/2
f 129/200/2 343/199/2 348/521/2 350/523/2
f 346/208/2 130/207/2 345/524/2 351/525/2
f 183/526/3 20/527/3 339/528/3 338/529/3
f 352/496/3 220/495/3 322/530/3 358/531/3
f 20/532/18 347/533/18 357/534/18 339/535/18
f 344/42/6 353/536/6 361/537/6 356/43/6
f 220/512/19 186/511/19 341/471/19 322/470/19
f 92/538/19 271/508/19 333/539/19 334/540/19
f 63/541/6 354/41/6 362/44/6 323/542/6
f 183/206/2 353/197/2 129/200/2 130/207/2
f 222/518/5 221/37/5 335/40/5 321/543/5
f 93/544/19 92/538/19 334/540/19 340/545/19
f 344/198/2 354/201/2 342/204/2 343/199/2
f 186/511/19 93/544/19 340/545/19 341/471/19
f 347/546/3 352/496/3 358/531/3 357/547/3
f 347/548/2 20/170/2 183/206/2 355/205/2
f 334/540/14 333/539/14 359/467/14 329/466/14
f 333/539/14 321/549/14 335/478/14 359/467/14
f 328/472/13 360/476/13 330/477/13 339/474/13
f 341/471/14 340/545/14 360/476/14 328/472/14
f 340/545/14 334/540/14 329/466/14 360/476/14
f 339/474/14 330/477/14 361/550/14 338/551/14
f 330/477/14 331/469/14 356/552/14 361/550/14
f 331/469/14 332/468/14 362/553/14 356/552/14
f 332/468/14 336/479/14 323/554/14 362/553/14
f 271/508/19 222/507/19 321/549/19 333/539/19
f 353/536/6 183/555/6 338/556/6 361/537/6
f 375/557/20 370/558/20 369/559/20 365/560/20
f 369/559/21 368/561/21 373/562/21 372/563/21
f 366/564/22 374/565/22 371/566/22 367/567/22
f 364/568/20 365/560/20 374/565/20 366/564/20
f 365/560/21 369/559/21 372/563/21 374/565/21
f 363/569/20 375/557/20 365/560/20 364/568/20
f 370/558/23 376/570/23 368/561/23 369/559/23
f 376/571/24 370/295/24 429/294/24 444/572/24
f 383/311/3 388/310/3 392/573/3 390/574/3
f 377/575/2 385/576/2 379/577/2 378/578/2
f 381/329/2 380/328/2 385/576/2 377/575/2
f 388/579/1 377/580/1 80/581/1 392/582/1
f 378/578/2 379/577/2 387/583/2 382/584/2
f 384/585/2 381/329/2 377/575/2 388/586/2
f 127/305/4 237/587/4 386/588/4 382/306/4
f 237/589/3 128/308/3 383/311/3 386/590/3
f 392/273/2 80/272/2 9/591/2 390/592/2
f 390/592/2 9/591/2 389/593/2 391/594/2
f 382/306/4 386/588/4 391/595/4 389/596/4
f 386/590/3 383/311/3 390/574/3 391/597/3
f 378/598/5 382/599/5 389/413/5 9/600/5
f 377/601/5 378/598/5 9/600/5 80/393/5
f 442/602/2 397/603/2 398/604/2 427/605/2
f 441/606/2 395/607/2 396/608/2 408/609/2
f 440/610/2 410/611/2 409/612/2 399/613/2
f 439/614/2 411/615/2 412/616/2 413/617/2
f 438/618/2 404/619/2 405/620/2 415/621/2
f 437/622/2 406/623/2 407/624/2 428/625/2
f 435/626/2 416/627/2 417/628/2 418/629/2
f 432/630/2 420/631/2 421/632/2 422/633/2
f 431/634/2 400/635/2 401/636/2 423/637/2
f 420/631/2 431/634/2 423/637/2 421/632/2
f 409/612/2 408/609/2 431/634/2 420/631/2
f 408/609/2 396/608/2 400/635/2 431/634/2
f 406/623/2 432/630/2 422/633/2 407/624/2
f 398/604/2 399/613/2 432/630/2 406/623/2
f 399/613/2 409/612/2 420/631/2 432/630/2
f 407/624/2 422/633/2 433/638/2 426/639/2
f 422/633/2 421/632/2 430/640/2 433/638/2
f 416/627/2 434/641/2 419/642/2 417/628/2
f 403/643/2 425/644/2 434/641/2 416/627/2
f 404/619/2 435/626/2 418/629/2 405/620/2
f 394/645/2 402/646/2 435/626/2 404/619/2
f 402/646/2 403/643/2 416/627/2 435/626/2
f 405/620/2 418/629/2 436/647/2 395/607/2
f 418/629/2 417/628/2 429/648/2 436/647/2
f 427/605/2 398/604/2 406/623/2 437/622/2
f 411/615/2 438/618/2 415/621/2 412/616/2
f 424/649/2 393/650/2 438/618/2 411/615/2
f 393/650/2 394/645/2 404/619/2 438/618/2
f 397/603/2 440/610/2 399/613/2 398/604/2
f 414/651/2 413/617/2 440/610/2 397/603/2
f 413/617/2 412/616/2 410/611/2 440/610/2
f 410/611/2 441/606/2 408/609/2 409/612/2
f 412/616/2 415/621/2 441/606/2 410/611/2
f 415/621/2 405/620/2 395/607/2 441/606/2
f 428/625/2 407/624/2 426/639/2 443/652/2
f 417/628/2 419/642/2 444/653/2 429/648/2
f 421/632/2 423/637/2 445/654/2 430/640/2
f 290/655/5 289/442/5 459/656/5 460/657/5
f 281/396/5 290/655/5 460/657/5 457/658/5
f 87/659/1 15/326/1 230/329/1 269/585/1
f 132/184/4 47/660/4 189/362/4 190/181/4
f 111/327/1 29/661/1 219/662/1 229/328/1
f 47/663/3 175/343/3 187/344/3 189/664/3
f 60/665/2 131/666/2 46/667/2 456/668/2
f 447/669/2 454/670/2 43/671/2 21/672/2
f 455/673/2 447/669/2 21/672/2 446/674/2
f 446/674/2 21/672/2 448/675/2 452/676/2
f 451/677/2 455/673/2 446/674/2 449/678/2
f 450/679/2 449/678/2 48/680/2 453/681/2
f 449/678/2 446/674/2 452/676/2 48/680/2
f 310/455/12 457/454/12 460/682/12 300/463/12
f 453/681/2 48/680/2 131/666/2 60/665/2
f 48/680/2 452/676/2 178/683/2 131/666/2
f 229/170/1 219/548/1 454/644/1 447/171/1
f 289/442/5 305/441/5 464/684/5 459/656/5
f 190/685/4 189/53/4 456/56/4 46/534/4
f 282/50/5 281/396/5 457/658/5 458/51/5
f 189/686/3 187/193/3 60/196/3 456/687/3
f 294/2/1 307/403/1 468/688/1 466/3/1
f 304/431/5 293/430/5 462/689/5 463/277/5
f 293/430/5 292/49/5 461/52/5 462/689/5
f 96/687/3 269/462/3 451/690/3 449/686/3
f 303/691/25 462/692/25 461/693/25 465/694/25
f 307/695/26 303/696/26 467/697/26 468/698/26
f 501/699/1 513/700/1 486/387/1 487/402/1
f 499/701/5 511/702/5 483/440/5 484/439/5
f 498/703/1 510/704/1 481/401/1 482/432/1
f 497/705/5 509/706/5 479/429/5 480/428/5
f 496/707/4 500/708/4 485/426/4 478/420/4
f 494/709/4 496/707/4 478/420/4 477/414/4
f 493/710/1 497/711/1 480/418/1 476/388/1
f 509/712/5 507/713/5 475/406/5 479/416/5
f 492/714/4 494/709/4 477/414/4 474/404/4
f 507/713/5 504/715/5 473/407/5 475/406/5
f 490/716/4 492/714/4 474/404/4 472/398/4
f 510/704/1 501/699/1 487/402/1 481/401/1
f 511/717/4 490/716/4 472/398/4 483/397/4
f 515/718/3 591/719/3 598/720/3 489/721/3
f 504/722/5 503/723/5 471/395/5 473/394/5
f 503/724/5 502/725/5 470/290/5 471/392/5
f 513/700/1 493/710/1 476/388/1 486/387/1
f 502/725/5 499/726/5 484/291/5 470/290/5
f 527/727/5 524/728/5 499/726/5 502/725/5
f 533/729/3 517/730/3 491/731/3 508/732/3
f 537/733/4 514/734/4 488/735/4 512/736/4
f 530/737/3 515/738/3 489/739/3 505/740/3
f 538/741/1 519/742/1 493/710/1 513/700/1
f 528/743/5 527/727/5 502/725/5 503/724/5
f 558/744/1 533/745/1 609/746/1 615/747/1
f 529/748/5 528/749/5 503/723/5 504/722/5
f 536/750/4 516/751/4 490/716/4 511/717/4
f 535/752/1 526/753/1 501/699/1 510/704/1
f 516/751/4 518/754/4 492/714/4 490/716/4
f 532/755/5 529/756/5 504/715/5 507/713/5
f 531/757/3 530/737/3 505/740/3 506/758/3
f 517/759/3 531/757/3 506/758/3 491/760/3
f 518/754/4 520/761/4 494/709/4 492/714/4
f 519/742/1 522/762/1 497/711/1 493/710/1
f 520/761/4 521/763/4 496/707/4 494/709/4
f 514/764/27 539/765/27 616/766/27 613/767/27
f 521/763/4 525/768/4 500/708/4 496/707/4
f 522/769/5 534/770/5 509/706/5 497/705/5
f 523/771/1 535/752/1 510/704/1 498/703/1
f 524/772/5 536/773/5 511/702/5 499/701/5
f 525/768/4 537/733/4 512/736/4 500/708/4
f 526/753/1 538/741/1 513/700/1 501/699/1
f 551/774/1 563/775/1 538/776/1 526/777/1
f 550/778/4 562/779/4 537/780/4 525/781/4
f 549/782/5 561/783/5 536/773/5 524/772/5
f 548/784/1 560/785/1 535/786/1 523/787/1
f 547/788/5 559/789/5 534/770/5 522/769/5
f 546/790/4 550/778/4 525/781/4 521/791/4
f 584/11/1 558/744/1 615/747/1 618/660/1
f 545/792/4 546/793/4 521/763/4 520/761/4
f 544/794/1 547/795/1 522/762/1 519/742/1
f 559/796/5 557/797/5 532/755/5 534/798/5
f 543/799/4 545/800/4 520/489/4 518/801/4
f 542/802/3 556/803/3 531/804/3 517/730/3
f 556/803/3 555/805/3 530/806/3 531/804/3
f 557/797/5 554/807/5 529/756/5 532/755/5
f 541/808/4 543/799/4 518/801/4 516/809/4
f 560/785/1 551/774/1 526/777/1 535/786/1
f 561/810/4 541/811/4 516/751/4 536/750/4
f 554/812/5 553/813/5 528/749/5 529/748/5
f 539/765/27 564/814/27 619/815/27 616/766/27
f 553/816/5 552/817/5 527/727/5 528/743/5
f 563/775/1 544/818/1 519/819/1 538/776/1
f 562/820/4 539/821/4 514/734/4 537/733/4
f 558/822/3 542/802/3 517/730/3 533/729/3
f 552/817/5 549/823/5 524/728/5 527/727/5
f 578/824/5 575/825/5 549/823/5 552/817/5
f 584/826/3 567/827/3 542/802/3 558/822/3
f 588/828/4 564/829/4 539/821/4 562/820/4
f 581/830/3 565/831/3 540/832/3 555/833/3
f 589/834/1 569/835/1 544/818/1 563/775/1
f 579/597/5 578/824/5 552/817/5 553/816/5
f 571/836/28 584/837/28 618/593/28 620/591/28
f 580/838/5 579/839/5 553/813/5 554/812/5
f 587/840/4 566/841/4 541/811/4 561/810/4
f 586/842/1 577/843/1 551/774/1 560/785/1
f 566/844/4 568/845/4 543/799/4 541/808/4
f 583/846/5 580/499/5 554/807/5 557/797/5
f 582/847/3 581/830/3 555/833/3 556/848/3
f 567/849/3 582/847/3 556/848/3 542/663/3
f 568/845/4 570/850/4 545/800/4 543/799/4
f 585/364/5 583/846/5 557/797/5 559/796/5
f 569/851/1 573/852/1 547/795/1 544/794/1
f 570/853/4 572/854/4 546/793/4 545/792/4
f 564/855/28 571/836/28 620/591/28 619/856/28
f 572/857/4 576/858/4 550/778/4 546/790/4
f 573/859/5 585/860/5 559/789/5 547/788/5
f 574/861/1 586/842/1 560/785/1 548/784/1
f 575/862/5 587/863/5 561/783/5 549/782/5
f 576/858/4 588/864/4 562/779/4 550/778/4
f 577/843/1 589/834/1 563/775/1 551/774/1
f 144/865/4 54/866/4 588/864/4 576/858/4
f 113/867/5 17/868/5 587/863/5 575/862/5
f 85/869/5 37/870/5 585/860/5 573/859/5
f 23/809/4 144/865/4 576/858/4 572/857/4
f 105/871/4 23/872/4 572/854/4 570/853/4
f 37/870/5 119/873/5 583/874/5 585/860/5
f 55/875/4 105/652/4 570/850/4 568/845/4
f 119/873/5 8/876/5 580/838/5 583/874/5
f 145/791/4 55/875/4 568/845/4 566/844/4
f 17/877/4 145/878/4 566/841/4 587/840/4
f 597/879/29 374/327/29 372/880/29 596/881/29
f 8/876/5 77/882/5 579/839/5 580/838/5
f 77/882/5 31/883/5 578/884/5 579/839/5
f 54/885/4 104/886/4 564/829/4 588/828/4
f 373/887/30 351/888/30 574/861/30 596/889/30 372/890/30
f 31/883/5 113/867/5 575/862/5 578/884/5
f 555/805/3 540/891/3 515/718/3 530/806/3
f 540/891/3 565/892/3 597/893/3 593/894/3
f 591/895/1 601/896/1 599/897/1 598/898/1
f 601/896/1 592/899/1 600/900/1 599/897/1
f 602/901/1 594/902/1 592/903/1 601/904/1
f 593/905/1 602/906/1 601/896/1 591/895/1
f 597/879/1 596/881/1 602/906/1 593/905/1
f 596/907/1 595/908/1 594/902/1 602/901/1
f 306/389/1 304/419/1 463/909/1 307/403/1
f 515/718/3 540/891/3 593/894/3 591/719/3
f 608/910/31 603/911/31 604/912/31 606/913/31
f 603/911/31 607/567/31 605/914/31 604/912/31
f 469/4/1 466/3/1 603/915/1 608/916/1
f 466/3/1 468/688/1 607/499/1 603/915/1
f 468/698/5 467/697/5 605/917/5 607/918/5
f 606/913/32 604/912/32 285/919/32 313/920/32
f 613/921/33 614/922/33 611/923/33 612/924/33
f 614/922/3 609/925/3 610/926/3 611/923/3
f 617/927/3 615/901/3 609/925/3 614/922/3
f 616/928/33 617/927/33 614/922/33 613/921/33
f 619/929/33 620/930/33 617/927/33 616/928/33
f 620/930/3 618/907/3 615/901/3 617/927/3
f 488/931/27 514/764/27 613/767/27 612/932/27
f 508/579/2 495/933/2 611/836/2 610/855/2
f 495/933/2 488/934/2 612/935/2 611/836/2
f 533/745/1 508/936/1 610/937/1 609/746/1
f 500/708/4 512/736/4 488/735/4 485/426/4
f 507/713/5 509/712/5 534/798/5 532/755/5
f 307/938/34 463/886/34 462/692/34 303/691/34
f 604/912/35 605/914/35 465/939/35 285/919/35
f 309/940/3 301/941/3 312/942/3 297/943/3 485/944/3 621/945/3 623/946/3 622/947/3 482/948/3 308/1/3 313/949/3 291/950/3
f 605/917/36 467/697/36 303/696/36 465/951/36
f 285/445/37 465/694/37 283/452/37 284/446/37
f 465/694/38 461/693/38 458/453/38 283/452/38
f 305/400/4 298/399/4 288/415/4 464/952/4
f 300/463/12 460/682/12 459/953/12 311/464/12
f 311/464/12 459/953/12 464/954/12 288/465/12
f 349/955/1 185/517/1 573/852/1 569/851/1
f 379/956/3 385/957/3 581/830/3 582/847/3
f 387/958/3 379/956/3 582/847/3 567/849/3
f 387/959/3 567/827/3 584/826/3 146/960/3 257/961/3
f 258/962/3 146/963/3 584/964/3 571/965/3
f 104/963/3 258/966/3 571/967/3 564/964/3
f 385/957/39 380/968/39 371/969/39 565/831/39 581/830/39
f 366/970/40 367/971/40 381/972/40 401/973/40 400/974/40
f 396/299/41 364/298/41 366/970/41 400/974/41
f 401/975/1 381/976/1 384/273/1 423/977/1
f 597/893/42 565/892/42 371/978/42 374/979/42
f 606/980/3 313/949/3 308/1/3 469/981/3 608/982/3
f 598/898/43 599/897/43 590/900/43 482/983/43
f 495/984/44 508/732/44 621/945/44 485/944/44 488/985/44
f 622/947/44 489/721/44 598/720/44 482/948/44
f 491/731/44 623/946/44 621/945/44 508/732/44
f 489/739/44 622/986/44 623/987/44 491/760/44 506/758/44 505/740/44
f 348/988/1 349/989/1 569/835/1 589/834/1
f 350/990/1 348/988/1 589/834/1 577/843/1
f 345/991/1 350/990/1 577/843/1 586/842/1
f 351/888/1 345/991/1 586/842/1 574/861/1
f 46/282/3 427/285/3 437/992/3 628/993/3
f 428/994/3 629/995/3 628/993/3 437/992/3
f 627/996/3 629/995/3 428/994/3 443/997/3
f 75/274/1 393/273/1 424/976/1 454/998/1 29/335/1
f 190/999/3 46/282/3 628/993/3 626/1000/3
f 625/1001/3 626/1000/3 628/993/3 629/995/3
f 629/995/3 627/996/3 624/1002/3 625/1001/3
f 132/962/3 190/1003/3 626/1004/3 223/1005/3
f 182/1006/3 223/1005/3 626/1004/3 625/1007/3
f 625/1007/3 624/662/3 270/661/3 182/1006/3
f 94/1008/4 270/1009/4 624/337/4 632/1010/4
f 217/1011/4 94/1008/4 632/1010/4 633/1012/4
f 217/1011/4 633/1012/4 630/1013/4 188/1014/4
f 631/1015/4 272/1016/4 188/1014/4 630/1013/4
f 272/309/3 631/1017/3 445/356/3 388/310/3
f 627/213/4 443/213/4 624/213/4
f 208/1018/28 200/1019/28 279/1020/28 67/509/28 241/1021/28 159/1022/28 264/1023/28 138/1024/28 212/1025/28 196/1026/28 275/1027/28 125/1028/28 252/1029/28 152/1030/28 261/1031/28 141/1032/28 209/1033/28 199/1034/28 278/1035/28 68/7/28 242/6/28 158/264/28 263/263/28 139/268/28 211/1036/28 197/1037/28 276/1038/28 124/1039/28 251/1040/28 153/1041/28 262/1042/28 140/1043/28 210/1044/28 198/1045/28 277/1046/28 69/1047/28 248/1048/28 155/1049/28 247/1050/28 102/1051/28 250/1052/28 154/1053/28 249/1054/28 78/1055/28 244/1056/28 157/1057/28 243/1058/28 101/1059/28 246/1060/28 156/1061/28 245/1062/28 66/868/28 240/1063/28 160/1064/28 265/1065/28 137/1066/28 213/1067/28 195/1068/28 274/1069/28 126/1070/28 253/1071/28 151/1072/28 260/1073/28 142/1074/28
f 83/1075/5 317/1075/5 220/1075/5 425/1075/5
f 298/1076/45 299/1077/45 288/1075/45
f 306/389/1 307/403/1 302/390/1
f 219/213/5 29/213/5 454/213/5
l 132 427
