# Blender v2.75 (sub 0) OBJ File: 'LOSTIEMPOS.blend'
# www.blender.org
mtllib LOSTIEMPOS_vidrios.mtl
o Cube.001
v 0.534782 0.138021 -1.213824
v -0.391247 0.138021 0.642135
v 0.303275 0.138021 -1.213824
v 0.766289 0.138021 -0.595171
v -0.159740 0.138021 0.642135
v -0.622755 0.138021 0.642135
v 0.766290 0.138021 -0.904497
v 0.650536 0.138021 -1.213824
v -0.622754 5.221194 -1.213825
v -0.507001 5.221194 -1.213824
v 0.534782 0.138021 -0.131181
v 0.650536 2.321295 -1.059161
v -0.507001 0.138021 0.642135
v 0.419029 0.138021 -1.213824
v 0.650536 0.138021 -0.595171
v -0.275494 0.138021 0.642135
v -0.738508 0.138021 0.642135
v -0.043986 0.138021 0.332809
v 0.766290 2.321295 -0.904497
v 0.766290 2.321295 -1.059161
v 0.766290 0.138021 -0.749834
v 0.766290 0.138021 -1.059161
v 0.650536 0.138021 -0.285844
v -0.391247 5.221194 -1.213824
v 0.766290 2.321295 -0.749834
v 0.303275 0.138021 -0.131181
v 0.766289 2.321295 -0.595171
v 0.650536 2.321295 -0.595171
v 0.419028 0.138021 -0.131181
v 0.303275 2.321295 -1.213824
v -0.275493 5.221194 -1.213824
v -0.854262 5.221194 -1.213825
v 0.650536 0.138021 -0.440507
v 0.650536 0.138021 -1.059161
v 0.419029 2.321295 -1.213824
v 0.534782 2.321295 -1.213824
v -0.043987 0.138021 0.487472
v 0.650536 2.321295 -1.213824
v 0.650536 0.138021 -0.131181
v -0.738508 5.221194 -1.213825
v 0.187521 0.138021 -0.131181
v -0.854262 9.396444 0.178145
v -0.854262 9.396444 0.023482
v -0.854262 9.396444 0.487472
v -0.854262 9.396444 0.332808
v -0.854262 9.396444 -0.131182
v -0.854262 9.396444 -0.285845
v -0.738508 0.138021 -1.213825
v -0.391247 0.138021 -1.213824
v -0.854262 5.531889 -1.162218
v -0.275493 5.531889 -1.162218
v -0.854262 5.949141 -0.806135
v -0.507001 0.138021 -1.213824
v -0.622754 0.138021 -1.213825
v -0.854262 5.670989 -1.043524
v -0.854262 5.810040 -0.924829
v -0.391247 5.949141 -0.806134
v -0.391247 5.810040 -0.924829
v -0.391247 5.221194 -0.440508
v -0.275494 5.221194 -0.904498
v -0.622755 5.221194 -0.440508
v -0.738508 5.221194 -0.440508
v -0.507001 5.221194 -0.440508
v -0.275494 5.221194 -0.440508
v -0.275493 5.221194 -1.059161
v -0.275494 5.221194 -0.749834
v -0.622755 5.949141 -0.806134
v -0.275494 5.810040 -0.924829
v -0.275494 5.670989 -1.043523
v -0.507001 5.949141 -0.806134
v -0.738508 5.949141 -0.806134
v -0.040923 4.253443 -0.272349
v -0.158114 4.175311 -0.451594
v -0.273759 4.184687 -0.451605
v -0.278117 3.995482 -0.729908
v -0.043986 3.617222 0.023482
v -0.043986 3.617222 -0.285844
v -0.043986 3.617222 -0.131181
v -0.043986 3.617222 0.178145
v -0.275494 3.050898 -0.904498
v -0.275493 3.050898 -1.059161
v -0.275494 3.050898 -0.749834
v -0.854262 9.142353 0.332808
v -0.854262 9.142353 0.178145
v -0.854262 9.142353 0.023482
v -0.854262 9.142353 -0.131182
v -0.854262 9.142353 -0.285845
v -0.854262 9.142353 0.487472
v -0.046210 8.203901 0.650540
v -0.043986 8.161951 -0.285844
v -0.043986 8.161951 0.178145
v -0.046210 8.203901 0.488233
v -0.854262 8.161951 0.487472
v -0.854262 8.161951 0.332808
v -0.854262 8.161951 0.178145
v -0.854262 8.161951 0.023482
v -0.043986 8.161951 -0.131181
v -0.043986 8.161951 0.023482
v -0.854262 8.161951 -0.131182
v -0.046210 8.203901 0.325925
v -0.854262 8.161951 -0.285845
v -0.046210 7.923508 0.650540
v -0.043986 7.894763 -0.285844
v -0.738508 7.894763 0.642135
v -0.043986 7.894763 0.178145
v -0.622755 7.894763 0.642135
v -0.738508 7.894763 -0.440508
v -0.507001 7.894763 0.642135
v -0.391247 7.894763 0.642135
v -0.275494 7.894763 -0.440508
v -0.854262 7.894763 0.487472
v -0.275494 7.894763 0.642135
v -0.507001 7.894763 -0.440508
v -0.854262 7.894763 0.332808
v -0.854262 7.894763 0.178145
v -0.854262 7.894763 0.023482
v -0.043986 7.894763 -0.131181
v -0.043986 7.894763 0.023482
v -0.854262 7.894763 -0.131182
v -0.046210 7.923508 0.325925
v -0.854262 7.894763 -0.285845
v -0.391247 7.894763 -0.440508
v -0.159740 7.894763 0.642135
v -0.622755 7.894763 -0.440508
v -0.046210 7.030579 0.650540
v -0.043986 7.043888 -0.285844
v -0.738508 7.043888 0.642135
v -0.043986 7.043888 0.178145
v -0.622755 7.043888 0.642135
v -0.738508 7.043888 -0.440508
v -0.507001 7.043888 0.642135
v -0.391247 7.043888 0.642135
v -0.275494 7.043888 -0.440508
v -0.854262 7.043888 0.487472
v -0.275494 7.043888 0.642135
v -0.507001 7.043888 -0.440508
v -0.854262 7.043888 0.332808
v -0.854262 7.043888 0.178145
v -0.854262 7.043888 0.023482
v -0.043986 7.043888 -0.131181
v -0.043986 7.043888 0.023482
v -0.854262 7.043888 -0.131182
v -0.046210 7.030579 0.325925
v -0.854262 7.043888 -0.285845
v -0.391247 7.043888 -0.440508
v -0.159740 7.043888 0.642135
v -0.622755 7.043888 -0.440508
v -0.046210 6.149312 0.650540
v -0.043986 6.204125 -0.285844
v -0.738508 6.204125 0.642135
v -0.043986 6.204125 0.178145
v -0.622755 6.204125 0.642135
v -0.738508 6.204125 -0.440508
v -0.507001 6.204125 0.642135
v -0.046210 6.149312 0.488233
v -0.391247 6.204125 0.642135
v -0.275494 6.204125 -0.440508
v -0.854262 6.204125 0.487472
v -0.275494 6.204125 0.642135
v -0.507001 6.204125 -0.440508
v -0.854262 6.204125 0.332808
v -0.854262 6.204125 0.178145
v -0.854262 6.204125 0.023482
v -0.043986 6.204125 -0.131181
v -0.043986 6.204125 0.023482
v -0.854262 6.204125 -0.131182
v -0.046210 6.149312 0.325925
v -0.854262 6.204125 -0.285845
v -0.391247 6.204125 -0.440508
v -0.159740 6.204125 0.642135
v -0.622755 6.204125 -0.440508
v -0.275494 7.894763 -0.438846
v -0.275494 7.043888 -0.438846
v -0.275494 6.204125 -0.438846
v -0.159740 6.204125 -0.438846
v -0.159740 7.894763 -0.438846
v -0.159740 7.043888 -0.438846
v 0.050932 7.923508 0.325925
v 0.050932 8.203901 0.325925
v 0.050932 8.203901 0.488233
v 0.019152 8.203901 0.561698
v 0.019152 7.923508 0.561698
v 0.050932 7.923508 0.488233
v 0.050932 7.030579 0.325925
v 0.019152 7.030579 0.561698
v 0.050932 7.030579 0.488233
v 0.050932 6.149312 0.325925
v 0.019152 6.149312 0.561698
v 0.050932 6.149312 0.488233
v -0.275494 9.142353 -0.259971
v -0.275494 9.142353 0.214980
v 0.650536 2.321295 -0.131181
v 0.650536 2.321295 -0.285844
v 0.650536 2.321295 -0.440507
v 0.303275 2.321295 -0.131181
v 0.187521 2.321295 -0.131181
v 0.534782 2.321295 -0.131181
v 0.419028 2.321295 -0.131181
v 0.675585 0.160360 -1.241678
v 0.559832 0.160360 -1.241678
v 0.675585 2.298956 -0.589980
v 0.675585 0.160360 -0.589980
v 0.675585 2.298956 -1.241678
v 0.444078 0.160360 -1.241678
v 0.328324 0.160360 -1.241678
v 0.444078 2.298956 -1.241678
v 0.559832 2.298956 -1.241678
v 0.791339 0.160360 -0.589980
v 0.791339 0.160360 -0.752904
v 0.791339 0.160360 -1.078753
v 0.791339 0.160360 -0.915829
v 0.675585 2.298956 -1.078753
v 0.791339 2.298956 -1.078753
v 0.791339 2.298956 -0.915829
v 0.791339 2.298956 -0.752904
v 0.791339 2.298956 -0.589980
v 0.328324 2.298956 -1.241678
v 0.675585 2.298956 -0.264131
v 0.675585 0.160360 -0.264131
v 0.444078 0.160360 -0.101206
v 0.559831 0.160360 -0.101206
v 0.328324 0.160360 -0.101207
v 0.675585 0.160360 -0.427055
v 0.212570 2.298956 -0.101207
v 0.212570 0.160360 -0.101207
v 0.675585 0.160360 -1.078753
v 0.444078 2.298956 -0.101206
v 0.675585 2.298956 -0.427055
v 0.675585 0.160360 -0.101206
v 0.675585 2.298956 -0.101206
v 0.328324 2.298956 -0.101207
v 0.559831 2.298956 -0.101206
v -0.262495 3.995482 -0.729845
v -0.259871 5.221194 -0.749772
v -0.259871 5.221194 -1.059099
v -0.259871 3.050898 -1.059099
v -0.259871 3.050898 -0.749772
v -0.259871 5.221194 -0.904436
v -0.259871 3.050898 -0.904436
v -0.391247 5.236403 -1.237744
v -0.507001 5.236403 -1.237744
v -0.622754 5.236403 -1.237744
v -0.738508 5.236403 -1.237744
v -0.275493 5.236403 -1.237744
v -0.854262 5.236403 -1.237744
v -0.275494 5.686198 -1.067443
v -0.275494 5.825249 -0.948749
v -0.391247 5.825249 -0.948749
v -0.854262 5.825249 -0.948749
v -0.738508 5.825249 -0.948749
v -0.622755 5.825249 -0.948749
v -0.507001 5.825249 -0.948749
v -0.622754 5.547098 -1.186138
v -0.622754 5.686198 -1.067444
v -0.622755 5.964350 -0.830054
v -0.391247 5.547098 -1.186138
v -0.391247 5.686198 -1.067443
v -0.738508 5.547098 -1.186138
v -0.854262 5.547098 -1.186138
v -0.854262 5.686198 -1.067444
v -0.275493 5.547098 -1.186138
v -0.507001 5.547098 -1.186138
v -0.854262 5.964350 -0.830054
v -0.391247 5.964350 -0.830054
v -0.738508 5.686198 -1.067444
v -0.507001 5.686198 -1.067443
v -0.507001 5.964350 -0.830054
v -0.738508 5.964350 -0.830054
v -0.392922 5.196671 -1.235434
v -0.507559 5.196671 -1.235434
v -0.622196 5.196671 -1.235434
v -0.736833 5.196671 -1.235434
v -0.507559 0.162544 -1.235434
v -0.622196 0.162544 -1.235434
v -0.736833 0.162544 -1.235434
v -0.392922 0.162544 -1.235434
v -0.278583 5.247948 -0.458236
v -0.276884 4.232841 -0.469104
v -0.732037 5.247948 -0.458236
v -0.618674 5.247948 -0.458236
v -0.505310 5.247948 -0.458236
v -0.391946 5.247948 -0.458236
v -0.163626 4.223659 -0.469093
v -0.391946 7.033009 -0.458236
v -0.391946 7.866316 -0.458236
v -0.618674 7.033009 -0.458236
v -0.618674 7.866316 -0.458236
v -0.505310 7.866316 -0.458236
v -0.278583 7.866316 -0.458236
v -0.732037 7.866316 -0.458236
v -0.732037 7.033009 -0.458236
v -0.278583 7.033009 -0.458236
v -0.505310 7.033009 -0.458236
v -0.391946 6.210585 -0.458236
v -0.618674 6.210585 -0.458236
v -0.732037 6.210585 -0.458236
v -0.278583 6.210585 -0.458236
v -0.505310 6.210585 -0.458236
v -0.165219 6.210585 -0.456608
v -0.278583 7.866316 -0.456608
v -0.165219 7.866316 -0.456608
v -0.165219 7.033009 -0.456608
v -0.278583 7.033009 -0.456608
v -0.278583 6.210585 -0.456608
v -0.028746 7.921089 -0.125243
v -0.028746 8.169300 -0.125243
v -0.028746 7.921089 0.018435
v -0.028746 8.169300 0.018435
v -0.028746 8.169300 -0.268922
v -0.028746 8.169300 0.162114
v -0.028746 7.921089 -0.268922
v -0.028746 7.921089 0.162114
v -0.243811 9.080071 0.196332
v -0.243811 9.080071 -0.244887
v -0.869878 9.121049 0.328578
v -0.869878 9.370507 0.328578
v -0.869878 9.121049 0.176735
v -0.869878 9.370507 0.176735
v -0.869878 9.121049 0.024892
v -0.869878 9.370507 0.024892
v -0.869878 9.121049 -0.126952
v -0.869878 9.370507 -0.126952
v -0.869878 9.121049 -0.278795
v -0.869878 9.370507 -0.278795
v -0.869878 9.370507 0.480422
v -0.869878 8.158523 0.328578
v -0.869878 8.158523 0.176735
v -0.869878 8.158523 0.024892
v -0.869878 8.158523 -0.126952
v -0.869878 8.158523 -0.278795
v -0.869878 9.121049 0.480422
v -0.869878 8.158523 0.480422
v -0.869878 7.896206 0.328578
v -0.869878 7.896206 0.176735
v -0.869878 7.896206 0.024892
v -0.869878 7.896206 -0.126952
v -0.869878 7.896206 -0.278795
v -0.869878 7.896206 0.480422
v -0.869878 7.060845 0.328578
v -0.869878 7.060845 0.176735
v -0.869878 7.060845 0.024892
v -0.869878 7.060845 -0.126952
v -0.869878 7.060845 -0.278795
v -0.869878 7.060845 0.480422
v -0.869878 6.236394 0.328578
v -0.869878 6.236394 0.176735
v -0.869878 6.236394 0.024892
v -0.869878 6.236394 -0.126952
v -0.869878 6.236394 -0.278795
v -0.869878 6.236394 0.480422
v -0.277806 0.207014 0.653483
v -0.163593 0.207014 0.653483
v -0.734656 0.207014 0.653482
v -0.620443 0.207014 0.653482
v -0.506230 0.207014 0.653482
v -0.392018 0.207014 0.653482
v -0.734656 6.192357 0.653482
v -0.620443 6.192357 0.653482
v -0.506230 6.192357 0.653482
v -0.392018 6.192357 0.653482
v -0.277806 6.192357 0.653483
v -0.163593 7.020940 0.653483
v -0.163593 7.860487 0.653483
v -0.277806 7.860487 0.653483
v -0.392018 7.860487 0.653482
v -0.506230 7.860487 0.653482
v -0.620443 7.860487 0.653482
v -0.734656 7.860487 0.653482
v -0.734656 7.020940 0.653482
v -0.620443 7.020940 0.653482
v -0.506230 7.020940 0.653482
v -0.392018 7.020940 0.653482
v -0.277806 7.020940 0.653483
v -0.163593 6.192357 0.653483
v -0.029472 0.644939 0.345733
v -0.029472 0.644939 0.474547
v -0.029472 5.697207 0.345733
v -0.029472 5.697207 0.474547
v -0.027080 3.660108 -0.129785
v -0.027081 3.660108 0.021386
v -0.027080 3.660108 -0.280956
v -0.027081 3.660108 0.172557
v -0.027080 6.188599 -0.129785
v -0.027080 7.009399 -0.129785
v -0.027081 6.188599 0.021386
v -0.027081 7.009399 0.021386
v -0.027080 7.009399 -0.280956
v -0.027081 7.009399 0.172557
v -0.027080 6.188599 -0.280956
v -0.027081 6.188599 0.172557
v -0.024086 4.281963 -0.267766
vt 0.000000 0.000000
vt 0.625408 0.466257
vt 0.586393 0.502611
vt 0.566885 0.502611
vt 0.683935 0.426235
vt 0.722951 0.426235
vt 0.547376 0.490491
vt 0.664427 0.865594
vt 0.527867 0.439360
vt 0.625408 0.439360
vt 0.527868 0.490491
vt 0.625409 0.490492
vt 0.547377 0.502611
vt 0.527867 0.466256
vt 0.625409 0.478376
vt 0.625410 0.502611
vt 0.527867 0.478376
vt 0.605902 0.502611
vt 0.605900 0.439360
vt 0.976806 0.430176
vt 0.664427 0.426235
vt 0.703443 0.426235
vt 0.963773 0.430176
vt 0.963773 0.954407
vt 0.373957 0.905488
vt 0.986967 0.000000
vt 0.986967 0.188678
vt 1.000000 0.188678
vt 1.000000 0.000000
vt 0.775083 0.756276
vt 0.775083 0.778239
vt 0.788116 0.778239
vt 0.788116 0.756276
vt 0.885658 0.430176
vt 0.885657 0.618886
vt 0.905166 0.618885
vt 0.905166 0.430176
vt 0.944511 0.670399
vt 0.944511 0.859077
vt 0.957544 0.859077
vt 0.957544 0.670399
vt 0.931478 0.670399
vt 0.931478 0.859077
vt 0.762050 0.756276
vt 0.762050 0.778239
vt 0.651394 0.680209
vt 0.651394 0.702172
vt 0.664427 0.702172
vt 0.664427 0.680209
vt 0.638361 0.680209
vt 0.638361 0.702172
vt 0.289583 0.811291
vt 0.289583 1.000000
vt 0.309092 1.000000
vt 0.309092 0.811291
vt 0.703443 0.865594
vt 0.722951 0.865594
vt 0.683935 0.865594
vt 0.636682 0.783812
vt 0.638361 0.889729
vt 0.651394 0.889729
vt 0.664427 0.889729
vt 0.866149 0.430176
vt 0.866149 0.618886
vt 0.967459 0.000000
vt 0.967459 0.188696
vt 0.924674 0.618885
vt 0.924674 0.430176
vt 0.918445 0.670399
vt 0.918445 0.859077
vt 0.638361 0.595465
vt 0.651394 0.595465
vt 0.664427 0.595465
vt 0.762050 0.671532
vt 0.775083 0.671532
vt 0.788116 0.671532
vt 0.775083 0.648436
vt 0.788116 0.648436
vt 0.117631 0.811543
vt 0.118215 0.834626
vt 0.131243 0.834279
vt 0.130659 0.811196
vt 0.762050 0.648436
vt 0.983059 0.261280
vt 0.983059 0.334825
vt 0.967459 0.334825
vt 0.967459 0.261280
vt 0.651394 0.572370
vt 0.664427 0.572370
vt 0.104602 0.811890
vt 0.105186 0.834973
vt 0.091574 0.812238
vt 0.092158 0.835320
vt 0.636037 0.678150
vt 0.636037 0.751689
vt 0.625541 0.751578
vt 0.625541 0.678038
vt 0.567129 0.576220
vt 0.567244 0.502676
vt 0.547736 0.502643
vt 0.547621 0.576188
vt 0.846641 0.596859
vt 0.846641 0.670399
vt 0.866149 0.670399
vt 0.866149 0.596860
vt 0.606146 0.576284
vt 0.606261 0.502740
vt 0.586752 0.502708
vt 0.586638 0.576252
vt 0.827133 0.596859
vt 0.827133 0.670399
vt 0.983059 0.188696
vt 0.638361 0.498822
vt 0.638361 0.572370
vt 0.651394 0.498822
vt 0.807624 0.073539
vt 0.807624 0.000000
vt 0.788116 0.000000
vt 0.788116 0.073539
vt 0.664427 0.498822
vt 0.827133 0.073539
vt 0.827133 0.000000
vt 0.636037 0.824268
vt 0.625541 0.824157
vt 0.762050 0.574889
vt 0.775083 0.574889
vt 0.528228 0.502611
vt 0.528113 0.576156
vt 0.788116 0.574889
vt 0.775083 0.502301
vt 0.788116 0.502301
vt 0.892379 0.742971
vt 0.892379 0.670399
vt 0.879346 0.670399
vt 0.879346 0.742971
vt 0.547508 0.648772
vt 0.527999 0.648740
vt 0.762050 0.502301
vt 0.373957 0.918857
vt 0.358356 0.918857
vt 0.358356 0.905488
vt 0.586524 0.648836
vt 0.567016 0.648804
vt 0.827133 0.146118
vt 0.807624 0.146118
vt 0.651394 0.426235
vt 0.905412 0.742971
vt 0.905412 0.670399
vt 0.918445 0.742971
vt 0.788116 0.146118
vt 0.638361 0.426235
vt 0.373957 0.892119
vt 0.363460 0.899437
vt 0.827133 0.524281
vt 0.846641 0.524281
vt 0.606032 0.648868
vt 0.866149 0.524281
vt 0.846641 0.000000
vt 0.866149 0.000000
vt 0.807624 0.670399
vt 0.788116 0.670399
vt 0.606052 0.823426
vt 0.625541 0.824268
vt 0.625541 0.648899
vt 0.605900 0.733827
vt 0.474908 0.901627
vt 0.474908 0.975172
vt 0.494416 0.975172
vt 0.494416 0.901627
vt 0.474908 0.829043
vt 0.494416 0.829043
vt 0.455978 0.975255
vt 0.461875 0.975147
vt 0.461875 0.998238
vt 0.455978 0.998345
vt 0.474908 0.975147
vt 0.474908 0.998237
vt 0.461875 0.901615
vt 0.455978 0.901722
vt 0.455978 0.829150
vt 0.461875 0.829043
vt 0.636037 0.655058
vt 0.625541 0.654946
vt 0.389557 0.892119
vt 0.389557 0.905488
vt 0.389557 0.918856
vt 0.379060 0.911539
vt 0.983059 0.357919
vt 0.967459 0.357919
vt 0.905412 0.966531
vt 0.892379 0.966531
vt 0.918445 0.966530
vt 0.880484 0.911559
vt 0.879346 0.966531
vt 0.091235 0.920920
vt 0.131243 0.919854
vt 0.547375 0.733731
vt 0.527867 0.733699
vt 0.566883 0.733763
vt 0.586391 0.733795
vt 0.950740 0.430176
vt 0.950740 0.618854
vt 0.963773 0.618854
vt 0.937707 0.430176
vt 0.937707 0.618854
vt 0.436390 0.829043
vt 0.436390 0.640347
vt 0.416881 0.640347
vt 0.416881 0.829043
vt 0.455898 0.829043
vt 0.455898 0.640347
vt 0.475406 0.829043
vt 0.475406 0.640347
vt 0.494915 0.640347
vt 0.494915 0.829043
vt 0.586392 0.478376
vt 0.605900 0.478376
vt 0.605901 0.490492
vt 0.586393 0.490492
vt 0.547375 0.466256
vt 0.547376 0.478376
vt 0.566884 0.478376
vt 0.566885 0.490491
vt 0.547375 0.439360
vt 0.586391 0.439360
vt 0.605900 0.466257
vt 0.586392 0.466257
vt 0.566883 0.439360
vt 0.566883 0.466256
vt 0.976806 0.954407
vn -1.000000 0.000000 0.000000
vn 0.000000 0.843900 0.536600
vn 0.000000 -0.661100 -0.750300
vn -0.997000 0.000000 -0.077300
vn 0.000000 -0.843900 -0.536600
vn 1.000000 0.000000 0.000000
vn 0.723500 -0.000300 -0.690300
vn 0.997000 0.000000 -0.077300
vn 0.999600 -0.028600 0.000000
vn 0.648200 0.000100 0.761500
vn 0.000000 0.000000 1.000000
vn 0.000000 0.661100 -0.750300
vn -1.000000 0.000000 -0.008000
vn 0.000000 0.000000 -1.000000
vn 0.805500 0.000000 0.592600
vn 0.000000 -1.000000 -0.000000
vn 0.015800 -0.005900 0.999900
vn 0.917800 0.000000 0.397000
vn 0.000000 1.000000 0.000000
vn -0.999900 0.000000 -0.010400
vn -0.973200 -0.229800 -0.000000
vn 0.000000 -0.780100 -0.625600
vn 0.000000 0.226300 0.974000
vn 0.665600 -0.746300 0.000000
vn 0.665600 0.746300 0.000000
vn -0.000000 0.801800 0.597600
vn 0.000000 0.780100 -0.625600
vn -0.000000 -0.801800 0.597600
vn -0.743500 0.000000 -0.668700
vn 0.000000 -0.226300 0.974000
vn -0.767300 0.000000 0.641200
vn 0.000000 -0.659400 -0.751800
vn 0.000000 0.659400 -0.751800
vn 1.000000 0.000000 0.008000
vn -0.004000 -0.021100 0.999800
vn 0.004000 0.000000 -1.000000
vn -0.004000 0.016300 0.999900
vn 0.000000 0.649200 -0.760600
vn 0.000000 0.649100 -0.760700
vn 0.000000 0.163900 -0.986500
vn -0.015800 0.005900 -0.999900
vn -0.985200 0.000000 0.171300
vn 0.000000 -0.552400 -0.833600
vn 0.000000 0.528900 -0.848700
vn 0.955600 0.000000 -0.294800
vn -0.939400 0.000000 -0.342900
vn 0.985200 0.000000 -0.171700
vn 0.955800 0.002600 -0.293900
vn -0.986000 -0.003400 0.166600
vn 0.000000 -0.939800 -0.341700
vn 0.000000 0.529600 -0.848200
vn -0.027700 -0.343000 -0.938900
vn -0.004900 0.939300 0.343100
vn 0.973200 0.229800 0.000000
vn 0.891300 0.453400 -0.000000
vn 0.865400 -0.501000 0.000000
vn 0.743100 0.000000 -0.669200
vn 0.690200 0.181500 -0.700400
vn 0.724800 0.000000 0.689000
vn 0.686400 0.135200 0.714500
vn 0.089900 0.000000 -0.995900
vn -0.411500 0.000000 -0.911400
vn 0.089900 0.000000 0.995900
vn -0.411500 0.000000 0.911400
vn -0.900100 -0.435600 0.000000
vn -0.856700 0.515800 0.000000
vn 0.997700 0.000000 -0.067700
vn -0.000000 0.314300 0.949300
vn -0.946900 0.000000 0.321500
vn 0.946900 0.000000 0.321500
vn -0.997700 0.000000 -0.067700
vn 0.000000 -0.162300 0.986700
vn 0.999300 0.037000 0.000000
vn 0.999900 0.000000 0.010400
vn 0.897900 0.440100 0.000000
vn 0.272500 -0.006200 -0.962100
vn 0.930300 -0.366700 0.000000
vn 0.313900 0.000000 0.949500
vn 0.231700 0.019500 -0.972600
vn 0.277800 0.000000 -0.960700
usemtl Material.001
s off
f 50/1/1 55/1/1 260/2/1 259/1/1
f 67/1/2 70/1/2 267/3/2 255/1/2
f 70/1/2 57/1/2 264/4/2 267/1/2
f 53/1/3 54/1/3 274/5/3 273/1/3
f 48/1/4 40/1/4 272/6/4 275/1/4
f 58/1/2 68/1/2 247/7/2 248/1/2
f 31/1/5 24/8/5 240/9/5 244/1/5
f 32/1/1 50/1/1 259/10/1 245/1/1
f 68/1/6 69/1/6 246/11/6 247/1/6
f 56/1/1 52/1/1 263/12/1 249/1/1
f 57/1/6 58/1/6 248/13/6 264/1/6
f 51/1/6 31/1/6 244/14/6 261/1/6
f 55/1/1 56/1/1 249/15/1 260/1/1
f 52/1/2 71/1/2 268/16/2 263/1/2
f 69/1/6 51/1/6 261/17/6 246/1/6
f 71/1/2 67/1/2 255/18/2 268/1/2
f 40/1/5 32/1/5 245/19/5 243/1/5
f 18/1/7 167/1/7 377/20/7 375/1/7
f 49/1/3 53/1/3 273/21/3 276/1/3
f 24/1/8 49/1/8 276/8/8 269/8/8
f 54/1/3 48/1/3 275/22/3 274/1/3
f 37/1/9 18/1/9 375/23/9 376/1/9
f 155/1/10 37/1/10 376/24/10 378/25/10
usemtl Material.001_Untitled.001
f 34/26/1 12/27/1 38/28/1 8/29/1
f 83/30/6 45/31/6 44/32/6 88/33/6
f 1/34/11 36/35/11 35/36/11 14/37/11
f 7/38/1 19/39/1 20/40/1 22/41/1
f 21/42/1 25/43/1 19/39/1 7/38/1
f 84/44/6 42/45/6 45/31/6 83/30/6
f 86/46/6 46/47/6 43/48/6 85/49/6
f 87/50/6 47/51/6 46/47/6 86/46/6
f 22/52/11 20/53/11 12/54/11 34/55/11
f 9/56/5 40/57/5 243/57/5 242/56/5
f 9/56/12 10/58/12 270/58/12 271/56/12
f 75/59/13 66/60/13 60/61/13 80/47/13 82/51/13
f 81/48/1 80/47/1 60/61/1 65/62/1
f 10/58/5 9/56/5 242/56/5 241/58/5
f 24/8/5 10/58/5 241/58/5 240/8/5
f 8/63/11 38/64/11 36/35/11 1/34/11
f 15/27/14 28/26/14 27/65/14 4/66/14
f 14/37/11 35/36/11 30/67/11 3/68/11
f 4/69/1 27/70/1 25/43/1 21/42/1
f 101/71/6 87/50/6 86/46/6 99/72/6
f 99/72/6 86/46/6 85/49/6 96/73/6
f 95/74/6 84/44/6 83/30/6 94/75/6
f 94/75/6 83/30/6 88/33/6 93/76/6
f 114/77/6 94/75/6 93/76/6 111/78/6
f 117/79/1 97/80/1 90/81/1 103/82/1
f 115/83/6 95/74/6 94/75/6 114/77/6
f 143/84/14 120/85/14 178/86/14 184/87/14
f 119/88/6 99/72/6 96/73/6 116/89/6
f 118/90/1 98/91/1 97/80/1 117/79/1
f 105/92/1 91/93/1 98/91/1 118/90/1
f 102/94/15 125/95/15 185/96/15 182/97/15
f 136/98/11 113/99/11 124/100/11 147/101/11
f 135/102/14 112/103/14 123/104/14 146/105/14
f 133/106/11 110/107/11 122/108/11 145/109/11
f 132/110/14 109/111/14 112/103/14 135/102/14
f 167/112/14 143/84/14 184/87/14 187/66/14
f 144/113/6 121/114/6 119/88/6 142/115/6
f 129/116/14 106/117/14 108/118/14 131/119/14
f 142/115/6 119/88/6 116/89/6 139/120/6
f 127/121/14 104/122/14 106/117/14 129/116/14
f 145/109/11 122/108/11 113/99/11 136/98/11
f 125/95/15 148/123/15 188/124/15 185/96/15
f 138/125/6 115/83/6 114/77/6 137/126/6
f 147/101/11 124/100/11 107/127/11 130/128/11
f 137/126/6 114/77/6 111/78/6 134/129/6
f 161/130/6 137/126/6 134/129/6 158/131/6
f 164/132/1 140/133/1 126/134/1 149/135/1
f 171/136/11 147/101/11 130/128/11 153/137/11
f 162/138/6 138/125/6 137/126/6 161/130/6
f 155/25/16 167/139/16 187/140/16 189/141/16
f 169/142/11 145/109/11 136/98/11 160/143/11
f 150/144/14 127/121/14 129/116/14 152/145/14
f 166/146/6 142/115/6 139/120/6 163/21/6
f 165/147/1 141/148/1 140/133/1 164/132/1
f 151/149/1 128/69/1 141/148/1 165/147/1
f 152/145/14 129/116/14 131/119/14 154/150/14
f 168/151/6 144/113/6 142/115/6 166/146/6
f 148/152/16 155/25/16 189/141/16 188/153/16
f 156/154/14 132/110/14 135/102/14 159/155/14
f 157/156/11 133/106/11 145/109/11 169/142/11
f 159/155/14 135/102/14 146/105/14 170/157/14
f 160/143/11 136/98/11 147/101/11 171/136/11
f 16/158/14 159/155/14 170/157/14 5/159/14
f 2/122/14 156/154/14 159/155/14 16/158/14
f 6/160/14 152/145/14 154/150/14 13/161/14
f 17/111/14 150/144/14 152/145/14 6/160/14
f 74/162/17 73/163/17 175/164/17 157/156/17 64/165/17
f 177/166/11 176/167/11 172/168/11 173/169/11
f 175/170/11 177/166/11 173/169/11 174/171/11
f 182/172/18 183/173/18 180/174/18 181/175/18
f 183/173/6 178/176/6 179/177/6 180/174/6
f 186/178/6 184/166/6 178/176/6 183/173/6
f 185/179/18 186/178/18 183/173/18 182/172/18
f 188/180/18 189/181/18 186/178/18 185/179/18
f 189/181/6 187/170/6 184/166/6 186/178/6
f 89/182/15 102/94/15 182/97/15 181/183/15
f 100/184/19 92/185/19 180/25/19 179/152/19
f 92/185/19 89/186/19 181/187/19 180/25/19
f 120/85/14 100/188/14 179/189/14 178/86/14
f 99/72/6 119/88/6 121/114/6 101/71/6
f 76/190/1 165/147/1 164/132/1 78/191/1
f 79/192/1 151/149/1 165/147/1 76/190/1
f 78/191/20 164/132/20 149/135/20 72/193/20 77/194/20
f 90/81/21 97/80/21 98/91/21 91/93/21 191/195/21 190/196/21
f 61/197/11 171/136/11 153/137/11 62/198/11
f 63/199/11 160/143/11 171/136/11 61/197/11
f 59/200/11 169/142/11 160/143/11 63/199/11
f 64/165/11 157/156/11 169/142/11 59/200/11
f 15/23/1 33/201/1 194/202/1 28/203/1
f 23/204/1 193/205/1 194/202/1 33/201/1
f 193/205/1 23/204/1 39/68/1 192/67/1
f 11/206/14 197/207/14 192/208/14 39/209/14
f 29/210/14 198/211/14 197/207/14 11/206/14
f 29/210/14 26/212/14 195/213/14 198/211/14
f 196/214/14 195/213/14 26/212/14 41/215/14
f 226/26/6 199/29/6 203/28/6 212/27/6
f 200/34/14 204/37/14 206/36/14 207/35/14
f 211/38/6 210/41/6 213/40/6 214/39/6
f 209/42/6 211/38/6 214/39/6 215/43/6
f 210/52/14 226/55/14 212/54/14 213/53/14
f 199/63/14 200/34/14 207/35/14 203/64/14
f 202/27/11 208/66/11 216/65/11 201/26/11
f 204/37/14 205/68/14 217/67/14 206/36/14
f 208/69/6 209/42/6 215/43/6 216/70/6
f 202/23/6 201/203/6 228/202/6 223/201/6
f 219/204/6 223/201/6 228/202/6 218/205/6
f 218/205/6 230/67/6 229/68/6 219/204/6
f 221/206/11 229/209/11 230/208/11 232/207/11
f 220/210/11 221/206/11 232/207/11 227/211/11
f 220/210/11 227/211/11 231/213/11 222/212/11
f 224/214/11 225/215/11 222/212/11 231/213/11
f 8/63/22 1/34/22 200/34/22 199/63/22
f 27/65/23 28/26/23 201/26/23 216/65/23
f 39/68/24 23/204/24 219/204/24 229/68/24
f 38/28/25 12/27/25 212/27/25 203/28/25
f 197/207/26 198/211/26 227/211/26 232/207/26
f 30/67/27 35/36/27 206/36/27 217/67/27
f 11/206/28 39/209/28 229/209/28 221/206/28
f 19/39/25 25/43/25 215/43/25 214/39/25
f 198/211/26 195/213/26 231/213/26 227/211/26
f 195/213/26 196/214/26 224/214/26 231/213/26
f 36/35/27 38/64/27 203/64/27 207/35/27
f 41/215/28 26/212/28 222/212/28 225/215/28
f 1/34/22 14/37/22 204/37/22 200/34/22
f 14/37/22 3/68/22 205/68/22 204/37/22
f 29/210/28 11/206/28 221/206/28 220/210/28
f 26/212/28 29/210/28 220/210/28 222/212/28
f 3/68/29 30/67/29 217/67/29 205/68/29
f 35/36/27 36/35/27 207/35/27 206/36/27
f 15/27/30 4/66/30 208/66/30 202/27/30
f 23/204/24 33/201/24 223/201/24 219/204/24
f 33/201/24 15/23/24 202/23/24 223/201/24
f 28/203/25 194/202/25 228/202/25 201/203/25
f 20/40/25 19/39/25 214/39/25 213/40/25
f 194/202/25 193/205/25 218/205/25 228/202/25
f 196/214/31 41/215/31 225/215/31 224/214/31
f 25/43/25 27/70/25 216/70/25 215/43/25
f 4/69/24 21/42/24 209/42/24 208/69/24
f 193/205/25 192/67/25 230/67/25 218/205/25
f 34/26/24 8/29/24 199/29/24 226/26/24
f 21/42/24 7/38/24 211/38/24 209/42/24
f 7/38/24 22/41/24 210/41/24 211/38/24
f 22/52/32 34/55/32 226/55/32 210/52/32
f 12/54/33 20/53/33 213/53/33 212/54/33
f 192/208/26 197/207/26 232/207/26 230/208/26
f 233/59/34 237/51/34 239/47/34 238/61/34 234/60/34
f 236/48/6 235/62/6 238/61/6 239/47/6
f 80/47/16 81/48/16 236/48/16 239/47/16
f 75/59/35 82/51/35 237/51/35 233/59/35
f 81/48/36 65/62/36 235/62/36 236/48/36
f 65/62/19 60/61/19 238/61/19 235/62/19
f 82/51/16 80/47/16 239/47/16 237/51/16
f 60/61/19 66/60/19 234/60/19 238/61/19
f 66/60/37 75/59/37 233/59/37 234/60/37
f 254/216/38 265/217/38 250/218/38 251/219/38
f 261/14/39 256/220/39 257/221/39 246/17/39
f 246/17/38 257/221/38 248/7/38 247/11/38
f 266/222/38 254/216/38 251/219/38 252/223/38
f 265/217/38 260/15/38 249/12/38 250/218/38
f 244/9/40 240/224/40 256/220/40 261/14/40
f 242/225/40 243/19/40 258/226/40 253/227/40
f 241/228/40 242/225/40 253/227/40 262/229/40
f 240/224/40 241/228/40 262/229/40 256/220/40
f 253/227/39 258/226/39 265/217/39 254/216/39
f 258/226/39 259/2/39 260/15/39 265/217/39
f 257/221/38 266/222/38 252/223/38 248/7/38
f 256/220/39 262/229/39 266/222/39 257/221/39
f 262/229/39 253/227/39 254/216/39 266/222/39
f 248/7/39 252/223/39 267/4/39 264/13/39
f 252/223/39 251/219/39 255/3/39 267/4/39
f 251/219/39 250/218/39 268/18/39 255/3/39
f 250/218/39 249/12/39 263/16/39 268/18/39
f 243/19/40 245/10/40 259/2/40 258/226/40
f 274/22/14 275/6/14 272/57/14 271/56/14
f 276/21/14 273/5/14 270/58/14 269/8/14
f 273/5/14 274/22/14 271/56/14 270/58/14
f 10/58/12 24/8/12 269/8/12 270/58/12
f 40/57/12 9/56/12 271/56/12 272/57/12
f 293/98/14 286/101/14 287/100/14 288/99/14
f 292/106/14 284/109/14 285/108/14 289/107/14
f 284/109/14 293/98/14 288/99/14 285/108/14
f 286/101/14 291/128/14 290/127/14 287/100/14
f 295/136/14 296/137/14 291/128/14 286/101/14
f 294/142/14 298/143/14 293/98/14 284/109/14
f 297/156/14 294/142/14 284/109/14 292/106/14
f 298/143/14 295/136/14 286/101/14 293/98/14
f 278/162/41 277/165/41 297/156/41 299/164/41 283/163/41
f 302/166/14 303/169/14 300/168/14 301/167/14
f 299/170/14 304/171/14 303/169/14 302/166/14
f 280/197/14 279/198/14 296/137/14 295/136/14
f 281/199/14 280/197/14 295/136/14 298/143/14
f 282/200/14 281/199/14 298/143/14 294/142/14
f 277/165/14 282/200/14 294/142/14 297/156/14
f 173/169/42 172/168/42 300/168/42 303/169/42
f 61/197/43 62/198/43 279/198/43 280/197/43
f 113/99/44 122/108/44 285/108/44 288/99/44
f 59/200/43 63/199/43 281/199/43 282/200/43
f 177/166/45 175/170/45 299/170/45 302/166/45
f 130/128/46 107/127/46 290/127/46 291/128/46
f 63/199/43 61/197/43 280/197/43 281/199/43
f 133/106/47 157/156/47 297/156/47 292/106/47
f 174/171/42 173/169/42 303/169/42 304/171/42
f 64/165/43 59/200/43 282/200/43 277/165/43
f 175/164/48 73/163/48 283/163/48 299/164/48
f 107/127/44 124/100/44 287/100/44 290/127/44
f 74/162/49 64/165/49 277/165/49 278/162/49
f 175/170/50 174/171/50 304/171/50 299/170/50
f 124/100/44 113/99/44 288/99/44 287/100/44
f 172/168/51 176/167/51 301/167/51 300/168/51
f 110/107/47 133/106/47 292/106/47 289/107/47
f 153/137/46 130/128/46 291/128/46 296/137/46
f 73/163/52 74/162/52 278/162/52 283/163/52
f 122/108/44 110/107/44 289/107/44 285/108/44
f 62/198/46 153/137/46 296/137/46 279/198/46
f 176/167/45 177/166/45 302/166/45 301/167/45
f 157/156/53 175/164/53 299/164/53 297/156/53
f 305/79/6 311/82/6 309/81/6 306/80/6
f 307/90/6 305/79/6 306/80/6 308/91/6
f 312/92/6 307/90/6 308/91/6 310/93/6
f 309/81/54 314/196/54 313/195/54 310/93/54 308/91/54 306/80/54
f 190/196/55 191/195/55 313/195/55 314/196/55
f 117/79/56 103/82/56 311/82/56 305/79/56
f 103/82/57 90/81/57 309/81/57 311/82/57
f 105/92/56 118/90/56 307/90/56 312/92/56
f 90/81/58 190/196/58 314/196/58 309/81/58
f 91/93/59 105/92/59 312/92/59 310/93/59
f 118/90/56 117/79/56 305/79/56 307/90/56
f 191/195/60 91/93/60 310/93/60 313/195/60
f 315/30/1 331/33/1 325/32/1 316/31/1
f 317/44/1 315/30/1 316/31/1 318/45/1
f 321/46/1 319/49/1 320/48/1 322/47/1
f 323/50/1 321/46/1 322/47/1 324/51/1
f 330/71/1 329/72/1 321/46/1 323/50/1
f 329/72/1 328/73/1 319/49/1 321/46/1
f 327/74/1 326/75/1 315/30/1 317/44/1
f 326/75/1 332/76/1 331/33/1 315/30/1
f 333/77/1 338/78/1 332/76/1 326/75/1
f 334/83/1 333/77/1 326/75/1 327/74/1
f 336/88/1 335/89/1 328/73/1 329/72/1
f 343/113/1 342/115/1 336/88/1 337/114/1
f 342/115/1 341/120/1 335/89/1 336/88/1
f 340/125/1 339/126/1 333/77/1 334/83/1
f 339/126/1 344/129/1 338/78/1 333/77/1
f 345/130/1 350/131/1 344/129/1 339/126/1
f 346/138/1 345/130/1 339/126/1 340/125/1
f 348/146/1 347/21/1 341/120/1 342/115/1
f 349/151/1 348/146/1 342/115/1 343/113/1
f 329/72/1 330/71/1 337/114/1 336/88/1
f 138/125/61 162/138/61 346/138/61 340/125/61
f 87/50/62 101/71/62 330/71/62 323/50/62
f 101/71/62 121/114/62 337/114/62 330/71/62
f 163/21/63 139/120/63 341/120/63 347/21/63
f 88/33/64 44/32/64 325/32/64 331/33/64
f 111/78/64 93/76/64 332/76/64 338/78/64
f 162/138/65 161/130/65 345/130/65 346/138/65
f 115/83/61 138/125/61 340/125/61 334/83/61
f 44/32/66 45/31/66 316/31/66 325/32/66
f 139/120/63 116/89/63 335/89/63 341/120/63
f 42/45/61 84/44/61 317/44/61 318/45/61
f 46/47/66 47/51/66 324/51/66 322/47/66
f 144/113/62 168/151/62 349/151/62 343/113/62
f 93/76/64 88/33/64 331/33/64 332/76/64
f 45/31/66 42/45/66 318/45/66 316/31/66
f 161/130/65 158/131/65 350/131/65 345/130/65
f 168/151/65 166/146/65 348/146/65 349/151/65
f 43/48/66 46/47/66 322/47/66 320/48/66
f 121/114/62 144/113/62 343/113/62 337/114/62
f 85/49/63 43/48/63 320/48/63 319/49/63
f 95/74/61 115/83/61 334/83/61 327/74/61
f 116/89/63 96/73/63 328/73/63 335/89/63
f 134/129/64 111/78/64 338/78/64 344/129/64
f 158/131/64 134/129/64 344/129/64 350/131/64
f 84/44/61 95/74/61 327/74/61 317/44/61
f 166/146/65 163/21/65 347/21/65 348/146/65
f 96/73/63 85/49/63 319/49/63 328/73/63
f 47/51/62 87/50/62 323/50/62 324/51/62
f 373/102/11 362/105/11 363/104/11 364/103/11
f 372/110/11 373/102/11 364/103/11 365/111/11
f 370/116/11 371/119/11 366/118/11 367/117/11
f 369/121/11 370/116/11 367/117/11 368/122/11
f 357/144/11 358/145/11 370/116/11 369/121/11
f 358/145/11 359/150/11 371/119/11 370/116/11
f 360/154/11 361/155/11 373/102/11 372/110/11
f 361/155/11 374/157/11 362/105/11 373/102/11
f 351/158/11 352/159/11 374/157/11 361/155/11
f 356/122/11 351/158/11 361/155/11 360/154/11
f 354/160/11 355/161/11 359/150/11 358/145/11
f 353/111/11 354/160/11 358/145/11 357/144/11
f 154/150/67 131/119/67 371/119/67 359/150/67
f 112/103/68 109/111/68 365/111/68 364/103/68
f 13/161/67 154/150/67 359/150/67 355/161/67
f 104/122/69 127/121/69 369/121/69 368/122/69
f 5/159/70 170/157/70 374/157/70 352/159/70
f 156/154/71 2/122/71 356/122/71 360/154/71
f 16/158/72 5/159/72 352/159/72 351/158/72
f 132/110/71 156/154/71 360/154/71 372/110/71
f 6/160/72 13/161/72 355/161/72 354/160/72
f 17/111/72 6/160/72 354/160/72 353/111/72
f 146/105/70 123/104/70 363/104/70 362/105/70
f 108/118/68 106/117/68 367/117/68 366/118/68
f 127/121/69 150/144/69 357/144/69 369/121/69
f 131/119/67 108/118/67 366/118/67 371/119/67
f 150/144/69 17/111/69 353/111/69 357/144/69
f 170/157/70 146/105/70 362/105/70 374/157/70
f 109/111/71 132/110/71 372/110/71 365/111/71
f 123/104/68 112/103/68 364/103/68 363/104/68
f 106/117/68 104/122/68 368/122/68 367/117/68
f 2/122/72 16/158/72 351/158/72 356/122/72
f 376/23/6 375/20/6 377/230/6 378/24/6
f 167/139/73 155/25/73 378/25/73 377/139/73
f 383/132/6 389/135/6 387/134/6 384/133/6
f 385/147/6 383/132/6 384/133/6 386/148/6
f 390/149/6 385/147/6 386/148/6 388/69/6
f 380/190/6 379/191/6 383/132/6 385/147/6
f 382/192/6 380/190/6 385/147/6 390/149/6
f 379/191/74 381/194/74 391/193/74 389/135/74 383/132/74
f 141/148/75 128/69/75 388/69/75 386/148/75
f 72/193/76 149/135/76 389/135/76 391/193/76
f 79/192/77 76/190/77 380/190/77 382/192/77
f 151/149/78 79/192/78 382/192/78 390/149/78
f 128/69/78 151/149/78 390/149/78 388/69/78
f 77/194/79 72/193/79 391/193/79 381/194/79
f 76/190/77 78/191/77 379/191/77 380/190/77
f 126/134/75 140/133/75 384/133/75 387/134/75
f 149/135/80 126/134/80 387/134/80 389/135/80
f 140/133/75 141/148/75 386/148/75 384/133/75
f 78/191/77 77/194/77 381/194/77 379/191/77
