# Blender v2.75 (sub 0) OBJ File: 'hotel de sal.blend'
# www.blender.org
mtllib nhotel de sal.mtl
o Cone.007
v -3.636577 0.948063 -0.026325
v -3.354405 1.478107 0.654899
v -3.498255 0.948063 -0.068284
v -3.354405 0.948063 -0.082452
v -3.210555 0.948063 -0.068284
v -3.072233 0.948063 -0.026325
v -2.944755 0.948063 0.041814
v -2.833019 0.948063 0.133513
v -2.741320 0.948063 0.245249
v -2.673181 0.948063 0.372728
v -2.631222 0.948063 0.511050
v -2.617054 0.948063 0.654899
v -2.631222 0.948063 0.798750
v -2.673181 0.948063 0.937072
v -2.741320 0.948063 1.064551
v -2.833019 0.948063 1.176286
v -2.944755 0.948063 1.267985
v -3.072233 0.948063 1.336124
v -3.210555 0.948063 1.378083
v -3.354405 0.948063 1.392251
v -3.498256 0.948063 1.378083
v -3.636578 0.948063 1.336124
v -3.764056 0.948063 1.267985
v -3.875792 0.948063 1.176286
v -3.967491 0.948063 1.064550
v -4.035630 0.948063 0.937072
v -4.077589 0.948063 0.798750
v -4.091757 0.948063 0.654899
v -4.077589 0.948063 0.511049
v -4.035629 0.948063 0.372727
v -3.967491 0.948063 0.245248
v -3.875791 0.948063 0.133513
v -3.764055 0.948063 0.041813
v -3.337892 0.193061 -0.219084
v -3.337892 0.946423 -0.219084
v -3.173198 0.946423 -0.202863
v -3.173198 0.193061 -0.202863
v -3.014834 0.193061 -0.154824
v -2.868884 0.193061 -0.076812
v -2.740958 0.193061 0.028173
v -2.635972 0.193061 0.156099
v -2.557961 0.193061 0.302049
v -2.509921 0.193062 0.460413
v -2.493701 0.193062 0.625107
v -2.509921 0.193062 0.789800
v -2.557961 0.193062 0.948165
v -2.635972 0.193062 1.094115
v -2.740958 0.193062 1.222040
v -2.868884 0.193062 1.327026
v -3.014834 0.193062 1.405038
v -3.173198 0.193062 1.453077
v -3.337892 0.193062 1.469298
v -3.502585 0.193062 1.453077
v -3.660950 0.193062 1.405038
v -3.806900 0.193061 1.327026
v -3.934825 0.193061 1.222040
v -4.039811 0.193061 1.094114
v -4.117823 0.193061 0.948164
v -4.165862 0.193061 0.789800
v -4.182083 0.193061 0.625106
v -4.165862 0.193061 0.460413
v -4.117822 0.193061 0.302048
v -4.039810 0.193061 0.156099
v -3.934824 0.193061 0.028173
v -3.806898 0.193061 -0.076813
v -3.660949 0.193061 -0.154824
v -3.502584 0.193061 -0.202863
v -3.502584 0.946423 -0.202863
v -3.660949 0.946423 -0.154824
v -3.806898 0.946423 -0.076813
v -3.934824 0.946423 0.028173
v -4.039811 0.946423 0.156099
v -4.117822 0.946423 0.302048
v -4.165862 0.946423 0.460413
v -4.182083 0.946423 0.625106
v -4.165862 0.946423 0.789800
v -4.117823 0.946423 0.948164
v -4.039811 0.946423 1.094114
v -3.934825 0.946423 1.222040
v -3.806900 0.946423 1.327026
v -3.660950 0.946423 1.405038
v -3.502585 0.946423 1.453077
v -3.337892 0.946423 1.469298
v -3.173198 0.946423 1.453077
v -3.014834 0.946423 1.405038
v -2.868884 0.946423 1.327026
v -2.740958 0.946423 1.222040
v -2.635972 0.946423 1.094115
v -2.557961 0.946423 0.948165
v -2.509921 0.946423 0.789800
v -2.493701 0.946423 0.625107
v -2.509921 0.946423 0.460413
v -2.557961 0.946423 0.302049
v -2.635972 0.946423 0.156099
v -2.740958 0.946423 0.028173
v -2.868884 0.946423 -0.076812
v -3.014834 0.946423 -0.154824
v -2.561587 0.899149 -6.564715
v -2.227337 1.527022 -5.757760
v -2.397736 0.899149 -6.614419
v -2.227337 0.899149 -6.631202
v -2.056937 0.899149 -6.614418
v -1.893085 0.899149 -6.564714
v -1.742079 0.899149 -6.483999
v -1.609720 0.899149 -6.375376
v -1.501096 0.899149 -6.243017
v -1.420382 0.899149 -6.092011
v -1.370678 0.899149 -5.928160
v -1.353895 0.899149 -5.757760
v -1.370678 0.899149 -5.587359
v -1.420382 0.899149 -5.423508
v -1.501096 0.899149 -5.272501
v -1.609720 0.899149 -5.140143
v -1.742078 0.899149 -5.031519
v -1.893085 0.899149 -4.950805
v -2.056937 0.899149 -4.901101
v -2.227337 0.899149 -4.884318
v -2.397737 0.899149 -4.901101
v -2.561589 0.899149 -4.950805
v -2.712595 0.899149 -5.031520
v -2.844954 0.899149 -5.140144
v -2.953577 0.899149 -5.272502
v -3.034292 0.899149 -5.423509
v -3.083996 0.899149 -5.587360
v -3.100779 0.899149 -5.757761
v -3.083996 0.899149 -5.928161
v -3.034291 0.899149 -6.092012
v -2.953577 0.899149 -6.243019
v -2.844953 0.899149 -6.375377
v -2.712594 0.899149 -6.484000
v -2.207775 0.004800 -6.793051
v -2.207775 0.897206 -6.793051
v -2.012685 0.897206 -6.773837
v -2.012685 0.004800 -6.773837
v -1.825092 0.004800 -6.716930
v -1.652205 0.004800 -6.624521
v -1.500668 0.004800 -6.500158
v -1.376306 0.004800 -6.348621
v -1.283896 0.004800 -6.175735
v -1.226990 0.004800 -5.988142
v -1.207775 0.004800 -5.793051
v -1.226990 0.004800 -5.597961
v -1.283895 0.004800 -5.410367
v -1.376305 0.004800 -5.237481
v -1.500668 0.004800 -5.085945
v -1.652205 0.004800 -4.961582
v -1.825092 0.004800 -4.869172
v -2.012685 0.004800 -4.812266
v -2.207775 0.004800 -4.793051
v -2.402866 0.004800 -4.812266
v -2.590459 0.004800 -4.869173
v -2.763346 0.004800 -4.961582
v -2.914882 0.004800 -5.085945
v -3.039245 0.004800 -5.237482
v -3.131655 0.004800 -5.410368
v -3.188560 0.004800 -5.597962
v -3.207775 0.004800 -5.793053
v -3.188560 0.004800 -5.988142
v -3.131654 0.004800 -6.175735
v -3.039244 0.004800 -6.348622
v -2.914881 0.004800 -6.500158
v -2.763344 0.004800 -6.624522
v -2.590457 0.004800 -6.716931
v -2.402864 0.004800 -6.773837
v -2.402864 0.897206 -6.773837
v -2.590457 0.897206 -6.716931
v -2.763344 0.897206 -6.624522
v -2.914881 0.897206 -6.500158
v -3.039244 0.897206 -6.348622
v -3.131654 0.897206 -6.175735
v -3.188560 0.897206 -5.988142
v -3.207775 0.897206 -5.793053
v -3.188561 0.897206 -5.597962
v -3.131655 0.897206 -5.410368
v -3.039245 0.897206 -5.237482
v -2.914882 0.897206 -5.085945
v -2.763346 0.897206 -4.961582
v -2.590459 0.897206 -4.869173
v -2.402866 0.897206 -4.812266
v -2.207776 0.897206 -4.793051
v -2.012685 0.897206 -4.812266
v -1.825092 0.897206 -4.869172
v -1.652205 0.897206 -4.961582
v -1.500668 0.897206 -5.085945
v -1.376305 0.897206 -5.237481
v -1.283895 0.897206 -5.410367
v -1.226990 0.897206 -5.597961
v -1.207775 0.897206 -5.793051
v -1.226990 0.897206 -5.988142
v -1.283896 0.897206 -6.175735
v -1.376306 0.897206 -6.348621
v -1.500668 0.897206 -6.500158
v -1.652205 0.897206 -6.624521
v -1.825092 0.897206 -6.716930
v 1.247056 0.899149 -4.068651
v 1.581307 1.527022 -3.261695
v 1.410908 0.899149 -4.118354
v 1.581307 0.899149 -4.135137
v 1.751706 0.899149 -4.118353
v 1.915559 0.899149 -4.068650
v 2.066565 0.899149 -3.987935
v 2.198923 0.899149 -3.879311
v 2.307547 0.899149 -3.746953
v 2.388262 0.899149 -3.595947
v 2.437965 0.899149 -3.432095
v 2.454749 0.899149 -3.261695
v 2.437966 0.899150 -3.091295
v 2.388262 0.899150 -2.927444
v 2.307547 0.899150 -2.776437
v 2.198923 0.899150 -2.644078
v 2.066565 0.899150 -2.535455
v 1.915559 0.899150 -2.454741
v 1.751707 0.899150 -2.405036
v 1.581307 0.899150 -2.388254
v 1.410907 0.899149 -2.405036
v 1.247055 0.899149 -2.454741
v 1.096048 0.899149 -2.535455
v 0.963690 0.899149 -2.644079
v 0.855066 0.899149 -2.776437
v 0.774352 0.899149 -2.927444
v 0.724648 0.899149 -3.091296
v 0.707865 0.899149 -3.261695
v 0.724648 0.899149 -3.432096
v 0.774352 0.899149 -3.595947
v 0.855067 0.899149 -3.746954
v 0.963691 0.899149 -3.879312
v 1.096050 0.899149 -3.987936
v 1.600868 0.004800 -4.296986
v 1.600868 0.897206 -4.296986
v 1.795959 0.897206 -4.277771
v 1.795959 0.004800 -4.277771
v 1.983552 0.004800 -4.220866
v 2.156439 0.004800 -4.128457
v 2.307976 0.004800 -4.004094
v 2.432338 0.004800 -3.852557
v 2.524748 0.004800 -3.679670
v 2.581654 0.004800 -3.492077
v 2.600868 0.004800 -3.296987
v 2.581654 0.004800 -3.101897
v 2.524748 0.004800 -2.914303
v 2.432338 0.004800 -2.741416
v 2.307976 0.004800 -2.589880
v 2.156439 0.004800 -2.465518
v 1.983552 0.004800 -2.373107
v 1.795959 0.004800 -2.316202
v 1.600868 0.004800 -2.296987
v 1.405778 0.004800 -2.316202
v 1.218185 0.004800 -2.373107
v 1.045298 0.004800 -2.465518
v 0.893762 0.004800 -2.589880
v 0.769399 0.004800 -2.741417
v 0.676989 0.004800 -2.914304
v 0.620083 0.004800 -3.101897
v 0.600869 0.004800 -3.296987
v 0.620084 0.004800 -3.492078
v 0.676990 0.004800 -3.679671
v 0.769400 0.004800 -3.852558
v 0.893763 0.004800 -4.004094
v 1.045300 0.004800 -4.128457
v 1.218187 0.004800 -4.220867
v 1.405780 0.004800 -4.277772
v 1.405780 0.897206 -4.277772
v 1.218187 0.897206 -4.220867
v 1.045299 0.897206 -4.128457
v 0.893763 0.897206 -4.004094
v 0.769400 0.897206 -3.852558
v 0.676990 0.897206 -3.679671
v 0.620083 0.897206 -3.492078
v 0.600869 0.897206 -3.296987
v 0.620083 0.897206 -3.101897
v 0.676989 0.897206 -2.914304
v 0.769399 0.897206 -2.741417
v 0.893762 0.897206 -2.589880
v 1.045298 0.897206 -2.465518
v 1.218185 0.897206 -2.373107
v 1.405778 0.897206 -2.316202
v 1.600868 0.897206 -2.296987
v 1.795959 0.897206 -2.316202
v 1.983552 0.897206 -2.373107
v 2.156439 0.897207 -2.465518
v 2.307976 0.897207 -2.589880
v 2.432338 0.897207 -2.741416
v 2.524748 0.897207 -2.914303
v 2.581654 0.897207 -3.101897
v 2.600868 0.897206 -3.296987
v 2.581654 0.897206 -3.492077
v 2.524748 0.897206 -3.679670
v 2.432338 0.897206 -3.852557
v 2.307976 0.897206 -4.004094
v 2.156439 0.897206 -4.128457
v 1.983552 0.897206 -4.220866
v -2.096357 1.002106 -4.654596
v -1.867792 1.548565 -4.102789
v -1.984313 1.002106 -4.688584
v -1.867792 1.002106 -4.700060
v -1.751271 1.002106 -4.688584
v -1.639227 1.002106 -4.654596
v -1.535966 1.002106 -4.599401
v -1.445458 1.002106 -4.525123
v -1.371180 1.002106 -4.434615
v -1.315986 1.002106 -4.331355
v -1.281998 1.002106 -4.219311
v -1.270521 1.002106 -4.102789
v -1.281998 1.002106 -3.986267
v -1.315986 1.002106 -3.874223
v -1.371180 1.002106 -3.770963
v -1.445458 1.002106 -3.680455
v -1.535966 1.002106 -3.606176
v -1.639227 1.002106 -3.550982
v -1.751271 1.002106 -3.516994
v -1.867793 1.002106 -3.505518
v -1.984314 1.002106 -3.516994
v -2.096358 1.002106 -3.550982
v -2.199619 1.002106 -3.606176
v -2.290127 1.002106 -3.680455
v -2.364405 1.002106 -3.770963
v -2.419599 1.002106 -3.874223
v -2.453587 1.002106 -3.986267
v -2.465064 1.002106 -4.102789
v -2.453587 1.002106 -4.219311
v -2.419599 1.002106 -4.331355
v -2.364405 1.002106 -4.434615
v -2.290126 1.002106 -4.525124
v -2.199618 1.002106 -4.599402
v -2.509012 0.997926 -3.452409
v -2.509012 0.997926 -4.700347
v -2.509012 0.239208 -4.700347
v -2.509012 0.239208 -3.452409
v -1.261075 0.997926 -3.452410
v -1.261075 0.239208 -3.452410
v -1.261075 0.997926 -4.700347
v -1.261075 0.239208 -4.700347
v -0.593801 0.948666 -5.406424
v -0.320532 1.602004 -4.746691
v -0.459843 0.948666 -5.447059
v -0.320532 0.948666 -5.460780
v -0.181220 0.948666 -5.447059
v -0.047262 0.948666 -5.406424
v 0.076194 0.948666 -5.340435
v 0.184405 0.948666 -5.251628
v 0.273211 0.948666 -5.143418
v 0.339200 0.948666 -5.019961
v 0.379836 0.948666 -4.886003
v 0.393557 0.948666 -4.746692
v 0.379836 0.948666 -4.607379
v 0.339200 0.948666 -4.473422
v 0.273211 0.948666 -4.349965
v 0.184405 0.948666 -4.241755
v 0.076194 0.948666 -4.152948
v -0.047262 0.948666 -4.086959
v -0.181220 0.948666 -4.046323
v -0.320532 0.948666 -4.032602
v -0.459844 0.948666 -4.046323
v -0.593802 0.948666 -4.086959
v -0.717259 0.948666 -4.152948
v -0.825470 0.948666 -4.241755
v -0.914276 0.948666 -4.349965
v -0.980265 0.948666 -4.473422
v -1.020900 0.948666 -4.607379
v -1.034621 0.948666 -4.746692
v -1.020900 0.948666 -4.886003
v -0.980264 0.948666 -5.019962
v -0.914275 0.948666 -5.143419
v -0.825469 0.948666 -5.251629
v -0.717258 0.948666 -5.340436
v -1.087165 0.943669 -3.969107
v -1.087165 0.943669 -5.461123
v -1.087165 0.036556 -5.461123
v -1.087165 0.036556 -3.969107
v 0.404851 0.943669 -3.969107
v 0.404851 0.036556 -3.969107
v 0.404851 0.943669 -5.461123
v 0.404851 0.036556 -5.461123
v -2.452358 0.948666 -3.232460
v -2.179090 1.602004 -2.572728
v -2.318400 0.948666 -3.273096
v -2.179090 0.948666 -3.286817
v -2.039778 0.948666 -3.273096
v -1.905820 0.948666 -3.232460
v -1.782363 0.948666 -3.166471
v -1.674152 0.948666 -3.077664
v -1.585346 0.948666 -2.969454
v -1.519358 0.948666 -2.845998
v -1.478722 0.948666 -2.712040
v -1.465001 0.948666 -2.572728
v -1.478722 0.948666 -2.433416
v -1.519357 0.948666 -2.299458
v -1.585346 0.948666 -2.176002
v -1.674152 0.948666 -2.067791
v -1.782363 0.948666 -1.978984
v -1.905820 0.948666 -1.912995
v -2.039778 0.948666 -1.872360
v -2.179090 0.948666 -1.858639
v -2.318402 0.948666 -1.872360
v -2.452360 0.948666 -1.912996
v -2.575816 0.948666 -1.978985
v -2.684027 0.948666 -2.067791
v -2.772833 0.948666 -2.176002
v -2.838822 0.948666 -2.299458
v -2.879457 0.948666 -2.433416
v -2.893178 0.948666 -2.572729
v -2.879457 0.948666 -2.712040
v -2.838821 0.948666 -2.845998
v -2.772832 0.948666 -2.969455
v -2.684026 0.948666 -3.077665
v -2.575815 0.948666 -3.166471
v -2.945723 0.943669 -1.795143
v -2.945723 0.943669 -3.287160
v -2.945723 0.036556 -3.287160
v -2.945723 0.036556 -1.795143
v -1.453706 0.943669 -1.795143
v -1.453706 0.036556 -1.795143
v -1.453706 0.943669 -3.287160
v -1.453706 0.036556 -3.287160
v -2.392066 0.948666 -1.569782
v -2.118797 1.602004 -0.910049
v -2.258108 0.948666 -1.610417
v -2.118797 0.948666 -1.624138
v -1.979486 0.948666 -1.610417
v -1.845527 0.948666 -1.569781
v -1.722071 0.948666 -1.503792
v -1.613860 0.948666 -1.414986
v -1.525054 0.948666 -1.306776
v -1.459065 0.948666 -1.183320
v -1.418430 0.948666 -1.049361
v -1.404709 0.948666 -0.910049
v -1.418429 0.948666 -0.770737
v -1.459065 0.948666 -0.636779
v -1.525054 0.948666 -0.513323
v -1.613860 0.948666 -0.405112
v -1.722071 0.948666 -0.316306
v -1.845528 0.948666 -0.250317
v -1.979486 0.948666 -0.209681
v -2.118798 0.948666 -0.195960
v -2.258110 0.948666 -0.209681
v -2.392068 0.948666 -0.250317
v -2.515524 0.948666 -0.316306
v -2.623735 0.948666 -0.405112
v -2.712541 0.948666 -0.513323
v -2.778530 0.948666 -0.636780
v -2.819165 0.948666 -0.770737
v -2.832886 0.948666 -0.910049
v -2.819165 0.948666 -1.049361
v -2.778529 0.948666 -1.183320
v -2.712540 0.948666 -1.306776
v -2.623734 0.948666 -1.414987
v -2.515523 0.948666 -1.503793
v -2.885431 0.943669 -0.132464
v -2.885431 0.943669 -1.624481
v -2.885431 0.036556 -1.624481
v -2.885431 0.036556 -0.132464
v -1.393414 0.943669 -0.132465
v -1.393414 0.036556 -0.132465
v -1.393414 0.943669 -1.624481
v -1.393414 0.036556 -1.624481
v -0.778213 0.948666 -2.009615
v -0.504944 1.602004 -1.349883
v -0.644255 0.948666 -2.050251
v -0.504944 0.948666 -2.063972
v -0.365632 0.948666 -2.050251
v -0.231674 0.948666 -2.009615
v -0.108217 0.948666 -1.943626
v -0.000007 0.948666 -1.854820
v 0.088799 0.948666 -1.746609
v 0.154788 0.948666 -1.623153
v 0.195424 0.948666 -1.489195
v 0.209145 0.948666 -1.349883
v 0.195424 0.948666 -1.210571
v 0.154788 0.948666 -1.076613
v 0.088799 0.948666 -0.953156
v -0.000007 0.948666 -0.844946
v -0.108217 0.948666 -0.756140
v -0.231674 0.948666 -0.690150
v -0.365632 0.948666 -0.649515
v -0.504944 0.948666 -0.635793
v -0.644256 0.948666 -0.649515
v -0.778214 0.948666 -0.690150
v -0.901671 0.948666 -0.756140
v -1.009881 0.948666 -0.844945
v -1.098687 0.948666 -0.953156
v -1.164676 0.948666 -1.076613
v -1.205312 0.948666 -1.210571
v -1.219033 0.948666 -1.349883
v -1.205312 0.948666 -1.489195
v -1.164676 0.948666 -1.623153
v -1.098687 0.948666 -1.746610
v -1.009880 0.948666 -1.854820
v -0.901670 0.948666 -1.943627
v -1.271577 0.943669 -0.572298
v -1.271577 0.943669 -2.064315
v -1.271577 0.036556 -2.064315
v -1.271577 0.036556 -0.572298
v 0.220439 0.943669 -0.572299
v 0.220439 0.036556 -0.572299
v 0.220439 0.943669 -2.064315
v 0.220439 0.036556 -2.064315
v -0.639861 0.948666 -3.627751
v -0.366592 1.602004 -2.968019
v -0.505903 0.948666 -3.668387
v -0.366592 0.948666 -3.682107
v -0.227280 0.948666 -3.668387
v -0.093322 0.948666 -3.627751
v 0.030134 0.948666 -3.561762
v 0.138345 0.948666 -3.472956
v 0.227151 0.948666 -3.364745
v 0.293140 0.948666 -3.241289
v 0.333776 0.948666 -3.107331
v 0.347497 0.948666 -2.968019
v 0.333776 0.948666 -2.828707
v 0.293140 0.948666 -2.694749
v 0.227151 0.948666 -2.571292
v 0.138345 0.948666 -2.463081
v 0.030135 0.948666 -2.374275
v -0.093322 0.948666 -2.308286
v -0.227280 0.948666 -2.267651
v -0.366592 0.948666 -2.253930
v -0.505904 0.948666 -2.267651
v -0.639862 0.948666 -2.308287
v -0.763319 0.948666 -2.374276
v -0.871529 0.948666 -2.463081
v -0.960335 0.948666 -2.571292
v -1.026324 0.948666 -2.694749
v -1.066960 0.948666 -2.828707
v -1.080681 0.948666 -2.968019
v -1.066960 0.948666 -3.107331
v -1.026324 0.948666 -3.241290
v -0.960335 0.948666 -3.364746
v -0.871528 0.948666 -3.472956
v -0.763318 0.948666 -3.561762
v -1.133225 0.943669 -2.190434
v -1.133225 0.943669 -3.682451
v -1.133225 0.036556 -3.682451
v -1.133225 0.036556 -2.190434
v 0.358791 0.943669 -2.190434
v 0.358791 0.036556 -2.190434
v 0.358791 0.943669 -3.682451
v 0.358791 0.036556 -3.682451
v 0.929329 0.899149 -2.178081
v 1.263580 1.527022 -1.371125
v 1.093181 0.899149 -2.227784
v 1.263580 0.899149 -2.244567
v 1.433980 0.899149 -2.227784
v 1.597832 0.899149 -2.178081
v 1.748838 0.899149 -2.097365
v 1.881196 0.899149 -1.988742
v 1.989820 0.899149 -1.856383
v 2.070534 0.899149 -1.705377
v 2.120239 0.899149 -1.541525
v 2.137022 0.899149 -1.371125
v 2.120239 0.899150 -1.200725
v 2.070535 0.899150 -1.036874
v 1.989820 0.899150 -0.885867
v 1.881196 0.899150 -0.753509
v 1.748838 0.899150 -0.644885
v 1.597832 0.899150 -0.564170
v 1.433980 0.899150 -0.514466
v 1.263580 0.899150 -0.497684
v 1.093180 0.899149 -0.514466
v 0.929328 0.899149 -0.564170
v 0.778321 0.899149 -0.644885
v 0.645963 0.899149 -0.753509
v 0.537339 0.899149 -0.885868
v 0.456625 0.899149 -1.036874
v 0.406921 0.899149 -1.200726
v 0.390138 0.899149 -1.371126
v 0.406921 0.899149 -1.541526
v 0.456625 0.899149 -1.705378
v 0.537340 0.899149 -1.856385
v 0.645964 0.899149 -1.988742
v 0.778323 0.899149 -2.097366
v 1.283141 0.004800 -2.406416
v 1.283141 0.897206 -2.406416
v 1.478232 0.897206 -2.387202
v 1.478232 0.004800 -2.387202
v 1.665825 0.004800 -2.330297
v 1.838712 0.004800 -2.237886
v 1.990248 0.004800 -2.113523
v 2.114611 0.004800 -1.961987
v 2.207021 0.004800 -1.789100
v 2.263927 0.004800 -1.601507
v 2.283141 0.004800 -1.406417
v 2.263927 0.004800 -1.211327
v 2.207021 0.004800 -1.023734
v 2.114611 0.004800 -0.850847
v 1.990248 0.004800 -0.699310
v 1.838712 0.004800 -0.574948
v 1.665825 0.004800 -0.482538
v 1.478232 0.004800 -0.425632
v 1.283141 0.004800 -0.406417
v 1.088051 0.004800 -0.425632
v 0.900458 0.004800 -0.482538
v 0.727571 0.004800 -0.574948
v 0.576035 0.004800 -0.699310
v 0.451672 0.004800 -0.850847
v 0.359262 0.004800 -1.023734
v 0.302356 0.004800 -1.211327
v 0.283142 0.004800 -1.406418
v 0.302357 0.004800 -1.601508
v 0.359263 0.004800 -1.789101
v 0.451673 0.004800 -1.961988
v 0.576036 0.004800 -2.113524
v 0.727573 0.004800 -2.237887
v 0.900460 0.004800 -2.330297
v 1.088053 0.004800 -2.387202
v 1.088053 0.897206 -2.387202
v 0.900460 0.897206 -2.330297
v 0.727573 0.897206 -2.237887
v 0.576036 0.897206 -2.113524
v 0.451673 0.897206 -1.961988
v 0.359263 0.897206 -1.789101
v 0.302356 0.897206 -1.601508
v 0.283142 0.897206 -1.406418
v 0.302356 0.897206 -1.211327
v 0.359262 0.897206 -1.023734
v 0.451672 0.897206 -0.850847
v 0.576034 0.897206 -0.699310
v 0.727571 0.897206 -0.574948
v 0.900458 0.897206 -0.482538
v 1.088051 0.897206 -0.425632
v 1.283141 0.897206 -0.406417
v 1.478232 0.897206 -0.425632
v 1.665825 0.897206 -0.482538
v 1.838712 0.897207 -0.574948
v 1.990248 0.897207 -0.699310
v 2.114611 0.897207 -0.850847
v 2.207021 0.897207 -1.023734
v 2.263927 0.897207 -1.211327
v 2.283141 0.897206 -1.406417
v 2.263927 0.897206 -1.601507
v 2.207021 0.897206 -1.789100
v 2.114611 0.897206 -1.961987
v 1.990248 0.897206 -2.113523
v 1.838712 0.897206 -2.237886
v 1.665825 0.897206 -2.330297
v -2.856938 1.000143 1.891820
v -2.856938 0.043281 1.891820
v -2.691176 1.000143 1.345379
v -2.691176 0.043281 1.345379
v -2.421995 1.000144 0.841775
v -2.421995 0.043281 0.841775
v -2.059737 1.000144 0.400362
v -2.059737 0.043281 0.400362
v -1.618325 1.000144 0.038105
v -1.618325 0.043281 0.038105
v -1.114721 1.000144 -0.231077
v -1.114721 0.043281 -0.231077
v -0.568280 1.000144 -0.396838
v -0.568280 0.043281 -0.396838
v 0.000001 1.000144 -0.452809
v 0.000001 0.043281 -0.452809
v 0.568281 1.000144 -0.396838
v 0.568281 0.043281 -0.396838
v 1.114723 1.000144 -0.231076
v 1.114723 0.043281 -0.231076
v 1.618326 1.000144 0.038105
v 1.618326 0.043281 0.038105
v 2.059739 1.000144 0.400363
v 2.059739 0.043281 0.400363
v 2.421996 1.000144 0.841775
v 2.421996 0.043281 0.841775
v 2.691177 1.000144 1.345380
v 2.691177 0.043281 1.345380
v 2.856938 1.000144 1.891821
v 2.856938 0.043281 1.891821
v 2.912909 1.000144 2.460102
v 2.912909 0.043281 2.460102
v 2.856937 1.000144 3.028382
v 2.856937 0.043281 3.028382
v -1.145714 1.002772 -0.685343
v 0.019256 2.610064 2.127154
v -0.574638 1.002772 -0.858576
v 0.019256 1.002772 -0.917069
v 0.613155 1.002772 -0.858575
v 1.184230 1.002772 -0.685341
v 1.710536 1.002772 -0.404025
v 2.171847 1.002772 -0.025437
v 2.550435 1.002772 0.435875
v 2.831751 1.002772 0.962180
v 3.004985 1.002772 1.533256
v 3.063479 1.002772 2.127154
v 3.004985 1.002772 2.721052
v 2.831752 1.002772 3.292127
v 2.550435 1.002772 3.818433
v 2.171847 1.002772 4.279745
v 1.710536 1.002772 4.658334
v 1.184229 1.002772 4.939650
v 0.613154 1.002772 5.112884
v 0.019255 1.002772 5.171377
v -0.574644 1.002772 5.112884
v -1.145719 1.002772 4.939649
v -1.672025 1.002772 4.658332
v -2.133336 1.002772 4.279744
v -2.511924 1.002772 3.818432
v -2.793240 1.002772 3.292125
v -2.966473 1.002772 2.721050
v -3.024967 1.002772 2.127151
v -2.966472 1.002772 1.533252
v -2.793238 1.002772 0.962177
v -2.511921 1.002772 0.435871
v -2.133332 1.002772 -0.025439
v -1.672020 1.002772 -0.404027
v 0.000000 1.000144 5.009899
v 0.000000 0.043281 5.009899
v -0.568280 0.043281 4.953928
v -0.568280 1.000144 4.953928
v -1.114722 1.000144 4.788167
v -1.618325 1.000144 4.518985
v -2.059737 1.000144 4.156727
v -2.421995 1.000144 3.715315
v -2.691177 1.000144 3.211711
v -2.856938 1.000144 2.665270
v -2.912909 1.000144 2.096990
v -2.856938 1.000144 1.528710
v -2.691177 1.000144 0.982268
v -2.421995 1.000144 0.478665
v -2.059737 1.000144 0.037252
v -1.618325 1.000144 -0.325005
v -1.114722 1.000144 -0.594187
v -0.568280 1.000144 -0.759948
v 0.000001 1.000144 -0.815919
v 0.568281 1.000144 -0.759948
v 1.114723 1.000144 -0.594186
v 2.856939 1.000144 1.528712
v 2.912909 1.000144 2.096993
v 2.856937 1.000144 2.665273
v 2.691175 1.000144 3.211715
v 2.421993 1.000144 3.715318
v 2.059735 1.000144 4.156730
v 1.618322 1.000144 4.518987
v 1.114718 1.000144 4.788169
v 0.568276 1.000144 4.953929
v 0.568276 0.043281 4.953929
v 1.114718 0.043281 4.788169
v 1.618322 0.043281 4.518987
v 2.059735 0.043281 4.156730
v 2.421993 0.043281 3.715318
v 2.691175 0.043281 3.211715
v 2.856937 0.043281 2.665273
v 2.912909 0.043281 2.096993
v 2.856939 0.043281 1.528712
v 1.114723 0.043281 -0.594186
v 0.568281 0.043281 -0.759948
v 0.000001 0.043281 -0.815919
v -0.568280 0.043281 -0.759948
v -1.114722 0.043281 -0.594187
v -1.618325 0.043281 -0.325005
v -2.059737 0.043281 0.037252
v -2.421995 0.043281 0.478665
v -2.691177 0.043281 0.982268
v -2.856938 0.043281 1.528710
v -2.912909 0.043281 2.096990
v -2.856938 0.043281 2.665270
v -2.691177 0.043281 3.211711
v -2.421995 0.043281 3.715315
v -2.059737 0.043281 4.156727
v -1.618325 0.043281 4.518985
v -1.114722 0.043281 4.788167
vt 0.948055 0.276128
vt 0.983088 0.210649
vt 0.951470 0.277619
vt 0.059453 0.996056
vt 0.054822 0.994133
vt 0.050654 0.991341
vt 0.047109 0.987788
vt 0.044325 0.983609
vt 0.042406 0.978967
vt 0.041428 0.974038
vt 0.041428 0.969013
vt 0.042406 0.964084
vt 0.044324 0.959441
vt 0.047109 0.955263
vt 0.050654 0.951710
vt 0.054822 0.948918
vt 0.059453 0.946995
vt 0.064369 0.946014
vt 0.069382 0.946014
vt 0.074298 0.946995
vt 0.078929 0.948918
vt 0.083097 0.951710
vt 0.086642 0.955263
vt 0.089427 0.959441
vt 0.091345 0.964084
vt 0.092323 0.969013
vt 0.092323 0.974038
vt 0.091345 0.978967
vt 0.089427 0.983609
vt 0.086642 0.987788
vt 0.083097 0.991341
vt 0.078929 0.994133
vt 0.074298 0.996056
vt 0.069382 0.997036
vt 0.064369 0.997036
vt 0.530415 0.895507
vt 0.561605 0.962486
vt 0.526632 0.897118
vt 0.955500 0.279098
vt 0.959992 0.280508
vt 0.964772 0.281794
vt 0.969657 0.282908
vt 0.974459 0.283806
vt 0.978994 0.284454
vt 0.983088 0.284826
vt 0.839214 0.964195
vt 0.874246 0.898717
vt 0.842628 0.965687
vt 0.846658 0.967166
vt 0.851150 0.968575
vt 0.855930 0.969862
vt 0.860815 0.970975
vt 0.865618 0.971873
vt 0.870153 0.972521
vt 0.874246 0.972894
vt 0.942540 0.065478
vt 0.977573 0.000000
vt 0.945955 0.066970
vt 0.949985 0.068449
vt 0.954477 0.069859
vt 0.959257 0.071145
vt 0.964142 0.072259
vt 0.968944 0.073157
vt 0.973479 0.073804
vt 0.977573 0.074177
vt 0.561605 0.888183
vt 0.557893 0.888487
vt 0.553644 0.889093
vt 0.549021 0.889979
vt 0.544202 0.891111
vt 0.539372 0.892444
vt 0.534716 0.893929
vt 0.256501 0.790800
vt 0.256501 0.888097
vt 0.251126 0.887702
vt 0.251126 0.790406
vt 0.592047 0.169254
vt 0.593167 0.163611
vt 0.595363 0.158296
vt 0.598551 0.153512
vt 0.602609 0.149444
vt 0.607381 0.146247
vt 0.612683 0.144046
vt 0.618312 0.142923
vt 0.624051 0.142923
vt 0.629680 0.144046
vt 0.634982 0.146247
vt 0.639754 0.149444
vt 0.643812 0.153512
vt 0.647000 0.158296
vt 0.649196 0.163611
vt 0.650316 0.169254
vt 0.650316 0.175008
vt 0.649196 0.180650
vt 0.647000 0.185966
vt 0.643812 0.190750
vt 0.639754 0.194818
vt 0.634982 0.198014
vt 0.629680 0.200216
vt 0.624051 0.201338
vt 0.618312 0.201338
vt 0.612683 0.200216
vt 0.607381 0.198014
vt 0.602609 0.194818
vt 0.598551 0.190749
vt 0.595363 0.185966
vt 0.593167 0.180650
vt 0.592047 0.175007
vt 0.261379 0.791393
vt 0.261379 0.888689
vt 0.623815 0.354695
vt 0.629443 0.353572
vt 0.635182 0.353572
vt 0.640811 0.354695
vt 0.646113 0.356896
vt 0.650885 0.360093
vt 0.654943 0.364161
vt 0.658132 0.368945
vt 0.660328 0.374260
vt 0.661447 0.379903
vt 0.661447 0.385657
vt 0.660328 0.391299
vt 0.658132 0.396615
vt 0.654943 0.401399
vt 0.650885 0.405467
vt 0.646113 0.408663
vt 0.640811 0.410865
vt 0.635182 0.411987
vt 0.629443 0.411987
vt 0.623815 0.410865
vt 0.618513 0.408663
vt 0.613741 0.405467
vt 0.609683 0.401399
vt 0.606494 0.396615
vt 0.604298 0.391299
vt 0.603178 0.385657
vt 0.603178 0.379903
vt 0.604298 0.374260
vt 0.606494 0.368945
vt 0.609683 0.364161
vt 0.613741 0.360093
vt 0.618513 0.356896
vt 0.245463 0.887520
vt 0.245463 0.790224
vt 0.239727 0.887559
vt 0.239727 0.790263
vt 0.234140 0.887816
vt 0.234140 0.790520
vt 0.228916 0.888282
vt 0.228916 0.790986
vt 0.224256 0.888939
vt 0.224256 0.791642
vt 0.182939 0.887520
vt 0.182939 0.790224
vt 0.187133 0.790992
vt 0.187133 0.888288
vt 0.192012 0.791585
vt 0.192012 0.888881
vt 0.197386 0.791979
vt 0.197386 0.889276
vt 0.203049 0.792161
vt 0.203049 0.889457
vt 0.208785 0.792122
vt 0.208785 0.889419
vt 0.214372 0.791865
vt 0.214372 0.889162
vt 0.219596 0.791399
vt 0.219596 0.888696
vt 0.224256 0.790743
vt 0.224256 0.888039
vt 0.182939 0.792161
vt 0.182939 0.889457
vt 0.178744 0.888690
vt 0.178744 0.791393
vt 0.173866 0.888097
vt 0.173866 0.790800
vt 0.168492 0.887702
vt 0.168492 0.790406
vt 0.162828 0.887520
vt 0.162828 0.790224
vt 0.157092 0.887559
vt 0.157092 0.790263
vt 0.151505 0.887816
vt 0.151505 0.790520
vt 0.146281 0.888282
vt 0.146282 0.790986
vt 0.141622 0.888939
vt 0.141622 0.791642
vt 0.492353 0.886246
vt 0.492353 0.788950
vt 0.496548 0.789718
vt 0.496548 0.887014
vt 0.501426 0.790311
vt 0.501426 0.887607
vt 0.506800 0.790705
vt 0.506800 0.888002
vt 0.512464 0.790887
vt 0.512464 0.888183
vt 0.518200 0.790848
vt 0.518200 0.888145
vt 0.523787 0.790591
vt 0.523787 0.887888
vt 0.529011 0.790125
vt 0.529011 0.887422
vt 0.533670 0.789469
vt 0.533670 0.886765
vt 0.265573 0.792161
vt 0.265573 0.889457
vt 0.082926 0.935710
vt 0.124425 0.858146
vt 0.086971 0.937477
vt 0.450119 0.202201
vt 0.444296 0.203362
vt 0.438358 0.203362
vt 0.432534 0.202201
vt 0.427048 0.199923
vt 0.422111 0.196616
vt 0.417912 0.192407
vt 0.414613 0.187457
vt 0.412341 0.181958
vt 0.411183 0.176119
vt 0.411183 0.170167
vt 0.412341 0.164328
vt 0.414613 0.158829
vt 0.417912 0.153879
vt 0.422111 0.149670
vt 0.427048 0.146363
vt 0.432534 0.144085
vt 0.438358 0.142923
vt 0.444296 0.142923
vt 0.450119 0.144085
vt 0.455605 0.146363
vt 0.460542 0.149670
vt 0.464741 0.153879
vt 0.468040 0.158828
vt 0.470312 0.164328
vt 0.471471 0.170166
vt 0.471471 0.176119
vt 0.470312 0.181957
vt 0.468040 0.187457
vt 0.464741 0.192407
vt 0.460542 0.196616
vt 0.455605 0.199923
vt 0.929229 0.210207
vt 0.934078 0.122781
vt 0.934078 0.210649
vt 0.091745 0.939229
vt 0.097066 0.940898
vt 0.102728 0.942422
vt 0.108515 0.943741
vt 0.114204 0.944805
vt 0.119576 0.945573
vt 0.124425 0.946014
vt 0.851082 0.200345
vt 0.892580 0.122781
vt 0.855126 0.202111
vt 0.859901 0.203863
vt 0.865221 0.205533
vt 0.870884 0.207057
vt 0.876670 0.208376
vt 0.882359 0.209440
vt 0.887731 0.210207
vt 0.892580 0.210649
vt 0.927082 0.500228
vt 0.927082 0.588244
vt 0.922685 0.500588
vt 0.917651 0.501306
vt 0.912175 0.502355
vt 0.906467 0.503696
vt 0.900745 0.505275
vt 0.895230 0.507033
vt 0.890135 0.508903
vt 0.885653 0.510811
vt 0.892580 0.200345
vt 0.896624 0.202111
vt 0.901399 0.203863
vt 0.906719 0.205533
vt 0.912382 0.207057
vt 0.918169 0.208376
vt 0.923857 0.209440
vt 0.782027 0.647992
vt 0.782027 0.763246
vt 0.775661 0.762778
vt 0.775661 0.647524
vt 0.061319 0.845603
vt 0.056512 0.850422
vt 0.050859 0.854209
vt 0.044578 0.856817
vt 0.037911 0.858146
vt 0.031113 0.858146
vt 0.024445 0.856817
vt 0.018164 0.854209
vt 0.012512 0.850422
vt 0.007705 0.845603
vt 0.003928 0.839937
vt 0.001326 0.833640
vt 0.000000 0.826956
vt 0.000000 0.820141
vt 0.001326 0.813456
vt 0.003928 0.807160
vt 0.007705 0.801493
vt 0.012512 0.796674
vt 0.018164 0.792888
vt 0.024445 0.790280
vt 0.031113 0.788950
vt 0.037911 0.788950
vt 0.044579 0.790280
vt 0.050859 0.792888
vt 0.056512 0.796674
vt 0.061319 0.801493
vt 0.065096 0.807160
vt 0.067697 0.813456
vt 0.069024 0.820141
vt 0.069024 0.826956
vt 0.067697 0.833640
vt 0.065096 0.839937
vt 0.787805 0.648694
vt 0.787805 0.763948
vt 0.800343 0.404488
vt 0.794690 0.408274
vt 0.788410 0.410882
vt 0.781742 0.412212
vt 0.774944 0.412212
vt 0.768276 0.410882
vt 0.761995 0.408274
vt 0.756343 0.404488
vt 0.751536 0.399669
vt 0.747759 0.394002
vt 0.745157 0.387706
vt 0.743831 0.381021
vt 0.743831 0.374206
vt 0.745157 0.367522
vt 0.747759 0.361225
vt 0.751536 0.355559
vt 0.756343 0.350739
vt 0.761995 0.346953
vt 0.768276 0.344345
vt 0.774944 0.343015
vt 0.781742 0.343015
vt 0.788409 0.344345
vt 0.794690 0.346953
vt 0.800343 0.350739
vt 0.805150 0.355559
vt 0.808927 0.361225
vt 0.811528 0.367522
vt 0.812855 0.374206
vt 0.812855 0.381021
vt 0.811528 0.387706
vt 0.808927 0.394002
vt 0.805150 0.399669
vt 0.768952 0.762563
vt 0.768952 0.647309
vt 0.762157 0.762608
vt 0.762157 0.647354
vt 0.755539 0.762913
vt 0.755539 0.647659
vt 0.749351 0.763465
vt 0.749351 0.648211
vt 0.743831 0.764243
vt 0.743831 0.648989
vt 0.743831 0.532055
vt 0.743831 0.647309
vt 0.738862 0.646399
vt 0.738862 0.531145
vt 0.733084 0.645697
vt 0.733084 0.530443
vt 0.726718 0.645229
vt 0.726718 0.529975
vt 0.720009 0.645014
vt 0.720009 0.529760
vt 0.713214 0.645060
vt 0.713214 0.529806
vt 0.706596 0.645365
vt 0.706596 0.530110
vt 0.700408 0.645916
vt 0.700408 0.530662
vt 0.694888 0.646694
vt 0.694888 0.531440
vt 0.768942 0.002294
vt 0.768942 0.117548
vt 0.763974 0.116639
vt 0.763974 0.001385
vt 0.758195 0.115937
vt 0.758195 0.000683
vt 0.751829 0.115469
vt 0.751829 0.000215
vt 0.745120 0.115254
vt 0.745120 0.000000
vt 0.738326 0.115300
vt 0.738326 0.000046
vt 0.731708 0.115604
vt 0.731708 0.000350
vt 0.725519 0.116156
vt 0.725519 0.000902
vt 0.719999 0.116934
vt 0.719999 0.001680
vt 0.743831 0.414506
vt 0.743831 0.529760
vt 0.738862 0.528851
vt 0.738862 0.413597
vt 0.733084 0.528149
vt 0.733084 0.412895
vt 0.726718 0.527681
vt 0.726718 0.412427
vt 0.720009 0.527466
vt 0.720009 0.412212
vt 0.713214 0.527511
vt 0.713214 0.412257
vt 0.706596 0.527816
vt 0.706596 0.412562
vt 0.700408 0.528368
vt 0.700408 0.413114
vt 0.694888 0.529146
vt 0.694888 0.413892
vt 0.792774 0.649603
vt 0.792774 0.764857
vt 0.041428 0.935710
vt 0.082926 0.858146
vt 0.045473 0.937477
vt 0.482399 0.196616
vt 0.478200 0.192407
vt 0.474901 0.187457
vt 0.472629 0.181958
vt 0.472629 0.164328
vt 0.474902 0.158829
vt 0.478200 0.153879
vt 0.482399 0.149670
vt 0.487336 0.146363
vt 0.492822 0.144085
vt 0.498646 0.142923
vt 0.504584 0.142923
vt 0.510408 0.144085
vt 0.515893 0.146363
vt 0.520831 0.149670
vt 0.525029 0.153879
vt 0.528328 0.158829
vt 0.530600 0.164328
vt 0.531759 0.170166
vt 0.531759 0.176119
vt 0.530600 0.181958
vt 0.528328 0.187457
vt 0.525029 0.192407
vt 0.520831 0.196616
vt 0.515893 0.199923
vt 0.510408 0.202201
vt 0.504584 0.203362
vt 0.498646 0.203362
vt 0.492822 0.202201
vt 0.487336 0.199923
vt 0.745111 0.131308
vt 0.782058 0.210649
vt 0.740630 0.133216
vt 0.050247 0.939229
vt 0.055568 0.940899
vt 0.061230 0.942422
vt 0.067017 0.943741
vt 0.072706 0.944805
vt 0.078078 0.945573
vt 0.082926 0.946014
vt 0.885653 0.854654
vt 0.927152 0.777091
vt 0.889698 0.856421
vt 0.894472 0.858173
vt 0.899793 0.859843
vt 0.905455 0.861366
vt 0.911242 0.862686
vt 0.916931 0.863749
vt 0.922303 0.864517
vt 0.927152 0.864958
vt 0.927082 0.676112
vt 0.927082 0.764128
vt 0.922685 0.676471
vt 0.917651 0.677190
vt 0.912175 0.678239
vt 0.906467 0.679580
vt 0.900745 0.681159
vt 0.895230 0.682917
vt 0.890135 0.684787
vt 0.885653 0.686695
vt 0.782058 0.122633
vt 0.777661 0.122993
vt 0.772628 0.123711
vt 0.767152 0.124761
vt 0.761443 0.126101
vt 0.755722 0.127680
vt 0.750207 0.129439
vt 0.743862 0.327515
vt 0.743862 0.212261
vt 0.750229 0.212728
vt 0.750229 0.327982
vt 0.488425 0.807160
vt 0.491027 0.813456
vt 0.492353 0.820141
vt 0.492353 0.826956
vt 0.491027 0.833640
vt 0.488425 0.839936
vt 0.484648 0.845603
vt 0.479841 0.850422
vt 0.474189 0.854209
vt 0.467908 0.856817
vt 0.461241 0.858146
vt 0.454442 0.858146
vt 0.447775 0.856817
vt 0.441494 0.854209
vt 0.435841 0.850422
vt 0.431034 0.845603
vt 0.427257 0.839936
vt 0.424656 0.833640
vt 0.423330 0.826956
vt 0.423330 0.820140
vt 0.424656 0.813456
vt 0.427258 0.807160
vt 0.431034 0.801493
vt 0.435841 0.796674
vt 0.441494 0.792888
vt 0.447775 0.790280
vt 0.454442 0.788950
vt 0.461241 0.788950
vt 0.467908 0.790280
vt 0.474189 0.792888
vt 0.479841 0.796674
vt 0.484649 0.801493
vt 0.738084 0.326813
vt 0.738084 0.211559
vt 0.740080 0.148739
vt 0.740080 0.155554
vt 0.738754 0.162239
vt 0.736152 0.168535
vt 0.732375 0.174202
vt 0.727568 0.179021
vt 0.721916 0.182807
vt 0.715635 0.185415
vt 0.708967 0.186745
vt 0.702169 0.186745
vt 0.695502 0.185415
vt 0.689221 0.182807
vt 0.683568 0.179021
vt 0.678761 0.174202
vt 0.674984 0.168535
vt 0.672383 0.162239
vt 0.671057 0.155554
vt 0.671057 0.148739
vt 0.672383 0.142055
vt 0.674984 0.135758
vt 0.678761 0.130092
vt 0.683568 0.125272
vt 0.689221 0.121486
vt 0.695502 0.118878
vt 0.702169 0.117548
vt 0.708967 0.117549
vt 0.715635 0.118878
vt 0.721916 0.121486
vt 0.727568 0.125273
vt 0.732375 0.130092
vt 0.736152 0.135758
vt 0.738754 0.142055
vt 0.756938 0.212944
vt 0.756938 0.328198
vt 0.763732 0.212898
vt 0.763732 0.328152
vt 0.770350 0.212593
vt 0.770350 0.327847
vt 0.776538 0.212041
vt 0.776538 0.327296
vt 0.782058 0.211264
vt 0.782058 0.326518
vt 0.743831 0.649603
vt 0.743831 0.764857
vt 0.738862 0.763948
vt 0.738862 0.648694
vt 0.733084 0.763246
vt 0.733084 0.647992
vt 0.726718 0.762778
vt 0.726718 0.647524
vt 0.720009 0.762563
vt 0.720009 0.647309
vt 0.713214 0.762608
vt 0.713214 0.647354
vt 0.706596 0.762913
vt 0.706596 0.647659
vt 0.700408 0.763465
vt 0.700408 0.648211
vt 0.694888 0.764243
vt 0.694888 0.648989
vt 0.369444 0.649595
vt 0.369444 0.764849
vt 0.364476 0.763940
vt 0.364476 0.648686
vt 0.358697 0.763238
vt 0.358697 0.647984
vt 0.352331 0.762770
vt 0.352331 0.647516
vt 0.345622 0.762555
vt 0.345622 0.647301
vt 0.338828 0.762600
vt 0.338828 0.647346
vt 0.332209 0.762905
vt 0.332209 0.647651
vt 0.326021 0.763457
vt 0.326021 0.648203
vt 0.320501 0.764235
vt 0.320501 0.648981
vt 0.719999 0.002294
vt 0.720000 0.117548
vt 0.715031 0.116639
vt 0.715031 0.001385
vt 0.709252 0.115937
vt 0.709252 0.000683
vt 0.702886 0.115469
vt 0.702886 0.000215
vt 0.696177 0.115254
vt 0.696177 0.000000
vt 0.689383 0.115300
vt 0.689383 0.000046
vt 0.682765 0.115604
vt 0.682765 0.000350
vt 0.676576 0.116156
vt 0.676576 0.000902
vt 0.671057 0.116934
vt 0.671057 0.001680
vt 0.733115 0.325903
vt 0.733115 0.210649
vt 0.961360 0.481375
vt 0.990031 0.412212
vt 0.964179 0.482454
vt 0.004602 0.980000
vt 0.002346 0.976615
vt 0.000792 0.972855
vt 0.000000 0.968862
vt 0.000000 0.964792
vt 0.000792 0.960799
vt 0.002346 0.957039
vt 0.004602 0.953654
vt 0.007473 0.950776
vt 0.010849 0.948514
vt 0.014600 0.946957
vt 0.018583 0.946163
vt 0.022643 0.946163
vt 0.026625 0.946957
vt 0.030377 0.948514
vt 0.033753 0.950776
vt 0.036624 0.953654
vt 0.038880 0.957039
vt 0.040434 0.960799
vt 0.041226 0.964792
vt 0.041226 0.968862
vt 0.040434 0.972855
vt 0.038880 0.976615
vt 0.036624 0.980000
vt 0.033753 0.982878
vt 0.030377 0.985140
vt 0.026625 0.986697
vt 0.022643 0.987491
vt 0.018583 0.987491
vt 0.014600 0.986697
vt 0.010849 0.985140
vt 0.007473 0.982878
vt 0.979555 0.939700
vt 0.982881 0.864958
vt 0.982881 0.939849
vt 0.967495 0.483500
vt 0.971182 0.484472
vt 0.975098 0.485334
vt 0.979092 0.486052
vt 0.983011 0.486599
vt 0.986705 0.486954
vt 0.990031 0.487102
vt 0.533670 0.858113
vt 0.562341 0.788950
vt 0.536489 0.859192
vt 0.539805 0.860238
vt 0.543492 0.861210
vt 0.547408 0.862072
vt 0.551402 0.862791
vt 0.555322 0.863337
vt 0.559015 0.863692
vt 0.562341 0.863840
vt 0.990025 0.676112
vt 0.990025 0.751009
vt 0.987010 0.676200
vt 0.983547 0.676510
vt 0.979770 0.677030
vt 0.975824 0.677741
vt 0.971860 0.678614
vt 0.968032 0.679617
vt 0.964485 0.680711
vt 0.961357 0.681853
vt 0.954210 0.934121
vt 0.957029 0.935200
vt 0.960345 0.936246
vt 0.964032 0.937219
vt 0.967948 0.938081
vt 0.971942 0.938799
vt 0.975861 0.939346
vt 0.642636 0.921414
vt 0.603794 0.917673
vt 0.603794 0.819685
vt 0.642636 0.823426
vt 0.642636 0.819685
vt 0.681479 0.823426
vt 0.681479 0.921414
vt 0.642636 0.917673
vt 0.885653 0.954496
vt 0.928930 0.954496
vt 0.928930 0.997882
vt 0.885653 0.997882
vt 0.564951 0.819685
vt 0.603794 0.823426
vt 0.603794 0.921414
vt 0.564951 0.917673
vt 0.985817 0.074177
vt 0.985817 0.117563
vt 0.942540 0.117563
vt 0.942540 0.074177
vt 0.913780 0.312379
vt 0.874938 0.308637
vt 0.874938 0.210649
vt 0.913780 0.214390
vt 0.729163 0.886484
vt 0.729163 0.976030
vt 0.725558 0.886589
vt 0.787472 0.977727
vt 0.787472 0.972861
vt 0.788419 0.968087
vt 0.790277 0.963591
vt 0.792974 0.959545
vt 0.796407 0.956103
vt 0.800443 0.953400
vt 0.804928 0.951537
vt 0.809689 0.950588
vt 0.814544 0.950588
vt 0.819305 0.951537
vt 0.823790 0.953399
vt 0.827827 0.956103
vt 0.831259 0.959545
vt 0.833956 0.963591
vt 0.835814 0.968087
vt 0.836761 0.972860
vt 0.836761 0.977727
vt 0.835814 0.982500
vt 0.833956 0.986997
vt 0.831259 0.991043
vt 0.827827 0.994484
vt 0.823790 0.997188
vt 0.819305 0.999051
vt 0.814544 1.000000
vt 0.809690 1.000000
vt 0.804928 0.999051
vt 0.800443 0.997188
vt 0.796407 0.994484
vt 0.792974 0.991043
vt 0.790277 0.986997
vt 0.788419 0.982500
vt 0.915955 0.954319
vt 0.919932 0.864958
vt 0.919932 0.954496
vt 0.721418 0.886959
vt 0.716902 0.887581
vt 0.712184 0.888431
vt 0.707446 0.889475
vt 0.702868 0.890674
vt 0.698628 0.891982
vt 0.694888 0.893348
vt 0.692106 0.698058
vt 0.692106 0.787605
vt 0.688500 0.698163
vt 0.684360 0.698534
vt 0.679845 0.699156
vt 0.675127 0.700006
vt 0.670388 0.701050
vt 0.665811 0.702249
vt 0.661571 0.703557
vt 0.657831 0.704923
vt 0.491883 0.858146
vt 0.491883 0.947693
vt 0.488278 0.858251
vt 0.484138 0.858622
vt 0.479622 0.859244
vt 0.474904 0.860094
vt 0.470166 0.861138
vt 0.465588 0.862337
vt 0.461348 0.863645
vt 0.457608 0.865010
vt 0.885653 0.947649
vt 0.889023 0.948939
vt 0.892988 0.950189
vt 0.897396 0.951352
vt 0.902078 0.952383
vt 0.906853 0.953241
vt 0.911539 0.953895
vt 0.885653 0.898717
vt 0.839214 0.894244
vt 0.839214 0.777091
vt 0.885653 0.781563
vt 0.320501 0.764849
vt 0.366941 0.769322
vt 0.366941 0.886476
vt 0.320501 0.882003
vt 0.787472 0.950588
vt 0.787472 0.898717
vt 0.839214 0.898717
vt 0.839214 0.950588
vt 0.768942 0.000000
vt 0.815382 0.004473
vt 0.815382 0.121626
vt 0.768943 0.117153
vt 0.245104 0.889457
vt 0.245104 0.941328
vt 0.193363 0.941328
vt 0.193363 0.889458
vt 0.741328 0.886484
vt 0.694888 0.882011
vt 0.694888 0.764857
vt 0.741328 0.769330
vt 0.408662 0.886476
vt 0.408662 0.976022
vt 0.405057 0.886581
vt 0.448096 0.988148
vt 0.445399 0.984102
vt 0.443541 0.979605
vt 0.442594 0.974832
vt 0.442594 0.969966
vt 0.443541 0.965192
vt 0.445399 0.960696
vt 0.448096 0.956650
vt 0.451529 0.953208
vt 0.455565 0.950505
vt 0.460050 0.948642
vt 0.464812 0.947693
vt 0.469666 0.947693
vt 0.474427 0.948642
vt 0.478912 0.950505
vt 0.482949 0.953209
vt 0.486382 0.956650
vt 0.489079 0.960696
vt 0.490936 0.965192
vt 0.491883 0.969966
vt 0.491883 0.974832
vt 0.490936 0.979606
vt 0.489078 0.984102
vt 0.486381 0.988148
vt 0.482949 0.991590
vt 0.478912 0.994293
vt 0.474427 0.996156
vt 0.469666 0.997105
vt 0.464812 0.997105
vt 0.460050 0.996156
vt 0.455565 0.994293
vt 0.451529 0.991589
vt 0.309577 0.891974
vt 0.340112 0.976022
vt 0.305837 0.893340
vt 0.400917 0.886952
vt 0.396401 0.887574
vt 0.391683 0.888423
vt 0.386945 0.889467
vt 0.382367 0.890666
vt 0.378127 0.891974
vt 0.374387 0.893340
vt 0.927152 0.858111
vt 0.961430 0.775420
vt 0.930521 0.859401
vt 0.934486 0.860651
vt 0.938894 0.861814
vt 0.943576 0.862845
vt 0.948352 0.863703
vt 0.953037 0.864357
vt 0.957453 0.864781
vt 0.961430 0.864958
vt 0.948055 0.210649
vt 0.948055 0.300196
vt 0.944450 0.210754
vt 0.940310 0.211125
vt 0.935794 0.211747
vt 0.931076 0.212597
vt 0.926338 0.213641
vt 0.921760 0.214840
vt 0.917520 0.216147
vt 0.913780 0.217513
vt 0.340112 0.886476
vt 0.336507 0.886581
vt 0.332367 0.886951
vt 0.327851 0.887574
vt 0.323133 0.888423
vt 0.318395 0.889467
vt 0.313817 0.890666
vt 0.317998 0.886476
vt 0.271558 0.882003
vt 0.271558 0.764849
vt 0.317998 0.769322
vt 0.861822 0.000000
vt 0.908262 0.004473
vt 0.908262 0.121626
vt 0.861822 0.117153
vt 0.629738 0.973285
vt 0.629738 0.921414
vt 0.681479 0.973285
vt 0.564951 0.698058
vt 0.611391 0.702531
vt 0.611391 0.819685
vt 0.564951 0.815212
vt 0.245104 0.993199
vt 0.193363 0.993199
vt 0.828498 0.332275
vt 0.782058 0.327803
vt 0.828498 0.215122
vt 0.763438 0.886484
vt 0.763438 0.976030
vt 0.759833 0.886589
vt 0.982544 0.313328
vt 0.987029 0.315190
vt 0.991065 0.317894
vt 0.994498 0.321335
vt 0.997195 0.325382
vt 0.999053 0.329878
vt 1.000000 0.334651
vt 1.000000 0.339518
vt 0.999053 0.344291
vt 0.997195 0.348787
vt 0.994498 0.352834
vt 0.991065 0.356275
vt 0.987029 0.358979
vt 0.982544 0.360841
vt 0.977783 0.361791
vt 0.972928 0.361791
vt 0.968167 0.360841
vt 0.963682 0.358979
vt 0.959646 0.356275
vt 0.956213 0.352834
vt 0.953516 0.348788
vt 0.951658 0.344291
vt 0.950711 0.339518
vt 0.950711 0.334651
vt 0.951658 0.329878
vt 0.953516 0.325382
vt 0.956213 0.321335
vt 0.959646 0.317894
vt 0.963682 0.315190
vt 0.968167 0.313328
vt 0.972928 0.312379
vt 0.977783 0.312379
vt 0.930822 0.681610
vt 0.961357 0.765658
vt 0.927082 0.682976
vt 0.755693 0.886959
vt 0.751177 0.887581
vt 0.746459 0.888431
vt 0.741721 0.889475
vt 0.737143 0.890674
vt 0.732903 0.891982
vt 0.729163 0.893348
vt 0.919932 0.947649
vt 0.954210 0.864958
vt 0.923301 0.948939
vt 0.927266 0.950189
vt 0.931674 0.951352
vt 0.936356 0.952383
vt 0.941132 0.953241
vt 0.945818 0.953895
vt 0.950234 0.954319
vt 0.954210 0.954496
vt 0.927082 0.494902
vt 0.961360 0.412212
vt 0.930451 0.496192
vt 0.934416 0.497443
vt 0.938824 0.498605
vt 0.943506 0.499636
vt 0.948282 0.500495
vt 0.952968 0.501148
vt 0.957384 0.501572
vt 0.961360 0.501750
vt 0.961357 0.676112
vt 0.957752 0.676217
vt 0.953612 0.676588
vt 0.949096 0.677210
vt 0.944378 0.678059
vt 0.939639 0.679103
vt 0.935062 0.680302
vt 0.790271 0.886484
vt 0.743831 0.882011
vt 0.790271 0.769330
vt 0.792774 0.894244
vt 0.792774 0.777091
vt 0.839214 0.781563
vt 0.564951 0.973285
vt 0.564951 0.921414
vt 0.616692 0.921414
vt 0.616692 0.973285
vt 0.366941 0.764849
vt 0.413381 0.769322
vt 0.413381 0.886476
vt 0.366941 0.882003
vt 0.141622 0.941328
vt 0.141622 0.889458
vt 0.657831 0.819685
vt 0.611391 0.815212
vt 0.611391 0.698058
vt 0.657831 0.702531
vt 0.374387 0.886476
vt 0.374387 0.976022
vt 0.370782 0.886581
vt 0.092323 0.973154
vt 0.092323 0.968287
vt 0.093270 0.963514
vt 0.095128 0.959018
vt 0.097825 0.954971
vt 0.101257 0.951530
vt 0.105294 0.948826
vt 0.109779 0.946964
vt 0.114540 0.946014
vt 0.119395 0.946014
vt 0.124156 0.946964
vt 0.128641 0.948826
vt 0.132677 0.951530
vt 0.136110 0.954971
vt 0.138807 0.959018
vt 0.140665 0.963514
vt 0.141612 0.968287
vt 0.141612 0.973154
vt 0.140665 0.977927
vt 0.138807 0.982423
vt 0.136110 0.986470
vt 0.132677 0.989911
vt 0.128641 0.992615
vt 0.124156 0.994477
vt 0.119395 0.995427
vt 0.114540 0.995427
vt 0.109779 0.994477
vt 0.105294 0.992615
vt 0.101258 0.989911
vt 0.097825 0.986470
vt 0.095128 0.982423
vt 0.093270 0.977927
vt 0.453632 0.947507
vt 0.457608 0.858146
vt 0.457608 0.947684
vt 0.366642 0.886952
vt 0.362126 0.887574
vt 0.357408 0.888423
vt 0.352670 0.889467
vt 0.348092 0.890666
vt 0.343852 0.891974
vt 0.340112 0.893340
vt 0.908262 0.082690
vt 0.942540 0.000000
vt 0.911631 0.083980
vt 0.915596 0.085231
vt 0.920004 0.086394
vt 0.924686 0.087424
vt 0.929462 0.088283
vt 0.934147 0.088937
vt 0.938564 0.089360
vt 0.942540 0.089538
vt 0.968353 0.121103
vt 0.968353 0.210649
vt 0.964748 0.121208
vt 0.960608 0.121578
vt 0.956092 0.122200
vt 0.951374 0.123050
vt 0.946636 0.124094
vt 0.942058 0.125293
vt 0.937818 0.126601
vt 0.934078 0.127967
vt 0.423330 0.940837
vt 0.426699 0.942127
vt 0.430664 0.943377
vt 0.435072 0.944540
vt 0.439754 0.945570
vt 0.444530 0.946429
vt 0.449216 0.947083
vt 0.885653 0.777091
vt 0.839214 0.772618
vt 0.839214 0.655464
vt 0.885653 0.659937
vt 0.792774 0.655464
vt 0.839214 0.659937
vt 0.792774 0.772618
vt 0.927082 0.553621
vt 0.927082 0.501750
vt 0.978823 0.501750
vt 0.978823 0.553621
vt 0.792774 0.412212
vt 0.839214 0.416685
vt 0.839214 0.533838
vt 0.792774 0.529365
vt 0.713189 0.405443
vt 0.661447 0.405443
vt 0.661447 0.353572
vt 0.713189 0.353572
vt 0.885653 0.533838
vt 0.839214 0.529365
vt 0.839214 0.412212
vt 0.885653 0.416685
vt 0.492353 0.970874
vt 0.526632 0.888183
vt 0.495723 0.972164
vt 0.987029 0.408391
vt 0.982544 0.410254
vt 0.977783 0.411203
vt 0.972928 0.411203
vt 0.968167 0.410254
vt 0.963682 0.408391
vt 0.959646 0.405688
vt 0.956213 0.402246
vt 0.953516 0.398200
vt 0.951658 0.393704
vt 0.950711 0.388930
vt 0.950711 0.384064
vt 0.951658 0.379291
vt 0.953516 0.374794
vt 0.956213 0.370748
vt 0.959646 0.367307
vt 0.963682 0.364603
vt 0.968167 0.362740
vt 0.982544 0.362740
vt 0.987029 0.364603
vt 0.991065 0.367307
vt 0.994498 0.370748
vt 0.997195 0.374794
vt 0.999053 0.379291
vt 1.000000 0.384064
vt 1.000000 0.388930
vt 0.999053 0.393704
vt 0.997195 0.398200
vt 0.994498 0.402246
vt 0.991065 0.405688
vt 0.930892 0.592063
vt 0.927152 0.593429
vt 0.499688 0.973414
vt 0.504096 0.974577
vt 0.508778 0.975607
vt 0.513553 0.976466
vt 0.518239 0.977120
vt 0.522655 0.977544
vt 0.526632 0.977721
vt 0.271558 0.969166
vt 0.305837 0.886476
vt 0.274928 0.970456
vt 0.278893 0.971706
vt 0.283301 0.972869
vt 0.287983 0.973900
vt 0.292758 0.974758
vt 0.297444 0.975412
vt 0.301860 0.975836
vt 0.305837 0.976014
vt 0.950711 0.312379
vt 0.950711 0.401925
vt 0.947106 0.312484
vt 0.942966 0.312854
vt 0.938450 0.313476
vt 0.933732 0.314326
vt 0.928993 0.315370
vt 0.924416 0.316569
vt 0.920176 0.317877
vt 0.916436 0.319243
vt 0.961427 0.586565
vt 0.957821 0.586670
vt 0.953681 0.587041
vt 0.949166 0.587663
vt 0.944448 0.588512
vt 0.939709 0.589557
vt 0.935132 0.590756
vt 0.861822 0.121626
vt 0.815382 0.117153
vt 0.815382 0.000000
vt 0.861822 0.004473
vt 0.828498 0.210649
vt 0.874938 0.215122
vt 0.874938 0.332275
vt 0.828498 0.327802
vt 0.141622 0.993199
vt 0.885653 0.538311
vt 0.885653 0.655464
vt 0.839214 0.650991
vt 0.812855 0.394886
vt 0.812855 0.343015
vt 0.864596 0.343015
vt 0.864596 0.394886
vt 0.792774 0.533838
vt 0.839214 0.538311
vt 0.792774 0.650991
vt 0.041428 0.858146
vt 0.041428 0.946163
vt 0.037031 0.858506
vt 0.585317 0.192407
vt 0.581119 0.196616
vt 0.576182 0.199923
vt 0.570696 0.202201
vt 0.564872 0.203362
vt 0.558934 0.203362
vt 0.553110 0.202201
vt 0.547624 0.199923
vt 0.542687 0.196616
vt 0.538489 0.192407
vt 0.535190 0.187457
vt 0.532917 0.181958
vt 0.532917 0.164328
vt 0.535190 0.158829
vt 0.538489 0.153879
vt 0.542687 0.149670
vt 0.547624 0.146363
vt 0.553110 0.144085
vt 0.558934 0.142923
vt 0.564872 0.142923
vt 0.570696 0.144085
vt 0.576181 0.146363
vt 0.581119 0.149670
vt 0.585317 0.153879
vt 0.588616 0.158828
vt 0.590889 0.164328
vt 0.592047 0.170166
vt 0.592047 0.176119
vt 0.590889 0.181957
vt 0.588616 0.187457
vt 0.890135 0.420887
vt 0.885653 0.422795
vt 0.031998 0.859224
vt 0.026522 0.860274
vt 0.020813 0.861614
vt 0.015092 0.863194
vt 0.009577 0.864952
vt 0.004481 0.866821
vt 0.000000 0.868730
vt 0.885653 0.665807
vt 0.927152 0.588244
vt 0.889698 0.667574
vt 0.894472 0.669326
vt 0.899793 0.670996
vt 0.905455 0.672520
vt 0.911242 0.673839
vt 0.916931 0.674903
vt 0.922303 0.675670
vt 0.927152 0.676112
vt 0.874938 0.389942
vt 0.916436 0.312379
vt 0.878982 0.391709
vt 0.883756 0.393461
vt 0.889077 0.395131
vt 0.894740 0.396654
vt 0.900526 0.397974
vt 0.906215 0.399037
vt 0.911587 0.399805
vt 0.916436 0.400246
vt 0.927082 0.412212
vt 0.922685 0.412571
vt 0.917651 0.413290
vt 0.912175 0.414339
vt 0.906467 0.415680
vt 0.900745 0.417259
vt 0.895230 0.419017
vt 0.782027 0.530443
vt 0.782027 0.645697
vt 0.775661 0.645229
vt 0.775661 0.529975
vt 0.794570 0.202925
vt 0.789763 0.198106
vt 0.785986 0.192439
vt 0.783384 0.186143
vt 0.782058 0.179459
vt 0.782058 0.172643
vt 0.783384 0.165959
vt 0.785986 0.159663
vt 0.789763 0.153996
vt 0.794570 0.149177
vt 0.800223 0.145390
vt 0.806503 0.142782
vt 0.813171 0.141453
vt 0.819969 0.141453
vt 0.826637 0.142782
vt 0.832917 0.145390
vt 0.838570 0.149177
vt 0.843377 0.153996
vt 0.847154 0.159663
vt 0.849756 0.165959
vt 0.851082 0.172643
vt 0.851082 0.179459
vt 0.849756 0.186143
vt 0.847154 0.192439
vt 0.843377 0.198106
vt 0.838570 0.202925
vt 0.832917 0.206711
vt 0.826637 0.209320
vt 0.819969 0.210649
vt 0.813171 0.210649
vt 0.806503 0.209320
vt 0.800222 0.206711
vt 0.787805 0.531145
vt 0.787805 0.646399
vt 0.125535 0.850422
vt 0.119883 0.854209
vt 0.113602 0.856817
vt 0.106935 0.858146
vt 0.100136 0.858146
vt 0.093469 0.856817
vt 0.087188 0.854209
vt 0.081535 0.850422
vt 0.076728 0.845603
vt 0.072951 0.839937
vt 0.070350 0.833640
vt 0.070350 0.813456
vt 0.072951 0.807160
vt 0.076728 0.801493
vt 0.081535 0.796674
vt 0.087188 0.792888
vt 0.093469 0.790280
vt 0.100136 0.788950
vt 0.106934 0.788950
vt 0.113602 0.790280
vt 0.119883 0.792888
vt 0.125535 0.796674
vt 0.130342 0.801493
vt 0.134119 0.807160
vt 0.136721 0.813456
vt 0.138047 0.820141
vt 0.138047 0.826956
vt 0.136721 0.833640
vt 0.134119 0.839937
vt 0.130342 0.845603
vt 0.768952 0.645014
vt 0.768952 0.529760
vt 0.762157 0.645060
vt 0.762157 0.529806
vt 0.755539 0.645365
vt 0.755539 0.530111
vt 0.749351 0.645916
vt 0.749351 0.530662
vt 0.743831 0.646694
vt 0.743831 0.531440
vt 0.743831 0.527466
vt 0.743831 0.412212
vt 0.748800 0.413121
vt 0.748800 0.528375
vt 0.754578 0.413824
vt 0.754578 0.529078
vt 0.760944 0.414291
vt 0.760944 0.529545
vt 0.767653 0.414506
vt 0.767653 0.529760
vt 0.774448 0.414461
vt 0.774448 0.529715
vt 0.781066 0.414156
vt 0.781066 0.529410
vt 0.787254 0.413604
vt 0.787254 0.528858
vt 0.792774 0.412826
vt 0.792774 0.528080
vt 0.369444 0.762555
vt 0.369444 0.647301
vt 0.374413 0.648211
vt 0.374413 0.763465
vt 0.380192 0.648913
vt 0.380192 0.764167
vt 0.386558 0.649380
vt 0.386558 0.764634
vt 0.393267 0.649595
vt 0.393267 0.764849
vt 0.400061 0.649550
vt 0.400061 0.764804
vt 0.406679 0.649245
vt 0.406679 0.764499
vt 0.412867 0.648693
vt 0.412867 0.763947
vt 0.418387 0.647915
vt 0.418387 0.763169
vt 0.320501 0.649595
vt 0.315533 0.763940
vt 0.315533 0.648686
vt 0.309754 0.763238
vt 0.309754 0.647984
vt 0.303388 0.762770
vt 0.303388 0.647516
vt 0.296679 0.762555
vt 0.296679 0.647301
vt 0.289885 0.762600
vt 0.289885 0.647346
vt 0.283266 0.762905
vt 0.283266 0.647651
vt 0.277078 0.763457
vt 0.277078 0.648203
vt 0.271558 0.764235
vt 0.271558 0.648981
vt 0.792774 0.532055
vt 0.792774 0.647309
vt 0.565576 0.605109
vt 0.564951 0.624701
vt 0.688221 0.624701
vt 0.688846 0.605109
vt 0.565084 0.644542
vt 0.688354 0.644542
vt 0.565969 0.663869
vt 0.689239 0.663869
vt 0.567572 0.681939
vt 0.690842 0.681939
vt 0.569833 0.698058
vt 0.693103 0.698058
vt 0.123270 0.788950
vt 0.125913 0.774440
vt 0.002643 0.774440
vt 0.000000 0.788950
vt 0.127953 0.757566
vt 0.004683 0.757566
vt 0.129312 0.738976
vt 0.006042 0.738976
vt 0.129937 0.719384
vt 0.006667 0.719384
vt 0.129804 0.699543
vt 0.006534 0.699543
vt 0.128919 0.680216
vt 0.005649 0.680217
vt 0.127316 0.662146
vt 0.004046 0.662146
vt 0.125055 0.646027
vt 0.001785 0.646027
vt 0.417850 0.000000
vt 0.415207 0.014510
vt 0.538477 0.014510
vt 0.541120 0.000000
vt 0.413166 0.031384
vt 0.536436 0.031384
vt 0.411808 0.049974
vt 0.535078 0.049974
vt 0.423330 0.599588
vt 0.564951 0.412212
vt 0.436938 0.606764
vt 0.055296 0.198662
vt 0.038089 0.187136
vt 0.023455 0.172465
vt 0.011957 0.155215
vt 0.004037 0.136047
vt 0.000000 0.115698
vt 0.000000 0.094951
vt 0.004037 0.074603
vt 0.011957 0.055435
vt 0.023455 0.038184
vt 0.038089 0.023514
vt 0.055296 0.011987
vt 0.074416 0.004048
vt 0.094714 0.000000
vt 0.115409 0.000000
vt 0.135707 0.004048
vt 0.154827 0.011987
vt 0.172034 0.023514
vt 0.186668 0.038184
vt 0.198166 0.055435
vt 0.206086 0.074602
vt 0.210123 0.094951
vt 0.210123 0.115698
vt 0.206086 0.136047
vt 0.198166 0.155214
vt 0.186668 0.172465
vt 0.172034 0.187136
vt 0.154827 0.198662
vt 0.135707 0.206602
vt 0.115409 0.210649
vt 0.094714 0.210649
vt 0.074416 0.206602
vt 0.124880 0.643251
vt 0.141622 0.412212
vt 0.141622 0.646027
vt 0.453087 0.614075
vt 0.471156 0.621242
vt 0.490451 0.627988
vt 0.510229 0.634054
vt 0.529732 0.639208
vt 0.548209 0.643250
vt 0.564951 0.646027
vt 0.282476 0.412212
vt 0.282476 0.647301
vt 0.267306 0.414731
vt 0.250030 0.418681
vt 0.231311 0.423908
vt 0.211868 0.430213
vt 0.192449 0.437353
vt 0.173800 0.445053
vt 0.156638 0.453017
vt 0.141622 0.460941
vt 0.423330 0.412212
vt 0.423330 0.647301
vt 0.408160 0.414731
vt 0.390884 0.418681
vt 0.372165 0.423908
vt 0.352722 0.430213
vt 0.333303 0.437353
vt 0.314654 0.445053
vt 0.297492 0.453017
vt 0.282476 0.460941
vt 0.000000 0.599588
vt 0.013608 0.606763
vt 0.029758 0.614075
vt 0.047827 0.621242
vt 0.067121 0.627988
vt 0.086900 0.634054
vt 0.106403 0.639208
vt 0.551283 0.757566
vt 0.552641 0.738976
vt 0.429371 0.738976
vt 0.428013 0.757566
vt 0.549243 0.774440
vt 0.425973 0.774440
vt 0.553267 0.719384
vt 0.429997 0.719384
vt 0.553134 0.699543
vt 0.429864 0.699543
vt 0.552249 0.680216
vt 0.428979 0.680216
vt 0.550645 0.662146
vt 0.427375 0.662146
vt 0.548385 0.646027
vt 0.425115 0.646027
vt 0.609845 0.210649
vt 0.607202 0.225159
vt 0.730472 0.225159
vt 0.605162 0.242033
vt 0.728432 0.242033
vt 0.603803 0.260623
vt 0.727073 0.260623
vt 0.603178 0.280215
vt 0.726448 0.280215
vt 0.603311 0.300056
vt 0.726581 0.300056
vt 0.604196 0.319383
vt 0.727466 0.319383
vt 0.605799 0.337453
vt 0.729069 0.337453
vt 0.608060 0.353572
vt 0.731330 0.353572
vt 0.688221 0.555135
vt 0.690864 0.540625
vt 0.567594 0.540625
vt 0.564951 0.555135
vt 0.692904 0.523751
vt 0.569634 0.523751
vt 0.694263 0.505161
vt 0.570993 0.505161
vt 0.694888 0.485569
vt 0.571618 0.485569
vt 0.545143 0.014510
vt 0.543103 0.031384
vt 0.666373 0.031384
vt 0.668413 0.014510
vt 0.541745 0.049974
vt 0.665015 0.049974
vt 0.541120 0.069566
vt 0.664390 0.069566
vt 0.541252 0.089407
vt 0.664522 0.089407
vt 0.542137 0.108734
vt 0.665407 0.108734
vt 0.543741 0.126804
vt 0.667011 0.126804
vt 0.546001 0.142923
vt 0.669271 0.142923
vt 0.546600 0.788950
vt 0.423330 0.788950
vn -0.170000 0.810600 -0.560300
vn 0.000000 -1.000000 0.000000
vn -0.276000 0.810600 -0.516400
vn -0.057400 0.810600 -0.582700
vn 0.057400 0.810600 -0.582700
vn 0.170000 0.810600 -0.560300
vn 0.276000 0.810600 -0.516400
vn 0.371500 0.810600 -0.452600
vn 0.452600 0.810600 -0.371500
vn 0.516400 0.810600 -0.276000
vn 0.560300 0.810600 -0.170000
vn 0.582700 0.810600 -0.057400
vn 0.582700 0.810600 0.057400
vn 0.560300 0.810600 0.170000
vn 0.516400 0.810600 0.276000
vn 0.452600 0.810600 0.371500
vn 0.371500 0.810600 0.452600
vn 0.276000 0.810600 0.516400
vn 0.170000 0.810600 0.560300
vn 0.057400 0.810600 0.582700
vn -0.057400 0.810600 0.582700
vn -0.170000 0.810600 0.560300
vn -0.276000 0.810600 0.516400
vn -0.371500 0.810600 0.452600
vn -0.452600 0.810600 0.371500
vn -0.516400 0.810600 0.276000
vn -0.560300 0.810600 0.170000
vn -0.582700 0.810600 0.057400
vn -0.582700 0.810600 -0.057400
vn -0.560300 0.810600 -0.170000
vn -0.516400 0.810600 -0.276000
vn -0.452600 0.810600 -0.371500
vn -0.371500 0.810600 -0.452600
vn 0.098000 0.000000 -0.995200
vn -0.098000 0.000000 -0.995200
vn -0.000000 1.000000 -0.000000
vn 0.290300 0.000000 -0.956900
vn 0.471400 0.000000 -0.881900
vn 0.634400 0.000000 -0.773000
vn 0.773000 0.000000 -0.634400
vn 0.881900 0.000000 -0.471400
vn 0.956900 0.000000 -0.290300
vn 0.995200 0.000000 -0.098000
vn 0.995200 0.000000 0.098000
vn 0.956900 0.000000 0.290300
vn 0.881900 0.000000 0.471400
vn 0.773000 0.000000 0.634400
vn 0.634400 0.000000 0.773000
vn 0.471400 0.000000 0.881900
vn 0.290300 0.000000 0.956900
vn 0.098000 0.000000 0.995200
vn -0.098000 0.000000 0.995200
vn -0.290300 -0.000000 0.956900
vn -0.471400 -0.000000 0.881900
vn -0.634400 0.000000 0.773000
vn -0.773000 -0.000000 0.634400
vn -0.881900 -0.000000 0.471400
vn -0.956900 0.000000 0.290300
vn -0.995200 0.000000 0.098000
vn -0.995200 0.000000 -0.098000
vn -0.956900 0.000000 -0.290300
vn -0.881900 -0.000000 -0.471400
vn -0.773000 -0.000000 -0.634400
vn -0.634400 0.000000 -0.773000
vn -0.471400 0.000000 -0.881900
vn -0.290300 0.000000 -0.956900
vn -0.196500 0.736200 -0.647700
vn -0.319000 0.736200 -0.596900
vn -0.066300 0.736200 -0.673500
vn 0.066300 0.736200 -0.673500
vn 0.196500 0.736200 -0.647700
vn 0.319000 0.736200 -0.596900
vn 0.429400 0.736200 -0.523200
vn 0.523200 0.736200 -0.429400
vn 0.596900 0.736200 -0.319000
vn 0.647700 0.736200 -0.196500
vn 0.673500 0.736200 -0.066300
vn 0.673500 0.736200 0.066300
vn 0.647700 0.736200 0.196500
vn 0.596900 0.736200 0.319000
vn 0.523200 0.736200 0.429400
vn 0.429400 0.736200 0.523200
vn 0.319000 0.736200 0.596900
vn 0.196500 0.736200 0.647700
vn 0.066300 0.736200 0.673500
vn -0.066300 0.736200 0.673500
vn -0.196500 0.736200 0.647700
vn -0.319000 0.736200 0.596900
vn -0.429400 0.736200 0.523200
vn -0.523200 0.736200 0.429400
vn -0.596900 0.736200 0.319000
vn -0.647700 0.736200 0.196500
vn -0.673500 0.736200 0.066300
vn -0.673500 0.736200 -0.066300
vn -0.647700 0.736200 -0.196500
vn -0.596900 0.736200 -0.319000
vn -0.523200 0.736200 -0.429400
vn -0.429400 0.736200 -0.523200
vn -1.000000 0.000000 0.000000
vn 0.000000 0.000000 1.000000
vn -0.000000 0.000000 -1.000000
vn 1.000000 0.000000 0.000000
vn -0.136000 0.883400 -0.448500
vn -0.220900 0.883400 -0.413300
vn -0.045900 0.883400 -0.466400
vn 0.045900 0.883400 -0.466400
vn 0.136000 0.883400 -0.448500
vn 0.220900 0.883400 -0.413300
vn 0.297300 0.883400 -0.362300
vn 0.362300 0.883400 -0.297300
vn 0.413300 0.883400 -0.220900
vn 0.448500 0.883400 -0.136000
vn 0.466400 0.883400 -0.045900
vn 0.466400 0.883400 0.045900
vn 0.448500 0.883400 0.136000
vn 0.413300 0.883400 0.220900
vn 0.362300 0.883400 0.297300
vn 0.297300 0.883400 0.362300
vn 0.220900 0.883400 0.413300
vn 0.136000 0.883400 0.448500
vn 0.045900 0.883400 0.466400
vn -0.045900 0.883400 0.466400
vn -0.136000 0.883400 0.448500
vn -0.220900 0.883400 0.413300
vn -0.297300 0.883400 0.362300
vn -0.362300 0.883400 0.297300
vn -0.413300 0.883400 0.220900
vn -0.448500 0.883400 0.136000
vn -0.466400 0.883400 0.045900
vn -0.466400 0.883400 -0.045900
vn -0.448500 0.883400 -0.136000
vn -0.413300 0.883400 -0.220900
vn -0.362300 0.883400 -0.297300
vn -0.297300 0.883400 -0.362300
usemtl Material.001
s off
f 1/1/1 2/2/1 3/3/1
f 4/4/2 5/5/2 6/6/2 7/7/2 8/8/2 9/9/2 10/10/2 11/11/2 12/12/2 13/13/2 14/14/2 15/15/2 16/16/2 17/17/2 18/18/2 19/19/2 20/20/2 21/21/2 22/22/2 23/23/2 24/24/2 25/25/2 26/26/2 27/27/2 28/28/2 29/29/2 30/30/2 31/31/2 32/32/2 33/33/2 1/34/2 3/35/2
f 33/36/3 2/37/3 1/38/3
f 3/3/4 2/2/4 4/39/4
f 4/39/5 2/2/5 5/40/5
f 5/40/6 2/2/6 6/41/6
f 6/41/7 2/2/7 7/42/7
f 7/42/8 2/2/8 8/43/8
f 8/43/9 2/2/9 9/44/9
f 9/44/10 2/2/10 10/45/10
f 10/46/11 2/47/11 11/48/11
f 11/48/12 2/47/12 12/49/12
f 12/49/13 2/47/13 13/50/13
f 13/50/14 2/47/14 14/51/14
f 14/51/15 2/47/15 15/52/15
f 15/52/16 2/47/16 16/53/16
f 16/53/17 2/47/17 17/54/17
f 17/54/18 2/47/18 18/55/18
f 18/56/19 2/57/19 19/58/19
f 19/58/20 2/57/20 20/59/20
f 20/59/21 2/57/21 21/60/21
f 21/60/22 2/57/22 22/61/22
f 22/61/23 2/57/23 23/62/23
f 23/62/24 2/57/24 24/63/24
f 24/63/25 2/57/25 25/64/25
f 25/64/26 2/57/26 26/65/26
f 26/66/27 2/37/27 27/67/27
f 27/67/28 2/37/28 28/68/28
f 28/68/29 2/37/29 29/69/29
f 29/69/30 2/37/30 30/70/30
f 30/70/31 2/37/31 31/71/31
f 31/71/32 2/37/32 32/72/32
f 32/72/33 2/37/33 33/36/33
f 34/73/34 35/74/34 36/75/34 37/76/34
f 34/77/2 37/78/2 38/79/2 39/80/2 40/81/2 41/82/2 42/83/2 43/84/2 44/85/2 45/86/2 46/87/2 47/88/2 48/89/2 49/90/2 50/91/2 51/92/2 52/93/2 53/94/2 54/95/2 55/96/2 56/97/2 57/98/2 58/99/2 59/100/2 60/101/2 61/102/2 62/103/2 63/104/2 64/105/2 65/106/2 66/107/2 67/108/2
f 67/109/35 68/110/35 35/74/35 34/73/35
f 36/111/36 35/112/36 68/113/36 69/114/36 70/115/36 71/116/36 72/117/36 73/118/36 74/119/36 75/120/36 76/121/36 77/122/36 78/123/36 79/124/36 80/125/36 81/126/36 82/127/36 83/128/36 84/129/36 85/130/36 86/131/36 87/132/36 88/133/36 89/134/36 90/135/36 91/136/36 92/137/36 93/138/36 94/139/36 95/140/36 96/141/36 97/142/36
f 37/76/37 36/75/37 97/143/37 38/144/37
f 38/144/38 97/143/38 96/145/38 39/146/38
f 39/146/39 96/145/39 95/147/39 40/148/39
f 40/148/40 95/147/40 94/149/40 41/150/40
f 41/150/41 94/149/41 93/151/41 42/152/41
f 42/153/42 93/154/42 92/155/42 43/156/42
f 43/156/43 92/155/43 91/157/43 44/158/43
f 44/158/44 91/157/44 90/159/44 45/160/44
f 45/160/45 90/159/45 89/161/45 46/162/45
f 46/162/46 89/161/46 88/163/46 47/164/46
f 47/164/47 88/163/47 87/165/47 48/166/47
f 48/166/48 87/165/48 86/167/48 49/168/48
f 49/168/49 86/167/49 85/169/49 50/170/49
f 50/171/50 85/172/50 84/173/50 51/174/50
f 51/174/51 84/173/51 83/175/51 52/176/51
f 52/176/52 83/175/52 82/177/52 53/178/52
f 53/178/53 82/177/53 81/179/53 54/180/53
f 54/180/54 81/179/54 80/181/54 55/182/54
f 55/182/55 80/181/55 79/183/55 56/184/55
f 56/184/56 79/183/56 78/185/56 57/186/56
f 57/186/57 78/185/57 77/187/57 58/188/57
f 58/189/58 77/190/58 76/191/58 59/192/58
f 59/192/59 76/191/59 75/193/59 60/194/59
f 60/194/60 75/193/60 74/195/60 61/196/60
f 61/196/61 74/195/61 73/197/61 62/198/61
f 62/198/62 73/197/62 72/199/62 63/200/62
f 63/200/63 72/199/63 71/201/63 64/202/63
f 64/202/64 71/201/64 70/203/64 65/204/64
f 65/204/65 70/203/65 69/205/65 66/206/65
f 66/207/66 69/208/66 68/110/66 67/109/66
f 98/209/1 99/210/1 100/211/1
f 101/212/2 102/213/2 103/214/2 104/215/2 105/216/2 106/217/2 107/218/2 108/219/2 109/220/2 110/221/2 111/222/2 112/223/2 113/224/2 114/225/2 115/226/2 116/227/2 117/228/2 118/229/2 119/230/2 120/231/2 121/232/2 122/233/2 123/234/2 124/235/2 125/236/2 126/237/2 127/238/2 128/239/2 129/240/2 130/241/2 98/242/2 100/243/2
f 130/244/3 99/245/3 98/246/3
f 100/211/4 99/210/4 101/247/4
f 101/247/5 99/210/5 102/248/5
f 102/248/6 99/210/6 103/249/6
f 103/249/7 99/210/7 104/250/7
f 104/250/8 99/210/8 105/251/8
f 105/251/9 99/210/9 106/252/9
f 106/252/10 99/210/10 107/253/10
f 107/254/11 99/255/11 108/256/11
f 108/256/12 99/255/12 109/257/12
f 109/257/13 99/255/13 110/258/13
f 110/258/14 99/255/14 111/259/14
f 111/259/15 99/255/15 112/260/15
f 112/260/16 99/255/16 113/261/16
f 113/261/17 99/255/17 114/262/17
f 114/262/18 99/255/18 115/263/18
f 115/264/19 99/265/19 116/266/19
f 116/266/20 99/265/20 117/267/20
f 117/267/21 99/265/21 118/268/21
f 118/268/22 99/265/22 119/269/22
f 119/269/23 99/265/23 120/270/23
f 120/270/24 99/265/24 121/271/24
f 121/271/25 99/265/25 122/272/25
f 122/272/26 99/265/26 123/273/26
f 123/274/27 99/245/27 124/275/27
f 124/275/28 99/245/28 125/276/28
f 125/276/29 99/245/29 126/277/29
f 126/277/30 99/245/30 127/278/30
f 127/278/31 99/245/31 128/279/31
f 128/279/32 99/245/32 129/280/32
f 129/280/33 99/245/33 130/244/33
f 131/281/34 132/282/34 133/283/34 134/284/34
f 131/285/2 134/286/2 135/287/2 136/288/2 137/289/2 138/290/2 139/291/2 140/292/2 141/293/2 142/294/2 143/295/2 144/296/2 145/297/2 146/298/2 147/299/2 148/300/2 149/301/2 150/302/2 151/303/2 152/304/2 153/305/2 154/306/2 155/307/2 156/308/2 157/309/2 158/310/2 159/311/2 160/312/2 161/313/2 162/314/2 163/315/2 164/316/2
f 164/317/35 165/318/35 132/282/35 131/281/35
f 133/319/36 132/320/36 165/321/36 166/322/36 167/323/36 168/324/36 169/325/36 170/326/36 171/327/36 172/328/36 173/329/36 174/330/36 175/331/36 176/332/36 177/333/36 178/334/36 179/335/36 180/336/36 181/337/36 182/338/36 183/339/36 184/340/36 185/341/36 186/342/36 187/343/36 188/344/36 189/345/36 190/346/36 191/347/36 192/348/36 193/349/36 194/350/36
f 134/284/37 133/283/37 194/351/37 135/352/37
f 135/352/38 194/351/38 193/353/38 136/354/38
f 136/354/39 193/353/39 192/355/39 137/356/39
f 137/356/40 192/355/40 191/357/40 138/358/40
f 138/358/41 191/357/41 190/359/41 139/360/41
f 139/361/42 190/362/42 189/363/42 140/364/42
f 140/364/43 189/363/43 188/365/43 141/366/43
f 141/366/44 188/365/44 187/367/44 142/368/44
f 142/368/45 187/367/45 186/369/45 143/370/45
f 143/370/46 186/369/46 185/371/46 144/372/46
f 144/372/47 185/371/47 184/373/47 145/374/47
f 145/374/48 184/373/48 183/375/48 146/376/48
f 146/376/49 183/375/49 182/377/49 147/378/49
f 147/379/50 182/380/50 181/381/50 148/382/50
f 148/382/51 181/381/51 180/383/51 149/384/51
f 149/384/52 180/383/52 179/385/52 150/386/52
f 150/386/53 179/385/53 178/387/53 151/388/53
f 151/388/54 178/387/54 177/389/54 152/390/54
f 152/390/55 177/389/55 176/391/55 153/392/55
f 153/392/56 176/391/56 175/393/56 154/394/56
f 154/394/57 175/393/57 174/395/57 155/396/57
f 155/397/58 174/398/58 173/399/58 156/400/58
f 156/400/59 173/399/59 172/401/59 157/402/59
f 157/402/60 172/401/60 171/403/60 158/404/60
f 158/404/61 171/403/61 170/405/61 159/406/61
f 159/406/62 170/405/62 169/407/62 160/408/62
f 160/408/63 169/407/63 168/409/63 161/410/63
f 161/410/64 168/409/64 167/411/64 162/412/64
f 162/412/65 167/411/65 166/413/65 163/414/65
f 163/415/66 166/416/66 165/318/66 164/317/66
f 195/417/1 196/418/1 197/419/1
f 198/420/2 199/421/2 200/422/2 201/423/2 202/238/2 203/237/2 204/424/2 205/425/2 206/426/2 207/427/2 208/428/2 209/429/2 210/430/2 211/431/2 212/432/2 213/433/2 214/434/2 215/435/2 216/436/2 217/437/2 218/438/2 219/439/2 220/440/2 221/441/2 222/442/2 223/443/2 224/444/2 225/445/2 226/446/2 227/447/2 195/448/2 197/449/2
f 227/450/3 196/451/3 195/452/3
f 197/419/4 196/418/4 198/453/4
f 198/453/5 196/418/5 199/454/5
f 199/454/6 196/418/6 200/455/6
f 200/455/7 196/418/7 201/456/7
f 201/456/8 196/418/8 202/457/8
f 202/457/9 196/418/9 203/458/9
f 203/458/10 196/418/10 204/459/10
f 204/460/11 196/461/11 205/462/11
f 205/462/12 196/461/12 206/463/12
f 206/463/13 196/461/13 207/464/13
f 207/464/14 196/461/14 208/465/14
f 208/465/15 196/461/15 209/466/15
f 209/466/16 196/461/16 210/467/16
f 210/467/17 196/461/17 211/468/17
f 211/468/18 196/461/18 212/469/18
f 212/470/19 196/471/19 213/472/19
f 213/472/20 196/471/20 214/473/20
f 214/473/21 196/471/21 215/474/21
f 215/474/22 196/471/22 216/475/22
f 216/475/23 196/471/23 217/476/23
f 217/476/24 196/471/24 218/477/24
f 218/477/25 196/471/25 219/478/25
f 219/478/26 196/471/26 220/479/26
f 220/480/27 196/451/27 221/481/27
f 221/481/28 196/451/28 222/482/28
f 222/482/29 196/451/29 223/483/29
f 223/483/30 196/451/30 224/484/30
f 224/484/31 196/451/31 225/485/31
f 225/485/32 196/451/32 226/486/32
f 226/486/33 196/451/33 227/450/33
f 228/487/34 229/488/34 230/489/34 231/490/34
f 228/491/2 231/492/2 232/493/2 233/494/2 234/495/2 235/496/2 236/497/2 237/498/2 238/499/2 239/500/2 240/501/2 241/502/2 242/503/2 243/504/2 244/505/2 245/506/2 246/507/2 247/508/2 248/509/2 249/510/2 250/511/2 251/512/2 252/513/2 253/514/2 254/515/2 255/516/2 256/517/2 257/518/2 258/519/2 259/520/2 260/521/2 261/522/2
f 261/523/35 262/524/35 229/488/35 228/487/35
f 230/525/36 229/526/36 262/527/36 263/528/36 264/529/36 265/530/36 266/531/36 267/532/36 268/533/36 269/534/36 270/535/36 271/536/36 272/537/36 273/538/36 274/539/36 275/540/36 276/541/36 277/542/36 278/543/36 279/544/36 280/545/36 281/546/36 282/547/36 283/548/36 284/549/36 285/550/36 286/551/36 287/552/36 288/553/36 289/554/36 290/555/36 291/556/36
f 231/490/37 230/489/37 291/557/37 232/558/37
f 232/558/38 291/557/38 290/559/38 233/560/38
f 233/560/39 290/559/39 289/561/39 234/562/39
f 234/562/40 289/561/40 288/563/40 235/564/40
f 235/564/41 288/563/41 287/565/41 236/566/41
f 236/567/42 287/568/42 286/569/42 237/570/42
f 237/570/43 286/569/43 285/571/43 238/572/43
f 238/572/44 285/571/44 284/573/44 239/574/44
f 239/574/45 284/573/45 283/575/45 240/576/45
f 240/576/46 283/575/46 282/577/46 241/578/46
f 241/578/47 282/577/47 281/579/47 242/580/47
f 242/580/48 281/579/48 280/581/48 243/582/48
f 243/582/49 280/581/49 279/583/49 244/584/49
f 244/585/50 279/586/50 278/587/50 245/588/50
f 245/588/51 278/587/51 277/589/51 246/590/51
f 246/590/52 277/589/52 276/591/52 247/592/52
f 247/592/53 276/591/53 275/593/53 248/594/53
f 248/594/54 275/593/54 274/595/54 249/596/54
f 249/596/55 274/595/55 273/597/55 250/598/55
f 250/598/56 273/597/56 272/599/56 251/600/56
f 251/600/57 272/599/57 271/601/57 252/602/57
f 252/603/58 271/604/58 270/605/58 253/606/58
f 253/606/59 270/605/59 269/607/59 254/608/59
f 254/608/60 269/607/60 268/609/60 255/610/60
f 255/610/61 268/609/61 267/611/61 256/612/61
f 256/612/62 267/611/62 266/613/62 257/614/62
f 257/614/63 266/613/63 265/615/63 258/616/63
f 258/616/64 265/615/64 264/617/64 259/618/64
f 259/618/65 264/617/65 263/619/65 260/620/65
f 260/621/66 263/622/66 262/524/66 261/523/66
f 292/623/67 293/624/67 294/625/67
f 295/626/2 296/627/2 297/628/2 298/629/2 299/630/2 300/631/2 301/632/2 302/633/2 303/634/2 304/635/2 305/636/2 306/637/2 307/638/2 308/639/2 309/640/2 310/641/2 311/642/2 312/643/2 313/644/2 314/645/2 315/646/2 316/647/2 317/648/2 318/649/2 319/650/2 320/651/2 321/652/2 322/653/2 323/654/2 324/655/2 292/656/2 294/657/2
f 324/658/68 293/659/68 292/660/68
f 294/625/69 293/624/69 295/661/69
f 295/661/70 293/624/70 296/662/70
f 296/662/71 293/624/71 297/663/71
f 297/663/72 293/624/72 298/664/72
f 298/664/73 293/624/73 299/665/73
f 299/665/74 293/624/74 300/666/74
f 300/666/75 293/624/75 301/667/75
f 301/668/76 293/669/76 302/670/76
f 302/670/77 293/669/77 303/671/77
f 303/671/78 293/669/78 304/672/78
f 304/672/79 293/669/79 305/673/79
f 305/673/80 293/669/80 306/674/80
f 306/674/81 293/669/81 307/675/81
f 307/675/82 293/669/82 308/676/82
f 308/676/83 293/669/83 309/677/83
f 309/678/84 293/679/84 310/680/84
f 310/680/85 293/679/85 311/681/85
f 311/681/86 293/679/86 312/682/86
f 312/682/87 293/679/87 313/683/87
f 313/683/88 293/679/88 314/684/88
f 314/684/89 293/679/89 315/685/89
f 315/685/90 293/679/90 316/686/90
f 316/686/91 293/679/91 317/687/91
f 317/688/92 293/659/92 318/689/92
f 318/689/93 293/659/93 319/690/93
f 319/690/94 293/659/94 320/691/94
f 320/691/95 293/659/95 321/692/95
f 321/692/96 293/659/96 322/693/96
f 322/693/97 293/659/97 323/694/97
f 323/694/98 293/659/98 324/658/98
f 325/695/99 326/696/99 327/697/99 328/698/99
f 329/699/100 325/700/100 328/701/100 330/702/100
f 329/703/36 331/704/36 326/705/36 325/706/36
f 326/707/101 331/708/101 332/709/101 327/710/101
f 328/711/2 327/712/2 332/713/2 330/714/2
f 331/715/102 329/716/102 330/717/102 332/718/102
f 333/719/67 334/720/67 335/721/67
f 336/722/2 337/723/2 338/724/2 339/725/2 340/726/2 341/727/2 342/728/2 343/729/2 344/730/2 345/731/2 346/732/2 347/733/2 348/734/2 349/735/2 350/736/2 351/737/2 352/738/2 353/739/2 354/740/2 355/741/2 356/742/2 357/743/2 358/744/2 359/745/2 360/746/2 361/747/2 362/748/2 363/749/2 364/750/2 365/751/2 333/752/2 335/753/2
f 365/754/68 334/755/68 333/756/68
f 335/721/69 334/720/69 336/757/69
f 336/757/70 334/720/70 337/758/70
f 337/758/71 334/720/71 338/759/71
f 338/759/72 334/720/72 339/760/72
f 339/760/73 334/720/73 340/761/73
f 340/761/74 334/720/74 341/762/74
f 341/762/75 334/720/75 342/763/75
f 342/764/76 334/765/76 343/766/76
f 343/766/77 334/765/77 344/767/77
f 344/767/78 334/765/78 345/768/78
f 345/768/79 334/765/79 346/769/79
f 346/769/80 334/765/80 347/770/80
f 347/770/81 334/765/81 348/771/81
f 348/771/82 334/765/82 349/772/82
f 349/772/83 334/765/83 350/773/83
f 350/774/84 334/775/84 351/776/84
f 351/776/85 334/775/85 352/777/85
f 352/777/86 334/775/86 353/778/86
f 353/778/87 334/775/87 354/779/87
f 354/779/88 334/775/88 355/780/88
f 355/780/89 334/775/89 356/781/89
f 356/781/90 334/775/90 357/782/90
f 357/782/91 334/775/91 358/783/91
f 358/784/92 334/755/92 359/785/92
f 359/785/93 334/755/93 360/786/93
f 360/786/94 334/755/94 361/787/94
f 361/787/95 334/755/95 362/788/95
f 362/788/96 334/755/96 363/789/96
f 363/789/97 334/755/97 364/790/97
f 364/790/98 334/755/98 365/754/98
f 366/791/99 367/792/99 368/793/99 369/794/99
f 370/795/100 366/796/100 369/797/100 371/798/100
f 370/799/36 372/800/36 367/801/36 366/802/36
f 367/803/101 372/804/101 373/805/101 368/806/101
f 369/807/2 368/808/2 373/809/2 371/810/2
f 372/811/102 370/812/102 371/813/102 373/814/102
f 374/815/67 375/816/67 376/817/67
f 377/818/2 378/819/2 379/820/2 380/821/2 381/822/2 382/823/2 383/824/2 384/825/2 385/826/2 386/827/2 387/828/2 388/829/2 389/830/2 390/831/2 391/832/2 392/833/2 393/834/2 394/835/2 395/836/2 396/837/2 397/838/2 398/839/2 399/840/2 400/841/2 401/842/2 402/843/2 403/844/2 404/845/2 405/846/2 406/847/2 374/848/2 376/849/2
f 406/850/68 375/851/68 374/852/68
f 376/817/69 375/816/69 377/853/69
f 377/853/70 375/816/70 378/854/70
f 378/854/71 375/816/71 379/855/71
f 379/855/72 375/816/72 380/856/72
f 380/856/73 375/816/73 381/857/73
f 381/857/74 375/816/74 382/858/74
f 382/858/75 375/816/75 383/859/75
f 383/860/76 375/861/76 384/862/76
f 384/862/77 375/861/77 385/863/77
f 385/863/78 375/861/78 386/864/78
f 386/864/79 375/861/79 387/865/79
f 387/865/80 375/861/80 388/866/80
f 388/866/81 375/861/81 389/867/81
f 389/867/82 375/861/82 390/868/82
f 390/868/83 375/861/83 391/869/83
f 391/870/84 375/871/84 392/872/84
f 392/872/85 375/871/85 393/873/85
f 393/873/86 375/871/86 394/874/86
f 394/874/87 375/871/87 395/875/87
f 395/875/88 375/871/88 396/876/88
f 396/876/89 375/871/89 397/877/89
f 397/877/90 375/871/90 398/878/90
f 398/878/91 375/871/91 399/879/91
f 399/880/92 375/851/92 400/881/92
f 400/881/93 375/851/93 401/882/93
f 401/882/94 375/851/94 402/883/94
f 402/883/95 375/851/95 403/884/95
f 403/884/96 375/851/96 404/885/96
f 404/885/97 375/851/97 405/886/97
f 405/886/98 375/851/98 406/850/98
f 407/887/99 408/888/99 409/889/99 410/890/99
f 411/891/100 407/892/100 410/893/100 412/894/100
f 411/895/36 413/896/36 408/701/36 407/897/36
f 408/898/101 413/899/101 414/900/101 409/901/101
f 410/808/2 409/902/2 414/903/2 412/809/2
f 413/904/102 411/905/102 412/451/102 414/906/102
f 415/907/67 416/908/67 417/909/67
f 418/910/2 419/911/2 420/912/2 421/913/2 422/914/2 423/915/2 424/916/2 425/917/2 426/918/2 427/919/2 428/920/2 429/921/2 430/922/2 431/923/2 432/924/2 433/925/2 434/926/2 435/927/2 436/928/2 437/929/2 438/930/2 439/931/2 440/932/2 441/933/2 442/934/2 443/935/2 444/936/2 445/937/2 446/938/2 447/939/2 415/940/2 417/941/2
f 447/942/68 416/943/68 415/944/68
f 417/909/69 416/908/69 418/945/69
f 418/945/70 416/908/70 419/946/70
f 419/946/71 416/908/71 420/947/71
f 420/947/72 416/908/72 421/948/72
f 421/948/73 416/908/73 422/949/73
f 422/949/74 416/908/74 423/950/74
f 423/950/75 416/908/75 424/951/75
f 424/952/76 416/953/76 425/954/76
f 425/954/77 416/953/77 426/955/77
f 426/955/78 416/953/78 427/956/78
f 427/956/79 416/953/79 428/957/79
f 428/957/80 416/953/80 429/958/80
f 429/958/81 416/953/81 430/959/81
f 430/959/82 416/953/82 431/960/82
f 431/960/83 416/953/83 432/961/83
f 432/962/84 416/963/84 433/964/84
f 433/964/85 416/963/85 434/965/85
f 434/965/86 416/963/86 435/966/86
f 435/966/87 416/963/87 436/967/87
f 436/967/88 416/963/88 437/968/88
f 437/968/89 416/963/89 438/969/89
f 438/969/90 416/963/90 439/970/90
f 439/970/91 416/963/91 440/971/91
f 440/972/92 416/943/92 441/973/92
f 441/973/93 416/943/93 442/974/93
f 442/974/94 416/943/94 443/975/94
f 443/975/95 416/943/95 444/976/95
f 444/976/96 416/943/96 445/977/96
f 445/977/97 416/943/97 446/978/97
f 446/978/98 416/943/98 447/942/98
f 448/979/99 449/980/99 450/568/99 451/981/99
f 452/801/100 448/982/100 451/983/100 453/984/100
f 452/985/36 454/986/36 449/987/36 448/988/36
f 449/989/101 454/990/101 455/991/101 450/992/101
f 451/993/2 450/994/2 455/810/2 453/809/2
f 454/995/102 452/996/102 453/997/102 455/998/102
f 456/999/67 457/1000/67 458/1001/67
f 459/1002/2 460/1003/2 461/1004/2 462/1005/2 463/1006/2 464/1007/2 465/1008/2 466/1009/2 467/1010/2 468/1011/2 469/1012/2 470/1013/2 471/1014/2 472/1015/2 473/1016/2 474/1017/2 475/1018/2 476/1019/2 477/1020/2 478/1021/2 479/1022/2 480/1023/2 481/1024/2 482/1025/2 483/1026/2 484/1027/2 485/1028/2 486/1029/2 487/1030/2 488/1031/2 456/1032/2 458/1033/2
f 488/1034/68 457/1035/68 456/1036/68
f 458/1001/69 457/1000/69 459/1037/69
f 459/1037/70 457/1000/70 460/1038/70
f 460/1038/71 457/1000/71 461/1039/71
f 461/1039/72 457/1000/72 462/1040/72
f 462/1040/73 457/1000/73 463/1041/73
f 463/1041/74 457/1000/74 464/1042/74
f 464/1042/75 457/1000/75 465/1043/75
f 465/1044/76 457/1045/76 466/1046/76
f 466/1046/77 457/1045/77 467/1047/77
f 467/1047/78 457/1045/78 468/1048/78
f 468/1048/79 457/1045/79 469/1049/79
f 469/1049/80 457/1045/80 470/1050/80
f 470/1050/81 457/1045/81 471/1051/81
f 471/1051/82 457/1045/82 472/1052/82
f 472/1052/83 457/1045/83 473/1053/83
f 473/1054/84 457/1055/84 474/1056/84
f 474/1056/85 457/1055/85 475/1057/85
f 475/1057/86 457/1055/86 476/1058/86
f 476/1058/87 457/1055/87 477/1059/87
f 477/1059/88 457/1055/88 478/1060/88
f 478/1060/89 457/1055/89 479/1061/89
f 479/1061/90 457/1055/90 480/1062/90
f 480/1062/91 457/1055/91 481/1063/91
f 481/1064/92 457/1035/92 482/1065/92
f 482/1065/93 457/1035/93 483/1066/93
f 483/1066/94 457/1035/94 484/1067/94
f 484/1067/95 457/1035/95 485/1068/95
f 485/1068/96 457/1035/96 486/1069/96
f 486/1069/97 457/1035/97 487/1070/97
f 487/1070/98 457/1035/98 488/1034/98
f 489/1071/99 490/1072/99 491/1073/99 492/1074/99
f 493/1075/100 489/1076/100 492/793/100 494/1077/100
f 493/1078/36 495/1079/36 490/1080/36 489/1081/36
f 490/1082/101 495/1083/101 496/1084/101 491/1085/101
f 492/1086/2 491/1087/2 496/1088/2 494/1089/2
f 495/1090/102 493/1091/102 494/1092/102 496/1093/102
f 497/1094/67 498/1095/67 499/1096/67
f 500/1097/2 501/1098/2 502/1099/2 503/1100/2 504/1101/2 505/1102/2 506/1103/2 507/1104/2 508/1105/2 509/1106/2 510/1107/2 511/1108/2 512/1109/2 513/1110/2 514/1111/2 515/1112/2 516/1113/2 517/1114/2 518/925/2 519/924/2 520/1115/2 521/1116/2 522/1117/2 523/1118/2 524/1119/2 525/1120/2 526/1121/2 527/1122/2 528/1123/2 529/1124/2 497/1125/2 499/1126/2
f 529/1127/68 498/972/68 497/1128/68
f 499/1096/69 498/1095/69 500/1129/69
f 500/1129/70 498/1095/70 501/1130/70
f 501/1130/71 498/1095/71 502/1131/71
f 502/1131/72 498/1095/72 503/1132/72
f 503/1132/73 498/1095/73 504/1133/73
f 504/1133/74 498/1095/74 505/1134/74
f 505/1134/75 498/1095/75 506/1135/75
f 506/1136/76 498/1137/76 507/1138/76
f 507/1138/77 498/1137/77 508/1139/77
f 508/1139/78 498/1137/78 509/1140/78
f 509/1140/79 498/1137/79 510/1141/79
f 510/1141/80 498/1137/80 511/1142/80
f 511/1142/81 498/1137/81 512/1143/81
f 512/1143/82 498/1137/82 513/1144/82
f 513/1144/83 498/1137/83 514/1145/83
f 514/1146/84 498/1147/84 515/1148/84
f 515/1148/85 498/1147/85 516/1149/85
f 516/1149/86 498/1147/86 517/1150/86
f 517/1150/87 498/1147/87 518/1151/87
f 518/1151/88 498/1147/88 519/1152/88
f 519/1152/89 498/1147/89 520/1153/89
f 520/1153/90 498/1147/90 521/1154/90
f 521/1154/91 498/1147/91 522/1155/91
f 522/1156/92 498/972/92 523/1157/92
f 523/1157/93 498/972/93 524/1158/93
f 524/1158/94 498/972/94 525/1159/94
f 525/1159/95 498/972/95 526/1160/95
f 526/1160/96 498/972/96 527/1161/96
f 527/1161/97 498/972/97 528/1162/97
f 528/1162/98 498/972/98 529/1127/98
f 530/1163/99 531/1164/99 532/1165/99 533/1166/99
f 534/1167/100 530/1168/100 533/1169/100 535/1170/100
f 534/809/36 536/903/36 531/1171/36 530/993/36
f 531/1084/101 536/1172/101 537/1173/101 532/1174/101
f 533/1175/2 532/1176/2 537/1177/2 535/1178/2
f 536/1179/102 534/1180/102 535/1073/102 537/1181/102
f 538/1182/1 539/1183/1 540/1184/1
f 541/1185/2 542/1186/2 543/1187/2 544/1188/2 545/1189/2 546/1190/2 547/1191/2 548/1192/2 549/1193/2 550/1194/2 551/1195/2 552/1196/2 553/439/2 554/438/2 555/1197/2 556/1198/2 557/1199/2 558/1200/2 559/1201/2 560/1202/2 561/1203/2 562/1204/2 563/1205/2 564/1206/2 565/1207/2 566/1208/2 567/1209/2 568/1210/2 569/1211/2 570/1212/2 538/1213/2 540/1214/2
f 570/1215/3 539/264/3 538/1216/3
f 540/1184/4 539/1183/4 541/1217/4
f 541/1217/5 539/1183/5 542/1218/5
f 542/1218/6 539/1183/6 543/1219/6
f 543/1219/7 539/1183/7 544/1220/7
f 544/1220/8 539/1183/8 545/1221/8
f 545/1221/9 539/1183/9 546/1222/9
f 546/1222/10 539/1183/10 547/1223/10
f 547/1224/11 539/1225/11 548/1226/11
f 548/1226/12 539/1225/12 549/1227/12
f 549/1227/13 539/1225/13 550/1228/13
f 550/1228/14 539/1225/14 551/1229/14
f 551/1229/15 539/1225/15 552/1230/15
f 552/1230/16 539/1225/16 553/1231/16
f 553/1231/17 539/1225/17 554/1232/17
f 554/1232/18 539/1225/18 555/1233/18
f 555/1234/19 539/1235/19 556/1236/19
f 556/1236/20 539/1235/20 557/1237/20
f 557/1237/21 539/1235/21 558/1238/21
f 558/1238/22 539/1235/22 559/1239/22
f 559/1239/23 539/1235/23 560/1240/23
f 560/1240/24 539/1235/24 561/1241/24
f 561/1241/25 539/1235/25 562/1242/25
f 562/1242/26 539/1235/26 563/1243/26
f 563/1244/27 539/264/27 564/1245/27
f 564/1245/28 539/264/28 565/1246/28
f 565/1246/29 539/264/29 566/1247/29
f 566/1247/30 539/264/30 567/1248/30
f 567/1248/31 539/264/31 568/1249/31
f 568/1249/32 539/264/32 569/1250/32
f 569/1250/33 539/264/33 570/1215/33
f 571/1251/34 572/1252/34 573/1253/34 574/1254/34
f 571/1255/2 574/1256/2 575/1257/2 576/1258/2 577/1259/2 578/1260/2 579/1261/2 580/1262/2 581/1263/2 582/1264/2 583/1265/2 584/1266/2 585/1267/2 586/1268/2 587/1269/2 588/1270/2 589/1271/2 590/1272/2 591/1273/2 592/1274/2 593/1275/2 594/1276/2 595/1277/2 596/1278/2 597/1279/2 598/1280/2 599/1281/2 600/1282/2 601/1283/2 602/1284/2 603/1285/2 604/1286/2
f 604/1287/35 605/1288/35 572/1252/35 571/1251/35
f 573/1289/36 572/1290/36 605/1291/36 606/1292/36 607/1293/36 608/1294/36 609/1295/36 610/1296/36 611/1297/36 612/1298/36 613/1299/36 614/314/36 615/313/36 616/1300/36 617/1301/36 618/1302/36 619/1303/36 620/1304/36 621/1305/36 622/1306/36 623/1307/36 624/1308/36 625/1309/36 626/1310/36 627/1311/36 628/1312/36 629/1313/36 630/1314/36 631/1315/36 632/1316/36 633/1317/36 634/1318/36
f 574/1254/37 573/1253/37 634/1319/37 575/1320/37
f 575/1320/38 634/1319/38 633/1321/38 576/1322/38
f 576/1322/39 633/1321/39 632/1323/39 577/1324/39
f 577/1324/40 632/1323/40 631/1325/40 578/1326/40
f 578/1326/41 631/1325/41 630/1327/41 579/1328/41
f 579/1329/42 630/1330/42 629/1331/42 580/1332/42
f 580/1332/43 629/1331/43 628/1333/43 581/1334/43
f 581/1334/44 628/1333/44 627/1335/44 582/1336/44
f 582/1336/45 627/1335/45 626/1337/45 583/1338/45
f 583/1338/46 626/1337/46 625/1339/46 584/1340/46
f 584/1340/47 625/1339/47 624/1341/47 585/1342/47
f 585/1342/48 624/1341/48 623/1343/48 586/1344/48
f 586/1344/49 623/1343/49 622/1345/49 587/1346/49
f 587/1347/50 622/1348/50 621/1349/50 588/1350/50
f 588/1350/51 621/1349/51 620/1351/51 589/1352/51
f 589/1352/52 620/1351/52 619/1353/52 590/1354/52
f 590/1354/53 619/1353/53 618/1355/53 591/1356/53
f 591/1356/54 618/1355/54 617/1357/54 592/1358/54
f 592/1358/55 617/1357/55 616/1359/55 593/1360/55
f 593/1360/56 616/1359/56 615/1361/56 594/1362/56
f 594/1362/57 615/1361/57 614/1363/57 595/1364/57
f 595/1365/58 614/795/58 613/1366/58 596/1367/58
f 596/1367/59 613/1366/59 612/1368/59 597/1369/59
f 597/1369/60 612/1368/60 611/1370/60 598/1371/60
f 598/1371/61 611/1370/61 610/1372/61 599/1373/61
f 599/1373/62 610/1372/62 609/1374/62 600/1375/62
f 600/1375/63 609/1374/63 608/1376/63 601/1377/63
f 601/1377/64 608/1376/64 607/1378/64 602/1379/64
f 602/1379/65 607/1378/65 606/1380/65 603/1381/65
f 603/1382/66 606/1383/66 605/1288/66 604/1287/66
f 635/1384/61 637/1385/61 638/1386/61 636/1387/61
f 637/1385/62 639/1388/62 640/1389/62 638/1386/62
f 639/1388/63 641/1390/63 642/1391/63 640/1389/63
f 641/1390/64 643/1392/64 644/1393/64 642/1391/64
f 643/1392/65 645/1394/65 646/1395/65 644/1393/65
f 645/1396/66 647/1397/66 648/1398/66 646/1399/66
f 647/1397/35 649/1400/35 650/1401/35 648/1398/35
f 649/1400/34 651/1402/34 652/1403/34 650/1401/34
f 651/1402/37 653/1404/37 654/1405/37 652/1403/37
f 653/1404/38 655/1406/38 656/1407/38 654/1405/38
f 655/1406/39 657/1408/39 658/1409/39 656/1407/39
f 657/1408/40 659/1410/40 660/1411/40 658/1409/40
f 659/1410/41 661/1412/41 662/1413/41 660/1411/41
f 661/1414/42 663/1415/42 664/1416/42 662/1417/42
f 663/1415/43 665/1418/43 666/1419/43 664/1416/43
f 665/1418/44 667/1420/44 668/1421/44 666/1419/44
f 669/1422/103 670/1423/103 671/1424/103
f 672/1425/2 673/1426/2 674/1427/2 675/1428/2 676/1429/2 677/1430/2 678/1431/2 679/1432/2 680/1433/2 681/1434/2 682/1435/2 683/1436/2 684/1437/2 685/1438/2 686/1439/2 687/1440/2 688/1441/2 689/1442/2 690/1443/2 691/1444/2 692/1445/2 693/1446/2 694/1447/2 695/1448/2 696/1449/2 697/1450/2 698/1451/2 699/1452/2 700/1453/2 701/1454/2 669/1455/2 671/1456/2
f 701/1457/104 670/1458/104 669/1459/104
f 671/1424/105 670/1423/105 672/1460/105
f 672/1460/106 670/1423/106 673/1461/106
f 673/1461/107 670/1423/107 674/1462/107
f 674/1462/108 670/1423/108 675/1463/108
f 675/1463/109 670/1423/109 676/1464/109
f 676/1464/110 670/1423/110 677/1465/110
f 677/1465/111 670/1423/111 678/1466/111
f 678/1467/112 670/1468/112 679/1469/112
f 679/1469/113 670/1468/113 680/1470/113
f 680/1470/114 670/1468/114 681/1471/114
f 681/1471/115 670/1468/115 682/1472/115
f 682/1472/116 670/1468/116 683/1473/116
f 683/1473/117 670/1468/117 684/1474/117
f 684/1474/118 670/1468/118 685/1475/118
f 685/1475/119 670/1468/119 686/1476/119
f 686/1477/120 670/1478/120 687/1479/120
f 687/1479/121 670/1478/121 688/1480/121
f 688/1480/122 670/1478/122 689/1481/122
f 689/1481/123 670/1478/123 690/1482/123
f 690/1482/124 670/1478/124 691/1483/124
f 691/1483/125 670/1478/125 692/1484/125
f 692/1484/126 670/1478/126 693/1485/126
f 693/1485/127 670/1478/127 694/1486/127
f 694/1487/128 670/1458/128 695/1488/128
f 695/1488/129 670/1458/129 696/1489/129
f 696/1489/130 670/1458/130 697/1490/130
f 697/1490/131 670/1458/131 698/1491/131
f 698/1491/132 670/1458/132 699/1492/132
f 699/1492/133 670/1458/133 700/1493/133
f 700/1493/134 670/1458/134 701/1457/134
f 702/1494/52 705/1495/52 704/1496/52 703/1497/52
f 731/1498/51 702/1494/51 703/1497/51 732/1499/51
f 705/1495/53 706/1500/53 757/1501/53 704/1496/53
f 706/1500/54 707/1502/54 756/1503/54 757/1501/54
f 707/1502/55 708/1504/55 755/1505/55 756/1503/55
f 708/1504/56 709/1506/56 754/1507/56 755/1505/56
f 709/1506/57 710/1508/57 753/1509/57 754/1507/57
f 710/1510/58 711/1511/58 752/1512/58 753/622/58
f 711/1511/59 712/1513/59 751/1514/59 752/1512/59
f 712/1513/60 713/1515/60 750/1516/60 751/1514/60
f 713/1515/61 714/1517/61 749/1518/61 750/1516/61
f 714/1517/62 715/1519/62 748/1520/62 749/1518/62
f 715/1519/63 716/1521/63 747/1522/63 748/1520/63
f 716/1521/64 717/1523/64 746/1524/64 747/1522/64
f 717/1523/65 718/1525/65 745/1526/65 746/1524/65
f 718/1527/66 719/1528/66 744/1529/66 745/1530/66
f 719/1528/35 720/1531/35 743/1532/35 744/1529/35
f 720/1531/34 721/1533/34 742/1534/34 743/1532/34
f 721/1533/37 722/1535/37 741/1536/37 742/1534/37
f 723/1537/43 724/1538/43 739/1539/43 740/1540/43
f 724/1538/44 725/1541/44 738/1542/44 739/1539/44
f 725/1541/45 726/1543/45 737/1544/45 738/1542/45
f 726/1543/46 727/1545/46 736/1546/46 737/1544/46
f 727/1545/47 728/1547/47 735/1548/47 736/1546/47
f 728/1547/48 729/1549/48 734/1550/48 735/1548/48
f 729/1549/49 730/1551/49 733/1552/49 734/1550/49
f 730/1553/50 731/1498/50 732/1499/50 733/1554/50
