# Blender v2.75 (sub 0) OBJ File: 'LandRover.blend'
# www.blender.org
mtllib Rueda.mtl
o LowPolyRangeRover_Cube.000
v -3.034792 -2.443197 7.074193
v -3.034792 -2.465222 7.184920
v -3.034792 -2.443197 7.295647
v -3.034792 -2.380476 7.389517
v -3.034792 -2.286605 7.452239
v -3.034792 -1.908559 7.074193
v -3.034792 -2.175878 7.474264
v -3.034792 -1.971281 6.980323
v -3.034792 -2.065151 7.452239
v -3.034792 -2.065150 6.917601
v -3.034792 -1.971281 7.389517
v -3.034792 -2.175878 6.895576
v -3.034792 -1.908559 7.295647
v -3.034792 -2.286605 6.917601
v -3.034792 -1.886534 7.184920
v -3.034792 -2.380476 6.980322
v -3.534932 -2.162714 5.421586
v -3.534932 -1.487102 5.555972
v -3.534932 -0.914346 5.938676
v -3.534932 -0.531642 6.511433
v -3.534932 -0.397254 7.187045
v -3.534932 -0.531642 7.862657
v -3.534932 -0.914346 8.435414
v -3.534932 -1.487102 8.818116
v -3.534932 -2.162715 8.952504
v -3.534932 -2.838327 8.818116
v -3.534932 -3.411084 8.435412
v -3.534932 -3.793787 7.862656
v -3.534932 -3.928174 7.187043
v -3.534932 -3.793786 6.511431
v -3.534932 -3.411081 5.938675
v -3.534932 -2.838324 5.555971
v -3.620245 -2.162714 5.563366
v -3.620245 -1.541359 5.686960
v -3.620245 -1.014600 6.038930
v -3.620245 -0.662630 6.565690
v -3.620245 -0.539035 7.187045
v -3.620245 -0.662630 7.808400
v -3.620245 -1.014600 8.335160
v -3.620245 -1.541359 8.687128
v -3.620245 -2.162715 8.810722
v -3.620245 -2.784070 8.687128
v -3.620245 -3.310829 8.335158
v -3.620245 -3.662799 7.808399
v -3.620245 -3.786393 7.187043
v -3.620245 -3.662797 6.565688
v -3.620245 -3.310827 6.038929
v -3.620245 -2.784067 5.686959
v -3.651615 -2.162714 5.792220
v -3.651615 -1.628937 5.898394
v -3.651615 -1.176424 6.200755
v -3.651615 -0.874063 6.653269
v -3.651615 -0.767889 7.187045
v -3.651615 -0.874063 7.720821
v -3.651615 -1.176424 8.173336
v -3.651615 -1.628938 8.475696
v -3.651615 -2.162715 8.581869
v -3.651615 -2.696491 8.475696
v -3.651615 -3.149005 8.173334
v -3.651615 -3.451366 7.720820
v -3.651615 -3.557539 7.187043
v -3.651615 -3.451364 6.653267
v -3.651615 -3.149003 6.200753
v -3.651615 -2.696489 5.898393
v -3.423576 -2.162714 6.170002
v -3.423576 -1.443556 6.467886
v -3.423576 -1.223089 6.797839
v -3.423576 -1.223089 7.576250
v -3.423576 -1.443556 7.906203
v -3.423576 -2.551920 8.126670
v -3.423576 -2.881872 7.906201
v -3.423576 -3.179756 7.187043
v -3.423576 -3.102339 6.797838
v -3.423576 -2.881871 6.467885
v -3.423576 -2.551918 6.247419
v -3.566979 -2.162714 6.170002
v -3.566979 -1.773508 6.247419
v -3.566979 -1.443556 6.467886
v -3.566979 -1.223089 6.797839
v -3.566979 -1.145671 7.187045
v -3.566979 -1.223089 7.576250
v -3.566979 -1.443556 7.906203
v -3.566979 -1.773509 8.126670
v -3.566979 -2.162715 8.204087
v -3.566979 -2.551920 8.126670
v -3.566979 -2.881872 7.906201
v -3.566979 -3.102340 7.576249
v -3.566979 -3.179756 7.187043
v -3.566979 -3.102339 6.797838
v -3.566979 -2.881871 6.467885
v -3.566979 -2.551918 6.247419
v -3.423576 -3.102340 7.576249
v -3.423576 -1.145671 7.187045
v -3.423576 -2.162715 8.204087
v -3.423576 -1.773508 6.247419
v -3.423576 -1.773509 8.126670
v -3.452579 -2.162714 6.277222
v -3.452579 -1.814540 6.346478
v -3.452579 -1.519373 6.543703
v -3.452579 -1.322148 6.838871
v -3.452579 -1.252892 7.187045
v -3.452579 -1.322148 7.535218
v -3.452579 -1.519373 7.830386
v -3.452579 -1.814540 8.027611
v -3.452579 -2.162715 8.096868
v -3.452579 -2.510889 8.027611
v -3.452579 -2.806056 7.830385
v -3.452579 -3.003281 7.535218
v -3.452579 -3.072536 7.187043
v -3.452579 -3.003280 6.838870
v -3.452579 -2.806055 6.543702
v -3.452579 -2.510887 6.346478
v -3.393957 -2.162714 6.377053
v -3.393957 -1.852744 6.438710
v -3.393957 -1.589964 6.614295
v -3.393957 -1.414380 6.877074
v -3.393957 -1.352724 7.187045
v -3.393957 -1.414380 7.497015
v -3.393957 -1.589964 7.759795
v -3.393957 -1.852744 7.935379
v -3.393957 -2.162715 7.997036
v -3.393957 -2.472685 7.935379
v -3.393957 -2.735465 7.759793
v -3.393957 -2.911048 7.497014
v -3.393957 -2.972704 7.187043
v -3.393957 -2.911047 6.877074
v -3.393957 -2.735463 6.614294
v -3.393957 -2.472683 6.438710
v -3.393957 -2.162714 6.463594
v -3.393957 -1.885862 6.518664
v -3.393957 -1.651158 6.675488
v -3.393957 -1.494334 6.910192
v -3.393957 -1.439264 7.187045
v -3.393957 -1.494334 7.463897
v -3.393957 -1.651158 7.698601
v -3.393957 -1.885862 7.855425
v -3.393957 -2.162715 7.910494
v -3.393957 -2.439567 7.855425
v -3.393957 -2.674271 7.698600
v -3.393957 -2.831095 7.463896
v -3.393957 -2.886163 7.187043
v -3.393957 -2.831094 6.910192
v -3.393957 -2.674270 6.675487
v -3.393957 -2.439566 6.518664
v -3.631951 -2.162714 6.675887
v -3.631951 -1.967103 6.714797
v -3.631951 -1.801271 6.825602
v -3.631951 -1.690466 6.991433
v -3.631951 -1.651557 7.187045
v -3.631951 -1.690466 7.382656
v -3.631951 -1.801271 7.548488
v -3.631951 -1.967103 7.659293
v -3.631951 -2.162714 7.698202
v -3.631951 -2.358326 7.659293
v -3.631951 -2.524157 7.548487
v -3.631951 -2.634962 7.382655
v -3.631951 -2.673872 7.187044
v -3.631951 -2.634962 6.991433
v -3.631951 -2.524157 6.825601
v -3.631951 -2.358325 6.714797
v -3.485158 -2.162714 6.675887
v -3.485158 -1.967103 6.714797
v -3.485158 -1.801271 6.825602
v -3.485158 -1.690466 6.991433
v -3.485158 -1.651557 7.187045
v -3.485158 -1.690466 7.382656
v -3.485158 -1.801271 7.548488
v -3.485158 -1.967103 7.659293
v -3.485158 -2.162714 7.698202
v -3.485158 -2.358326 7.659293
v -3.485158 -2.524157 7.548487
v -3.485158 -2.634962 7.382655
v -3.485158 -2.673872 7.187044
v -3.485158 -2.634962 6.991433
v -3.485158 -2.524157 6.825601
v -3.485158 -2.358325 6.714797
v -3.485158 -2.162714 6.938694
v -3.485158 -2.067674 6.957599
v -3.485158 -1.933268 7.092004
v -3.485158 -1.933268 7.282084
v -3.485158 -1.987104 7.362655
v -3.485158 -2.392160 7.092004
v -3.485158 -2.338324 7.011434
v -3.485158 -2.257753 6.957599
v -3.699322 -2.162714 6.938694
v -3.699322 -2.067674 6.957599
v -3.699322 -1.987104 7.011434
v -3.699322 -1.933268 7.092004
v -3.699322 -1.914364 7.187044
v -3.699322 -1.933268 7.282084
v -3.699322 -1.987104 7.362655
v -3.699322 -2.067674 7.416491
v -3.699322 -2.162714 7.435395
v -3.699322 -2.257754 7.416491
v -3.699322 -2.338325 7.362654
v -3.699322 -2.392160 7.282084
v -3.699322 -2.411065 7.187044
v -3.699322 -2.392160 7.092004
v -3.699322 -2.338324 7.011434
v -3.699322 -2.257753 6.957599
v -3.485158 -2.257754 7.416491
v -3.485158 -1.987104 7.011434
v -3.485158 -2.162714 7.435395
v -3.485158 -2.411065 7.187044
v -3.485158 -2.067674 7.416491
v -3.485158 -2.392160 7.282084
v -3.485158 -2.338325 7.362654
v -3.485158 -1.914364 7.187044
v -3.715220 -2.162714 7.065986
v -3.715220 -2.077113 7.101444
v -3.715220 -2.050872 7.140718
v -3.715220 -2.041656 7.187044
v -3.715220 -2.077113 7.272645
v -3.715220 -2.116387 7.298887
v -3.715220 -2.248315 7.272645
v -3.715220 -2.274557 7.140718
v -3.824011 -2.162714 7.065986
v -3.824011 -2.116387 7.075202
v -3.824011 -2.077113 7.101444
v -3.824011 -2.050872 7.140718
v -3.824011 -2.041656 7.187044
v -3.824011 -2.050872 7.233371
v -3.824011 -2.077113 7.272645
v -3.824011 -2.116387 7.298887
v -3.824011 -2.162714 7.308102
v -3.824011 -2.209041 7.298887
v -3.824011 -2.248315 7.272645
v -3.824011 -2.274557 7.233371
v -3.824011 -2.283772 7.187044
v -3.824011 -2.274557 7.140718
v -3.824011 -2.248315 7.101444
v -3.824011 -2.209041 7.075202
v -3.715220 -2.050872 7.233371
v -3.715220 -2.209041 7.075202
v -3.715220 -2.248315 7.101444
v -3.715220 -2.162714 7.308102
v -3.715220 -2.209041 7.298887
v -3.715220 -2.274557 7.233371
v -3.715220 -2.116387 7.075202
v -3.715220 -2.283772 7.187044
v -2.684428 -2.162714 5.421586
v -2.684428 -1.487102 5.555972
v -2.684428 -0.914346 5.938676
v -2.684428 -0.531642 6.511433
v -2.684428 -0.397254 7.187045
v -2.684428 -0.531642 7.862657
v -2.684428 -0.914346 8.435414
v -2.684428 -1.487102 8.818116
v -2.684428 -2.162715 8.952504
v -2.684428 -2.838327 8.818116
v -2.684428 -3.411084 8.435412
v -2.684428 -3.793787 7.862656
v -2.684428 -3.928174 7.187043
v -2.684428 -3.793786 6.511431
v -2.684428 -3.411081 5.938675
v -2.684428 -2.838324 5.555971
v -2.598429 -2.162714 5.563366
v -2.598429 -1.541359 5.686960
v -2.598429 -1.014600 6.038930
v -2.598429 -0.662630 6.565690
v -2.598429 -0.539035 7.187045
v -2.598429 -0.662630 7.808400
v -2.598429 -1.014600 8.335160
v -2.598429 -1.541359 8.687128
v -2.598429 -2.162715 8.810722
v -2.598429 -2.784070 8.687128
v -2.598429 -3.310829 8.335158
v -2.598429 -3.662799 7.808399
v -2.598429 -3.786393 7.187043
v -2.598429 -3.662797 6.565688
v -2.598429 -3.310827 6.038929
v -2.598429 -2.784067 5.686959
v -2.567060 -2.162714 5.792220
v -2.567060 -1.628937 5.898394
v -2.567060 -1.176424 6.200755
v -2.567060 -0.874063 6.653269
v -2.567060 -0.767889 7.187045
v -2.567060 -0.874063 7.720821
v -2.567060 -1.176424 8.173336
v -2.567060 -1.628938 8.475696
v -2.567060 -2.162715 8.581869
v -2.567060 -2.696491 8.475696
v -2.567060 -3.149005 8.173334
v -2.567060 -3.451366 7.720820
v -2.567060 -3.557539 7.187043
v -2.567060 -3.451364 6.653267
v -2.567060 -3.149003 6.200753
v -2.567060 -2.696489 5.898393
v -2.795099 -1.773508 6.247419
v -2.795099 -1.443556 6.467886
v -2.795099 -1.223089 6.797839
v -2.795099 -1.223089 7.576250
v -2.795099 -1.773509 8.126670
v -2.795099 -2.162715 8.204087
v -2.795099 -2.881872 7.906201
v -2.795099 -3.102340 7.576249
v -2.795099 -3.179756 7.187043
v -2.795099 -2.551918 6.247419
v -2.651695 -2.162714 6.170002
v -2.651695 -1.773508 6.247419
v -2.651695 -1.443556 6.467886
v -2.651695 -1.223089 6.797839
v -2.651695 -1.145671 7.187045
v -2.651695 -1.223089 7.576250
v -2.651695 -1.443556 7.906203
v -2.651695 -1.773509 8.126670
v -2.651695 -2.162715 8.204087
v -2.651695 -2.551920 8.126670
v -2.651695 -2.881872 7.906201
v -2.651695 -3.102340 7.576249
v -2.651695 -3.179756 7.187043
v -2.651695 -3.102339 6.797838
v -2.651695 -2.881871 6.467885
v -2.651695 -2.551918 6.247419
v -2.795099 -1.145671 7.187045
v -2.795099 -2.881871 6.467885
v -2.795099 -2.551920 8.126670
v -2.795099 -3.102339 6.797838
v -2.795099 -2.162714 6.170002
v -2.795099 -1.443556 7.906203
v -2.766096 -2.162714 6.277222
v -2.766096 -1.814540 6.346478
v -2.766096 -1.519373 6.543703
v -2.766096 -1.322148 6.838871
v -2.766096 -1.252892 7.187045
v -2.766096 -1.322148 7.535218
v -2.766096 -1.519373 7.830386
v -2.766096 -1.814540 8.027611
v -2.766096 -2.162715 8.096868
v -2.766096 -2.510889 8.027611
v -2.766096 -2.806056 7.830385
v -2.766096 -3.003281 7.535218
v -2.766096 -3.072536 7.187043
v -2.766096 -3.003280 6.838870
v -2.766096 -2.806055 6.543702
v -2.766096 -2.510887 6.346478
v -2.824718 -2.162714 6.377053
v -2.824718 -1.852744 6.438710
v -2.824718 -1.589964 6.614295
v -2.824718 -1.414380 6.877074
v -2.824718 -1.352724 7.187045
v -2.824718 -1.414380 7.497015
v -2.824718 -1.589964 7.759795
v -2.824718 -1.852744 7.935379
v -2.824718 -2.162715 7.997036
v -2.824718 -2.472685 7.935379
v -2.824718 -2.735465 7.759793
v -2.824718 -2.911048 7.497014
v -2.824718 -2.972704 7.187043
v -2.824718 -2.911047 6.877074
v -2.824718 -2.735463 6.614294
v -2.824718 -2.472683 6.438710
v -2.824718 -2.162714 6.463594
v -2.824718 -1.885862 6.518664
v -2.824718 -1.651158 6.675488
v -2.824718 -1.494334 6.910192
v -2.824718 -1.439264 7.187045
v -2.824718 -1.494334 7.463897
v -2.824718 -1.651158 7.698601
v -2.824718 -1.885862 7.855425
v -2.824718 -2.162715 7.910494
v -2.824718 -2.439567 7.855425
v -2.824718 -2.674271 7.698600
v -2.824718 -2.831095 7.463896
v -2.824718 -2.886163 7.187043
v -2.824718 -2.831094 6.910192
v -2.824718 -2.674270 6.675487
v -2.824718 -2.439566 6.518664
v -2.586723 -2.162714 6.675887
v -2.586723 -1.967103 6.714797
v -2.586723 -1.801271 6.825602
v -2.586723 -1.690466 6.991433
v -2.586723 -1.651557 7.187045
v -2.586723 -1.690466 7.382656
v -2.586723 -1.801271 7.548488
v -2.586723 -1.967103 7.659293
v -2.586723 -2.162714 7.698202
v -2.586723 -2.358326 7.659293
v -2.586723 -2.524157 7.548487
v -2.586723 -2.634962 7.382655
v -2.586723 -2.673872 7.187044
v -2.586723 -2.634962 6.991433
v -2.586723 -2.524157 6.825601
v -2.586723 -2.358325 6.714797
v -2.733516 -2.162714 6.675887
v -2.733516 -1.967103 6.714797
v -2.733516 -1.801271 6.825602
v -2.733516 -1.690466 6.991433
v -2.733516 -1.651557 7.187045
v -2.733516 -1.690466 7.382656
v -2.733516 -1.801271 7.548488
v -2.733516 -1.967103 7.659293
v -2.733516 -2.162714 7.698202
v -2.733516 -2.358326 7.659293
v -2.733516 -2.524157 7.548487
v -2.733516 -2.634962 7.382655
v -2.733516 -2.673872 7.187044
v -2.733516 -2.634962 6.991433
v -2.733516 -2.524157 6.825601
v -2.733516 -2.358325 6.714797
v -2.733516 -1.933268 7.092004
v -2.733516 -2.162714 7.435395
v -2.733516 -2.257754 7.416491
v -2.733516 -2.338325 7.362654
v -2.733516 -2.338324 7.011434
v -2.519352 -2.162714 6.938694
v -2.519352 -2.067674 6.957599
v -2.519352 -1.987104 7.011434
v -2.519352 -1.933268 7.092004
v -2.519352 -1.914364 7.187044
v -2.519352 -1.933268 7.282084
v -2.519352 -1.987104 7.362655
v -2.519352 -2.067674 7.416491
v -2.519352 -2.162714 7.435395
v -2.519352 -2.257754 7.416491
v -2.519352 -2.338325 7.362654
v -2.519352 -2.392160 7.282084
v -2.519352 -2.411065 7.187044
v -2.519352 -2.392160 7.092004
v -2.519352 -2.338324 7.011434
v -2.519352 -2.257753 6.957599
v -2.733516 -2.392160 7.092004
v -2.733516 -1.987104 7.011434
v -2.733516 -2.411065 7.187044
v -2.733516 -2.067674 6.957599
v -2.733516 -2.067674 7.416491
v -2.733516 -2.392160 7.282084
v -2.733516 -2.162714 6.938694
v -2.733516 -1.987104 7.362655
v -2.733516 -1.933268 7.282084
v -2.733516 -2.257753 6.957599
v -2.733516 -1.914364 7.187044
v -2.503454 -2.162714 7.065986
v -2.503454 -2.077113 7.101444
v -2.503454 -2.050872 7.140718
v -2.503454 -2.041656 7.187044
v -2.503454 -2.116387 7.298887
v -2.503454 -2.162714 7.308102
v -2.503454 -2.209041 7.298887
v -2.503454 -2.274557 7.233371
v -2.503454 -2.248315 7.101444
v -2.503454 -2.209041 7.075202
v -2.394663 -2.162714 7.065986
v -2.394663 -2.116387 7.075202
v -2.394663 -2.077113 7.101444
v -2.394663 -2.050872 7.140718
v -2.394663 -2.041656 7.187044
v -2.394663 -2.050872 7.233371
v -2.394663 -2.077113 7.272645
v -2.394663 -2.116387 7.298887
v -2.394663 -2.162714 7.308102
v -2.394663 -2.209041 7.298887
v -2.394663 -2.248315 7.272645
v -2.394663 -2.274557 7.233371
v -2.394663 -2.283772 7.187044
v -2.394663 -2.274557 7.140718
v -2.394663 -2.248315 7.101444
v -2.394663 -2.209041 7.075202
v -2.503454 -2.077113 7.272645
v -2.503454 -2.050872 7.233371
v -2.503454 -2.274557 7.140718
v -2.503454 -2.248315 7.272645
v -2.503454 -2.116387 7.075202
v -2.503454 -2.283772 7.187044
vt 0.000000 0.222871
vn -1.000000 0.000000 0.000000
vn -0.935100 0.327500 0.135700
vn -0.935100 0.250600 0.250600
vn -0.467600 0.625000 0.625000
vn -0.467600 0.816600 0.338200
vn -0.935100 -0.135700 -0.327500
vn -0.935100 0.000000 -0.354500
vn -0.467600 0.000000 -0.883900
vn -0.467600 -0.338200 -0.816600
vn -0.467600 -0.338200 0.816600
vn -0.935100 -0.135700 0.327500
vn -0.935100 -0.250600 0.250600
vn -0.467600 -0.625000 0.625000
vn -0.935100 0.354500 0.000000
vn -0.467600 0.883900 0.000000
vn -0.935100 -0.250600 -0.250600
vn -0.467600 -0.625000 -0.625000
vn -0.467600 0.000000 0.883900
vn -0.935100 0.000000 0.354500
vn -0.935100 0.327500 -0.135700
vn -0.467600 0.816600 -0.338200
vn -0.935100 -0.327500 -0.135700
vn -0.467600 -0.816600 -0.338200
vn -0.935100 0.250600 -0.250600
vn -0.467600 0.625000 -0.625000
vn -0.467600 0.338200 0.816600
vn -0.935100 0.135700 0.327500
vn -0.935100 -0.354500 0.000000
vn -0.467600 -0.883900 0.000000
vn -0.935100 0.135700 -0.327500
vn -0.467600 0.338200 -0.816600
vn -0.935100 -0.327500 0.135700
vn -0.467600 -0.816600 0.338200
vn -0.986800 0.161500 0.000000
vn -0.986800 0.149200 0.061800
vn -0.986800 -0.061800 0.149200
vn -0.986800 -0.114200 0.114200
vn -0.986800 -0.114200 -0.114200
vn -0.986800 -0.061800 -0.149200
vn -0.986800 0.149200 -0.061800
vn -0.986800 -0.149200 -0.061800
vn -0.986800 0.061800 0.149200
vn -0.986800 0.000000 0.161500
vn -0.986800 0.114200 -0.114200
vn -0.986800 -0.161500 0.000000
vn -0.986800 0.114200 0.114200
vn -0.986800 0.061800 -0.149200
vn -0.986800 -0.149200 0.061800
vn -0.986800 0.000000 -0.161500
vn -0.916300 -0.283100 -0.283100
vn -0.916300 -0.153200 -0.369900
vn -0.916300 0.369900 -0.153200
vn -0.916300 0.400300 0.000000
vn -0.916300 0.000000 0.400300
vn -0.916300 -0.153200 0.369900
vn -0.916300 -0.369900 -0.153200
vn -0.916300 0.283100 -0.283100
vn -0.916300 0.153200 0.369900
vn -0.916300 -0.400300 0.000000
vn -0.916300 0.153200 -0.369900
vn -0.916300 0.283100 0.283100
vn -0.665700 0.527600 -0.527600
vn -0.705500 0.501100 -0.501100
vn -0.705500 0.271200 -0.654700
vn -0.665700 0.285600 -0.689400
vn -0.916300 -0.369900 0.153200
vn -0.916300 0.369900 0.153200
vn -0.916300 0.000000 -0.400300
vn -0.916300 -0.283100 0.283100
vn -0.888200 -0.459400 0.000000
vn -0.888200 -0.424500 -0.175800
vn -0.888200 0.324800 0.324800
vn -0.888200 0.175800 0.424500
vn -0.888200 0.000000 -0.459400
vn -0.888200 0.175800 -0.424500
vn -0.772500 0.635000 0.000000
vn -0.772500 0.586700 0.243000
vn -0.888200 0.000000 0.459400
vn -0.888200 -0.175800 0.424500
vn -0.772500 -0.243000 0.586700
vn -0.772500 -0.449000 0.449000
vn -0.888200 0.324800 -0.324800
vn -0.772500 -0.243000 -0.586700
vn -0.772500 0.000000 -0.635000
vn -0.888200 -0.424500 0.175800
vn -0.772500 0.586700 -0.243000
vn -0.772500 -0.449000 -0.449000
vn -0.888200 -0.324800 0.324800
vn -0.772500 0.449000 -0.449000
vn -0.772500 -0.586700 -0.243000
vn -0.888200 0.424500 0.175800
vn -0.772500 0.243000 0.586700
vn -0.772500 0.000000 0.635000
vn -0.888200 -0.175800 -0.424500
vn -0.772500 0.243000 -0.586700
vn -0.772500 -0.635000 0.000000
vn -0.888200 0.459400 0.000000
vn -0.772500 0.449000 0.449000
vn -0.888200 -0.324800 -0.324800
vn -0.772500 -0.586700 0.243000
vn -0.888200 0.424500 -0.175800
vn -0.956300 0.111900 0.270100
vn -0.956300 0.000000 0.292300
vn -0.956300 0.206700 -0.206700
vn -0.956300 0.270100 -0.111900
vn -0.956300 -0.292300 0.000000
vn -0.956300 -0.270100 -0.111900
vn -0.956300 0.206700 0.206700
vn -0.956300 0.111900 -0.270100
vn -0.956300 -0.270100 0.111900
vn -0.956300 0.270100 0.111900
vn -0.956300 -0.206700 0.206700
vn -0.956300 0.000000 -0.292300
vn -0.956300 0.292300 0.000000
vn -0.956300 -0.111900 0.270100
vn -0.956300 -0.111900 -0.270100
vn -0.956300 -0.206700 -0.206700
vn 0.934400 0.136400 -0.329200
vn 0.986800 -0.061800 0.149200
vn 0.986800 0.000000 0.161500
vn 0.934400 0.000000 -0.356300
vn -0.931200 -0.336800 0.139500
vn -0.931200 -0.364600 0.000000
vn -0.931200 0.000000 -0.364600
vn -0.931200 0.139500 -0.336800
vn -0.931200 0.336800 0.139500
vn -0.931200 0.257800 0.257800
vn -0.931200 -0.257800 0.257800
vn -0.931200 0.364600 0.000000
vn -0.931200 -0.257800 -0.257800
vn -0.931200 -0.139500 -0.336800
vn -0.931200 -0.139500 0.336800
vn -0.931200 0.336800 -0.139500
vn -0.931200 -0.336800 -0.139500
vn -0.931200 0.000000 0.364600
vn -0.931200 0.257800 -0.257800
vn -0.931200 0.139500 0.336800
vn -0.969100 0.227800 -0.094300
vn -0.969100 0.246600 0.000000
vn -0.969100 -0.227800 -0.094300
vn -0.969100 -0.174400 -0.174400
vn -0.969100 0.094300 0.227800
vn -0.969100 0.000000 0.246600
vn -0.969100 0.174400 -0.174400
vn -0.969100 -0.246600 0.000000
vn -0.969100 0.174400 0.174400
vn -0.969100 0.094300 -0.227800
vn -0.969100 -0.227800 0.094300
vn -0.969100 0.227800 0.094300
vn -0.969100 -0.174400 0.174400
vn -0.969100 0.000000 -0.246600
vn -0.969100 -0.094300 0.227800
vn -0.969100 -0.094300 -0.227800
vn -0.665700 0.746200 0.000000
vn -0.665700 0.689400 0.285500
vn -0.665700 -0.285500 0.689400
vn -0.665700 -0.527600 0.527600
vn -0.665700 -0.527600 -0.527600
vn -0.665700 -0.285500 -0.689400
vn -0.665700 0.689400 -0.285500
vn -0.665700 0.000000 0.746200
vn -0.665700 -0.689400 -0.285500
vn -0.665700 0.285500 0.689400
vn -0.665700 -0.746200 0.000000
vn -0.665700 0.527600 0.527600
vn -0.665700 0.285500 -0.689400
vn -0.665700 -0.689400 0.285500
vn -0.665700 0.000000 -0.746200
vn -0.753700 -0.607100 -0.251500
vn -0.753700 -0.464600 -0.464600
vn -0.753700 -0.607100 0.251500
vn -0.753700 -0.657100 0.000000
vn -0.753700 0.657100 0.000000
vn -0.753700 0.607100 0.251500
vn -0.753700 -0.251500 -0.607100
vn -0.753700 -0.251500 0.607100
vn -0.753700 -0.464600 0.464600
vn -0.623600 -0.552800 -0.552800
vn -0.623600 -0.722200 -0.299100
vn -0.623600 -0.781700 0.000000
vn -0.623600 -0.722200 0.299100
vn -0.753700 0.000000 0.657100
vn -0.623600 0.000000 0.781700
vn -0.623600 -0.299100 0.722200
vn -0.753700 0.251500 -0.607100
vn -0.623600 0.299100 -0.722200
vn -0.623600 0.552800 -0.552800
vn -0.753700 0.464600 -0.464600
vn -0.623600 -0.552800 0.552800
vn -0.753700 0.251500 0.607100
vn -0.623600 0.299100 0.722200
vn -0.753700 0.000000 -0.657100
vn -0.623600 0.000000 -0.781700
vn -0.623600 -0.299100 -0.722200
vn -0.753700 0.464600 0.464600
vn -0.623600 0.552800 0.552800
vn -0.623600 0.722200 0.299100
vn -0.623600 0.781700 0.000000
vn -0.705500 -0.271200 0.654700
vn -0.705500 -0.501100 0.501100
vn -0.623600 0.722200 -0.299100
vn -0.753700 0.607100 -0.251500
vn -0.705500 0.708700 0.000000
vn -0.705500 0.654700 0.271200
vn -0.705500 -0.501100 -0.501100
vn -0.705500 -0.271200 -0.654700
vn -0.705500 -0.654700 -0.271200
vn -0.705500 -0.708700 0.000000
vn -0.705500 -0.654700 0.271200
vn -0.705500 0.501100 0.501100
vn -0.705500 0.000000 -0.708700
vn -0.705500 0.271200 0.654700
vn -0.665700 0.285600 0.689400
vn -0.705500 0.000000 0.708700
vn -0.665700 -0.689400 0.285600
vn -0.665700 0.689400 0.285600
vn -0.665700 -0.285600 0.689400
vn -0.665700 -0.285600 -0.689400
vn -0.705500 0.654700 -0.271200
vn -0.665700 0.689400 -0.285600
vn -0.665700 -0.689400 -0.285600
vn 0.466200 -0.817300 -0.338500
vn 0.466200 -0.884600 0.000000
vn 0.466200 0.625500 -0.625500
vn 0.466200 0.338500 -0.817300
vn 0.466200 0.625500 0.625500
vn 0.466200 0.338500 0.817300
vn 0.466200 -0.817300 0.338500
vn 0.466200 0.000000 -0.884600
vn 0.466200 0.817300 0.338500
vn 0.466200 -0.338500 -0.817300
vn 0.466200 -0.625500 0.625500
vn 0.466200 0.884600 0.000000
vn 0.466200 -0.625500 -0.625500
vn 0.466200 -0.338500 0.817300
vn 0.466200 0.817300 -0.338500
vn 0.466200 0.000000 0.884600
vn 0.934400 0.329200 0.136400
vn 0.934400 0.356300 0.000000
vn 0.934400 0.251900 0.251900
vn 0.934400 -0.329200 -0.136400
vn 0.986800 0.149200 0.061800
vn 0.986800 0.161500 0.000000
vn 0.934400 -0.356300 0.000000
vn 0.934400 -0.136400 -0.329200
vn 0.934400 -0.251900 -0.251900
vn 0.934400 -0.251900 0.251900
vn 0.934400 -0.136400 0.329200
vn 0.934400 0.329200 -0.136400
vn 0.934400 0.251900 -0.251900
vn 0.934400 0.000000 0.356300
vn 0.934400 -0.329200 0.136400
vn 0.934400 0.136400 0.329200
vn 0.986800 -0.114200 0.114200
vn 0.986800 -0.061800 -0.149200
vn 0.986800 -0.114200 -0.114200
vn 0.916300 0.283100 -0.283100
vn 0.916300 0.153200 -0.369900
vn 0.986800 0.149200 -0.061800
vn 0.986800 -0.149200 -0.061800
vn 0.986800 0.061800 0.149200
vn 0.986800 0.114200 -0.114200
vn 0.986800 -0.161500 0.000000
vn 0.986800 0.114200 0.114200
vn 0.986800 0.061800 -0.149200
vn 0.986800 -0.149200 0.061800
vn 0.986800 0.000000 -0.161500
vn 0.916300 0.000000 -0.400300
vn 0.916300 -0.153200 -0.369900
vn 0.916300 0.369900 0.153200
vn 0.916300 0.400300 0.000000
vn 0.916300 -0.283100 0.283100
vn 0.916300 -0.153200 0.369900
vn 0.916300 -0.283100 -0.283100
vn 0.916300 0.369900 -0.153200
vn 0.916300 0.000000 0.400300
vn 0.916300 -0.369900 -0.153200
vn 0.916300 0.153200 0.369900
vn 0.916300 -0.400300 0.000000
vn 0.916300 0.283100 0.283100
vn 0.888200 0.175800 -0.424500
vn 0.772500 -0.243000 0.586700
vn 0.772500 0.000000 0.635000
vn 0.888200 0.000000 -0.459400
vn 0.916300 -0.369900 0.153200
vn 0.888200 0.324800 0.324800
vn 0.888200 0.424500 0.175800
vn 0.888200 0.175800 0.424500
vn 0.888200 0.324800 -0.324800
vn 0.888200 -0.175800 -0.424500
vn 0.888200 -0.324800 -0.324800
vn 0.888200 -0.424500 -0.175800
vn 0.888200 -0.175800 0.424500
vn 0.888200 0.000000 0.459400
vn 0.772500 0.586700 0.243000
vn 0.772500 0.635000 0.000000
vn 0.888200 -0.459400 0.000000
vn 0.772500 -0.449000 0.449000
vn 0.772500 0.000000 -0.635000
vn 0.772500 -0.243000 -0.586700
vn 0.772500 0.586700 -0.243000
vn 0.888200 -0.424500 0.175800
vn 0.772500 -0.449000 -0.449000
vn 0.956300 -0.111900 0.270100
vn 0.956300 0.000000 0.292300
vn 0.772500 0.449000 -0.449000
vn 0.888200 -0.324800 0.324800
vn 0.772500 -0.586700 -0.243000
vn 0.772500 0.243000 0.586700
vn 0.772500 0.243000 -0.586700
vn 0.772500 -0.635000 0.000000
vn 0.888200 0.459400 0.000000
vn 0.772500 0.449000 0.449000
vn 0.772500 -0.586700 0.243000
vn 0.888200 0.424500 -0.175800
vn 0.956300 0.111900 0.270100
vn 0.956300 0.270100 -0.111900
vn 0.956300 0.206700 -0.206700
vn 0.956300 -0.270100 -0.111900
vn 0.956300 -0.292300 0.000000
vn 0.956300 0.206700 0.206700
vn 0.956300 0.111900 -0.270100
vn 0.956300 -0.270100 0.111900
vn 0.956300 0.270100 0.111900
vn 0.956300 -0.206700 0.206700
vn 0.956300 0.000000 -0.292300
vn 0.956300 0.292300 0.000000
vn 0.956300 -0.111900 -0.270100
vn 0.956300 -0.206700 -0.206700
vn 0.931200 0.139500 -0.336800
vn 0.969100 -0.094300 0.227800
vn 0.969100 0.000000 0.246600
vn 0.931200 0.000000 -0.364600
vn 0.931200 -0.364600 0.000000
vn 0.931200 -0.336800 0.139500
vn 0.931200 0.257800 0.257800
vn 0.931200 0.336800 0.139500
vn 0.931200 -0.257800 0.257800
vn 0.931200 0.364600 0.000000
vn 0.931200 -0.139500 -0.336800
vn 0.931200 -0.257800 -0.257800
vn 0.931200 -0.139500 0.336800
vn 0.931200 0.336800 -0.139500
vn 0.931200 -0.336800 -0.139500
vn 0.931200 0.000000 0.364600
vn 0.931200 0.257800 -0.257800
vn 0.931200 0.139500 0.336800
vn 0.753700 -0.464600 -0.464600
vn 0.753700 -0.251500 -0.607100
vn 0.623600 -0.299100 -0.722200
vn 0.623600 -0.552800 -0.552800
vn 0.969100 0.246600 0.000000
vn 0.969100 0.227800 -0.094300
vn 0.969100 -0.174400 -0.174400
vn 0.969100 -0.227800 -0.094300
vn 0.969100 0.094300 0.227800
vn 0.969100 0.174400 -0.174400
vn 0.969100 -0.246600 0.000000
vn 0.969100 0.174400 0.174400
vn 0.969100 0.094300 -0.227800
vn 0.969100 -0.227800 0.094300
vn 0.969100 0.227800 0.094300
vn 0.969100 -0.174400 0.174400
vn 0.969100 0.000000 -0.246600
vn 0.969100 -0.094300 -0.227800
vn 0.665700 0.689400 0.285500
vn 0.665700 0.746200 0.000000
vn 0.665700 -0.527600 0.527600
vn 0.665700 -0.285500 0.689400
vn 0.665700 -0.285500 -0.689400
vn 0.665700 -0.527600 -0.527600
vn 0.665700 0.689400 -0.285500
vn 0.665700 0.000000 0.746200
vn 0.665700 -0.689400 -0.285500
vn 0.665700 0.285500 0.689400
vn 0.665700 0.527600 -0.527600
vn 0.665700 -0.746200 0.000000
vn 0.665700 0.527600 0.527600
vn 0.665700 0.285500 -0.689400
vn 0.665700 -0.689400 0.285500
vn 0.665700 0.000000 -0.746200
vn 0.753700 -0.607100 -0.251500
vn 0.753700 0.607100 0.251500
vn 0.753700 0.657100 0.000000
vn 0.753700 -0.251500 0.607100
vn 0.753700 0.000000 0.657100
vn 0.753700 0.607100 -0.251500
vn 0.753700 0.464600 -0.464600
vn 0.623600 0.781700 0.000000
vn 0.623600 0.722200 -0.299100
vn 0.753700 -0.657100 0.000000
vn 0.753700 -0.464600 0.464600
vn 0.623600 -0.722200 -0.299100
vn 0.753700 -0.607100 0.251500
vn 0.623600 -0.781700 0.000000
vn 0.623600 -0.722200 0.299100
vn 0.623600 -0.299100 0.722200
vn 0.623600 0.000000 0.781700
vn 0.753700 0.251500 -0.607100
vn 0.623600 0.552800 -0.552800
vn 0.623600 0.299100 -0.722200
vn 0.623600 -0.552800 0.552800
vn 0.753700 0.251500 0.607100
vn 0.623600 0.299100 0.722200
vn 0.753700 0.000000 -0.657100
vn 0.623600 0.000000 -0.781700
vn 0.753700 0.464600 0.464600
vn 0.623600 0.552800 0.552800
vn 0.623600 0.722200 0.299100
vn 0.705500 0.271200 -0.654700
vn 0.705500 0.501100 -0.501100
vn 0.665700 0.285600 -0.689400
vn 0.705500 0.000000 -0.708700
vn 0.705500 -0.271200 -0.654700
vn 0.705500 0.654700 0.271200
vn 0.705500 0.708700 0.000000
vn 0.705500 -0.501100 -0.501100
vn 0.705500 0.000000 0.708700
vn 0.705500 0.271200 0.654700
vn 0.705500 -0.654700 -0.271200
vn 0.705500 -0.708700 0.000000
vn 0.665700 0.285600 0.689400
vn 0.705500 -0.501100 0.501100
vn 0.705500 -0.654700 0.271200
vn 0.665700 -0.689400 0.285600
vn 0.705500 0.501100 0.501100
vn 0.665700 0.689400 0.285600
vn 0.705500 -0.271200 0.654700
vn 0.665700 -0.285600 0.689400
vn 0.665700 -0.285600 -0.689400
vn 0.705500 0.654700 -0.271200
vn 0.665700 0.689400 -0.285600
vn 0.665700 -0.689400 -0.285600
usemtl RangeRover
s off
f 6/1/1 8/1/1 10/1/1 12/1/1 14/1/1 16/1/1 1/1/1 2/1/1 3/1/1 4/1/1 5/1/1 7/1/1 9/1/1 11/1/1 13/1/1 15/1/1
s 1
f 38/1/2 39/1/3 23/1/4 22/1/5
f 48/1/6 33/1/7 17/1/8 32/1/9
f 26/1/10 42/1/11 43/1/12 27/1/13
f 37/1/14 38/1/2 22/1/5 21/1/15
f 47/1/16 48/1/6 32/1/9 31/1/17
f 25/1/18 41/1/19 42/1/11 26/1/10
f 36/1/20 37/1/14 21/1/15 20/1/21
f 46/1/22 47/1/16 31/1/17 30/1/23
f 35/1/24 36/1/20 20/1/21 19/1/25
f 24/1/26 40/1/27 41/1/19 25/1/18
f 45/1/28 46/1/22 30/1/23 29/1/29
f 34/1/30 35/1/24 19/1/25 18/1/31
f 23/1/4 39/1/3 40/1/27 24/1/26
f 44/1/32 45/1/28 29/1/29 28/1/33
f 33/1/7 34/1/30 18/1/31 17/1/8
f 61/1/34 62/1/35 46/1/22 45/1/28
f 50/1/36 51/1/37 35/1/24 34/1/30
f 39/1/3 55/1/38 56/1/39 40/1/27
f 60/1/40 61/1/34 45/1/28 44/1/32
f 38/1/2 54/1/41 55/1/38 39/1/3
f 48/1/6 64/1/42 49/1/43 33/1/7
f 59/1/44 60/1/40 44/1/32 43/1/12
f 37/1/14 53/1/45 54/1/41 38/1/2
f 47/1/16 63/1/46 64/1/42 48/1/6
f 58/1/47 59/1/44 43/1/12 42/1/11
f 36/1/20 52/1/48 53/1/45 37/1/14
f 46/1/22 62/1/35 63/1/46 47/1/16
f 35/1/24 51/1/37 52/1/48 36/1/20
f 57/1/49 58/1/47 42/1/11 41/1/19
f 56/1/39 57/1/49 41/1/19 40/1/27
f 74/1/50 75/1/51 64/1/42 63/1/46
f 67/1/52 93/1/53 53/1/45 52/1/48
f 57/1/49 94/1/54 70/1/55 58/1/47
f 73/1/56 74/1/50 63/1/46 62/1/35
f 66/1/57 67/1/52 52/1/48 51/1/37
f 56/1/39 96/1/58 94/1/54 57/1/49
f 72/1/59 73/1/56 62/1/35 61/1/34
f 95/1/60 66/1/57 51/1/37 50/1/36
f 55/1/38 69/1/61 96/1/58 56/1/39
f 219/1/62 210/1/63 239/1/64 218/1/65
f 60/1/40 92/1/66 72/1/59 61/1/34
f 54/1/41 68/1/67 69/1/61 55/1/38
f 75/1/51 65/1/68 49/1/43 64/1/42
f 71/1/69 92/1/66 60/1/40 59/1/44
f 53/1/45 93/1/53 68/1/67 54/1/41
f 58/1/47 70/1/55 71/1/69 59/1/44
f 95/1/60 50/1/36 49/1/43 65/1/68
f 88/1/70 89/1/71 73/1/56 72/1/59
f 69/1/61 82/1/72 83/1/73 96/1/58
f 65/1/68 76/1/74 77/1/75 95/1/60
f 88/1/70 109/1/76 110/1/77 89/1/71
f 96/1/58 83/1/73 84/1/78 94/1/54
f 84/1/78 85/1/79 70/1/55 94/1/54
f 77/1/75 98/1/80 99/1/81 78/1/82
f 104/1/83 105/1/84 84/1/78 83/1/73
f 87/1/85 108/1/86 109/1/76 88/1/70
f 103/1/87 104/1/83 83/1/73 82/1/72
f 86/1/88 107/1/89 108/1/86 87/1/85
f 102/1/90 103/1/87 82/1/72 81/1/91
f 112/1/92 97/1/93 76/1/74 91/1/94
f 85/1/79 106/1/95 107/1/89 86/1/88
f 101/1/96 102/1/90 81/1/91 80/1/97
f 111/1/98 112/1/92 91/1/94 90/1/99
f 100/1/100 101/1/96 80/1/97 79/1/101
f 105/1/84 106/1/95 85/1/79 84/1/78
f 89/1/71 110/1/77 111/1/98 90/1/99
f 78/1/82 99/1/81 100/1/100 79/1/101
f 112/1/92 128/1/102 113/1/103 97/1/93
f 123/1/104 124/1/105 108/1/86 107/1/89
f 101/1/96 117/1/106 118/1/107 102/1/90
f 111/1/98 127/1/108 128/1/102 112/1/92
f 122/1/109 123/1/104 107/1/89 106/1/95
f 100/1/100 116/1/110 117/1/106 101/1/96
f 110/1/77 126/1/111 127/1/108 111/1/98
f 99/1/81 115/1/112 116/1/110 100/1/100
f 121/1/113 122/1/109 106/1/95 105/1/84
f 109/1/76 125/1/114 126/1/111 110/1/77
f 98/1/80 114/1/115 115/1/112 99/1/81
f 120/1/116 121/1/113 105/1/84 104/1/83
f 108/1/86 124/1/105 125/1/114 109/1/76
f 119/1/117 120/1/116 104/1/83 103/1/87
f 258/1/118 274/1/119 273/1/120 257/1/121
f 118/1/107 119/1/117 103/1/87 102/1/90
f 140/1/122 141/1/123 125/1/114 124/1/105
f 129/1/124 130/1/125 114/1/115 113/1/103
f 118/1/107 134/1/126 135/1/127 119/1/117
f 139/1/128 140/1/122 124/1/105 123/1/104
f 117/1/106 133/1/129 134/1/126 118/1/107
f 127/1/108 143/1/130 144/1/131 128/1/102
f 138/1/132 139/1/128 123/1/104 122/1/109
f 116/1/110 132/1/133 133/1/129 117/1/106
f 126/1/111 142/1/134 143/1/130 127/1/108
f 137/1/135 138/1/132 122/1/109 121/1/113
f 115/1/112 131/1/136 132/1/133 116/1/110
f 125/1/114 141/1/123 142/1/134 126/1/111
f 114/1/115 130/1/125 131/1/136 115/1/112
f 136/1/137 137/1/135 121/1/113 120/1/116
f 135/1/127 136/1/137 120/1/116 119/1/117
f 144/1/131 129/1/124 113/1/103 128/1/102
f 76/1/74 97/1/93 98/1/80 77/1/75
f 156/1/138 157/1/139 141/1/123 140/1/122
f 134/1/126 150/1/140 151/1/141 135/1/127
f 144/1/131 160/1/142 145/1/143 129/1/124
f 155/1/144 156/1/138 140/1/122 139/1/128
f 133/1/129 149/1/145 150/1/140 134/1/126
f 143/1/130 159/1/146 160/1/142 144/1/131
f 154/1/147 155/1/144 139/1/128 138/1/132
f 132/1/133 148/1/148 149/1/145 133/1/129
f 142/1/134 158/1/149 159/1/146 143/1/130
f 131/1/136 147/1/150 148/1/148 132/1/133
f 153/1/151 154/1/147 138/1/132 137/1/135
f 141/1/123 157/1/139 158/1/149 142/1/134
f 130/1/125 146/1/152 147/1/150 131/1/136
f 152/1/153 153/1/151 137/1/135 136/1/137
f 151/1/141 152/1/153 136/1/137 135/1/127
f 173/1/154 174/1/155 158/1/149 157/1/139
f 162/1/156 163/1/157 147/1/150 146/1/152
f 151/1/141 167/1/158 168/1/159 152/1/153
f 172/1/160 173/1/154 157/1/139 156/1/138
f 161/1/161 162/1/156 146/1/152 145/1/143
f 150/1/140 166/1/162 167/1/158 151/1/141
f 160/1/142 176/1/163 161/1/161 145/1/143
f 171/1/62 172/1/160 156/1/138 155/1/144
f 149/1/145 165/1/164 166/1/162 150/1/140
f 159/1/146 175/1/165 176/1/163 160/1/142
f 170/1/166 171/1/62 155/1/144 154/1/147
f 148/1/148 164/1/167 165/1/164 149/1/145
f 158/1/149 174/1/155 175/1/165 159/1/146
f 169/1/168 170/1/166 154/1/147 153/1/151
f 147/1/150 163/1/157 164/1/167 148/1/148
f 168/1/159 169/1/168 153/1/151 152/1/153
f 182/1/169 183/1/170 175/1/165 174/1/155
f 206/1/171 204/1/172 173/1/154 172/1/160
f 165/1/164 208/1/173 180/1/174 166/1/162
f 175/1/165 183/1/170 184/1/175 176/1/163
f 201/1/176 207/1/177 171/1/62 170/1/166
f 199/1/178 183/1/170 182/1/169 198/1/179
f 197/1/180 204/1/172 206/1/171 196/1/181
f 203/1/182 193/1/183 194/1/184 201/1/176
f 198/1/179 182/1/169 204/1/172 197/1/180
f 178/1/185 186/1/186 187/1/187 202/1/188
f 196/1/181 206/1/171 207/1/177 195/1/189
f 205/1/190 192/1/191 193/1/183 203/1/182
f 186/1/186 178/1/185 177/1/192 185/1/193
f 184/1/175 200/1/194 185/1/193 177/1/192
f 181/1/195 191/1/196 192/1/191 205/1/190
f 180/1/174 190/1/197 191/1/196 181/1/195
f 195/1/189 207/1/177 201/1/176 194/1/184
f 208/1/173 189/1/198 190/1/197 180/1/174
f 194/1/184 237/1/199 215/1/200 195/1/189
f 188/1/201 179/1/202 202/1/188 187/1/187
f 212/1/203 233/1/204 190/1/197 189/1/198
f 235/1/205 234/1/206 200/1/194 199/1/178
f 216/1/207 235/1/205 199/1/178 198/1/179
f 197/1/180 240/1/208 216/1/207 198/1/179
f 238/1/209 240/1/208 197/1/180 196/1/181
f 190/1/197 233/1/204 213/1/210 191/1/196
f 218/1/65 239/1/64 209/1/211 217/1/168
f 191/1/196 213/1/210 214/1/212 192/1/191
f 214/1/212 224/1/213 225/1/161 236/1/214
f 215/1/200 227/1/157 228/1/215 238/1/209
f 229/1/164 240/1/208 238/1/209 228/1/215
f 233/1/204 222/1/216 223/1/165 213/1/210
f 227/1/157 215/1/200 237/1/199 226/1/217
f 213/1/210 223/1/165 224/1/213 214/1/212
f 212/1/203 221/1/154 222/1/216 233/1/204
f 226/1/217 237/1/199 236/1/214 225/1/161
f 217/1/168 209/1/211 234/1/206 232/1/218
f 211/1/219 220/1/220 221/1/154 212/1/203
f 216/1/207 230/1/221 231/1/158 235/1/205
f 210/1/63 219/1/62 220/1/220 211/1/219
f 235/1/205 231/1/158 232/1/218 234/1/206
f 240/1/208 229/1/164 230/1/221 216/1/207
f 200/1/194 184/1/175 183/1/170 199/1/178
f 30/1/23 254/1/222 253/1/223 29/1/29
f 145/1/143 146/1/152 130/1/125 129/1/124
f 218/1/65 217/1/168 232/1/218 231/1/158 230/1/221 229/1/164 228/1/215 227/1/157 226/1/217 225/1/161 224/1/213 223/1/165 222/1/216 221/1/154 220/1/220 219/1/62
f 19/1/25 243/1/224 242/1/225 18/1/31
f 247/1/226 23/1/4 24/1/26 248/1/227
f 29/1/29 253/1/223 252/1/228 28/1/33
f 18/1/31 242/1/225 241/1/229 17/1/8
f 246/1/230 22/1/5 23/1/4 247/1/226
f 256/1/231 32/1/9 17/1/8 241/1/229
f 28/1/33 252/1/228 251/1/232 27/1/13
f 245/1/233 21/1/15 22/1/5 246/1/230
f 255/1/234 31/1/17 32/1/9 256/1/231
f 27/1/13 251/1/232 250/1/235 26/1/10
f 244/1/236 20/1/21 21/1/15 245/1/233
f 254/1/222 30/1/23 31/1/17 255/1/234
f 26/1/10 250/1/235 249/1/237 25/1/18
f 243/1/224 19/1/25 20/1/21 244/1/236
f 25/1/18 249/1/237 248/1/227 24/1/26
f 245/1/233 246/1/230 262/1/238 261/1/239
f 246/1/230 247/1/226 263/1/240 262/1/238
f 270/1/241 286/1/242 285/1/243 269/1/244
f 255/1/234 256/1/231 272/1/245 271/1/246
f 250/1/235 251/1/232 267/1/247 266/1/248
f 243/1/224 244/1/236 260/1/249 259/1/250
f 254/1/222 255/1/234 271/1/246 270/1/241
f 249/1/237 250/1/235 266/1/248 265/1/251
f 253/1/223 254/1/222 270/1/241 269/1/244
f 252/1/228 253/1/223 269/1/244 268/1/252
f 242/1/225 243/1/224 259/1/250 258/1/118
f 248/1/227 249/1/237 265/1/251 264/1/253
f 256/1/231 241/1/229 257/1/121 272/1/245
f 241/1/229 242/1/225 258/1/118 257/1/121
f 247/1/226 248/1/227 264/1/253 263/1/240
f 244/1/236 245/1/233 261/1/239 260/1/249
f 259/1/250 275/1/254 274/1/119 258/1/118
f 264/1/253 280/1/255 279/1/256 263/1/240
f 275/1/254 290/1/257 289/1/258 274/1/119
f 269/1/244 285/1/243 284/1/259 268/1/252
f 263/1/240 279/1/256 278/1/260 262/1/238
f 257/1/121 273/1/120 288/1/261 272/1/245
f 268/1/252 284/1/259 283/1/262 267/1/247
f 262/1/238 278/1/260 277/1/263 261/1/239
f 272/1/245 288/1/261 287/1/264 271/1/246
f 267/1/247 283/1/262 282/1/265 266/1/248
f 261/1/239 277/1/263 276/1/266 260/1/249
f 271/1/246 287/1/264 286/1/242 270/1/241
f 260/1/249 276/1/266 275/1/254 259/1/250
f 266/1/248 282/1/265 281/1/267 265/1/251
f 265/1/251 281/1/267 280/1/255 264/1/253
f 273/1/120 319/1/268 298/1/269 288/1/261
f 278/1/260 292/1/270 315/1/271 277/1/263
f 283/1/262 295/1/272 317/1/273 282/1/265
f 288/1/261 298/1/269 316/1/274 287/1/264
f 277/1/263 315/1/271 291/1/275 276/1/266
f 282/1/265 317/1/273 294/1/276 281/1/267
f 287/1/264 316/1/274 318/1/277 286/1/242
f 276/1/266 291/1/275 290/1/257 275/1/254
f 281/1/267 294/1/276 293/1/278 280/1/255
f 286/1/242 318/1/277 297/1/279 285/1/243
f 280/1/255 293/1/278 320/1/280 279/1/256
f 300/1/281 322/1/282 321/1/283 299/1/284
f 285/1/243 297/1/279 296/1/285 284/1/259
f 279/1/256 320/1/280 292/1/270 278/1/260
f 284/1/259 296/1/285 295/1/272 283/1/262
f 292/1/270 320/1/280 305/1/286 304/1/287
f 320/1/280 293/1/278 306/1/288 305/1/286
f 289/1/258 290/1/257 301/1/289 300/1/281
f 298/1/269 319/1/268 299/1/284 314/1/290
f 318/1/277 316/1/274 313/1/291 312/1/292
f 294/1/276 317/1/273 308/1/293 307/1/294
f 312/1/292 334/1/295 333/1/296 311/1/297
f 301/1/289 323/1/298 322/1/282 300/1/281
f 307/1/294 329/1/299 328/1/300 306/1/288
f 311/1/297 333/1/296 332/1/301 310/1/302
f 306/1/288 328/1/300 327/1/303 305/1/286
f 322/1/282 338/1/304 337/1/305 321/1/283
f 310/1/302 332/1/301 331/1/306 309/1/307
f 305/1/286 327/1/303 326/1/308 304/1/287
f 299/1/284 321/1/283 336/1/309 314/1/290
f 309/1/307 331/1/306 330/1/310 308/1/293
f 304/1/287 326/1/308 325/1/311 303/1/312
f 314/1/290 336/1/309 335/1/313 313/1/291
f 303/1/312 325/1/311 324/1/314 302/1/315
f 308/1/293 330/1/310 329/1/299 307/1/294
f 313/1/291 335/1/313 334/1/295 312/1/292
f 302/1/315 324/1/314 323/1/298 301/1/289
f 321/1/283 337/1/305 352/1/316 336/1/309
f 332/1/301 348/1/317 347/1/318 331/1/306
f 326/1/308 342/1/319 341/1/320 325/1/311
f 336/1/309 352/1/316 351/1/321 335/1/313
f 331/1/306 347/1/318 346/1/322 330/1/310
f 325/1/311 341/1/320 340/1/323 324/1/314
f 335/1/313 351/1/321 350/1/324 334/1/295
f 324/1/314 340/1/323 339/1/325 323/1/298
f 330/1/310 346/1/322 345/1/326 329/1/299
f 334/1/295 350/1/324 349/1/327 333/1/296
f 323/1/298 339/1/325 338/1/304 322/1/282
f 329/1/299 345/1/326 344/1/328 328/1/300
f 333/1/296 349/1/327 348/1/317 332/1/301
f 328/1/300 344/1/328 343/1/329 327/1/303
f 354/1/330 370/1/331 369/1/332 353/1/333
f 327/1/303 343/1/329 342/1/319 326/1/308
f 348/1/317 349/1/327 365/1/334 364/1/335
f 337/1/305 338/1/304 354/1/330 353/1/333
f 342/1/319 343/1/329 359/1/336 358/1/337
f 347/1/318 348/1/317 364/1/335 363/1/338
f 341/1/320 342/1/319 358/1/337 357/1/339
f 351/1/321 352/1/316 368/1/340 367/1/341
f 346/1/322 347/1/318 363/1/338 362/1/342
f 340/1/323 341/1/320 357/1/339 356/1/343
f 350/1/324 351/1/321 367/1/341 366/1/344
f 345/1/326 346/1/322 362/1/342 361/1/345
f 339/1/325 340/1/323 356/1/343 355/1/346
f 349/1/327 350/1/324 366/1/344 365/1/334
f 338/1/304 339/1/325 355/1/346 354/1/330
f 344/1/328 345/1/326 361/1/345 360/1/347
f 343/1/329 344/1/328 360/1/347 359/1/336
f 352/1/316 337/1/305 353/1/333 368/1/340
f 405/1/348 431/1/349 421/1/350 420/1/351
f 365/1/334 381/1/352 380/1/353 364/1/335
f 359/1/336 375/1/354 374/1/355 358/1/337
f 353/1/333 369/1/332 384/1/356 368/1/340
f 364/1/335 380/1/353 379/1/357 363/1/338
f 358/1/337 374/1/355 373/1/358 357/1/339
f 368/1/340 384/1/356 383/1/359 367/1/341
f 363/1/338 379/1/357 378/1/360 362/1/342
f 357/1/339 373/1/358 372/1/361 356/1/343
f 367/1/341 383/1/359 382/1/362 366/1/344
f 356/1/343 372/1/361 371/1/363 355/1/346
f 362/1/342 378/1/360 377/1/364 361/1/345
f 366/1/344 382/1/362 381/1/352 365/1/334
f 355/1/346 371/1/363 370/1/331 354/1/330
f 361/1/345 377/1/364 376/1/365 360/1/347
f 360/1/347 376/1/365 375/1/354 359/1/336
f 381/1/352 382/1/362 398/1/366 397/1/367
f 370/1/331 371/1/363 387/1/368 386/1/369
f 375/1/354 376/1/365 392/1/370 391/1/371
f 380/1/353 381/1/352 397/1/367 396/1/372
f 369/1/332 370/1/331 386/1/369 385/1/373
f 374/1/355 375/1/354 391/1/371 390/1/374
f 384/1/356 369/1/332 385/1/373 400/1/375
f 379/1/357 380/1/353 396/1/372 395/1/376
f 373/1/358 374/1/355 390/1/374 389/1/377
f 383/1/359 384/1/356 400/1/375 399/1/378
f 378/1/360 379/1/357 395/1/376 394/1/379
f 372/1/361 373/1/358 389/1/377 388/1/380
f 382/1/362 383/1/359 399/1/378 398/1/366
f 377/1/364 378/1/360 394/1/379 393/1/381
f 371/1/363 372/1/361 388/1/380 387/1/368
f 376/1/365 377/1/364 393/1/381 392/1/370
f 398/1/366 399/1/378 405/1/348 422/1/382
f 389/1/377 390/1/374 430/1/383 432/1/384
f 393/1/381 394/1/379 403/1/385 402/1/386
f 387/1/368 388/1/380 401/1/387 423/1/388
f 401/1/387 432/1/384 410/1/389 409/1/390
f 397/1/367 398/1/366 422/1/382 424/1/391
f 394/1/379 395/1/376 404/1/392 403/1/385
f 405/1/348 420/1/351 419/1/393 422/1/382
f 427/1/394 424/1/391 418/1/395 417/1/396
f 402/1/386 403/1/385 415/1/397 414/1/398
f 424/1/391 422/1/382 419/1/393 418/1/395
f 425/1/399 423/1/388 408/1/400 407/1/401
f 404/1/392 427/1/394 417/1/396 416/1/402
f 426/1/403 402/1/386 414/1/398 413/1/404
f 428/1/405 425/1/399 407/1/401 406/1/406
f 431/1/349 428/1/405 406/1/406 421/1/350
f 429/1/407 426/1/403 413/1/404 412/1/408
f 430/1/383 429/1/407 412/1/408 411/1/409
f 403/1/385 404/1/392 416/1/402 415/1/397
f 463/1/410 434/1/411 445/1/376 444/1/412
f 432/1/384 430/1/383 411/1/409 410/1/389
f 421/1/350 406/1/406 433/1/413 442/1/414
f 401/1/387 409/1/390 408/1/400 423/1/388
f 410/1/389 411/1/409 460/1/415 436/1/416
f 420/1/351 421/1/350 442/1/414 441/1/417
f 413/1/404 414/1/398 438/1/418 437/1/419
f 418/1/395 419/1/393 461/1/420 464/1/421
f 433/1/413 463/1/410 444/1/412 443/1/381
f 437/1/419 438/1/418 451/1/373 450/1/422
f 462/1/423 440/1/424 454/1/425 453/1/368
f 440/1/424 464/1/421 455/1/377 454/1/425
f 460/1/415 459/1/426 449/1/378 448/1/427
f 439/1/428 462/1/423 453/1/368 452/1/429
f 459/1/426 437/1/419 450/1/422 449/1/378
f 436/1/416 460/1/415 448/1/427 447/1/367
f 438/1/418 439/1/428 452/1/429 451/1/373
f 442/1/414 433/1/413 443/1/381 458/1/430
f 435/1/431 436/1/416 447/1/367 446/1/432
f 461/1/420 441/1/417 457/1/371 456/1/433
f 434/1/411 435/1/431 446/1/432 445/1/376
f 441/1/417 442/1/414 458/1/430 457/1/371
f 464/1/421 461/1/420 456/1/433 455/1/377
f 251/1/232 252/1/228 268/1/252 267/1/247
f 444/1/412 445/1/376 446/1/432 447/1/367 448/1/427 449/1/378 450/1/422 451/1/373 452/1/429 453/1/368 454/1/425 455/1/377 456/1/433 457/1/371 458/1/430 443/1/381
f 81/1/91 82/1/72 69/1/61 68/1/67
f 70/1/55 85/1/79 86/1/88 71/1/69
f 91/1/94 76/1/74 65/1/68 75/1/51
f 80/1/97 81/1/91 68/1/67 93/1/53
f 202/1/188 179/1/202 164/1/167 163/1/157
f 90/1/99 91/1/94 75/1/51 74/1/50
f 79/1/101 80/1/97 93/1/53 67/1/52
f 89/1/71 90/1/99 74/1/50 73/1/56
f 78/1/82 79/1/101 67/1/52 66/1/57
f 87/1/85 88/1/70 72/1/59 92/1/66
f 77/1/75 78/1/82 66/1/57 95/1/60
f 71/1/69 86/1/88 87/1/85 92/1/66
f 168/1/159 205/1/190 203/1/182 169/1/168
f 204/1/172 182/1/169 174/1/155 173/1/154
f 202/1/188 163/1/157 162/1/156 178/1/185
f 167/1/158 181/1/195 205/1/190 168/1/159
f 177/1/192 178/1/185 162/1/156 161/1/161
f 166/1/162 180/1/174 181/1/195 167/1/158
f 176/1/163 184/1/175 177/1/192 161/1/161
f 207/1/177 206/1/171 172/1/160 171/1/62
f 164/1/167 179/1/202 208/1/173 165/1/164
f 203/1/182 201/1/176 170/1/166 169/1/168
f 234/1/206 209/1/211 185/1/193 200/1/194
f 179/1/202 188/1/201 189/1/198 208/1/173
f 210/1/63 211/1/219 188/1/201 187/1/187
f 193/1/183 236/1/214 237/1/199 194/1/184
f 211/1/219 212/1/203 189/1/198 188/1/201
f 192/1/191 214/1/212 236/1/214 193/1/183
f 239/1/64 210/1/63 187/1/187 186/1/186
f 238/1/209 196/1/181 195/1/189 215/1/200
f 209/1/211 239/1/64 186/1/186 185/1/193
f 292/1/270 304/1/287 303/1/312 315/1/271
f 293/1/278 294/1/276 307/1/294 306/1/288
f 298/1/269 314/1/290 313/1/291 316/1/274
f 291/1/275 315/1/271 303/1/312 302/1/315
f 290/1/257 291/1/275 302/1/315 301/1/289
f 297/1/279 318/1/277 312/1/292 311/1/297
f 392/1/370 393/1/381 402/1/386 426/1/403
f 289/1/258 300/1/281 299/1/284 319/1/268
f 296/1/285 297/1/279 311/1/297 310/1/302
f 317/1/273 295/1/272 309/1/307 308/1/293
f 295/1/272 296/1/285 310/1/302 309/1/307
f 391/1/371 392/1/370 426/1/403 429/1/407
f 386/1/369 387/1/368 423/1/388 425/1/399
f 396/1/372 397/1/367 424/1/391 427/1/394
f 385/1/373 386/1/369 425/1/399 428/1/405
f 400/1/375 385/1/373 428/1/405 431/1/349
f 390/1/374 391/1/371 429/1/407 430/1/383
f 388/1/380 389/1/377 432/1/384 401/1/387
f 395/1/376 396/1/372 427/1/394 404/1/392
f 399/1/378 400/1/375 431/1/349 405/1/348
f 415/1/397 416/1/402 462/1/423 439/1/428
f 414/1/398 415/1/397 439/1/428 438/1/418
f 409/1/390 410/1/389 436/1/416 435/1/431
f 419/1/393 420/1/351 441/1/417 461/1/420
f 408/1/400 409/1/390 435/1/431 434/1/411
f 407/1/401 408/1/400 434/1/411 463/1/410
f 406/1/406 407/1/401 463/1/410 433/1/413
f 412/1/408 413/1/404 437/1/419 459/1/426
f 417/1/396 418/1/395 464/1/421 440/1/424
f 411/1/409 412/1/408 459/1/426 460/1/415
f 416/1/402 417/1/396 440/1/424 462/1/423
f 49/1/43 50/1/36 34/1/30 33/1/7
f 27/1/13 43/1/12 44/1/32 28/1/33
f 97/1/93 113/1/103 114/1/115 98/1/80
f 274/1/119 289/1/258 319/1/268 273/1/120
