# Blender v2.73 (sub 0) OBJ File: ''
# www.blender.org
mtllib rueda.mtl
o Cylinder
v 0.000000 -0.246787 -1.000000
v 0.000000 0.246787 -1.000000
v 0.195090 0.246787 -0.980785
v 0.195090 -0.246787 -0.980785
v 0.382683 -0.246787 -0.923880
v 0.555570 -0.246787 -0.831470
v 0.707107 -0.246787 -0.707107
v 0.831470 -0.246787 -0.555570
v 0.923880 -0.246787 -0.382683
v 0.980785 -0.246787 -0.195090
v 1.000000 -0.246787 -0.000000
v 0.980785 -0.246787 0.195090
v 0.923880 -0.246787 0.382683
v 0.831470 -0.246787 0.555570
v 0.322713 -0.246787 0.177287
v 0.677287 -0.246787 0.177287
v 0.677287 -0.246787 -0.177287
v 0.322713 -0.246787 -0.177287
v 0.177287 -0.246787 -0.402952
v 0.177287 -0.246787 -0.677287
v 0.000496 -0.246787 -0.677287
v -0.195089 -0.246787 -0.980786
v -0.195089 0.246787 -0.980786
v -0.177287 0.246787 -0.322713
v -0.177287 0.246787 -0.677287
v 0.177287 0.246787 -0.677287
v 0.177287 0.246787 -0.322713
v -0.382682 0.246787 -0.923880
v -0.555569 0.246787 -0.831470
v 0.382683 0.246787 -0.923880
v 0.555570 0.246787 -0.831470
v 0.707107 0.246787 -0.707107
v 0.831470 0.246787 -0.555570
v 0.923880 0.246787 -0.382683
v 0.980785 0.246787 -0.195090
v 1.000000 0.246787 -0.000000
v 0.980785 0.246787 0.195090
v 0.923880 0.246787 0.382683
v 0.831470 0.246787 0.555570
v 0.707107 -0.246787 0.707107
v 0.555570 -0.246787 0.831470
v 0.382683 -0.246787 0.923880
v 0.195090 -0.246787 0.980785
v -0.000000 -0.246787 1.000000
v -0.195091 -0.246787 0.980785
v -0.177287 -0.246787 0.677287
v 0.177287 -0.246787 0.677287
v 0.177287 -0.246787 0.322713
v -0.322713 -0.246787 0.177287
v -0.322713 -0.246787 -0.177287
v -0.177287 -0.246787 -0.322713
v 0.177287 -0.246787 -0.322713
v -0.677287 -0.246787 0.177287
v -0.177287 -0.246787 0.322713
v -0.382684 -0.246787 0.923879
v -0.555571 -0.246787 0.831469
v -0.707107 -0.246787 0.707106
v -0.831470 -0.246787 0.555570
v -0.923880 -0.246787 0.382683
v -0.980785 -0.246787 0.195089
v 0.322713 0.246787 0.177287
v 0.677287 0.246787 0.177287
v 0.677287 0.246787 -0.177287
v 0.322713 0.246787 -0.177287
v -0.177287 -0.246787 -0.677287
v -1.000000 -0.246787 -0.000001
v -0.980785 -0.246787 -0.195091
v -0.923879 -0.246787 -0.382684
v -0.831469 -0.246787 -0.555571
v -0.707106 -0.246787 -0.707108
v -0.555569 -0.246787 -0.831470
v -0.382682 -0.246787 -0.923880
v -0.677287 -0.246787 -0.177287
v -0.677287 0.246787 0.177287
v -0.677287 0.246787 -0.177287
v -0.322713 0.246787 -0.177287
v -0.707106 0.246787 -0.707108
v -0.831469 0.246787 -0.555571
v -0.923879 0.246787 -0.382684
v -0.980785 0.246787 -0.195091
v -1.000000 0.246787 -0.000001
v -0.980785 0.246787 0.195089
v 0.707107 0.246787 0.707107
v -0.322713 0.246787 0.177287
v 0.555570 0.246787 0.831470
v 0.382683 0.246787 0.923880
v 0.195090 0.246787 0.980785
v -0.000000 0.246787 1.000000
v -0.195091 0.246787 0.980785
v -0.382684 0.246787 0.923879
v -0.555571 0.246787 0.831469
v -0.707107 0.246787 0.707106
v -0.831470 0.246787 0.555570
v -0.923880 0.246787 0.382683
v -0.177287 0.246787 0.677287
v -0.177287 0.246787 0.322713
v 0.177287 0.246787 0.322713
v 0.177287 0.246787 0.677287
usemtl None
s off
f 1 2 3 4
f 1 4 5 6 7 8 9 10 11 12 13 14 15 16 17 18 19 20 21 22
f 22 23 2 1
f 24 25 26 27 3 2 23 28 29
f 4 3 30 5
f 5 30 31 6
f 6 31 32 7
f 7 32 33 8
f 8 33 34 9
f 9 34 35 10
f 10 35 36 11
f 11 36 37 12
f 12 37 38 13
f 13 38 39 14
f 14 40 41 42 43 44 45 46 47 48 49 50 51 52 19 18 15
f 53 49 48 54 46 45 55 56 57 58 59 60
f 61 62 16 15
f 62 63 17 16
f 63 64 18 17
f 27 26 20 19 52
f 26 25 65 21 20
f 53 60 66 67 68 69 70 71 72 22 21 65 51 50 73
f 72 28 23 22
f 74 75 76 64 3 27 24 29 77 78 79 80 81 82
f 25 24 51 65
f 71 29 28 72
f 3 64 63 62 61 39 38 37 36 35 34 33 32 31 30
f 14 39 83 40
f 74 84 49 53
f 84 76 50 49
f 24 27 52 51
f 64 61 15 18
f 40 83 85 41
f 41 85 86 42
f 42 86 87 43
f 43 87 88 44
f 44 88 89 45
f 45 89 90 55
f 55 90 91 56
f 56 91 92 57
f 57 92 93 58
f 58 93 94 59
f 59 94 82 60
f 75 74 53 73
f 60 82 81 66
f 66 81 80 67
f 67 80 79 68
f 68 79 78 69
f 69 78 77 70
f 70 77 29 71
f 76 75 73 50
f 61 64 76 84 74 82 94 93 92 91 90 89 95 96
f 39 61 96 97 98 95 89 88 87 86 85 83
f 96 95 46 54
f 97 96 54 48
f 95 98 47 46
f 98 97 48 47
