# Blender v2.75 (sub 0) OBJ File: ''
# www.blender.org
mtllib text_cocha.mtl
o Text_Textdafd
v 1.259547 -0.036000 0.156000
v 1.141853 -0.036000 0.156000
v 1.453520 0.732319 0.156000
v 1.764201 -0.036000 0.156000
v 1.646571 -0.036000 0.156000
v 1.564057 0.166608 0.156000
v 1.342060 0.166608 0.156000
v 1.386055 0.275372 0.156000
v 1.520198 0.275372 0.156000
v 1.453354 0.440890 0.156000
v 0.945832 0.651994 0.156000
v 1.057047 0.651994 0.156000
v 1.057047 -0.036000 0.156000
v 0.945832 -0.036000 0.156000
v 0.945832 0.281800 0.156000
v 0.643661 0.281800 0.156000
v 0.643661 -0.036000 0.156000
v 0.532446 -0.036000 0.156000
v 0.532446 0.651994 0.156000
v 0.643661 0.651994 0.156000
v 0.643661 0.390564 0.156000
v 0.945832 0.390564 0.156000
v 0.151088 0.543990 0.156000
v -0.094135 0.295907 0.156000
v -0.026982 0.140990 0.156000
v 0.142970 0.067953 0.156000
v 0.386071 0.178453 0.156000
v 0.386071 0.043666 0.156000
v 0.136153 -0.049929 0.156000
v -0.227397 0.307146 0.156000
v 0.137216 0.666207 0.156000
v 0.386071 0.568656 0.156000
v 0.386071 0.433464 0.156000
v -0.658312 -0.058822 0.156000
v -1.028922 0.307997 0.156000
v -0.658312 0.674815 0.156000
v -0.287703 0.307997 0.156000
v -0.658312 0.079431 0.156000
v -0.429079 0.307997 0.156000
v -0.658312 0.536562 0.156000
v -0.887546 0.307997 0.156000
v -1.358342 0.543990 0.156000
v -1.603565 0.295907 0.156000
v -1.536412 0.140990 0.156000
v -1.366460 0.067953 0.156000
v -1.123359 0.178453 0.156000
v -1.123359 0.043666 0.156000
v -1.373277 -0.049929 0.156000
v -1.736827 0.307146 0.156000
v -1.372214 0.666207 0.156000
v -1.123359 0.568656 0.156000
v -1.123359 0.433464 0.156000
v 1.259547 -0.036000 -0.156000
v 1.141853 -0.036000 -0.156000
v 1.453520 0.732319 -0.156000
v 1.764201 -0.036000 -0.156000
v 1.646571 -0.036000 -0.156000
v 1.564057 0.166608 -0.156000
v 1.342060 0.166608 -0.156000
v 1.386055 0.275372 -0.156000
v 1.520198 0.275372 -0.156000
v 1.453354 0.440890 -0.156000
v 0.945832 0.651994 -0.156000
v 1.057047 0.651994 -0.156000
v 1.057047 -0.036000 -0.156000
v 0.945832 -0.036000 -0.156000
v 0.945832 0.281800 -0.156000
v 0.643661 0.281800 -0.156000
v 0.643661 -0.036000 -0.156000
v 0.532446 -0.036000 -0.156000
v 0.532446 0.651994 -0.156000
v 0.643661 0.651994 -0.156000
v 0.643661 0.390564 -0.156000
v 0.945832 0.390564 -0.156000
v 0.151088 0.543990 -0.156000
v -0.094135 0.295907 -0.156000
v -0.026982 0.140990 -0.156000
v 0.142970 0.067953 -0.156000
v 0.386071 0.178453 -0.156000
v 0.386071 0.043666 -0.156000
v 0.136153 -0.049929 -0.156000
v -0.227397 0.307146 -0.156000
v 0.137216 0.666207 -0.156000
v 0.386071 0.568656 -0.156000
v 0.386071 0.433464 -0.156000
v -0.658312 -0.058822 -0.156000
v -1.028922 0.307997 -0.156000
v -0.658312 0.674815 -0.156000
v -0.287703 0.307997 -0.156000
v -0.658312 0.079431 -0.156000
v -0.429079 0.307997 -0.156000
v -0.658312 0.536562 -0.156000
v -0.887546 0.307997 -0.156000
v -1.358342 0.543990 -0.156000
v -1.603565 0.295907 -0.156000
v -1.536412 0.140990 -0.156000
v -1.366460 0.067953 -0.156000
v -1.123359 0.178453 -0.156000
v -1.123359 0.043666 -0.156000
v -1.373277 -0.049929 -0.156000
v -1.736827 0.307146 -0.156000
v -1.372214 0.666207 -0.156000
v -1.123359 0.568656 -0.156000
v -1.123359 0.433464 -0.156000
v -1.358342 0.543990 -0.156000
v -1.352774 0.512639 -0.130000
v -1.603565 0.295907 -0.156000
v -1.572721 0.290126 -0.130000
v -1.536412 0.140990 -0.156000
v -1.516662 0.160802 -0.130000
v -1.366460 0.067953 -0.156000
v -1.366755 0.096379 -0.130000
v -1.123359 0.178453 -0.156000
v -1.097359 0.218831 -0.130000
v -1.123359 0.043666 -0.156000
v -1.097359 0.025639 -0.130000
v -1.373277 -0.049929 -0.156000
v -1.379675 -0.080089 -0.130000
v -1.736827 0.307146 -0.156000
v -1.773907 0.307122 -0.130000
v -1.372214 0.666207 -0.156000
v -1.378435 0.696572 -0.130000
v -1.123359 0.568656 -0.156000
v -1.097359 0.586390 -0.130000
v -1.123359 0.433464 -0.156000
v -1.097359 0.392503 -0.130000
v -1.352774 0.512639 -0.130000
v -1.352774 0.512639 0.130000
v -1.572721 0.290126 -0.130000
v -1.572721 0.290126 0.130000
v -1.516662 0.160802 -0.130000
v -1.516662 0.160802 0.130000
v -1.366755 0.096379 -0.130000
v -1.366755 0.096379 0.130000
v -1.097359 0.218831 -0.130000
v -1.097359 0.218831 0.130000
v -1.097359 0.025639 -0.130000
v -1.097359 0.025639 0.130000
v -1.379675 -0.080089 -0.130000
v -1.379675 -0.080089 0.130000
v -1.773907 0.307122 -0.130000
v -1.773907 0.307122 0.130000
v -1.378435 0.696572 -0.130000
v -1.378435 0.696572 0.130000
v -1.097359 0.586390 -0.130000
v -1.097359 0.586390 0.130000
v -1.097359 0.392503 -0.130000
v -1.097359 0.392503 0.130000
v -1.352774 0.512639 0.130000
v -1.358342 0.543990 0.156000
v -1.572721 0.290126 0.130000
v -1.603565 0.295907 0.156000
v -1.516662 0.160802 0.130000
v -1.536412 0.140990 0.156000
v -1.366755 0.096379 0.130000
v -1.366460 0.067953 0.156000
v -1.097359 0.218831 0.130000
v -1.123359 0.178453 0.156000
v -1.097359 0.025639 0.130000
v -1.123359 0.043666 0.156000
v -1.379675 -0.080089 0.130000
v -1.373277 -0.049929 0.156000
v -1.773907 0.307122 0.130000
v -1.736827 0.307146 0.156000
v -1.378435 0.696572 0.130000
v -1.372214 0.666207 0.156000
v -1.097359 0.586390 0.130000
v -1.123359 0.568656 0.156000
v -1.097359 0.392503 0.130000
v -1.123359 0.433464 0.156000
v -0.658312 -0.058822 -0.156000
v -0.658312 -0.095404 -0.130000
v -1.028922 0.307997 -0.156000
v -1.065882 0.307997 -0.130000
v -0.658312 0.674815 -0.156000
v -0.658312 0.711397 -0.130000
v -0.287703 0.307997 -0.156000
v -0.250742 0.307997 -0.130000
v -0.658312 -0.095404 -0.130000
v -0.658312 -0.095404 0.130000
v -1.065882 0.307997 -0.130000
v -1.065882 0.307997 0.130000
v -0.658312 0.711397 -0.130000
v -0.658312 0.711397 0.130000
v -0.250742 0.307997 -0.130000
v -0.250742 0.307997 0.130000
v -0.658312 -0.095404 0.130000
v -0.658312 -0.058822 0.156000
v -1.065882 0.307997 0.130000
v -1.028922 0.307997 0.156000
v -0.658312 0.711397 0.130000
v -0.658312 0.674815 0.156000
v -0.250742 0.307997 0.130000
v -0.287703 0.307997 0.156000
v -0.658312 0.079431 -0.156000
v -0.658312 0.116147 -0.130000
v -0.429079 0.307997 -0.156000
v -0.465902 0.307997 -0.130000
v -0.658312 0.536562 -0.156000
v -0.658312 0.499846 -0.130000
v -0.887546 0.307997 -0.156000
v -0.850723 0.307997 -0.130000
v -0.658312 0.116147 -0.130000
v -0.658312 0.116147 0.130000
v -0.465902 0.307997 -0.130000
v -0.465902 0.307997 0.130000
v -0.658312 0.499846 -0.130000
v -0.658312 0.499846 0.130000
v -0.850723 0.307997 -0.130000
v -0.850723 0.307997 0.130000
v -0.658312 0.116147 0.130000
v -0.658312 0.079431 0.156000
v -0.465902 0.307997 0.130000
v -0.429079 0.307997 0.156000
v -0.658312 0.499846 0.130000
v -0.658312 0.536562 0.156000
v -0.850723 0.307997 0.130000
v -0.887546 0.307997 0.156000
v 0.151088 0.543990 -0.156000
v 0.156656 0.512639 -0.130000
v -0.094135 0.295907 -0.156000
v -0.063292 0.290126 -0.130000
v -0.026982 0.140990 -0.156000
v -0.007233 0.160802 -0.130000
v 0.142970 0.067953 -0.156000
v 0.142675 0.096379 -0.130000
v 0.386071 0.178453 -0.156000
v 0.412071 0.218831 -0.130000
v 0.386071 0.043666 -0.156000
v 0.412071 0.025639 -0.130000
v 0.136153 -0.049929 -0.156000
v 0.129755 -0.080089 -0.130000
v -0.227397 0.307146 -0.156000
v -0.264477 0.307122 -0.130000
v 0.137216 0.666207 -0.156000
v 0.130995 0.696572 -0.130000
v 0.386071 0.568656 -0.156000
v 0.412071 0.586390 -0.130000
v 0.386071 0.433464 -0.156000
v 0.412071 0.392503 -0.130000
v 0.156656 0.512639 -0.130000
v 0.156656 0.512639 0.130000
v -0.063292 0.290126 -0.130000
v -0.063292 0.290126 0.130000
v -0.007233 0.160802 -0.130000
v -0.007233 0.160802 0.130000
v 0.142675 0.096379 -0.130000
v 0.142675 0.096379 0.130000
v 0.412071 0.218831 -0.130000
v 0.412071 0.218831 0.130000
v 0.412071 0.025639 -0.130000
v 0.412071 0.025639 0.130000
v 0.129755 -0.080089 -0.130000
v 0.129755 -0.080089 0.130000
v -0.264477 0.307122 -0.130000
v -0.264477 0.307122 0.130000
v 0.130995 0.696572 -0.130000
v 0.130995 0.696572 0.130000
v 0.412071 0.586390 -0.130000
v 0.412071 0.586390 0.130000
v 0.412071 0.392503 -0.130000
v 0.412071 0.392503 0.130000
v 0.156656 0.512639 0.130000
v 0.151088 0.543990 0.156000
v -0.063292 0.290126 0.130000
v -0.094135 0.295907 0.156000
v -0.007233 0.160802 0.130000
v -0.026982 0.140990 0.156000
v 0.142675 0.096379 0.130000
v 0.142970 0.067953 0.156000
v 0.412071 0.218831 0.130000
v 0.386071 0.178453 0.156000
v 0.412071 0.025639 0.130000
v 0.386071 0.043666 0.156000
v 0.129755 -0.080089 0.130000
v 0.136153 -0.049929 0.156000
v -0.264477 0.307122 0.130000
v -0.227397 0.307146 0.156000
v 0.130995 0.696572 0.130000
v 0.137216 0.666207 0.156000
v 0.412071 0.586390 0.130000
v 0.386071 0.568656 0.156000
v 0.412071 0.392503 0.130000
v 0.386071 0.433464 0.156000
v 0.945832 0.651994 -0.156000
v 0.919832 0.677994 -0.130000
v 1.057047 0.651994 -0.156000
v 1.083047 0.677994 -0.130000
v 1.057047 -0.036000 -0.156000
v 1.083047 -0.062000 -0.130000
v 0.945832 -0.036000 -0.156000
v 0.919832 -0.062000 -0.130000
v 0.945832 0.281800 -0.156000
v 0.919832 0.255800 -0.130000
v 0.643661 0.281800 -0.156000
v 0.669661 0.255800 -0.130000
v 0.643661 -0.036000 -0.156000
v 0.669661 -0.062000 -0.130000
v 0.532446 -0.036000 -0.156000
v 0.506446 -0.062000 -0.130000
v 0.532446 0.651994 -0.156000
v 0.506446 0.677994 -0.130000
v 0.643661 0.651994 -0.156000
v 0.669661 0.677994 -0.130000
v 0.643661 0.390564 -0.156000
v 0.669661 0.416564 -0.130000
v 0.945832 0.390564 -0.156000
v 0.919832 0.416564 -0.130000
v 0.919832 0.677994 -0.130000
v 0.919832 0.677994 0.130000
v 1.083047 0.677994 -0.130000
v 1.083047 0.677994 0.130000
v 1.083047 -0.062000 -0.130000
v 1.083047 -0.062000 0.130000
v 0.919832 -0.062000 -0.130000
v 0.919832 -0.062000 0.130000
v 0.919832 0.255800 -0.130000
v 0.919832 0.255800 0.130000
v 0.669661 0.255800 -0.130000
v 0.669661 0.255800 0.130000
v 0.669661 -0.062000 -0.130000
v 0.669661 -0.062000 0.130000
v 0.506446 -0.062000 -0.130000
v 0.506446 -0.062000 0.130000
v 0.506446 0.677994 -0.130000
v 0.506446 0.677994 0.130000
v 0.669661 0.677994 -0.130000
v 0.669661 0.677994 0.130000
v 0.669661 0.416564 -0.130000
v 0.669661 0.416564 0.130000
v 0.919832 0.416564 -0.130000
v 0.919832 0.416564 0.130000
v 0.919832 0.677994 0.130000
v 0.945832 0.651994 0.156000
v 1.083047 0.677994 0.130000
v 1.057047 0.651994 0.156000
v 1.083047 -0.062000 0.130000
v 1.057047 -0.036000 0.156000
v 0.919832 -0.062000 0.130000
v 0.945832 -0.036000 0.156000
v 0.919832 0.255800 0.130000
v 0.945832 0.281800 0.156000
v 0.669661 0.255800 0.130000
v 0.643661 0.281800 0.156000
v 0.669661 -0.062000 0.130000
v 0.643661 -0.036000 0.156000
v 0.506446 -0.062000 0.130000
v 0.532446 -0.036000 0.156000
v 0.506446 0.677994 0.130000
v 0.532446 0.651994 0.156000
v 0.669661 0.677994 0.130000
v 0.643661 0.651994 0.156000
v 0.669661 0.416564 0.130000
v 0.643661 0.390564 0.156000
v 0.919832 0.416564 0.130000
v 0.945832 0.390564 0.156000
v 1.259547 -0.036000 -0.156000
v 1.277031 -0.062000 -0.130000
v 1.141853 -0.036000 -0.156000
v 1.103248 -0.062000 -0.130000
v 1.453520 0.732319 -0.156000
v 1.453559 0.801581 -0.130000
v 1.764201 -0.036000 -0.156000
v 1.802760 -0.062000 -0.130000
v 1.646571 -0.036000 -0.156000
v 1.629086 -0.062000 -0.130000
v 1.564057 0.166608 -0.156000
v 1.546573 0.140608 -0.130000
v 1.342060 0.166608 -0.156000
v 1.359545 0.140608 -0.130000
v 1.277031 -0.062000 -0.130000
v 1.277031 -0.062000 0.130000
v 1.103248 -0.062000 -0.130000
v 1.103248 -0.062000 0.130000
v 1.453559 0.801581 -0.130000
v 1.453559 0.801581 0.130000
v 1.802760 -0.062000 -0.130000
v 1.802760 -0.062000 0.130000
v 1.629086 -0.062000 -0.130000
v 1.629086 -0.062000 0.130000
v 1.546573 0.140608 -0.130000
v 1.546573 0.140608 0.130000
v 1.359545 0.140608 -0.130000
v 1.359545 0.140608 0.130000
v 1.277031 -0.062000 0.130000
v 1.259547 -0.036000 0.156000
v 1.103248 -0.062000 0.130000
v 1.141853 -0.036000 0.156000
v 1.453559 0.801581 0.130000
v 1.453520 0.732319 0.156000
v 1.802760 -0.062000 0.130000
v 1.764201 -0.036000 0.156000
v 1.629086 -0.062000 0.130000
v 1.646571 -0.036000 0.156000
v 1.546573 0.140608 0.130000
v 1.564057 0.166608 0.156000
v 1.359545 0.140608 0.130000
v 1.342060 0.166608 0.156000
v 1.386055 0.275372 -0.156000
v 1.424694 0.301372 -0.130000
v 1.520198 0.275372 -0.156000
v 1.481658 0.301372 -0.130000
v 1.453354 0.440890 -0.156000
v 1.453273 0.371660 -0.130000
v 1.424694 0.301372 -0.130000
v 1.424694 0.301372 0.130000
v 1.481658 0.301372 -0.130000
v 1.481658 0.301372 0.130000
v 1.453273 0.371660 -0.130000
v 1.453273 0.371660 0.130000
v 1.424694 0.301372 0.130000
v 1.386055 0.275372 0.156000
v 1.481658 0.301372 0.130000
v 1.520198 0.275372 0.156000
v 1.453273 0.371660 0.130000
v 1.453354 0.440890 0.156000
vn -0.000000 0.000000 1.000000
vn 0.000000 -0.000000 -1.000000
vn 0.110600 -0.622700 -0.774600
vn 0.627100 -0.117500 -0.770000
vn 0.480600 0.482100 -0.732500
vn -0.007000 0.674900 -0.737900
vn 0.257700 0.400300 -0.879400
vn 0.521700 -0.361700 -0.772600
vn -0.133800 -0.630600 -0.764400
vn -0.574100 -0.000400 -0.818800
vn -0.129000 0.629600 -0.766100
vn 0.526100 0.358900 -0.770900
vn 0.253100 -0.398800 -0.881400
vn 0.174800 -0.984600 0.000000
vn 0.982900 -0.184200 0.000000
vn 0.706000 0.708200 0.000000
vn -0.010300 0.999900 0.000000
vn 0.541400 0.840800 0.000000
vn 0.821800 -0.569800 0.000000
vn -0.207500 -0.978200 0.000000
vn -1.000000 -0.000600 0.000000
vn -0.200700 0.979600 0.000000
vn 0.826100 0.563500 0.000000
vn 0.535900 -0.844300 0.000000
vn 0.110600 -0.622700 0.774600
vn 0.627100 -0.117500 0.770000
vn 0.480600 0.482100 0.732500
vn -0.007000 0.674900 0.737900
vn 0.257700 0.400300 0.879400
vn 0.521700 -0.361700 0.772600
vn -0.133800 -0.630600 0.764400
vn -0.574100 -0.000400 0.818800
vn -0.129000 0.629600 0.766100
vn 0.526100 0.358900 0.770900
vn 0.253100 -0.398800 0.881400
vn 0.000000 -0.579300 -0.815100
vn -0.575300 0.000000 -0.817900
vn 0.000000 0.579300 -0.815100
vn 0.575300 0.000000 -0.817900
vn 0.000000 -1.000000 0.000000
vn -1.000000 0.000000 0.000000
vn 0.000000 1.000000 0.000000
vn 1.000000 0.000000 0.000000
vn 0.000000 -0.579300 0.815100
vn -0.575300 0.000000 0.817900
vn 0.000000 0.579300 0.815100
vn 0.575300 0.000000 0.817900
vn 0.000000 0.577900 -0.816100
vn -0.576800 0.000000 -0.816900
vn 0.000000 -0.577900 -0.816100
vn 0.576800 0.000000 -0.816900
vn 0.000000 0.577900 0.816100
vn -0.576800 0.000000 0.816900
vn 0.000000 -0.577900 0.816100
vn 0.576800 0.000000 0.816900
vn -0.408200 0.408200 -0.816500
vn 0.408200 0.408200 -0.816500
vn 0.408200 -0.408200 -0.816500
vn -0.408200 -0.408200 -0.816500
vn -0.707100 0.707100 0.000000
vn 0.707100 0.707100 0.000000
vn 0.707100 -0.707100 0.000000
vn -0.707100 -0.707100 0.000000
vn -0.408200 0.408200 0.816500
vn 0.408200 0.408200 0.816500
vn 0.408200 -0.408200 0.816500
vn -0.408200 -0.408200 0.816500
vn 0.356300 -0.529900 -0.769500
vn -0.404500 -0.272400 -0.873000
vn 0.000200 0.351400 -0.936200
vn 0.404600 -0.272800 -0.872800
vn -0.356300 -0.529900 -0.769500
vn 0.558000 -0.829800 0.000000
vn -0.829400 -0.558600 0.000000
vn 0.000500 1.000000 0.000000
vn 0.829100 -0.559100 0.000000
vn -0.558000 -0.829800 0.000000
vn 0.356300 -0.529900 0.769500
vn -0.404500 -0.272400 0.873000
vn 0.000200 0.351400 0.936200
vn 0.404600 -0.272800 0.872800
vn -0.356300 -0.529900 0.769500
vn 0.404400 0.272100 -0.873100
vn -0.404600 0.273000 -0.872800
vn -0.000400 -0.351600 -0.936200
vn 0.829600 0.558300 0.000000
vn -0.829000 0.559300 0.000000
vn -0.001200 -1.000000 0.000000
vn 0.404400 0.272100 0.873100
vn -0.404600 0.273000 0.872800
vn -0.000400 -0.351600 0.936200
usemtl None
s off
f 2//1 10//1 3//1
f 10//1 4//1 3//1
f 2//1 8//1 10//1
f 9//1 4//1 10//1
f 2//1 7//1 8//1
f 7//1 9//1 8//1
f 7//1 6//1 9//1
f 6//1 4//1 9//1
f 2//1 1//1 7//1
f 5//1 4//1 6//1
f 18//1 20//1 19//1
f 18//1 21//1 20//1
f 22//1 12//1 11//1
f 22//1 13//1 12//1
f 18//1 16//1 21//1
f 16//1 22//1 21//1
f 16//1 15//1 22//1
f 15//1 13//1 22//1
f 18//1 17//1 16//1
f 14//1 13//1 15//1
f 30//1 23//1 31//1
f 23//1 32//1 31//1
f 23//1 33//1 32//1
f 30//1 24//1 23//1
f 29//1 25//1 30//1
f 25//1 24//1 30//1
f 26//1 28//1 27//1
f 29//1 26//1 25//1
f 29//1 28//1 26//1
f 35//1 40//1 36//1
f 40//1 37//1 36//1
f 35//1 41//1 40//1
f 39//1 37//1 40//1
f 34//1 41//1 35//1
f 34//1 38//1 41//1
f 38//1 37//1 39//1
f 38//1 34//1 37//1
f 49//1 42//1 50//1
f 42//1 51//1 50//1
f 42//1 52//1 51//1
f 49//1 43//1 42//1
f 48//1 44//1 49//1
f 44//1 43//1 49//1
f 45//1 47//1 46//1
f 48//1 45//1 44//1
f 48//1 47//1 45//1
f 62//2 54//2 55//2
f 56//2 62//2 55//2
f 60//2 54//2 62//2
f 56//2 61//2 62//2
f 59//2 54//2 60//2
f 61//2 59//2 60//2
f 58//2 59//2 61//2
f 56//2 58//2 61//2
f 53//2 54//2 59//2
f 56//2 57//2 58//2
f 72//2 70//2 71//2
f 73//2 70//2 72//2
f 64//2 74//2 63//2
f 65//2 74//2 64//2
f 68//2 70//2 73//2
f 74//2 68//2 73//2
f 67//2 68//2 74//2
f 65//2 67//2 74//2
f 69//2 70//2 68//2
f 65//2 66//2 67//2
f 75//2 82//2 83//2
f 84//2 75//2 83//2
f 85//2 75//2 84//2
f 76//2 82//2 75//2
f 77//2 81//2 82//2
f 76//2 77//2 82//2
f 80//2 78//2 79//2
f 78//2 81//2 77//2
f 80//2 81//2 78//2
f 92//2 87//2 88//2
f 89//2 92//2 88//2
f 93//2 87//2 92//2
f 89//2 91//2 92//2
f 93//2 86//2 87//2
f 90//2 86//2 93//2
f 89//2 90//2 91//2
f 86//2 90//2 89//2
f 94//2 101//2 102//2
f 103//2 94//2 102//2
f 104//2 94//2 103//2
f 95//2 101//2 94//2
f 96//2 100//2 101//2
f 95//2 96//2 101//2
f 99//2 97//2 98//2
f 97//2 100//2 96//2
f 99//2 100//2 97//2
s 1
f 106//3 108//4 107//4 105//3
f 108//4 110//5 109//5 107//4
f 110//5 112//6 111//6 109//5
f 112//6 114//7 113//7 111//6
f 114//7 116//8 115//8 113//7
f 116//8 118//9 117//9 115//8
f 118//9 120//10 119//10 117//9
f 120//10 122//11 121//11 119//10
f 122//11 124//12 123//12 121//11
f 124//12 126//13 125//13 123//12
f 126//13 106//3 105//3 125//13
f 128//14 130//15 129//15 127//14
f 130//15 132//16 131//16 129//15
f 132//16 134//17 133//17 131//16
f 134//17 136//18 135//18 133//17
f 136//18 138//19 137//19 135//18
f 138//19 140//20 139//20 137//19
f 140//20 142//21 141//21 139//20
f 142//21 144//22 143//22 141//21
f 144//22 146//23 145//23 143//22
f 146//23 148//24 147//24 145//23
f 148//24 128//14 127//14 147//24
f 150//25 152//26 151//26 149//25
f 152//26 154//27 153//27 151//26
f 154//27 156//28 155//28 153//27
f 156//28 158//29 157//29 155//28
f 158//29 160//30 159//30 157//29
f 160//30 162//31 161//31 159//30
f 162//31 164//32 163//32 161//31
f 164//32 166//33 165//33 163//32
f 166//33 168//34 167//34 165//33
f 168//34 170//35 169//35 167//34
f 170//35 150//25 149//25 169//35
f 172//36 174//37 173//37 171//36
f 174//37 176//38 175//38 173//37
f 176//38 178//39 177//39 175//38
f 178//39 172//36 171//36 177//39
f 180//40 182//41 181//41 179//40
f 182//41 184//42 183//42 181//41
f 184//42 186//43 185//43 183//42
f 186//43 180//40 179//40 185//43
f 188//44 190//45 189//45 187//44
f 190//45 192//46 191//46 189//45
f 192//46 194//47 193//47 191//46
f 194//47 188//44 187//44 193//47
f 196//48 198//49 197//49 195//48
f 198//49 200//50 199//50 197//49
f 200//50 202//51 201//51 199//50
f 202//51 196//48 195//48 201//51
f 204//42 206//41 205//41 203//42
f 206//41 208//40 207//40 205//41
f 208//40 210//43 209//43 207//40
f 210//43 204//42 203//42 209//43
f 212//52 214//53 213//53 211//52
f 214//53 216//54 215//54 213//53
f 216//54 218//55 217//55 215//54
f 218//55 212//52 211//52 217//55
f 220//3 222//4 221//4 219//3
f 222//4 224//5 223//5 221//4
f 224//5 226//6 225//6 223//5
f 226//6 228//7 227//7 225//6
f 228//7 230//8 229//8 227//7
f 230//8 232//9 231//9 229//8
f 232//9 234//10 233//10 231//9
f 234//10 236//11 235//11 233//10
f 236//11 238//12 237//12 235//11
f 238//12 240//13 239//13 237//12
f 240//13 220//3 219//3 239//13
f 242//14 244//15 243//15 241//14
f 244//15 246//16 245//16 243//15
f 246//16 248//17 247//17 245//16
f 248//17 250//18 249//18 247//17
f 250//18 252//19 251//19 249//18
f 252//19 254//20 253//20 251//19
f 254//20 256//21 255//21 253//20
f 256//21 258//22 257//22 255//21
f 258//22 260//23 259//23 257//22
f 260//23 262//24 261//24 259//23
f 262//24 242//14 241//14 261//24
f 264//25 266//26 265//26 263//25
f 266//26 268//27 267//27 265//26
f 268//27 270//28 269//28 267//27
f 270//28 272//29 271//29 269//28
f 272//29 274//30 273//30 271//29
f 274//30 276//31 275//31 273//30
f 276//31 278//32 277//32 275//31
f 278//32 280//33 279//33 277//32
f 280//33 282//34 281//34 279//33
f 282//34 284//35 283//35 281//34
f 284//35 264//25 263//25 283//35
f 286//56 288//57 287//57 285//56
f 288//57 290//58 289//58 287//57
f 290//58 292//59 291//59 289//58
f 292//59 294//59 293//59 291//59
f 294//59 296//58 295//58 293//59
f 296//58 298//58 297//58 295//58
f 298//58 300//59 299//59 297//58
f 300//59 302//56 301//56 299//59
f 302//56 304//57 303//57 301//56
f 304//57 306//57 305//57 303//57
f 306//57 308//56 307//56 305//57
f 308//56 286//56 285//56 307//56
f 310//60 312//61 311//61 309//60
f 312//61 314//62 313//62 311//61
f 314//62 316//63 315//63 313//62
f 316//63 318//63 317//63 315//63
f 318//63 320//62 319//62 317//63
f 320//62 322//62 321//62 319//62
f 322//62 324//63 323//63 321//62
f 324//63 326//60 325//60 323//63
f 326//60 328//61 327//61 325//60
f 328//61 330//61 329//61 327//61
f 330//61 332//60 331//60 329//61
f 332//60 310//60 309//60 331//60
f 334//64 336//65 335//65 333//64
f 336//65 338//66 337//66 335//65
f 338//66 340//67 339//67 337//66
f 340//67 342//67 341//67 339//67
f 342//67 344//66 343//66 341//67
f 344//66 346//66 345//66 343//66
f 346//66 348//67 347//67 345//66
f 348//67 350//64 349//64 347//67
f 350//64 352//65 351//65 349//64
f 352//65 354//65 353//65 351//65
f 354//65 356//64 355//64 353//65
f 356//64 334//64 333//64 355//64
f 358//68 360//69 359//69 357//68
f 360//69 362//70 361//70 359//69
f 362//70 364//71 363//71 361//70
f 364//71 366//72 365//72 363//71
f 366//72 368//72 367//72 365//72
f 368//72 370//68 369//68 367//72
f 370//68 358//68 357//68 369//68
f 372//73 374//74 373//74 371//73
f 374//74 376//75 375//75 373//74
f 376//75 378//76 377//76 375//75
f 378//76 380//77 379//77 377//76
f 380//77 382//77 381//77 379//77
f 382//77 384//73 383//73 381//77
f 384//73 372//73 371//73 383//73
f 386//78 388//79 387//79 385//78
f 388//79 390//80 389//80 387//79
f 390//80 392//81 391//81 389//80
f 392//81 394//82 393//82 391//81
f 394//82 396//82 395//82 393//82
f 396//82 398//78 397//78 395//82
f 398//78 386//78 385//78 397//78
f 400//83 402//84 401//84 399//83
f 402//84 404//85 403//85 401//84
f 404//85 400//83 399//83 403//85
f 406//86 408//87 407//87 405//86
f 408//87 410//88 409//88 407//87
f 410//88 406//86 405//86 409//88
f 412//89 414//90 413//90 411//89
f 414//90 416//91 415//91 413//90
f 416//91 412//89 411//89 415//91
