# Blender v2.75 (sub 0) OBJ File: ''
# www.blender.org
mtllib text_uyuni.mtl
o Text_Textdafd
v 1.264286 -0.036000 0.156000
v 1.264286 0.651994 0.156000
v 1.375500 0.651994 0.156000
v 1.375500 -0.036000 0.156000
v 0.582797 0.438575 0.156000
v 0.582797 -0.036000 0.156000
v 0.471582 -0.036000 0.156000
v 0.471582 0.714492 0.156000
v 0.988723 0.168758 0.156000
v 0.988723 0.651994 0.156000
v 1.099937 0.651994 0.156000
v 1.099937 -0.111244 0.156000
v 0.312952 0.651994 0.156000
v 0.312952 0.227629 0.156000
v 0.265931 0.037701 0.156000
v 0.067808 -0.047346 0.156000
v -0.130315 0.037701 0.156000
v -0.177335 0.227629 0.156000
v -0.177335 0.651994 0.156000
v -0.066121 0.651994 0.156000
v -0.066121 0.247113 0.156000
v -0.038766 0.113844 0.156000
v 0.067808 0.067809 0.156000
v 0.174382 0.113844 0.156000
v 0.201738 0.247113 0.156000
v 0.201738 0.651994 0.156000
v -0.695192 0.651994 0.156000
v -0.534542 0.375559 0.156000
v -0.373892 0.651994 0.156000
v -0.247324 0.651994 0.156000
v -0.478935 0.253364 0.156000
v -0.478935 -0.036000 0.156000
v -0.590149 -0.036000 0.156000
v -0.590149 0.253364 0.156000
v -0.821760 0.651994 0.156000
v -0.890932 0.651994 0.156000
v -0.890932 0.227629 0.156000
v -0.937952 0.037701 0.156000
v -1.136075 -0.047346 0.156000
v -1.334198 0.037701 0.156000
v -1.381219 0.227629 0.156000
v -1.381219 0.651994 0.156000
v -1.270005 0.651994 0.156000
v -1.270005 0.247113 0.156000
v -1.242649 0.113844 0.156000
v -1.136075 0.067809 0.156000
v -1.029501 0.113844 0.156000
v -1.002146 0.247113 0.156000
v -1.002146 0.651994 0.156000
v 1.264286 -0.036000 -0.156000
v 1.264286 0.651994 -0.156000
v 1.375500 0.651994 -0.156000
v 1.375500 -0.036000 -0.156000
v 0.582797 0.438575 -0.156000
v 0.582797 -0.036000 -0.156000
v 0.471582 -0.036000 -0.156000
v 0.471582 0.714492 -0.156000
v 0.988723 0.168758 -0.156000
v 0.988723 0.651994 -0.156000
v 1.099937 0.651994 -0.156000
v 1.099937 -0.111244 -0.156000
v 0.312952 0.651994 -0.156000
v 0.312952 0.227629 -0.156000
v 0.265931 0.037701 -0.156000
v 0.067808 -0.047346 -0.156000
v -0.130315 0.037701 -0.156000
v -0.177335 0.227629 -0.156000
v -0.177335 0.651994 -0.156000
v -0.066121 0.651994 -0.156000
v -0.066121 0.247113 -0.156000
v -0.038766 0.113844 -0.156000
v 0.067808 0.067809 -0.156000
v 0.174382 0.113844 -0.156000
v 0.201738 0.247113 -0.156000
v 0.201738 0.651994 -0.156000
v -0.695192 0.651994 -0.156000
v -0.534542 0.375559 -0.156000
v -0.373892 0.651994 -0.156000
v -0.247324 0.651994 -0.156000
v -0.478935 0.253364 -0.156000
v -0.478935 -0.036000 -0.156000
v -0.590149 -0.036000 -0.156000
v -0.590149 0.253364 -0.156000
v -0.821760 0.651994 -0.156000
v -0.890932 0.651994 -0.156000
v -0.890932 0.227629 -0.156000
v -0.937952 0.037701 -0.156000
v -1.136075 -0.047346 -0.156000
v -1.334198 0.037701 -0.156000
v -1.381219 0.227629 -0.156000
v -1.381219 0.651994 -0.156000
v -1.270005 0.651994 -0.156000
v -1.270005 0.247113 -0.156000
v -1.242649 0.113844 -0.156000
v -1.136075 0.067809 -0.156000
v -1.029501 0.113844 -0.156000
v -1.002146 0.247113 -0.156000
v -1.002146 0.651994 -0.156000
v -0.890932 0.651994 -0.156000
v -0.864932 0.677994 -0.130000
v -0.890932 0.227629 -0.156000
v -0.864932 0.224458 -0.130000
v -0.937952 0.037701 -0.156000
v -0.915820 0.018908 -0.130000
v -1.136075 -0.047346 -0.156000
v -1.136075 -0.075641 -0.130000
v -1.334198 0.037701 -0.156000
v -1.356331 0.018908 -0.130000
v -1.381219 0.227629 -0.156000
v -1.407219 0.224458 -0.130000
v -1.381219 0.651994 -0.156000
v -1.407219 0.677994 -0.130000
v -1.270005 0.651994 -0.156000
v -1.244005 0.677994 -0.130000
v -1.270005 0.247113 -0.156000
v -1.244005 0.249754 -0.130000
v -1.242649 0.113844 -0.156000
v -1.219904 0.132341 -0.130000
v -1.136075 0.067809 -0.156000
v -1.136075 0.096131 -0.130000
v -1.029501 0.113844 -0.156000
v -1.052247 0.132341 -0.130000
v -1.002146 0.247113 -0.156000
v -1.028146 0.249754 -0.130000
v -1.002146 0.651994 -0.156000
v -1.028146 0.677994 -0.130000
v -0.864932 0.677994 -0.130000
v -0.864932 0.677994 0.130000
v -0.864932 0.224458 -0.130000
v -0.864932 0.224458 0.130000
v -0.915820 0.018908 -0.130000
v -0.915820 0.018908 0.130000
v -1.136075 -0.075641 -0.130000
v -1.136075 -0.075641 0.130000
v -1.356331 0.018908 -0.130000
v -1.356331 0.018908 0.130000
v -1.407219 0.224458 -0.130000
v -1.407219 0.224458 0.130000
v -1.407219 0.677994 -0.130000
v -1.407219 0.677994 0.130000
v -1.244005 0.677994 -0.130000
v -1.244005 0.677994 0.130000
v -1.244005 0.249754 -0.130000
v -1.244005 0.249754 0.130000
v -1.219904 0.132341 -0.130000
v -1.219904 0.132341 0.130000
v -1.136075 0.096131 -0.130000
v -1.136075 0.096131 0.130000
v -1.052247 0.132341 -0.130000
v -1.052247 0.132341 0.130000
v -1.028146 0.249754 -0.130000
v -1.028146 0.249754 0.130000
v -1.028146 0.677994 -0.130000
v -1.028146 0.677994 0.130000
v -0.864932 0.677994 0.130000
v -0.890932 0.651994 0.156000
v -0.864932 0.224458 0.130000
v -0.890932 0.227629 0.156000
v -0.915820 0.018908 0.130000
v -0.937952 0.037701 0.156000
v -1.136075 -0.075641 0.130000
v -1.136075 -0.047346 0.156000
v -1.356331 0.018908 0.130000
v -1.334198 0.037701 0.156000
v -1.407219 0.224458 0.130000
v -1.381219 0.227629 0.156000
v -1.407219 0.677994 0.130000
v -1.381219 0.651994 0.156000
v -1.244005 0.677994 0.130000
v -1.270005 0.651994 0.156000
v -1.244005 0.249754 0.130000
v -1.270005 0.247113 0.156000
v -1.219904 0.132341 0.130000
v -1.242649 0.113844 0.156000
v -1.136075 0.096131 0.130000
v -1.136075 0.067809 0.156000
v -1.052247 0.132341 0.130000
v -1.029501 0.113844 0.156000
v -1.028146 0.249754 0.130000
v -1.002146 0.247113 0.156000
v -1.028146 0.677994 0.130000
v -1.002146 0.651994 0.156000
v -0.695192 0.651994 -0.156000
v -0.680231 0.677994 -0.130000
v -0.534542 0.375559 -0.156000
v -0.534542 0.427304 -0.130000
v -0.373892 0.651994 -0.156000
v -0.388853 0.677994 -0.130000
v -0.247324 0.651994 -0.156000
v -0.202147 0.677994 -0.130000
v -0.478935 0.253364 -0.156000
v -0.452935 0.246359 -0.130000
v -0.478935 -0.036000 -0.156000
v -0.452935 -0.062000 -0.130000
v -0.590149 -0.036000 -0.156000
v -0.616149 -0.062000 -0.130000
v -0.590149 0.253364 -0.156000
v -0.616149 0.246359 -0.130000
v -0.821760 0.651994 -0.156000
v -0.866937 0.677994 -0.130000
v -0.680231 0.677994 -0.130000
v -0.680231 0.677994 0.130000
v -0.534542 0.427304 -0.130000
v -0.534542 0.427304 0.130000
v -0.388853 0.677994 -0.130000
v -0.388853 0.677994 0.130000
v -0.202147 0.677994 -0.130000
v -0.202147 0.677994 0.130000
v -0.452935 0.246359 -0.130000
v -0.452935 0.246359 0.130000
v -0.452935 -0.062000 -0.130000
v -0.452935 -0.062000 0.130000
v -0.616149 -0.062000 -0.130000
v -0.616149 -0.062000 0.130000
v -0.616149 0.246359 -0.130000
v -0.616149 0.246359 0.130000
v -0.866937 0.677994 -0.130000
v -0.866937 0.677994 0.130000
v -0.680231 0.677994 0.130000
v -0.695192 0.651994 0.156000
v -0.534542 0.427304 0.130000
v -0.534542 0.375559 0.156000
v -0.388853 0.677994 0.130000
v -0.373892 0.651994 0.156000
v -0.202147 0.677994 0.130000
v -0.247324 0.651994 0.156000
v -0.452935 0.246359 0.130000
v -0.478935 0.253364 0.156000
v -0.452935 -0.062000 0.130000
v -0.478935 -0.036000 0.156000
v -0.616149 -0.062000 0.130000
v -0.590149 -0.036000 0.156000
v -0.616149 0.246359 0.130000
v -0.590149 0.253364 0.156000
v -0.866937 0.677994 0.130000
v -0.821760 0.651994 0.156000
v 0.312952 0.651994 -0.156000
v 0.338952 0.677994 -0.130000
v 0.312952 0.227629 -0.156000
v 0.338952 0.224458 -0.130000
v 0.265931 0.037701 -0.156000
v 0.288063 0.018908 -0.130000
v 0.067808 -0.047346 -0.156000
v 0.067808 -0.075641 -0.130000
v -0.130315 0.037701 -0.156000
v -0.152447 0.018908 -0.130000
v -0.177335 0.227629 -0.156000
v -0.203335 0.224458 -0.130000
v -0.177335 0.651994 -0.156000
v -0.203335 0.677994 -0.130000
v -0.066121 0.651994 -0.156000
v -0.040121 0.677994 -0.130000
v -0.066121 0.247113 -0.156000
v -0.040121 0.249754 -0.130000
v -0.038766 0.113844 -0.156000
v -0.016020 0.132341 -0.130000
v 0.067808 0.067809 -0.156000
v 0.067808 0.096131 -0.130000
v 0.174382 0.113844 -0.156000
v 0.151637 0.132341 -0.130000
v 0.201738 0.247113 -0.156000
v 0.175738 0.249754 -0.130000
v 0.201738 0.651994 -0.156000
v 0.175738 0.677994 -0.130000
v 0.338952 0.677994 -0.130000
v 0.338952 0.677994 0.130000
v 0.338952 0.224458 -0.130000
v 0.338952 0.224458 0.130000
v 0.288063 0.018908 -0.130000
v 0.288063 0.018908 0.130000
v 0.067808 -0.075641 -0.130000
v 0.067808 -0.075641 0.130000
v -0.152447 0.018908 -0.130000
v -0.152447 0.018908 0.130000
v -0.203335 0.224458 -0.130000
v -0.203335 0.224458 0.130000
v -0.203335 0.677994 -0.130000
v -0.203335 0.677994 0.130000
v -0.040121 0.677994 -0.130000
v -0.040121 0.677994 0.130000
v -0.040121 0.249754 -0.130000
v -0.040121 0.249754 0.130000
v -0.016020 0.132341 -0.130000
v -0.016020 0.132341 0.130000
v 0.067808 0.096131 -0.130000
v 0.067808 0.096131 0.130000
v 0.151637 0.132341 -0.130000
v 0.151637 0.132341 0.130000
v 0.175738 0.249754 -0.130000
v 0.175738 0.249754 0.130000
v 0.175738 0.677994 -0.130000
v 0.175738 0.677994 0.130000
v 0.338952 0.677994 0.130000
v 0.312952 0.651994 0.156000
v 0.338952 0.224458 0.130000
v 0.312952 0.227629 0.156000
v 0.288063 0.018908 0.130000
v 0.265931 0.037701 0.156000
v 0.067808 -0.075641 0.130000
v 0.067808 -0.047346 0.156000
v -0.152447 0.018908 0.130000
v -0.130315 0.037701 0.156000
v -0.203335 0.224458 0.130000
v -0.177335 0.227629 0.156000
v -0.203335 0.677994 0.130000
v -0.177335 0.651994 0.156000
v -0.040121 0.677994 0.130000
v -0.066121 0.651994 0.156000
v -0.040121 0.249754 0.130000
v -0.066121 0.247113 0.156000
v -0.016020 0.132341 0.130000
v -0.038766 0.113844 0.156000
v 0.067808 0.096131 0.130000
v 0.067808 0.067809 0.156000
v 0.151637 0.132341 0.130000
v 0.174382 0.113844 0.156000
v 0.175738 0.249754 0.130000
v 0.201738 0.247113 0.156000
v 0.175738 0.677994 0.130000
v 0.201738 0.651994 0.156000
v 0.582797 0.438575 -0.156000
v 0.608797 0.372983 -0.130000
v 0.582797 -0.036000 -0.156000
v 0.608797 -0.062000 -0.130000
v 0.471582 -0.036000 -0.156000
v 0.445582 -0.062000 -0.130000
v 0.471582 0.714492 -0.156000
v 0.445582 0.779729 -0.130000
v 0.988723 0.168758 -0.156000
v 0.962723 0.233995 -0.130000
v 0.988723 0.651994 -0.156000
v 0.962723 0.677994 -0.130000
v 1.099937 0.651994 -0.156000
v 1.125937 0.677994 -0.130000
v 1.099937 -0.111244 -0.156000
v 1.125937 -0.176836 -0.130000
v 0.608797 0.372983 -0.130000
v 0.608797 0.372983 0.130000
v 0.608797 -0.062000 -0.130000
v 0.608797 -0.062000 0.130000
v 0.445582 -0.062000 -0.130000
v 0.445582 -0.062000 0.130000
v 0.445582 0.779729 -0.130000
v 0.445582 0.779729 0.130000
v 0.962723 0.233995 -0.130000
v 0.962723 0.233995 0.130000
v 0.962723 0.677994 -0.130000
v 0.962723 0.677994 0.130000
v 1.125937 0.677994 -0.130000
v 1.125937 0.677994 0.130000
v 1.125937 -0.176836 -0.130000
v 1.125937 -0.176836 0.130000
v 0.608797 0.372983 0.130000
v 0.582797 0.438575 0.156000
v 0.608797 -0.062000 0.130000
v 0.582797 -0.036000 0.156000
v 0.445582 -0.062000 0.130000
v 0.471582 -0.036000 0.156000
v 0.445582 0.779729 0.130000
v 0.471582 0.714492 0.156000
v 0.962723 0.233995 0.130000
v 0.988723 0.168758 0.156000
v 0.962723 0.677994 0.130000
v 0.988723 0.651994 0.156000
v 1.125937 0.677994 0.130000
v 1.099937 0.651994 0.156000
v 1.125937 -0.176836 0.130000
v 1.099937 -0.111244 0.156000
v 1.264286 -0.036000 -0.156000
v 1.238286 -0.062000 -0.130000
v 1.264286 0.651994 -0.156000
v 1.238286 0.677994 -0.130000
v 1.375500 0.651994 -0.156000
v 1.401500 0.677994 -0.130000
v 1.375500 -0.036000 -0.156000
v 1.401500 -0.062000 -0.130000
v 1.238286 -0.062000 -0.130000
v 1.238286 -0.062000 0.130000
v 1.238286 0.677994 -0.130000
v 1.238286 0.677994 0.130000
v 1.401500 0.677994 -0.130000
v 1.401500 0.677994 0.130000
v 1.401500 -0.062000 -0.130000
v 1.401500 -0.062000 0.130000
v 1.238286 -0.062000 0.130000
v 1.264286 -0.036000 0.156000
v 1.238286 0.677994 0.130000
v 1.264286 0.651994 0.156000
v 1.401500 0.677994 0.130000
v 1.375500 0.651994 0.156000
v 1.401500 -0.062000 0.130000
v 1.375500 -0.036000 0.156000
vn 0.000000 0.000000 1.000000
vn 0.000000 -0.000000 -1.000000
vn 0.408200 0.408200 -0.816500
vn 0.699300 -0.085300 -0.709700
vn 0.508500 -0.431800 -0.745000
vn 0.000000 -0.676600 -0.736300
vn -0.508500 -0.431800 -0.745000
vn -0.699300 -0.085300 -0.709700
vn -0.408200 0.408200 -0.816500
vn 0.701700 0.071300 -0.708900
vn 0.514800 0.418600 -0.748200
vn 0.000000 0.676300 -0.736700
vn -0.514800 0.418600 -0.748200
vn -0.701700 0.071300 -0.708900
vn 0.707100 0.707100 0.000000
vn 0.992600 -0.121000 0.000000
vn 0.762200 -0.647300 0.000000
vn 0.000000 -1.000000 0.000000
vn -0.762200 -0.647300 0.000000
vn -0.992600 -0.121000 0.000000
vn -0.707100 0.707100 0.000000
vn 0.994900 0.101000 0.000000
vn 0.775800 0.630900 0.000000
vn 0.000000 1.000000 0.000000
vn -0.775800 0.630900 0.000000
vn -0.994900 0.101000 0.000000
vn 0.408200 0.408200 0.816500
vn 0.699300 -0.085300 0.709700
vn 0.508500 -0.431800 0.745000
vn 0.000000 -0.676600 0.736300
vn -0.508500 -0.431800 0.745000
vn -0.699300 -0.085300 0.709700
vn -0.408200 0.408200 0.816500
vn 0.701700 0.071300 0.708900
vn 0.514800 0.418600 0.748200
vn 0.000000 0.676300 0.736700
vn -0.514800 0.418600 0.748200
vn -0.701700 0.071300 0.708900
vn 0.326700 0.567700 -0.755600
vn 0.000000 0.449000 -0.893500
vn -0.326700 0.567700 -0.755600
vn 0.386900 0.222600 -0.894800
vn 0.670700 -0.180700 -0.719400
vn 0.408200 -0.408200 -0.816500
vn -0.408200 -0.408200 -0.816500
vn -0.670700 -0.180700 -0.719400
vn -0.386900 0.222600 -0.894800
vn 0.498800 0.866700 0.000000
vn -0.498800 0.866700 0.000000
vn 0.866700 0.498800 0.000000
vn 0.965500 -0.260100 0.000000
vn 0.707100 -0.707100 0.000000
vn -0.707100 -0.707100 0.000000
vn -0.965500 -0.260100 0.000000
vn -0.866700 0.498800 0.000000
vn 0.326700 0.567700 0.755600
vn 0.000000 0.449000 0.893500
vn -0.326700 0.567700 0.755600
vn 0.386900 0.222600 0.894800
vn 0.670700 -0.180700 0.719400
vn 0.408200 -0.408200 0.816500
vn -0.408200 -0.408200 0.816500
vn -0.670700 -0.180700 0.719400
vn -0.386900 0.222600 0.894800
vn 0.127400 -0.321400 -0.938300
vn -0.128500 0.322500 -0.937800
vn 0.368500 -0.929600 0.000000
vn -0.370200 0.928900 0.000000
vn 0.127400 -0.321400 0.938300
vn -0.128500 0.322500 0.937800
usemtl None
s off
f 1//1 3//1 2//1
f 1//1 4//1 3//1
f 7//1 5//1 8//1
f 5//1 9//1 8//1
f 9//1 11//1 10//1
f 9//1 12//1 11//1
f 7//1 6//1 5//1
f 12//1 9//1 5//1
f 18//1 20//1 19//1
f 18//1 21//1 20//1
f 25//1 13//1 26//1
f 25//1 14//1 13//1
f 18//1 22//1 21//1
f 24//1 14//1 25//1
f 17//1 22//1 18//1
f 24//1 15//1 14//1
f 17//1 23//1 22//1
f 23//1 15//1 24//1
f 17//1 15//1 23//1
f 16//1 15//1 17//1
f 34//1 27//1 35//1
f 34//1 28//1 27//1
f 28//1 30//1 29//1
f 28//1 31//1 30//1
f 34//1 31//1 28//1
f 33//1 31//1 34//1
f 33//1 32//1 31//1
f 41//1 43//1 42//1
f 41//1 44//1 43//1
f 48//1 36//1 49//1
f 48//1 37//1 36//1
f 41//1 45//1 44//1
f 47//1 37//1 48//1
f 40//1 45//1 41//1
f 47//1 38//1 37//1
f 40//1 46//1 45//1
f 46//1 38//1 47//1
f 40//1 38//1 46//1
f 39//1 38//1 40//1
f 52//2 50//2 51//2
f 53//2 50//2 52//2
f 54//2 56//2 57//2
f 58//2 54//2 57//2
f 60//2 58//2 59//2
f 61//2 58//2 60//2
f 55//2 56//2 54//2
f 58//2 61//2 54//2
f 69//2 67//2 68//2
f 70//2 67//2 69//2
f 62//2 74//2 75//2
f 63//2 74//2 62//2
f 71//2 67//2 70//2
f 63//2 73//2 74//2
f 71//2 66//2 67//2
f 64//2 73//2 63//2
f 72//2 66//2 71//2
f 64//2 72//2 73//2
f 64//2 66//2 72//2
f 64//2 65//2 66//2
f 76//2 83//2 84//2
f 77//2 83//2 76//2
f 79//2 77//2 78//2
f 80//2 77//2 79//2
f 80//2 83//2 77//2
f 80//2 82//2 83//2
f 81//2 82//2 80//2
f 92//2 90//2 91//2
f 93//2 90//2 92//2
f 85//2 97//2 98//2
f 86//2 97//2 85//2
f 94//2 90//2 93//2
f 86//2 96//2 97//2
f 94//2 89//2 90//2
f 87//2 96//2 86//2
f 95//2 89//2 94//2
f 87//2 95//2 96//2
f 87//2 89//2 95//2
f 87//2 88//2 89//2
s 1
f 100//3 102//4 101//4 99//3
f 102//4 104//5 103//5 101//4
f 104//5 106//6 105//6 103//5
f 106//6 108//7 107//7 105//6
f 108//7 110//8 109//8 107//7
f 110//8 112//9 111//9 109//8
f 112//9 114//3 113//3 111//9
f 114//3 116//10 115//10 113//3
f 116//10 118//11 117//11 115//10
f 118//11 120//12 119//12 117//11
f 120//12 122//13 121//13 119//12
f 122//13 124//14 123//14 121//13
f 124//14 126//9 125//9 123//14
f 126//9 100//3 99//3 125//9
f 128//15 130//16 129//16 127//15
f 130//16 132//17 131//17 129//16
f 132//17 134//18 133//18 131//17
f 134//18 136//19 135//19 133//18
f 136//19 138//20 137//20 135//19
f 138//20 140//21 139//21 137//20
f 140//21 142//15 141//15 139//21
f 142//15 144//22 143//22 141//15
f 144//22 146//23 145//23 143//22
f 146//23 148//24 147//24 145//23
f 148//24 150//25 149//25 147//24
f 150//25 152//26 151//26 149//25
f 152//26 154//21 153//21 151//26
f 154//21 128//15 127//15 153//21
f 156//27 158//28 157//28 155//27
f 158//28 160//29 159//29 157//28
f 160//29 162//30 161//30 159//29
f 162//30 164//31 163//31 161//30
f 164//31 166//32 165//32 163//31
f 166//32 168//33 167//33 165//32
f 168//33 170//27 169//27 167//33
f 170//27 172//34 171//34 169//27
f 172//34 174//35 173//35 171//34
f 174//35 176//36 175//36 173//35
f 176//36 178//37 177//37 175//36
f 178//37 180//38 179//38 177//37
f 180//38 182//33 181//33 179//38
f 182//33 156//27 155//27 181//33
f 184//39 186//40 185//40 183//39
f 186//40 188//41 187//41 185//40
f 188//41 190//42 189//42 187//41
f 190//42 192//43 191//43 189//42
f 192//43 194//44 193//44 191//43
f 194//44 196//45 195//45 193//44
f 196//45 198//46 197//46 195//45
f 198//46 200//47 199//47 197//46
f 200//47 184//39 183//39 199//47
f 202//48 204//24 203//24 201//48
f 204//24 206//49 205//49 203//24
f 206//49 208//50 207//50 205//49
f 208//50 210//51 209//51 207//50
f 210//51 212//52 211//52 209//51
f 212//52 214//53 213//53 211//52
f 214//53 216//54 215//54 213//53
f 216//54 218//55 217//55 215//54
f 218//55 202//48 201//48 217//55
f 220//56 222//57 221//57 219//56
f 222//57 224//58 223//58 221//57
f 224//58 226//59 225//59 223//58
f 226//59 228//60 227//60 225//59
f 228//60 230//61 229//61 227//60
f 230//61 232//62 231//62 229//61
f 232//62 234//63 233//63 231//62
f 234//63 236//64 235//64 233//63
f 236//64 220//56 219//56 235//64
f 238//3 240//4 239//4 237//3
f 240//4 242//5 241//5 239//4
f 242//5 244//6 243//6 241//5
f 244//6 246//7 245//7 243//6
f 246//7 248//8 247//8 245//7
f 248//8 250//9 249//9 247//8
f 250//9 252//3 251//3 249//9
f 252//3 254//10 253//10 251//3
f 254//10 256//11 255//11 253//10
f 256//11 258//12 257//12 255//11
f 258//12 260//13 259//13 257//12
f 260//13 262//14 261//14 259//13
f 262//14 264//9 263//9 261//14
f 264//9 238//3 237//3 263//9
f 266//15 268//16 267//16 265//15
f 268//16 270//17 269//17 267//16
f 270//17 272//18 271//18 269//17
f 272//18 274//19 273//19 271//18
f 274//19 276//20 275//20 273//19
f 276//20 278//21 277//21 275//20
f 278//21 280//15 279//15 277//21
f 280//15 282//22 281//22 279//15
f 282//22 284//23 283//23 281//22
f 284//23 286//24 285//24 283//23
f 286//24 288//25 287//25 285//24
f 288//25 290//26 289//26 287//25
f 290//26 292//21 291//21 289//26
f 292//21 266//15 265//15 291//21
f 294//27 296//28 295//28 293//27
f 296//28 298//29 297//29 295//28
f 298//29 300//30 299//30 297//29
f 300//30 302//31 301//31 299//30
f 302//31 304//32 303//32 301//31
f 304//32 306//33 305//33 303//32
f 306//33 308//27 307//27 305//33
f 308//27 310//34 309//34 307//27
f 310//34 312//35 311//35 309//34
f 312//35 314//36 313//36 311//35
f 314//36 316//37 315//37 313//36
f 316//37 318//38 317//38 315//37
f 318//38 320//33 319//33 317//38
f 320//33 294//27 293//27 319//33
f 322//65 324//44 323//44 321//65
f 324//44 326//45 325//45 323//44
f 326//45 328//66 327//66 325//45
f 328//66 330//66 329//66 327//66
f 330//66 332//9 331//9 329//66
f 332//9 334//3 333//3 331//9
f 334//3 336//65 335//65 333//3
f 336//65 322//65 321//65 335//65
f 338//67 340//52 339//52 337//67
f 340//52 342//53 341//53 339//52
f 342//53 344//68 343//68 341//53
f 344//68 346//68 345//68 343//68
f 346//68 348//21 347//21 345//68
f 348//21 350//15 349//15 347//21
f 350//15 352//67 351//67 349//15
f 352//67 338//67 337//67 351//67
f 354//69 356//61 355//61 353//69
f 356//61 358//62 357//62 355//61
f 358//62 360//70 359//70 357//62
f 360//70 362//70 361//70 359//70
f 362//70 364//33 363//33 361//70
f 364//33 366//27 365//27 363//33
f 366//27 368//69 367//69 365//27
f 368//69 354//69 353//69 367//69
f 370//45 372//9 371//9 369//45
f 372//9 374//3 373//3 371//9
f 374//3 376//44 375//44 373//3
f 376//44 370//45 369//45 375//44
f 378//53 380//21 379//21 377//53
f 380//21 382//15 381//15 379//21
f 382//15 384//52 383//52 381//15
f 384//52 378//53 377//53 383//52
f 386//62 388//33 387//33 385//62
f 388//33 390//27 389//27 387//33
f 390//27 392//61 391//61 389//27
f 392//61 386//62 385//62 391//61
